<svg xmlns="http://www.w3.org/2000/svg" viewBox="0 0 300 600"><path d="M48.839 159.93v-16.714h3.333l6.576 11.39h.045v-11.39h3.01v16.715h-3.079l-6.83-11.9h-.046v11.9zM63.887 153.911a8.724 8.724 0 01.359-2.593 5.678 5.678 0 011.03-1.967 4.527 4.527 0 011.643-1.25 5.712 5.712 0 014.4 0 4.53 4.53 0 011.643 1.25 5.686 5.686 0 011.03 1.967 9.545 9.545 0 010 5.186 5.678 5.678 0 01-1.03 1.968 4.523 4.523 0 01-1.644 1.25 5.724 5.724 0 01-4.399 0 4.519 4.519 0 01-1.643-1.25 5.67 5.67 0 01-1.03-1.968 8.72 8.72 0 01-.36-2.593zm7.593 0a5.924 5.924 0 00-.579-2.986 2.148 2.148 0 00-3.565 0 7.99 7.99 0 000 5.972 2.148 2.148 0 003.565 0 5.92 5.92 0 00.58-2.986zM74.698 147.892h2.732l1.644 7.5h.046l1.736-7.5h2.663l1.667 7.5h.046l1.713-7.5h2.732l-3.102 12.039h-2.593l-1.783-7.501h-.046l-1.76 7.5h-2.592zM92.501 146.503h-1.389v-3.287h3.195v3.287l-1.481 3.473H91.32zM102.155 151.063a7.025 7.025 0 00-1.007-.868 2.092 2.092 0 00-1.238-.405 1.914 1.914 0 00-1.227.324 1.055 1.055 0 00-.394.857.957.957 0 00.452.822 5.343 5.343 0 001.11.567q.66.255 1.448.52a5.911 5.911 0 011.447.719 3.979 3.979 0 011.11 1.158 3.274 3.274 0 01.453 1.794 3.59 3.59 0 01-.336 1.62 3.182 3.182 0 01-.926 1.123 3.875 3.875 0 01-1.401.66 7.066 7.066 0 01-1.76.208 5.345 5.345 0 01-2.604-.625 5.65 5.65 0 01-1.956-1.806l1.921-1.435a5.95 5.95 0 001.192 1.216 2.58 2.58 0 001.61.52 1.913 1.913 0 001.238-.382 1.206 1.206 0 00.475-.984.986.986 0 00-.451-.833 4.997 4.997 0 00-1.112-.58q-.66-.254-1.447-.543a6.81 6.81 0 01-1.447-.73 3.994 3.994 0 01-1.111-1.11 3.01 3.01 0 01-.451-1.714 3.337 3.337 0 01.323-1.493 3.158 3.158 0 01.88-1.1 4.046 4.046 0 011.274-.671 4.9 4.9 0 011.505-.232 6.17 6.17 0 012.326.452 4.841 4.841 0 011.91 1.377zM119.773 159.93l-.185-1.041a8.606 8.606 0 01-1.748.937 5.532 5.532 0 01-2.003.336 3.544 3.544 0 01-1.423-.267 2.877 2.877 0 01-1.019-.716 3.128 3.128 0 01-.614-1.02 3.433 3.433 0 01-.208-1.191 3.603 3.603 0 011.69-3.184 12.24 12.24 0 015.21-1.54v-1.018a1.246 1.246 0 00-.499-1.065 2.056 2.056 0 00-1.262-.37 2.64 2.64 0 00-1.62.451 4.767 4.767 0 00-1.019 1.03l-1.852-1.412a3.292 3.292 0 01.764-.891 5.421 5.421 0 011.1-.706 6.202 6.202 0 011.285-.463 4.987 4.987 0 011.343-.14 8.116 8.116 0 012.084.279 3.305 3.305 0 011.446.82 3.4 3.4 0 01.834 1.495 8.323 8.323 0 01.266 2.268v5.672a8.524 8.524 0 00.046.904 3.63 3.63 0 00.185.833zm-.3-5.764q-.719.14-1.436.3a6.554 6.554 0 00-1.297.43 2.707 2.707 0 00-.937.682 1.539 1.539 0 00-.36 1.042 1.36 1.36 0 00.394 1.042 1.393 1.393 0 00.996.37 2.198 2.198 0 00.717-.127 4.971 4.971 0 00.718-.312 5.333 5.333 0 00.66-.417q.313-.232.544-.417zM142.09 149.605q-.51 0-1.018.035a1.747 1.747 0 00-.834.243 3.772 3.772 0 01.463.915 3.619 3.619 0 01.185 1.215 4.08 4.08 0 01-.289 1.562 3.396 3.396 0 01-.857 1.228 3.948 3.948 0 01-1.412.81 6.131 6.131 0 01-1.98.29 9.278 9.278 0 00-1.597.116q-.648.115-.648.625 0 .486.59.647a7.53 7.53 0 001.47.22q.88.058 1.899.116a7.086 7.086 0 011.898.36 3.512 3.512 0 011.47.937 2.61 2.61 0 01.591 1.84 2.733 2.733 0 01-.336 1.285 3.453 3.453 0 01-1.019 1.146 5.516 5.516 0 01-1.736.822 8.78 8.78 0 01-2.489.312 8.958 8.958 0 01-3.9-.718 2.298 2.298 0 01-1.47-2.152 2.25 2.25 0 01.196-.973 2.114 2.114 0 01.51-.694 2.139 2.139 0 01.694-.417 2.251 2.251 0 01.776-.139v-.047a3.942 3.942 0 00-.51-.277 3.534 3.534 0 01-.59-.348 1.836 1.836 0 01-.486-.52 1.474 1.474 0 01-.197-.799 1.561 1.561 0 01.22-.81 3.118 3.118 0 01.52-.66 3.329 3.329 0 01.614-.474 2.773 2.773 0 01.521-.255 6.679 6.679 0 01-1.262-1.343 3.143 3.143 0 01-.52-1.852 4.11 4.11 0 01.3-1.54 3.88 3.88 0 01.903-1.342 4.527 4.527 0 011.482-.95 5.429 5.429 0 012.06-.359 4.755 4.755 0 011.586.29 4.169 4.169 0 011.378.775 2.544 2.544 0 011.1-.834 4.136 4.136 0 011.724-.23zm-6.343 10.094a2.715 2.715 0 00-.984.15 2.198 2.198 0 00-.625.359 1.136 1.136 0 00-.336.452 1.22 1.22 0 00-.093.428 1.068 1.068 0 00.695 1.018 6.59 6.59 0 002.5.325 3.909 3.909 0 001.17-.15 2.731 2.731 0 00.763-.36 1.385 1.385 0 00.417-.44.859.859 0 00.127-.393.793.793 0 00-.173-.451 1.564 1.564 0 00-.602-.451 4.752 4.752 0 00-1.123-.348 9.06 9.06 0 00-1.736-.139zm2.5-7.918a1.921 1.921 0 00-.579-1.412 1.896 1.896 0 00-1.389-.579 2.036 2.036 0 00-1.505.58 2.012 2.012 0 000 2.823 2.032 2.032 0 001.505.58 1.892 1.892 0 001.39-.58 1.921 1.921 0 00.578-1.412zM143.387 159.93v-12.038h2.639v2.06h.046a4.5 4.5 0 011.308-1.667 3.62 3.62 0 012.073-.625v3.033a1.171 1.171 0 00-.232-.023h-.278a2.09 2.09 0 00-1.019.267 4.455 4.455 0 00-.856.601 4.049 4.049 0 00-.59.649 1.018 1.018 0 00-.22.428v7.316zM153.087 154.374a4.132 4.132 0 00.764 2.674 2.248 2.248 0 001.736.799 2.707 2.707 0 001.575-.405 6.03 6.03 0 001.11-1.03l2.084 1.296a4.948 4.948 0 01-2.071 1.875 6.985 6.985 0 01-2.975.58 4.932 4.932 0 01-2.119-.44 4.49 4.49 0 01-1.597-1.251 5.786 5.786 0 01-1.019-1.968 9.545 9.545 0 010-5.186 5.678 5.678 0 011.03-1.967 4.527 4.527 0 011.644-1.25 5.285 5.285 0 012.2-.44 4.664 4.664 0 012.094.451 4.582 4.582 0 011.54 1.215 5.358 5.358 0 01.95 1.772 6.788 6.788 0 01.323 2.094v1.181zm4.63-1.944a3.02 3.02 0 00-.66-1.945 2.318 2.318 0 00-3.31 0 3.015 3.015 0 00-.66 1.945zM168.69 159.93l-.184-1.041a8.606 8.606 0 01-1.748.937 5.532 5.532 0 01-2.003.336 3.544 3.544 0 01-1.423-.267 2.877 2.877 0 01-1.019-.716 3.128 3.128 0 01-.614-1.02 3.433 3.433 0 01-.208-1.191 3.603 3.603 0 011.69-3.184 12.24 12.24 0 015.21-1.54v-1.018a1.246 1.246 0 00-.499-1.065 2.056 2.056 0 00-1.262-.37 2.64 2.64 0 00-1.62.451 4.767 4.767 0 00-1.019 1.03l-1.852-1.412a3.292 3.292 0 01.764-.891 5.421 5.421 0 011.1-.706 6.202 6.202 0 011.285-.463 4.987 4.987 0 011.342-.14 8.116 8.116 0 012.084.279 3.305 3.305 0 011.447.82 3.4 3.4 0 01.834 1.495 8.323 8.323 0 01.266 2.268v5.672a8.524 8.524 0 00.046.904 3.629 3.629 0 00.185.833zm-.3-5.764q-.718.14-1.435.3a6.554 6.554 0 00-1.297.43 2.707 2.707 0 00-.937.682 1.539 1.539 0 00-.36 1.042 1.36 1.36 0 00.394 1.042 1.393 1.393 0 00.996.37 2.198 2.198 0 00.717-.127 4.971 4.971 0 00.718-.312 5.333 5.333 0 00.66-.417q.312-.232.544-.417zM174.155 147.892v-3.982h2.87v3.982h2.362v2.315h-2.362v6.807a.745.745 0 00.255.66 1.42 1.42 0 00.787.173 2.773 2.773 0 00.66-.081q.335-.081.66-.15v2.36q-.602.07-1.135.128a10.656 10.656 0 01-1.134.058 2.987 2.987 0 01-2.28-.741 2.888 2.888 0 01-.683-2.037v-7.177h-1.667v-2.315zM188.925 147.892v-3.982h2.87v3.982h2.362v2.315h-2.361v6.807a.746.746 0 00.255.66 1.42 1.42 0 00.787.173 2.766 2.766 0 00.66-.081c.223-.054.443-.104.66-.15v2.36q-.603.07-1.136.128a10.627 10.627 0 01-1.133.058 2.985 2.985 0 01-2.28-.741 2.884 2.884 0 01-.684-2.037v-7.177h-1.667v-2.315zM196.009 145.67v-2.686h2.87v2.686zm2.87 14.26h-2.87v-12.038h2.87zM201.495 159.93v-12.038h2.616v1.296a7.115 7.115 0 011.598-1.134 4.505 4.505 0 012.014-.394 3.633 3.633 0 011.76.44 2.718 2.718 0 011.204 1.32 8.214 8.214 0 01.787-.694 4.725 4.725 0 01.914-.556 5.526 5.526 0 011.1-.37 5.97 5.97 0 011.342-.14 3.342 3.342 0 01.984.162 2.53 2.53 0 01.961.568 3.074 3.074 0 01.73 1.111 4.71 4.71 0 01.289 1.771v8.659h-2.871v-8.405a1.694 1.694 0 00-.324-1.122 1.516 1.516 0 00-1.112-.428 2.369 2.369 0 00-1.226.417 8 8 0 00-1.18.88v8.658h-2.872v-8.405a1.694 1.694 0 00-.324-1.122 1.514 1.514 0 00-1.112-.428 2.369 2.369 0 00-1.226.417 8 8 0 00-1.18.88v8.658zM222.447 154.374a4.129 4.129 0 00.764 2.674 2.248 2.248 0 001.736.799 2.708 2.708 0 001.574-.405 6.029 6.029 0 001.112-1.03l2.084 1.296a4.949 4.949 0 01-2.072 1.875 6.986 6.986 0 01-2.976.58 4.932 4.932 0 01-2.118-.44 4.486 4.486 0 01-1.597-1.251 5.779 5.779 0 01-1.02-1.968 9.558 9.558 0 010-5.186 5.686 5.686 0 011.03-1.967 4.534 4.534 0 011.645-1.25 5.28 5.28 0 012.2-.44 4.66 4.66 0 012.094.451 4.593 4.593 0 011.54 1.215 5.385 5.385 0 01.95 1.772 6.803 6.803 0 01.324 2.094v1.181zm4.63-1.944a3.017 3.017 0 00-.66-1.945 2.318 2.318 0 00-3.31 0 3.011 3.011 0 00-.66 1.945zM239.602 147.892v-3.982h2.87v3.982h2.362v2.315h-2.361v6.807a.746.746 0 00.255.66 1.42 1.42 0 00.787.173 2.766 2.766 0 00.659-.081c.223-.054.444-.104.66-.15v2.36q-.602.07-1.135.128a10.627 10.627 0 01-1.134.058 2.985 2.985 0 01-2.28-.741 2.884 2.884 0 01-.683-2.037v-7.177h-1.667v-2.315zM245.575 153.911a8.74 8.74 0 01.359-2.593 5.686 5.686 0 011.03-1.967 4.534 4.534 0 011.644-1.25 5.711 5.711 0 014.399 0 4.531 4.531 0 011.643 1.25 5.686 5.686 0 011.03 1.967 9.558 9.558 0 010 5.186 5.677 5.677 0 01-1.03 1.968 4.523 4.523 0 01-1.643 1.25 5.723 5.723 0 01-4.399 0 4.526 4.526 0 01-1.644-1.25 5.678 5.678 0 01-1.03-1.968 8.736 8.736 0 01-.359-2.593zm7.594 0a5.924 5.924 0 00-.58-2.986 2.149 2.149 0 00-3.565 0 8.002 8.002 0 000 5.972 2.149 2.149 0 003.566 0 5.92 5.92 0 00.579-2.986zM53.342 175.858a3.89 3.89 0 00-1.1-1.736 2.796 2.796 0 00-1.933-.67 2.826 2.826 0 00-2.512 1.469 8.542 8.542 0 00-.915 4.433q-.069 5.904 3.52 5.904a3.955 3.955 0 00.983-.115 2.44 2.44 0 00.834-.394 3.634 3.634 0 00.741-.753 6.867 6.867 0 00.706-1.216l2.963.787a6.303 6.303 0 01-2.326 3.277 6.68 6.68 0 01-3.902 1.1 5.934 5.934 0 01-4.965-2.235 12.426 12.426 0 010-12.71 5.936 5.936 0 014.965-2.233 6.154 6.154 0 013.82 1.076 5.948 5.948 0 012.015 3.322zM58.481 187.712v-16.715h3.195v6.667h6.436v-6.667h3.195v16.715h-3.195v-7.177h-6.436v7.177zM74.479 187.712v-16.715h11.065v2.686h-7.87v3.981h5.718v2.686h-5.719v4.676H85.8v2.686zM96.31 175.858a3.89 3.89 0 00-1.1-1.736 2.796 2.796 0 00-1.933-.67 2.826 2.826 0 00-2.512 1.469 8.542 8.542 0 00-.915 4.433q-.069 5.904 3.52 5.904a3.955 3.955 0 00.983-.115 2.44 2.44 0 00.834-.394 3.633 3.633 0 00.74-.753 6.867 6.867 0 00.707-1.216l2.963.787a6.303 6.303 0 01-2.326 3.277 6.68 6.68 0 01-3.902 1.1 5.934 5.934 0 01-4.966-2.235 12.426 12.426 0 010-12.71 5.936 5.936 0 014.966-2.233 6.154 6.154 0 013.82 1.076 5.948 5.948 0 012.015 3.322zM101.38 187.712v-16.715h3.194v7.432l5.58-7.432h3.681l-4.746 6.274 5.51 10.44h-3.542l-4.144-7.94-2.339 2.917v5.024zM122.308 189.656a3.554 3.554 0 00.602.081q.277.012.602.012a2.741 2.741 0 001.192-.22 1.545 1.545 0 00.706-.73q.208-.439.336-.74a1.718 1.718 0 00.127-.671 2.155 2.155 0 00-.127-.695q-.128-.37-.244-.74l-3.217-10.28h2.893l1.991 7.409h.047l2.06-7.41h2.87l-3.796 12.063a18.313 18.313 0 01-.937 2.142 5.154 5.154 0 01-.984 1.343 2.996 2.996 0 01-1.193.694 5.42 5.42 0 01-1.54.196q-.532 0-.833-.022a5.395 5.395 0 01-.555-.07zM132.401 181.692a8.724 8.724 0 01.36-2.592 5.678 5.678 0 011.03-1.968 4.527 4.527 0 011.643-1.25 5.712 5.712 0 014.399 0 4.53 4.53 0 011.644 1.25 5.686 5.686 0 011.03 1.968 9.545 9.545 0 010 5.185 5.678 5.678 0 01-1.03 1.968 4.523 4.523 0 01-1.644 1.25 5.724 5.724 0 01-4.399 0 4.519 4.519 0 01-1.643-1.25 5.67 5.67 0 01-1.03-1.968 8.72 8.72 0 01-.36-2.593zm7.594 0a5.924 5.924 0 00-.579-2.986 2.148 2.148 0 00-3.565 0 7.99 7.99 0 000 5.973 2.148 2.148 0 003.565 0 5.92 5.92 0 00.58-2.987zM154.511 175.673v12.039h-2.64v-1.297a17.824 17.824 0 01-1.724 1.042 4.152 4.152 0 01-1.98.486 3.248 3.248 0 01-2.685-1.088 4.543 4.543 0 01-.88-2.94v-8.242h2.871v7.825a2.755 2.755 0 00.37 1.679 1.354 1.354 0 001.112.45 3.014 3.014 0 001.632-.427 4.88 4.88 0 001.053-.845v-8.682zM156.896 187.712v-12.04h2.639v2.061h.046a4.5 4.5 0 011.308-1.667 3.62 3.62 0 012.072-.625v3.034a1.171 1.171 0 00-.232-.024h-.277a2.09 2.09 0 00-1.019.267 4.455 4.455 0 00-.856.601 4.049 4.049 0 00-.59.649 1.018 1.018 0 00-.22.428v7.316zM171.85 170.997h2.872v5.787h.046a2.634 2.634 0 01.556-.532 3.758 3.758 0 01.752-.428 5.364 5.364 0 01.822-.278 3.256 3.256 0 01.787-.105 4.119 4.119 0 012.06.51 4.778 4.778 0 011.517 1.343 6.03 6.03 0 01.926 1.898 7.667 7.667 0 01.312 2.176 10.783 10.783 0 01-.3 2.616 6.42 6.42 0 01-.903 2.084 4.348 4.348 0 01-1.505 1.377 4.291 4.291 0 01-2.107.498 3.732 3.732 0 01-1.736-.393 6.515 6.515 0 01-1.529-1.135l-.323 1.297h-2.246zm2.872 13.566q.23.186.428.37a2.723 2.723 0 00.44.337 2.543 2.543 0 00.567.254 2.6 2.6 0 00.787.104 2.271 2.271 0 001.991-1.007 6.524 6.524 0 000-5.857 2.274 2.274 0 00-1.991-1.007 2.443 2.443 0 00-1.238.312 5.81 5.81 0 00-.984.706zM194.238 175.673v12.039h-2.64v-1.297a17.824 17.824 0 01-1.724 1.042 4.153 4.153 0 01-1.98.486 3.248 3.248 0 01-2.685-1.088 4.54 4.54 0 01-.88-2.94v-8.242h2.871v7.825a2.755 2.755 0 00.37 1.679 1.354 1.354 0 001.112.45 3.01 3.01 0 001.631-.427 4.884 4.884 0 001.054-.845v-8.682zM202.596 178.845a6.999 6.999 0 00-1.007-.868 2.092 2.092 0 00-1.238-.406 1.916 1.916 0 00-1.228.325 1.055 1.055 0 00-.394.856.957.957 0 00.452.822 5.348 5.348 0 001.111.568q.66.254 1.447.52a5.923 5.923 0 011.448.718 3.998 3.998 0 011.11 1.158 3.274 3.274 0 01.452 1.794 3.59 3.59 0 01-.336 1.62 3.182 3.182 0 01-.926 1.123 3.873 3.873 0 01-1.4.66 7.07 7.07 0 01-1.76.208 5.345 5.345 0 01-2.604-.625 5.644 5.644 0 01-1.956-1.805l1.92-1.436a5.962 5.962 0 001.193 1.216 2.58 2.58 0 001.61.52 1.913 1.913 0 001.238-.381 1.206 1.206 0 00.474-.985.986.986 0 00-.451-.833 4.997 4.997 0 00-1.111-.579q-.661-.255-1.448-.544a6.837 6.837 0 01-1.447-.73 3.997 3.997 0 01-1.11-1.11 3.002 3.002 0 01-.452-1.714 3.344 3.344 0 01.324-1.493 3.158 3.158 0 01.88-1.1 4.04 4.04 0 011.273-.671 4.9 4.9 0 011.505-.232 6.165 6.165 0 012.326.453 4.836 4.836 0 011.91 1.377zM206.692 173.451v-2.685h2.871v2.685zm2.871 14.26h-2.87v-12.038h2.87zM212.18 187.712v-12.04h2.64v1.298a17.9 17.9 0 011.724-1.042 4.15 4.15 0 011.98-.487 3.248 3.248 0 012.685 1.09 4.544 4.544 0 01.88 2.939v8.242h-2.871v-7.825a2.766 2.766 0 00-.37-1.679 1.355 1.355 0 00-1.112-.451 3.003 3.003 0 00-1.632.429 4.83 4.83 0 00-1.053.844v8.682zM226.719 182.155a4.129 4.129 0 00.763 2.674 2.248 2.248 0 001.737.799 2.708 2.708 0 001.574-.404 6.03 6.03 0 001.111-1.03l2.084 1.295a4.949 4.949 0 01-2.072 1.875 6.986 6.986 0 01-2.976.58 4.932 4.932 0 01-2.118-.44 4.486 4.486 0 01-1.596-1.251 5.779 5.779 0 01-1.02-1.968 9.558 9.558 0 010-5.185 5.686 5.686 0 011.03-1.968 4.534 4.534 0 011.645-1.25 5.28 5.28 0 012.2-.44 4.66 4.66 0 012.094.452 4.593 4.593 0 011.54 1.214 5.385 5.385 0 01.949 1.772 6.803 6.803 0 01.324 2.095v1.18zm4.63-1.944a3.017 3.017 0 00-.66-1.944 2.318 2.318 0 00-3.311 0 3.011 3.011 0 00-.66 1.944zM241.998 178.845a6.999 6.999 0 00-1.007-.868 2.091 2.091 0 00-1.238-.406 1.916 1.916 0 00-1.228.325 1.055 1.055 0 00-.393.856.957.957 0 00.451.822 5.348 5.348 0 001.111.568q.661.254 1.448.52a5.923 5.923 0 011.447.718 3.998 3.998 0 011.111 1.158 3.274 3.274 0 01.451 1.794 3.59 3.59 0 01-.336 1.62 3.182 3.182 0 01-.925 1.123 3.873 3.873 0 01-1.4.66 7.07 7.07 0 01-1.76.208 5.345 5.345 0 01-2.605-.625 5.643 5.643 0 01-1.956-1.805l1.92-1.436a5.963 5.963 0 001.193 1.216 2.58 2.58 0 001.61.52 1.913 1.913 0 001.238-.381 1.206 1.206 0 00.474-.985.986.986 0 00-.45-.833 4.997 4.997 0 00-1.112-.579q-.66-.255-1.447-.544a6.837 6.837 0 01-1.448-.73 3.997 3.997 0 01-1.11-1.11 3.002 3.002 0 01-.452-1.714 3.344 3.344 0 01.324-1.493 3.158 3.158 0 01.88-1.1 4.04 4.04 0 011.274-.671 4.9 4.9 0 011.504-.232 6.165 6.165 0 012.327.453 4.836 4.836 0 011.91 1.377zM252.092 178.845a6.999 6.999 0 00-1.007-.868 2.091 2.091 0 00-1.238-.406 1.916 1.916 0 00-1.228.325 1.055 1.055 0 00-.393.856.957.957 0 00.45.822 5.348 5.348 0 001.112.568q.66.254 1.447.52a5.923 5.923 0 011.448.718 3.998 3.998 0 011.11 1.158 3.274 3.274 0 01.452 1.794 3.59 3.59 0 01-.336 1.62 3.182 3.182 0 01-.926 1.123 3.873 3.873 0 01-1.4.66 7.07 7.07 0 01-1.76.208 5.345 5.345 0 01-2.604-.625 5.643 5.643 0 01-1.956-1.805l1.92-1.436a5.963 5.963 0 001.193 1.216 2.58 2.58 0 001.61.52 1.913 1.913 0 001.238-.381 1.206 1.206 0 00.474-.985.986.986 0 00-.45-.833 4.997 4.997 0 00-1.112-.579q-.66-.255-1.447-.544a6.837 6.837 0 01-1.448-.73 3.997 3.997 0 01-1.11-1.11 3.002 3.002 0 01-.452-1.713 3.344 3.344 0 01.324-1.494 3.158 3.158 0 01.88-1.1 4.04 4.04 0 011.273-.671 4.9 4.9 0 011.505-.232 6.165 6.165 0 012.326.453 4.836 4.836 0 011.91 1.377zM257.093 174.284h-1.39v-3.287h3.195v3.287l-1.481 3.473h-1.505zM75.578 209.937a4.131 4.131 0 00.764 2.673 2.248 2.248 0 001.736.8 2.707 2.707 0 001.574-.405 6.029 6.029 0 001.112-1.03l2.083 1.296a4.948 4.948 0 01-2.072 1.875 6.985 6.985 0 01-2.975.579 4.932 4.932 0 01-2.118-.44 4.49 4.49 0 01-1.598-1.25 5.786 5.786 0 01-1.018-1.969 9.545 9.545 0 010-5.185 5.678 5.678 0 011.03-1.968 4.527 4.527 0 011.644-1.25 5.285 5.285 0 012.199-.44 4.664 4.664 0 012.095.452 4.582 4.582 0 011.54 1.215 5.358 5.358 0 01.949 1.771 6.788 6.788 0 01.324 2.095v1.18zm4.63-1.945a3.02 3.02 0 00-.66-1.944 2.318 2.318 0 00-3.31 0 3.015 3.015 0 00-.66 1.944zM84.93 215.493v-16.715h2.871v16.715zM90.58 201.232v-2.685h2.87v2.685zm2.87 14.261h-2.87v-12.039h2.87zM106.068 205.168q-.51 0-1.019.034a1.747 1.747 0 00-.833.243 3.772 3.772 0 01.463.915 3.619 3.619 0 01.185 1.215 4.08 4.08 0 01-.29 1.563 3.396 3.396 0 01-.856 1.227 3.948 3.948 0 01-1.412.81 6.131 6.131 0 01-1.98.29 9.278 9.278 0 00-1.597.116q-.649.116-.648.625 0 .486.59.648a7.53 7.53 0 001.47.22q.88.057 1.899.115a7.086 7.086 0 011.898.36 3.512 3.512 0 011.47.937 2.61 2.61 0 01.59 1.84 2.733 2.733 0 01-.335 1.285 3.453 3.453 0 01-1.019 1.147 5.516 5.516 0 01-1.736.821 8.78 8.78 0 01-2.49.313 8.958 8.958 0 01-3.9-.718 2.298 2.298 0 01-1.47-2.153 2.25 2.25 0 01.197-.972 2.114 2.114 0 01.509-.695 2.139 2.139 0 01.694-.417 2.251 2.251 0 01.776-.138v-.047a3.942 3.942 0 00-.51-.277 3.534 3.534 0 01-.59-.348 1.836 1.836 0 01-.486-.52 1.474 1.474 0 01-.197-.8 1.561 1.561 0 01.22-.81 3.118 3.118 0 01.521-.66 3.329 3.329 0 01.614-.474 2.773 2.773 0 01.52-.255 6.679 6.679 0 01-1.261-1.342 3.143 3.143 0 01-.52-1.853 4.11 4.11 0 01.3-1.539 3.88 3.88 0 01.903-1.343 4.527 4.527 0 011.482-.949 5.429 5.429 0 012.06-.36 4.755 4.755 0 011.586.29 4.169 4.169 0 011.377.776 2.544 2.544 0 011.1-.834 4.136 4.136 0 011.725-.231zm-6.343 10.094a2.715 2.715 0 00-.985.15 2.198 2.198 0 00-.625.359 1.136 1.136 0 00-.335.452 1.22 1.22 0 00-.093.427 1.068 1.068 0 00.695 1.019 6.59 6.59 0 002.5.324 3.909 3.909 0 001.17-.15 2.731 2.731 0 00.763-.359 1.385 1.385 0 00.417-.44.859.859 0 00.127-.394.793.793 0 00-.173-.45 1.564 1.564 0 00-.602-.452 4.752 4.752 0 00-1.123-.348 9.06 9.06 0 00-1.736-.138zm2.5-7.918a1.921 1.921 0 00-.579-1.412 1.896 1.896 0 00-1.39-.58 2.036 2.036 0 00-1.504.58 2.012 2.012 0 000 2.824 2.032 2.032 0 001.505.579 1.892 1.892 0 001.389-.58 1.921 1.921 0 00.579-1.411zM107.596 201.232v-2.685h2.87v2.685zm2.87 14.261h-2.87v-12.039h2.87zM113.083 198.778h2.87v5.787H116a2.634 2.634 0 01.556-.532 3.758 3.758 0 01.752-.428 5.363 5.363 0 01.822-.278 3.256 3.256 0 01.787-.104 4.119 4.119 0 012.06.51 4.783 4.783 0 011.517 1.342 6.052 6.052 0 01.926 1.899 7.701 7.701 0 01.312 2.175 10.758 10.758 0 01-.3 2.617 6.41 6.41 0 01-.904 2.084 4.338 4.338 0 01-1.505 1.377 4.291 4.291 0 01-2.106.498 3.732 3.732 0 01-1.736-.394 6.516 6.516 0 01-1.529-1.135l-.323 1.297h-2.246zm2.87 13.567q.231.186.429.37a2.723 2.723 0 00.44.336 2.543 2.543 0 00.567.255 2.6 2.6 0 00.787.103 2.271 2.271 0 001.991-1.007 6.524 6.524 0 000-5.857 2.274 2.274 0 00-1.991-1.007 2.443 2.443 0 00-1.239.313 5.81 5.81 0 00-.983.706zM125.77 201.232v-2.685h2.87v2.685zm2.87 14.261h-2.87v-12.039h2.87zM131.396 215.493v-16.715h2.87v16.715zM137.044 201.232v-2.685h2.87v2.685zm2.87 14.261h-2.87v-12.039h2.87zM143.11 203.454v-3.981h2.87v3.981h2.362v2.316h-2.362v6.806a.745.745 0 00.255.66 1.42 1.42 0 00.787.173 2.773 2.773 0 00.66-.08q.336-.081.66-.151v2.361q-.602.07-1.134.128a10.656 10.656 0 01-1.135.058 2.987 2.987 0 01-2.28-.742 2.888 2.888 0 01-.683-2.037v-7.176h-1.667v-2.316zM149.221 217.438a3.553 3.553 0 00.602.08q.278.012.602.012a2.741 2.741 0 001.192-.22 1.545 1.545 0 00.707-.729q.208-.44.335-.74a1.718 1.718 0 00.128-.672 2.155 2.155 0 00-.128-.694q-.127-.371-.243-.742l-3.218-10.279h2.894l1.99 7.41h.047l2.06-7.41h2.871l-3.796 12.063a18.313 18.313 0 01-.938 2.141 5.154 5.154 0 01-.984 1.343 2.996 2.996 0 01-1.192.694 5.42 5.42 0 01-1.54.197q-.533 0-.833-.023a5.395 5.395 0 01-.556-.07zM171.145 205.77v9.723h-2.87v-9.723h-1.668v-2.316h1.644v-1.481a5.78 5.78 0 01.197-1.632 2.33 2.33 0 01.614-1.054 2.449 2.449 0 011.064-.567 5.971 5.971 0 011.528-.173h1.899v2.314h-.787a2.003 2.003 0 00-1.262.301 1.235 1.235 0 00-.359.996v1.296h2.43v2.316zM174.247 209.474a8.724 8.724 0 01.359-2.593 5.678 5.678 0 011.03-1.968 4.527 4.527 0 011.644-1.25 5.712 5.712 0 014.399 0 4.531 4.531 0 011.643 1.25 5.686 5.686 0 011.03 1.968 9.558 9.558 0 010 5.185 5.678 5.678 0 01-1.03 1.968 4.523 4.523 0 01-1.643 1.251 5.724 5.724 0 01-4.4 0 4.519 4.519 0 01-1.643-1.25 5.67 5.67 0 01-1.03-1.969 8.72 8.72 0 01-.359-2.592zm7.594 0a5.924 5.924 0 00-.58-2.987 2.148 2.148 0 00-3.564 0 7.99 7.99 0 000 5.973 2.148 2.148 0 003.565 0 5.92 5.92 0 00.579-2.986zM186.379 215.493v-12.039h2.639v2.06h.046a4.49 4.49 0 011.308-1.666 3.617 3.617 0 012.072-.625v3.033a1.163 1.163 0 00-.231-.024h-.278a2.088 2.088 0 00-1.019.267 4.47 4.47 0 00-.856.602 4.054 4.054 0 00-.591.648 1.021 1.021 0 00-.22.429v7.315zM201.796 203.454v-3.981h2.871v3.981h2.361v2.316h-2.361v6.806a.746.746 0 00.255.66 1.42 1.42 0 00.787.173 2.766 2.766 0 00.66-.08c.223-.055.444-.104.66-.151v2.361q-.603.07-1.135.128a10.627 10.627 0 01-1.134.058 2.985 2.985 0 01-2.28-.742 2.884 2.884 0 01-.684-2.037v-7.176h-1.667v-2.316zM208.672 215.493v-16.715h2.871v5.973a10.349 10.349 0 011.54-1.042 3.89 3.89 0 011.933-.486 3.248 3.248 0 012.685 1.089 4.544 4.544 0 01.88 2.939v8.242h-2.871v-7.825a2.766 2.766 0 00-.37-1.679 1.355 1.355 0 00-1.111-.45 3.003 3.003 0 00-1.632.428 4.83 4.83 0 00-1.054.845v8.681zM223.212 209.937a4.129 4.129 0 00.764 2.673 2.248 2.248 0 001.736.8 2.708 2.708 0 001.574-.405 6.029 6.029 0 001.111-1.03l2.084 1.296a4.949 4.949 0 01-2.072 1.875 6.986 6.986 0 01-2.975.579 4.932 4.932 0 01-2.119-.44 4.486 4.486 0 01-1.596-1.25 5.779 5.779 0 01-1.02-1.969 9.558 9.558 0 010-5.185 5.686 5.686 0 011.03-1.968 4.534 4.534 0 011.645-1.25 5.28 5.28 0 012.2-.44 4.66 4.66 0 012.094.452 4.593 4.593 0 011.54 1.215 5.385 5.385 0 01.95 1.771 6.803 6.803 0 01.323 2.095v1.18zm4.63-1.945a3.017 3.017 0 00-.66-1.944 2.318 2.318 0 00-3.31 0 3.012 3.012 0 00-.66 1.944zM57.656 232.95q-.51 0-1.019.034a1.746 1.746 0 00-.833.244 3.771 3.771 0 01.463.915 3.619 3.619 0 01.185 1.214 4.08 4.08 0 01-.29 1.563 3.396 3.396 0 01-.856 1.227 3.948 3.948 0 01-1.412.811 6.131 6.131 0 01-1.98.289 9.277 9.277 0 00-1.597.116q-.649.116-.649.625 0 .487.59.648a7.53 7.53 0 001.471.22q.88.058 1.898.116a7.086 7.086 0 011.899.359 3.512 3.512 0 011.47.938 2.61 2.61 0 01.59 1.84 2.733 2.733 0 01-.336 1.285 3.453 3.453 0 01-1.018 1.146 5.516 5.516 0 01-1.736.821 8.78 8.78 0 01-2.49.313 8.958 8.958 0 01-3.9-.718 2.298 2.298 0 01-1.47-2.152 2.25 2.25 0 01.197-.973 2.114 2.114 0 01.509-.694 2.139 2.139 0 01.694-.417 2.25 2.25 0 01.776-.139v-.047a3.941 3.941 0 00-.51-.277 3.535 3.535 0 01-.59-.348 1.836 1.836 0 01-.486-.52 1.474 1.474 0 01-.197-.8 1.561 1.561 0 01.22-.81 3.118 3.118 0 01.521-.659 3.329 3.329 0 01.614-.475 2.773 2.773 0 01.52-.254 6.679 6.679 0 01-1.261-1.343 3.144 3.144 0 01-.52-1.853 4.11 4.11 0 01.3-1.539 3.88 3.88 0 01.903-1.343 4.527 4.527 0 011.482-.949 5.429 5.429 0 012.06-.36 4.755 4.755 0 011.586.29 4.17 4.17 0 011.377.776 2.544 2.544 0 011.1-.834 4.136 4.136 0 011.725-.231zm-6.343 10.094a2.715 2.715 0 00-.985.15 2.198 2.198 0 00-.625.359 1.136 1.136 0 00-.335.452 1.22 1.22 0 00-.093.428 1.068 1.068 0 00.695 1.018 6.59 6.59 0 002.5.324 3.909 3.909 0 001.17-.15 2.731 2.731 0 00.763-.358 1.385 1.385 0 00.417-.44.859.859 0 00.127-.394.793.793 0 00-.174-.451 1.564 1.564 0 00-.602-.452 4.752 4.752 0 00-1.122-.347 9.059 9.059 0 00-1.736-.139zm2.5-7.918a1.921 1.921 0 00-.58-1.412 1.896 1.896 0 00-1.388-.58 2.036 2.036 0 00-1.505.58 2.012 2.012 0 000 2.824 2.032 2.032 0 001.505.58 1.892 1.892 0 001.389-.58 1.921 1.921 0 00.578-1.412zM58.119 237.256a8.724 8.724 0 01.359-2.593 5.678 5.678 0 011.03-1.968 4.527 4.527 0 011.643-1.25 5.712 5.712 0 014.4 0 4.531 4.531 0 011.643 1.25 5.686 5.686 0 011.03 1.968 9.545 9.545 0 010 5.186 5.678 5.678 0 01-1.03 1.967 4.523 4.523 0 01-1.644 1.251 5.724 5.724 0 01-4.399 0 4.519 4.519 0 01-1.643-1.25 5.67 5.67 0 01-1.03-1.968 8.72 8.72 0 01-.36-2.593zm7.593 0a5.924 5.924 0 00-.579-2.986 2.148 2.148 0 00-3.565 0 7.99 7.99 0 000 5.972 2.148 2.148 0 003.565 0 5.92 5.92 0 00.58-2.986zM68.884 231.236h2.87l1.992 8.15h.046l2.037-8.15H78.7l-3.45 12.04h-3.01zM81.872 237.719a4.132 4.132 0 00.764 2.674 2.248 2.248 0 001.736.798 2.707 2.707 0 001.574-.404 6.03 6.03 0 001.112-1.03l2.083 1.296a4.948 4.948 0 01-2.072 1.875 6.985 6.985 0 01-2.975.579 4.932 4.932 0 01-2.118-.44 4.49 4.49 0 01-1.598-1.25 5.786 5.786 0 01-1.018-1.968 9.545 9.545 0 010-5.186 5.678 5.678 0 011.03-1.968 4.527 4.527 0 011.644-1.25 5.285 5.285 0 012.199-.44 4.664 4.664 0 012.095.452 4.582 4.582 0 011.54 1.215 5.358 5.358 0 01.949 1.771 6.788 6.788 0 01.324 2.095v1.18zm4.63-1.945a3.02 3.02 0 00-.66-1.944 2.318 2.318 0 00-3.31 0 3.015 3.015 0 00-.66 1.944zM91.016 243.275v-12.039h2.64v2.06h.046a4.5 4.5 0 011.308-1.666 3.62 3.62 0 012.072-.625v3.033a1.171 1.171 0 00-.232-.023h-.278a2.09 2.09 0 00-1.018.266 4.455 4.455 0 00-.857.602 4.049 4.049 0 00-.59.648 1.018 1.018 0 00-.22.429v7.315zM98.494 243.275v-12.039h2.64v1.297a17.964 17.964 0 011.724-1.042 4.15 4.15 0 011.98-.486 3.249 3.249 0 012.685 1.089 4.542 4.542 0 01.88 2.94v8.241h-2.871v-7.825a2.763 2.763 0 00-.37-1.679 1.355 1.355 0 00-1.112-.45 3.003 3.003 0 00-1.632.428 4.827 4.827 0 00-1.053.845v8.681zM110.856 243.275v-12.039h2.617v1.297a7.126 7.126 0 011.597-1.135 4.508 4.508 0 012.014-.393 3.634 3.634 0 011.76.44 2.718 2.718 0 011.204 1.32 8.334 8.334 0 01.787-.695 4.744 4.744 0 01.915-.555 5.505 5.505 0 011.1-.37 5.967 5.967 0 011.342-.14 3.337 3.337 0 01.984.162 2.524 2.524 0 01.96.567 3.068 3.068 0 01.73 1.112 4.7 4.7 0 01.29 1.771v8.658h-2.872v-8.404a1.694 1.694 0 00-.324-1.122 1.517 1.517 0 00-1.11-.429 2.369 2.369 0 00-1.228.417 8.052 8.052 0 00-1.18.88v8.658h-2.872v-8.404a1.694 1.694 0 00-.323-1.122 1.517 1.517 0 00-1.112-.429 2.369 2.369 0 00-1.227.417 8.052 8.052 0 00-1.18.88v8.658zM131.808 237.719a4.131 4.131 0 00.764 2.674 2.248 2.248 0 001.737.798 2.707 2.707 0 001.574-.404 6.03 6.03 0 001.111-1.03l2.084 1.296a4.948 4.948 0 01-2.072 1.875 6.985 6.985 0 01-2.975.579 4.932 4.932 0 01-2.118-.44 4.49 4.49 0 01-1.598-1.25 5.786 5.786 0 01-1.019-1.968 9.545 9.545 0 010-5.186 5.678 5.678 0 011.03-1.968 4.527 4.527 0 011.644-1.25 5.285 5.285 0 012.2-.44 4.664 4.664 0 012.095.452 4.582 4.582 0 011.54 1.215 5.358 5.358 0 01.948 1.771 6.788 6.788 0 01.325 2.095v1.18zm4.63-1.945a3.02 3.02 0 00-.66-1.944 2.318 2.318 0 00-3.31 0 3.015 3.015 0 00-.66 1.944zM141.045 243.275v-12.039h2.64v1.297a17.962 17.962 0 011.725-1.042 4.15 4.15 0 011.98-.486 3.249 3.249 0 012.685 1.089 4.542 4.542 0 01.88 2.94v8.241h-2.872v-7.825a2.763 2.763 0 00-.37-1.679 1.355 1.355 0 00-1.111-.45 3.003 3.003 0 00-1.632.428 4.827 4.827 0 00-1.054.845v8.681zM153.94 231.236v-3.981h2.872v3.981h2.36v2.316h-2.36v6.806a.745.745 0 00.254.66 1.42 1.42 0 00.788.173 2.773 2.773 0 00.66-.08q.335-.081.659-.151v2.361q-.602.07-1.134.128a10.659 10.659 0 01-1.135.058 2.987 2.987 0 01-2.28-.741 2.888 2.888 0 01-.683-2.037v-7.177h-1.667v-2.316zM169.012 243.275v-16.714h3.195v16.714zM175.518 243.275v-16.714h3.333l6.575 11.39h.047v-11.39h3.01v16.714h-3.08l-6.83-11.899h-.046v11.9zM199.386 231.005a3.663 3.663 0 00-1.112-1.574 2.883 2.883 0 00-1.875-.602 3.07 3.07 0 00-1.712.44 1.564 1.564 0 00-.672 1.412 1.431 1.431 0 00.636 1.192 7.586 7.586 0 001.598.88q.961.406 2.072.822a11.014 11.014 0 012.072 1.03 5.654 5.654 0 011.597 1.517 3.797 3.797 0 01.637 2.245 4.743 4.743 0 01-1.528 3.866 6.579 6.579 0 01-4.33 1.274 7.228 7.228 0 01-1.99-.278 7.32 7.32 0 01-1.806-.787 6.156 6.156 0 01-1.47-1.25 5.571 5.571 0 01-.984-1.644l2.64-1.157a5.96 5.96 0 001.4 1.898 3.28 3.28 0 002.234.718 5.016 5.016 0 001.111-.116 2.52 2.52 0 00.892-.382 1.877 1.877 0 00.601-.695 2.232 2.232 0 00.22-1.03 1.71 1.71 0 00-.637-1.354 6.87 6.87 0 00-1.596-.985q-.961-.44-2.072-.856a11.942 11.942 0 01-2.073-1.007 5.731 5.731 0 01-1.597-1.436 3.454 3.454 0 01-.637-2.141 4.38 4.38 0 01.44-1.99 4.318 4.318 0 011.181-1.471 5.324 5.324 0 011.713-.902 7.055 7.055 0 015.65.659 5.713 5.713 0 012.314 2.802zM215.776 226.537v2.686H211.4v14.052h-3.194v-14.052h-4.376v-2.686zM219.62 226.537h3.982l4.746 16.738h-3.172l-.926-3.61h-5.28l-.994 3.61h-3.172zm.046 10.487h3.889l-1.875-7.27h-.046zM230.06 243.275v-16.714h3.335l6.575 11.39h.046v-11.39h3.01v16.714h-3.08l-6.829-11.899h-.047v11.9zM256.777 226.537v2.686h-4.376v14.052h-3.194v-14.052h-4.376v-2.686zM55.975 254.318h3.982l4.746 16.739H61.53l-.926-3.612h-5.278l-.996 3.612H51.16zm.046 10.488h3.89l-1.876-7.27h-.046zM74.31 258.786a3.663 3.663 0 00-1.111-1.574 2.883 2.883 0 00-1.875-.602 3.073 3.073 0 00-1.714.44 1.565 1.565 0 00-.671 1.412 1.431 1.431 0 00.637 1.192 7.574 7.574 0 001.597.88q.96.406 2.072.822a10.993 10.993 0 012.072 1.03 5.652 5.652 0 011.598 1.517 3.8 3.8 0 01.636 2.245 4.746 4.746 0 01-1.528 3.867 6.579 6.579 0 01-4.329 1.273 7.235 7.235 0 01-1.99-.277 7.314 7.314 0 01-1.807-.787 6.168 6.168 0 01-1.47-1.251 5.549 5.549 0 01-.984-1.644l2.64-1.157a5.953 5.953 0 001.4 1.898 3.277 3.277 0 002.234.718 5.016 5.016 0 001.112-.116 2.51 2.51 0 00.89-.382 1.874 1.874 0 00.603-.694 2.232 2.232 0 00.22-1.03 1.712 1.712 0 00-.637-1.355 6.867 6.867 0 00-1.597-.984q-.961-.44-2.072-.857a11.925 11.925 0 01-2.072-1.007 5.724 5.724 0 01-1.598-1.435 3.457 3.457 0 01-.636-2.142 4.392 4.392 0 01.44-1.99 4.325 4.325 0 011.18-1.47 5.335 5.335 0 011.713-.903 7.054 7.054 0 015.65.659 5.711 5.711 0 012.314 2.802zM88.039 258.786a3.663 3.663 0 00-1.112-1.574 2.883 2.883 0 00-1.875-.602 3.073 3.073 0 00-1.713.44 1.565 1.565 0 00-.672 1.412 1.431 1.431 0 00.637 1.192 7.574 7.574 0 001.598.88q.96.406 2.072.822a10.993 10.993 0 012.072 1.03 5.652 5.652 0 011.597 1.517 3.8 3.8 0 01.637 2.245 4.746 4.746 0 01-1.528 3.867 6.579 6.579 0 01-4.33 1.273 7.235 7.235 0 01-1.99-.277 7.314 7.314 0 01-1.806-.787 6.168 6.168 0 01-1.47-1.251 5.55 5.55 0 01-.984-1.644l2.639-1.157a5.953 5.953 0 001.4 1.898 3.277 3.277 0 002.235.718 5.016 5.016 0 001.111-.116 2.51 2.51 0 00.891-.382 1.874 1.874 0 00.602-.694 2.232 2.232 0 00.22-1.03 1.712 1.712 0 00-.636-1.355 6.867 6.867 0 00-1.598-.984q-.96-.44-2.072-.857a11.925 11.925 0 01-2.072-1.007 5.724 5.724 0 01-1.598-1.435 3.457 3.457 0 01-.636-2.142 4.392 4.392 0 01.44-1.99 4.325 4.325 0 011.18-1.47 5.335 5.335 0 011.714-.903 7.054 7.054 0 015.649.659 5.711 5.711 0 012.315 2.802zM93.665 271.057v-16.715h11.065v2.685h-7.87v3.982h5.718v2.685h-5.719v4.677h8.126v2.686zM118.112 254.318v2.686h-4.376v14.053h-3.195v-14.053h-4.375v-2.686zM126.099 254.342h2.986l2.107 11.274h.046l2.385-11.274h3.287l2.2 11.274h.046l2.292-11.274h2.987l-3.473 16.715h-3.241l-2.431-11.9h-.046l-2.408 11.9h-3.241zM146.217 271.057v-16.715h6.667a6.927 6.927 0 012.431.382 4.15 4.15 0 012.605 2.628 5.899 5.899 0 01.312 1.944 4.624 4.624 0 01-.752 2.709 3.978 3.978 0 01-2.304 1.597l3.681 7.455h-3.542l-3.148-6.807h-2.755v6.807zm3.195-9.4h2.361a4.097 4.097 0 002.57-.59 2.606 2.606 0 000-3.543 3.03 3.03 0 00-2.014-.59h-2.917zM161.103 271.057v-16.715h3.195v16.715zM178.235 254.318v2.686h-4.376v14.053h-3.195v-14.053h-4.375v-2.686zM180.064 271.057v-16.715h11.066v2.685h-7.871v3.982h5.719v2.685h-5.72v4.677h8.127v2.686zM192.45 266.287v-2.5h5.671v2.5zM214.096 262.7a9.967 9.967 0 01-1.784 6.354 7.243 7.243 0 01-10.463 0 12.216 12.216 0 010-12.71 7.245 7.245 0 0110.464 0 9.972 9.972 0 011.783 6.355zm-3.196 0a8.458 8.458 0 00-.925-4.434 3.584 3.584 0 00-5.788 0 8.458 8.458 0 00-.926 4.433 8.125 8.125 0 00.89 4.434 3.224 3.224 0 002.93 1.47 3.174 3.174 0 002.894-1.47 8.458 8.458 0 00.925-4.434zM216.271 271.057v-16.715h10.65v2.685h-7.454v3.982h5.579v2.685h-5.58v7.363zM228.68 271.057v-16.715h10.65v2.685h-7.454v3.982h5.58v2.685h-5.58v7.363zM239.207 258.663l2.43-5.061h1.35l2.429 5.061h-1.484l-1.62-3.55-1.633 3.55zM247.415 271.057v-3.287h3.194v3.287z" fill="#fff"/></svg>