<svg xmlns="http://www.w3.org/2000/svg" viewBox="0 0 300 600"><path d="M13.514 271.27l-.075-.035h-.06l.105.107zm.151 2.467h-.06v.107h.06zm.241-.447l-.03-.107-.03.035zm.03-1.787l-.09-.036h-.03v.107l.06.072zm.12.572v.304h.03zm.03.268v.036l.045.035zm.076.357l-.076.07h-.12l.06.109-.03.232.256.036.03-.107-.06-.233.091-.071.06-.143-.15-.072zm.271-.625h-.06v.089l.06.036zm0 1.072v-.072l.06-.232-.09.089zm.301.143v-.072l-.12-.035-.03.07.06.073zm.527.625l-.06.036-.03.072h.06zm.03-1.18l-.06.072.06.16.061.037.105-.036-.075-.518zm.377-.66l-.06.089-.03.072.12-.036zm.271-.68l-.03.072-.15.072-.03.179h.12l.255-.322-.135-.125zm-.03.912l-.03.072.03.107.195.107.121-.036.03-.143-.256.107zm.376-.268v-.071l-.03-.072-.18-.036v.072zm.09 1.072l.03-.071v-.072l-.15-.125H16l.075.125.181.036zm.06-1.572l-.06.035-.03.036.09.429zm.061.982v-.107l-.03-.071-.09-.036.09.25.18.214.045-.071zm.226-.982h-.076l-.06.143.136-.036zm0 .357l-.03-.036-.076-.036-.15.036.09.143.166.072zm.18.769l.03.106v-.106zm.091-1.162v-.072l-.06.036v.072zm.12.91v.073l.09-.036-.06-.071zm-.15-.034l-.03-.036h-.06l-.09.107.12.215h-.09l-.257.267-.03.108.196.178.06-.071.12.036.151.393.09-.036-.06-.036v-.214l.09-.107.03-.143h-.12l-.06-.072.03-.09-.03-.178-.09-.035zm.331.357l-.03-.036h-.06v.07l.06.037zm0-.143h.136v-.072h-.136zm.346-.357h-.06l-.06.107.12.322zm0 1.34l-.06.036.03.035zm.211-.84h-.12l-.27-.143.18.41.12.108v-.304zm-.03.768l.03-.071-.03-.036-.12.143zm0-1.465l-.03.07.03.09h.06l.03-.09-.03-.07zm.225.447l-.105-.036.046.07zm0 .875l-.059.036.03.036zm-.105.626v.07l.105.144h.061l.03-.071-.03-.107zm.437-.912l.06.036.151-.036v-.232h-.06zm-.27-.625l-.03.07v.145l-.06.142v.16l.06.073h.06l.24-.34.121-.035.225.035-.03-.143-.105-.071-.33-.072zm1.068.215l-.09.035.06.07zm.03.41v-.071l-.03-.072-.09-.053-.12.125zm.196.286l-.06.036.03.07zm.03-.178l.03-.072-.06-.268zm.03 1.018l-.06.036.03.036zm.121-1.608l-.03-.072-.09-.071-.12.036-.062.107.121.036.03.142.12-.035zm.21-.357l-.09.035-.09.072.09.143.06-.036zm.136.32l-.075.037-.03.107.135-.107zm.12 0l-.03.073v.036l.06-.072zm.89 1.467v.07l.06.072.06-.178-.06-.036zm.255-1.716l-.045.072-.21.107.09.285.165-.25.03-.142zm.301-.036v.072l.121.143-.03-.322zm.301.215v.07l.136.037zm.346.554l-.06-.036-.15.07.12.144.06-.035zm.301.875l-.029.072.075.036zm.166-1.43v-.035h-.09zm.241.84l.06.036h.061l.03-.143h-.06zm.06-.696l-.06.036-.12.214h.15l.181.196v-.232zm.181-.143l-.06-.143-.06-.036-.12.036.03.07.12.073zm.136.035l-.06.036.03.036zm.512 0l-.03-.035-.03-.072-.12-.035-.092.07v.072l.121.036zm.105.519l-.03-.072-.03-.036zm0-.59v.07h.09v-.106zm.15.482l-.06-.053-.03.089.03.072zm.271-.625l-.06.036.03.036zm17.38-.965h-.06l-.03.125h.09zm.361 2.09l-.03.036.061.144zm.317-.59v-.071l-.03-.035zm.03 1.216v-.143l-.12-.071-.106.036zm.06-1.126l-.18.072-.076.07-.03.144.165.036.121-.071zm.06.394h-.09l.03.107h.06zm-2.1-.483l-.09-.107-.122.107.091.125.03-.09zm.285.858l-.06.036v.07h.06zm.09-.197h-.15l.06.072h.06zm.091-.661l-.06.036v.304zm-.06-.322v.108l.09-.036zm.496-.107v.179l.091.107v-.143zm.241.393l-.09.036.03.036zm.287-.25l-.076-.036-.15.144v.07h.09zm.18.947v-.071l-.15-.072-.03-.143-.106-.035.03.107zm.061-.733l.03-.071-.06-.071h-.12l.09.339.12-.036.09-.196.091-.071.06.142.075.036.03-.072-.03-.071-.135-.071h-.12l-.06.142zm.241-.607v.322h.255l.031-.036-.15-.25zm.286-.482v.142l.09-.071-.03-.071zm.331-.143l-.03-.036-.06.07zm.06 1.126l-.06-.036h-.12l-.09.07-.03.037zm.135-.144v.072l.091.107.03-.59zm.452-.071h-.15l-.06-.036.03.107.12.036zm.091.143l-.03.072.075.106.06-.035-.03-.143zm-.06 1.394v.07l.06.108.256-.035zm.406-1.466l.09-.142-.06.035zm.527.179l-.06-.035h-.06l-.06.106.06.036zm0 .375l-.06.036.03.286zm.331.072l-.06-.036-.03.072.06.035zm.03-.447h-.06l-.06.07.09.198zm.226.304l-.03-.072-.03-.053-.105.125.075.036zm-.06.393l.03-.036.03-.071-.03-.072-.06-.035zm.452-2.126v-.072l-.06.036zm-.12 1.072v.107l.18.07-.06-.141zm.316.25v.072l.06.07.06-.106zm.271-.393l-.06-.09h-.06l-.06.126.09.035zm-.06-.304l.03.072.09.035-.03-.071zm2.318.179l.03-.036-.03-.071h-.075zm0 1.179l.03-.071-.06-.036-.045.804zm.151-.661l-.06.036.06.25zm-.12.214v.072l.09.089.03-.09-.06-.071zm1.234-.286l-.045-.071h-.06zm-.347.286h-.059l-.06.072.09.268.15.107.151-.036.075-.178-.136-.108-.06.143-.12.036v-.411zm.211.697l.03.072h.106l-.106-.108zm.497-1.34h-.09l.09.107zm.181 2.073l-.06.036-.03.07h.09zm-37.594-1.054l-.03-.072v-.34l.06-.142v-.59l-.03-.071v-.358l.091-.214.21-.233.196-.071.361-.036.407.072.15-.036.091.107.195-.143.091.072h.331l.06-.036.061.143h.105l.091-.143h1.1l.164.107.241-.071h.798l.061.035h.436l.241-.071.286.07.678-.07.06.036h.377l.06-.036h.512l.195.07h.618l.06-.034h.647l.061.035.12-.071h.858l.558.07.135-.07.151.036.557-.107.09.07h18.012l.03.037h-1.378l.06-.036h2.003l.06-.036h.437l.06.072.03.178.06-.035v-.108l.061-.071h.828l.06.036h.437l.06-.036h.436l.151.07.286-.106.241.036.181-.036.798.107.075-.035h.452l.06-.036h1.054l.09.179.061-.215.678.072.285-.072h.558l.301.072.211.107.195.375.06.554-.03.072v.357l-.03.036v.91l.03.073-.06.375-.135.25-.24.036-.242.196h-.407l-.06-.054h-.377l-.03.054h-.557l-.06-.054h-1.566l-.06.054h-.467l-.06-.054h-.497l-.06.054-.527-.054-.15-.106-.212.106-.526-.035-.06.035h-.679l-.06-.035h-.436l-.06.035h-1.265l-.06.054h-.317l-.3-.09-.588.036-.06-.035h-.242l-.075.035h1.86l-.06-.035h-.316l-.3.125-17.35-.09-.09.09-.498-.125H22.55l-.06.035-.723.054-.06-.054-.557.054v-.232l-.06.036-.06.142-.06.054-.799-.09-.06.036h-.527l-.06.054-1.085-.125-.12.125-.377.036-.12-.09h-.24l-.062.054h-.376l-.06-.09-.12-.035-.618.07-.18-.105-.09.07-.558.036-.03-.071-.105-.035-.332.106h-.919l-.075.054-.36-.09-.122-.106-.06.196-.587-.054-.226-.106-.18-.18-.09-.321zM250.645 271.27l-.075-.035h-.06l.105.107zm.151 2.467h-.06v.107h.06zm.241-.447l-.03-.107-.031.035zm.03-1.787l-.091-.036h-.03v.107l.061.072zm.12.572v.304h.03zm.03.268v.036l.045.035zm.076.357l-.076.07h-.12l.06.109-.03.232.256.036.03-.107-.06-.233.091-.071.059-.143-.15-.072zm.271-.625h-.061v.089l.061.036zm0 1.072v-.072l.06-.232-.09.089zm.301.143v-.072l-.121-.035-.03.07.061.073zm.527.625l-.06.036-.031.072h.061zm.03-1.18l-.06.072.06.16.061.037.105-.036-.075-.518zm.377-.66l-.061.089-.03.072.121-.036zm.271-.68l-.03.072-.151.072-.03.179h.12l.256-.322-.135-.125zm-.03.912l-.031.072.031.107.195.107.121-.036.03-.143-.256.107zm.376-.268v-.071l-.03-.072-.181-.036v.072zm.09 1.072l.03-.071v-.072l-.15-.125h-.256l.075.125.181.036zm.06-1.572l-.06.035-.03.036.09.429zm.061.982v-.107l-.03-.071-.091-.036.091.25.18.214.045-.071zm.226-.982h-.076l-.06.143.136-.036zm0 .357l-.031-.036-.075-.036-.15.036.09.143.166.072zm.18.769l.03.106v-.106zm.091-1.162v-.072l-.061.036v.072zm.12.91v.073l.09-.036-.06-.071zm-.151-.034l-.03-.036h-.06l-.09.107.12.215h-.09l-.256.267-.03.108.196.178.06-.071.12.036.151.393.09-.036-.06-.036v-.214l.09-.107.03-.143h-.12l-.06-.072.03-.09-.03-.178-.091-.035zm.332.357l-.03-.036h-.061v.07l.061.037zm0-.143h.136v-.072h-.136zm.346-.357h-.06l-.061.107.121.322zm0 1.34l-.06.036.03.035zm.211-.84h-.121l-.27-.143.18.41.12.108v-.304zm-.03.768l.03-.071-.03-.036-.121.143zm0-1.465l-.03.07.03.09h.06l.03-.09-.03-.07zm.225.447l-.105-.036.046.07zm0 .875l-.059.036.03.036zm-.105.626v.07l.105.144h.061l.03-.071-.03-.107zm.437-.912l.06.036.151-.036v-.232h-.061zm-.271-.625l-.03.07v.145l-.06.142v.16l.06.073h.06l.241-.34.121-.035.225.035-.03-.143-.105-.071-.331-.072zm1.069.215l-.091.035.061.07zm.03.41v-.071l-.03-.072-.091-.053-.12.125zm.196.286l-.06.036.03.07zm.03-.178l.03-.072-.06-.268zm.03 1.018l-.06.036.03.036zm.121-1.608l-.031-.072-.09-.071-.12.036-.061.107.121.036.03.142.12-.035zm.21-.357l-.09.035-.09.072.09.143.06-.036zm.136.32l-.075.037-.03.107.135-.107zm.12 0l-.03.073v.036l.06-.072zm.889 1.467v.07l.06.072.06-.178-.06-.036zm.256-1.716l-.045.072-.211.107.09.285.166-.25.03-.142zm.301-.036v.072l.121.143-.031-.322zm.301.215v.07l.136.037zm.346.554l-.06-.036-.15.07.12.144.06-.035zm.301.875l-.029.072.075.036zm.166-1.43v-.035h-.09zm.241.84l.06.036h.061l.03-.143h-.061zm.06-.696l-.06.036-.12.214h.15l.181.196v-.232zm.181-.143l-.06-.143-.06-.036-.121.036.03.07.121.073zm.136.035l-.061.036.03.036zm.512 0l-.031-.035-.03-.072-.12-.035-.091.07v.072l.121.036zm.105.519l-.03-.072-.03-.036zm0-.59v.07h.09v-.106zm.15.482l-.06-.053-.03.089.03.072zm.271-.625l-.06.036.03.036zm17.38-.965h-.06l-.03.125h.09zm.361 2.09l-.03.036.061.144zm.317-.59v-.071l-.031-.035zm.03 1.216v-.143l-.12-.071-.106.036zm.06-1.126l-.18.072-.076.07-.03.144.165.036.121-.071zm.06.394h-.09l.03.107h.06zm-2.101-.483l-.09-.107-.121.107.091.125.03-.09zm.286.858l-.06.036v.07h.06zm.09-.197h-.15l.06.072h.06zm.091-.661l-.06.036v.304zm-.06-.322v.108l.09-.036zm.496-.107v.179l.091.107v-.143zm.241.393l-.09.036.03.036zm.287-.25l-.076-.036-.15.144v.07h.09zm.18.947v-.071l-.15-.072-.03-.143-.106-.035.03.107zm.061-.733l.029-.071-.06-.071h-.12l.09.339.121-.036.09-.196.091-.071.059.142.076.036.03-.072-.03-.071-.135-.071h-.121l-.06.142zm.241-.607v.322h.255l.031-.036-.151-.25zm.286-.482v.142l.09-.071-.03-.071zm.331-.143l-.03-.036-.06.07zm.06 1.126l-.06-.036h-.121l-.09.07-.03.037zm.135-.144v.072l.091.107.03-.59zm.452-.071h-.15l-.061-.036.031.107.12.036zm.091.143l-.03.072.075.106.06-.035-.03-.143zm-.061 1.394v.07l.061.108.256-.035zm.407-1.466l.09-.142-.06.035zm.527.179l-.06-.035h-.061l-.06.106.06.036zm0 .375l-.06.036.03.286zm.331.072l-.06-.036-.03.072.06.035zm.03-.447h-.06l-.06.07.09.198zm.226.304l-.03-.072-.03-.053-.105.125.075.036zm-.06.393l.03-.036.03-.071-.03-.072-.06-.035zm.452-2.126v-.072l-.061.036zm-.121 1.072v.107l.181.07-.06-.141zm.317.25v.072l.06.07.06-.106zm.271-.393l-.061-.09h-.06l-.06.126.09.035zm-.061-.304l.03.072.091.035-.03-.071zm2.319.179l.03-.036-.03-.071h-.075zm0 1.179l.03-.071-.06-.036-.045.804zm.151-.661l-.061.036.061.25zm-.121.214v.072l.09.089.031-.09-.061-.071zm1.235-.286l-.045-.071h-.061zm-.347.286h-.059l-.061.072.091.268.15.107.151-.036.075-.178-.136-.108-.06.143-.12.036v-.411zm.211.697l.03.072h.106l-.106-.108zm.497-1.34h-.09l.09.107zm.181 2.073l-.06.036-.031.07h.091zm-37.594-1.054l-.03-.072v-.34l.06-.142v-.59l-.03-.071v-.358l.091-.214.21-.233.196-.071.361-.036.407.072.15-.036.091.107.195-.143.091.072h.331l.06-.036.061.143h.105l.091-.143h1.099l.165.107.241-.071h.798l.061.035h.436l.241-.071.286.07.678-.07.06.036h.377l.06-.036h.512l.195.07h.618l.06-.034h.647l.061.035.12-.071h.858l.558.07.135-.07.151.036.557-.107.09.07h18.012l.03.037h-1.378l.06-.036h2.003l.06-.036h.437l.06.072.03.178.06-.035v-.108l.061-.071h.828l.06.036h.437l.06-.036h.436l.151.07.286-.106.241.036.181-.036.798.107.075-.035h.452l.06-.036h1.054l.09.179.061-.215.678.072.285-.072h.558l.301.072.211.107.195.375.06.554-.03.072v.357l-.03.036v.91l.03.073-.06.375-.135.25-.241.036-.241.196h-.407l-.06-.054h-.377l-.03.054h-.557l-.06-.054h-1.566l-.06.054h-.467l-.06-.054h-.497l-.06.054-.527-.054-.151-.106-.211.106-.526-.035-.061.035h-.678l-.06-.035h-.436l-.061.035h-1.264l-.061.054h-.316l-.301-.09-.587.036-.061-.035h-.241l-.075.035h1.86l-.06-.035h-.316l-.301.125-17.35-.09-.09.09-.497-.125h-1.099l-.06.035-.723.054-.06-.054-.557.054v-.232l-.061.036-.06.142-.06.054-.798-.09-.06.036h-.527l-.061.054-1.084-.125-.12.125-.377.036-.12-.09h-.241l-.061.054h-.376l-.06-.09-.121-.035-.617.07-.181-.105-.09.07-.557.036-.03-.071-.105-.035-.332.106h-.919l-.075.054-.361-.09-.121-.106-.06.196-.587-.054-.226-.106-.18-.18-.091-.321z" fill="red"/><path d="M71.035 269.522a.298.298 0 01.272.4l-3.557 9.398a.29.29 0 01-.285.2h-.943a.305.305 0 01-.286-.2l-.97-2.585a4.008 4.008 0 01-.186-.586v.015c-.058.2-.114.385-.185.57l-.987 2.586a.286.286 0 01-.271.2h-.943a.291.291 0 01-.285-.2l-3.571-9.398a.254.254 0 01-.014-.1.302.302 0 01.3-.3h1.356a.291.291 0 01.287.2l2.199 5.813a4.47 4.47 0 01.185.571l.015.03a4.864 4.864 0 01.186-.6l.728-1.914-1.4-3.7a.238.238 0 01-.014-.1.302.302 0 01.3-.3h1.356a.286.286 0 01.272.2l.3.772c.072.185.128.385.186.585a4.027 4.027 0 01.186-.585l.285-.771a.291.291 0 01.286-.2h1.356a.3.3 0 01.286.4l-1.4 3.699.729 1.913c.07.2.129.4.185.6.058-.2.114-.4.187-.6l2.213-5.812a.291.291 0 01.286-.2zM77.87 269.522a.293.293 0 01.3.3v1.4a.293.293 0 01-.3.3h-.7v5.999h.7a.293.293 0 01.3.3v1.4a.293.293 0 01-.3.299h-3.4a.292.292 0 01-.3-.3v-1.4a.292.292 0 01.3-.3h.7v-5.998h-.7a.292.292 0 01-.3-.3v-1.4a.292.292 0 01.3-.3zM87.693 269.522a.292.292 0 01.3.3v1.4a.292.292 0 01-.3.3h-2.199v7.698a.293.293 0 01-.3.3h-1.4a.293.293 0 01-.3-.3v-7.698h-2.2a.292.292 0 01-.299-.3v-1.4a.292.292 0 01.3-.3zM97.516 269.522a.292.292 0 01.3.3v9.398a.292.292 0 01-.3.3h-1.4a.292.292 0 01-.3-.3v-3.699h-3v3.7a.292.292 0 01-.3.299h-1.399a.292.292 0 01-.3-.3v-9.398a.292.292 0 01.3-.3h1.4a.292.292 0 01.3.3v3.7h3v-3.7a.292.292 0 01.3-.3zM110.335 269.522a.293.293 0 01.286.215l2.828 9.397c0 .03.014.057.014.086a.302.302 0 01-.3.3h-1.371a.309.309 0 01-.3-.214l-.528-1.785h-2.8l-.543 1.785a.302.302 0 01-.285.214h-1.371a.3.3 0 01-.285-.386l2.813-9.397a.304.304 0 01.285-.215zm-.928 3.828l-.643 2.171h1.6l-.657-2.17c-.058-.2-.1-.4-.143-.601a4.666 4.666 0 01-.157.6zM127.953 269.522a.293.293 0 01.3.3v9.398a.293.293 0 01-.3.3h-1.515a.32.32 0 01-.271-.171l-2.613-5.3a4.37 4.37 0 01-.243-.585v5.756a.292.292 0 01-.3.3h-1.4a.292.292 0 01-.3-.3v-9.398a.292.292 0 01.3-.3h1.514a.32.32 0 01.271.172l2.614 5.299a4.106 4.106 0 01.243.585v-5.756a.293.293 0 01.3-.3zM136.59 269.522a.293.293 0 01.3.3v1.4a.293.293 0 01-.3.3h-3.5v2h2.5a.293.293 0 01.3.3v1.4a.293.293 0 01-.3.299h-2.5v2h3.5a.293.293 0 01.3.3v1.4a.293.293 0 01-.3.299h-5.2a.292.292 0 01-.3-.3v-9.398a.292.292 0 01.3-.3zM151.925 269.522a.298.298 0 01.271.4l-3.555 9.398a.292.292 0 01-.287.2h-.942a.305.305 0 01-.286-.2l-.97-2.585a3.891 3.891 0 01-.186-.586v.015c-.058.2-.115.385-.187.57l-.985 2.586a.286.286 0 01-.27.2h-.944a.291.291 0 01-.285-.2l-3.57-9.398a.238.238 0 01-.015-.1.301.301 0 01.3-.3h1.356a.291.291 0 01.286.2l2.2 5.813a4.47 4.47 0 01.185.571l.015.03a4.865 4.865 0 01.185-.6l.729-1.914-1.4-3.7a.238.238 0 01-.014-.1.302.302 0 01.3-.3h1.357a.286.286 0 01.27.2l.3.772c.072.185.13.385.187.585a3.91 3.91 0 01.185-.585l.285-.771a.291.291 0 01.287-.2h1.356a.3.3 0 01.286.4l-1.4 3.699.728 1.913c.072.2.13.4.186.6.057-.2.114-.4.185-.6l2.214-5.812a.291.291 0 01.286-.2zM165.627 269.522a.29.29 0 01.214.086l.628.628a.29.29 0 01.086.215v4.642a.289.289 0 01-.086.214l-.628.628a.292.292 0 01-.214.086h-.629a1.728 1.728 0 01.315.457l1.213 2.614a.403.403 0 01.029.128.301.301 0 01-.3.3h-1.371a.32.32 0 01-.272-.171l-1.542-3.328h-1.014v3.2a.292.292 0 01-.3.299h-1.4a.293.293 0 01-.3-.3v-9.398a.293.293 0 01.3-.3zm-3.271 2a.293.293 0 00-.3.3v1.87a.293.293 0 00.086.215l.028.029a.293.293 0 00.215.085h1.842a.293.293 0 00.214-.085l.029-.029a.29.29 0 00.086-.214v-1.842a.289.289 0 00-.086-.215l-.029-.029a.294.294 0 00-.214-.085zM174.05 269.522a.293.293 0 01.286.215l2.828 9.397c0 .03.014.057.014.086a.302.302 0 01-.3.3h-1.371a.309.309 0 01-.3-.214l-.528-1.785h-2.8l-.543 1.785a.302.302 0 01-.285.214h-1.371a.3.3 0 01-.286-.386l2.814-9.397a.304.304 0 01.285-.215zm-.928 3.828l-.643 2.171h1.6l-.657-2.17c-.058-.2-.1-.4-.143-.601a4.666 4.666 0 01-.157.6zM188.656 269.522a.292.292 0 01.3.3v9.398a.292.292 0 01-.3.3h-1.4a.292.292 0 01-.299-.3v-4.528c-.058.2-.114.4-.186.586l-1.528 4.042a.292.292 0 01-.286.2h-.942a.292.292 0 01-.286-.2l-1.528-4.042c-.072-.185-.129-.385-.186-.586v4.528a.292.292 0 01-.3.3h-1.4a.293.293 0 01-.3-.3v-9.398a.293.293 0 01.3-.3h1.5a.285.285 0 01.27.2l2.215 5.828c.071.185.129.385.186.585.057-.2.114-.4.186-.585l2.213-5.827a.287.287 0 01.271-.2zM203.502 269.522a.292.292 0 01.3.3v1.4a.292.292 0 01-.3.3h-2.2v7.698a.293.293 0 01-.299.3h-1.4a.293.293 0 01-.3-.3v-7.698h-2.2a.292.292 0 01-.3-.3v-1.4a.292.292 0 01.3-.3zM212.196 269.522a.289.289 0 01.214.086l.63.628a.293.293 0 01.084.215v4.642a.292.292 0 01-.085.214l-.629.628a.29.29 0 01-.214.086h-.629a1.727 1.727 0 01.315.457l1.214 2.614a.403.403 0 01.028.128.301.301 0 01-.3.3h-1.37a.32.32 0 01-.272-.171l-1.542-3.328h-1.015v3.2a.292.292 0 01-.3.299h-1.4a.292.292 0 01-.299-.3v-9.398a.292.292 0 01.3-.3zm-3.27 2a.293.293 0 00-.301.3v1.87a.293.293 0 00.086.215l.028.029a.293.293 0 00.215.085h1.842a.293.293 0 00.215-.085l.028-.029a.293.293 0 00.086-.214v-1.842a.293.293 0 00-.086-.215l-.028-.029a.294.294 0 00-.215-.085zM222.646 269.522a.292.292 0 01.3.3v8.77a.288.288 0 01-.086.214l-.628.629a.294.294 0 01-.214.085h-5.141a.294.294 0 01-.215-.085l-.628-.63a.288.288 0 01-.086-.213v-8.77a.292.292 0 01.3-.3h1.4a.292.292 0 01.3.3v7.37a.293.293 0 00.085.214l.029.029a.29.29 0 00.214.086h2.342a.29.29 0 00.215-.086l.028-.029a.293.293 0 00.086-.214v-7.37a.292.292 0 01.3-.3zM231.34 269.522a.289.289 0 01.215.086l.629.628a.293.293 0 01.085.215v1.77a.292.292 0 01-.3.3h-1.4a.292.292 0 01-.3-.3v-.37a.293.293 0 00-.085-.215l-.029-.029a.294.294 0 00-.215-.085H228.1a.294.294 0 00-.215.085l-.028.03a.293.293 0 00-.086.214v5.34a.293.293 0 00.086.215l.028.029a.29.29 0 00.215.086h1.841a.29.29 0 00.215-.086l.029-.029a.293.293 0 00.086-.214v-.371a.293.293 0 01.3-.3h1.399a.293.293 0 01.3.3v1.77a.29.29 0 01-.085.215l-.63.629a.292.292 0 01-.213.085h-4.642a.294.294 0 01-.215-.085l-.628-.63a.288.288 0 01-.085-.213v-8.141a.29.29 0 01.085-.215l.628-.628a.29.29 0 01.215-.086zM241.776 269.522a.292.292 0 01.3.3.333.333 0 01-.071.186l-3.77 4.513 3.77 4.513a.338.338 0 01.071.186.292.292 0 01-.3.3h-1.828a.3.3 0 01-.228-.114l-2.185-2.6a2.937 2.937 0 01-.443-.728v3.142a.292.292 0 01-.3.3h-1.4a.292.292 0 01-.3-.3v-9.398a.292.292 0 01.3-.3h1.4a.292.292 0 01.3.3v3.142a2.925 2.925 0 01.443-.728l2.185-2.6a.3.3 0 01.228-.114z"/></svg>