<svg xmlns="http://www.w3.org/2000/svg" viewBox="0 0 300 600"><rect x="88.742" y="353.88" width="125.93" height="30.649" fill="red"/><path d="M101.28223,375.95837V362.45153h6.47265V364.472h-4.15234v3.47949H106.708V369.972h-3.10547v5.98633Z" fill="#fff"/><path d="M109.71973,375.95837V362.45153h2.31933v13.50684Z" fill="#fff"/><path d="M114.26562,375.95837V362.45153H116.417l2.8252,7.72559h.03711v-7.72559h2.0957v13.50684h-2.02051l-2.95605-8.4375h-.03711v8.4375Z" fill="#fff"/><path d="M123.45117,362.45153h3.44238c2.39454,0,3.667,1.30958,3.667,4.07813v5.35059c0,2.76855-1.27246,4.07812-3.667,4.07812h-3.44238Zm2.32031,11.59864h.80372c1.23535,0,1.665-.46778,1.665-1.88965v-5.91113c0-1.42188-.42968-1.88965-1.665-1.88965h-.80372Z" fill="#fff"/><path d="M136.60254,365.725a3.556,3.556,0,0,1,7.10937,0v6.959a3.556,3.556,0,0,1-7.10937,0Zm2.32031,6.90332c0,1.00977.29883,1.4961,1.23438,1.4961s1.23437-.48633,1.23437-1.4961v-6.84668c0-1.01074-.29883-1.49707-1.23437-1.49707s-1.23438.48633-1.23438,1.49707Z" fill="#fff"/><path d="M145.751,362.45153h2.32031v10.19532c0,.99121.39258,1.47754,1.23437,1.47754s1.23438-.48633,1.23438-1.47754V362.45153h2.32031V372.5531a3.55488,3.55488,0,1,1-7.10937,0Z" fill="#fff"/><path d="M156.6582,364.472h-2.24511v-2.02051h6.80957V364.472h-2.24512v11.48633H156.6582Z" fill="#fff"/><path d="M175.70215,362.45153v13.50684h-2.02051V365.40759h-.03711l-2.0957,10.55078h-1.12207l-2.09571-10.55078h-.0371v10.55078h-2.02051V362.45153h3.0498l1.64551,7.89454h.03809l1.64648-7.89454Z" fill="#fff"/><path d="M177.68457,365.725a3.556,3.556,0,0,1,7.10938,0v6.959a3.556,3.556,0,0,1-7.10938,0Zm2.32031,6.90332c0,1.00977.29883,1.4961,1.23438,1.4961s1.23437-.48633,1.23437-1.4961v-6.84668c0-1.01074-.29883-1.49707-1.23437-1.49707s-1.23438.48633-1.23438,1.49707Z" fill="#fff"/><path d="M189.15332,375.95837H186.833V362.45153h3.25586c2.59961,0,3.92773,1.10352,3.92773,3.98438,0,2.16992-.8418,3.0498-1.627,3.40527l1.96387,6.11719h-2.35743l-1.6455-5.59375a11.26844,11.26844,0,0,1-1.19727.05664Zm0-7.44531h.82324c1.25293,0,1.72071-.46778,1.72071-2.07715,0-1.6084-.46778-2.07617-1.72071-2.07617h-.82324Z" fill="#fff"/><path d="M196.169,375.95837V362.45153h6.21093V364.472h-3.89062v3.47949h2.99316V369.972h-2.99316v3.96582h4.15234v2.02051Z" fill="#fff"/></svg>