<svg xmlns="http://www.w3.org/2000/svg" viewBox="0 0 300 600"><defs><clipPath id="a"><path fill="none" d="M-32768-32167h65535v65535h-65535z"/></clipPath></defs><g clip-path="url(#a)" opacity=".8"><path d="M141.898 59.35L20.238 89.685a7.278 7.278 0 01-8.797-5.285l-7.9-31.687-.03-.117-.79-3.17-.039-.155-.078-.313-.088-.352-.097-.392a7.213 7.213 0 01.05-2.298 1.87 1.87 0 01.098-.44 4.35 4.35 0 01.127-.489.908.908 0 01.108-.235c.05-.137.098-.274.118-.362a4.323 4.323 0 01.244-.517l.147-.244a1.851 1.851 0 01.206-.342l.06-.098a8.336 8.336 0 011.633-1.78c.068-.057.107-.067.176-.126l.04-.01c.214-.136.39-.263.605-.4l.108-.068a6.997 6.997 0 011.702-.674l3.012-.751a1.374 1.374 0 01.401-.058c.117-.03.264-.108.381-.137L25.21 35.8a4.08 4.08 0 013.083-4.301l81.485-20.316a4.112 4.112 0 014.741 2.349l17.721-4.418a7.848 7.848 0 01.958-.156c.078-.02.166 0 .244-.02.118-.028.206-.01.323-.038a7.326 7.326 0 017.272 5.5l8.846 35.48a7.165 7.165 0 01.194 2.279c-.019.088 0 .167-.02.255a.573.573 0 00-.019.254 7.37 7.37 0 01-1.567 3.548c-.029.048-.098.108-.127.157a6.942 6.942 0 01-1.83 1.495.426.426 0 01-.186.087 2.317 2.317 0 01-.254.147 3.712 3.712 0 01-.909.35l-3.287.82z" fill="#fff"/></g><path d="M105.424 15.883a.233.233 0 00-.177.293l.293 1.174a.233.233 0 00.293.176l1.84-.458 1.598 6.415a.232.232 0 00.294.176l1.173-.292a.231.231 0 00.176-.293l-1.599-6.416 1.84-.458a.233.233 0 00.175-.294l-.293-1.173a.231.231 0 00-.293-.176zm-5.868 1.463a.231.231 0 00-.176.293l1.96 7.863a.231.231 0 00.293.176l4.342-1.082a.233.233 0 00.177-.293l-.293-1.174a.232.232 0 00-.293-.176l-2.934.73-.419-1.681 2.073-.517a.233.233 0 00.176-.293l-.293-1.174a.232.232 0 00-.293-.176l-2.073.517-.429-1.721 2.934-.732a.232.232 0 00.176-.293l-.293-1.173a.233.233 0 00-.293-.177zm-6.103 1.522c-.078.019-.107.068-.176.127l-.382.635a.307.307 0 00-.029.215l.858 3.443c.02.078.07.107.127.176l.636.38a.305.305 0 00.215.03l2.308-.575a.428.428 0 01.215.03l.05.029a.312.312 0 01.126.176l.283 1.135a.427.427 0 01-.03.215l-.029.049a.312.312 0 01-.176.127l-1.135.283a.428.428 0 01-.215-.03l-.049-.03a.312.312 0 01-.127-.175l-.078-.313a.231.231 0 00-.293-.176l-1.174.292a.233.233 0 00-.176.293l.371 1.487c.02.078.068.107.127.176l.635.382a.308.308 0 00.215.029l3.443-.858c.078-.02.107-.068.176-.127l.382-.635a.31.31 0 00.03-.216L98.721 22c-.02-.078-.069-.108-.127-.176l-.636-.382a.307.307 0 00-.215-.03l-2.308.576c-.078.02-.127-.01-.215-.03l-.049-.03a.309.309 0 01-.127-.175l-.283-1.134a.426.426 0 01.03-.215l.03-.05a.308.308 0 01.175-.126l1.135-.283c.078-.02.127.01.215.029l.05.03a.309.309 0 01.126.176l.078.313a.233.233 0 00.293.176l1.174-.293a.233.233 0 00.176-.293l-.37-1.486c-.02-.08-.069-.108-.128-.176L97.101 18a.307.307 0 00-.215-.03l-3.443.858zm-6.65 1.658c-.078.019-.108.068-.176.127l-.382.635a.307.307 0 00-.029.215l.858 3.443c.02.078.068.107.127.176l.635.38a.307.307 0 00.215.03l2.308-.575a.43.43 0 01.216.03l.048.029a.308.308 0 01.127.176l.283 1.135c.02.078-.01.127-.029.215l-.03.049a.306.306 0 01-.176.127L89.664 27a.427.427 0 01-.215-.03l-.049-.03a.305.305 0 01-.127-.175l-.078-.313a.231.231 0 00-.293-.176l-1.174.292a.233.233 0 00-.176.293l.371 1.487c.02.078.068.108.127.176l.635.382a.307.307 0 00.215.029l3.442-.858c.08-.02.108-.068.177-.127l.381-.635a.307.307 0 00.03-.215l-.859-3.443c-.019-.078-.068-.108-.127-.176l-.635-.382a.308.308 0 00-.215-.03l-2.308.576c-.078.02-.127-.01-.215-.03l-.049-.03a.301.301 0 01-.127-.175l-.283-1.134a.427.427 0 01.03-.215l.03-.05a.305.305 0 01.175-.126l1.135-.283c.078-.02.127.01.215.029l.048.03a.305.305 0 01.127.176l.08.313a.232.232 0 00.292.176l1.173-.293a.232.232 0 00.177-.293l-.37-1.486c-.02-.08-.069-.108-.128-.176l-.645-.421a.307.307 0 00-.215-.03l-3.443.859zm-4.413 3.967c.08.147.166.332.245.479l.996 1.663-1.33.332.1-1.936a1.401 1.401 0 00-.01-.538m-1.299-2.543a.254.254 0 00-.186.254l-.387 8.448a.258.258 0 00.313.254l1.134-.282a.257.257 0 00.186-.255l.1-1.603 2.346-.585.801 1.379a.255.255 0 00.283.137l1.135-.283a.233.233 0 00.176-.293l-.019-.078-4.308-7.278a.255.255 0 00-.284-.137zM68.34 25.129a.232.232 0 00-.176.294l.292 1.173a.231.231 0 00.293.176l1.84-.458 1.6 6.415a.232.232 0 00.292.177l1.173-.293a.233.233 0 00.177-.293l-1.6-6.416 1.84-.458a.233.233 0 00.175-.293l-.293-1.174a.233.233 0 00-.293-.176zm-2.778.693a.233.233 0 00-.176.293l1.2 4.812c-.117-.137-.205-.323-.313-.421l-3.293-3.874a.27.27 0 00-.273-.098l-1.252.312a.231.231 0 00-.176.293l1.96 7.863a.231.231 0 00.293.176l1.174-.292a.233.233 0 00.176-.294l-1.2-4.811c.118.137.205.323.313.42l3.293 3.875a.273.273 0 00.274.098l1.251-.312a.233.233 0 00.177-.294l-1.96-7.863a.233.233 0 00-.294-.176zm-8.05 4.874c.078.147.166.333.244.479l.996 1.663-1.33.332.1-1.936c-.01-.205-.01-.372-.01-.538m-1.338-2.533a.255.255 0 00-.186.254l-.387 8.448a.258.258 0 00.313.254l1.134-.282a.256.256 0 00.186-.255l.1-1.603 2.346-.585.801 1.379a.257.257 0 00.284.137l1.134-.283a.233.233 0 00.176-.293l-.019-.078-4.308-7.278a.255.255 0 00-.283-.137zm-7.785 1.94a.233.233 0 00-.176.294l.292 1.173a.233.233 0 00.294.177l1.838-.46 1.6 6.417a.233.233 0 00.293.176l1.174-.293a.233.233 0 00.176-.293l-1.6-6.415 1.84-.46a.233.233 0 00.175-.292l-.293-1.174a.232.232 0 00-.293-.176zm-5.594 1.395c-.078.02-.108.069-.176.127l-.382.636a.307.307 0 00-.029.215l.858 3.442c.02.079.068.108.127.176l.635.382a.307.307 0 00.215.03l2.308-.576a.43.43 0 01.216.03l.048.029a.304.304 0 01.127.176l.283 1.135c.02.078-.01.127-.029.215l-.03.049a.31.31 0 01-.176.127l-1.134.282a.416.416 0 01-.215-.03l-.049-.028a.307.307 0 01-.127-.177l-.078-.312a.233.233 0 00-.293-.177l-1.174.293a.233.233 0 00-.176.293l.371 1.487c.02.078.068.107.127.176l.635.38a.308.308 0 00.215.03l3.442-.857c.08-.02.108-.07.177-.127l.381-.636a.307.307 0 00.03-.215l-.859-3.442c-.019-.078-.068-.108-.127-.176l-.635-.382a.313.313 0 00-.215-.03l-2.308.576a.428.428 0 01-.215-.03l-.049-.03a.305.305 0 01-.127-.175l-.283-1.135a.428.428 0 01.03-.215l.03-.048a.31.31 0 01.175-.128l1.135-.282c.078-.02.127.01.215.029l.048.029a.307.307 0 01.127.177l.08.313a.232.232 0 00.292.176l1.173-.293a.233.233 0 00.177-.293l-.37-1.487c-.02-.078-.069-.107-.128-.176l-.635-.381a.31.31 0 00-.216-.03zm-3.873.966a.233.233 0 00-.176.293l1.2 4.812c-.118-.137-.205-.323-.313-.421l-3.342-3.903a.269.269 0 00-.273-.098l-1.252.312a.231.231 0 00-.176.293l1.96 7.863a.233.233 0 00.293.176l1.174-.292a.234.234 0 00.176-.294l-1.19-4.772c.117.137.205.323.313.42l3.293 3.875a.272.272 0 00.273.098l1.252-.313a.231.231 0 00.176-.293l-1.96-7.863a.233.233 0 00-.293-.176zm-9.154 2.282a.233.233 0 00-.176.294l.293 1.173a.231.231 0 00.293.176l.587-.146 1.248 5.007-.587.147a.232.232 0 00-.176.293l.293 1.173a.233.233 0 00.293.177l2.856-.712a.233.233 0 00.176-.294l-.293-1.173a.231.231 0 00-.293-.176l-.587.146-1.248-5.007.587-.147a.233.233 0 00.176-.293l-.293-1.174a.233.233 0 00-.293-.176zm103.145-6.77c-.078-.146-.175-.205-.254-.352-.039.01-1.915-2.514-1.915-2.514l-.185-.244-.137-.05-.822.205-.058.098-.02.088.01.039-.03.215c-.206 1.174-.363 2.376-.569 3.55l-.03.215-.009.127.02.078.097.059.088.019.9-.224.097-.108.06-.264c.068-.723.206-1.505.284-2.19l.05-.136.03-.05.038-.01.097.06.255.352c.312.42.664.83.937 1.262l.264.39.108.099.137.049.195-.05c.205-.01.46-.155.665-.165l.108-.068.03-.05-.02-.077-.059-.07zm-6.002-1.578l-.137-.215-.196-.117-.254-.02-.753.146a49.758 49.758 0 00-3.364.839c-1.516.586-3.286.653-4.792 1.278l-.088-.02-.352.088-.206.176-.059.596a19.42 19.42 0 01.82 2.954c.156.626.273 1.262.43 1.887.262 1.223 3.051 12.41 3.978 15.96l.02.246.273.762.205.157.215.029.518-.087a17.203 17.203 0 012.426-.605l.528-.215.166-.332.001-.166-.352-1.41c-.634-2.375-1.072-4.8-1.824-7.148l-.058-.567.088-.146c.03-.05.02-.088.098-.108.07-.06.157-.04.235-.058.547-.137 1.183-.254 1.682-.42.117-.03 1.222-.263 1.222-.263l.51-.127.175-.127.137-.117.078-.186v-.166l-.273-1.095c.03-.216-.136-.548-.117-.802a4.55 4.55 0 01-.33-.998l-.109-.098-.147-.088-.215-.03-.273.069c-1.086.312-2.269.566-3.374.8l-.157.039c-.078.019-.137.117-.235.058-.049-.03-.049-.03-.058-.068l-.049-.03-.058-.567c-.4-1.438-.75-3.012-1.2-4.48l.04-.341.087-.147.51-.127.067-.058.861-.215c.684-.087 2.308-.575 2.953-.653a7.83 7.83 0 01.93-.273l.263-.274.02-.254.02-.088a13.051 13.051 0 00-.526-2.778zM106.953 41.18c.731 3.765 2.116 8.323 2.925 12.069l.274.762.205.157.215.029.518-.087c.147-.078.52-.254.705-.176a13.038 13.038 0 011.721-.43l.528-.214.166-.332v-.166l-.35-1.41c-.635-2.375-1.083-4.84-1.825-7.148l-.058-.567.235-.391.01.039c.02.079.635-.117.714-.136 1.007-.127 1.897-.556 2.914-.644l.176-.127.137-.117.078-.186v-.166a10.217 10.217 0 01-.389-1.897 1.487 1.487 0 00-.264-.558c-.029-.117-.049-.528-.186-.577l-.146-.088-.215-.03-.274.069c-.254.147-1.614.36-1.956.488-.088-.02-.43-.06-.254.146 0 .166-.059-.068-.108-.098a1.64 1.64 0 01-.743.186l-.509.126c-.4.059-.283-.303-.4-.606-.235-.606-.302-1.38-.537-1.985-.156-.294-.136-1.047-.36-1.282l-.303-1.212.04-.342.087-.147.51-.127c1.036-.341 2.757-.604 3.793-.946a2.737 2.737 0 00.558-.097c.068-.06.06-.264.176-.127l.244-.02.265-.273.02-.255.02-.088-.255-1.017.06-.097-.216-.53-.292-1.172-.137-.215-.196-.118-.254-.02-.753.147c-2.61.692-5.653 1.326-8.205 2.087l-.352.088-.206.176-.059.596.147.254-.03.215.127.177.04.489.234.273c.01.04-.079.352.01.372.448 1.966.857 3.94 1.501 5.858l.186.743a.8.8 0 01.03.284c.136.215.175.372.263.39zm-4.63 7.76c.097.392.234.774.331 1.165.05.196.06.4.098.558l.097.723c-.108.4-.118.694-.47.948a1.59 1.59 0 01-.499.333c-.039.009-.42.146-.42.146l-.45.029-.44-.098-.274-.098-.117-.137-.088-.02-.38-.528-.284-.636c-.936-4.254-2.263-8.743-3.004-12.381l-.078-.48v-.331l.03-.216.235-.557.518-.42a7.76 7.76 0 01.94-.234l.341.039.597.226.263.225.274.43.82 3.286c.633 2.709 1.365 5.31 1.96 8.029zm1.044-12.974a5.832 5.832 0 00-1.612-2.132 5.733 5.733 0 00-1.182-.744 6.634 6.634 0 00-1.447-.304 3.75 3.75 0 00-1.79.155c-.39.097-.792.156-1.144.244-.274.068-.519.254-.792.322a6.62 6.62 0 00-1.77 1.065c-.294.156-.598.772-.813 1.075a9.705 9.705 0 00-.588 1.143 4.838 4.838 0 00-.119 2.689c.897 3.932 2.107 8.782 3.307 13.428l.185.577a6.917 6.917 0 001.466 2.044.865.865 0 01.498.333 8.491 8.491 0 00.733.44l1.144.422c1.085.02 2.62.178 3.57-.35a.687.687 0 00.674-.293c.362.118.734-.39 1.135-.45a3.657 3.657 0 01.753-.644c-.078-.146.362-.381.421-.48l.636-1.113a15.28 15.28 0 00.451-1.525 2.32 2.32 0 01.06-.596l-.03-.95a18.82 18.82 0 00-.575-2.473l-1.776-6.954a40.702 40.702 0 00-1.395-4.93zm-11.094 9.83l-.137-.215-.352-.245h-.333c-1.28.36-2.61.693-3.892 1.054a17.211 17.211 0 00-2.015.419l-.43.273c-.303.284.01.87.087 1.184a4.143 4.143 0 00.381 1.359l.156.127.176.039.528-.048c.372-.176 2.308-.576 2.426-.605a15.107 15.107 0 012.27-.566 2.304 2.304 0 011.016-.253l.43-.274.098-.44c-.029-.117-.35-1.408-.33-1.496a.305.305 0 01-.079-.313zm-4.878 11.936c.05-.137-.156-.293-.185-.411a3.53 3.53 0 00-.078-.645l-.166-.333-.479-.088-.597.107a9.349 9.349 0 00-1.437.4c-.959.156-2.064.556-3.05.76l-.373.01c-.039.01-.156-.127-.205-.156-.059-.068-.078-.147-.137-.215-.39-1.565-.81-3.081-1.15-4.616-.069-.274-.177-.538-.255-.851l.07-.225.175-.127.548-.136a1.998 1.998 0 011.066-.225c.596-.107 1.31-.41 1.868-.507l.185-.088.226-.264.058-.264a8.214 8.214 0 00-.614-2.132c.088-.146-.029-.45-.108-.596l-.136-.215-.108-.098-.254-.02-.548.137a4.66 4.66 0 01-1.467.282 7.544 7.544 0 01-1.584.478l-.323-.127-.146-.254.02-.088-.069-.274c-.302-1.213-.634-2.71-1.004-3.863l-.069-.44.07-.225.156-.205.41-.186c.538-.176 2.025-.214 2.367-.673.04.323.753.02.734-.058.322-.04.86-.215 1.232-.224l.43-.108.176-.127.06-.098c.117-.527-.235-1.105-.235-1.603-.078-.147-.048-.695-.263-.724-.029-.284-.078-.812-.332-.998l-.235-.107-.068.058-.01.127-.088-.02-.108-.097c-1.682.419-3.559.887-5.29 1.278a25.902 25.902 0 01-2.983.702l-.939.4-.108.235-.01.127c1.863 7.305 3.55 14.572 5.482 21.818l-.01.128.117.136.44.099.235-.06c2.865-.672 5.78-1.482 8.743-2.096l.567-.224.186-.421.02-.088zm-16.437-15.43l.02-.088-.078-.313-.049-.03-.088-.352.02-.088-.225-.9-.146-.254-.372-.157-.557.098-.293.156c-.9.058-1.78.527-2.68.585-1.467.449-2.846.75-4.215 1.093a5.426 5.426 0 01-1.105.234c-.43.107-.88.302-1.32.37l-.92.146-.068.059-.01.127-.235.059-.108.234.244.978-.058.098.341 1.369.302.88.264.059c.216-.136.362-.048.607-.068.235-.225.567-.058.841-.126a6.726 6.726 0 01.89-.264c.02-.254.342-.127.47-.117l.586-.146.127.01.371.655c.273 1.262.507 2.533.868 3.814.06.235.147.42.205.655.546 2.19 1.053 4.392 1.6 6.582l.77 3.09c.254 1.018.468 2.045.8 3.042l.156.46.03.117.175.206.313.088.43-.107.088.019 1.017-.253.07-.06.273-.067.05.029.576-.185h.332l.5-.166.341-.293.06-.264-.167-.167.098-.107v-.166l-.059-.07-.156-.625c-1.433-5.75-2.682-10.924-4.155-16.664l-.097-.724.157-.205.107-.07.685-.086a6.488 6.488 0 011.203-.342c.058-.097.127-.156.225-.097l.606-.068.381-.137.177-.127.127-.323-.01-.371-.146-.421-.059-.068-.049-.196zm-9.32 20.108c-1.337-5.692-2.79-10.856-4.078-16.685l-.254-1.017-.058-.068-.254-1.017c-.01-.04-.186-.08-.186-.08a.389.389 0 00-.293-.01c-.078.02-.127-.01-.205.01l-.509.128a3.023 3.023 0 01-.82.205.869.869 0 00-.412.185 3.707 3.707 0 00-1.154.205l-.294.156-.166.332-.02.255.478 1.916c.273 1.096.917 3.51.917 3.51s1.668 6.857 1.863 7.806c.04-.01.088.019.068.107a.329.329 0 00-.01.127c.517 2.24 1.132 4.538 1.688 6.768l.37 1.486.186.245.244.147.47-.117a1.605 1.605 0 00.92-.313 3.239 3.239 0 00.87-.175 3.126 3.126 0 00.606-.068l.665-.166.058-.098.07-.557a11.302 11.302 0 00-.606-2.26c.167-.331-.175-.703-.155-.957zm-15.535-5.643h-.333l-.186-.244-.126-.51a7.638 7.638 0 00-.195-.948c-.44-.596-.244-1.642-.654-2.288a12.178 12.178 0 01-.34-1.702l-.118-.47.06-.097.468-.283c.157-.04.694-.215.841-.127l.176-.127a.602.602 0 00.372-.01l.48.089.321.127.49.626a8.46 8.46 0 01.507 1.37 12.645 12.645 0 01.516 2.073c-.058.264.137.714.04.988l-.158.537-.313.245-.059.097-.166.167-.733.224-.049-.03a1.352 1.352 0 01-.84.293m9.731 9.873a3.611 3.611 0 01-.78-1.301c-1.163-1.83-2.306-3.913-3.43-5.752l-.37-.655-.088-.52-.059-.067.196-.05.714-.8.51-.958.068-.391c.137-.118.05-.636.06-.763a1.89 1.89 0 00-.059-1.066c.196-.381-.117-1.134-.214-1.525a3.283 3.283 0 00-.215-.861c-.078-.147-.078-.645-.224-.733l-.244-.978-.225-.568-.547-1.193-.498-.665-.713-.695-.245-.147-.42-.352-.694-.284-.37.009-.373-.156-1.173-.04h-.499l-.059.097-.078.02c-.244-.147-.724.097-.958.156a3.787 3.787 0 00-.929.273 11.308 11.308 0 00-2.279.527 5.183 5.183 0 00-1.34.292l-.9.224-.244.186-.069.557.263 1.056c.176.87 5.16 20.694 5.16 20.694l.274.265.293.01.508-.127a2.914 2.914 0 00.597-.107c.118-.196.264-.44.352-.088.362-.05.92-.312 1.252-.312l.577-.186.098-.107.02-.088.097-.108.088-.312a205.906 205.906 0 01-2.126-8.362l.07-.391.331-.166h.167l.361.117.411.646c1.191 2.445 2.656 4.656 3.887 7.092l.244.313.176.205.352.079h.332c.577-.186 1.38-.302 1.947-.527.107.098.352-.088.47-.117l.547-.137.176-.127.108-.234.04-.176-.06-.069-.019-.078zM37.2 48.392c-.108-.098-.42-.02-.528.048a8.62 8.62 0 00-.988.205c-.019-.078-1.017.253-1.066.224l-.068.059c-.157.039-.753.146-.84.293l-.178.293.233 2.933a20.767 20.767 0 01.302 2.709c.165 1.33.37 2.817.486 4.117l-.196.049c.196-.05.215.029.264.225l-.03.548a.267.267 0 01.235.107c-.117.029-.166.166-.186.254l.078.646.127.508-.02.255-.088.146-.283-.303-.098-.391c-.547-1.194-1.142-2.75-1.738-3.971-.263-.89-.859-1.947-1.084-2.847-.078-.146-.556-1.398-.8-1.38.322-.038-.508-1.534-.498-1.661l-.459-1.008-.293-.176-.215-.03-1.722.43-.098.107-.82.205-.206.176-.098.274.096 1.388c.262 3.217.7 6.474.816 9.769l.146.587-.049.303.058.235.05.029.048.196h-.166l-.333-.167-.214-.861c-.605-1.428-1.396-3.1-1.845-4.567-.693-1.78-1.738-3.971-2.275-5.79l-.4-.441-.265-.058a6.356 6.356 0 00-1.476.409 5.242 5.242 0 00-1.722.43l-.195.215-.059.097.205.822.644 1.252a38.588 38.588 0 001.602 3.589c.722 1.898 1.562 3.766 2.362 5.644.508 1.203 1.055 2.396 1.553 3.56a2.56 2.56 0 00.42.851 2.08 2.08 0 00.43.89l.136.548c.508.704.723 1.897 1.201 2.651a.724.724 0 00.313.586c-.098.108.03.284.127.343l.156.459.127.177.146.088.46.01c.196-.049.694-.215.93-.273a1.983 1.983 0 00.664-.166c.342-.127.93-.107 1.193-.381l.157-.205.01-.46c-.009-.87-.185-1.907-.194-2.777a13.868 13.868 0 00-.204-1.819c.108-.401-.195-.948-.038-1.32l-.088-.684c-.098-.059-.088-.186-.029-.284-.087-1.017-.165-2.493-.3-3.54-.05-.195-.176-.87-.01-1.036-.02-.079-.078-.313-.019-.411l.146.088.313.587c.048.362.39.734.45 1.135.214.195.214.694.448.802.147-.078.44-.069.196.117-.47-.215.507 1.536.556 1.731.703 1.653 1.377 3.355 2.148 4.949l.586 1.35.078.313.42.352.44-.068a9.868 9.868 0 001.85-.419l.703-.176.254-.146.157-.372-.088-1.183c-.582-7.334-1.164-14.169-1.678-21.396l-.097-.391zM8.286 47.58l8.681 34.816a1.977 1.977 0 002.395 1.439l123.616-30.821a1.979 1.979 0 001.44-2.395l-8.682-34.816a1.977 1.977 0 00-2.395-1.438L115.23 18.88l.586 2.348 17.681-4.41 8.466 33.956L19.207 81.382l-8.476-33.995 17.173-4.282-.585-2.347-17.604 4.389a1.988 1.988 0 00-1.429 2.434zm129.123-32.9l8.983 36.029a3.338 3.338 0 01-2.437 4.056L19.126 85.889a3.338 3.338 0 01-4.057-2.437L6.086 47.423a3.338 3.338 0 012.438-4.056l18.307-4.565.186.744L8.71 44.11A2.616 2.616 0 006.8 47.287l8.983 36.029a2.614 2.614 0 003.177 1.908l124.83-31.123a2.616 2.616 0 001.908-3.177l-8.993-36.067a2.615 2.615 0 00-3.177-1.909l-18.62 4.642-.186-.743 18.621-4.643a3.4 3.4 0 014.066 2.477" fill="#ed1c24"/></svg>