<svg xmlns="http://www.w3.org/2000/svg" width="260.3" height="63.6" overflow="visible"><style>.st0{fill:#fff}</style><path class="st0" d="M0 2.9L1.5 0h.4l1.5 2.9h-.5L1.7.4.4 2.9H0zM9.8.4v.8h-4v2.7h2.8v.8H5.8v3.1H10v.8H4.9V.4h4.9zM12.3.4v8.2h-.8V.4h.8zM15 .2v1h-.8v-1h.8zm-.9 2.4h.9v5.9h-.8V2.6zM21.4 3.2h-.5c-.1 0-.3.1-.4.1.1.1.2.3.3.5.1.2.1.5.1.7 0 .3-.1.6-.2.8-.2.5-.6.9-1.1 1.1-.3.1-.6.2-.8.2h-.6c-.1 0-.3-.1-.5-.1-.3 0-.5.3-.5.5 0 .1 0 .2.1.3.1.1.2.1.4.1.6 0 1.2 0 1.8.1.4 0 .8.1 1.1.3l.6.6c.1.2.2.5.2.7 0 .2-.1.4-.2.6-.1.2-.3.4-.5.5-.3.2-.5.3-.8.3-.4.1-.8.1-1.2.1-.6 0-1.3-.1-1.9-.3-.4-.2-.7-.6-.6-1.1 0-.3.1-.5.3-.7.2-.2.5-.4.7-.5-.2-.1-.4-.2-.5-.3-.1-.1-.2-.3-.2-.5s.1-.4.2-.6c.2-.2.4-.3.6-.4-.3-.2-.5-.4-.6-.7-.1-.3-.2-.6-.2-.9 0-.3.1-.6.2-.8.1-.2.3-.5.5-.7.2-.2.4-.3.7-.4.3-.1.6-.1.9-.1.3 0 .6 0 .8.1l.6.3.6-.3c.2-.1.4-.2.7-.2l-.1.7zm-.8 6c0-.3-.2-.6-.5-.7-.5-.2-1-.3-1.6-.2-.3 0-.5 0-.8.1-.2 0-.4.1-.5.2l-.3.3c0 .1-.1.2-.1.3 0 .1 0 .2.1.3.1.1.2.2.3.2.2.1.4.1.6.1.3 0 .7.1 1 .1.2 0 .5 0 .7-.1.2 0 .4-.1.6-.2.1-.1.3-.2.4-.3 0 .1.1 0 .1-.1zm-.5-4.6c0-.4-.1-.7-.4-1-.3-.3-.7-.4-1.1-.4-.7-.1-1.4.4-1.4 1.2v.2c0 .4.1.7.4 1 .3.2.7.4 1.1.4.2 0 .4 0 .6-.1.2-.1.3-.2.4-.3.1-.1.2-.3.3-.4.1-.2.1-.4.1-.6zM23.3.2v1h-.8v-1h.8zm-.8 2.4h.8v5.9h-.8V2.6zM25.9.4v2.9c.2-.2.5-.3.7-.5.3-.1.5-.2.8-.2.3 0 .5.1.8.2.3.1.6.3.8.5.3.3.4.6.6.9.2.5.2 1 .2 1.4 0 .5-.1 1-.2 1.5-.1.4-.3.7-.6.9-.2.2-.5.4-.8.5-.3.1-.5.1-.8.1-.3 0-.6-.1-.9-.2-.3-.1-.5-.3-.8-.5l-.1.6H25c0-.2.1-.4.1-.6V.4h.8zm0 6.8c.2.2.5.4.8.6.2.1.5.2.7.2.5 0 .9-.2 1.2-.6.3-.5.5-1.1.4-1.7 0-.4 0-.8-.1-1.1-.1-.3-.2-.5-.4-.7-.1-.2-.3-.3-.5-.4-.2-.1-.4-.1-.7-.1-.3 0-.5.1-.8.2-.3.2-.5.4-.7.6l.1 3zM32.2.2v1h-.8v-1h.8zm-.9 2.4h.8v5.9h-.8V2.6zM34.8.4v8.2H34V.4h.8zM37.5.2v1h-.8v-1h.8zm-.8 2.4h.8v5.9h-.8V2.6zM39.7 2.6V.7h.8v1.9h1.4v.7h-1.4v4.2c0 .1.1.2.2.3.1.1.3.2.4.2h.7v.7c-.1 0-.2.1-.4.1h-.6c-.3 0-.7 0-1-.2-.2-.2-.3-.5-.3-.8V3.4h-1v-.8h1.2zM47.3 2.6L45.2 9c-.1.3-.2.6-.4.8-.1.2-.3.4-.5.5-.2.1-.4.2-.5.3-.2 0-.4.1-.6.1h-.6V10h.8c.2 0 .3-.1.4-.2.2-.1.3-.3.4-.4.1-.2.2-.5.3-.8l-2.1-6h.9L45 7.1l1.4-4.5h.9zM57.1 4.4c-.1-.3-.3-.6-.5-.9-.2-.2-.6-.3-.9-.3-.5 0-.9.2-1.2.6-.6 1.1-.6 2.4 0 3.5.2.4.7.7 1.2.7.2 0 .3 0 .5-.1.1 0 .3-.1.4-.2.1-.1.3-.2.4-.3.1-.2.2-.3.3-.5l.7.3c-.1.2-.3.4-.4.7-.2.1-.4.3-.6.4l-.6.3c-.2.1-.5.1-.8.1-.3 0-.7-.1-1-.2-.3-.1-.6-.3-.8-.6-.2-.3-.4-.6-.5-1-.2-.8-.2-1.7 0-2.6.1-.3.3-.7.5-1 .2-.3.5-.5.8-.6.3-.1.7-.2 1-.2.3 0 .5 0 .8.1l.6.3c.2.1.3.3.4.5l.3.6-.6.4zM59.1 2.6h.8v1.2c.1-.2.2-.4.4-.5l.4-.4c.2-.1.3-.2.5-.2.2-.1.4-.1.6-.1v.8c-.5 0-.9.2-1.2.5-.3.4-.6.9-.7 1.4v3.3h-.8v-6zM63.8.2v1H63v-1h.8zM63 2.6h.8v5.9H63V2.6zM65.9 2.6V.7h.8v1.9h1.4v.7h-1.4v4.2c0 .1.1.2.2.3.1.1.3.2.5.2h.7v.7c-.1 0-.2.1-.4.1h-.6c-.3 0-.7 0-1-.2-.1-.3-.2-.6-.2-.9V3.4h-1v-.8h1zM73.5 7.3c-.1.2-.2.3-.3.5-.3.4-.6.6-1.1.8-.3.1-.6.1-.9.1-.3 0-.7-.1-1-.2-.3-.1-.6-.3-.8-.5-.3-.3-.4-.6-.6-1-.2-.4-.2-.9-.2-1.4 0-.4.1-.9.2-1.3.1-.3.3-.7.5-1 .2-.3.5-.5.8-.6.3-.1.6-.2 1-.2.3 0 .6.1.9.2.3.1.5.3.7.5.2.2.4.5.5.8.1.4.2.8.2 1.2v.5h-3.8c0 .3 0 .6.1.9.1.3.2.5.4.7.2.2.3.3.6.5.1.1.3.2.6.2s.7-.1 1-.3c.3-.2.5-.4.7-.7l.5.3zm-1-2.2c0-.5-.1-.9-.4-1.3-.2-.3-.6-.5-1-.5s-.9.2-1.1.5c-.3.4-.4.8-.4 1.3h2.9zM74.6 2.6h.8v1.2c.1-.2.2-.4.4-.5l.4-.4c.2-.1.3-.2.5-.2.2-.1.4-.1.6-.1v.8c-.5 0-.9.2-1.2.5-.3.4-.6.9-.7 1.4v3.3h-.8v-6zM79.4.2v1h-.8v-1h.8zm-.8 2.4h.8v5.9h-.8V2.6zM80.9 3.8c.2-.4.5-.7.8-.9.4-.3.9-.4 1.4-.4.2 0 .5 0 .7.1.2.1.5.2.7.3.2.1.4.3.5.5.1.3.2.5.2.8V8c0 .2.1.3.1.5h-.8l-.1-.8c-.2.2-.5.5-.8.6-.4.2-.8.3-1.2.3-.2 0-.4 0-.6-.1-.2-.1-.4-.2-.5-.3-.2-.1-.3-.3-.4-.5-.1-.2-.1-.5-.1-.7 0-.6.3-1.2.8-1.5.3-.2.7-.4 1.1-.5.5-.2 1.1-.3 1.7-.4v-.3c0-.3-.1-.6-.3-.8-.3-.2-.6-.3-.9-.2-.2 0-.4 0-.6.1-.2 0-.3.1-.4.2l-.3.3c-.1.1-.1.2-.2.3l-.8-.4zm3.4 1.6c-1.9.3-2.8.9-2.8 1.7 0 .1 0 .3.1.4.1.1.1.2.2.3.1.1.2.1.3.2.1 0 .2.1.3.1.2 0 .3 0 .5-.1s.3-.1.5-.2.3-.2.5-.3c.1-.1.3-.2.4-.4V5.4zM91.9 3.8c.2-.4.5-.7.8-.9.4-.3.9-.4 1.4-.4.2 0 .5 0 .7.1.2.1.5.2.7.3.2.1.4.3.5.5.1.3.2.5.2.8V8c0 .2.1.3.1.5h-.8l-.1-.8c-.2.2-.5.5-.8.6-.4.2-.8.3-1.2.3-.2 0-.4 0-.6-.1-.2-.1-.4-.2-.5-.3-.2-.1-.3-.3-.4-.5-.1-.2-.1-.5-.1-.7 0-.6.3-1.2.8-1.5.3-.2.7-.4 1.1-.5.5-.2 1.1-.3 1.7-.4v-.3c0-.3-.1-.6-.3-.8-.3-.2-.6-.3-.9-.2-.2 0-.4 0-.6.1-.2 0-.3.1-.4.2l-.3.3c-.1.1-.1.2-.2.3l-.8-.4zm3.5 1.6c-1.9.3-2.8.9-2.8 1.7 0 .1 0 .3.1.4.1.1.1.2.2.3.1.1.2.1.3.2.1 0 .2.1.3.1.2 0 .3 0 .5-.1s.3-.1.5-.2.3-.2.5-.3c.1-.1.3-.2.4-.4V5.4zM97.8 10.7V2.6h.8v.7l.3-.3c.1-.1.2-.2.4-.3.1-.1.3-.1.4-.2.1 0 .3-.1.4-.1.3 0 .6.1.8.1.3.1.6.3.8.5.3.3.5.6.6.9.2.5.2 1 .2 1.5s-.1 1-.2 1.4c-.1.3-.3.7-.6.9-.2.2-.5.4-.8.5-.3.1-.5.2-.8.2-.3 0-.6-.1-.8-.2-.3-.1-.5-.3-.7-.5v2.7l-.8.3zm.8-3.6c.2.2.5.4.7.6.2.1.5.2.8.2.2 0 .4 0 .7-.1.2-.1.4-.2.5-.4.2-.2.3-.5.4-.7.1-.4.1-.7.1-1.1 0-.6-.1-1.2-.4-1.7-.3-.4-.7-.6-1.2-.6-.3 0-.5.1-.7.2-.3.2-.5.4-.8.6l-.1 3zM103.9 10.7V2.6h.8v.7l.3-.3c.1-.1.2-.2.4-.3.1-.1.3-.1.4-.2.1 0 .3-.1.4-.1.3 0 .6.1.8.1.3.1.6.3.8.5.3.3.5.6.6.9.2.5.2 1 .2 1.5s-.1 1-.2 1.4c-.1.3-.3.7-.6.9-.2.2-.5.4-.8.5-.3.1-.5.2-.8.2-.3 0-.6-.1-.8-.2-.3-.1-.5-.3-.7-.5v2.7l-.8.3zm.8-3.6c.2.2.5.4.7.6.2.1.5.2.8.2.2 0 .4 0 .7-.1.2-.1.4-.2.5-.4.2-.2.3-.5.4-.7.1-.4.1-.7.1-1.1 0-.6-.1-1.2-.4-1.7-.3-.4-.7-.6-1.2-.6-.3 0-.5.1-.7.2-.3.2-.5.4-.8.6l-.1 3zM110.9.4v8.2h-.8V.4h.8zM116.7 2.6L114.6 9c-.1.3-.2.6-.4.8-.1.2-.3.4-.5.5-.2.1-.4.2-.5.3-.2 0-.4.1-.6.1h-.6V10h.8c.2 0 .3-.1.4-.2.2-.1.3-.3.4-.4.1-.2.2-.5.3-.8l-2.1-6h.9l1.6 4.5 1.4-4.5h1zM124.1.4v2.9c.2-.2.5-.3.7-.5.3-.1.5-.2.8-.2.3 0 .5.1.8.2.3.1.6.3.8.5.3.3.4.6.6.9.2.5.2 1 .2 1.4 0 .5-.1 1-.2 1.5-.1.4-.3.7-.6.9-.2.2-.5.4-.8.5-.3.1-.5.1-.8.1-.3 0-.6-.1-.9-.2-.3-.1-.5-.3-.8-.5l-.1.6h-.6c0-.2.1-.4.1-.6V.4h.8zm0 6.8c.2.2.5.4.8.6.2.1.5.2.7.2.5 0 .9-.2 1.2-.6.3-.5.5-1.1.4-1.7 0-.4 0-.8-.1-1.1-.1-.3-.2-.5-.4-.7-.1-.2-.3-.3-.5-.4-.2-.1-.4-.1-.7-.1-.3 0-.5.1-.8.2-.3.2-.5.4-.7.6l.1 3zM129.1 3.8c.2-.4.5-.7.8-.9.4-.3.9-.4 1.4-.4.2 0 .5 0 .7.1.2.1.5.2.7.3.2.1.4.3.5.5.1.3.2.5.2.8V8c0 .2.1.3.1.5h-.8l-.1-.8c-.2.2-.5.5-.8.6-.4.2-.8.3-1.2.3-.2 0-.4 0-.6-.1-.2-.1-.4-.2-.5-.3-.2-.1-.3-.3-.4-.5-.1-.2-.1-.4-.1-.7 0-.6.3-1.2.8-1.5.3-.2.7-.4 1.1-.5.5-.2 1.1-.3 1.7-.4v-.3c0-.3-.1-.6-.3-.8-.3-.2-.6-.3-.9-.2-.2 0-.4 0-.6.1-.2 0-.3.1-.4.2l-.3.3c-.1.1-.1.2-.2.3l-.8-.4zm3.5 1.6c-1.9.3-2.8.9-2.8 1.7 0 .1 0 .3.1.4.1.1.1.2.2.3.1.1.2.1.3.2.1 0 .2.1.3.1.2 0 .3 0 .5-.1s.3-.1.5-.2.3-.2.5-.3c.1-.1.3-.2.4-.4V5.4zM135 7c.2.3.4.5.7.7.3.2.6.3 1 .2.3 0 .7-.1 1-.3.2-.2.3-.4.3-.7 0-.2-.1-.4-.3-.6-.2-.2-.4-.3-.6-.3-.3-.1-.5-.2-.8-.3-.3-.1-.6-.2-.8-.3-.2-.1-.5-.3-.6-.5-.2-.2-.3-.6-.2-.9 0-.5.2-.9.6-1.2.4-.3.9-.4 1.4-.4.2 0 .4 0 .6.1.2.1.4.1.6.2.2.1.3.2.5.3l.4.4-.6.5c-.2-.2-.4-.5-.7-.6-.3-.1-.5-.2-.8-.2-.3 0-.6.1-.8.2-.2.2-.3.4-.3.6 0 .2.1.4.3.5l.6.3c.3.1.5.2.8.3.3.1.6.2.8.3.2.1.5.3.6.5.2.3.3.6.3.9 0 .5-.2 1-.6 1.3-.2.1-.4.3-.7.3-.3.1-.5.1-.8.1-.5 0-.9-.1-1.3-.3-.4-.2-.8-.5-1-.8l.4-.3zM144.4 7.3c-.1.2-.2.3-.3.5-.3.4-.6.6-1.1.8-.3.1-.6.1-.9.1-.3 0-.7-.1-1-.2-.3-.1-.6-.3-.8-.5-.3-.3-.4-.6-.6-1-.2-.4-.2-.9-.2-1.4 0-.4.1-.9.2-1.3.1-.3.3-.7.5-1 .2-.3.5-.5.8-.6.3-.1.6-.2 1-.2.3 0 .6.1.9.2.3.1.5.3.7.5.2.2.4.5.5.8.1.4.2.8.2 1.2v.5h-3.8c0 .3 0 .6.1.9.1.3.2.5.4.7.2.2.3.3.6.5.2.1.4.2.7.2.3 0 .7-.1 1-.3.3-.2.5-.4.7-.7l.4.3zm-1-2.2c0-.5-.1-.9-.4-1.3-.2-.3-.6-.5-1-.5s-.9.2-1.1.5c-.3.4-.4.8-.4 1.3h2.9zM150 .4v7.5c0 .2 0 .4.1.6h-.7l-.2-.5c-.2.2-.4.4-.6.5-.3.1-.6.2-.9.2-.3 0-.6-.1-.8-.1-.3-.1-.6-.3-.8-.5-.3-.3-.5-.6-.6-.9-.2-.5-.2-1-.2-1.5s.1-1 .2-1.4c.1-.3.3-.7.6-.9.2-.2.5-.4.8-.5.3-.1.5-.2.8-.2.3 0 .6.1.8.2.3.1.5.3.7.5v-3h.8zm-.8 3.7c-.2-.2-.5-.4-.7-.6-.2-.1-.5-.2-.8-.2-.2 0-.5 0-.7.1-.2.1-.4.2-.5.4-.2.2-.3.5-.4.7-.1.4-.1.7-.1 1.1 0 .6.1 1.2.4 1.7.3.4.7.6 1.2.6.3 0 .5-.1.7-.2.3-.2.5-.4.8-.6v-3zM161.6 5.6c0 .4 0 .8-.2 1.2-.1.3-.2.7-.5 1-.2.3-.5.5-.8.7-.7.3-1.4.3-2.1 0-.3-.2-.6-.4-.8-.7-.2-.3-.4-.6-.5-1-.2-.8-.2-1.6 0-2.4.1-.3.2-.7.5-1 .2-.3.5-.5.8-.7.7-.3 1.4-.3 2.1 0 .3.2.6.4.8.7.2.3.4.6.5 1 .2.4.2.8.2 1.2zm-.8 0c0-.6-.1-1.2-.4-1.8-.5-.6-1.3-.8-2-.3-.1.1-.3.2-.3.3-.6 1.1-.6 2.4 0 3.5.5.6 1.3.8 2 .3.1-.1.3-.2.3-.3.3-.5.4-1.1.4-1.7zM163.7 2.6v.8c.2-.3.5-.5.8-.7.3-.2.6-.3 1-.3.2 0 .4 0 .6.1.2.1.4.2.5.3.2.1.3.3.4.5.1.3.1.5.1.8v4.3h-.8V4.3c0-.3-.1-.6-.3-.8-.2-.2-.4-.2-.7-.2-.2 0-.3 0-.5.1s-.3.1-.5.2c-.1.1-.3.2-.4.3l-.3.3v4.4h-.8v-6h.9zM175.4 2.6v.8c.2-.3.5-.5.8-.7.3-.2.6-.3 1-.3.2 0 .4 0 .6.1.2.1.4.2.5.3.2.1.3.3.4.5.1.3.1.5.1.8v4.3h-.8V4.3c0-.3-.1-.6-.3-.8-.2-.2-.4-.2-.7-.2-.2 0-.3 0-.5.1s-.3.1-.5.2c-.1.1-.3.2-.4.3l-.3.3v4.4h-.8v-6h.9zM184 8.5v-.8c-.2.3-.5.5-.8.7-.3.2-.6.3-1 .3-.2 0-.4 0-.6-.1-.2-.1-.4-.2-.5-.3-.2-.1-.3-.3-.4-.5-.1-.3-.2-.5-.1-.8V2.6h.8v4.3c0 .3.1.6.3.8.2.2.4.2.7.2.2 0 .3 0 .5-.1s.3-.1.5-.2c.1-.1.3-.2.4-.3l.3-.3V2.6h.8v5.9h-.9zM186.5 8.5V2.6h.8v.8c.2-.3.5-.5.8-.6.3-.1.6-.2.9-.2.3 0 .7.1 1 .3.2.2.4.4.5.7.3-.3.5-.5.9-.7.3-.2.6-.3 1-.3.2 0 .4 0 .6.1.2 0 .4.1.5.3.2.2.3.3.4.5.1.3.2.6.1.9v4.2h-.8V4.3c0-.3-.1-.6-.3-.8-.2-.2-.4-.3-.7-.2-.2 0-.3 0-.5.1-.1.1-.3.1-.4.2-.1.1-.3.2-.4.3l-.3.3v4.4h-.8V4.3c0-.3-.1-.6-.3-.8-.2-.2-.4-.3-.7-.2-.2 0-.3 0-.5.1-.1.1-.3.1-.4.2-.1.1-.3.2-.4.3l-.3.3v4.4l-.7-.1zM200.1 7.3c-.1.2-.2.3-.3.5-.3.4-.6.6-1.1.8-.3.1-.6.1-.9.1-.3 0-.7-.1-1-.2-.3-.1-.6-.3-.8-.5-.3-.3-.4-.6-.6-1-.2-.4-.2-.9-.2-1.4 0-.4.1-.9.2-1.3.1-.3.3-.7.5-1 .2-.3.5-.5.8-.6.3-.1.6-.2 1-.2.3 0 .6.1.9.2.3.1.5.3.7.5.2.2.4.5.5.8.1.4.2.8.2 1.2v.5h-3.8c0 .3 0 .6.1.9.1.3.2.5.4.7.2.2.3.3.6.5.2.1.4.2.7.2.3 0 .7-.1 1-.3.3-.2.5-.4.7-.7l.4.3zm-.9-2.2c0-.5-.1-.9-.4-1.3-.2-.3-.6-.5-1-.5s-.9.2-1.1.5c-.3.4-.4.8-.4 1.3h2.9zM201.3 2.6h.8v1.2c.1-.2.2-.4.4-.5l.4-.4c.2-.1.3-.2.5-.2.2-.1.4-.1.6-.1v.8c-.5 0-.9.2-1.2.5-.3.4-.6.9-.7 1.4v3.3h-.8v-6zM209.4 5.6c0 .4 0 .8-.2 1.2-.1.3-.2.7-.5 1-.2.3-.5.5-.8.7-.7.3-1.4.3-2.1 0-.3-.2-.6-.4-.8-.7-.2-.3-.4-.6-.5-1-.2-.8-.2-1.6 0-2.4.1-.3.2-.7.5-1 .2-.3.5-.5.8-.7.7-.3 1.4-.3 2.1 0 .3.2.6.4.8.7.2.3.4.6.5 1 .1.4.2.8.2 1.2zm-.9 0c0-.6-.1-1.2-.4-1.8-.5-.6-1.3-.8-2-.3-.1.1-.3.2-.3.3-.6 1.1-.6 2.4 0 3.5.5.6 1.3.8 2 .3.1-.1.3-.2.3-.3.3-.5.5-1.1.4-1.7zM214.1 8.5v-.8c-.2.3-.5.5-.8.7-.3.2-.6.3-1 .3-.2 0-.4 0-.6-.1-.2-.1-.4-.2-.5-.3-.2-.1-.3-.3-.4-.5-.1-.3-.2-.5-.1-.8V2.6h.8v4.3c0 .3.1.6.3.8.2.2.4.2.7.2.2 0 .3 0 .5-.1s.3-.1.5-.2c.1-.1.3-.2.4-.3l.3-.3V2.6h.8v5.9h-.9zM216.7 7c.2.3.4.5.7.7.3.2.6.3 1 .2.3 0 .7-.1 1-.3.2-.2.3-.4.3-.7 0-.2-.1-.4-.3-.6-.2-.2-.4-.3-.6-.3-.3-.1-.5-.2-.8-.3-.3-.1-.6-.2-.8-.3-.2-.1-.5-.3-.6-.5-.2-.2-.3-.6-.2-.9 0-.5.2-.9.6-1.2.4-.3.9-.4 1.4-.4.2 0 .4 0 .6.1.2.1.4.1.6.2.2.1.3.2.5.3l.4.4-.6.5c-.2-.2-.4-.5-.7-.6-.3-.1-.5-.2-.8-.2-.3 0-.6.1-.8.2-.2.2-.3.4-.3.6 0 .2.1.4.3.5l.6.3c.3.1.5.2.8.3.3.1.6.2.8.3.2.1.5.3.6.5.2.3.3.6.3.9 0 .5-.2 1-.6 1.3-.2.1-.4.3-.7.3-.3.1-.5.1-.8.1-.5 0-.9-.1-1.3-.3-.4-.2-.8-.5-1-.8l.4-.3zM227.5 8.5V3.4h-1v-.8h1V2c0-.3 0-.6.1-.9 0-.2.1-.4.3-.5.1-.1.3-.2.4-.3.2-.1.4-.1.6-.1h.8V1c-.1 0-.2 0-.3-.1h-.3c-.2 0-.4 0-.6.2-.1.2-.2.4-.2.7v.9h1.3v.7h-1.3v5.2l-.8-.1zM230.4 3.8c.2-.4.5-.7.8-.9.4-.3.9-.4 1.4-.4.2 0 .5 0 .7.1.2.1.5.2.7.3.2.1.4.3.5.5.1.3.2.5.2.8V8c0 .2.1.3.1.5h-.8l-.1-.8c-.2.2-.5.5-.8.6-.4.2-.8.3-1.2.3-.2 0-.4 0-.6-.1-.2-.1-.4-.2-.5-.3-.2-.1-.3-.3-.4-.5-.1-.2-.1-.5-.1-.7 0-.6.3-1.2.8-1.5.3-.2.7-.4 1.1-.5.5-.2 1.1-.3 1.7-.4v-.3c0-.3-.1-.6-.3-.8-.3-.2-.6-.3-.9-.2-.2 0-.4 0-.6.1-.2 0-.3.1-.4.2l-.3.3c-.1.1-.1.2-.2.3l-.8-.4zm3.5 1.6c-1.9.3-2.8.9-2.8 1.7 0 .1 0 .3.1.4.1.1.1.2.2.3.1.1.2.1.3.2.1 0 .2.1.3.1.2 0 .3 0 .5-.1s.3-.1.5-.2.3-.2.5-.3c.1-.1.3-.2.4-.4V5.4zM239.7 4.4c-.1-.3-.3-.6-.5-.9-.2-.2-.6-.3-.9-.3-.5 0-.9.2-1.2.6-.6 1.1-.6 2.4 0 3.5.3.4.7.6 1.2.6.2 0 .3 0 .5-.1.1 0 .3-.1.4-.2.1-.1.3-.2.4-.3.1-.2.2-.3.3-.5l.7.3c-.1.2-.3.4-.4.7-.1.2-.3.3-.5.5l-.6.3c-.2.1-.5.1-.8.1-.3 0-.7-.1-1-.2-.3-.1-.6-.3-.8-.6-.2-.3-.4-.6-.5-1-.2-.8-.2-1.7 0-2.6.1-.3.3-.7.5-1 .2-.3.5-.5.8-.6.3-.1.7-.2 1-.2.3 0 .5 0 .8.1l.6.3c.2.1.3.3.4.5l.3.6-.7.4zM242.1 2.6V.7h.8v1.9h1.4v.7h-1.4v4.2c0 .1.1.2.2.3.2.1.3.1.5.1h.7v.7c-.1 0-.2.1-.4.1h-.6c-.3 0-.7 0-1-.2-.2-.2-.3-.5-.3-.8V3.4h-1v-.8h1.1zM249.7 5.6c0 .4 0 .8-.2 1.2-.1.3-.2.7-.5 1-.2.3-.5.5-.8.7-.7.3-1.4.3-2.1 0-.3-.2-.6-.4-.8-.7-.2-.3-.4-.6-.5-1-.2-.8-.2-1.6 0-2.4.1-.3.2-.7.5-1 .2-.3.5-.5.8-.7.7-.3 1.4-.3 2.1 0 .3.2.6.4.8.7.2.3.4.6.5 1 .2.4.2.8.2 1.2zm-.8 0c0-.6-.1-1.2-.4-1.8-.5-.6-1.3-.8-2-.3-.1.1-.3.2-.3.3-.6 1.1-.6 2.4 0 3.5.5.6 1.3.8 2 .3.1-.1.3-.2.3-.3.3-.5.5-1.1.4-1.7zM250.9 2.6h.8v1.2c.1-.2.2-.4.4-.5l.4-.4c.2-.1.3-.2.5-.2.2-.1.4-.1.6-.1v.8c-.5 0-.9.2-1.2.5-.3.4-.6.9-.7 1.4v3.3h-.8v-6zM254.9 7c.2.3.4.5.7.7.3.2.6.3 1 .2.3 0 .7-.1 1-.3.2-.2.3-.4.3-.7 0-.2-.1-.4-.3-.6-.2-.2-.4-.3-.6-.3-.3-.1-.5-.2-.8-.3-.3-.1-.6-.2-.8-.3-.2-.1-.5-.3-.6-.5-.2-.2-.3-.6-.2-.9 0-.5.2-.9.6-1.2.4-.3.9-.4 1.4-.4.2 0 .4 0 .6.1.2.1.4.1.6.2.2.1.3.2.5.3l.4.4-.6.5c-.2-.2-.4-.5-.7-.6-.3-.1-.5-.2-.8-.2-.3 0-.6.1-.8.2-.2.2-.3.4-.3.6 0 .2.1.4.3.5l.6.3c.3.1.5.2.8.3.3.1.6.2.8.3.2.1.5.3.6.5.2.3.3.6.3.9 0 .5-.2 1-.6 1.3-.2.1-.4.3-.7.3-.3.1-.5.1-.8.1-.5 0-.9-.1-1.3-.3-.4-.2-.8-.5-1-.8l.4-.3zM2.9 13.5v1h-.8v-1h.8zm-.8 2.4h.8v5.9h-.8v-5.9zM5.5 15.9v.8c.2-.3.5-.5.8-.7.3-.2.6-.3 1-.3.2 0 .4 0 .6.1.2.1.4.2.5.3.2.1.3.3.4.5.1.3.2.6.2.9v4.3h-.9v-4.3c0-.3-.1-.6-.3-.8-.2-.2-.4-.2-.7-.2-.2 0-.3 0-.5.1s-.3.1-.5.2c-.1.1-.3.2-.4.3l-.3.3v4.4h-.7v-5.9h.8zM14.1 17.6c-.1-.3-.3-.6-.5-.9-.2-.2-.6-.3-.9-.3-.5 0-.9.2-1.2.6-.6 1.1-.6 2.4 0 3.5.3.4.7.6 1.2.6.2 0 .3 0 .5-.1.1 0 .3-.1.4-.2.1-.1.3-.2.4-.3.1-.2.2-.3.3-.5l.7.3c-.1.2-.3.4-.4.7-.1.2-.3.3-.5.5l-.6.3c-.2.1-.5.1-.8.1-.3 0-.7-.1-1-.2-.3-.1-.6-.3-.8-.6-.2-.3-.4-.6-.5-1-.2-.8-.2-1.7 0-2.6.1-.3.3-.7.5-1 .2-.3.5-.5.8-.6.3-.1.7-.2 1-.2.3 0 .5 0 .8.1l.6.3c.2.1.3.3.4.5l.3.6-.7.4zM17.1 13.6v8.2h-.8v-8.2h.8zM22.3 21.8V21c-.2.3-.5.5-.8.7-.3.2-.6.3-1 .3-.2 0-.4 0-.6-.1-.2-.1-.4-.2-.5-.3-.2-.1-.3-.3-.4-.5-.1-.3-.2-.5-.1-.8V16h.8v4.3c0 .3.1.6.3.8.2.2.4.2.7.2.2 0 .3 0 .5-.1s.3-.1.5-.2c.1-.1.3-.2.4-.3l.3-.3V16h.8v5.9l-.9-.1zM29.3 13.6v7.5c0 .2 0 .4.1.6h-.7l-.1-.6c-.2.2-.4.4-.6.5-.3.1-.6.2-.9.2-.3 0-.6-.1-.8-.1-.3-.1-.6-.3-.8-.5-.3-.3-.5-.6-.6-.9-.2-.5-.2-1-.2-1.5s.1-1 .2-1.4c.1-.3.3-.7.6-.9.2-.2.5-.4.8-.5.3-.1.5-.2.8-.2.3 0 .6.1.8.2.3.1.5.3.7.5v-2.9h.7zm-.8 3.7c-.2-.2-.5-.4-.7-.6-.2-.1-.5-.2-.8-.2-.2 0-.5 0-.7.1-.2.1-.4.2-.5.4-.2.2-.3.5-.4.7-.1.4-.1.7-.1 1.1 0 .6.1 1.2.4 1.7.3.4.7.6 1.2.6.3 0 .5-.1.7-.2.3-.2.5-.4.8-.6v-3zM31.9 13.5v1h-.8v-1h.8zm-.8 2.4h.8v5.9h-.8v-5.9zM34.5 15.9v.8c.2-.3.5-.5.8-.7.3-.2.6-.3 1-.3.2 0 .4 0 .6.1.2.1.4.2.5.3.2.1.3.3.4.5.1.3.1.5.1.8v4.3h-.8v-4.3c0-.3-.1-.6-.3-.8-.2-.2-.4-.2-.7-.2-.2 0-.3 0-.5.1s-.3.1-.5.2c-.1.1-.3.2-.4.3l-.3.3v4.4h-.8v-5.9l.9.1zM44.3 16.5h-.5c-.1 0-.3.1-.4.1.1.1.2.3.3.5.1.2.1.5.1.7 0 .3-.1.6-.2.8-.2.5-.6.9-1.1 1.1-.3.1-.6.2-.8.2h-.6c-.1 0-.3-.1-.5-.1-.3 0-.5.3-.5.5 0 .1 0 .2.1.3.1.1.2.1.4.1.6 0 1.2 0 1.8.1.4 0 .8.1 1.1.3.3.1.5.3.6.5.1.2.2.5.2.7 0 .2-.1.4-.2.6-.1.2-.3.4-.5.5-.3.2-.5.3-.8.3-.4.1-.8.1-1.2.1-.6 0-1.3-.1-1.9-.3-.4-.1-.7-.5-.7-1 0-.3.1-.5.3-.7.2-.2.5-.4.7-.5-.2-.1-.4-.2-.5-.3-.1-.1-.2-.3-.2-.5s.1-.4.2-.6c.2-.2.4-.3.6-.4-.3-.2-.5-.4-.6-.7-.1-.3-.2-.6-.2-.9 0-.3.1-.6.2-.8.1-.2.3-.5.5-.7.2-.2.4-.3.7-.4.3-.1.6-.1.9-.1.3 0 .6 0 .8.1l.6.3.6-.3c.2-.1.4-.2.7-.2v.7zm-.8 5.9c0-.3-.2-.6-.5-.7-.5-.2-1-.3-1.6-.2-.3 0-.5 0-.8.1-.2 0-.4.1-.5.2l-.3.3c0 .1-.1.2-.1.3 0 .1 0 .2.1.3.2.2.2.3.4.3.2.1.4.1.6.1.3 0 .7.1 1 .1.2 0 .5 0 .7-.1.2 0 .4-.1.6-.2.1-.1.3-.2.4-.3v-.2zm-.5-4.5c0-.4-.1-.7-.4-1-.3-.3-.7-.4-1.1-.4-.7-.1-1.4.4-1.4 1.2v.2c0 .4.1.7.4 1 .3.3.7.4 1.1.4.2 0 .4 0 .6-.1.2-.1.3-.2.4-.3.1-.1.2-.3.3-.4.1-.3.1-.5.1-.6zM48.5 13.6v2.9c.2-.2.5-.3.7-.5.3-.1.5-.2.8-.2.3 0 .5.1.8.2.3.1.6.3.8.5.3.3.4.6.6.9.2.5.2 1 .2 1.4 0 .5-.1 1-.2 1.5-.1.4-.3.7-.6.9-.2.2-.5.4-.8.5-.3.1-.5.1-.8.1-.3 0-.6-.1-.9-.2-.3-.1-.5-.3-.8-.5l-.1.6h-.6c0-.2.1-.4.1-.6v-7.5h.8zm0 6.8c.2.2.5.4.8.6.2.1.5.2.7.2.5 0 .9-.2 1.2-.6.3-.5.5-1.1.4-1.7 0-.4 0-.8-.1-1.1-.1-.3-.2-.5-.4-.7-.1-.2-.3-.3-.5-.4-.2-.1-.4-.1-.7-.1-.3 0-.5.1-.8.2-.3.2-.5.4-.7.6l.1 3zM57.2 21.8V21c-.2.3-.5.5-.8.7-.3.2-.6.3-1 .3-.2 0-.4 0-.6-.1-.2-.1-.4-.2-.5-.3-.2-.1-.3-.3-.4-.5-.1-.3-.2-.5-.1-.8V16h.8v4.3c0 .3.1.6.3.8.2.2.4.2.7.2.2 0 .3 0 .5-.1s.3-.1.5-.2c.1-.1.3-.2.4-.3l.3-.3V16h.8v5.9l-.9-.1zM60.1 15.9V14h.8v1.9h1.4v.7h-1.4v4.2c0 .1.1.2.2.3.2.1.3.1.5.1h.7v.7c-.1 0-.2.1-.4.1h-.6c-.3 0-.7 0-1-.2-.2-.2-.3-.5-.3-.8v-4.3h-1V16l1.1-.1zM66.7 15.9v.8c.2-.3.5-.5.8-.7.3-.2.6-.3 1-.3.2 0 .4 0 .6.1.2.1.4.2.5.3.2.1.3.3.4.5.1.3.1.5.1.8v4.3h-.8v-4.3c0-.3-.1-.6-.3-.8-.2-.2-.4-.2-.7-.2-.2 0-.3 0-.5.1s-.3.1-.5.2c-.1.1-.3.2-.4.3l-.3.3v4.4h-.8v-5.9l.9.1zM76.3 18.8c0 .4 0 .8-.2 1.2-.1.3-.2.7-.5 1-.2.3-.5.5-.8.7-.7.3-1.4.3-2.1 0-.3-.2-.6-.4-.8-.7-.2-.3-.4-.6-.5-1-.2-.8-.2-1.6 0-2.4.1-.3.2-.7.5-1 .2-.3.5-.5.8-.7.7-.3 1.4-.3 2.1 0 .3.2.6.4.8.7.2.3.4.6.5 1 .1.4.2.8.2 1.2zm-.8 0c0-.6-.1-1.2-.4-1.8-.5-.6-1.3-.8-2-.3-.1.1-.3.2-.3.3-.6 1.1-.6 2.4 0 3.5.5.6 1.3.8 2 .3.1-.1.3-.2.3-.3.2-.5.4-1.1.4-1.7zM77.7 15.9V14h.8v1.9h1.4v.7h-1.4v4.2c0 .1.1.2.2.3.2.1.3.1.5.1h.7v.7c-.1 0-.2.1-.4.1h-.6c-.3 0-.7 0-1-.2-.2-.2-.3-.5-.3-.8v-4.3h-1V16l1.1-.1zM84.5 13.6v8.2h-.8v-8.2h.8zM87.2 13.5v1h-.8v-1h.8zm-.8 2.4h.8v5.9h-.8v-5.9zM89 21.8v-5.9h.8v.8c.2-.3.5-.5.8-.6.3-.1.6-.2.9-.2.3 0 .7.1 1 .3.2.2.4.4.5.7.3-.3.5-.5.9-.7.3-.2.6-.3 1-.3.2 0 .4 0 .6.1.2 0 .4.1.5.3.2.2.3.3.4.5.1.3.2.6.1.9v4.2h-.8v-4.2c0-.3-.1-.6-.3-.8-.2-.2-.4-.3-.7-.2-.2 0-.3 0-.5.1-.1.1-.3.1-.4.2-.1.1-.3.2-.4.3l-.3.3V22h-.8v-4.2c0-.3-.1-.6-.3-.8-.2-.2-.4-.3-.7-.2-.2 0-.3 0-.5.1-.1.1-.3.1-.4.2-.1.1-.3.2-.4.3l-.3.3v4.4l-.7-.3zM99.1 13.5v1h-.8v-1h.8zm-.8 2.4h.8v5.9h-.8v-5.9zM101.2 15.9V14h.8v1.9h1.4v.7H102v4.2c0 .1.1.2.2.3.2.1.3.1.5.1h.7v.7c-.1 0-.2.1-.4.1h-.6c-.3 0-.7 0-1-.2-.2-.2-.3-.5-.3-.8v-4.3h-1V16l1.1-.1zM108.9 20.5c-.1.2-.2.3-.3.5-.3.4-.6.6-1.1.8-.3.1-.6.1-.9.1-.3 0-.7-.1-1-.2-.3-.1-.6-.3-.8-.5-.3-.3-.4-.6-.6-1-.2-.4-.2-.9-.2-1.4 0-.4.1-.9.2-1.3.1-.3.3-.7.5-1 .2-.3.5-.5.8-.6.3-.1.6-.2 1-.2.3 0 .6.1.9.2.3.1.5.3.7.5.2.2.4.5.5.8.1.4.2.8.2 1.2v.6H105c0 .3 0 .6.1.9.1.3.2.5.4.7.2.2.3.3.6.5.2.1.4.2.7.2.3 0 .7-.1 1-.3.3-.2.5-.4.7-.7l.4.2zm-1-2.2c0-.5-.1-.9-.4-1.3-.2-.3-.6-.5-1-.5s-.9.2-1.1.5c-.3.4-.4.8-.4 1.3h2.9zM114.5 13.6v7.5c0 .2 0 .4.1.6h-.7l-.1-.6c-.2.2-.4.4-.6.5-.3.1-.6.2-.9.2-.3 0-.6-.1-.8-.1-.3-.1-.6-.3-.8-.5-.3-.3-.5-.6-.6-.9-.2-.5-.2-1-.2-1.5s.1-1 .2-1.4c.1-.3.3-.7.6-.9.2-.2.5-.4.8-.5.3-.1.5-.2.8-.2.3 0 .6.1.8.2.3.1.5.3.7.5v-2.9h.7zm-.8 3.7c-.2-.2-.5-.4-.7-.6-.2-.1-.5-.2-.8-.2-.2 0-.5 0-.7.1-.2.1-.4.2-.5.4-.2.2-.3.5-.4.7-.1.4-.1.7-.1 1.1 0 .6.1 1.2.4 1.7.3.4.7.6 1.2.6.3 0 .5-.1.7-.2.3-.2.5-.4.8-.6v-3zM118.8 15.9V14h.8v1.9h1.4v.7h-1.4v4.2c0 .1.1.2.2.3.2.1.3.1.5.1h.7v.7c-.1 0-.2.1-.4.1h-.6c-.3 0-.7 0-1-.2-.2-.2-.3-.5-.3-.8v-4.3h-1V16l1.1-.1zM126.4 18.8c0 .4 0 .8-.2 1.2-.1.3-.2.7-.5 1-.2.3-.5.5-.8.7-.7.3-1.4.3-2.1 0-.3-.2-.6-.4-.8-.7-.2-.3-.4-.6-.5-1-.2-.8-.2-1.6 0-2.4.1-.3.2-.7.5-1 .2-.3.5-.5.8-.7.7-.3 1.4-.3 2.1 0 .3.2.6.4.8.7.2.3.4.6.5 1 .2.4.2.8.2 1.2zm-.8 0c0-.6-.1-1.2-.4-1.8-.5-.6-1.3-.8-2-.3-.1.1-.3.2-.3.3-.6 1.1-.6 2.4 0 3.5.5.6 1.3.8 2 .3.1-.1.3-.2.3-.3.3-.5.5-1.1.4-1.7zM130.8 13.6v2.9c.2-.2.5-.3.7-.5.3-.1.5-.2.8-.2.3 0 .5.1.8.2.3.1.6.3.8.5.3.3.4.6.6.9.2.5.2 1 .2 1.4 0 .5-.1 1-.2 1.5-.1.4-.3.7-.6.9-.2.2-.5.4-.8.5-.3.1-.5.1-.8.1-.3 0-.6-.1-.9-.2-.3-.1-.5-.3-.8-.5l-.1.6h-.5c0-.2.1-.4.1-.6v-7.5h.7zm0 6.8c.2.2.5.4.8.6.2.1.5.2.7.2.5 0 .9-.2 1.2-.6.3-.5.5-1.1.4-1.7 0-.4 0-.8-.1-1.1-.1-.3-.2-.5-.4-.7-.1-.2-.3-.3-.5-.4-.2-.1-.4-.1-.7-.1-.3 0-.5.1-.8.2-.3.2-.5.4-.7.6l.1 3zM139.6 21.8V21c-.2.3-.5.5-.8.7-.3.2-.6.3-1 .3-.2 0-.4 0-.6-.1-.2-.1-.4-.2-.5-.3-.2-.1-.3-.3-.4-.5-.1-.3-.2-.5-.1-.8V16h.8v4.3c0 .3.1.6.3.8.2.2.4.2.7.2.2 0 .3 0 .5-.1s.3-.1.5-.2c.1-.1.3-.2.4-.3l.3-.3V16h.8v5.9l-.9-.1zM142.2 20.3c.2.3.4.5.7.7.3.2.6.3 1 .2.3 0 .7-.1 1-.3.2-.2.3-.4.3-.7 0-.2-.1-.4-.3-.6-.2-.2-.4-.3-.6-.3-.3-.1-.5-.2-.8-.3-.3-.1-.6-.2-.8-.3-.2-.1-.5-.3-.6-.5-.2-.2-.3-.6-.2-.9 0-.5.2-.9.6-1.2.4-.3.9-.4 1.4-.4.2 0 .4 0 .6.1.2.1.4.1.6.2.2.1.3.2.5.3l.4.4-.6.5c-.2-.2-.4-.5-.7-.6-.3-.1-.5-.2-.8-.2-.3 0-.6.1-.8.2-.2.2-.3.4-.3.6 0 .2.1.4.3.5l.6.3c.3.1.5.2.8.3.3.1.6.2.8.3.2.1.5.3.6.5.2.3.3.6.3.9 0 .5-.2 1-.6 1.3-.2.1-.4.3-.7.3-.3.1-.5.1-.8.1-.5 0-.9-.1-1.3-.3-.4-.2-.8-.5-1-.8l.4-.3zM148 13.5v1h-.8v-1h.8zm-.8 2.4h.8v5.9h-.8v-5.9zM150.6 15.9v.8c.2-.3.5-.5.8-.7.3-.2.6-.3 1-.3.2 0 .4 0 .6.1.2.1.4.2.5.3.2.1.3.3.4.5.1.3.1.5.1.8v4.3h-.8v-4.3c0-.3-.1-.6-.3-.8-.2-.2-.4-.2-.7-.2-.2 0-.3 0-.5.1s-.3.1-.5.2c-.1.1-.3.2-.4.3l-.3.3v4.4h-.8v-5.9l.9.1zM160.2 20.5c-.1.2-.2.3-.3.5-.3.4-.6.6-1.1.8-.3.1-.6.1-.9.1-.3 0-.7-.1-1-.2-.3-.1-.6-.3-.8-.5-.3-.3-.4-.6-.6-1-.2-.4-.2-.9-.2-1.4 0-.4.1-.9.2-1.3.1-.3.3-.7.5-1 .2-.3.5-.5.8-.6.3-.1.6-.2 1-.2.3 0 .6.1.9.2.3.1.5.3.7.5.2.2.4.5.5.8.1.4.2.8.2 1.2v.6h-3.8c0 .3 0 .6.1.9.1.3.2.5.4.7.2.2.3.3.6.5.2.1.4.2.7.2.3 0 .7-.1 1-.3.3-.2.5-.4.7-.7l.4.2zm-1-2.2c0-.5-.1-.9-.4-1.3-.2-.3-.6-.5-1-.5s-.9.2-1.1.5c-.3.4-.4.8-.4 1.3h2.9zM161.6 20.3c.2.3.4.5.7.7.3.2.6.3 1 .2.3 0 .7-.1 1-.3.2-.2.3-.4.3-.7 0-.2-.1-.4-.3-.6-.2-.2-.4-.3-.6-.3-.3-.1-.5-.2-.8-.3-.3-.1-.6-.2-.8-.3-.2-.1-.5-.3-.6-.5-.2-.2-.3-.6-.2-.9 0-.5.2-.9.6-1.2.4-.3.9-.4 1.4-.4.2 0 .4 0 .6.1.2.1.4.1.6.2.2.1.3.2.5.3l.4.4-.6.5c-.2-.2-.4-.5-.7-.6-.3-.1-.5-.2-.8-.2-.3 0-.6.1-.8.2-.2.2-.3.4-.3.6 0 .2.1.4.3.5l.6.3c.3.1.5.2.8.3.3.1.6.2.8.3.2.1.5.3.6.5.2.3.3.6.3.9 0 .5-.2 1-.6 1.3-.2.1-.4.3-.7.3-.3.1-.5.1-.8.1-.5 0-.9-.1-1.3-.3-.4-.2-.8-.5-1-.8l.4-.3zM166.8 20.3c.2.3.4.5.7.7.3.2.6.3 1 .2.3 0 .7-.1 1-.3.2-.2.3-.4.3-.7 0-.2-.1-.4-.3-.6-.2-.2-.4-.3-.6-.3-.3-.1-.5-.2-.8-.3-.3-.1-.6-.2-.8-.3-.2-.1-.5-.3-.6-.5-.2-.2-.3-.6-.2-.9 0-.5.2-.9.6-1.2.4-.3.9-.4 1.4-.4.2 0 .4 0 .6.1.2.1.4.1.6.2.2.1.3.2.5.3l.4.4-.6.5c-.2-.2-.4-.5-.7-.6-.3-.1-.5-.2-.8-.2-.3 0-.6.1-.8.2-.2.2-.3.4-.3.6 0 .2.1.4.3.5l.6.3c.3.1.5.2.8.3.3.1.6.2.8.3.2.1.5.3.6.5.2.3.3.6.3.9 0 .5-.2 1-.6 1.3-.2.1-.4.3-.7.3-.3.1-.5.1-.8.1-.5 0-.9-.1-1.3-.3-.4-.2-.8-.5-1-.8l.4-.3zM174.2 15.9V14h.8v1.9h1.4v.7H175v4.2c0 .1.1.2.2.3.2.1.3.1.5.1h.7v.7c-.1 0-.2.1-.4.1h-.6c-.3 0-.7 0-1-.2-.2-.2-.3-.5-.3-.8v-4.3h-1V16l1.1-.1zM181.1 21.8V21c-.2.3-.5.5-.8.7-.3.2-.6.3-1 .3-.2 0-.4 0-.6-.1-.2-.1-.4-.2-.5-.3-.2-.1-.3-.3-.4-.5-.1-.3-.2-.5-.1-.8V16h.8v4.3c0 .3.1.6.3.8.2.2.4.2.7.2.2 0 .3 0 .5-.1s.3-.1.5-.2c.1-.1.3-.2.4-.3l.3-.3V16h.8v5.9l-.9-.1zM183.5 15.9h.8V17c.1-.2.2-.4.4-.5l.4-.4c.2-.1.3-.2.5-.2.2-.1.4-.1.6-.1v.8c-.5 0-.9.2-1.2.5-.3.4-.6.9-.7 1.4v3.3h-.8v-5.9zM188.1 15.9v.8c.2-.3.5-.5.8-.7.3-.2.6-.3 1-.3.2 0 .4 0 .6.1.2.1.4.2.5.3.2.1.3.3.4.5.1.3.1.5.1.8v4.3h-.8v-4.3c0-.3-.1-.6-.3-.8-.2-.2-.4-.2-.7-.2-.2 0-.3 0-.5.1s-.3.1-.5.2c-.1.1-.3.2-.4.3l-.3.3v4.4h-.8v-5.9l.9.1zM197.7 18.8c0 .4 0 .8-.2 1.2-.1.3-.2.7-.5 1-.2.3-.5.5-.8.7-.7.3-1.4.3-2.1 0-.3-.2-.6-.4-.8-.7-.2-.3-.4-.6-.5-1-.2-.8-.2-1.6 0-2.4.1-.3.2-.7.5-1 .2-.3.5-.5.8-.7.7-.3 1.4-.3 2.1 0 .3.2.6.4.8.7.2.3.4.6.5 1 .2.4.2.8.2 1.2zm-.8 0c0-.6-.1-1.2-.4-1.8-.5-.6-1.3-.8-2-.3-.1.1-.3.2-.3.3-.6 1.1-.6 2.4 0 3.5.5.6 1.3.8 2 .3.1-.1.3-.2.3-.3.3-.5.4-1.1.4-1.7zM201.1 21.8H200l-1.8-5.9h.8l1.5 4.9 1.5-4.9h.8l-1.7 5.9zM208.1 20.5c-.1.2-.2.3-.3.5-.3.4-.6.6-1.1.8-.3.1-.6.1-.9.1-.3 0-.7-.1-1-.2-.3-.1-.6-.3-.8-.5-.3-.3-.4-.6-.6-1-.2-.4-.2-.9-.2-1.4 0-.4.1-.9.2-1.3.1-.3.3-.7.5-1 .2-.3.5-.5.8-.6.3-.1.6-.2 1-.2.3 0 .6.1.9.2.3.1.5.3.7.5.2.2.4.5.5.8.1.4.2.8.2 1.2v.6h-3.8c0 .3 0 .6.1.9.1.3.2.5.4.7.2.2.3.3.6.5.2.1.4.2.7.2.3 0 .7-.1 1-.3.3-.2.5-.4.7-.7l.4.2zm-1-2.2c0-.5-.1-.9-.4-1.3-.2-.3-.6-.5-1-.5s-.9.2-1.1.5c-.3.4-.4.8-.4 1.3h2.9zM209.2 15.9h.8V17c.1-.2.2-.4.4-.5l.4-.4c.2-.1.3-.2.5-.2.2-.1.4-.1.6-.1v.8c-.5 0-.9.2-1.2.5-.3.4-.6.9-.7 1.4v3.3h-.8v-5.9zM215 17c.2-.4.5-.7.8-.9.4-.3.9-.4 1.4-.4.2 0 .5 0 .7.1.2.1.5.2.7.3.2.1.4.3.5.5.1.3.2.5.2.8v3.8c0 .2.1.3.1.5h-.8l-.1-.8c-.2.2-.5.5-.8.6-.4.2-.8.3-1.2.3-.2 0-.4 0-.6-.1-.2-.1-.4-.2-.5-.3-.2-.1-.3-.3-.4-.5-.1-.2-.1-.5-.1-.7 0-.6.3-1.2.8-1.5.3-.2.7-.4 1.1-.5.5-.2 1.1-.3 1.7-.4v-.3c0-.3-.1-.6-.3-.8-.3-.2-.6-.3-.9-.2-.2 0-.4 0-.6.1-.2 0-.3.1-.4.2l-.3.3c-.1.1-.1.2-.2.3l-.8-.4zm3.5 1.6c-1.9.3-2.8.9-2.8 1.7 0 .1 0 .3.1.4.1.1.1.2.2.3.1.1.2.1.3.2.1 0 .2.1.3.1.2 0 .3 0 .5-.1s.3-.1.5-.2.3-.2.5-.3c.1-.1.3-.2.4-.4v-1.7zM221.7 15.9v.8c.2-.3.5-.5.8-.7.3-.2.6-.3 1-.3.2 0 .4 0 .6.1.2.1.4.2.5.3.2.1.3.3.4.5.1.3.1.5.1.8v4.3h-.8v-4.3c0-.3-.1-.6-.3-.8-.2-.2-.4-.2-.7-.2-.2 0-.3 0-.5.1s-.3.1-.5.2c-.1.1-.3.2-.4.3l-.3.3v4.4h-.8v-5.9l.9.1zM231.3 13.6v7.5c0 .2 0 .4.1.6h-.7l-.1-.6c-.2.2-.4.4-.6.5-.3.1-.6.2-.9.2-.3 0-.6-.1-.8-.1-.3-.1-.6-.3-.8-.5-.3-.3-.5-.6-.6-.9-.2-.5-.2-1-.2-1.5s.1-1 .2-1.4c.1-.3.3-.7.6-.9.2-.2.5-.4.8-.5.3-.1.5-.2.8-.2.3 0 .6.1.8.2.3.1.5.3.7.5v-2.9h.7zm-.9 3.7c-.2-.2-.5-.4-.7-.6-.2-.1-.5-.2-.8-.2-.2 0-.5 0-.7.1-.2.1-.4.2-.5.4-.2.2-.3.5-.4.7-.1.4-.1.7-.1 1.1 0 .6.1 1.2.4 1.7.3.4.7.6 1.2.6.3 0 .5-.1.7-.2.3-.2.5-.4.8-.6v-3zM235.1 17c.2-.4.5-.7.8-.9.4-.3.9-.4 1.4-.4.2 0 .5 0 .7.1.2.1.5.2.7.3.2.1.4.3.5.5.1.3.2.5.2.8v3.8c0 .2.1.3.1.5h-.8l-.1-.8c-.2.2-.5.5-.8.6-.4.2-.8.3-1.2.3-.2 0-.4 0-.6-.1-.2-.1-.4-.2-.5-.3-.2-.1-.3-.3-.4-.5-.1-.2-.1-.5-.1-.7 0-.6.3-1.2.8-1.5.3-.2.7-.4 1.1-.5.5-.2 1.1-.3 1.7-.4v-.3c0-.3-.1-.6-.3-.8-.3-.2-.6-.3-.9-.2-.2 0-.4 0-.6.1-.2 0-.3.1-.4.2l-.3.3c-.1.1-.1.2-.2.3l-.8-.4zm3.4 1.6c-1.9.3-2.8.9-2.8 1.7 0 .1 0 .3.1.4.1.1.1.2.2.3.1.1.2.1.3.2.1 0 .2.1.3.1.2 0 .3 0 .5-.1s.3-.1.5-.2.3-.2.5-.3c.1-.1.3-.2.4-.4v-1.7zM241 20.3c.2.3.4.5.7.7.3.2.6.3 1 .2.3 0 .7-.1 1-.3.2-.2.3-.4.3-.7 0-.2-.1-.4-.3-.6-.2-.2-.4-.3-.6-.3-.3-.1-.5-.2-.8-.3-.3-.1-.6-.2-.8-.3-.2-.1-.5-.3-.6-.5-.2-.2-.3-.6-.2-.9 0-.5.2-.9.6-1.2.4-.3.9-.4 1.4-.4.2 0 .4 0 .6.1.2.1.4.1.6.2.2.1.3.2.5.3l.4.4-.6.5c-.2-.2-.4-.5-.7-.6-.3-.1-.5-.2-.8-.2-.3 0-.6.1-.8.2-.2.2-.3.4-.3.6 0 .2.1.4.3.5l.6.3c.3.1.5.2.8.3.3.1.6.2.8.3.2.1.5.3.6.5.2.3.3.6.3.9 0 .5-.2 1-.6 1.3-.2.1-.4.3-.7.3-.3.1-.5.1-.8.1-.5 0-.9-.1-1.3-.3-.4-.2-.8-.5-1-.8l.4-.3zM246.1 20.3c.2.3.4.5.7.7.3.2.6.3 1 .2.3 0 .7-.1 1-.3.2-.2.3-.4.3-.7 0-.2-.1-.4-.3-.6-.2-.2-.4-.3-.6-.3-.3-.1-.5-.2-.8-.3-.3-.1-.6-.2-.8-.3-.2-.1-.5-.3-.6-.5-.2-.2-.3-.6-.2-.9 0-.5.2-.9.6-1.2.4-.3.9-.4 1.4-.4.2 0 .4 0 .6.1.2.1.4.1.6.2.2.1.3.2.5.3l.4.4-.6.5c-.2-.2-.4-.5-.7-.6-.3-.1-.5-.2-.8-.2-.3 0-.6.1-.8.2-.2.2-.3.4-.3.6 0 .2.1.4.3.5l.6.3c.3.1.5.2.8.3.3.1.6.2.8.3.2.1.5.3.6.5.2.3.3.6.3.9 0 .5-.2 1-.6 1.3-.2.1-.4.3-.7.3-.3.1-.5.1-.8.1-.5 0-.9-.1-1.3-.3-.4-.2-.8-.5-1-.8l.4-.3zM255.5 20.5c-.1.2-.2.3-.3.5-.3.4-.6.6-1.1.8-.3.1-.6.1-.9.1-.3 0-.7-.1-1-.2-.3-.1-.6-.3-.8-.5-.3-.3-.4-.6-.6-1-.2-.4-.2-.9-.2-1.4 0-.4.1-.9.2-1.3.1-.3.3-.7.5-1 .2-.3.5-.5.8-.6.3-.1.6-.2 1-.2.3 0 .6.1.9.2.3.1.5.3.7.5.2.2.4.5.5.8.1.4.2.8.2 1.2v.6h-3.8c0 .3 0 .6.1.9.1.3.2.5.4.7.2.2.3.3.6.5.2.1.4.2.7.2.3 0 .7-.1 1-.3.3-.2.5-.4.7-.7l.4.2zm-1-2.2c0-.5-.1-.9-.4-1.3-.2-.3-.6-.5-1-.5s-.9.2-1.1.5c-.3.4-.4.8-.4 1.3h2.9zM256.9 15.9V14h.8v1.9h1.4v.7h-1.4v4.2c0 .1.1.2.2.3.2.1.3.1.5.1h.7v.7c-.1 0-.2.1-.4.1h-.6c-.3 0-.7 0-1-.2-.2-.2-.3-.5-.3-.8v-4.3h-1V16l1.1-.1zM5.6 35v-.8c-.2.3-.5.5-.8.7-.3.2-.6.3-1 .3-.2 0-.4 0-.6-.1-.2-.1-.4-.2-.5-.3-.2-.1-.3-.3-.4-.5-.1-.3-.2-.5-.1-.8v-4.3H3v4.3c0 .3.1.6.3.8.2.2.4.2.7.2.2 0 .3 0 .5-.1s.3-.1.5-.2c.1-.1.3-.2.4-.3l.3-.3v-4.4h.8V35h-.9zM8.1 33.5c.2.3.4.5.7.7.3.2.6.3 1 .2.3 0 .7-.1 1-.3.2-.2.3-.4.3-.7 0-.2-.1-.4-.3-.6-.2-.2-.4-.3-.6-.3-.3-.1-.5-.2-.8-.3-.3-.1-.6-.2-.8-.3-.2-.1-.5-.3-.6-.5-.2-.2-.3-.6-.2-.9 0-.5.2-.9.6-1.2.2-.2.7-.3 1.2-.3.2 0 .4 0 .6.1.2.1.4.1.6.2.2.1.3.2.5.3l.4.4-.6.5c-.2-.2-.4-.5-.7-.6-.3-.1-.5-.2-.8-.2-.3 0-.6.1-.8.2-.2.2-.3.4-.3.6 0 .2.1.4.3.5l.6.3c.3.1.5.2.8.3.3.1.6.2.8.3.2.1.5.3.6.5.2.3.3.6.3.9 0 .5-.2 1-.6 1.3-.2.1-.4.3-.7.3-.3.1-.5.1-.8.1-.5 0-.9-.1-1.3-.3-.4-.2-.8-.5-1-.8l.6-.4zM17.5 33.7c-.1.2-.2.3-.3.5-.3.4-.6.6-1.1.8-.3.1-.6.1-.9.1-.3 0-.7-.1-1-.2-.3-.1-.6-.3-.8-.5-.3-.3-.4-.6-.6-1-.2-.4-.2-.9-.2-1.4 0-.4.1-.9.2-1.3.1-.3.3-.7.5-1 .2-.3.5-.5.8-.6.3-.1.6-.2 1-.2.3 0 .6.1.9.2.3.1.5.3.7.5.2.2.4.5.5.8.1.4.2.8.2 1.2v.5h-3.8c0 .3 0 .6.1.9.1.3.2.5.4.7.2.2.3.3.6.5.2.1.4.2.7.2.3 0 .7-.1 1-.3.3-.2.5-.4.7-.7l.4.3zm-1-2.2c0-.5-.1-.9-.4-1.3-.2-.3-.6-.5-1-.5s-.9.2-1.1.5c-.3.4-.4.8-.4 1.3h2.9zM20 33.7V35h-1.1v-1.2H20zM25 26.8h3c.3 0 .7 0 1 .2.3.1.5.2.7.4.2.2.3.4.5.6.1.2.2.5.2.8 0 .4-.1.8-.3 1.2-.3.4-.6.6-1.1.7l.6.3c.2.1.4.3.5.5.1.2.3.4.3.6.1.2.1.5.1.7 0 .3 0 .6-.2.9-.1.3-.3.5-.5.7-.3.2-.6.4-.9.5-.4 0-.9.1-1.3.1H25v-8.2zm.9 3.5h1.6c.3 0 .6 0 .9-.1l.6-.3c.1-.1.3-.3.3-.4.1-.2.1-.3.1-.5 0-.9-.5-1.3-1.5-1.3H26v2.6zm0 3.9h1.7c.5 0 1-.1 1.5-.4.3-.3.5-.7.5-1.1 0-.5-.2-.9-.6-1.2-.5-.3-1-.5-1.6-.4h-1.6v3.1zM36.5 33.7c-.1.2-.2.3-.3.5-.3.4-.6.6-1.1.8-.3.1-.6.1-.9.1-.3 0-.7-.1-1-.2-.3-.1-.6-.3-.8-.5-.3-.3-.4-.6-.6-1-.2-.4-.2-.9-.2-1.4 0-.4.1-.9.2-1.3.1-.3.3-.7.5-1 .2-.3.5-.5.8-.6.3-.1.6-.2 1-.2.3 0 .6.1.9.2.3.1.5.3.7.5.2.2.4.5.5.8.1.4.2.8.2 1.2v.5h-3.8c0 .3 0 .6.1.9.1.3.2.5.4.7.2.2.3.3.6.5.2.1.4.2.7.2.3 0 .7-.1 1-.3.3-.2.5-.4.7-.7l.4.3zm-1-2.2c0-.5-.1-.9-.4-1.3-.2-.3-.6-.5-1-.5s-.9.2-1.1.5c-.3.4-.4.8-.4 1.3h2.9zM38.1 35v-5.2h-1v-.7h1v-.7c0-.3 0-.6.1-.9 0-.2.1-.4.3-.5.1-.1.3-.2.4-.3.2-.1.4-.1.6-.1h.8v.7c-.1 0-.2 0-.3-.1h-.3c-.2 0-.4 0-.6.2-.1.2-.2.4-.2.7v.9h1.3v.7h-1.3V35h-.8zM45.6 32c0 .4 0 .8-.2 1.2-.1.3-.2.7-.5 1-.2.3-.5.5-.8.7-.7.3-1.4.3-2.1 0-.3-.2-.6-.4-.8-.7-.2-.3-.4-.6-.5-1-.2-.8-.2-1.6 0-2.4.1-.3.2-.7.5-1 .2-.3.5-.5.8-.7.7-.3 1.4-.3 2.1 0 .3.2.6.4.8.7.2.3.4.6.5 1 .1.4.2.8.2 1.2zm-.8 0c0-.6-.1-1.2-.4-1.8-.5-.6-1.3-.8-2-.3-.1.1-.3.2-.3.3-.6 1.1-.6 2.4 0 3.5.5.6 1.3.8 2 .3.1-.1.3-.2.3-.3.2-.4.4-1 .4-1.7zM46.8 29.1h.8v1.2c.1-.2.2-.4.4-.5l.4-.4c.2-.1.3-.2.5-.2.2-.1.4-.1.6-.1v.8c-.5 0-.9.2-1.2.5-.3.4-.6.9-.7 1.4V35h-.8v-5.9zM54.9 33.7c-.1.2-.2.3-.3.5-.3.4-.6.6-1.1.8-.3.1-.6.1-.9.1-.3 0-.7-.1-1-.2-.3-.1-.6-.3-.8-.5-.3-.3-.4-.6-.6-1-.1-.4-.2-.9-.1-1.4 0-.4.1-.9.2-1.3.1-.3.3-.7.5-1 .2-.3.5-.5.8-.6.3-.1.6-.2 1-.2.3 0 .6.1.9.2.3.1.5.3.7.5.2.2.4.5.5.8.1.4.2.8.2 1.2v.5h-3.8c0 .3 0 .6.1.9.1.3.2.5.4.7.2.2.3.3.6.5.2.1.4.2.7.2.3 0 .7-.1 1-.3.3-.2.5-.4.7-.7l.3.3zm-1-2.2c0-.5-.1-.9-.4-1.3-.2-.3-.6-.5-1-.5s-.9.2-1.1.5c-.3.4-.4.8-.4 1.3h2.9zM58.9 37.2v-8.1h.8v.7l.3-.3c.1-.1.2-.2.4-.3.1-.1.3-.1.4-.2.1 0 .3-.1.4-.1.3 0 .6.1.8.1.3.1.6.3.8.5.3.3.5.6.6.9.2.5.2 1 .2 1.5s-.1 1-.2 1.4c-.1.3-.3.7-.6.9-.2.2-.5.4-.8.5-.3.1-.5.2-.8.2-.3 0-.6-.1-.8-.2-.3-.1-.5-.3-.7-.5v2.7l-.8.3zm.8-3.6c.2.2.5.4.7.6.2.1.5.2.8.2.2 0 .4 0 .7-.1.2-.1.4-.2.5-.4.2-.2.3-.5.4-.7.1-.4.1-.7.1-1.1 0-.6-.1-1.2-.4-1.7-.3-.4-.7-.6-1.2-.6-.3 0-.5.1-.7.2-.3.2-.5.4-.8.6l-.1 3zM64.9 29.1h.8v1.2c.1-.2.2-.4.4-.5l.4-.4c.2-.1.3-.2.5-.2.2-.1.4-.1.6-.1v.8c-.5 0-.9.2-1.2.5-.3.4-.6.9-.7 1.4V35h-.8v-5.9zM73 32c0 .4 0 .8-.2 1.2-.1.3-.2.7-.5 1-.2.3-.5.5-.8.7-.7.3-1.4.3-2.1 0-.3-.2-.6-.4-.8-.7-.2-.3-.4-.6-.5-1-.2-.8-.2-1.6 0-2.4.1-.3.2-.7.5-1 .2-.3.5-.5.8-.7.7-.3 1.4-.3 2.1 0 .3.2.6.4.8.7.2.3.4.6.5 1 .1.4.2.8.2 1.2zm-.8 0c0-.6-.1-1.2-.4-1.8-.5-.6-1.3-.8-2-.3-.1.1-.3.2-.3.3-.6 1.1-.6 2.4 0 3.5.5.6 1.3.8 2 .3.1-.1.3-.2.3-.3.3-.4.4-1 .4-1.7zM77.7 30.9c-.1-.3-.3-.6-.5-.9-.2-.2-.6-.3-.9-.3-.5 0-.9.2-1.2.6-.6 1.1-.6 2.4 0 3.5.3.4.7.6 1.2.6.2 0 .3 0 .5-.1.1 0 .3-.1.4-.2.1-.1.3-.2.4-.3.1-.2.2-.3.3-.5l.7.3c-.1.2-.3.4-.4.7-.1.2-.3.3-.5.5l-.6.3c-.2.1-.5.1-.8.1-.3 0-.7-.1-1-.2-.3-.1-.6-.3-.8-.6-.2-.3-.4-.6-.5-1-.2-.8-.2-1.7 0-2.6.1-.3.3-.7.5-1 .2-.3.5-.5.8-.6.3-.1.7-.2 1-.2.3 0 .5 0 .8.1l.6.3c.2.1.3.3.4.5l.3.6-.7.4zM84.2 33.7c-.1.2-.2.3-.3.5-.3.4-.6.6-1.1.8-.3.1-.6.1-.9.1-.3 0-.7-.1-1-.2-.3-.1-.6-.3-.8-.5-.3-.3-.4-.6-.6-1-.2-.4-.2-.9-.2-1.4 0-.4.1-.9.2-1.3.1-.3.3-.7.5-1 .2-.3.5-.5.8-.6.3-.1.6-.2 1-.2.3 0 .6.1.9.2.3.1.5.3.7.5.2.2.4.5.5.8.1.4.2.8.2 1.2v.5h-3.8c0 .3 0 .6.1.9.1.3.2.5.4.7.2.2.3.3.6.5.2.1.4.2.7.2.3 0 .7-.1 1-.3.3-.2.5-.4.7-.7l.4.3zm-1-2.2c0-.5-.1-.9-.4-1.3-.2-.3-.6-.5-1-.5s-.9.2-1.1.5c-.3.4-.4.8-.4 1.3h2.9zM89.8 33.7c-.1.2-.2.3-.3.5-.3.4-.6.6-1.1.8-.3.1-.6.1-.9.1-.3 0-.7-.1-1-.2-.3-.1-.6-.3-.8-.5-.3-.3-.4-.6-.6-1 0-.4-.1-.9-.1-1.4 0-.4.1-.9.2-1.3.1-.3.3-.7.5-1 .2-.3.5-.5.8-.6.3-.1.6-.2 1-.2.3 0 .6.1.9.2.3.1.5.3.7.5.2.2.4.5.5.8.1.4.2.8.2 1.2v.5H86c0 .3 0 .6.1.9.1.3.2.5.4.7.2.2.3.3.6.5.2.1.4.2.7.2.3 0 .7-.1 1-.3.3-.2.5-.4.7-.7l.3.3zm-.9-2.2c0-.5-.1-.9-.4-1.3-.2-.3-.6-.5-1-.5s-.9.2-1.1.5c-.3.4-.4.8-.4 1.3h2.9zM95.5 26.8v7.5c0 .2 0 .4.1.6h-.7l-.1-.6c-.2.2-.4.4-.6.5-.3.1-.6.2-.9.2-.3 0-.6-.1-.8-.1-.3-.1-.6-.3-.8-.5-.3-.3-.5-.6-.6-.9-.2-.5-.2-1-.2-1.5s.1-1 .2-1.4c.1-.3.3-.7.6-.9.2-.2.5-.4.8-.5 0-.2.3-.2.5-.2.3 0 .6.1.8.2.3.1.5.3.7.5v-2.9h1zm-.9 3.7c-.2-.2-.5-.4-.7-.6-.2-.1-.5-.2-.8-.2-.2 0-.5 0-.7.1-.2.1-.4.2-.5.4-.2.2-.3.5-.4.7-.1.4-.1.7-.1 1.1 0 .6.1 1.2.4 1.7.3.4.7.6 1.2.6.3 0 .5-.1.7-.2.3-.2.5-.4.8-.6v-3zM98.1 26.7v1h-.8v-1h.8zm-.9 2.4h.8V35h-.8v-5.9zM100.7 29.1v.8c.2-.3.5-.5.8-.7.3-.2.6-.3 1-.3.2 0 .4 0 .6.1.2.1.4.2.5.3.2.1.3.3.4.5.1.3.1.5.1.8V35h-.8v-4.3c0-.3-.1-.6-.3-.8-.2-.2-.4-.2-.7-.2-.2 0-.3 0-.5.1s-.3.1-.5.2c-.1.1-.3.2-.4.3l-.3.3V35h-.8v-5.9h.9zM110.4 29.7h-.5c-.1 0-.3.1-.4.1.1.1.2.3.3.5.1.2.1.5.1.7 0 .3-.1.6-.2.8-.2.5-.6.9-1.1 1.1-.3.1-.6.2-.8.2h-.6c-.1 0-.3-.1-.5-.1-.3 0-.5.3-.5.5 0 .1 0 .2.1.3.1.1.2.1.4.1.6 0 1.2 0 1.8.1.4 0 .8.1 1.1.3.3.1.5.3.6.5.1.2.2.5.2.7 0 .2-.1.4-.2.6-.1.2-.3.4-.5.5-.3.2-.5.3-.8.3-.4.1-.8.1-1.2.1-.6 0-1.3-.1-1.9-.3-.4-.2-.7-.6-.6-1.1 0-.3.1-.5.3-.7.2-.2.5-.4.7-.5-.2-.1-.4-.2-.5-.3-.1-.1-.2-.3-.2-.5s.1-.4.2-.6c.2-.2.4-.3.6-.4-.3-.2-.5-.4-.6-.7-.1-.3-.2-.6-.2-.9 0-.3.1-.6.2-.8.1-.2.3-.5.5-.7.2-.2.4-.3.7-.4.3-.1.6-.1.9-.1.3 0 .6 0 .8.1l.6.3.6-.3c.2-.1.4-.2.7-.2l-.1.8zm-.7 5.9c0-.3-.2-.6-.5-.7-.5-.2-1-.3-1.6-.2-.3 0-.5 0-.8.1-.2 0-.4.1-.5.2l-.3.3c0 .1-.1.2-.1.3 0 .1 0 .2.1.3.1.1.2.2.3.2.2.1.4.1.6.1.3 0 .7.1 1 .1.2 0 .5 0 .7-.1.2 0 .4-.1.6-.2.1-.1.3-.2.4-.3 0 .2.1.1.1-.1zm-.5-4.5c0-.4-.1-.7-.4-1-.3-.3-.7-.4-1.1-.4-.7-.1-1.4.4-1.4 1.2v.2c0 .4.1.7.4 1 .3.3.7.4 1.1.4.2 0 .4 0 .6-.1.2-.1.3-.2.4-.3.1-.1.2-.3.3-.4 0-.3.1-.4.1-.6zM113.5 29.1h.8l1.2 4.5 1.2-4.5h.8l1.2 4.6 1.1-4.6h.8L119 35h-.8l-1.2-4.6-1.2 4.6h-.8l-1.5-5.9zM122.6 26.7v1h-.8v-1h.8zm-.8 2.4h.8V35h-.8v-5.9zM124.7 29.1v-1.9h.8v1.9h1.4v.7h-1.4V34c0 .1.1.2.2.3.2.1.3.1.5.1h.7v.6c-.1 0-.2.1-.4.1h-.6c-.3 0-.7 0-1-.2-.2-.2-.3-.5-.3-.8v-4.3h-1v-.7h1.1zM128.9 26.8v3.1c.2-.3.5-.5.8-.7.3-.2.6-.3 1-.3.2 0 .4 0 .6.1.2.1.4.2.5.3.2.1.3.3.4.5.1.3.1.5.1.8V35h-.8v-4.3c0-.3-.1-.6-.3-.8-.2-.2-.4-.2-.7-.2-.2 0-.3 0-.5.1s-.3.1-.5.2c-.1.1-.3.2-.4.3l-.3.3V35h-.8v-8.2h.9zM140.8 29.1l-2.1 6.4c-.1.3-.2.6-.4.8-.1.2-.3.4-.5.5-.2.1-.4.2-.5.3-.2 0-.4.1-.6.1h-.6v-.7h.8c.2 0 .3-.1.4-.2.2-.1.3-.3.4-.4.1-.2.2-.5.3-.8l-2.1-6h.9l1.6 4.5 1.4-4.5h1zM146.1 32c0 .4 0 .8-.2 1.2-.1.3-.2.7-.5 1-.2.3-.5.5-.8.7-.7.3-1.4.3-2.1 0-.3-.2-.6-.4-.8-.7-.2-.3-.4-.6-.5-1-.2-.8-.2-1.6 0-2.4.1-.3.2-.7.5-1 .2-.3.5-.5.8-.7.7-.3 1.4-.3 2.1 0 .3.2.6.4.8.7.2.3.4.6.5 1 .1.4.2.8.2 1.2zm-.8 0c0-.6-.1-1.2-.4-1.8-.5-.6-1.3-.8-2-.3-.1.1-.3.2-.3.3-.6 1.1-.6 2.4 0 3.5.5.6 1.3.8 2 .3.1-.1.3-.2.3-.3.3-.4.4-1 .4-1.7zM150.8 35v-.8c-.2.3-.5.5-.8.7-.3.2-.6.3-1 .3-.2 0-.4 0-.6-.1-.2-.1-.4-.2-.5-.3-.2-.1-.3-.3-.4-.5-.1-.3-.2-.5-.1-.8v-4.3h.8v4.3c0 .3.1.6.3.8.2.2.4.2.7.2.2 0 .3 0 .5-.1s.3-.1.5-.2c.1-.1.3-.2.4-.3l.3-.3v-4.4h.8V35h-.9zM153.2 29.1h.8v1.2c.1-.2.2-.4.4-.5l.4-.4c.2-.1.3-.2.5-.2.2-.1.4-.1.6-.1v.8c-.5 0-.9.2-1.2.5-.3.4-.6.9-.7 1.4V35h-.8v-5.9zM159.8 37.2v-8.1h.8v.7l.3-.3c.1-.1.2-.2.4-.3.1-.1.3-.1.4-.2.1 0 .3-.1.4-.1.3 0 .6.1.8.1.3.1.6.3.8.5.3.3.5.6.6.9.2.5.2 1 .2 1.5s-.1 1-.2 1.4c-.1.3-.3.7-.6.9-.2.2-.5.4-.8.5-.3.1-.5.2-.8.2-.3 0-.6-.1-.8-.2-.3-.1-.5-.3-.7-.5v2.7l-.8.3zm.8-3.6c.2.2.5.4.7.6.2.1.5.2.8.2.2 0 .4 0 .7-.1.2-.1.4-.2.5-.4.2-.2.3-.5.4-.7.1-.4.1-.7.1-1.1 0-.6-.1-1.2-.4-1.7-.3-.4-.7-.6-1.2-.6-.3 0-.5.1-.7.2-.3.2-.5.4-.8.6l-.1 3zM169.4 35v-.8c-.2.3-.5.5-.8.7-.3.2-.6.3-1 .3-.2 0-.4 0-.6-.1-.2-.1-.4-.2-.5-.3-.2-.1-.3-.3-.4-.5-.1-.3-.2-.5-.1-.8v-4.3h.8v4.3c0 .3.1.6.3.8.2.2.4.2.7.2.2 0 .3 0 .5-.1s.3-.1.5-.2c.1-.1.3-.2.4-.3l.3-.3v-4.4h.8V35h-.9zM171.8 29.1h.8v1.2c.1-.2.2-.4.4-.5l.4-.4c.2-.1.3-.2.5-.2.2-.1.4-.1.6-.1v.8c-.5 0-.9.2-1.2.5-.3.4-.6.9-.7 1.4V35h-.8v-5.9zM178.9 30.9c-.1-.3-.3-.6-.5-.9-.2-.2-.6-.3-.9-.3-.5 0-.9.2-1.2.6-.6 1.1-.6 2.4 0 3.5.3.4.7.6 1.2.6.2 0 .3 0 .5-.1.1 0 .3-.1.4-.2.1-.1.3-.2.4-.3.1-.2.2-.3.3-.5l.7.3c-.1.2-.3.4-.4.7-.1.2-.3.3-.5.5l-.6.3c-.2.1-.5.1-.8.1-.3 0-.7-.1-1-.2-.3-.1-.6-.3-.8-.6-.2-.3-.4-.6-.5-1-.2-.8-.2-1.7 0-2.6.1-.3.3-.7.5-1 .2-.3.5-.5.8-.6.3-.1.7-.2 1-.2.3 0 .5 0 .8.1l.6.3c.2.1.3.3.4.5l.3.6-.7.4zM181.8 26.8v3.1c.2-.3.5-.5.8-.7.3-.2.6-.3 1-.3.2 0 .4 0 .6.1.2.1.4.2.5.3.2.1.3.3.4.5.1.3.1.5.1.8V35h-.8v-4.3c0-.3-.1-.6-.3-.8-.2-.2-.4-.2-.7-.2-.2 0-.3 0-.5.1s-.3.1-.5.2c-.1.1-.3.2-.4.3l-.3.3V35h-.7v-8.2h.8zM186.7 30.2c.2-.4.5-.7.8-.9.4-.3.9-.4 1.4-.4.2 0 .5 0 .7.1.2.1.5.2.7.3.2.1.4.3.5.5.1.3.2.5.2.8v3.8c0 .2.1.3.1.5h-.8l-.1-.8c-.2.2-.5.5-.8.6-.4.2-.8.3-1.2.3-.2 0-.4 0-.6-.1-.2-.1-.4-.2-.5-.3-.2-.1-.3-.3-.4-.5-.1-.2-.1-.5-.1-.7 0-.6.3-1.2.8-1.5.3-.2.7-.4 1.1-.5.5-.2 1.1-.3 1.7-.4v-.3c0-.3-.1-.6-.3-.8-.3-.2-.6-.3-.9-.2-.2 0-.4 0-.6.1-.2 0-.3.1-.4.2l-.3.3c-.1.1-.1.2-.2.3l-.8-.4zm3.5 1.6c-1.9.3-2.8.9-2.8 1.7 0 .1 0 .3.1.4.1.1.1.2.2.3.1.1.2.1.3.2.1 0 .2.1.3.1.2 0 .3 0 .5-.1s.3-.1.5-.2.3-.2.5-.3c.1-.1.3-.2.4-.4v-1.7zM192.6 33.5c.2.3.4.5.7.7.3.2.6.3 1 .2.3 0 .7-.1 1-.3.2-.2.3-.4.3-.7 0-.2-.1-.4-.3-.6-.2-.2-.4-.3-.6-.3-.3-.1-.5-.2-.8-.3-.3-.1-.6-.2-.8-.3-.2-.1-.5-.3-.6-.5-.2-.2-.3-.6-.2-.9 0-.5.2-.9.6-1.2.4-.3.9-.4 1.4-.4.2 0 .4 0 .6.1.2.1.4.1.6.2.2.1.3.2.5.3l.4.4-.6.5c-.2-.2-.4-.5-.7-.6-.3-.1-.5-.2-.8-.2-.3 0-.6.1-.8.2-.2.2-.3.4-.3.6 0 .2.1.4.3.5l.6.3c.3.1.5.2.8.3.3.1.6.2.8.3.2.1.5.3.6.5.2.3.3.6.3.9 0 .5-.2 1-.6 1.3-.2.1-.4.3-.7.3-.3.1-.5.1-.8.1-.5 0-.9-.1-1.3-.3-.4-.2-.8-.5-1-.8l.4-.3zM202 33.7c-.1.2-.2.3-.3.5-.3.4-.6.6-1.1.8-.3.1-.6.1-.9.1-.3 0-.7-.1-1-.2-.3-.1-.6-.3-.8-.5-.3-.3-.4-.6-.6-1-.2-.4-.2-.9-.2-1.4 0-.4.1-.9.2-1.3.1-.3.3-.7.5-1 .2-.3.5-.5.8-.6.3-.1.6-.2 1-.2.3 0 .6.1.9.2.3.1.5.3.7.5.2.2.4.5.5.8.1.4.2.8.2 1.2v.5H198c0 .3 0 .6.1.9.1.3.2.5.4.7.2.2.3.3.6.5.2.1.4.2.7.2.3 0 .7-.1 1-.3.3-.2.5-.4.7-.7l.5.3zm-1-2.2c0-.5-.1-.9-.4-1.3-.2-.3-.6-.5-1-.5s-.9.2-1.1.5c-.3.4-.4.8-.4 1.3h2.9zM204.5 35l-.7 1.7h-.5l.5-1.7h-.5v-1.2h1.1V35zM213.1 29.1l-2.1 6.4c-.1.3-.2.6-.4.8-.1.2-.3.4-.5.5-.2.1-.4.2-.5.3-.2 0-.4.1-.6.1h-.6v-.7h.8c.2 0 .3-.1.4-.2.2-.1.3-.3.4-.4.1-.2.2-.5.3-.8l-2.1-6h.9l1.6 4.5 1.4-4.5h1zM218.4 32c0 .4 0 .8-.2 1.2-.1.3-.2.7-.5 1-.2.3-.5.5-.8.7-.7.3-1.4.3-2.1 0-.3-.2-.6-.4-.8-.7-.2-.3-.4-.6-.5-1-.2-.8-.2-1.6 0-2.4.1-.3.2-.7.5-1 .2-.3.5-.5.8-.7.7-.3 1.4-.3 2.1 0 .3.2.6.4.8.7.2.3.4.6.5 1 .2.4.2.8.2 1.2zm-.8 0c0-.6-.1-1.2-.4-1.8-.5-.6-1.3-.8-2-.3-.1.1-.3.2-.3.3-.6 1.1-.6 2.4 0 3.5.5.6 1.3.8 2 .3.1-.1.3-.2.3-.3.3-.4.4-1 .4-1.7zM223.2 35v-.8c-.2.3-.5.5-.8.7-.3.2-.6.3-1 .3-.2 0-.4 0-.6-.1-.2-.1-.4-.2-.5-.3-.2-.1-.3-.3-.4-.5-.1-.3-.2-.5-.1-.8v-4.3h.8v4.3c0 .3.1.6.3.8.2.2.4.2.7.2.2 0 .3 0 .5-.1s.3-.1.5-.2c.1-.1.3-.2.4-.3l.3-.3v-4.4h.8V35h-.9zM228.5 33.5c.2.3.4.5.7.7.3.2.6.3 1 .2.3 0 .7-.1 1-.3.2-.2.3-.4.3-.7 0-.2-.1-.4-.3-.6-.2-.2-.4-.3-.6-.3-.3-.1-.5-.2-.8-.3-.3-.1-.6-.2-.8-.3-.2-.1-.5-.3-.6-.5-.2-.2-.3-.6-.2-.9 0-.5.2-.9.6-1.2.4-.3.9-.4 1.4-.4.2 0 .4 0 .6.1.2.1.4.1.6.2.2.1.3.2.5.3l.4.4-.6.5c-.2-.2-.4-.5-.7-.6-.3-.1-.5-.2-.8-.2-.3 0-.6.1-.8.2-.2.2-.3.4-.3.6 0 .2.1.4.3.5l.6.3c.3.1.5.2.8.3.3.1.6.2.8.3.2.1.5.3.6.5.2.3.3.6.3.9 0 .5-.2 1-.6 1.3-.2.1-.4.3-.7.3-.3.1-.5.1-.8.1-.5 0-.9-.1-1.3-.3-.4-.2-.8-.5-1-.8l.4-.3zM234.3 26.8v3.1c.2-.3.5-.5.8-.7.3-.2.6-.3 1-.3.2 0 .4 0 .6.1.2.1.4.2.5.3.2.1.3.3.4.5.1.3.1.5.1.8V35h-.8v-4.3c0-.3-.1-.6-.3-.8-.2-.2-.4-.2-.7-.2-.2 0-.3 0-.5.1s-.3.1-.5.2c-.1.1-.3.2-.4.3l-.3.3V35h-.8v-8.2h.9zM243.9 32c0 .4 0 .8-.2 1.2-.1.3-.2.7-.5 1-.2.3-.5.5-.8.7-.7.3-1.4.3-2.1 0-.3-.2-.6-.4-.8-.7-.2-.3-.4-.6-.5-1-.2-.8-.2-1.6 0-2.4.1-.3.2-.7.5-1 .2-.3.5-.5.8-.7.7-.3 1.4-.3 2.1 0 .3.2.6.4.8.7.2.3.4.6.5 1 .1.4.2.8.2 1.2zm-.8 0c0-.6-.1-1.2-.4-1.8-.5-.6-1.3-.8-2-.3-.1.1-.3.2-.3.3-.6 1.1-.6 2.4 0 3.5.5.6 1.3.8 2 .3.1-.1.3-.2.3-.3.2-.4.4-1 .4-1.7zM248.6 35v-.8c-.2.3-.5.5-.8.7-.3.2-.6.3-1 .3-.2 0-.4 0-.6-.1-.2-.1-.4-.2-.5-.3-.2-.1-.3-.3-.4-.5-.1-.3-.2-.5-.1-.8v-4.3h.8v4.3c0 .3.1.6.3.8.2.2.4.2.7.2.2 0 .3 0 .5-.1s.3-.1.5-.2c.1-.1.3-.2.4-.3l.3-.3v-4.4h.8V35h-.9zM252 26.8V35h-.8v-8.2h.8zM258.3 26.8v7.5c0 .2 0 .4.1.6h-.7l-.1-.6c-.2.2-.4.4-.6.5-.3.1-.6.2-.9.2-.3 0-.6-.1-.8-.1-.3-.1-.6-.3-.8-.5-.3-.3-.5-.6-.6-.9-.2-.5-.2-1-.2-1.5s.1-1 .2-1.4c.1-.3.3-.7.6-.9.2-.2.5-.4.8-.5.3-.1.5-.2.8-.2.3 0 .6.1.8.2.3.1.5.3.7.5v-2.9h.7zm-.9 3.7c-.2-.2-.5-.4-.7-.6-.2-.1-.5-.2-.8-.2-.2 0-.5 0-.7.1-.2.1-.4.2-.5.4-.2.2-.3.5-.4.7-.1.4-.1.7-.1 1.1 0 .6.1 1.2.4 1.7.3.4.7.6 1.2.6.3 0 .5-.1.7-.2.3-.2.5-.4.8-.6v-3zM2.2 46.7c.2.3.4.5.7.7.3.2.6.3 1 .2.3 0 .7-.1 1-.3.2-.2.3-.4.3-.7 0-.2-.1-.4-.3-.6-.2-.2-.4-.3-.6-.3-.3-.1-.5-.2-.8-.3-.3-.1-.6-.2-.8-.3-.2-.1-.5-.3-.6-.5-.2-.2-.3-.6-.2-.9 0-.5.2-.9.6-1.2.4-.3.9-.4 1.4-.4.2 0 .4 0 .6.1.2.1.4.1.6.2.2.1.3.2.5.3l.4.4-.6.5c-.2-.2-.4-.5-.7-.6-.3-.1-.5-.2-.8-.2-.3 0-.6.1-.8.2-.2.2-.3.4-.3.6 0 .2.1.4.3.5l.6.3c.3.1.5.2.8.3.3.1.6.2.8.3.2.1.5.3.6.5 0 .5.1.8.1 1.1 0 .5-.2 1-.6 1.3-.2.1-.4.3-.7.3-.3.1-.5.1-.8.1-.5 0-.9-.1-1.3-.3-.4-.2-.8-.5-1-.8l.6-.5zM11.6 47c-.1.2-.2.3-.3.5-.3.4-.6.6-1.1.8-.3.1-.6.1-.9.1-.3 0-.7-.1-1-.2-.3-.2-.5-.4-.8-.6-.3-.3-.4-.6-.6-1-.2-.4-.2-.9-.2-1.4 0-.4.1-.9.2-1.3.1-.3.3-.7.5-1 .2-.3.5-.5.8-.6.3-.1.6-.2 1-.2.3 0 .6.1.9.2.3.1.5.3.7.5.2.2.4.5.5.8.1.4.2.8.2 1.2v.5H7.6c0 .3 0 .6.1.9.1.3.2.5.4.7.2.2.3.3.6.5.2.1.4.2.7.2.3 0 .7-.1 1-.3.3-.2.5-.4.7-.7l.5.4zm-1-2.3c0-.5-.1-.9-.4-1.3-.2-.3-.6-.5-1-.5s-.9.2-1.1.5c-.3.4-.4.8-.4 1.3h2.9zM17.2 47c-.1.2-.2.3-.3.5-.3.4-.6.6-1.1.8-.3.1-.6.1-.9.1-.3 0-.7-.1-1-.2-.3-.1-.6-.3-.8-.5-.3-.3-.4-.6-.6-1-.2-.4-.2-.9-.2-1.4 0-.4.1-.9.2-1.3.1-.3.3-.7.5-1 .2-.3.5-.5.8-.6.3-.1.6-.2 1-.2.3 0 .6.1.9.2.3.1.5.3.7.5.2.2.4.5.5.8.1.4.2.8.2 1.2v.5h-3.8c0 .3 0 .6.1.9.1.3.2.5.4.7.2.2.3.3.6.5.2.1.4.2.7.2.3 0 .7-.1 1-.3.3-.2.5-.4.7-.7l.4.3zm-1-2.3c0-.5-.1-.9-.4-1.3-.2-.3-.6-.5-1-.5s-.9.2-1.1.5c-.3.4-.4.8-.4 1.3h2.9zM18.4 40h.8v5.3l2.4-3h1l-1.7 2.2 2 3.7h-1l-1.6-3-1.1 1.2v1.8h-.8V40zM27.3 46.7c.2.3.4.5.7.7.3.2.6.3 1 .2.3 0 .7-.1 1-.3.2-.2.3-.4.3-.7 0-.2-.1-.4-.3-.6-.2-.2-.4-.3-.6-.3-.3-.1-.5-.2-.8-.3-.3-.1-.6-.2-.8-.3-.2-.1-.5-.3-.6-.5-.2-.2-.3-.6-.2-.9 0-.5.2-.9.6-1.2.4-.3.9-.4 1.4-.4.2 0 .4 0 .6.1.2.1.4.1.6.2.2.1.3.2.5.3l.4.4-.6.5c-.2-.2-.4-.5-.7-.6-.3-.1-.5-.2-.8-.2-.3 0-.6.1-.8.2-.2.2-.3.4-.3.6 0 .2.1.4.3.5l.6.3c.3.1.5.2.8.3.3.1.6.2.8.3.2.1.5.3.6.5.2.3.3.6.3.9 0 .5-.2 1-.6 1.3-.2.1-.4.3-.7.3-.3.1-.5.1-.8.1-.5 0-.9-.1-1.3-.3-.4-.2-.8-.5-1-.8l.4-.3zM32.2 50.4v-8.1h.8v.7l.3-.3c.1-.1.2-.2.4-.3.1-.1.3-.1.4-.2.1 0 .3-.1.4-.1.3 0 .6.1.8.1.3.1.6.3.8.5.3.3.5.6.6.9.2.5.2 1 .2 1.5s-.1 1-.2 1.4c-.1.3-.3.7-.6.9-.2.2-.5.4-.8.5-.3.1-.5.2-.8.2-.3 0-.6-.1-.8-.2-.3-.1-.5-.3-.7-.5v2.7l-.8.3zm.9-3.6c.2.2.5.4.7.6.2.1.5.2.8.2.2 0 .4 0 .7-.1.2-.1.4-.2.5-.4.2-.2.3-.5.4-.7.1-.4.1-.7.1-1.1 0-.6-.1-1.2-.4-1.7-.3-.4-.7-.6-1.2-.6-.3 0-.5.1-.7.2-.3.2-.5.4-.8.6l-.1 3zM42.8 47c-.1.2-.2.3-.3.5-.3.4-.6.6-1.1.8-.3.1-.6.1-.9.1-.3 0-.7-.1-1-.2-.3-.1-.6-.3-.8-.5-.3-.3-.4-.6-.6-1-.2-.4-.2-.9-.2-1.4 0-.4.1-.9.2-1.3.1-.3.3-.7.5-1 .2-.3.5-.5.8-.6.3-.1.6-.2 1-.2.3 0 .6.1.9.2.3.1.5.3.7.5.2.2.4.5.5.8.1.4.2.8.2 1.2v.5h-3.8c0 .3 0 .6.1.9.1.3.2.5.4.7.2.2.3.3.6.5.2.1.4.2.7.2.3 0 .7-.1 1-.3.3-.2.5-.4.7-.7l.4.3zm-1-2.3c0-.5-.1-.9-.4-1.3-.2-.3-.6-.5-1-.5s-.9.2-1.1.5c-.3.4-.4.8-.4 1.3h2.9zM47.4 44.1c-.1-.3-.3-.6-.5-.9-.2-.2-.6-.3-.9-.3-.5 0-.9.2-1.2.6-.6 1.1-.6 2.4 0 3.5.3.4.7.6 1.2.6.2 0 .3 0 .5-.1.1 0 .3-.1.4-.2.1-.1.3-.2.4-.3.1-.2.2-.3.3-.5l.7.3c-.1.2-.3.4-.4.7-.1.2-.3.3-.5.5l-.6.3c-.2.1-.5.1-.8.1-.3 0-.7-.1-1-.2-.3-.1-.6-.3-.8-.6-.2-.3-.4-.6-.5-1-.2-.8-.2-1.7 0-2.6.1-.3.3-.7.5-1 .2-.3.5-.5.8-.6.3-.1.7-.2 1-.2.3 0 .5 0 .8.1l.6.3c.2.1.3.3.4.5l.3.6-.7.4zM50.4 39.9v1h-.8v-1h.8zm-.8 2.4h.8v5.9h-.8v-5.9zM51.9 43.5c.2-.4.5-.7.8-.9.4-.3.9-.4 1.4-.4.2 0 .5 0 .7.1.2.1.5.2.7.3.2.1.4.3.5.5.1.3.2.5.2.8v3.8c0 .2.1.3.1.5h-.8l-.1-.8c-.2.2-.5.5-.8.6-.4.2-.8.3-1.2.3-.2 0-.4 0-.6-.1-.2-.1-.4-.2-.5-.3-.2-.1-.3-.3-.4-.5-.1-.2-.1-.5-.1-.7 0-.6.3-1.2.8-1.5.3-.2.7-.4 1.1-.5.5-.2 1.1-.3 1.7-.4V44c0-.3-.1-.6-.3-.8-.3-.2-.6-.3-.9-.2-.2 0-.4 0-.6.1-.2 0-.3.1-.4.2l-.3.3c-.1.1-.1.2-.2.3l-.8-.4zm3.4 1.5c-1.9.3-2.8.9-2.8 1.7 0 .1 0 .3.1.4.1.1.1.2.2.3.1.1.2.1.3.2.1 0 .2.1.3.1.2 0 .3 0 .5-.1s.3-.1.5-.2.3-.2.5-.3c.1-.1.3-.2.4-.4V45zM58.6 40v8.2h-.8V40h.8zM61.3 39.9v1h-.8v-1h.8zm-.8 2.4h.8v5.9h-.8v-5.9zM63.2 46.7c.2.3.4.5.7.7.3.2.6.3 1 .2.3 0 .7-.1 1-.3.2-.2.3-.4.3-.7 0-.2-.1-.4-.3-.6-.2-.2-.4-.3-.6-.3-.3-.1-.5-.2-.8-.3-.3-.1-.6-.2-.8-.3-.2-.1-.5-.3-.6-.5-.2-.2-.3-.6-.2-.9 0-.5.2-.9.6-1.2.4-.3.9-.4 1.4-.4.2 0 .4 0 .6.1.2.1.4.1.6.2.2.1.3.2.5.3l.4.4-.6.5c-.2-.2-.4-.5-.7-.6-.3-.1-.5-.2-.8-.2-.3 0-.6.1-.8.2-.2.2-.3.4-.3.6 0 .2.1.4.3.5l.6.3c.3.1.5.2.8.3.3.1.6.2.8.3.2.1.5.3.6.5.2.3.3.6.3.9 0 .5-.2 1-.6 1.3-.2.1-.4.3-.7.3-.3.1-.5.1-.8.1-.5 0-.9-.1-1.3-.3-.4-.2-.8-.5-1-.8l.4-.3zM68.5 42.3v-1.9h.8v1.9h1.4v.7h-1.4v4.2c0 .1.1.2.2.3.2.1.3.1.5.1h.7v.7c-.1 0-.2.1-.4.1h-.6c-.3 0-.7 0-1-.2-.2-.2-.3-.5-.3-.8V43h-1v-.7h1.1zM75.6 42.3v-1.9h.8v1.9h1.4v.7h-1.4v4.2c0 .1.1.2.2.3.2.1.3.1.5.1h.7v.7c-.1 0-.2.1-.4.1h-.6c-.3 0-.7 0-1-.2-.2-.2-.3-.5-.3-.8V43h-1v-.7h1.1zM78.8 43.5c.2-.4.5-.7.8-.9.4-.3.9-.4 1.4-.4.2 0 .5 0 .7.1.2.1.5.2.7.3.2.1.4.3.5.5.1.3.1.6.1.9v3.8c0 .2.1.3.1.5h-.8l-.1-.8c-.2.2-.5.5-.8.6-.4.2-.8.3-1.2.3-.2 0-.4 0-.6-.1-.2-.1-.4-.2-.5-.3-.2-.1-.3-.3-.4-.5-.1-.2-.1-.5-.1-.7 0-.6.3-1.2.8-1.5.3-.2.7-.4 1.1-.5.5-.2 1.1-.3 1.7-.4V44c0-.3-.1-.6-.3-.8-.3-.2-.6-.3-.9-.2-.2 0-.4 0-.6.1-.2 0-.3.1-.4.2l-.3.3c-.1.1-.1.2-.2.3l-.7-.4zm3.4 1.5c-1.9.3-2.8.9-2.8 1.7 0 .1 0 .3.1.4.1.1.1.2.2.3.1.1.2.1.3.2.1 0 .2.1.3.1.2 0 .3 0 .5-.1s.3-.1.5-.2.3-.2.5-.3c.1-.1.3-.2.4-.4V45zM86.3 44.4l1.2-2.1h.9l-1.7 2.8 1.9 3.1h-.9l-1.5-2.4-1.4 2.4H84l1.9-3.1-1.7-2.8h.8l1.3 2.1zM92.8 43.5c.2-.4.5-.7.8-.9.4-.3.9-.4 1.4-.4.2 0 .5 0 .7.1.2.1.5.2.7.3.2.1.4.3.5.5.1.3.1.6.1.9v3.8c0 .2.1.3.1.5h-.8l-.1-.8c-.2.2-.5.5-.8.6-.4.2-.8.3-1.2.3-.2 0-.4 0-.6-.1-.2-.1-.4-.2-.5-.3-.2-.1-.3-.3-.4-.5-.1-.2-.1-.5-.1-.7 0-.6.3-1.2.8-1.5.3-.2.7-.4 1.1-.5.5-.2 1.1-.3 1.7-.4V44c0-.3-.1-.6-.3-.8-.3-.2-.6-.3-.9-.2-.2 0-.4 0-.6.1-.2 0-.3.1-.4.2l-.3.3c-.1.1-.1.2-.2.3l-.7-.4zm3.4 1.5c-1.9.3-2.8.9-2.8 1.7 0 .1 0 .3.1.4.1.1.1.2.2.3.1.1.2.1.3.2.1 0 .2.1.3.1.2 0 .3 0 .5-.1s.3-.1.5-.2.3-.2.5-.3c.1-.1.3-.2.4-.4V45zM99.4 42.3v.8c.2-.3.5-.5.8-.7.3-.2.6-.3 1-.3.2 0 .4 0 .6.1.2.1.4.2.5.3.2.1.3.3.4.5.1.3.1.5.1.8v4.3h-.8V44c0-.3-.1-.6-.3-.8-.2-.2-.4-.2-.7-.2-.2 0-.3 0-.5.1s-.3.1-.5.2c-.1.1-.3.2-.4.3l-.3.3v4.4h-.8v-5.9h.9zM109 40v7.5c0 .2 0 .4.1.6h-.7l-.1-.6c-.2.2-.4.4-.6.5-.3.1-.6.2-.9.2-.3 0-.6-.1-.8-.1-.3-.1-.6-.3-.8-.5-.3-.3-.5-.6-.6-.9-.2-.5-.2-1-.2-1.5s.1-1 .2-1.4c.1-.3.3-.7.6-.9.2-.2.5-.4.8-.5.3-.1.5-.2.8-.2.3 0 .6.1.8.2.3.1.5.3.7.5V40h.7zm-.8 3.7c-.2-.2-.5-.4-.7-.6-.2-.1-.5-.2-.8-.2-.2 0-.5 0-.7.1-.2.1-.4.2-.5.4-.2.2-.3.5-.4.7-.1.4-.1.7-.1 1.1 0 .6.1 1.2.4 1.7.3.4.7.6 1.2.6.3 0 .5-.1.7-.2.3-.2.5-.4.8-.6v-3zM114 43.5c.2-.4.5-.7.8-.9.4-.3.9-.4 1.4-.4.2 0 .5 0 .7.1.2.1.5.2.7.3.2.1.4.3.5.5.1.3.2.5.2.8v3.8c0 .2.1.3.1.5h-.8l-.1-.8c-.2.2-.5.5-.8.6-.4.2-.8.3-1.2.3-.2 0-.4 0-.6-.1-.2-.1-.4-.2-.5-.3-.2-.1-.3-.3-.4-.5-.1-.2-.1-.5-.1-.7 0-.6.3-1.2.8-1.5.3-.2.7-.4 1.1-.5.5-.2 1.1-.3 1.7-.4V44c0-.3-.1-.6-.3-.8-.3-.2-.6-.3-.9-.2-.2 0-.4 0-.6.1-.2 0-.3.1-.4.2l-.3.3c-.1.1-.1.2-.2.3l-.8-.4zm3.4 1.5c-1.9.3-2.8.9-2.8 1.7 0 .1 0 .3.1.4.1.1.1.2.2.3.1.1.2.1.3.2.1 0 .2.1.3.1.2 0 .3 0 .5-.1s.3-.1.5-.2.3-.2.5-.3c.1-.1.3-.2.4-.4V45zM123.2 44.1c-.1-.3-.3-.6-.5-.9-.2-.2-.6-.3-.9-.3-.5 0-.9.2-1.2.6-.6 1.1-.6 2.4 0 3.5.3.4.7.6 1.2.6.2 0 .3 0 .5-.1.1 0 .3-.1.4-.2.1-.1.3-.2.4-.3.1-.2.2-.3.3-.5l.7.3c-.1.2-.3.4-.4.7-.1.2-.3.3-.5.5l-.6.3c-.2.1-.5.1-.8.1-.3 0-.7-.1-1-.2-.3-.1-.6-.3-.8-.6-.2-.3-.4-.6-.5-1-.2-.8-.2-1.7 0-2.6.1-.3.3-.7.5-1 .2-.3.5-.5.8-.6.3-.1.7-.2 1-.2.3 0 .5 0 .8.1l.6.3c.2.1.3.3.4.5l.3.6-.7.4zM128.7 44.1c-.1-.3-.3-.6-.5-.9-.2-.2-.6-.3-.9-.3-.5 0-.9.2-1.2.6-.6 1.1-.6 2.4 0 3.5.3.4.7.6 1.2.6.2 0 .3 0 .5-.1.1 0 .3-.1.4-.2.1-.1.3-.2.4-.3.1-.2.2-.3.3-.5l.7.3c-.1.2-.3.4-.4.7-.1.2-.3.3-.5.5l-.6.3c-.2.1-.5.1-.8.1-.3 0-.7-.1-1-.2-.3-.1-.6-.3-.8-.6-.2-.3-.4-.6-.5-1-.2-.8-.2-1.7 0-2.6.1-.3.3-.7.5-1 .2-.3.5-.5.8-.6.3-.1.7-.2 1-.2.3 0 .5 0 .8.1l.6.3c.2.1.3.3.4.5l.3.6-.7.4zM135.2 45.3c0 .4 0 .8-.2 1.2-.1.3-.2.7-.5 1-.2.3-.5.5-.8.7-.7.3-1.4.3-2.1 0-.3-.2-.6-.4-.8-.7-.2-.3-.4-.6-.5-1-.2-.8-.2-1.6 0-2.4.1-.3.2-.7.5-1 .2-.3.5-.5.8-.7.7-.3 1.4-.3 2.1 0 .3.2.6.4.8.7.2.3.4.6.5 1 .2.4.2.8.2 1.2zm-.8 0c0-.6-.1-1.2-.4-1.8-.5-.6-1.3-.8-2-.3-.1.1-.3.2-.3.3-.6 1.1-.6 2.4 0 3.5.5.6 1.3.8 2 .3.1-.1.3-.2.3-.3.3-.5.5-1.1.4-1.7zM140 48.2v-.8c-.2.3-.5.5-.8.7-.3.2-.6.3-1 .3-.2 0-.4 0-.6-.1-.2-.1-.4-.2-.5-.3-.2-.1-.3-.3-.4-.5-.1-.3-.2-.5-.1-.8v-4.3h.8v4.3c0 .3.1.6.3.8.2.2.4.2.7.2.2 0 .3 0 .5-.1s.3-.1.5-.2c.1-.1.3-.2.4-.3l.3-.3v-4.4h.8v5.9h-.9zM143.3 42.3v.8c.2-.3.5-.5.8-.7.3-.2.6-.3 1-.3.2 0 .4 0 .6.1.2.1.4.2.5.3.2.1.3.3.4.5.1.3.1.5.1.8v4.3h-.7V44c0-.3-.1-.6-.3-.8-.2-.2-.4-.2-.7-.2-.2 0-.3 0-.5.1s-.3.1-.5.2c-.1.1-.3.2-.4.3l-.3.3v4.4h-.8v-5.9h.8zM148.8 42.3v-1.9h.8v1.9h1.4v.7h-1.4v4.2c0 .1.1.2.2.3.2.1.3.1.5.1h.7v.7c-.1 0-.2.1-.4.1h-.6c-.3 0-.7 0-1-.2-.2-.2-.3-.5-.3-.8V43h-1v-.7h1.1zM153 39.9v1h-.8v-1h.8zm-.8 2.4h.8v5.9h-.8v-5.9zM155.6 42.3v.8c.2-.3.5-.5.8-.7.3-.2.6-.3 1-.3.2 0 .4 0 .6.1.2.1.4.2.5.3.2.1.3.3.4.5.1.3.1.5.1.8v4.3h-.8V44c0-.3-.1-.6-.3-.8-.2-.2-.4-.2-.7-.2-.2 0-.3 0-.5.1s-.3.1-.5.2c-.1.1-.3.2-.4.3l-.3.3v4.4h-.8v-5.9h.9zM165.4 42.9h-.5c-.1 0-.3.1-.4.1.1.1.2.3.3.5.1.2.1.5.1.7 0 .3-.1.6-.2.8-.2.5-.6.9-1.1 1.1-.3.1-.6.2-.8.2h-.6c-.1 0-.3-.1-.5-.1-.3 0-.5.3-.5.5 0 .1 0 .2.1.3.1.1.2.1.4.1.6 0 1.2 0 1.8.1.4 0 .8.1 1.1.3.3.1.5.3.6.5.1.2.2.5.2.7 0 .2-.1.4-.2.6-.1.2-.3.4-.5.5-.3.2-.5.3-.8.3-.4.1-.8.1-1.2.1-.6 0-1.3-.1-1.9-.3-.4-.2-.7-.6-.6-1.1 0-.3.1-.5.3-.7.2-.2.5-.4.7-.5-.2-.1-.4-.2-.5-.3-.1-.1-.2-.3-.2-.5s.1-.4.2-.6c.2-.2.4-.3.6-.4-.3-.2-.5-.4-.6-.7-.1-.3-.2-.6-.2-.9 0-.3.1-.6.2-.8.1-.2.3-.5.5-.7.2-.2.4-.3.7-.4.3-.1.6-.1.9-.1.3 0 .6 0 .8.1l.6.3.6-.3c.2-.1.4-.2.7-.2l-.1.8zm-.8 5.9c0-.3-.2-.6-.5-.7-.5-.2-1-.3-1.6-.2-.3 0-.5 0-.8.1-.2 0-.4.1-.5.2l-.3.3c0 .1-.1.2-.1.3 0 .1 0 .2.1.3.1.1.2.2.3.2.2.1.4.1.6.1.3 0 .7.1 1 .1.2 0 .5 0 .7-.1.2 0 .4-.1.6-.2.1-.1.3-.2.4-.3.1.2.1.1.1-.1zm-.5-4.5c0-.4-.1-.7-.4-1-.3-.3-.7-.4-1.1-.4-.7-.1-1.4.4-1.4 1.2v.2c0 .4.1.7.4 1 .3.3.7.4 1.1.4.2 0 .4 0 .6-.1.2-.1.3-.2.4-.3.1-.1.2-.3.3-.4.1-.2.1-.4.1-.6zM169.5 43.5c.2-.4.5-.7.8-.9.4-.3.9-.4 1.4-.4.2 0 .5 0 .7.1.2.1.5.2.7.3.2.1.4.3.5.5.1.3.2.5.2.8v3.8c0 .2.1.3.1.5h-.8l-.1-.8c-.2.2-.5.5-.8.6-.4.2-.8.3-1.2.3-.2 0-.4 0-.6-.1-.2-.1-.4-.2-.5-.3-.2-.1-.3-.3-.4-.5-.1-.2-.1-.5-.1-.7 0-.6.3-1.2.8-1.5.3-.2.7-.4 1.1-.5.5-.2 1.1-.3 1.7-.4V44c0-.3-.1-.6-.3-.8-.3-.2-.6-.3-.9-.2-.2 0-.4 0-.6.1-.2 0-.3.1-.4.2l-.3.3c-.1.1-.1.2-.2.3l-.8-.4zM173 45c-1.9.3-2.8.9-2.8 1.7 0 .1 0 .3.1.4.1.1.1.2.2.3.1.1.2.1.3.2.1 0 .2.1.3.1.2 0 .3 0 .5-.1s.3-.1.5-.2.3-.2.5-.3c.1-.1.3-.2.4-.4V45zM179.8 40v7.5c0 .2 0 .4.1.6h-.7l-.1-.6c-.2.2-.4.4-.6.5-.3.1-.6.2-.9.2-.3 0-.6-.1-.8-.1-.3-.1-.6-.3-.8-.5-.3-.3-.5-.6-.6-.9-.2-.5-.2-1-.2-1.5s.1-1 .2-1.4c.1-.3.3-.7.6-.9.2-.2.5-.4.8-.5.3-.1.5-.2.8-.2.3 0 .6.1.8.2.3.1.5.3.7.5V40h.7zm-.9 3.7c-.2-.2-.5-.4-.7-.6-.2-.1-.5-.2-.8-.2-.2 0-.5 0-.7.1-.2.1-.4.2-.5.4-.2.2-.3.5-.4.7-.1.4-.1.7-.1 1.1 0 .6.1 1.2.4 1.7.3.4.7.6 1.2.6.3 0 .5-.1.7-.2.3-.2.5-.4.8-.6v-3zM183.7 48.2h-1.1l-1.8-5.9h.8l1.5 4.9 1.5-4.9h.8l-1.7 5.9zM187.4 39.9v1h-.8v-1h.8zm-.8 2.4h.8v5.9h-.8v-5.9zM192.6 44.1c-.1-.3-.3-.6-.5-.9-.2-.2-.6-.3-.9-.3-.5 0-.9.2-1.2.6-.6 1.1-.6 2.4 0 3.5.3.4.7.6 1.2.6.2 0 .3 0 .5-.1.1 0 .3-.1.4-.2.1-.1.3-.2.4-.3.1-.2.2-.3.3-.5l.7.3c-.1.2-.3.4-.4.7-.1.2-.3.3-.5.5l-.6.3c-.2.1-.5.1-.8.1-.3 0-.7-.1-1-.2-.3-.1-.6-.3-.8-.6-.2-.3-.4-.6-.5-1-.2-.8-.2-1.7 0-2.6.1-.3.3-.7.5-1 .2-.3.5-.5.8-.6.3-.1.7-.2 1-.2.3 0 .5 0 .8.1l.6.3c.2.1.3.3.4.5l.3.6-.7.4zM199.2 47c-.1.2-.2.3-.3.5-.3.4-.6.6-1.1.8-.3.1-.6.1-.9.1-.3 0-.7-.1-1-.2-.3-.1-.6-.3-.8-.5-.3-.3-.4-.6-.6-1-.2-.4-.2-.9-.2-1.4 0-.4.1-.9.2-1.3.1-.3.3-.7.5-1 .2-.3.5-.5.8-.6.3-.1.6-.2 1-.2.3 0 .6.1.9.2.3.1.5.3.7.5.2.2.4.5.5.8.1.4.2.8.2 1.2v.5h-3.8c0 .3 0 .6.1.9.1.3.2.5.4.7.2.2.3.3.6.5.2.1.4.2.7.2.3 0 .7-.1 1-.3.3-.2.5-.4.7-.7l.4.3zm-1-2.3c0-.5-.1-.9-.4-1.3-.2-.3-.6-.5-1-.5s-.9.2-1.1.5c-.3.4-.4.8-.4 1.3h2.9zM204 42.3v-1.9h.8v1.9h1.4v.7h-1.4v4.2c0 .1.1.2.2.3.2.1.3.1.5.1h.7v.7c-.1 0-.2.1-.4.1h-.6c-.3 0-.7 0-1-.2-.2-.2-.3-.5-.3-.8V43h-1v-.7h1.1zM211.7 45.3c0 .4 0 .8-.2 1.2-.1.3-.2.7-.5 1-.2.3-.5.5-.8.7-.7.3-1.4.3-2.1 0-.3-.2-.6-.4-.8-.7-.2-.3-.4-.6-.5-1-.2-.8-.2-1.6 0-2.4.1-.3.2-.7.5-1 .2-.3.5-.5.8-.7.7-.3 1.4-.3 2.1 0 .3.2.6.4.8.7.2.3.4.6.5 1 .1.4.2.8.2 1.2zm-.9 0c0-.6-.1-1.2-.4-1.8-.5-.6-1.3-.8-2-.3-.1.1-.3.2-.3.3-.6 1.1-.6 2.4 0 3.5.5.6 1.3.8 2 .3.1-.1.3-.2.3-.3.3-.5.5-1.1.4-1.7zM216 43.5c.2-.4.5-.7.8-.9.4-.3.9-.4 1.4-.4.2 0 .5 0 .7.1.2.1.5.2.7.3.2.1.4.3.5.5.1.3.2.5.2.8v3.8c0 .2.1.3.1.5h-.8l-.1-.8c-.2.2-.5.5-.8.6-.4.2-.8.3-1.2.3-.2 0-.4 0-.6-.1-.2-.1-.4-.2-.5-.3-.2-.1-.3-.3-.4-.5-.1-.2-.1-.5-.1-.7 0-.6.3-1.2.8-1.5.3-.2.7-.4 1.1-.5.5-.2 1.1-.3 1.7-.4V44c0-.3-.1-.6-.3-.8-.3-.2-.6-.3-.9-.2-.2 0-.4 0-.6.1-.2 0-.3.1-.4.2l-.3.3c-.1.1-.1.2-.2.3l-.8-.4zm3.4 1.5c-1.9.3-2.8.9-2.8 1.7 0 .1 0 .3.1.4.1.1.1.2.2.3.1.1.2.1.3.2.1 0 .2.1.3.1.2 0 .3 0 .5-.1s.3-.1.5-.2.3-.2.5-.3c.1-.1.3-.2.4-.4V45zM221.9 46.7c.2.3.4.5.7.7.3.2.6.3 1 .2.3 0 .7-.1 1-.3.2-.2.3-.4.3-.7 0-.2-.1-.4-.3-.6-.2-.2-.4-.3-.6-.3-.3-.1-.5-.2-.8-.3-.3-.1-.6-.2-.8-.3-.2-.1-.5-.3-.6-.5-.2-.2-.3-.6-.2-.9 0-.5.2-.9.6-1.2.4-.3.9-.4 1.4-.4.2 0 .4 0 .6.1.2.1.4.1.6.2.2.1.3.2.5.3l.4.4-.6.5c-.2-.2-.4-.5-.7-.6-.3-.1-.5-.2-.8-.2-.3 0-.6.1-.8.2-.2.2-.3.4-.3.6 0 .2.1.4.3.5l.6.3c.3.1.5.2.8.3.3.1.6.2.8.3.2.1.5.3.6.5.2.3.3.6.3.9 0 .5-.2 1-.6 1.3-.2.1-.4.3-.7.3-.3.1-.5.1-.8.1-.5 0-.9-.1-1.3-.3-.4-.2-.8-.5-1-.8l.4-.3zM230.3 44.1c-.1-.3-.3-.6-.5-.9-.2-.2-.6-.3-.9-.3-.5 0-.9.2-1.2.6-.6 1.1-.6 2.4 0 3.5.3.4.7.6 1.2.6.2 0 .3 0 .5-.1.1 0 .3-.1.4-.2.1-.1.3-.2.4-.3.1-.2.2-.3.3-.5l.7.3c-.1.2-.3.4-.4.7-.1.2-.3.3-.5.5l-.6.3c-.2.1-.5.1-.8.1-.3 0-.7-.1-1-.2-.3-.1-.6-.3-.8-.6-.2-.3-.4-.6-.5-1-.2-.8-.2-1.7 0-2.6.1-.3.3-.7.5-1 .2-.3.5-.5.8-.6.3-.1.7-.2 1-.2.3 0 .5 0 .8.1l.6.3c.2.1.3.3.4.5l.3.6-.7.4zM236.8 47c-.1.2-.2.3-.3.5-.3.4-.6.6-1.1.8-.3.1-.6.1-.9.1-.3 0-.7-.1-1-.2-.3-.1-.6-.3-.8-.5-.3-.3-.4-.6-.6-1-.2-.4-.2-.9-.2-1.4 0-.4.1-.9.2-1.3.1-.3.3-.7.5-1 .2-.3.5-.5.8-.6.3-.1.6-.2 1-.2.3 0 .6.1.9.2.3.1.5.3.7.5.2.2.4.5.5.8.1.4.2.8.2 1.2v.5h-3.8c0 .3 0 .6.1.9.1.3.2.5.4.7.2.2.3.3.6.5.2.1.4.2.7.2.3 0 .7-.1 1-.3.3-.2.5-.4.7-.7l.4.3zm-1-2.3c0-.5-.1-.9-.4-1.3-.2-.3-.6-.5-1-.5s-.9.2-1.1.5c-.3.4-.4.8-.4 1.3h2.9zM237.9 42.3h.8v1.2c.1-.2.2-.4.4-.5l.4-.4c.2-.1.3-.2.5-.2.2-.1.4-.1.6-.1v.7c-.5 0-.9.2-1.2.5-.3.4-.6.9-.7 1.4v3.3h-.8v-5.9zM242.3 42.3v-1.9h.8v1.9h1.4v.7h-1.4v4.2c0 .1.1.2.2.3.2.1.3.1.5.1h.7v.7c-.1 0-.2.1-.4.1h-.6c-.3 0-.7 0-1-.2-.2-.2-.3-.5-.3-.8V43h-1v-.7h1.1zM245.5 43.5c.2-.4.5-.7.8-.9.4-.3.9-.4 1.4-.4.2 0 .5 0 .7.1.2.1.5.2.7.3.2.1.4.3.5.5.1.3.2.5.2.8v3.8c0 .2.1.3.1.5h-.9l-.1-.8c-.2.2-.5.5-.8.6-.4.2-.8.3-1.2.3-.2 0-.4 0-.6-.1-.2-.1-.4-.2-.5-.3-.2-.1-.3-.3-.4-.5-.1-.2-.1-.5-.1-.7 0-.6.3-1.2.8-1.5.3-.2.7-.4 1.1-.5.5-.2 1.1-.3 1.7-.4V44c0-.3-.1-.6-.3-.8-.3-.2-.6-.3-.9-.2-.2 0-.4 0-.6.1-.2 0-.3.1-.4.2l-.3.3c-.1.1-.1.2-.2.3l-.7-.4zm3.4 1.5c-1.9.3-2.8.9-2.8 1.7 0 .1 0 .3.1.4.1.1.1.2.2.3.1.1.2.1.3.2.1 0 .2.1.3.1.2 0 .3 0 .5-.1s.3-.1.5-.2.3-.2.5-.3c.1-.1.3-.2.4-.4V45zM252.2 39.9v1h-.8v-1h.8zm-.8 2.4h.8v5.9h-.8v-5.9zM254.8 42.3v.8c.2-.3.5-.5.8-.7.3-.2.6-.3 1-.3.2 0 .4 0 .6.1.2.1.4.2.5.3.2.1.3.3.4.5.1.3.1.5.1.8v4.3h-.8V44c0-.3-.1-.6-.3-.8-.2-.2-.4-.2-.7-.2-.2 0-.3 0-.5.1s-.3.1-.5.2c-.1.1-.3.2-.4.3l-.3.3v4.4h-.7v-5.9h.8zM6 55.5L3.9 62c-.1.3-.2.6-.4.8-.1.2-.3.3-.5.5-.2.1-.4.2-.5.3-.2 0-.4.1-.6.1h-.6V63h.8c.2 0 .3-.1.4-.2.2-.1.3-.3.4-.4.1-.2.2-.5.3-.8l-2.1-6H2L3.7 60l1.4-4.5H6zM11.2 58.5c0 .4 0 .8-.2 1.2-.1.3-.2.7-.5 1-.2.3-.5.5-.8.7-.7.3-1.4.3-2.1 0-.3-.2-.6-.4-.8-.7-.2-.3-.4-.6-.5-1-.2-.8-.2-1.6 0-2.4.1-.3.2-.7.5-1 .2-.3.5-.5.8-.7.7-.3 1.4-.3 2.1 0 .3.2.6.4.8.7.2.3.4.6.5 1 .2.4.2.8.2 1.2zm-.8 0c0-.6-.1-1.2-.4-1.8-.5-.6-1.3-.8-2-.3-.1.1-.3.2-.3.3-.6 1.1-.6 2.4 0 3.5.5.6 1.3.8 2 .3.1-.1.3-.2.3-.3.3-.5.5-1.1.4-1.7zM16 61.4v-.8c-.2.3-.5.5-.8.7-.3.2-.6.3-1 .3-.2 0-.4 0-.6-.1-.2-.1-.4-.2-.5-.3-.2-.1-.3-.3-.4-.5-.1-.3-.2-.5-.1-.8v-4.3h.8v4.3c0 .3.1.6.3.8.2.2.4.2.7.2.2 0 .3 0 .5-.1s.3-.1.5-.2c.1-.1.3-.2.4-.3l.3-.3v-4.4h.8v5.9l-.9-.1zM18.4 55.5h.8v1.2c.1-.2.2-.4.4-.5l.4-.4c.2-.1.3-.2.5-.2.2-.1.4-.1.6-.1v.8c-.5 0-.9.2-1.2.5-.3.4-.6.9-.7 1.4v3.3h-.8v-6zM26 53.3v2.9c.2-.2.5-.3.7-.5.3-.1.5-.2.8-.2.3 0 .5.1.8.2.3.1.6.3.8.5.3.3.4.6.6.9.2.5.2 1 .2 1.4 0 .5-.1 1-.2 1.5-.1.4-.3.7-.6.9-.2.2-.5.4-.8.5-.3.1-.5.1-.8.1-.3 0-.6-.1-.9-.2-.3-.1-.5-.3-.8-.5l-.1.6h-.6c0-.2.1-.4.1-.6v-7.5h.8zm0 6.8c.2.2.5.4.8.6.2.1.5.2.7.2.5 0 .9-.2 1.2-.6.3-.5.5-1.1.4-1.7 0-.4 0-.8-.1-1.1-.1-.3-.2-.5-.4-.7-.1-.2-.3-.3-.5-.4-.2-.1-.4-.1-.7-.1-.3 0-.5.1-.8.2-.3.2-.5.4-.7.6l.1 3zM34.7 61.4v-.8c-.2.3-.5.5-.8.7-.3.2-.6.3-1 .3-.2 0-.4 0-.6-.1-.2-.1-.4-.2-.5-.3-.2-.1-.3-.3-.4-.5-.1-.3-.2-.5-.1-.8v-4.3h.8v4.3c0 .3.1.6.3.8.2.2.4.2.7.2.2 0 .3 0 .5-.1s.3-.1.5-.2c.1-.1.3-.2.4-.3l.3-.3v-4.4h.8v5.9l-.9-.1zM37.3 59.9c.2.3.4.5.7.7.3.2.6.3 1 .2.3 0 .7-.1 1-.3.2-.2.3-.4.3-.7 0-.2-.1-.4-.3-.6-.2-.2-.4-.3-.6-.3-.3-.1-.5-.2-.8-.3-.3-.1-.6-.2-.8-.3-.2-.1-.5-.3-.6-.5-.2-.2-.3-.6-.2-.9 0-.5.2-.9.6-1.2.4-.3.9-.4 1.4-.4.2 0 .4 0 .6.1.2.1.4.1.6.2.2.1.3.2.5.3l.4.4-.9.7c-.2-.2-.4-.5-.7-.6-.3-.1-.5-.2-.8-.2-.3 0-.6.1-.8.2-.2.2-.3.4-.3.6 0 .2.1.4.3.5l.6.3c.3.1.5.2.8.3.3.1.6.2.8.3.2.1.5.3.6.5.2.3.3.6.3.9 0 .5-.2 1-.6 1.3-.2.1-.4.3-.7.3-.3.1-.5.1-.8.1-.5 0-.9-.1-1.3-.3-.4-.2-.8-.5-1-.8l.7-.5zM43.1 53.1v1h-.8v-1h.8zm-.8 2.4h.8v5.9h-.8v-5.9zM45.8 55.5v.8c.2-.3.5-.5.8-.7.3-.2.6-.3 1-.3.2 0 .4 0 .6.1.2.1.4.2.5.3.2.1.3.3.4.5.1.3.1.5.1.8v4.3h-.8V57c0-.3-.1-.6-.3-.8-.2-.2-.4-.2-.7-.2-.2 0-.3 0-.5.1s-.3.1-.5.2c-.1.1-.3.2-.4.3l-.3.3v4.4h-.8v-5.9l.9.1zM55.3 60.2c-.1.2-.2.3-.3.5-.3.4-.6.6-1.1.8-.3.1-.6.1-.9.1-.3 0-.7-.1-1-.2-.3-.1-.6-.3-.8-.5-.3-.3-.4-.6-.6-1-.2-.4-.2-.9-.2-1.4 0-.4.1-.9.2-1.3.1-.3.3-.7.5-1 .2-.3.5-.5.8-.6.3-.1.6-.2 1-.2.3 0 .6.1.9.2.3.1.5.3.7.5.2.2.4.5.5.8.1.4.2.8.2 1.2v.5h-3.8c0 .3 0 .6.1.9.1.3.2.5.4.7.2.2.3.3.6.5.2.1.4.2.7.2.3 0 .7-.1 1-.3.3-.2.5-.4.7-.7l.4.3zm-1-2.2c0-.5-.1-.9-.4-1.3-.2-.3-.6-.5-1-.5s-.9.2-1.1.5c-.3.4-.4.8-.4 1.3h2.9zM56.8 59.9c.2.3.4.5.7.7.3.2.6.3 1 .2.3 0 .7-.1 1-.3.2-.2.3-.4.3-.7 0-.2-.1-.4-.3-.6-.2-.2-.4-.3-.6-.3-.3-.1-.5-.2-.8-.3-.3-.1-.6-.2-.8-.3-.2-.1-.5-.3-.6-.5-.2-.2-.3-.6-.2-.9 0-.5.2-.9.6-1.2.4-.3.9-.4 1.4-.4.2 0 .4 0 .6.1.2.1.4.1.6.2.2.1.3.2.5.3l.4.4-.9.7c-.2-.2-.4-.5-.7-.6-.3-.1-.5-.2-.8-.2-.3 0-.6.1-.8.2-.2.2-.3.4-.3.6 0 .2.1.4.3.5l.6.3c.3.1.5.2.8.3.3.1.6.2.8.3.2.1.5.3.6.5.2.3.3.6.3.9 0 .5-.2 1-.6 1.3-.2.1-.4.3-.7.3-.3.1-.5.1-.8.1-.5 0-.9-.1-1.3-.3-.4-.2-.8-.5-1-.8l.7-.5zM61.9 59.9c.2.3.4.5.7.7.3.2.6.3 1 .2.3 0 .7-.1 1-.3.2-.2.3-.4.3-.7 0-.2-.1-.4-.3-.6-.2-.2-.4-.3-.6-.3-.3-.1-.5-.2-.8-.3-.3-.1-.6-.2-.8-.3-.2-.1-.5-.3-.6-.5-.2-.2-.3-.6-.2-.9 0-.5.2-.9.6-1.2.4-.3.9-.4 1.4-.4.2 0 .4 0 .6.1.2.1.4.1.6.2.2.1.3.2.5.3l.4.4-.9.7c-.2-.2-.4-.5-.7-.6-.3-.1-.5-.2-.8-.2-.3 0-.6.1-.8.2-.2.2-.3.4-.3.6 0 .2.1.4.3.5l.6.3c.3.1.5.2.8.3.3.1.6.2.8.3.2.1.5.3.6.5.2.3.3.6.3.9 0 .5-.2 1-.6 1.3-.2.1-.4.3-.7.3-.3.1-.5.1-.8.1-.5 0-.9-.1-1.3-.3-.4-.2-.8-.5-1-.8l.7-.5zM67.8 54.5l-.7 1.6h-.5l.5-1.6h-.5v-1.2h1.1l.1 1.2zM76.9 60.2c-.1.2-.2.3-.3.5-.3.4-.6.6-1.1.8-.3.1-.6.1-.9.1-.3 0-.7-.1-1-.2-.3-.1-.6-.3-.8-.5-.3-.3-.4-.6-.6-1-.1-.5-.2-.9-.2-1.4 0-.4.1-.9.2-1.3.1-.3.3-.7.5-1 .2-.3.5-.5.8-.6.3-.1.6-.2 1-.2.3 0 .6.1.9.2.3.1.5.3.7.5.2.2.4.5.5.8.1.4.2.8.2 1.2v.5H73c0 .3 0 .6.1.9.1.3.2.5.4.7.2.2.3.3.6.5.2.1.4.2.7.2.3 0 .7-.1 1-.3.3-.2.5-.4.7-.7l.4.3zm-1-2.2c0-.5-.1-.9-.4-1.3-.2-.3-.6-.5-1-.5s-.9.2-1.1.5c-.3.4-.4.8-.4 1.3h2.9zM79 53.3v8.2h-.8v-8.2h.8zM81.7 53.1v1h-.8v-1h.8zm-.8 2.4h.8v5.9h-.8v-5.9zM88.1 56.1h-.5c-.1 0-.3.1-.4.1.1.1.2.3.3.5.1.2.1.5.1.7 0 .3-.1.6-.2.8-.2.5-.6.9-1.1 1.1-.3.1-.6.2-.8.2h-.6c-.1 0-.3-.1-.5-.1-.3 0-.5.3-.5.5 0 .1 0 .2.1.3.1.1.2.1.4.1.6 0 1.2 0 1.8.1.4 0 .8.1 1.1.3.3.1.5.3.6.5.1.2.2.5.2.7 0 .2-.1.4-.2.6-.1.2-.3.4-.5.5-.3.2-.5.3-.8.3-.4.1-.8.1-1.2.1-.6 0-1.3-.1-1.9-.3-.4-.2-.7-.6-.6-1.1 0-.3.1-.5.3-.7.2-.2.5-.4.7-.5-.2-.1-.4-.2-.5-.3-.1-.1-.2-.3-.2-.5s.1-.4.2-.6c.2-.2.4-.3.6-.4-.3-.2-.5-.4-.6-.7-.1-.3-.2-.6-.2-.9 0-.3.1-.6.2-.8.1-.2.3-.5.5-.7.2-.2.4-.3.7-.4.3-.1.6-.1.9-.1.3 0 .6 0 .8.1l.6.3.6-.3c.2-.1.4-.2.7-.2l-.1.8zm-.8 6c0-.3-.2-.6-.5-.7-.5-.2-1-.3-1.6-.2-.3 0-.5 0-.8.1-.2 0-.4.1-.5.2l-.3.3c0 .1-.1.2-.1.3 0 .1 0 .2.1.3.1.1.2.2.3.2.2.1.4.1.6.1.3 0 .7.1 1 .1.2 0 .5 0 .7-.1.2 0 .4-.1.6-.2.1-.1.3-.2.4-.3.1.1.1 0 .1-.1zm-.5-4.6c0-.4-.1-.7-.4-1-.3-.3-.7-.4-1.1-.4-.7-.1-1.4.4-1.4 1.2v.2c0 .4.1.7.4 1 .3.3.7.4 1.1.4.2 0 .4 0 .6-.1.2-.1.3-.2.4-.3.1-.1.2-.3.3-.4.1-.2.1-.4.1-.6zM90 53.1v1h-.8v-1h.8zm-.8 2.4h.8v5.9h-.8v-5.9zM92.7 53.3v2.9c.2-.2.5-.3.7-.5.3-.1.5-.2.8-.2.3 0 .5.1.8.2.3.1.6.3.8.5.3.3.4.6.6.9.2.5.2 1 .2 1.4 0 .5-.1 1-.2 1.5-.1.4-.3.7-.6.9-.2.2-.5.4-.8.5-.3.1-.5.1-.8.1-.3 0-.6-.1-.9-.2-.3-.1-.5-.3-.8-.5l-.1.6h-.6c0-.2.1-.4.1-.6v-7.5h.8zm0 6.8c.2.2.5.4.8.6.2.1.5.2.7.2.5 0 .9-.2 1.2-.6.3-.5.5-1.1.4-1.7 0-.4 0-.8-.1-1.1-.1-.3-.2-.5-.4-.7-.1-.2-.3-.3-.5-.4-.2-.1-.4-.1-.7-.1-.3 0-.5.1-.8.2-.3.2-.5.4-.7.6l.1 3zM98.9 53.1v1h-.8v-1h.8zm-.8 2.4h.8v5.9h-.8v-5.9zM101.6 53.3v8.2h-.8v-8.2h.8zM104.2 53.1v1h-.8v-1h.8zm-.8 2.4h.8v5.9h-.8v-5.9zM106.3 55.5v-1.9h.8v1.9h1.4v.7h-1.4v4.2c0 .1.1.2.2.3.2.1.3.1.5.1h.7v.7c-.1 0-.2.1-.4.1h-.6c-.3 0-.7 0-1-.2-.2-.2-.3-.5-.3-.8v-4.3h-1v-.7l1.1-.1zM114 55.5l-2.1 6.4c-.1.3-.2.6-.4.8-.1.2-.3.4-.5.5-.2.1-.4.2-.5.3-.2 0-.4.1-.6.1h-.6v-.7h.8c.2 0 .3-.1.4-.2.2-.1.3-.3.4-.4.1-.2.2-.5.3-.8l-2.1-6h.9l1.6 4.5 1.4-4.5h1zM118.2 61.4v-5.2h-1v-.7h1v-.7c0-.3 0-.6.1-.9 0-.2.1-.4.3-.5.1-.1.3-.2.4-.3.2-.1.4-.1.6-.1h.8v.7c-.1 0-.2 0-.3-.1h-.3c-.2 0-.4 0-.6.2-.1.2-.2.4-.2.7v.9h1.3v.7H119v5.2l-.8.1zM125.7 58.5c0 .4 0 .8-.2 1.2-.1.3-.2.7-.5 1-.2.3-.5.5-.8.7-.7.3-1.4.3-2.1 0-.3-.2-.6-.4-.8-.7-.2-.3-.4-.6-.5-1-.2-.8-.2-1.6 0-2.4.1-.3.2-.7.5-1 .2-.3.5-.5.8-.7.7-.3 1.4-.3 2.1 0 .3.2.6.4.8.7.2.3.4.6.5 1 .2.4.2.8.2 1.2zm-.8 0c0-.6-.1-1.2-.4-1.8-.5-.6-1.3-.8-2-.3-.1.1-.3.2-.3.3-.6 1.1-.6 2.4 0 3.5.5.6 1.3.8 2 .3.1-.1.3-.2.3-.3.3-.5.5-1.1.4-1.7zM126.9 55.5h.8v1.2c.1-.2.2-.4.4-.5l.4-.4c.2-.1.3-.2.5-.2.2-.1.4-.1.6-.1v.8c-.5 0-.9.2-1.2.5-.3.4-.6.9-.7 1.4v3.3h-.8v-6zM133.9 55.5v-1.9h.8v1.9h1.4v.7h-1.4v4.2c0 .1.1.2.2.3.2.1.3.1.5.1h.7v.7c-.1 0-.2.1-.4.1h-.6c-.3 0-.7 0-1-.2-.2-.2-.3-.5-.3-.8v-4.3h-1v-.7l1.1-.1zM138 53.3v3.1c.2-.3.5-.5.8-.7.3-.2.6-.3 1-.3.2 0 .4 0 .6.1.2.1.4.2.5.3.2.1.3.3.4.5.1.3.1.5.1.8v4.3h-.8v-4.3c0-.3-.1-.6-.3-.8-.2-.2-.4-.2-.7-.2-.2 0-.3 0-.5.1s-.3.1-.5.2c-.1.1-.3.2-.4.3l-.3.3v4.4h-.8v-8.2h.9zM147.6 60.2c-.1.2-.2.3-.3.5-.3.4-.6.6-1.1.8-.3.1-.6.1-.9.1-.3 0-.7-.1-1-.2-.3-.1-.6-.3-.8-.5-.3-.3-.4-.6-.6-1-.2-.4-.2-.9-.2-1.4 0-.4.1-.9.2-1.3.1-.3.3-.7.5-1 .2-.3.5-.5.8-.6.3-.1.6-.2 1-.2.3 0 .6.1.9.2.3.1.5.3.7.5.2.2.4.5.5.8.1.4.2.8.2 1.2v.5h-3.8c0 .3 0 .6.1.9.1.3.2.5.4.7.2.2.3.3.6.5.2.1.4.2.7.2.3 0 .7-.1 1-.3.3-.2.5-.4.7-.7l.4.3zm-1-2.2c0-.5-.1-.9-.4-1.3-.2-.3-.6-.5-1-.5s-.9.2-1.1.5c-.3.4-.4.8-.4 1.3h2.9zM153.1 53.3v8.2h-.9v-8.2h.9zM156 55.5v.8c.2-.3.5-.5.8-.7.3-.2.6-.3 1-.3.2 0 .4 0 .6.1.2.1.4.2.5.3.2.1.3.3.4.5.1.3.1.5.1.8v4.3h-.8V57c0-.3-.1-.6-.3-.8-.2-.2-.4-.2-.7-.2-.2 0-.3 0-.5.1s-.3.1-.5.2c-.1.1-.3.2-.4.3l-.3.3v4.4h-.8v-5.9l.9.1zM161.2 59.9c.2.3.4.5.7.7.3.2.6.3 1 .2.3 0 .7-.1 1-.3.2-.2.3-.4.3-.7 0-.2-.1-.4-.3-.6-.2-.2-.4-.3-.6-.3-.3-.1-.5-.2-.8-.3-.3-.1-.6-.2-.8-.3-.2-.1-.5-.3-.6-.5-.2-.2-.3-.6-.2-.9 0-.5.2-.9.6-1.2.4-.3.9-.4 1.4-.4.2 0 .4 0 .6.1.2.1.4.1.6.2.2.1.3.2.5.3l.4.4-.6.5c-.2-.2-.4-.5-.7-.6-.3-.1-.5-.2-.8-.2-.3 0-.6.1-.8.2-.2.2-.3.4-.3.6 0 .2.1.4.3.5l.6.3c.3.1.5.2.8.3.3.1.6.2.8.3.2.1.5.3.6.5.2.3.3.6.3.9 0 .5-.2 1-.6 1.3-.2.1-.4.3-.7.3-.3.1-.5.1-.8.1-.5 0-.9-.1-1.3-.3-.4-.2-.8-.5-1-.8l.4-.3zM166.5 55.5v-1.9h.8v1.9h1.4v.7h-1.4v4.2c0 .1.1.2.2.3.2.1.3.1.5.1h.7v.7c-.1 0-.2.1-.4.1h-.6c-.3 0-.7 0-1-.2-.2-.2-.3-.5-.3-.8v-4.3h-1v-.7l1.1-.1zM169.7 56.7c.2-.4.5-.7.8-.9.4-.3.9-.4 1.4-.4.2 0 .5 0 .7.1.2.1.5.2.7.3.2.1.4.3.5.5.1.3.2.5.2.8v3.8c0 .2.1.3.1.5h-.8l-.1-.8c-.2.2-.5.5-.8.6-.4.2-.8.3-1.2.3-.2 0-.4 0-.6-.1-.2-.1-.4-.2-.5-.3-.2-.1-.3-.3-.4-.5-.1-.2-.1-.5-.1-.7 0-.6.3-1.2.8-1.5.3-.2.7-.4 1.1-.5.5-.2 1.1-.3 1.7-.4v-.3c0-.3-.1-.6-.3-.8-.3-.2-.6-.3-.9-.2-.2 0-.4 0-.6.1-.2 0-.3.1-.4.2l-.3.3c-.1.1-.1.2-.2.3l-.8-.4zm3.4 1.6c-1.9.3-2.8.9-2.8 1.7 0 .1 0 .3.1.4.1.1.1.2.2.3.1.1.2.1.3.2.1 0 .2.1.3.1.2 0 .3 0 .5-.1s.3-.1.5-.2.3-.2.5-.3c.1-.1.3-.2.4-.4v-1.7zM176.3 55.5v.8c.2-.3.5-.5.8-.7.3-.2.6-.3 1-.3.2 0 .4 0 .6.1.2.1.4.2.5.3.2.1.3.3.4.5.1.3.1.5.1.8v4.3h-.7V57c0-.3-.1-.6-.3-.8-.2-.2-.4-.2-.7-.2-.2 0-.3 0-.5.1s-.3.1-.5.2c-.1.1-.3.2-.4.3l-.3.3v4.4h-.8v-5.9l.8.1zM181.8 55.5v-1.9h.8v1.9h1.4v.7h-1.4v4.2c0 .1.1.2.2.3.2.1.3.1.5.1h.7v.7c-.1 0-.2.1-.4.1h-.6c-.3 0-.7 0-1-.2-.2-.2-.3-.5-.3-.8v-4.3h-1v-.7l1.1-.1zM187.4 61.4l2.5-8.2h1.3l2.5 8.2h-1l-.8-2.6H189l-.8 2.6h-.8zm2-3.3h2.5l-1.2-4.2h-.1l-1.2 4.2zM195.1 59.9c.2.3.4.5.7.7.3.2.6.3 1 .2.3 0 .7-.1 1-.3.2-.2.3-.4.3-.7 0-.2-.1-.4-.3-.6-.2-.2-.4-.3-.6-.3-.3-.1-.5-.2-.8-.3-.3-.1-.6-.2-.8-.3-.2-.1-.5-.3-.6-.5-.2-.2-.3-.6-.2-.9 0-.5.2-.9.6-1.2.4-.3.9-.4 1.4-.4.2 0 .4 0 .6.1.2.1.4.1.6.2.2.1.3.2.5.3l.4.4-.6.5c-.2-.2-.4-.5-.7-.6-.3-.1-.5-.2-.8-.2-.3 0-.6.1-.8.2-.2.2-.3.4-.3.6 0 .2.1.4.3.5l.6.3c.3.1.5.2.8.3.3.1.6.2.8.3.2.1.5.3.6.5.2.3.3.6.3.9 0 .5-.2 1-.6 1.3-.2.1-.4.3-.7.3-.3.1-.5.1-.8.1-.5 0-.9-.1-1.3-.3-.4-.2-.8-.5-1-.8l.4-.3zM200.3 59.9c.2.3.4.5.7.7.3.2.6.3 1 .2.3 0 .7-.1 1-.3.2-.2.3-.4.3-.7 0-.2-.1-.4-.3-.6-.2-.2-.4-.3-.6-.3-.3-.1-.5-.2-.8-.3-.3-.1-.6-.2-.8-.3-.2-.1-.5-.3-.6-.5-.2-.2-.3-.6-.2-.9 0-.5.2-.9.6-1.2.4-.3.9-.4 1.4-.4.2 0 .4 0 .6.1.2.1.4.1.6.2.2.1.3.2.5.3l.4.4-.6.5c-.2-.2-.4-.5-.7-.6-.3-.1-.5-.2-.8-.2-.3 0-.6.1-.8.2-.2.2-.3.4-.3.6 0 .2.1.4.3.5l.6.3c.3.1.5.2.8.3.3.1.6.2.8.3.2.1.5.3.6.5.2.3.3.6.3.9 0 .5-.2 1-.6 1.3-.2.1-.4.3-.7.3-.3.1-.5.1-.8.1-.5 0-.9-.1-1.3-.3-.4-.2-.8-.5-1-.8l.4-.3zM209.7 60.2c-.1.2-.2.3-.3.5-.3.4-.6.6-1.1.8-.3.1-.6.1-.9.1-.3 0-.7-.1-1-.2-.3-.1-.6-.3-.8-.5-.3-.3-.4-.6-.6-1-.2-.4-.2-.9-.2-1.4 0-.4.1-.9.2-1.3.1-.3.3-.7.5-1 .2-.3.5-.5.8-.6.3-.1.6-.2 1-.2.3 0 .6.1.9.2.3.1.5.3.7.5.2.2.4.5.5.8.1.4.2.8.2 1.2v.5h-3.8c0 .3 0 .6.1.9.1.3.2.5.4.7.2.2.3.3.6.5.2.1.4.2.7.2.3 0 .7-.1 1-.3.3-.2.5-.4.7-.7l.4.3zm-1-2.2c0-.5-.1-.9-.4-1.3-.2-.3-.6-.5-1-.5s-.9.2-1.1.5c-.3.4-.4.8-.4 1.3h2.9zM211.1 55.5v-1.9h.8v1.9h1.4v.7h-1.4v4.2c0 .1.1.2.2.3.2.1.3.1.5.1h.7v.7c-.1 0-.2.1-.4.1h-.6c-.3 0-.7 0-1-.2-.2-.2-.3-.5-.3-.8v-4.3h-1v-.7l1.1-.1zM216.8 53.3h.9l1.5 6.5 1.6-6.5h.8l1.6 6.5 1.5-6.5h.9l-1.9 8.2h-.8l-1.7-6.6-1.6 6.6h-.8l-2-8.2zM226.4 55.5h.8v1.2c.1-.2.2-.4.4-.5l.4-.4c.2-.1.3-.2.5-.2.2-.1.4-.1.6-.1v.8c-.5 0-.9.2-1.2.5-.3.4-.6.9-.7 1.4v3.3h-.8v-6zM231.2 53.1v1h-.8v-1h.8zm-.8 2.4h.8v5.9h-.8v-5.9zM233.3 55.5v-1.9h.8v1.9h1.4v.7h-1.4v4.2c0 .1.1.2.2.3.2.1.3.1.5.1h.7v.7c-.1 0-.2.1-.4.1h-.6c-.3 0-.7 0-1-.2-.2-.2-.3-.5-.3-.8v-4.3h-1v-.7l1.1-.1zM240.9 60.2c-.1.2-.2.3-.3.5-.3.4-.6.6-1.1.8-.3.1-.6.1-.9.1-.3 0-.7-.1-1-.2-.3-.1-.6-.3-.8-.5-.3-.3-.4-.6-.6-1-.2-.4-.2-.9-.2-1.4 0-.4.1-.9.2-1.3.1-.3.3-.7.5-1 .2-.3.5-.5.8-.6.3-.1.6-.2 1-.2.3 0 .6.1.9.2.3.1.5.3.7.5.2.2.4.5.5.8.1.4.2.8.2 1.2v.5H237c0 .3 0 .6.1.9.1.3.2.5.4.7.2.2.3.3.6.5.2.1.4.2.7.2.3 0 .7-.1 1-.3.3-.2.5-.4.7-.7l.4.3zm-1-2.2c0-.5-.1-.9-.4-1.3-.2-.3-.6-.5-1-.5s-.9.2-1.1.5c-.3.4-.4.8-.4 1.3h2.9zM241.9 58.8v-.7h2.9v.7h-2.9zM250.7 58.5c0 .4 0 .8-.2 1.2-.1.3-.2.7-.5 1-.2.3-.5.5-.8.7-.7.3-1.4.3-2.1 0-.3-.2-.6-.4-.8-.7-.2-.3-.4-.6-.5-1-.2-.8-.2-1.6 0-2.4.1-.3.2-.7.5-1 .2-.3.5-.5.8-.7.7-.3 1.4-.3 2.1 0 .3.2.6.4.8.7.2.3.4.6.5 1 .2.4.2.8.2 1.2zm-.8 0c0-.6-.1-1.2-.4-1.8-.5-.6-1.3-.8-2-.3-.1.1-.3.2-.3.3-.6 1.1-.6 2.4 0 3.5.5.6 1.3.8 2 .3.1-.1.3-.2.3-.3.3-.5.5-1.1.4-1.7zM252.3 61.4v-5.2h-1v-.7h1v-.7c0-.3 0-.6.1-.9 0-.2.1-.4.3-.5.1-.1.3-.2.4-.3.2-.1.4-.1.6-.1h.8v.7c-.1 0-.2 0-.3-.1h-.3c-.2 0-.4 0-.6.2-.1.2-.2.4-.2.7v.9h1.3v.7h-1.3v5.2l-.8.1zM256.2 61.4v-5.2h-1v-.7h1v-.7c0-.3 0-.6.1-.9 0-.2.1-.4.3-.5.1-.1.3-.2.4-.3.2-.1.4-.1.6-.1h.8v.7c-.1 0-.2 0-.3-.1h-.3c-.2 0-.4 0-.6.2-.1.2-.2.4-.2.7v.9h1.3v.7H257v5.2l-.8.1zM260.3 60.2v1.2h-1.1v-1.2h1.1z"/></svg>