<svg xmlns="http://www.w3.org/2000/svg" viewBox="0 0 970 250"><path d="M115.146 78.568v-21.29h4.246l8.374 14.508h.06V57.278h3.833v21.29h-3.922l-8.698-15.156h-.06v15.156zM133.988 70.901a11.124 11.124 0 01.457-3.301 7.233 7.233 0 011.312-2.507 5.777 5.777 0 012.093-1.593 7.292 7.292 0 015.603 0 5.78 5.78 0 012.093 1.593 7.233 7.233 0 011.313 2.507 12.159 12.159 0 010 6.604 7.233 7.233 0 01-1.313 2.507 5.756 5.756 0 01-2.093 1.592 7.28 7.28 0 01-5.603 0 5.753 5.753 0 01-2.093-1.592 7.233 7.233 0 01-1.312-2.507 11.126 11.126 0 01-.457-3.303zm9.672 0a7.548 7.548 0 00-.738-3.803 2.737 2.737 0 00-4.54 0 7.548 7.548 0 00-.738 3.803 7.543 7.543 0 00.737 3.804 2.737 2.737 0 004.541 0 7.543 7.543 0 00.738-3.804zM147.405 63.235h3.48l2.093 9.554h.059l2.212-9.554h3.39l2.123 9.554h.059l2.182-9.554h3.48l-3.951 15.333h-3.303l-2.27-9.553h-.06l-2.24 9.553h-3.303zM169.726 61.466h-1.77v-4.188h4.07v4.188l-1.887 4.423h-1.917zM181.638 67.274a8.942 8.942 0 00-1.282-1.105 2.658 2.658 0 00-1.577-.516 2.442 2.442 0 00-1.564.412 1.347 1.347 0 00-.5 1.092 1.219 1.219 0 00.575 1.047 6.764 6.764 0 001.415.722q.84.325 1.842.664a7.463 7.463 0 011.843.914 5.078 5.078 0 011.416 1.474 4.18 4.18 0 01.575 2.286 4.582 4.582 0 01-.427 2.063 4.073 4.073 0 01-1.18 1.43 4.913 4.913 0 01-1.784.84 8.99 8.99 0 01-2.242.266 6.822 6.822 0 01-3.317-.796 7.196 7.196 0 01-2.491-2.3l2.447-1.828a7.56 7.56 0 001.519 1.548 3.282 3.282 0 002.05.663 2.44 2.44 0 001.577-.486 1.535 1.535 0 00.604-1.253 1.255 1.255 0 00-.575-1.061 6.29 6.29 0 00-1.415-.738q-.84-.325-1.843-.693a8.666 8.666 0 01-1.843-.929 5.1 5.1 0 01-1.416-1.415 3.839 3.839 0 01-.574-2.182 4.25 4.25 0 01.412-1.902 4.03 4.03 0 011.121-1.401 5.115 5.115 0 011.622-.855 6.212 6.212 0 011.917-.294 7.872 7.872 0 012.963.575 6.17 6.17 0 012.433 1.754zM203.517 78.568l-.235-1.327a10.887 10.887 0 01-2.227 1.195 7.042 7.042 0 01-2.55.427 4.527 4.527 0 01-1.814-.339 3.684 3.684 0 01-1.297-.914 3.964 3.964 0 01-.781-1.298 4.348 4.348 0 01-.266-1.518 4.589 4.589 0 012.153-4.055 15.604 15.604 0 016.634-1.96V67.48a1.59 1.59 0 00-.634-1.356 2.622 2.622 0 00-1.607-.472 3.367 3.367 0 00-2.064.575 6.092 6.092 0 00-1.297 1.312l-2.36-1.799a4.2 4.2 0 01.974-1.135 6.961 6.961 0 011.4-.899 7.902 7.902 0 011.637-.59 6.324 6.324 0 011.71-.177 10.356 10.356 0 012.654.354 4.218 4.218 0 011.843 1.047 4.329 4.329 0 011.062 1.902 10.61 10.61 0 01.339 2.89v7.223a11.048 11.048 0 00.058 1.15 4.604 4.604 0 00.236 1.062zm-.383-7.342q-.914.177-1.828.383a8.313 8.313 0 00-1.651.546 3.437 3.437 0 00-1.195.87 1.964 1.964 0 00-.457 1.327 1.734 1.734 0 00.501 1.327 1.777 1.777 0 001.269.471 2.801 2.801 0 00.914-.162 6.15 6.15 0 00.914-.398 6.764 6.764 0 00.84-.53q.398-.295.693-.532zM231.382 65.417q-.649 0-1.297.044a2.226 2.226 0 00-1.061.31 4.86 4.86 0 01.59 1.165 4.618 4.618 0 01.235 1.547 5.217 5.217 0 01-.368 1.992 4.33 4.33 0 01-1.09 1.562 5.044 5.044 0 01-1.8 1.032 7.784 7.784 0 01-2.521.368 11.877 11.877 0 00-2.034.148q-.827.148-.827.796 0 .62.752.826a9.55 9.55 0 001.873.28q1.12.074 2.418.148a8.993 8.993 0 012.418.457 4.478 4.478 0 011.873 1.194 3.325 3.325 0 01.752 2.344 3.491 3.491 0 01-.428 1.637 4.403 4.403 0 01-1.298 1.459 7 7 0 01-2.211 1.046 11.203 11.203 0 01-3.17.399 11.412 11.412 0 01-4.969-.914 2.926 2.926 0 01-1.872-2.742 2.872 2.872 0 01.25-1.239 2.703 2.703 0 011.533-1.416 2.891 2.891 0 01.989-.176v-.059a4.841 4.841 0 00-.649-.354 4.47 4.47 0 01-.752-.442 2.34 2.34 0 01-.619-.664 1.873 1.873 0 01-.25-1.018 1.976 1.976 0 01.28-1.03 3.967 3.967 0 01.663-.842 4.352 4.352 0 01.78-.604 3.619 3.619 0 01.665-.324 8.479 8.479 0 01-1.608-1.71 4.002 4.002 0 01-.663-2.36 5.23 5.23 0 01.383-1.96 4.95 4.95 0 011.15-1.71 5.75 5.75 0 011.887-1.21 6.921 6.921 0 012.625-.457 6.086 6.086 0 012.02.369 5.326 5.326 0 011.755.988 3.225 3.225 0 011.4-1.062 5.237 5.237 0 012.196-.295zm-8.079 12.856a3.477 3.477 0 00-1.253.192 2.802 2.802 0 00-.797.457 1.448 1.448 0 00-.426.575 1.55 1.55 0 00-.119.546 1.36 1.36 0 00.885 1.297 8.41 8.41 0 003.185.413 5.013 5.013 0 001.49-.192 3.476 3.476 0 00.972-.457 1.76 1.76 0 00.53-.56 1.092 1.092 0 00.163-.501 1.012 1.012 0 00-.222-.575 2.002 2.002 0 00-.766-.575 6.064 6.064 0 00-1.43-.443 11.536 11.536 0 00-2.212-.177zm3.185-10.085a2.447 2.447 0 00-.738-1.797 2.414 2.414 0 00-1.769-.738 2.592 2.592 0 00-1.916.738 2.562 2.562 0 000 3.596 2.588 2.588 0 001.916.738 2.41 2.41 0 001.77-.738 2.448 2.448 0 00.737-1.799zM232.68 78.568V63.235h3.362v2.624h.058a5.718 5.718 0 011.666-2.123 4.595 4.595 0 012.64-.796v3.863a1.518 1.518 0 00-.295-.03h-.355a2.668 2.668 0 00-1.297.34 5.69 5.69 0 00-1.09.766 5.053 5.053 0 00-.752.826 1.297 1.297 0 00-.28.545v9.318zM244.681 71.491a5.261 5.261 0 00.974 3.406 2.865 2.865 0 002.21 1.017 3.444 3.444 0 002.006-.516 7.624 7.624 0 001.416-1.312l2.653 1.651a6.303 6.303 0 01-2.639 2.389 8.895 8.895 0 01-3.789.737 6.284 6.284 0 01-2.698-.56 5.718 5.718 0 01-2.034-1.592 7.379 7.379 0 01-1.298-2.507 12.159 12.159 0 010-6.604 7.233 7.233 0 011.312-2.507 5.777 5.777 0 012.093-1.593 6.735 6.735 0 012.802-.56 5.95 5.95 0 012.669.576 5.828 5.828 0 011.96 1.547 6.848 6.848 0 011.21 2.256 8.673 8.673 0 01.412 2.668v1.504zm5.898-2.476a3.84 3.84 0 00-.841-2.477 2.953 2.953 0 00-4.216 0 3.835 3.835 0 00-.84 2.477zM264.202 78.568l-.237-1.327a10.906 10.906 0 01-2.225 1.195 7.042 7.042 0 01-2.551.427 4.527 4.527 0 01-1.814-.339 3.679 3.679 0 01-1.297-.914 3.98 3.98 0 01-.782-1.298 4.37 4.37 0 01-.265-1.518 4.591 4.591 0 012.152-4.055 15.608 15.608 0 016.635-1.96V67.48a1.587 1.587 0 00-.634-1.356 2.619 2.619 0 00-1.606-.472 3.363 3.363 0 00-2.065.575 6.096 6.096 0 00-1.298 1.312l-2.358-1.799a4.18 4.18 0 01.973-1.135 7.017 7.017 0 011.4-.899 7.923 7.923 0 011.637-.59 6.33 6.33 0 011.71-.177 10.342 10.342 0 012.654.354 4.207 4.207 0 011.843 1.047 4.319 4.319 0 011.061 1.902 10.61 10.61 0 01.34 2.89v7.223a10.782 10.782 0 00.059 1.15 4.655 4.655 0 00.235 1.062zm-.384-7.342q-.914.177-1.828.383a8.313 8.313 0 00-1.652.546 3.447 3.447 0 00-1.194.87 1.964 1.964 0 00-.457 1.327 1.731 1.731 0 00.502 1.327 1.775 1.775 0 001.268.471 2.797 2.797 0 00.914-.162 6.107 6.107 0 00.914-.398 6.777 6.777 0 00.84-.53q.398-.295.693-.532zM270.807 63.235v-5.072h3.656v5.072h3.008v2.949h-3.008v8.669a.949.949 0 00.325.84 1.802 1.802 0 001.003.221 3.545 3.545 0 00.84-.102q.427-.104.84-.192v3.007q-.767.09-1.445.162a13.465 13.465 0 01-1.444.074 3.808 3.808 0 01-2.906-.943 3.68 3.68 0 01-.869-2.595v-9.141h-2.123v-2.949zM289.03 63.235v-5.072h3.656v5.072h3.008v2.949h-3.008v8.669a.949.949 0 00.324.84 1.802 1.802 0 001.003.221 3.545 3.545 0 00.84-.102q.428-.104.84-.192v3.007q-.767.09-1.444.162a13.465 13.465 0 01-1.445.074 3.808 3.808 0 01-2.905-.943 3.68 3.68 0 01-.87-2.595v-9.141h-2.122v-2.949zM297.698 60.404v-3.42h3.656v3.42zm3.656 18.164h-3.656V63.235h3.656zM304.333 78.568V63.235h3.332v1.652a9.11 9.11 0 012.035-1.446 5.731 5.731 0 012.565-.5 4.623 4.623 0 012.24.559 3.465 3.465 0 011.535 1.682 10.688 10.688 0 011.001-.885 6.076 6.076 0 011.165-.708 7.12 7.12 0 011.4-.472 7.604 7.604 0 011.71-.177 4.255 4.255 0 011.255.206 3.21 3.21 0 011.223.723 3.904 3.904 0 01.93 1.415 6 6 0 01.367 2.256v11.028h-3.656V67.864a2.156 2.156 0 00-.413-1.43 1.933 1.933 0 00-1.415-.545 3.016 3.016 0 00-1.563.53 10.276 10.276 0 00-1.503 1.121v11.028h-3.657V67.864a2.156 2.156 0 00-.413-1.43 1.933 1.933 0 00-1.415-.545 3.022 3.022 0 00-1.563.53 10.329 10.329 0 00-1.504 1.121v11.028zM330.665 71.491a5.261 5.261 0 00.973 3.406 2.865 2.865 0 002.211 1.017 3.444 3.444 0 002.005-.516 7.624 7.624 0 001.416-1.312l2.653 1.651a6.303 6.303 0 01-2.638 2.389 8.895 8.895 0 01-3.79.737 6.284 6.284 0 01-2.698-.56 5.717 5.717 0 01-2.034-1.592 7.379 7.379 0 01-1.298-2.507 12.159 12.159 0 010-6.604 7.233 7.233 0 011.313-2.507 5.777 5.777 0 012.093-1.593 6.735 6.735 0 012.801-.56 5.95 5.95 0 012.67.576 5.828 5.828 0 011.96 1.547 6.848 6.848 0 011.21 2.256 8.674 8.674 0 01.411 2.668v1.504zm5.897-2.476a3.84 3.84 0 00-.84-2.477 2.953 2.953 0 00-4.217 0 3.835 3.835 0 00-.84 2.477zM77.95 98.62v-5.072h3.657v5.072h3.008v2.948h-3.008v8.67a.949.949 0 00.324.84 1.802 1.802 0 001.003.22 3.546 3.546 0 00.84-.102q.428-.104.84-.191v3.007q-.767.09-1.445.162a13.465 13.465 0 01-1.444.074 3.808 3.808 0 01-2.905-.943 3.68 3.68 0 01-.87-2.595v-9.142h-2.122V98.62zM85.233 106.286a11.123 11.123 0 01.457-3.302 7.233 7.233 0 011.312-2.506 5.78 5.78 0 012.094-1.593 7.292 7.292 0 015.603 0 5.788 5.788 0 012.093 1.593 7.247 7.247 0 011.312 2.506 12.158 12.158 0 010 6.605 7.247 7.247 0 01-1.312 2.507 5.764 5.764 0 01-2.093 1.591 7.28 7.28 0 01-5.603 0 5.756 5.756 0 01-2.094-1.591 7.233 7.233 0 01-1.312-2.507 11.125 11.125 0 01-.457-3.303zm9.672 0a7.548 7.548 0 00-.738-3.804 2.737 2.737 0 00-4.54 0 10.193 10.193 0 000 7.608 2.737 2.737 0 004.54 0 7.543 7.543 0 00.738-3.804zM120.854 98.855a4.965 4.965 0 00-1.4-2.21 3.56 3.56 0 00-2.463-.856 3.598 3.598 0 00-3.2 1.872 10.886 10.886 0 00-1.164 5.648q-.088 7.519 4.482 7.518a5.016 5.016 0 001.253-.147 3.073 3.073 0 001.061-.501 4.585 4.585 0 00.945-.958 8.8 8.8 0 00.9-1.548l3.773 1.002a8.031 8.031 0 01-2.963 4.173 8.51 8.51 0 01-4.97 1.4 7.562 7.562 0 01-6.324-2.846q-2.227-2.844-2.226-8.093 0-5.249 2.226-8.095a7.564 7.564 0 016.325-2.846 7.837 7.837 0 014.865 1.371 7.576 7.576 0 012.566 4.232zM127.045 113.953v-21.29h4.07v8.492h8.197v-8.492h4.07v21.29h-4.07v-9.14h-8.197v9.14zM147.067 113.953v-21.29h14.095v3.421h-10.026v5.071h7.283v3.421h-7.283v5.956h10.35v3.421zM174.519 98.855a4.957 4.957 0 00-1.4-2.21 3.558 3.558 0 00-2.462-.856 3.598 3.598 0 00-3.2 1.872 10.876 10.876 0 00-1.165 5.648q-.087 7.519 4.483 7.518a5.027 5.027 0 001.253-.147 3.082 3.082 0 001.061-.501 4.582 4.582 0 00.944-.958 8.739 8.739 0 00.9-1.548l3.774 1.002a8.027 8.027 0 01-2.964 4.173 8.508 8.508 0 01-4.968 1.4 7.56 7.56 0 01-6.325-2.846q-2.227-2.844-2.227-8.093 0-5.249 2.227-8.095a7.562 7.562 0 016.325-2.846 7.837 7.837 0 014.865 1.371 7.581 7.581 0 012.566 4.232zM180.623 113.953v-21.29h4.069v9.466l7.106-9.466h4.689l-6.045 7.991 7.018 13.3h-4.511l-5.279-10.115-2.978 3.716v6.398zM206.748 116.43a4.532 4.532 0 00.766.103c.236.01.491.015.767.015a3.493 3.493 0 001.518-.28 1.962 1.962 0 00.9-.93c.176-.372.32-.688.427-.942a2.169 2.169 0 00.163-.856 2.73 2.73 0 00-.163-.885c-.108-.313-.21-.629-.31-.943l-4.098-13.092h3.686l2.536 9.436h.059l2.625-9.436h3.656l-4.836 15.362a23.152 23.152 0 01-1.194 2.728 6.54 6.54 0 01-1.253 1.71 3.795 3.795 0 01-1.519.885 6.89 6.89 0 01-1.96.25c-.453 0-.808-.01-1.062-.029a6.96 6.96 0 01-.708-.088zM219.25 106.286a11.124 11.124 0 01.457-3.302 7.233 7.233 0 011.312-2.506 5.78 5.78 0 012.094-1.593 7.292 7.292 0 015.602 0 5.788 5.788 0 012.094 1.593 7.248 7.248 0 011.312 2.506 12.159 12.159 0 010 6.605 7.248 7.248 0 01-1.312 2.507 5.764 5.764 0 01-2.094 1.591 7.28 7.28 0 01-5.602 0 5.756 5.756 0 01-2.094-1.591 7.233 7.233 0 01-1.312-2.507 11.126 11.126 0 01-.457-3.303zm9.671 0a7.548 7.548 0 00-.737-3.804 2.737 2.737 0 00-4.54 0 10.193 10.193 0 000 7.608 2.737 2.737 0 004.54 0 7.543 7.543 0 00.737-3.804zM247.056 98.62v15.333h-3.361v-1.651a22.99 22.99 0 01-2.197 1.327 5.285 5.285 0 01-2.52.619 4.138 4.138 0 01-3.422-1.386 5.784 5.784 0 01-1.12-3.745V98.62h3.656v9.967a3.511 3.511 0 00.472 2.138 1.725 1.725 0 001.415.574 3.828 3.828 0 002.08-.545 6.196 6.196 0 001.34-1.076V98.62zM249.769 113.953V98.62h3.361v2.624h.06a5.708 5.708 0 011.666-2.123 4.594 4.594 0 012.639-.796v3.862a1.51 1.51 0 00-.295-.029h-.354a2.671 2.671 0 00-1.298.339 5.752 5.752 0 00-1.09.767 5.099 5.099 0 00-.752.826 1.31 1.31 0 00-.28.545v9.318zM268.257 92.663h3.657v7.372h.058a3.325 3.325 0 01.708-.678 4.816 4.816 0 01.958-.545 6.843 6.843 0 011.047-.354 4.128 4.128 0 011.003-.133 5.257 5.257 0 012.624.649 6.098 6.098 0 011.932 1.71 7.723 7.723 0 011.18 2.418 9.82 9.82 0 01.397 2.772 13.752 13.752 0 01-.383 3.332 8.17 8.17 0 01-1.15 2.653 5.54 5.54 0 01-1.916 1.755 5.484 5.484 0 01-2.684.634 4.761 4.761 0 01-2.212-.5 8.286 8.286 0 01-1.946-1.446l-.412 1.651h-2.86zm3.657 17.28q.294.236.545.472a3.473 3.473 0 00.56.427 3.249 3.249 0 00.723.325 3.325 3.325 0 001.003.132 2.892 2.892 0 002.535-1.282 8.305 8.305 0 000-7.46 2.893 2.893 0 00-2.535-1.284 3.11 3.11 0 00-1.578.399 7.404 7.404 0 00-1.253.9zM296.417 98.62v15.333h-3.362v-1.651a22.854 22.854 0 01-2.196 1.327 5.289 5.289 0 01-2.522.619 4.135 4.135 0 01-3.42-1.386 5.78 5.78 0 01-1.12-3.745V98.62h3.656v9.967a3.511 3.511 0 00.471 2.138 1.725 1.725 0 001.416.574 3.83 3.83 0 002.08-.545 6.211 6.211 0 001.34-1.076V98.62zM306.709 102.66a8.997 8.997 0 00-1.283-1.106 2.661 2.661 0 00-1.578-.516 2.439 2.439 0 00-1.562.412 1.345 1.345 0 00-.502 1.092 1.22 1.22 0 00.575 1.047 6.799 6.799 0 001.416.722q.84.325 1.843.664a7.48 7.48 0 011.842.914 5.062 5.062 0 011.415 1.473 4.172 4.172 0 01.576 2.286 4.569 4.569 0 01-.428 2.064 4.062 4.062 0 01-1.18 1.43 4.916 4.916 0 01-1.783.84 8.995 8.995 0 01-2.241.266 6.82 6.82 0 01-3.318-.796 7.196 7.196 0 01-2.49-2.3l2.446-1.829a7.535 7.535 0 001.519 1.55 3.28 3.28 0 002.049.662 2.44 2.44 0 001.578-.486 1.538 1.538 0 00.604-1.253 1.257 1.257 0 00-.575-1.062 6.332 6.332 0 00-1.415-.737q-.84-.325-1.844-.693a8.713 8.713 0 01-1.842-.929 5.084 5.084 0 01-1.415-1.415 3.831 3.831 0 01-.576-2.183 4.25 4.25 0 01.414-1.901 4.016 4.016 0 011.12-1.401 5.12 5.12 0 011.622-.855 6.212 6.212 0 011.917-.295 7.863 7.863 0 012.963.575 6.162 6.162 0 012.432 1.754zM311.573 95.79v-3.422h3.656v3.421zm3.656 18.163h-3.656V98.62h3.656zM318.238 113.953V98.62h3.361v1.651a22.656 22.656 0 012.196-1.327 5.286 5.286 0 012.522-.619 4.14 4.14 0 013.42 1.386 5.79 5.79 0 011.12 3.745v10.497h-3.655v-9.967a3.511 3.511 0 00-.472-2.137 1.727 1.727 0 00-1.416-.576 3.833 3.833 0 00-2.078.546 6.225 6.225 0 00-1.342 1.077v11.057zM336.402 106.876a5.267 5.267 0 00.973 3.406 2.868 2.868 0 002.211 1.017 3.446 3.446 0 002.005-.516 7.59 7.59 0 001.415-1.312l2.655 1.651a6.305 6.305 0 01-2.64 2.389 8.895 8.895 0 01-3.79.737 6.29 6.29 0 01-2.697-.56 5.726 5.726 0 01-2.035-1.592 7.379 7.379 0 01-1.297-2.507 12.159 12.159 0 010-6.605 7.233 7.233 0 011.312-2.506 5.78 5.78 0 012.094-1.593 6.728 6.728 0 012.8-.56 5.946 5.946 0 012.67.575 5.818 5.818 0 011.96 1.548 6.812 6.812 0 011.21 2.256 8.645 8.645 0 01.413 2.668v1.504zm5.897-2.477a3.846 3.846 0 00-.84-2.476 2.955 2.955 0 00-4.217 0 3.84 3.84 0 00-.84 2.476zM355.539 102.66a8.996 8.996 0 00-1.283-1.106 2.661 2.661 0 00-1.578-.516 2.439 2.439 0 00-1.562.412 1.345 1.345 0 00-.502 1.092 1.22 1.22 0 00.575 1.047 6.798 6.798 0 001.416.722q.84.325 1.843.664a7.48 7.48 0 011.842.914 5.062 5.062 0 011.415 1.473 4.172 4.172 0 01.576 2.286 4.569 4.569 0 01-.428 2.064 4.062 4.062 0 01-1.18 1.43 4.916 4.916 0 01-1.783.84 8.995 8.995 0 01-2.241.266 6.82 6.82 0 01-3.318-.796 7.196 7.196 0 01-2.49-2.3l2.446-1.829a7.535 7.535 0 001.519 1.55 3.28 3.28 0 002.049.662 2.44 2.44 0 001.578-.486 1.538 1.538 0 00.604-1.253 1.257 1.257 0 00-.575-1.062 6.333 6.333 0 00-1.415-.737q-.84-.325-1.843-.693a8.713 8.713 0 01-1.843-.929 5.084 5.084 0 01-1.415-1.415 3.831 3.831 0 01-.575-2.183 4.25 4.25 0 01.413-1.901 4.016 4.016 0 011.12-1.401 5.12 5.12 0 011.622-.855 6.212 6.212 0 011.917-.295 7.863 7.863 0 012.963.575 6.162 6.162 0 012.432 1.754zM368.04 102.66a8.996 8.996 0 00-1.282-1.106 2.661 2.661 0 00-1.578-.516 2.439 2.439 0 00-1.562.412 1.345 1.345 0 00-.502 1.092 1.22 1.22 0 00.575 1.047 6.799 6.799 0 001.416.722q.84.325 1.843.664a7.48 7.48 0 011.842.914 5.062 5.062 0 011.415 1.473 4.172 4.172 0 01.576 2.286 4.569 4.569 0 01-.428 2.064 4.062 4.062 0 01-1.18 1.43 4.916 4.916 0 01-1.783.84 8.995 8.995 0 01-2.241.266 6.82 6.82 0 01-3.318-.796 7.196 7.196 0 01-2.49-2.3l2.446-1.829a7.535 7.535 0 001.519 1.55 3.28 3.28 0 002.049.662 2.44 2.44 0 001.578-.486 1.538 1.538 0 00.604-1.253 1.257 1.257 0 00-.575-1.062 6.333 6.333 0 00-1.415-.737q-.84-.325-1.843-.693a8.713 8.713 0 01-1.843-.929 5.084 5.084 0 01-1.415-1.415 3.831 3.831 0 01-.575-2.183 4.25 4.25 0 01.413-1.901 4.016 4.016 0 011.12-1.401 5.12 5.12 0 011.622-.855 6.212 6.212 0 011.917-.295 7.863 7.863 0 012.963.575 6.162 6.162 0 012.432 1.754zM374.056 96.85h-1.77v-4.187h4.07v4.188l-1.888 4.422h-1.916zM58.133 142.26a5.267 5.267 0 00.973 3.406 2.868 2.868 0 002.212 1.017 3.446 3.446 0 002.005-.516 7.59 7.59 0 001.415-1.313l2.654 1.652a6.305 6.305 0 01-2.64 2.389 8.895 8.895 0 01-3.789.737 6.29 6.29 0 01-2.698-.56 5.726 5.726 0 01-2.034-1.593 7.379 7.379 0 01-1.298-2.506 12.158 12.158 0 010-6.605 7.232 7.232 0 011.313-2.507 5.78 5.78 0 012.093-1.592 6.728 6.728 0 012.801-.56 5.946 5.946 0 012.67.575 5.818 5.818 0 011.96 1.548 6.812 6.812 0 011.209 2.256 8.645 8.645 0 01.413 2.668v1.504zm5.898-2.477a3.846 3.846 0 00-.841-2.476 2.955 2.955 0 00-4.217 0 3.84 3.84 0 00-.84 2.476zM69.721 149.337v-21.29h3.656v21.29zM76.562 131.173v-3.421h3.656v3.42zm3.656 18.164h-3.656v-15.333h3.656zM95.935 136.186q-.649 0-1.297.043a2.227 2.227 0 00-1.061.31 4.86 4.86 0 01.59 1.165 4.618 4.618 0 01.235 1.548 5.217 5.217 0 01-.368 1.991 4.33 4.33 0 01-1.091 1.563 5.044 5.044 0 01-1.799 1.032 7.784 7.784 0 01-2.521.368 11.877 11.877 0 00-2.035.147q-.826.148-.826.796 0 .62.752.827a9.551 9.551 0 001.872.28q1.12.073 2.418.147a8.993 8.993 0 012.418.457 4.478 4.478 0 011.873 1.195 3.325 3.325 0 01.752 2.343 3.491 3.491 0 01-.427 1.637 4.403 4.403 0 01-1.298 1.46 7 7 0 01-2.211 1.046 11.204 11.204 0 01-3.17.398 11.412 11.412 0 01-4.969-.914 2.926 2.926 0 01-1.872-2.742 2.872 2.872 0 01.25-1.238 2.703 2.703 0 011.533-1.416 2.891 2.891 0 01.988-.177v-.058a4.843 4.843 0 00-.648-.355 4.47 4.47 0 01-.752-.441 2.34 2.34 0 01-.619-.664 1.873 1.873 0 01-.251-1.018 1.976 1.976 0 01.28-1.031 3.967 3.967 0 01.663-.841 4.352 4.352 0 01.782-.605 3.62 3.62 0 01.664-.324 8.478 8.478 0 01-1.608-1.71 4.002 4.002 0 01-.663-2.36 5.23 5.23 0 01.383-1.96 4.95 4.95 0 011.15-1.71 5.75 5.75 0 011.887-1.21 6.921 6.921 0 012.625-.456 6.086 6.086 0 012.02.368 5.326 5.326 0 011.754.988 3.225 3.225 0 011.4-1.061 5.237 5.237 0 012.197-.295zm-8.079 12.856a3.477 3.477 0 00-1.253.191 2.802 2.802 0 00-.797.457 1.448 1.448 0 00-.427.576 1.55 1.55 0 00-.118.545 1.36 1.36 0 00.885 1.297 8.41 8.41 0 003.185.413 5.013 5.013 0 001.489-.19 3.476 3.476 0 00.973-.458 1.76 1.76 0 00.53-.56 1.092 1.092 0 00.163-.501 1.012 1.012 0 00-.222-.576 2.002 2.002 0 00-.766-.575 6.065 6.065 0 00-1.43-.442 11.537 11.537 0 00-2.212-.177zm3.185-10.085a2.447 2.447 0 00-.738-1.798 2.414 2.414 0 00-1.77-.737 2.592 2.592 0 00-1.915.737 2.562 2.562 0 000 3.597 2.588 2.588 0 001.916.737 2.41 2.41 0 001.77-.737 2.448 2.448 0 00.737-1.799zM97.528 131.173v-3.421h3.656v3.42zm3.656 18.164h-3.656v-15.333h3.656zM104.163 128.047h3.656v7.372h.058a3.326 3.326 0 01.708-.678 4.816 4.816 0 01.958-.546 6.844 6.844 0 011.047-.353 4.128 4.128 0 011.003-.133 5.257 5.257 0 012.624.648 6.098 6.098 0 011.932 1.71 7.723 7.723 0 011.18 2.418 9.82 9.82 0 01.397 2.773 13.752 13.752 0 01-.383 3.332 8.17 8.17 0 01-1.15 2.653 5.54 5.54 0 01-1.916 1.755 5.484 5.484 0 01-2.684.634 4.76 4.76 0 01-2.212-.501 8.286 8.286 0 01-1.946-1.445l-.412 1.651h-2.86zm3.656 17.28q.294.236.545.472a3.474 3.474 0 00.56.427 3.249 3.249 0 00.723.325 3.325 3.325 0 001.003.132 2.892 2.892 0 002.535-1.283 8.305 8.305 0 000-7.46 2.893 2.893 0 00-2.535-1.283 3.11 3.11 0 00-1.578.399 7.404 7.404 0 00-1.253.899zM119.997 131.173v-3.421h3.656v3.42zm3.656 18.164h-3.656v-15.333h3.656zM126.837 149.337v-21.29h3.657v21.29zM133.68 131.173v-3.421h3.655v3.42zm3.655 18.164h-3.656v-15.333h3.656zM141.05 134.004v-5.072h3.657v5.072h3.007v2.948h-3.007v8.67a.951.951 0 00.324.84 1.807 1.807 0 001.003.22 3.548 3.548 0 00.84-.102q.427-.104.84-.191v3.007q-.767.089-1.444.162a13.497 13.497 0 01-1.445.074 3.804 3.804 0 01-2.905-.944 3.68 3.68 0 01-.87-2.594v-9.142h-2.123v-2.948zM148.51 151.813a4.532 4.532 0 00.767.104c.236.01.491.015.766.015a3.493 3.493 0 001.519-.28 1.962 1.962 0 00.9-.93c.176-.372.319-.688.427-.943a2.169 2.169 0 00.162-.855 2.73 2.73 0 00-.162-.885 34.26 34.26 0 01-.31-.943l-4.098-13.092h3.686l2.536 9.435h.058l2.625-9.435h3.657l-4.836 15.362a23.15 23.15 0 01-1.195 2.728 6.54 6.54 0 01-1.253 1.71 3.795 3.795 0 01-1.518.884 6.89 6.89 0 01-1.961.251c-.452 0-.807-.01-1.062-.029a6.963 6.963 0 01-.708-.089zM175.904 136.952v12.385h-3.656v-12.385h-2.123v-2.948h2.092v-1.888a7.371 7.371 0 01.251-2.078 2.965 2.965 0 01.782-1.342 3.108 3.108 0 011.356-.722 7.577 7.577 0 011.946-.222h2.418v2.95h-1.003a2.551 2.551 0 00-1.606.382 1.569 1.569 0 00-.457 1.269v1.65H179v2.95zM179.5 141.67a11.123 11.123 0 01.457-3.302 7.233 7.233 0 011.313-2.507 5.777 5.777 0 012.093-1.592 7.292 7.292 0 015.602 0 5.78 5.78 0 012.094 1.592 7.233 7.233 0 011.313 2.507 12.159 12.159 0 010 6.605 7.233 7.233 0 01-1.313 2.506 5.756 5.756 0 01-2.094 1.592 7.28 7.28 0 01-5.602 0 5.753 5.753 0 01-2.093-1.592 7.233 7.233 0 01-1.313-2.506 11.125 11.125 0 01-.457-3.303zm9.672 0a7.548 7.548 0 00-.737-3.804 2.737 2.737 0 00-4.54 0 10.18 10.18 0 000 7.608 2.737 2.737 0 004.54 0 7.543 7.543 0 00.737-3.804zM194.627 149.337v-15.333h3.362v2.624h.06a5.708 5.708 0 011.665-2.123 4.594 4.594 0 012.639-.796v3.862a1.51 1.51 0 00-.295-.029h-.353a2.671 2.671 0 00-1.298.339 5.752 5.752 0 00-1.091.766 5.1 5.1 0 00-.752.827 1.31 1.31 0 00-.28.545v9.318zM213.676 134.004v-5.072h3.657v5.072h3.007v2.948h-3.007v8.67a.949.949 0 00.324.84 1.802 1.802 0 001.003.22 3.546 3.546 0 00.84-.102q.427-.104.84-.191v3.007q-.767.089-1.445.162a13.465 13.465 0 01-1.444.074 3.808 3.808 0 01-2.906-.944 3.68 3.68 0 01-.869-2.594v-9.142h-2.123v-2.948zM222.08 149.337v-21.29h3.656v7.608a13.038 13.038 0 011.96-1.327 4.949 4.949 0 012.463-.619 4.14 4.14 0 013.42 1.386 5.79 5.79 0 011.12 3.745v10.497h-3.656v-9.967a3.511 3.511 0 00-.471-2.138 1.727 1.727 0 00-1.416-.575 3.833 3.833 0 00-2.078.546 6.225 6.225 0 00-1.342 1.076v11.058zM240.244 142.26a5.267 5.267 0 00.972 3.406 2.868 2.868 0 002.212 1.017 3.446 3.446 0 002.005-.516 7.589 7.589 0 001.415-1.313l2.654 1.652a6.305 6.305 0 01-2.64 2.389 8.895 8.895 0 01-3.788.737 6.29 6.29 0 01-2.699-.56 5.726 5.726 0 01-2.034-1.593 7.379 7.379 0 01-1.298-2.506 12.159 12.159 0 010-6.605 7.232 7.232 0 011.313-2.507 5.78 5.78 0 012.094-1.592 6.728 6.728 0 012.8-.56 5.946 5.946 0 012.67.575 5.818 5.818 0 011.96 1.548 6.812 6.812 0 011.21 2.256 8.645 8.645 0 01.412 2.668v1.504zm5.897-2.477a3.846 3.846 0 00-.84-2.476 2.955 2.955 0 00-4.217 0 3.84 3.84 0 00-.84 2.476zM273.446 136.186q-.65 0-1.298.043a2.23 2.23 0 00-1.062.31 4.79 4.79 0 01.59 1.165 4.617 4.617 0 01.237 1.548 5.198 5.198 0 01-.37 1.991 4.33 4.33 0 01-1.09 1.563 5.027 5.027 0 01-1.8 1.032 7.778 7.778 0 01-2.52.368 11.89 11.89 0 00-2.035.147q-.826.148-.825.796 0 .62.752.827a9.551 9.551 0 001.872.28q1.12.073 2.418.147a9 9 0 012.418.457 4.468 4.468 0 011.872 1.195 3.32 3.32 0 01.752 2.343 3.48 3.48 0 01-.428 1.637 4.41 4.41 0 01-1.297 1.46 6.996 6.996 0 01-2.211 1.046 11.199 11.199 0 01-3.17.398 11.418 11.418 0 01-4.97-.914 2.927 2.927 0 01-1.871-2.742 2.858 2.858 0 01.25-1.238 2.695 2.695 0 011.534-1.416 2.886 2.886 0 01.987-.177v-.058a4.842 4.842 0 00-.648-.355 4.51 4.51 0 01-.752-.441 2.355 2.355 0 01-.62-.664 1.882 1.882 0 01-.25-1.018 1.985 1.985 0 01.28-1.031 3.971 3.971 0 01.664-.841 4.284 4.284 0 01.781-.605 3.617 3.617 0 01.663-.324 8.473 8.473 0 01-1.606-1.71 4.003 4.003 0 01-.664-2.36 5.232 5.232 0 01.384-1.96 4.947 4.947 0 011.15-1.71 5.765 5.765 0 011.887-1.21 6.916 6.916 0 012.624-.456 6.081 6.081 0 012.02.368 5.306 5.306 0 011.754.988 3.225 3.225 0 011.4-1.061 5.244 5.244 0 012.198-.295zm-8.08 12.856a3.48 3.48 0 00-1.253.191 2.783 2.783 0 00-.796.457 1.45 1.45 0 00-.428.576 1.55 1.55 0 00-.118.545 1.36 1.36 0 00.885 1.297 8.41 8.41 0 003.184.413 5.013 5.013 0 001.49-.19 3.463 3.463 0 00.972-.458 1.764 1.764 0 00.531-.56 1.1 1.1 0 00.163-.501 1.01 1.01 0 00-.221-.576 1.998 1.998 0 00-.768-.575 6.035 6.035 0 00-1.43-.442 11.537 11.537 0 00-2.211-.177zm3.184-10.085a2.446 2.446 0 00-.736-1.798 2.417 2.417 0 00-1.77-.737 2.595 2.595 0 00-1.917.737 2.562 2.562 0 000 3.597 2.59 2.59 0 001.917.737 2.413 2.413 0 001.77-.737 2.447 2.447 0 00.736-1.799zM273.681 141.67a11.124 11.124 0 01.457-3.302 7.233 7.233 0 011.313-2.507 5.78 5.78 0 012.093-1.592 7.292 7.292 0 015.603 0 5.789 5.789 0 012.094 1.592 7.248 7.248 0 011.311 2.507 12.159 12.159 0 010 6.605 7.248 7.248 0 01-1.311 2.506 5.764 5.764 0 01-2.094 1.592 7.28 7.28 0 01-5.603 0 5.756 5.756 0 01-2.093-1.592 7.233 7.233 0 01-1.313-2.506 11.126 11.126 0 01-.457-3.303zm9.672 0a7.548 7.548 0 00-.737-3.804 2.737 2.737 0 00-4.541 0 10.193 10.193 0 000 7.608 2.737 2.737 0 004.54 0 7.543 7.543 0 00.738-3.804zM287.069 134.004h3.656l2.536 10.379h.059l2.595-10.38h3.656l-4.394 15.334h-3.833zM303.256 142.26a5.261 5.261 0 00.974 3.406 2.865 2.865 0 002.21 1.017 3.444 3.444 0 002.006-.516 7.624 7.624 0 001.416-1.313l2.653 1.652a6.303 6.303 0 01-2.639 2.389 8.895 8.895 0 01-3.789.737 6.284 6.284 0 01-2.698-.56 5.717 5.717 0 01-2.034-1.593 7.379 7.379 0 01-1.298-2.506 12.159 12.159 0 010-6.605 7.233 7.233 0 011.313-2.507 5.777 5.777 0 012.092-1.592 6.736 6.736 0 012.802-.56 5.949 5.949 0 012.67.575 5.828 5.828 0 011.96 1.548 6.848 6.848 0 011.209 2.256 8.674 8.674 0 01.412 2.668v1.504zm5.898-2.477a3.84 3.84 0 00-.841-2.476 2.953 2.953 0 00-4.216 0 3.835 3.835 0 00-.84 2.476zM314.55 149.337v-15.333h3.362v2.624h.06a5.708 5.708 0 011.665-2.123 4.594 4.594 0 012.639-.796v3.862a1.51 1.51 0 00-.295-.029h-.354a2.671 2.671 0 00-1.297.339 5.752 5.752 0 00-1.091.766 5.099 5.099 0 00-.752.827 1.31 1.31 0 00-.28.545v9.318zM323.72 149.337v-15.333h3.362v1.651a22.675 22.675 0 012.197-1.327 5.283 5.283 0 012.521-.619 4.136 4.136 0 013.42 1.386 5.785 5.785 0 011.121 3.745v10.497h-3.657v-9.967a3.511 3.511 0 00-.472-2.138 1.725 1.725 0 00-1.415-.575 3.836 3.836 0 00-2.079.546 6.225 6.225 0 00-1.342 1.076v11.058zM339.142 149.337v-15.333h3.332v1.651a9.11 9.11 0 012.035-1.445 5.731 5.731 0 012.566-.501 4.624 4.624 0 012.24.56 3.465 3.465 0 011.534 1.681 10.687 10.687 0 011.002-.885 6.077 6.077 0 011.165-.708 7.121 7.121 0 011.4-.471 7.604 7.604 0 011.71-.177 4.255 4.255 0 011.254.206 3.21 3.21 0 011.224.723 3.904 3.904 0 01.929 1.415 6 6 0 01.368 2.256v11.028h-3.656v-10.704a2.156 2.156 0 00-.413-1.43 1.933 1.933 0 00-1.415-.546 3.016 3.016 0 00-1.563.531 10.276 10.276 0 00-1.504 1.12v11.029h-3.656v-10.704a2.156 2.156 0 00-.413-1.43 1.933 1.933 0 00-1.415-.546 3.022 3.022 0 00-1.564.531 10.329 10.329 0 00-1.504 1.12v11.029zM365.474 142.26a5.261 5.261 0 00.974 3.406 2.865 2.865 0 002.21 1.017 3.444 3.444 0 002.006-.516 7.624 7.624 0 001.416-1.313l2.653 1.652a6.303 6.303 0 01-2.639 2.389 8.895 8.895 0 01-3.789.737 6.284 6.284 0 01-2.698-.56 5.718 5.718 0 01-2.034-1.593 7.379 7.379 0 01-1.298-2.506 12.159 12.159 0 010-6.605 7.233 7.233 0 011.312-2.507 5.777 5.777 0 012.093-1.592 6.736 6.736 0 012.802-.56 5.949 5.949 0 012.669.575 5.828 5.828 0 011.96 1.548 6.848 6.848 0 011.21 2.256 8.674 8.674 0 01.412 2.668v1.504zm5.898-2.477a3.84 3.84 0 00-.841-2.476 2.953 2.953 0 00-4.216 0 3.835 3.835 0 00-.84 2.476zM376.885 149.337v-15.333h3.362v1.651a22.675 22.675 0 012.197-1.327 5.283 5.283 0 012.521-.619 4.136 4.136 0 013.42 1.386 5.785 5.785 0 011.121 3.745v10.497h-3.657v-9.967a3.511 3.511 0 00-.472-2.138 1.725 1.725 0 00-1.415-.575 3.836 3.836 0 00-2.079.546 6.225 6.225 0 00-1.341 1.076v11.058zM392.957 134.004v-5.072h3.656v5.072h3.008v2.948h-3.008v8.67a.949.949 0 00.324.84 1.802 1.802 0 001.003.22 3.546 3.546 0 00.84-.102q.428-.104.84-.191v3.007q-.767.089-1.445.162a13.465 13.465 0 01-1.444.074 3.808 3.808 0 01-2.905-.944 3.68 3.68 0 01-.87-2.594v-9.142h-2.122v-2.948zM43.193 184.722v-21.29h4.07v21.29zM51.095 184.722v-21.29h4.246l8.374 14.507h.06v-14.507h3.833v21.29h-3.922l-8.698-15.157h-.06v15.157zM81.142 169.094a4.654 4.654 0 00-1.415-2.005 3.663 3.663 0 00-2.389-.768 3.91 3.91 0 00-2.181.56 1.993 1.993 0 00-.856 1.8 1.826 1.826 0 00.812 1.518 9.636 9.636 0 002.034 1.12q1.223.517 2.639 1.047a14.125 14.125 0 012.64 1.313 7.221 7.221 0 012.034 1.931 4.837 4.837 0 01.811 2.86 6.046 6.046 0 01-1.946 4.925 8.382 8.382 0 01-5.515 1.622 9.33 9.33 0 01-4.836-1.357 7.84 7.84 0 01-1.872-1.593 7.088 7.088 0 01-1.253-2.092l3.361-1.475a7.578 7.578 0 001.785 2.418 4.174 4.174 0 002.845.914 6.365 6.365 0 001.415-.147 3.222 3.222 0 001.135-.487 2.372 2.372 0 00.767-.884 2.831 2.831 0 00.28-1.313 2.18 2.18 0 00-.81-1.725 8.676 8.676 0 00-2.035-1.253q-1.224-.56-2.64-1.091a15.249 15.249 0 01-2.638-1.283 7.287 7.287 0 01-2.035-1.828 4.405 4.405 0 01-.81-2.727 5.588 5.588 0 01.56-2.536 5.5 5.5 0 011.503-1.872 6.794 6.794 0 012.182-1.15 8.973 8.973 0 017.195.84 7.268 7.268 0 012.949 3.567zM101.666 163.402v3.421h-5.574v17.899h-4.069v-17.899H86.45v-3.42zM106.176 163.402h5.073l6.044 21.32h-4.04l-1.18-4.6h-6.722l-1.268 4.6h-4.04zm.06 13.358h4.953l-2.388-9.259h-.06zM119.15 184.722v-21.29h4.247l8.374 14.507h.059v-14.507h3.834v21.29h-3.922l-8.7-15.157h-.058v15.157zM152.825 163.402v3.421h-5.574v17.899h-4.069v-17.899h-5.573v-3.42zM168.364 163.402h5.072l6.045 21.32h-4.04l-1.18-4.6h-6.722l-1.269 4.6h-4.039zm.06 13.358h4.952l-2.387-9.259h-.06zM191.364 169.094a4.654 4.654 0 00-1.415-2.005 3.665 3.665 0 00-2.389-.768 3.915 3.915 0 00-2.183.56 1.992 1.992 0 00-.854 1.8 1.825 1.825 0 00.81 1.518 9.66 9.66 0 002.035 1.12q1.224.517 2.64 1.047a14.117 14.117 0 012.638 1.313 7.225 7.225 0 012.035 1.931 4.844 4.844 0 01.81 2.86 6.043 6.043 0 01-1.946 4.925 8.38 8.38 0 01-5.513 1.622 9.323 9.323 0 01-4.836-1.357 7.821 7.821 0 01-1.872-1.593 7.091 7.091 0 01-1.254-2.092l3.361-1.475a7.578 7.578 0 001.784 2.418 4.178 4.178 0 002.846.914 6.365 6.365 0 001.415-.147 3.22 3.22 0 001.136-.487 2.39 2.39 0 00.766-.884 2.844 2.844 0 00.28-1.313 2.178 2.178 0 00-.81-1.725 8.656 8.656 0 00-2.035-1.253q-1.225-.56-2.639-1.091a15.224 15.224 0 01-2.64-1.283 7.283 7.283 0 01-2.034-1.828 4.405 4.405 0 01-.811-2.727 5.588 5.588 0 01.56-2.536 5.502 5.502 0 011.504-1.872 6.799 6.799 0 012.182-1.15 8.975 8.975 0 017.195.84 7.261 7.261 0 012.949 3.567zM208.525 169.094a4.654 4.654 0 00-1.415-2.005 3.665 3.665 0 00-2.389-.768 3.915 3.915 0 00-2.182.56 1.992 1.992 0 00-.855 1.8 1.825 1.825 0 00.81 1.518 9.66 9.66 0 002.035 1.12q1.224.517 2.64 1.047a14.117 14.117 0 012.638 1.313 7.225 7.225 0 012.035 1.931 4.844 4.844 0 01.81 2.86 6.043 6.043 0 01-1.945 4.925 8.38 8.38 0 01-5.514 1.622 9.323 9.323 0 01-4.836-1.357 7.822 7.822 0 01-1.872-1.593 7.091 7.091 0 01-1.254-2.092l3.361-1.475a7.578 7.578 0 001.784 2.418 4.178 4.178 0 002.846.914 6.365 6.365 0 001.415-.147 3.22 3.22 0 001.136-.487 2.39 2.39 0 00.767-.884 2.844 2.844 0 00.28-1.313 2.178 2.178 0 00-.812-1.725 8.656 8.656 0 00-2.034-1.253q-1.225-.56-2.639-1.091a15.224 15.224 0 01-2.64-1.283 7.283 7.283 0 01-2.033-1.828 4.405 4.405 0 01-.812-2.727 5.588 5.588 0 01.56-2.536 5.502 5.502 0 011.505-1.872 6.8 6.8 0 012.181-1.15 8.975 8.975 0 017.195.84 7.261 7.261 0 012.949 3.567zM215.336 184.722v-21.29h14.095v3.42h-10.026v5.072h7.284v3.42h-7.284v5.957h10.35v3.42zM246.15 163.402v3.421h-5.573v17.899h-4.07v-17.899h-5.572v-3.42zM255.733 163.432h3.804l2.683 14.36h.059l3.037-14.36h4.187l2.802 14.36h.059l2.919-14.36h3.803l-4.422 21.29h-4.128l-3.097-15.157h-.059l-3.066 15.157h-4.128zM281.003 184.722v-21.29h8.493a8.804 8.804 0 013.095.487 5.286 5.286 0 013.318 3.347 7.512 7.512 0 01.398 2.476 5.89 5.89 0 01-.958 3.45 5.066 5.066 0 01-2.934 2.035l4.688 9.495h-4.512l-4.01-8.67h-3.508v8.67zm4.07-11.972h3.008a5.22 5.22 0 003.272-.752 3.318 3.318 0 000-4.512 3.86 3.86 0 00-2.565-.752h-3.715zM299.58 184.722v-21.29h4.069v21.29zM321.046 163.402v3.421h-5.573v17.899h-4.07v-17.899h-5.571v-3.42zM323.022 184.722v-21.29h14.095v3.42H327.09v5.072h7.284v3.42h-7.284v5.957h10.35v3.42zM338.444 178.647v-3.184h7.224v3.184zM365.69 174.077q0 5.249-2.27 8.094a9.226 9.226 0 01-13.329 0q-2.272-2.845-2.27-8.094 0-5.248 2.27-8.095a9.226 9.226 0 0113.328 0q2.27 2.847 2.27 8.095zm-4.07 0a10.773 10.773 0 00-1.18-5.647 4.565 4.565 0 00-7.371 0 10.773 10.773 0 00-1.18 5.647 10.35 10.35 0 001.136 5.647 4.104 4.104 0 003.73 1.872 4.041 4.041 0 003.686-1.872 10.767 10.767 0 001.18-5.647zM368.107 184.722v-21.29h13.564v3.42h-9.495v5.072h7.107v3.42h-7.107v9.378zM383.558 184.722v-21.29h13.565v3.42h-9.496v5.072h7.107v3.42h-7.107v9.378z" fill="#fff"/><path d="M396.481 168.938l3.094-6.448h1.72l3.093 6.447h-1.89l-2.064-4.521-2.08 4.522zM406.738 184.722v-4.188h4.07v4.188z" fill="#fff"/></svg>