<svg xmlns="http://www.w3.org/2000/svg" viewBox="0 0 970 250"><path d="M32.598 179.862l-.046-.054h-.036l.063.162zm.09 3.723h-.036v.161h.036zm.146-.675l-.018-.16-.019.052zm.018-2.698l-.055-.053h-.018v.161l.037.108zm.073.863v.46h.018zm.018.406v.054l.027.054zm.045.54l-.045.107h-.073l.037.162-.018.351.154.053.018-.16-.036-.352.054-.108.037-.216-.09-.108zm.164-.946h-.036v.136l.036.053zm0 1.62v-.109l.036-.35-.054.135zm.182.215v-.108l-.073-.053-.018.107.036.108zm.318.944l-.036.055-.019.108h.037zm.018-1.78l-.036.108.036.243.037.054.063-.054-.045-.783zm.228-.999l-.037.136-.018.108.073-.055zm.163-1.024l-.018.108-.09.108-.019.27h.073l.154-.486-.082-.189zm-.018 1.375l-.018.11.018.161.118.161.073-.054.018-.215-.155.161zm.227-.404v-.108l-.018-.108-.109-.054v.108zm.055 1.62l.018-.109v-.108l-.09-.189h-.156l.046.19.11.053zm.036-2.375l-.036.053-.019.054.055.648zm.037 1.483v-.16l-.019-.109-.054-.055.054.378.11.324.027-.108zm.136-1.483h-.046l-.036.215.082-.054zm0 .54l-.018-.055-.046-.054-.09.054.054.215.1.108zm.11 1.16l.017.161v-.162zm.053-1.755v-.108l-.036.055v.108zm.073 1.377v.108l.055-.055-.037-.107zm-.09-.054l-.019-.054h-.036l-.055.161.073.324h-.055l-.154.405-.018.162.118.27.036-.109.073.055.091.593.054-.054-.036-.054v-.324l.054-.16.02-.217h-.074l-.036-.108.018-.135-.018-.27-.055-.054zm.2.54l-.019-.055h-.036v.108l.036.054zm0-.217h.081v-.108h-.082zm.208-.539h-.036l-.036.162.072.485zm0 2.023l-.036.054.018.053zm.128-1.268h-.073l-.164-.216.11.621.072.162v-.459zm-.019 1.16l.02-.107-.02-.055-.072.216zm0-2.212l-.018.107.018.135h.037l.018-.135-.018-.107zm.137.675l-.064-.055.027.108zm0 1.322l-.037.053.02.055zm-.064.944v.108l.064.215h.036l.018-.107-.018-.162zm.264-1.377l.036.055.091-.055v-.35h-.036zm-.164-.944l-.018.108v.216l-.036.216v.243l.036.108h.036l.146-.513.073-.054.136.054-.018-.216-.064-.107-.2-.108zm.646.324l-.055.054.036.108zm.018.62v-.107l-.018-.108-.055-.08-.073.188zm.118.433l-.036.053.018.108zm.018-.27l.018-.108-.036-.405zm.018 1.537l-.036.054.018.054zm.073-2.428l-.018-.108-.055-.108-.072.055-.037.161.073.054.018.216.073-.054zm.127-.539l-.054.053-.055.11.055.215.036-.055zm.082.485l-.045.054-.018.162.081-.162zm.073 0l-.019.108v.054l.037-.108zm.536 2.213v.107l.037.108.036-.269-.036-.054zm.155-2.59l-.028.108-.127.162.055.431.1-.378.018-.215zm.181-.055v.11l.073.215-.018-.486zm.182.325v.107l.082.054zm.21.836l-.037-.054-.09.107.072.216.036-.053zm.181 1.321l-.018.11.046.053zm.1-2.157v-.055h-.054zm.146 1.267l.036.055h.036l.02-.217h-.038zm.036-1.052l-.036.054-.073.324h.091l.11.296v-.35zm.11-.215l-.037-.216-.037-.055-.072.055.018.108.073.108zm.081.053l-.037.054.02.054zm.31 0l-.019-.053-.018-.108-.073-.054-.055.107v.108l.073.054zm.063.783l-.019-.108-.018-.054zm0-.89v.107h.054v-.16zm.09.728l-.036-.08-.018.134.018.108zm.164-.945l-.036.055.018.054zm34.99-1.456h-.037l-.019.19h.055zm.217 3.157l-.018.053.036.216zm.191-.89v-.109l-.018-.054zm.018 1.834v-.217l-.072-.108-.064.055zm.037-1.7l-.109.108-.046.107-.018.216.1.054.073-.107zm.036.593h-.055l.02.163h.035zm-1.269-.728l-.054-.162-.073.162.055.19.018-.136zm.173 1.295l-.036.054v.108h.036zm.055-.297h-.09l.035.108h.036zm.054-.998l-.036.054v.46zm-.036-.486v.162l.054-.054zm.3-.16v.268l.054.162v-.216zm.145.592l-.054.054.018.054zm.173-.378l-.046-.054-.09.216v.108h.054zm.11 1.43v-.107l-.092-.108-.018-.217-.064-.053.018.161zm.036-1.106l.017-.108-.036-.108h-.073l.055.513.073-.054.054-.297.055-.108.036.216.046.054.018-.108-.018-.108-.082-.108h-.073l-.036.216zm.145-.917v.486h.154l.02-.055-.092-.378zm.173-.729v.216l.054-.108-.018-.108zm.2-.215l-.018-.055-.037.108zm.036 1.7l-.037-.055h-.072l-.055.108-.018.054zm.082-.217v.108l.054.162.02-.89zm.272-.108h-.09l-.037-.053.018.161.073.054zm.055.216l-.018.108.045.162.037-.054-.019-.216zm-.036 2.105v.108l.036.161.154-.053zm.245-2.213l.055-.215-.037.054zm.318.27l-.036-.054h-.037l-.036.162.036.054zm0 .566l-.036.055.018.431zm.2.108l-.036-.053-.018.108.036.053zm.018-.674h-.036l-.036.108.054.297zm.137.46l-.018-.109-.019-.08-.063.188.045.054zm-.037.592l.02-.053.017-.109-.018-.108-.037-.053zm.273-3.21v-.108l-.036.054zm-.073 1.62v.16l.11.108-.037-.215zm.191.376v.108l.037.108.036-.162zm.164-.594l-.036-.135h-.037l-.036.19.054.053zm-.036-.458l.018.108.054.053-.018-.107zm1.4.27l.018-.054-.019-.108H78zm0 1.78l.018-.107-.037-.055L78 183.91zm.09-.998l-.036.054.036.378zm-.072.324v.108l.054.135.018-.135-.036-.108zm.745-.432l-.027-.108h-.037zm-.209.432h-.036l-.037.108.055.404.091.162.09-.054.046-.269-.082-.162-.036.215-.073.055v-.62zm.127 1.052l.018.108h.064l-.064-.162zm.3-2.023h-.054l.054.161zm.11 3.13l-.037.053-.018.108h.054zm-47.193-1.592l-.018-.108v-.513l.036-.216v-.89l-.018-.108v-.54l.055-.323.127-.35.118-.109.218-.055.246.108.09-.053.055.162.118-.217.055.108h.2l.036-.053.036.216h.064l.055-.216h.663l.1.162.146-.109h.481l.037.055h.264l.145-.108.173.108.41-.108.035.053h.227l.037-.053h.31l.117.108h.373l.036-.055h.391l.036.055.073-.108h.518l.337.108.081-.108.091.053.337-.16.054.107H74.26l.018.053h-.832l.036-.053h1.21l.035-.055h.264l.037.108.018.27.036-.053v-.162l.036-.108h.5l.037.053h.263l.037-.053h.263l.091.108.173-.163.145.055.11-.055.481.163.046-.055h.273l.036-.053h.636l.054.27.037-.325.41.108.172-.108h.336l.182.108.127.163.118.566.037.837-.019.108v.54l-.018.053v1.376l.018.108-.036.567-.082.377-.145.054-.145.296h-.246l-.036-.08h-.228l-.018.08h-.336l-.036-.08h-.946l-.036.08h-.282l-.037-.08h-.299l-.037.08-.318-.08-.09-.162-.128.162-.318-.053-.037.053h-.409l-.036-.053h-.264l-.036.053h-.763l-.037.08h-.19l-.183-.133-.354.053-.037-.053h-.145l-.045.053h1.122l-.036-.053h-.19l-.182.188-34.97-.135-.055.135-.3-.188h-.664l-.036.053-.437.08-.036-.08-.337.08v-.35l-.036.054-.036.216-.037.08-.48-.133-.038.053h-.318l-.036.08-.655-.188-.073.188-.227.055-.073-.135h-.145l-.036.08h-.228l-.036-.133-.073-.055-.373.108-.109-.162-.054.11-.337.052-.017-.108-.064-.054-.2.162h-.555l-.045.08-.218-.133-.073-.163-.036.296-.355-.08-.136-.162-.109-.269-.055-.486zM380.224 179.862l-.046-.054h-.037l.065.162zm.092 3.723h-.037v.161h.037zm.147-.675l-.019-.16-.018.052zm.018-2.698l-.055-.053h-.019v.161l.037.108zm.073.863v.46h.02zm.02.406v.054l.026.054zm.045.54l-.046.107h-.073l.036.162-.018.351.156.053.018-.16-.037-.352.056-.108.036-.216-.092-.108zm.165-.946h-.037v.136l.037.053zm0 1.62v-.109l.037-.35-.055.135zm.184.215v-.108l-.074-.053-.018.107.036.108zm.321.944l-.037.055-.018.108h.036zm.018-1.78l-.037.108.037.243.037.054.064-.054-.046-.783zm.23-.999l-.037.136-.019.108.074-.055zm.165-1.024l-.018.108-.092.108-.019.27h.074l.156-.486-.083-.189zm-.018 1.375l-.019.11.02.161.118.161.073-.054.02-.215-.158.161zm.23-.404v-.108l-.019-.108-.11-.054v.108zm.054 1.62l.018-.109v-.108l-.09-.189h-.158l.047.19.11.053zm.037-2.375l-.037.053-.018.054.055.648zm.037 1.483v-.16l-.019-.109-.055-.055.055.378.11.324.028-.108zm.137-1.483h-.046l-.037.215.083-.054zm0 .54l-.018-.055-.046-.054-.092.054.055.215.101.108zm.11 1.16l.02.161v-.162zm.055-1.755v-.108l-.036.055v.108zm.074 1.377v.108l.055-.055-.037-.107zm-.092-.054l-.018-.054h-.037l-.055.161.073.324h-.055l-.156.405-.018.162.12.27.036-.109.073.055.092.593.055-.054-.036-.054v-.324l.054-.16.02-.217h-.074l-.037-.108.018-.135-.018-.27-.055-.054zm.202.54l-.018-.055h-.037v.108l.037.054zm0-.217h.083v-.108h-.083zm.211-.539h-.037l-.036.162.073.485zm0 2.023l-.037.054.02.053zm.13-1.268h-.075l-.165-.216.11.621.074.162v-.459zm-.02 1.16l.02-.107-.02-.055-.073.216zm0-2.212l-.018.107.018.135h.037l.018-.135-.018-.107zm.138.675l-.064-.055.027.108zm0 1.322l-.037.053.02.055zm-.064.944v.108l.064.215h.037l.018-.107-.018-.162zm.266-1.377l.037.055.091-.055v-.35h-.036zm-.165-.944l-.019.108v.216l-.036.216v.243l.036.108h.037l.147-.513.073-.054.138.054-.018-.216-.065-.107-.2-.108zm.651.324l-.055.054.037.108zm.02.62v-.107l-.02-.108-.055-.08-.073.188zm.118.433l-.037.053.02.108zm.018-.27l.02-.108-.038-.405zm.02 1.537l-.038.054.018.054zm.072-2.428l-.018-.108-.055-.108-.074.055-.036.161.073.054.018.216.074-.054zm.13-.539l-.056.053-.055.11.055.215.036-.055zm.081.485l-.045.054-.019.162.083-.162zm.074 0l-.019.108v.054l.037-.108zm.541 2.213v.107l.037.108.037-.269-.037-.054zm.156-2.59l-.027.108-.129.162.056.431.1-.378.02-.215zm.184-.055v.11l.073.215-.018-.486zm.184.325v.107l.082.054zm.211.836l-.037-.054-.092.107.074.216.036-.053zm.183 1.321l-.018.11.046.053zm.101-2.157v-.055h-.055zm.147 1.267l.037.055h.037l.018-.217h-.037zm.037-1.052l-.037.054-.073.324h.091l.11.296v-.35zm.11-.215l-.037-.216-.036-.055-.074.055.018.108.074.108zm.083.053l-.037.054.018.054zm.312 0l-.019-.053-.018-.108-.073-.054-.056.107v.108l.074.054zm.064.783l-.018-.108-.019-.054zm0-.89v.107h.055v-.16zm.092.728l-.037-.08-.018.134.018.108zm.165-.945l-.037.055.02.054zm34.864-1.456h-.037l-.018.19h.055zm.22 3.157l-.018.053.037.216zm.193-.89v-.109l-.018-.054zm.018 1.834v-.217l-.073-.108-.064.055zm.037-1.7l-.11.108-.046.107-.018.216.101.054.073-.107zm.037.593h-.055l.018.163h.037zm-1.28-.728l-.056-.162-.074.162.056.19.018-.136zm.174 1.295l-.037.054v.108h.037zm.054-.297h-.09l.036.108h.036zm.056-.998l-.037.054v.46zm-.037-.486v.162l.055-.054zm.303-.16v.268l.055.162v-.216zm.146.592l-.054.054.018.054zm.175-.378l-.046-.054-.092.216v.108h.056zm.11 1.43v-.107l-.092-.108-.018-.217-.064-.053.018.161zm.037-1.106l.018-.108-.036-.108h-.074l.055.513.074-.054.055-.297.055-.108.036.216.046.054.02-.108-.02-.108-.082-.108h-.074l-.036.216zm.147-.917v.486h.156l.018-.055-.092-.378zm.174-.729v.216l.055-.108-.018-.108zm.202-.215l-.018-.055-.037.108zm.037 1.7l-.037-.055h-.073l-.055.108-.019.054zm.082-.217v.108l.056.162.018-.89zm.276-.108h-.092l-.037-.053.02.161.072.054zm.055.216l-.018.108.045.162.037-.054-.018-.216zm-.037 2.105v.108l.037.161.156-.053zm.248-2.213l.055-.215-.036.054zm.321.27l-.036-.054h-.037l-.037.162.037.054zm0 .566l-.036.055.018.431zm.202.108l-.036-.053-.019.108.037.053zm.018-.674h-.036l-.037.108.055.297zm.138.46l-.018-.109-.019-.08-.064.188.046.054zm-.037.592l.02-.053.017-.109-.018-.108-.037-.053zm.276-3.21v-.108l-.037.054zm-.073 1.62v.16l.11.108-.037-.215zm.192.376v.108l.037.108.037-.162zm.165-.594l-.036-.135h-.037l-.037.19.055.053zm-.036-.458l.018.108.055.053-.018-.107zm1.413.27l.02-.054-.02-.108h-.045zm0 1.78l.02-.107-.038-.055-.027 1.215zm.092-.998l-.037.054.037.378zm-.073.324v.108l.055.135.018-.135-.037-.108zm.752-.432l-.027-.108h-.037zm-.21.432h-.037l-.037.108.055.404.092.162.091-.054.046-.269-.082-.162-.037.215-.073.055v-.62zm.128 1.052l.018.108h.064l-.064-.162zm.303-2.023h-.055l.055.161zm.11 3.13l-.037.053-.018.108h.055zm-47.187-1.592l-.018-.108v-.513l.036-.216v-.89l-.018-.108v-.54l.055-.323.13-.35.118-.109.22-.055.248.108.092-.053.055.162.12-.217.054.108h.203l.036-.053.037.216h.064l.055-.216h.67l.101.162.147-.109h.486l.037.055h.267l.146-.108.175.108.413-.108.036.053h.23l.037-.053h.312l.12.108h.375l.037-.055h.395l.037.055.073-.108h.523l.34.108.082-.108.092.053.34-.16.055.107h35.25l.018.053h-.84l.037-.053h1.22l.037-.055h.266l.037.108.018.27.037-.053v-.162l.037-.108h.505l.036.053h.266l.037-.053h.266l.092.108.174-.163.147.055.11-.055.487.163.046-.055h.275l.037-.053h.643l.055.27.036-.325.413.108.175-.108h.34l.183.108.13.163.118.566.037.837-.019.108v.54l-.018.053v1.376l.018.108-.036.567-.083.377-.147.054-.147.296h-.248l-.036-.08h-.23l-.018.08h-.34l-.037-.08h-.954l-.037.08h-.285l-.036-.08h-.303l-.037.08-.32-.08-.093-.162-.128.162-.322-.053-.036.053h-.414l-.036-.053h-.266l-.037.053h-.77l-.038.08h-.192l-.184-.133-.358.053-.037-.053h-.147l-.046.053h1.134l-.036-.053h-.193l-.184.188-34.845-.135-.055.135-.303-.188h-.67l-.037.053-.44.08-.038-.08-.339.08v-.35l-.037.054-.036.216-.037.08-.487-.133-.036.053h-.322l-.037.08-.66-.188-.074.188-.229.055-.074-.135h-.147l-.036.08h-.23l-.036-.133-.074-.055-.376.108-.11-.162-.055.11-.34.052-.018-.108-.065-.054-.202.162h-.56l-.046.08-.22-.133-.073-.163-.037.296-.358-.08-.138-.162-.11-.269-.055-.486z" fill="red"/><path d="M110.404 177.226a.45.45 0 01.41.604l-5.37 14.187a.439.439 0 01-.43.301h-1.423a.459.459 0 01-.431-.301l-1.467-3.903a6.047 6.047 0 01-.28-.884v.022a9.96 9.96 0 01-.28.862l-1.488 3.903a.432.432 0 01-.41.301h-1.422a.44.44 0 01-.432-.301l-5.39-14.187a.372.372 0 01-.021-.151.455.455 0 01.452-.453h2.049a.44.44 0 01.431.301l3.32 8.776a6.64 6.64 0 01.28.862l.022.043a7.3 7.3 0 01.28-.905l1.1-2.889-2.113-5.584a.373.373 0 01-.021-.151.455.455 0 01.452-.453h2.049a.434.434 0 01.41.301l.452 1.165c.108.28.194.582.28.884a6.047 6.047 0 01.28-.884l.432-1.165a.44.44 0 01.43-.301h2.05a.453.453 0 01.43.604l-2.113 5.584 1.1 2.889c.108.302.194.603.28.905.087-.302.173-.603.28-.905l3.342-8.776a.44.44 0 01.432-.301zM120.661 177.226a.442.442 0 01.453.453v2.113a.441.441 0 01-.453.452h-1.056v9.056h1.056a.442.442 0 01.453.453v2.112a.442.442 0 01-.453.453h-5.131a.442.442 0 01-.453-.453v-2.112a.442.442 0 01.453-.453h1.057v-9.056h-1.057a.441.441 0 01-.453-.452v-2.113a.442.442 0 01.453-.453zM135.406 177.226a.442.442 0 01.452.453v2.113a.441.441 0 01-.452.452h-3.32v11.621a.442.442 0 01-.453.453h-2.113a.442.442 0 01-.453-.453v-11.62h-3.32a.441.441 0 01-.453-.453v-2.113a.442.442 0 01.453-.453zM150.171 177.226a.442.442 0 01.453.453v14.186a.442.442 0 01-.453.453h-2.112a.443.443 0 01-.453-.453v-5.584h-4.528v5.584a.443.443 0 01-.453.453h-2.113a.442.442 0 01-.452-.453V177.68a.442.442 0 01.452-.453h2.113a.443.443 0 01.453.453v5.584h4.528v-5.584a.443.443 0 01.453-.453zM169.527 177.226a.44.44 0 01.432.323l4.269 14.187c0 .043.021.086.021.13a.455.455 0 01-.453.452h-2.07a.466.466 0 01-.452-.323l-.798-2.695h-4.226l-.82 2.695a.459.459 0 01-.43.323h-2.07a.455.455 0 01-.431-.582l4.247-14.187a.46.46 0 01.431-.323zm-1.4 5.778l-.971 3.277h2.414l-.991-3.277c-.087-.302-.151-.604-.216-.905a7.03 7.03 0 01-.237.905zM196.127 177.226a.443.443 0 01.453.453v14.186a.443.443 0 01-.453.453h-2.286a.482.482 0 01-.41-.258l-3.945-8a6.317 6.317 0 01-.366-.883v8.688a.443.443 0 01-.453.453h-2.113a.442.442 0 01-.453-.453V177.68a.442.442 0 01.453-.453h2.285a.485.485 0 01.41.258l3.945 8a6.377 6.377 0 01.367.883v-8.688a.442.442 0 01.453-.453zM209.081 177.226a.442.442 0 01.453.453v2.113a.441.441 0 01-.453.452H203.8v3.019h3.773a.442.442 0 01.453.453v2.112a.442.442 0 01-.453.453h-3.773v3.019h5.282a.442.442 0 01.453.453v2.112a.442.442 0 01-.453.453h-7.848a.442.442 0 01-.453-.453V177.68a.442.442 0 01.453-.453zM232.17 177.226a.45.45 0 01.409.604l-5.369 14.187a.439.439 0 01-.431.301h-1.423a.459.459 0 01-.431-.301l-1.466-3.903a6.047 6.047 0 01-.28-.884v.022a9.96 9.96 0 01-.281.862l-1.488 3.903a.432.432 0 01-.41.301h-1.422a.44.44 0 01-.431-.301l-5.39-14.187a.373.373 0 01-.022-.151.455.455 0 01.453-.453h2.048a.44.44 0 01.431.301l3.32 8.776a6.638 6.638 0 01.28.862l.022.043a7.3 7.3 0 01.28-.905l1.1-2.889-2.113-5.584a.372.372 0 01-.021-.151.455.455 0 01.452-.453h2.049a.434.434 0 01.41.301l.452 1.165c.108.28.194.582.28.884a6.047 6.047 0 01.28-.884l.432-1.165a.44.44 0 01.43-.301h2.05a.453.453 0 01.43.604l-2.112 5.584 1.1 2.889c.107.302.193.603.28.905.086-.302.172-.603.28-.905l3.342-8.776a.44.44 0 01.43-.301zM252.86 177.226a.436.436 0 01.323.13l.949.948a.441.441 0 01.13.323v7.008a.44.44 0 01-.13.323l-.949.948a.437.437 0 01-.323.13h-.949a2.62 2.62 0 01.474.69l1.833 3.946a.615.615 0 01.043.193.456.456 0 01-.452.453h-2.07a.481.481 0 01-.41-.258l-2.328-5.024h-1.531v4.83a.443.443 0 01-.453.452h-2.113a.442.442 0 01-.453-.453V177.68a.442.442 0 01.453-.453zm-4.938 3.018a.442.442 0 00-.452.453v2.824a.436.436 0 00.13.324l.042.043a.436.436 0 00.324.13h2.78a.438.438 0 00.324-.13l.043-.043a.436.436 0 00.13-.324v-2.78a.438.438 0 00-.13-.324l-.043-.043a.438.438 0 00-.323-.13zM265.49 177.226a.44.44 0 01.432.323l4.269 14.187c0 .043.021.086.021.13a.455.455 0 01-.452.452h-2.07a.466.466 0 01-.453-.323l-.797-2.695h-4.227l-.819 2.695a.459.459 0 01-.431.323h-2.07a.455.455 0 01-.431-.582l4.248-14.187a.46.46 0 01.43-.323zm-1.4 5.778l-.97 3.277h2.414l-.992-3.277c-.086-.302-.15-.604-.216-.905a7.03 7.03 0 01-.237.905zM287.457 177.226a.443.443 0 01.453.453v14.186a.443.443 0 01-.453.453h-2.113a.442.442 0 01-.452-.453v-6.834c-.087.302-.173.604-.28.884l-2.308 6.102a.44.44 0 01-.43.301h-1.424a.44.44 0 01-.431-.301l-2.307-6.102c-.108-.28-.194-.582-.28-.884v6.834a.443.443 0 01-.453.453h-2.113a.442.442 0 01-.453-.453V177.68a.442.442 0 01.453-.453h2.263a.433.433 0 01.41.301l3.342 8.797c.108.28.194.582.28.884.087-.302.173-.604.281-.884l3.342-8.797a.433.433 0 01.41-.301zM309.874 177.226a.442.442 0 01.452.453v2.113a.441.441 0 01-.452.452h-3.32v11.621a.442.442 0 01-.453.453h-2.114a.442.442 0 01-.452-.453v-11.62h-3.32a.441.441 0 01-.453-.453v-2.113a.442.442 0 01.452-.453zM322.936 177.226a.436.436 0 01.323.13l.949.948a.44.44 0 01.129.323v7.008a.438.438 0 01-.13.323l-.948.948a.436.436 0 01-.323.13h-.95a2.62 2.62 0 01.475.69l1.833 3.946a.627.627 0 01.043.193.456.456 0 01-.453.453h-2.07a.481.481 0 01-.41-.258l-2.328-5.024h-1.53v4.83a.443.443 0 01-.454.452h-2.112a.442.442 0 01-.453-.453V177.68a.442.442 0 01.453-.453zm-4.938 3.018a.442.442 0 00-.452.453v2.824a.436.436 0 00.129.324l.043.043a.436.436 0 00.323.13h2.781a.438.438 0 00.324-.13l.043-.043a.436.436 0 00.13-.324v-2.78a.438.438 0 00-.13-.324l-.043-.043a.438.438 0 00-.324-.13zM338.65 177.226a.442.442 0 01.453.453v13.238a.438.438 0 01-.13.323l-.948.95a.439.439 0 01-.324.128h-7.761a.439.439 0 01-.324-.129l-.948-.949a.438.438 0 01-.13-.323v-13.238a.442.442 0 01.453-.453h2.113a.443.443 0 01.453.453v11.125a.436.436 0 00.13.323l.042.044a.439.439 0 00.323.129h3.536a.439.439 0 00.324-.13l.043-.043a.436.436 0 00.13-.323v-11.125a.443.443 0 01.452-.453zM351.733 177.226a.436.436 0 01.324.13l.948.948a.44.44 0 01.13.323v2.674a.443.443 0 01-.453.453h-2.113a.442.442 0 01-.453-.453v-.56a.438.438 0 00-.13-.324l-.042-.043a.438.438 0 00-.324-.13h-2.781a.436.436 0 00-.323.13l-.043.043a.438.438 0 00-.13.323v8.064a.436.436 0 00.13.323l.043.044a.439.439 0 00.323.129h2.781a.44.44 0 00.324-.13l.043-.043a.436.436 0 00.13-.323v-.56a.441.441 0 01.452-.453h2.113a.442.442 0 01.453.452v2.674a.438.438 0 01-.13.323l-.948.95a.44.44 0 01-.323.128h-7.008a.439.439 0 01-.323-.129l-.949-.949a.438.438 0 01-.13-.323v-12.29a.44.44 0 01.13-.323l.949-.948a.436.436 0 01.323-.13zM367.426 177.226a.442.442 0 01.453.453.506.506 0 01-.108.28l-5.692 6.813 5.692 6.813a.509.509 0 01.108.28.442.442 0 01-.453.453h-2.76a.45.45 0 01-.345-.172l-3.298-3.924a4.396 4.396 0 01-.668-1.1v4.743a.443.443 0 01-.454.453h-2.112a.442.442 0 01-.453-.453V177.68a.442.442 0 01.453-.453h2.112a.443.443 0 01.454.453v4.743a4.413 4.413 0 01.668-1.1l3.298-3.924a.452.452 0 01.346-.172z" fill="#fff"/></svg>