<svg xmlns="http://www.w3.org/2000/svg" viewBox="0 0 970 250"><defs><clipPath id="a"><path fill="none" d="M-32768-32517h65535v65535h-65535z"/></clipPath></defs><g clip-path="url(#a)" opacity=".8"><path d="M493.04 98.772L357.616 65.006a8.1 8.1 0 01-5.884-9.792l8.794-35.272.033-.13.879-3.528.044-.174.086-.348.098-.392.109-.435a8.068 8.068 0 011.25-2.233 2.144 2.144 0 01.326-.38 5.011 5.011 0 01.38-.415.976.976 0 01.23-.174c.119-.109.239-.218.304-.294a4.716 4.716 0 01.51-.38l.273-.165a2.146 2.146 0 01.38-.229l.11-.065a9.27 9.27 0 012.536-.894c.098-.022.14-.01.239-.033l.044.011c.283-.022.522-.055.805-.077l.142-.01a7.814 7.814 0 012.024.227l3.353.836a1.513 1.513 0 01.425.152c.13.032.316.032.446.065l15.11 3.767a4.542 4.542 0 015.278-2.615l90.705 22.615a4.577 4.577 0 013.43 4.787l19.728 4.918a8.681 8.681 0 011.023.348c.087.022.163.087.25.108.13.033.207.098.338.131a8.154 8.154 0 014.272 9.206l-9.847 39.495a7.946 7.946 0 01-1 2.341c-.065.076-.087.163-.152.24a.629.629 0 00-.152.24 8.206 8.206 0 01-3.395 2.668c-.054.033-.152.055-.206.087a7.694 7.694 0 01-2.58.513.482.482 0 01-.228-.01 2.834 2.834 0 01-.327.011 4.155 4.155 0 01-1.077-.13l-3.658-.912z" fill="#fff"/></g><path d="M479.908 36.988a.259.259 0 00-.326.196l-.326 1.307a.258.258 0 00.196.326l2.047.51-1.781 7.142a.259.259 0 00.196.326l1.307.326a.26.26 0 00.326-.196l1.78-7.142 2.047.511a.26.26 0 00.327-.196l.325-1.307a.257.257 0 00-.196-.326zm-6.532-1.628a.257.257 0 00-.326.196l-2.183 8.752a.26.26 0 00.197.327l4.833 1.205a.26.26 0 00.327-.196l.325-1.307a.258.258 0 00-.196-.326l-3.266-.814.467-1.873 2.308.576a.259.259 0 00.325-.196l.326-1.307a.257.257 0 00-.195-.326l-2.308-.576.478-1.916 3.266.815a.259.259 0 00.326-.196l.326-1.307a.259.259 0 00-.196-.326zm-6.793-1.694a.468.468 0 00-.24.033l-.707.425a.343.343 0 00-.141.196l-.955 3.832a.477.477 0 00.032.24l.425.706a.343.343 0 00.196.142l2.57.64c.087.022.119.076.196.142l.032.054a.338.338 0 01.033.24l-.315 1.262c-.022.087-.076.12-.141.196l-.055.033a.338.338 0 01-.24.033l-1.262-.315c-.087-.022-.12-.076-.196-.14l-.033-.056a.344.344 0 01-.032-.239l.086-.349a.258.258 0 00-.196-.326l-1.306-.326a.259.259 0 00-.326.196l-.413 1.655a.471.471 0 00.033.24l.425.707a.343.343 0 00.196.141l3.832.956a.479.479 0 00.239-.033l.707-.425a.344.344 0 00.142-.196l.955-3.832a.472.472 0 00-.033-.24l-.425-.707a.336.336 0 00-.196-.14l-2.57-.642c-.087-.022-.119-.076-.196-.14l-.032-.056a.338.338 0 01-.033-.239l.315-1.263c.021-.087.076-.12.141-.196l.054-.033a.347.347 0 01.24-.032l1.263.315c.087.021.12.076.196.141l.032.054a.342.342 0 01.033.24l-.087.348a.259.259 0 00.196.326l1.307.326a.257.257 0 00.326-.196l.414-1.655a.468.468 0 00-.033-.239l-.414-.75a.342.342 0 00-.196-.142l-3.832-.956zm-7.403-1.846a.468.468 0 00-.24.033l-.706.425a.344.344 0 00-.142.196l-.955 3.832a.468.468 0 00.033.24l.425.707a.343.343 0 00.196.141l2.569.641c.087.021.12.076.196.141l.033.054a.347.347 0 01.032.24l-.315 1.263c-.021.087-.076.12-.141.196l-.054.032a.342.342 0 01-.24.033l-1.263-.315c-.087-.02-.12-.076-.196-.14l-.032-.056a.338.338 0 01-.033-.239l.087-.348a.26.26 0 00-.196-.327l-1.307-.325a.257.257 0 00-.326.196l-.413 1.654a.482.482 0 00.033.24l.425.707a.342.342 0 00.196.141l3.832.956a.467.467 0 00.239-.033l.708-.425a.347.347 0 00.14-.196l.957-3.832a.479.479 0 00-.033-.239l-.425-.708a.347.347 0 00-.196-.14l-2.57-.642c-.086-.02-.12-.076-.195-.14l-.033-.055a.342.342 0 01-.033-.24l.315-1.263c.022-.087.076-.119.14-.196l.056-.032a.338.338 0 01.239-.033l1.263.315c.087.022.12.076.196.141l.033.055a.344.344 0 01.032.24l-.086.347a.258.258 0 00.196.327l1.306.326a.26.26 0 00.327-.197l.412-1.654a.471.471 0 00-.033-.24l-.414-.75a.343.343 0 00-.196-.142l-3.833-.955zm-6.41 1.593c0 .185-.01.414-.01.6l.11 2.154-1.481-.369 1.11-1.85a1.54 1.54 0 00.27-.535m.054-3.178a.284.284 0 00-.316.153l-4.795 8.101a.287.287 0 00.175.413l1.262.315a.285.285 0 00.316-.152l.935-1.525 2.613.652.066 1.774a.286.286 0 00.207.283l1.263.314a.257.257 0 00.326-.196l.022-.087-.43-9.404a.286.286 0 00-.207-.283zm-14.196-3.539a.257.257 0 00-.326.196l-.326 1.306a.259.259 0 00.195.327l2.047.51-1.78 7.141a.26.26 0 00.196.327l1.306.325a.258.258 0 00.327-.196l1.78-7.14 2.047.51a.259.259 0 00.327-.197l.325-1.306a.258.258 0 00-.196-.327zm-3.092-.77a.257.257 0 00-.326.195l-1.336 5.356c-.043-.196-.033-.424-.087-.577l-1.212-5.528a.304.304 0 00-.218-.24l-1.393-.347a.257.257 0 00-.326.196l-2.183 8.753a.26.26 0 00.196.326l1.307.326a.259.259 0 00.326-.196l1.336-5.357c.043.196.032.425.087.577l1.212 5.53a.302.302 0 00.218.238l1.393.348a.259.259 0 00.326-.196l2.183-8.753a.259.259 0 00-.196-.326zm-10.46.582c0 .185-.01.414-.01.6l.11 2.154-1.48-.369 1.109-1.85c.097-.208.184-.37.27-.535m.01-3.189a.285.285 0 00-.315.153l-4.795 8.101a.287.287 0 00.174.413l1.263.315a.285.285 0 00.316-.152l.935-1.525 2.612.652.067 1.774a.285.285 0 00.207.283l1.263.315a.26.26 0 00.326-.197l.022-.087-.431-9.404a.285.285 0 00-.207-.283zm-8.665-2.16a.259.259 0 00-.327.196l-.325 1.306a.257.257 0 00.196.326l2.046.511-1.78 7.141a.259.259 0 00.196.327l1.306.325a.258.258 0 00.327-.196l1.78-7.14 2.047.51a.259.259 0 00.326-.197l.326-1.307a.258.258 0 00-.196-.326zm-6.227-1.553a.472.472 0 00-.24.033l-.707.425a.339.339 0 00-.141.196l-.956 3.832a.479.479 0 00.033.24l.425.706a.344.344 0 00.196.142l2.569.64c.087.022.12.076.196.142l.033.054a.346.346 0 01.033.24l-.315 1.262c-.022.087-.076.12-.141.196l-.055.033a.338.338 0 01-.24.033l-1.262-.315c-.087-.022-.12-.076-.196-.14l-.033-.056a.343.343 0 01-.033-.239l.087-.349a.258.258 0 00-.196-.326l-1.306-.326a.26.26 0 00-.327.196l-.412 1.655a.471.471 0 00.033.24l.425.707a.34.34 0 00.196.141l3.832.956a.479.479 0 00.239-.033l.707-.425a.344.344 0 00.142-.196l.955-3.832a.471.471 0 00-.033-.24l-.425-.707a.343.343 0 00-.196-.14l-2.57-.642c-.086-.02-.12-.076-.195-.14l-.033-.056a.344.344 0 01-.032-.239l.314-1.263c.022-.087.077-.12.142-.196l.054-.032a.342.342 0 01.24-.033l1.262.315c.088.021.12.076.196.141l.033.054a.342.342 0 01.033.24l-.087.348a.26.26 0 00.196.327l1.307.325a.258.258 0 00.326-.196l.413-1.655a.479.479 0 00-.033-.239l-.425-.707a.344.344 0 00-.196-.142zm-4.311-1.075a.26.26 0 00-.327.196l-1.335 5.356c-.044-.196-.033-.424-.087-.577l-1.245-5.583a.304.304 0 00-.218-.239l-1.393-.347a.259.259 0 00-.327.196l-2.182 8.752a.26.26 0 00.196.327l1.307.326a.259.259 0 00.326-.197l1.325-5.312c.043.196.033.424.087.577l1.212 5.528a.304.304 0 00.218.24l1.393.347a.257.257 0 00.326-.196l2.183-8.753a.26.26 0 00-.196-.326zm-10.19-2.54a.257.257 0 00-.326.196l-.326 1.306a.259.259 0 00.196.326l.653.163-1.39 5.574-.653-.163a.26.26 0 00-.326.196l-.326 1.307a.259.259 0 00.196.326l3.179.793a.26.26 0 00.327-.196l.325-1.307a.257.257 0 00-.196-.326l-.653-.163 1.39-5.574.652.163a.258.258 0 00.326-.196l.327-1.306a.258.258 0 00-.196-.327zm104.914 47.25c0-.186-.065-.295-.065-.48-.044-.01-.568-3.472-.568-3.472l-.055-.337-.11-.12-.913-.228-.11.065-.065.077-.01.043-.142.196c-.815 1.045-1.598 2.145-2.414 3.191l-.142.196-.076.12-.021.087.065.108.076.066 1.002.25.152-.055.196-.229c.446-.675.99-1.372 1.425-2.003l.119-.109.055-.033.043.011.066.11.065.477c.088.577.219 1.165.262 1.731l.055.522.055.153.109.12.217.054c.207.098.534.086.74.184l.142-.01.055-.033.02-.087-.021-.098zm-5.075-4.689l-.022-.283-.131-.218-.24-.152-.816-.25a55.365 55.365 0 00-3.745-.934c-1.796-.216-3.57-1.075-5.377-1.248l-.077-.065-.391-.098-.294.065-.37.556a21.544 21.544 0 01-.738 3.331c-.174.697-.391 1.383-.565 2.08-.38 1.338-3.485 13.792-4.43 17.766l-.108.25-.13.893.12.261.196.141.555.185a19.264 19.264 0 012.7.673l.63.065.338-.24.087-.163.39-1.568c.62-2.667 1.456-5.28 1.944-7.979l.24-.588.163-.098c.054-.033.065-.076.152-.055.098-.022.174.044.26.065.61.152 1.297.37 1.874.467.13.033 1.339.38 1.339.38l.566.142.239-.033.196-.044.174-.142.087-.163.304-1.219c.142-.196.152-.61.305-.849a5.057 5.057 0 01.195-1.154l-.055-.153-.098-.163-.196-.14-.305-.077c-1.23-.26-2.525-.63-3.734-.977l-.174-.044c-.087-.022-.196.044-.261-.065-.033-.054-.033-.054-.022-.098l-.033-.054.239-.588c.359-1.622.836-3.353 1.162-5.03l.217-.315.164-.099.566.142.097-.022.958.24c.718.27 2.57.64 3.244.9a8.789 8.789 0 011.057.217l.402-.13.153-.24.065-.077a14.422 14.422 0 00.933-3.004zm-27.34 4.1c-1.25 4.081-2.268 9.285-3.431 13.39l-.13.892.12.261.196.141.556.185c.185 0 .642.021.783.195a14.502 14.502 0 011.916.478l.632.065.337-.24.087-.163.39-1.568c.62-2.667 1.467-5.323 1.944-7.98l.239-.587.435-.262-.01.044c-.022.087.685.217.773.24 1.056.401 2.155.443 3.2.89l.24-.034.196-.043.174-.142.087-.163a11.373 11.373 0 01.608-2.069 1.656 1.656 0 00.032-.686c.033-.13.228-.544.119-.664l-.098-.163-.196-.14-.305-.077c-.326.011-1.774-.489-2.177-.543-.076-.065-.392-.283-.326.011-.087.163-.022-.098-.055-.152a1.819 1.819 0 01-.827-.207l-.566-.14c-.425-.153-.12-.447-.077-.806.087-.719.423-1.513.51-2.232 0-.37.413-1.099.315-1.448l.336-1.35.218-.315.163-.098.566.141c1.198.206 3.027.847 4.224 1.053a2.932 2.932 0 00.599.195c.098-.02.196-.228.239-.032l.25.108.402-.13.153-.24.065-.076.282-1.133.11-.065.064-.63.326-1.308-.022-.283-.13-.217-.24-.152-.816-.25c-2.93-.684-6.25-1.65-9.156-2.237l-.391-.097-.294.065-.37.555.01.327-.14.196.032.24-.217.5.087.392c-.01.044-.261.305-.184.37a67.032 67.032 0 00-1.586 6.543l-.207.827a.864.864 0 01-.119.294c.022.283-.022.457.054.523zm-8.606 5.207c-.108.435-.174.882-.282 1.317-.054.218-.152.425-.196.6l-.282.761c-.316.338-.48.621-.958.686a1.745 1.745 0 01-.663.066c-.044-.01-.49-.076-.49-.076l-.458-.206-.381-.327-.218-.239-.043-.196-.077-.065-.098-.718.054-.773c1.302-4.67 2.344-9.776 3.517-13.739l.174-.512.174-.326.141-.196.522-.425.73-.142a8.548 8.548 0 011.045.261l.315.217.47.533.14.36.044.565-.912 3.658c-.792 2.994-1.433 5.933-2.269 8.916m7.808-12.207a6.51 6.51 0 00-.47-2.938 6.354 6.354 0 00-.774-1.349 7.427 7.427 0 00-1.263-1.055 4.171 4.171 0 00-1.84-.783c-.436-.109-.86-.26-1.252-.358-.305-.076-.642-.022-.947-.098a7.411 7.411 0 00-2.297.121 4.497 4.497 0 00-1.36.633 10.776 10.776 0 00-1.175.817 5.377 5.377 0 00-1.522 2.58c-1.173 4.333-2.519 9.733-3.768 14.926l-.119.664a7.7 7.7 0 00.372 2.775.958.958 0 01.316.587 9.442 9.442 0 00.49.817l.904 1.011c1.056.587 2.483 1.544 3.691 1.522a.765.765 0 00.816.065c.294.304.926 0 1.35.151a4.067 4.067 0 011.078-.24c0-.185.555-.185.663-.25l1.208-.764a16.834 16.834 0 001.24-1.263 2.592 2.592 0 01.37-.555l.467-.948a20.883 20.883 0 00.728-2.732l1.89-7.762a45.524 45.524 0 001.204-5.574zm-16.042 3.864l-.022-.283-.218-.425-.327-.174c-1.447-.314-2.928-.684-4.376-.998a18.995 18.995 0 00-2.199-.64l-.566.043c-.446.12-.446.86-.532 1.208a4.604 4.604 0 00-.337 1.535l.087.207.153.131.544.228c.457.021 2.57.64 2.7.673a16.78 16.78 0 012.526.63 2.551 2.551 0 011.132.282l.566-.044.326-.38c.033-.132.391-1.569.456-1.645a.343.343 0 01.087-.348m-11.03 9.182c.12-.109 0-.37.031-.5a3.918 3.918 0 00.261-.675l.011-.414-.425-.337-.642-.207a10.462 10.462 0 00-1.622-.358c-1.024-.347-2.319-.532-3.397-.847l-.37-.184c-.044-.01-.087-.207-.12-.262-.022-.097 0-.185-.022-.283.434-1.74.814-3.45 1.281-5.138.076-.305.11-.62.195-.969l.185-.185.24-.033.61.152a2.224 2.224 0 011.164.337c.643.206 1.503.282 2.101.478l.23.01.359-.14.195-.23a9.144 9.144 0 00.51-2.417c.163-.098.206-.457.206-.642l-.022-.283-.054-.152-.24-.153-.608-.152a5.178 5.178 0 01-1.59-.488 8.423 8.423 0 01-1.807-.359l-.251-.293-.011-.327.066-.076.076-.305c.336-1.35.792-2.994 1.03-4.322l.164-.468.185-.185.26-.12.502.032c.62.11 2.1.848 2.678.576-.131.337.729.413.75.326.338.13.959.24 1.329.423l.479.12.24-.033.108-.065c.392-.458.348-1.209.609-1.699 0-.185.315-.707.119-.849.12-.294.348-.838.195-1.154l-.174-.228-.098.022-.076.12-.076-.066-.056-.152c-1.872-.467-3.963-.988-5.868-1.509a28.733 28.733 0 01-3.298-.869l-1.132-.097-.229.174-.076.12c-1.987 8.154-4.126 16.177-6.015 24.31l-.076.12.044.195.381.326.261.065c3.168.836 6.456 1.563 9.69 2.508l.674.076.403-.316.065-.076zm-8.093-23.756l.066-.076.087-.348-.033-.055.098-.392.065-.076.25-1-.012-.328-.283-.348-.599-.196-.37.001c-.914-.413-2.024-.413-2.939-.826-1.676-.325-3.19-.749-4.714-1.129a5.987 5.987 0 01-1.208-.347c-.479-.12-1.023-.163-1.492-.326l-.979-.337-.098.022-.076.12-.262-.065-.228.174-.272 1.09-.108.064-.38 1.524-.163 1.023.23.196c.282-.022.38.141.63.25.348-.098.588.24.893.315a7.808 7.808 0 011.012.206c.152-.239.403.055.523.131l.653.163.12.076.022.838c-.39 1.382-.825 2.754-1.14 4.202-.065.261-.076.49-.14.751-.609 2.44-1.26 4.866-1.869 7.305l-.857 3.44c-.283 1.132-.609 2.253-.804 3.407l-.086.534-.033.13.065.294.262.25.48.12.075.065 1.132.282.098-.02.305.075.033.054.664.12.326.173.577.098.49-.109.196-.229-.077-.25.153-.055.087-.163-.022-.098.174-.697c1.596-6.4 3.072-12.138 4.625-18.55l.282-.762.261-.12.142-.01.72.271a7.135 7.135 0 011.36.293c.108-.066.206-.088.271.021l.632.25.446.065.24-.033.293-.25.185-.37.076-.49-.022-.098.055-.218zm-19.67 14.892c1.662-6.292 2.932-12.127 4.713-18.529l.282-1.132-.022-.098.282-1.132c.011-.043-.14-.174-.14-.174a.429.429 0 00-.284-.163c-.087-.022-.12-.076-.207-.098l-.566-.14a3.319 3.319 0 01-.915-.229.954.954 0 00-.5-.032 4.153 4.153 0 00-1.242-.402h-.37l-.337.24-.152.24-.532 2.133c-.304 1.22-.934 3.93-.934 3.93s-1.943 7.61-2.247 8.644c.043.011.076.065.011.141a.344.344 0 00-.077.12c-.662 2.471-1.259 5.051-1.878 7.533l-.412 1.655.054.337.164.272.522.131a1.782 1.782 0 001.067.173 3.66 3.66 0 00.947.283 3.582 3.582 0 00.632.25l.74.184.11-.065.358-.512a12.644 12.644 0 00.586-2.537c.337-.239.195-.783.347-1.023m-12.319-13.663l-.326-.174-.055-.338.141-.566a8.207 8.207 0 00.304-1.034c-.12-.816.62-1.742.554-2.59a13.523 13.523 0 01.554-1.852l.13-.522.11-.065.608-.033c.174.043.795.151.893.315l.24-.033c.065.11.283.163.37.185l.424.337.251.293.153.871a9.368 9.368 0 01-.217 1.611 14.08 14.08 0 01-.575 2.308c-.196.23-.239.773-.479.991l-.435.446-.435.077-.109.065-.25.077-.838-.163-.033-.054a1.513 1.513 0 01-.98-.152m4.407 14.79a3.985 3.985 0 01-.088-1.688c-.187-2.405-.22-5.05-.364-7.445l-.022-.838.184-.555-.02-.098.216.054 1.121-.414 1.001-.676.272-.348c.196-.044.381-.599.457-.719a2.102 2.102 0 00.5-1.078c.391-.272.478-1.175.586-1.61a3.585 3.585 0 00.24-.959c0-.185.26-.675.162-.838l.271-1.089.076-.675.086-1.458-.142-.914-.338-1.056-.163-.272-.229-.566-.534-.642-.37-.185-.283-.348-1.133-.652-.49-.26-.109.064-.087-.02c-.163-.273-.762-.284-1.023-.349a4.244 4.244 0 00-1.056-.217 12.64 12.64 0 00-2.515-.673 5.784 5.784 0 00-1.469-.413l-1.002-.25-.337.055-.359.512-.293 1.175c-.283.948-5.744 23.036-5.744 23.036l.131.403.283.163.566.141a3.217 3.217 0 00.643.206c.217-.13.49-.294.392.098.381.141 1.066.173 1.393.347l.664.12.152-.055.066-.076.152-.055.25-.26c.662-3.027 1.487-6.337 2.28-9.33l.272-.349.414.011.163.087.294.304.066.85c-.107 3.025.178 5.964.114 9.001l.077.435.065.294.305.261.327.174c.664.12 1.513.423 2.188.5.055.152.392.097.523.13l.61.151.24-.032.227-.175.131-.152-.022-.098.021-.087zm-8.78-27.675c-.054-.152-.402-.239-.544-.228a9.655 9.655 0 00-1.078-.315c.022-.087-1.132-.282-1.165-.337l-.098.022c-.174-.043-.816-.25-.979-.152l-.327.196-1.304 3.005a23.092 23.092 0 01-1.119 2.82c-.533 1.394-1.109 2.962-1.674 4.301l-.218-.055c.218.055.196.142.142.36l-.315.522a.3.3 0 01.174.23c-.13-.034-.25.075-.315.151l-.26.675-.142.566-.153.24-.163.098-.12-.446.11-.436c.085-1.458.312-3.298.366-4.81.206-1.013.172-2.363.422-3.365 0-.185.184-1.665-.066-1.774.337.131.303-1.774.38-1.894l.075-1.23-.196-.326-.196-.142-1.916-.477-.153.054-.914-.228-.294.066-.239.217-.63 1.416c-1.424 3.3-2.696 6.728-4.305 10.027l-.162.654-.207.272-.065.261.032.054-.054.218-.163-.087-.24-.337.24-.958c.15-1.72.247-3.777.573-5.454.248-2.11.367-4.81.79-6.879l-.164-.642-.229-.196a7.108 7.108 0 00-1.665-.369 5.855 5.855 0 00-1.916-.478l-.305.11-.109.065-.228.914-.02 1.567a43.488 43.488 0 00-.303 4.365c-.28 2.243-.432 4.518-.627 6.782-.129 1.448-.215 2.906-.334 4.31a2.844 2.844 0 00-.032 1.056 2.32 2.32 0 00-.043 1.1l-.152.61c.131.957-.282 2.242-.205 3.232a.805.805 0 00.001.74c-.153.055-.12.294-.055.403l-.086.533.033.24.098.163.446.25c.218.054.795.152 1.056.217a2.178 2.178 0 00.74.185c.403.054.97.38 1.372.25l.261-.12.25-.447c.446-.86.815-1.97 1.261-2.83a15.623 15.623 0 00.75-1.895c.315-.338.304-1.035.652-1.318l.272-.718c-.066-.109.01-.229.12-.294.445-1.045 1.14-2.537 1.553-3.637.055-.217.283-.947.533-1.023.022-.087.087-.349.196-.414l.098.163v.74c-.14.382.001.926-.15 1.35.108.305-.153.795.021 1.023.185 0 .468.163.131.218-.349-.457-.304 1.774-.358 1.992-.173 1.992-.4 4.017-.475 5.987l-.13 1.633-.087.348.23.566.467.163a10.976 10.976 0 002.036.554l.784.195.327-.01.348-.284.532-1.209c3.261-7.512 6.261-14.535 9.532-21.906l.11-.435zM367.87 17.38l-9.663 38.755a2.203 2.203 0 001.602 2.666L497.412 93.11a2.203 2.203 0 002.666-1.602l9.663-38.755a2.203 2.203 0 00-1.602-2.666l-20.16-5.027-.653 2.613 19.683 4.908-9.424 37.797-136.646-34.07 9.435-37.84 19.117 4.766.651-2.613-19.595-4.886a2.213 2.213 0 00-2.677 1.646m144.102 35.142l-9.999 40.105a3.716 3.716 0 01-4.516 2.713L358.504 60.695a3.715 3.715 0 01-2.713-4.515l10-40.105a3.716 3.716 0 014.515-2.713l20.38 5.081-.207.827-20.38-5.08a2.911 2.911 0 00-3.536 2.124l-9.999 40.105a2.911 2.911 0 002.124 3.536L497.642 94.6a2.911 2.911 0 003.536-2.125l10.01-40.148a2.912 2.912 0 00-2.125-3.537l-20.727-5.168.206-.827 20.728 5.168a3.784 3.784 0 012.702 4.56" fill="#ed1c24"/></svg>