<svg xmlns="http://www.w3.org/2000/svg" width="417" height="35.5" overflow="visible"><style>.st0{fill:#fff}</style><path class="st0" d="M0 4.8L2.4.1H3l2.4 4.7h-.7l-2-4-2 4H0zM11.5.1v.7H7.7v2.6h2.7v.7H7.7v3h4v.7H6.9V.1h4.6zM13.8.1v7.7H13V.1h.8zM16.4 0v.9h-.8V0h.8zm-.7 2.3h.8v5.6h-.8V2.3zM22.5 2.8H22c-.1 0-.3.1-.4.1.1.1.2.3.3.4.1.3.1.6.1.8 0 .3-.1.5-.2.8-.2.5-.6.8-1.1 1-.2.1-.4.2-.7.2h-.5c-.1 0-.3-.1-.4-.1-.3 0-.4.3-.4.5 0 .1 0 .2.1.3.1.1.2.1.3.1.6 0 1.1 0 1.7.1.4 0 .7.1 1.1.3.2.1.4.3.6.5.1.2.2.5.2.7 0 .2-.1.4-.2.6-.1.2-.3.4-.5.5-.2.2-.5.3-.8.3-.4.1-.7.1-1.1.1-.6 0-1.2-.1-1.8-.3-.4-.2-.6-.6-.6-1 0-.2.1-.5.2-.7.2-.2.4-.4.7-.5-.2-.1-.4-.2-.5-.3-.1-.1-.2-.3-.2-.5s.1-.4.2-.6c.2-.1.3-.3.5-.4-.3-.2-.5-.5-.6-.7-.1-.3-.2-.6-.2-.9 0-.3.1-.5.2-.8.1-.2.3-.4.4-.6.2-.2.4-.3.7-.4.3-.1.6-.1.8-.1.3 0 .5 0 .8.1l.6.3.6-.3c.2-.1.4-.1.6-.2v.7zm-.7 5.6c0-.3-.2-.5-.5-.6-.5-.2-1-.2-1.5-.2-.3 0-.5 0-.7.1-.2 0-.3.1-.5.2l-.3.3c0 .1-.1.2-.1.3 0 .1 0 .2.1.3.1.1.2.2.3.2.2.1.4.1.5.1.3 0 .6.1.9 0h.6c.2 0 .4-.1.5-.1.1-.1.3-.1.4-.3.2 0 .3-.2.3-.3zm-.5-4.3c0-.4-.1-.7-.4-1-.3-.3-.7-.4-1.1-.4-.7-.1-1.3.4-1.3 1.1V4c0 .3.1.7.4.9.3.3.7.4 1 .4.2 0 .4 0 .6-.1.2 0 .3-.1.5-.2.1-.1.2-.2.3-.4v-.5zM24.4 0v.9h-.8V0h.8zm-.8 2.3h.8v5.6h-.8V2.3zM26.9.1v2.7c.2-.2.4-.3.7-.4.2-.1.5-.2.8-.2.3 0 .5.1.7.1.3.1.5.3.7.5.2.3.4.6.5.9.2.4.2.9.2 1.4 0 .5-.1.9-.2 1.4-.1.3-.3.6-.5.9-.2.2-.5.4-.7.5-.2.1-.5.1-.8.1-.3 0-.6-.1-.9-.2-.3-.1-.5-.3-.7-.5l-.1.6h-.5c0-.2.1-.4 0-.6V.1h.8zm0 6.4c.2.2.5.4.7.6.2.1.4.2.7.2.5 0 .9-.2 1.1-.6.3-.5.5-1.1.4-1.6 0-.4 0-.7-.1-1.1-.1-.3-.2-.5-.3-.7-.1-.2-.3-.3-.5-.4-.2-.1-.4-.1-.6-.1-.3 0-.5.1-.7.2-.3.1-.5.3-.7.6v2.9zM32.8 0v.9H32V0h.8zM32 2.3h.8v5.6H32V2.3zM35.4.1v7.7h-.8V.1h.8zM37.9 0v.9h-.8V0h.8zm-.7 2.3h.8v5.6h-.8V2.3zM40 2.3V.4h.8v1.8H42v.7h-1.3v4c0 .1 0 .2.1.3.2.1.3.1.5.1h.7v.6c-.1 0-.2 0-.3.1h-.6c-.3 0-.6 0-.9-.2-.2-.2-.3-.5-.2-.8V2.9h-.9v-.6h.9zM47.2 2.3l-2 6.1c-.1.3-.2.5-.4.8-.1.2-.3.3-.5.5-.2.1-.3.2-.5.2s-.4.1-.5.1h-.5v-.8h.8c.1 0 .3-.1.4-.2.2-.1.3-.2.4-.4.1-.2.2-.5.3-.7l-1.9-5.6h.8L45 6.5l1.3-4.2h.9zM55.4 3.9c-.1-.3-.3-.6-.5-.8-.2-.2-.5-.3-.8-.3-.4 0-.9.2-1.1.6-.5 1-.5 2.3 0 3.3.2.4.7.6 1.1.6h.5c.1 0 .3-.1.4-.2l.3-.3c.1-.2.2-.3.3-.5l.6.3c-.1.2-.3.4-.4.6-.1.2-.3.3-.5.4l-.6.3c-.2.1-.5.1-.7.1-.3 0-.6-.1-.9-.2-.3-.1-.5-.3-.7-.6-.2-.3-.4-.6-.5-.9-.2-.8-.2-1.6 0-2.4.1-.3.2-.6.5-.9.2-.2.4-.4.7-.6.3-.1.6-.2.9-.2.3 0 .5 0 .7.1l.6.3c.2.1.3.3.4.5l.3.6-.6.2zM57.3 2.3h.8v1.1c.1-.2.2-.3.3-.5.1-.1.2-.3.4-.4.1-.1.3-.2.5-.2.2-.1.4-.1.6-.1V3c-.4 0-.8.2-1.1.5-.3.4-.6.8-.7 1.3v3.1h-.8V2.3zM61.8 0v.9H61V0h.8zM61 2.3h.8v5.6H61V2.3zM63.8 2.3V.4h.8v1.8h1.3v.7h-1.3v4c0 .1 0 .2.1.3.2.1.3.1.5.1h.7v.6c-.1 0-.2 0-.3.1H65c-.3 0-.6 0-.9-.2-.2-.2-.3-.5-.3-.7V2.9h-.9v-.6h.9zM71.1 6.6c-.1.2-.2.4-.3.5-.3.3-.6.6-1 .7-.3.1-.5.1-.8.1-.3 0-.6-.1-.9-.2-.3-.1-.6-.3-.8-.5-.3-.2-.5-.5-.6-.8-.1-.4-.2-.9-.2-1.3s0-.8.2-1.2c.1-.3.2-.6.5-.9.2-.2.4-.4.7-.6.3-.1.6-.2.9-.2.3 0 .6 0 .8.1.3.1.5.2.7.4.2.2.4.5.5.8.1.4.2.8.2 1.1v.5h-3.6c0 .3 0 .6.1.8.1.2.2.5.4.7.1.2.3.3.5.4.2.1.4.2.6.2.3 0 .6-.1.9-.3.3-.2.5-.4.6-.7l.6.4zm-1-2.1c0-.4-.1-.9-.3-1.2-.2-.3-.6-.5-1-.5s-.8.1-1.1.5c-.3.4-.4.8-.4 1.2h2.8zM72.2 2.3h.8v1.1c0-.2.2-.4.3-.5.1-.1.2-.3.4-.4.1-.1.3-.2.5-.2.2-.1.4-.1.6-.1V3c-.4 0-.8.2-1.1.5-.3.4-.6.8-.7 1.3v3.1h-.8V2.3zM76.7 0v.9h-.8V0h.8zm-.8 2.3h.8v5.6h-.8V2.3zM78.1 3.3c.2-.3.5-.6.8-.8.4-.2.8-.4 1.3-.3.2 0 .5 0 .7.1l.6.3c.2.1.3.3.4.5.1.2.2.5.2.8v3.5c0 .2.1.3.1.5h-.8l-.1-.8c-.2.2-.5.4-.7.6-.3.2-.7.3-1.1.3-.2 0-.4 0-.6-.1-.4-.1-.7-.4-.8-.8-.1-.2-.1-.5-.1-.7 0-.6.3-1.1.8-1.4.3-.2.7-.4 1.1-.5.5-.2 1-.3 1.6-.4v-.3c0-.3-.1-.6-.3-.8-.2-.2-.5-.2-.8-.2-.2 0-.4 0-.6.1-.1 0-.3.1-.4.2-.3.1-.4.2-.4.3-.1.1-.1.2-.2.3l-.7-.4zm3.3 1.5c-1.8.3-2.6.8-2.6 1.6 0 .1 0 .2.1.4 0 .1 0 .2.1.2.1.1.2.1.3.2.1 0 .2.1.3.1.1 0 .3 0 .4-.1.2 0 .3-.1.5-.2s.3-.2.4-.3c.1-.1.3-.2.4-.4l.1-1.5zM87.5 3.3c.2-.3.5-.6.8-.8.4-.2.8-.4 1.3-.3.2 0 .5 0 .7.1l.6.3c.2.1.3.3.4.5.1.2.2.5.2.8v3.5c0 .2.1.3.1.5h-.8l-.1-.8c-.2.2-.5.4-.7.6-.3.2-.7.3-1.1.3-.2 0-.4 0-.6-.1-.4-.1-.7-.4-.8-.8-.1-.2-.1-.4-.1-.7 0-.6.3-1.1.8-1.4.3-.2.7-.4 1.1-.5.5-.2 1-.3 1.6-.4v-.3c0-.3-.1-.6-.3-.8-.2-.2-.5-.2-.8-.2-.2 0-.4 0-.6.1-.1 0-.3.1-.4.2-.2.1-.4.3-.4.6l-.9-.4zm3.2 1.5c-1.8.3-2.6.8-2.6 1.6 0 .1 0 .2.1.4.1.1.1.2.2.2.1.1.2.1.3.2.1 0 .2.1.3.1.1 0 .3 0 .4-.1.2 0 .3-.1.5-.2s.3-.2.4-.3c.1-.1.3-.2.4-.4V4.8zM93 9.9V2.3h.8V3l.3-.3c.1-.1.2-.2.4-.2.1-.1.3-.1.4-.2.1 0 .3-.1.4-.1.3 0 .5.1.8.1.3.1.5.3.7.5.2.2.4.5.5.9.2.4.2.9.2 1.4 0 .5-.1.9-.2 1.4-.1.2-.3.5-.5.8-.2.2-.4.4-.7.5-.2.1-.5.1-.7.1-.3 0-.5-.1-.8-.2-.2-.1-.5-.3-.7-.4v2.6H93zm.8-3.4c.2.2.4.4.7.6.2.1.5.2.7.2.2 0 .4 0 .6-.1.2-.1.4-.2.5-.4.2-.2.3-.4.3-.7.1-.3.1-.7.1-1.1 0-.6-.1-1.1-.4-1.6-.3-.4-.7-.6-1.1-.6-.2 0-.5.1-.7.2-.3.2-.5.4-.7.6v2.9zM98.8 9.9V2.3h.8V3l.3-.3c.1-.1.2-.2.4-.2.1-.1.3-.1.4-.2.1 0 .3-.1.4-.1.3 0 .5.1.8.1.3.1.5.3.7.5.2.3.4.6.5.9.2.4.2.9.2 1.4 0 .5-.1.9-.2 1.4-.1.3-.3.6-.5.9-.2.2-.4.4-.7.5-.2.1-.5.1-.7.1-.3 0-.5-.1-.8-.2-.2-.1-.5-.3-.7-.4V10h-.9zm.8-3.4c.2.2.4.4.7.6.2.1.5.2.7.2.2 0 .4 0 .6-.1.2-.1.4-.2.5-.4.2-.2.3-.4.3-.7.1-.3.1-.7.1-1.1 0-.6-.1-1.1-.4-1.6-.3-.4-.7-.6-1.1-.6-.2 0-.5.1-.7.2-.3.2-.5.4-.7.6v2.9zM105.5.1v7.7h-.8V.1h.8zM111 2.3l-2 6.1c-.1.3-.2.5-.4.8-.1.2-.3.3-.5.5-.2.1-.3.2-.5.2s-.4.1-.5.1h-.5v-.8h.8c.1 0 .3-.1.4-.2.2-.1.3-.2.4-.4.1-.2.2-.5.3-.7l-1.9-5.6h.8l1.5 4.2 1.3-4.2h.8zM116.9.1v2.7c.2-.2.4-.3.7-.4.2-.1.5-.2.8-.2.3 0 .5.1.7.1.3.1.5.3.7.5.2.3.4.6.5.9.2.4.2.9.2 1.4 0 .5-.1.9-.2 1.4-.1.3-.3.6-.5.9-.2.2-.5.4-.7.5-.2.1-.5.1-.8.1-.3 0-.6-.1-.9-.2-.3-.1-.5-.3-.7-.5l-.1.6h-.5c0-.2.1-.4 0-.6V.1h.8zm0 6.4c.2.2.5.4.7.6.2.1.4.2.7.2.5 0 .9-.2 1.1-.6.3-.5.5-1.1.4-1.6 0-.4 0-.7-.1-1.1-.1-.3-.2-.5-.3-.7-.1-.2-.3-.3-.5-.4-.2-.1-.4-.1-.6-.1-.3 0-.5.1-.7.2-.3.1-.5.3-.7.6v2.9zM121.7 3.3c.2-.3.5-.6.8-.8.4-.2.8-.4 1.3-.3.2 0 .5 0 .7.1l.6.3c.2.1.3.3.4.5.1.2.2.5.2.8v3.5c0 .2.1.3.1.5h-.8v-.8c-.2.2-.5.4-.7.6-.3.2-.7.3-1.1.3-.2 0-.4 0-.6-.1-.4-.1-.7-.4-.8-.8-.1-.2-.1-.4-.1-.7 0-.6.3-1.1.8-1.4.3-.2.7-.4 1.1-.5.5-.2 1-.3 1.6-.4v-.3c0-.3-.1-.6-.3-.8-.2-.2-.5-.2-.8-.2-.2 0-.4 0-.6.1-.1 0-.3.1-.4.2-.2.1-.4.3-.4.6l-1-.4zm3.3 1.5c-1.8.3-2.6.8-2.6 1.6 0 .1 0 .2.1.4.1.1.1.2.2.3.1.1.2.1.3.2.1 0 .2.1.3.1.1 0 .3 0 .4-.1.2 0 .3-.1.5-.2s.3-.2.4-.3c.1-.1.3-.2.4-.4V4.8zM127.3 6.4c.2.3.4.5.7.6.3.2.6.2.9.2.3 0 .7-.1.9-.3.2-.2.3-.4.3-.6 0-.2-.1-.4-.2-.6-.2-.1-.4-.3-.6-.3-.2-.1-.5-.2-.8-.2-.3-.1-.5-.2-.8-.3-.2-.1-.4-.3-.6-.5-.2-.2-.2-.5-.2-.8 0-.4.2-.8.5-1.1.4-.3.8-.4 1.3-.4.2 0 .4 0 .6.1.2 0 .4.1.5.2.2.1.3.2.5.3.1.1.3.2.4.4l-.5.5c-.2-.2-.4-.4-.7-.6-.2-.1-.5-.2-.8-.2-.3 0-.5.1-.7.2-.2.2-.3.4-.3.6 0 .2.1.4.2.5l.6.3c.2.1.5.2.8.2.3.1.5.2.8.3.2.1.4.3.6.5.2.2.3.5.2.8 0 .2 0 .5-.2.7-.1.2-.3.4-.4.5l-.6.3c-.2.1-.5.1-.7.1-.4 0-.9-.1-1.2-.3-.4-.2-.7-.4-1-.8l.5-.3zM136.2 6.6c-.1.2-.2.3-.3.5-.3.3-.6.6-1 .7-.3.1-.5.1-.8.1-.3 0-.6-.1-.9-.2-.3-.1-.6-.3-.8-.5-.2-.3-.4-.6-.5-.9-.1-.4-.2-.9-.2-1.3s0-.8.2-1.2c.1-.3.2-.6.5-.9.2-.2.4-.4.7-.6.3-.1.6-.2.9-.2.3 0 .6 0 .8.1.3.1.5.2.7.4.2.2.4.5.5.8.1.4.2.8.2 1.1V5h-3.6c0 .3 0 .6.1.8.1.2.2.5.4.7.1.2.3.3.5.4.2.1.4.2.6.2.3 0 .6-.1.9-.3.3-.2.5-.4.6-.7l.5.5zm-.9-2.1c0-.4-.1-.9-.3-1.2-.2-.3-.6-.5-1-.5s-.8.1-1.1.5c-.3.4-.4.8-.4 1.2h2.8zM141.5.1V7.8h-.7l-.1-.5c-.2.2-.4.4-.6.5-.3.1-.6.2-.9.2-.3 0-.5 0-.8-.1-.3-.1-.5-.3-.7-.5l-.6-.9c0-.5-.1-1-.1-1.5s.1-.9.2-1.4c.1-.3.3-.6.5-.9.2-.2.4-.4.7-.5.2-.1.5-.1.7-.1.3 0 .5.1.8.2.2.1.5.3.7.4V.1h.9zm-.7 3.5c-.2-.2-.4-.4-.7-.6-.2-.1-.5-.2-.7-.2-.2 0-.4 0-.6.1-.2.1-.4.2-.5.4-.2.2-.3.4-.3.7-.1.3-.1.7-.1 1.1 0 .6.1 1.1.4 1.6.3.4.7.6 1.1.6.2 0 .5-.1.7-.2.3-.2.5-.4.7-.6V3.6zM151.5 5c0 .4 0 .8-.1 1.1-.1.3-.2.6-.4.9-.2.3-.4.5-.7.6-.6.3-1.4.3-2 0-.3-.1-.5-.4-.7-.6-.2-.3-.3-.6-.4-.9-.2-.7-.2-1.5 0-2.3.1-.3.2-.6.4-.9.2-.3.4-.5.7-.6.6-.3 1.4-.3 2 0 .3.1.5.4.7.6.2.3.3.6.4.9 0 .5.1.9.1 1.2zm-.8 0c0-.6-.1-1.2-.4-1.7-.4-.6-1.3-.8-1.9-.3l-.3.3c-.5 1-.5 2.3 0 3.3.4.6 1.3.8 1.9.3l.3-.3c.3-.4.4-1 .4-1.6zM153.5 2.3V3c.2-.2.5-.5.7-.6.3-.2.6-.2.9-.2.2 0 .4 0 .6.1.2.1.4.1.5.3.2.1.3.3.4.5.1.2.1.5.1.8v4h-.7v-4c0-.3-.1-.6-.2-.8-.2-.2-.4-.2-.7-.2-.2 0-.3 0-.4.1-.2.1-.3.1-.4.2-.1.1-.3.2-.4.3l-.3.3V8h-.8V2.3h.7zM163.5 2.3V3c.2-.2.5-.5.7-.6.3-.2.6-.2.9-.2.2 0 .4 0 .6.1.2.1.4.1.5.3.2.1.3.3.4.5.1.2.1.5.1.8v4h-.7v-4c0-.3-.1-.6-.2-.8-.2-.2-.4-.2-.7-.2-.2 0-.3 0-.4.1-.2.1-.3.1-.4.2-.1.1-.3.2-.4.3l-.3.3V8h-.8V2.3h.7zM171.6 7.8v-.7c-.2.2-.5.5-.7.6-.3.2-.6.2-.9.2-.2 0-.4 0-.6-.1-.2-.1-.4-.1-.5-.3-.2-.1-.3-.3-.4-.5-.1-.2-.1-.5-.1-.8v-4h.8v4c0 .3.1.6.2.8.2.2.4.2.7.2.2 0 .3 0 .4-.1.2-.1.3-.1.4-.2.1-.1.3-.2.4-.3l.3-.3v-4h.8v5.6h-.8zM174 7.8V2.3h.8V3c.2-.2.5-.5.8-.6.3-.1.5-.2.8-.2.3 0 .6.1.9.2.2.2.4.4.5.6.2-.3.5-.5.8-.6.3-.2.6-.2.9-.2.2 0 .4 0 .6.1.2 0 .3.1.5.3.2.1.3.3.4.5.1.3.1.6.1.8v4h-.8v-4c0-.3-.1-.6-.2-.8-.2-.2-.4-.2-.6-.2-.2 0-.3 0-.5.1-.1 0-.3.1-.4.2-.1.1-.2.2-.4.3l-.3.3v4.1h-.8v-4c0-.3-.1-.6-.2-.8-.2-.2-.4-.2-.6-.2-.2 0-.3 0-.5.1-.1 0-.3.1-.4.2-.1.1-.2.2-.4.3l-.3.3v4.1l-.7-.1zM187 6.6c-.1.2-.2.3-.3.5-.3.3-.6.6-1 .7-.3.1-.5.1-.8.1-.3 0-.6-.1-.9-.2-.3-.1-.6-.3-.8-.5-.2-.3-.4-.6-.5-.9-.1-.4-.2-.9-.2-1.3s0-.8.2-1.2c.1-.3.2-.6.5-.9.2-.2.4-.4.7-.6.3-.1.6-.2.9-.2.3 0 .6 0 .8.1.3.1.5.2.7.4.2.2.4.5.5.8.1.4.2.8.2 1.1V5h-3.6c0 .3 0 .6.1.8.1.2.2.5.4.7.1.2.3.3.5.4.2.1.4.2.6.2.3 0 .6-.1.9-.3.3-.2.5-.4.6-.7l.5.5zm-1-2.1c0-.4-.1-.9-.3-1.2-.2-.3-.6-.5-1-.5s-.8.1-1.1.5c-.3.4-.4.8-.4 1.2h2.8zM188 2.3h.8v1.1c.1-.2.2-.3.3-.5.1-.1.2-.3.4-.4.1-.1.3-.2.5-.2.2-.1.4-.1.6-.1V3c-.4 0-.8.2-1.1.5-.3.4-.6.8-.7 1.3v3.1h-.8V2.3zM195.7 5c0 .4 0 .8-.1 1.1-.1.3-.2.6-.4.9-.2.3-.4.5-.7.6-.6.3-1.4.3-2 0-.3-.1-.5-.4-.7-.6-.2-.3-.3-.6-.4-.9-.2-.7-.2-1.5 0-2.3.1-.3.2-.6.4-.9.2-.3.4-.5.7-.6.6-.3 1.4-.3 2 0 .3.1.5.4.7.6.2.3.3.6.4.9.1.5.1.9.1 1.2zm-.8 0c0-.6-.1-1.2-.4-1.7-.4-.6-1.3-.8-1.9-.3l-.3.3c-.5 1-.5 2.3 0 3.3.4.6 1.3.8 1.9.3l.3-.3c.3-.4.5-1 .4-1.6zM200.2 7.8v-.7c-.2.2-.5.5-.7.6-.3.2-.6.2-.9.2-.2 0-.4 0-.6-.1-.2-.1-.4-.1-.5-.3-.2-.1-.3-.3-.4-.5-.1-.2-.1-.5-.1-.8v-4h.8v4c0 .3.1.6.2.8.2.2.4.2.7.2.2 0 .3 0 .4-.1.2-.1.3-.1.4-.2.1-.1.3-.2.4-.3l.3-.3v-4h.8v5.6h-.8zM202.7 6.4c.2.3.4.5.7.6.3.2.6.2.9.2.3 0 .7-.1.9-.3.2-.2.3-.4.3-.6 0-.2-.1-.4-.2-.6-.2-.1-.4-.3-.6-.3-.2-.1-.5-.2-.8-.2-.3-.1-.5-.2-.8-.3-.2-.1-.4-.3-.6-.5-.2-.2-.2-.5-.2-.8 0-.4.2-.8.5-1.1.4-.3.8-.4 1.3-.4.2 0 .4 0 .6.1.2 0 .4.1.5.2.2.1.3.2.5.3.1.1.3.2.4.4l-.5.5c-.2-.2-.4-.4-.7-.6-.2-.1-.5-.2-.8-.2-.3 0-.5.1-.7.2-.2.2-.3.4-.3.6 0 .2.1.4.2.5l.6.3c.2.1.5.2.8.2.3.1.5.2.8.3.2.1.4.3.6.5.2.2.3.5.2.8 0 .2 0 .5-.2.7-.1.2-.3.4-.4.5l-.6.3c-.2.1-.5.1-.7.1-.4 0-.9-.1-1.2-.3-.4-.2-.7-.4-1-.8l.5-.3zM211.8 7.8V2.9h-.9v-.6h.9v-.7c0-.3 0-.5.1-.8 0-.2.1-.4.3-.5.1-.1.3-.2.4-.3.2 0 .4-.1.6-.1h.6v.7h-.6c-.2 0-.4 0-.6.2-.1.2-.2.4-.2.6v.8h1.2v.7h-1.2v4.9h-.6zM214.7 3.3c.2-.3.5-.6.8-.8.4-.2.8-.4 1.3-.3.2 0 .5 0 .7.1l.6.3c.2.1.3.3.4.5.1.2.2.5.2.8v3.5c0 .2.1.3.1.5h-.8l-.1-.8c-.2.2-.5.4-.7.6-.3.2-.7.3-1.1.3-.2 0-.4 0-.6-.1-.4-.1-.7-.4-.8-.8-.1-.2-.1-.4-.1-.7 0-.6.3-1.1.8-1.4.3-.2.7-.4 1.1-.5.5-.2 1-.3 1.6-.4v-.3c0-.3-.1-.6-.3-.8-.2-.2-.5-.2-.8-.2-.2 0-.4 0-.6.1-.1 0-.3.1-.4.2-.2.1-.4.3-.4.6l-.9-.4zm3.2 1.5c-1.8.3-2.6.8-2.6 1.6 0 .1 0 .2.1.4.1.1.1.2.2.3.1.1.2.1.3.2.1 0 .2.1.3.1.1 0 .3 0 .4-.1.2 0 .3-.1.5-.2s.3-.2.4-.3c.1-.1.3-.2.4-.4V4.8zM223.4 3.9c-.1-.3-.3-.6-.5-.8-.2-.2-.5-.3-.8-.3-.4 0-.9.2-1.1.6-.5 1-.5 2.3 0 3.3.2.4.7.6 1.1.6h.5c.1 0 .3-.1.4-.2l.3-.3c.1-.2.2-.3.3-.5l.6.3c-.1.2-.3.4-.4.6-.1.2-.3.3-.5.4l-.6.3c-.2.1-.5.1-.7.1-.3 0-.6-.1-.9-.2-.3-.1-.5-.3-.7-.6-.2-.3-.4-.6-.5-.9-.2-.8-.2-1.6 0-2.4.1-.3.2-.6.5-.9.2-.2.4-.4.7-.6.3-.1.6-.2.9-.2.3 0 .5 0 .7.1l.6.3c.2.1.3.3.4.5l.3.6-.6.2zM225.7 2.3V.4h.8v1.8h1.3v.7h-1.3v4c0 .1 0 .2.1.3.2.1.3.1.5.1h.7v.6c-.1 0-.2 0-.3.1h-.6c-.3 0-.6 0-.9-.2-.2-.2-.3-.5-.3-.7V2.9h-.9v-.6h.9zM233 5c0 .4 0 .8-.1 1.1-.1.3-.2.6-.4.9-.2.3-.4.5-.7.6-.6.3-1.4.3-2 0-.3-.1-.5-.4-.7-.6-.2-.3-.3-.6-.4-.9-.2-.7-.2-1.5 0-2.3.1-.3.2-.6.4-.9.2-.3.4-.5.7-.6.6-.3 1.4-.3 2 0 .3.1.5.4.7.6.2.3.3.6.4.9 0 .5.1.9.1 1.2zm-.8 0c0-.6-.1-1.2-.4-1.7-.4-.6-1.3-.8-1.9-.3l-.3.3c-.5 1-.5 2.3 0 3.3.4.6 1.3.8 1.9.3l.3-.3c.3-.4.4-1 .4-1.6zM234.1 2.3h.8v1.1c.1-.2.2-.3.3-.5.1-.1.2-.3.4-.4.1-.1.3-.2.5-.2.2-.1.4-.1.6-.1V3c-.4 0-.8.2-1.1.5-.3.4-.6.8-.7 1.3v3.1h-.8V2.3zM237.9 6.4c.2.3.4.5.7.6.3.2.6.2.9.2.3 0 .7-.1.9-.3.2-.2.3-.4.3-.6 0-.2-.1-.4-.2-.6-.2-.1-.4-.3-.6-.3-.2-.1-.5-.2-.8-.2-.3-.1-.5-.2-.8-.3-.2-.1-.4-.3-.6-.5-.2-.2-.2-.5-.2-.8 0-.4.2-.8.5-1.1.4-.3.8-.4 1.3-.4.2 0 .4 0 .6.1.2 0 .4.1.5.2.2.1.3.2.5.3.1.1.3.2.4.4l-.5.5c-.2-.2-.4-.4-.7-.6-.2-.1-.5-.2-.8-.2-.3 0-.5.1-.7.2-.2.2-.3.4-.3.6 0 .2.1.4.2.5l.6.3c.2.1.5.2.8.2.3.1.5.2.8.3.2.1.4.3.6.5.2.2.3.5.2.8 0 .2 0 .5-.2.7-.1.2-.3.4-.4.5l-.6.3c-.2.1-.5.1-.7.1-.4 0-.9-.1-1.2-.3-.4-.2-.7-.4-1-.8l.5-.3zM247.6 0v.9h-.8V0h.8zm-.7 2.3h.8v5.6h-.8V2.3zM250.1 2.3V3c.2-.2.5-.5.7-.6.3-.2.6-.2.9-.2.2 0 .4 0 .6.1.2.1.4.1.5.3.2.1.3.3.4.5.1.2.1.5.1.8v4h-.8v-4c0-.3-.1-.6-.2-.8-.2-.2-.4-.2-.7-.2-.2 0-.3 0-.4.1-.1 0-.2 0-.3.1-.1.1-.3.2-.4.3l-.3.3v4.2h-.8V2.3h.7zM258.3 3.9c-.1-.3-.3-.6-.5-.8-.2-.2-.5-.3-.8-.3-.4 0-.9.2-1.1.6-.5 1-.5 2.3 0 3.3.2.4.7.6 1.1.6h.5c.1 0 .3-.1.4-.2l.3-.3c.1-.2.2-.3.3-.5l.6.3c-.1.2-.3.4-.4.6-.1.2-.3.3-.5.4l-.6.3c-.2.1-.5.1-.7.1-.3 0-.6-.1-.9-.2-.3-.1-.5-.3-.7-.6-.2-.3-.4-.6-.5-.9-.2-.8-.2-1.6 0-2.4.1-.3.2-.6.5-.9.2-.2.4-.4.7-.6.3-.1.6-.2.9-.2.3 0 .5 0 .7.1l.6.3c.2.1.3.3.4.5l.3.6-.6.2zM261.1.1v7.7h-.8V.1h.8zM266.1 7.8v-.7c-.2.2-.5.5-.7.6-.3.2-.6.2-.9.2-.2 0-.4 0-.6-.1-.2-.1-.4-.1-.5-.3-.2-.1-.3-.3-.4-.5-.1-.2-.1-.5-.1-.8v-4h.8v4c0 .3.1.6.2.8.2.2.4.2.7.2.2 0 .3 0 .4-.1.2-.1.3-.1.4-.2.1-.1.3-.2.4-.3l.3-.3v-4h.8v5.6h-.8zM272.7.1V7.8h-.7v-.5c-.2.2-.4.4-.6.5-.3.1-.6.2-.9.2-.3 0-.5 0-.8-.1-.3-.1-.5-.3-.7-.5l-.6-.9c-.2-.4-.2-.9-.2-1.4 0-.5.1-.9.2-1.4.1-.3.3-.6.5-.9.2-.2.4-.4.7-.5.2-.1.5-.1.7-.1.3 0 .5.1.8.2.2.1.5.3.7.4V.1h.9zm-.7 3.5c-.2-.2-.4-.4-.7-.6-.2-.1-.5-.2-.7-.2-.2 0-.4 0-.6.1-.2.1-.4.2-.5.4-.2.2-.3.4-.3.7-.2.4-.2.7-.2 1.1 0 .6.1 1.1.4 1.6.3.4.7.6 1.1.6.2 0 .5-.1.7-.2.3-.2.5-.4.7-.6l.1-2.9zM275.2 0v.9h-.8V0h.8zm-.8 2.3h.8v5.6h-.8V2.3zM277.7 2.3V3c.2-.2.5-.5.7-.6.3-.2.6-.2.9-.2.2 0 .4 0 .6.1.2.1.4.1.5.3.2.1.3.3.4.5.1.2.1.5.1.8v4h-.8v-4c0-.3-.1-.6-.2-.8-.2-.2-.4-.2-.7-.2-.2 0-.3 0-.4.1-.2.1-.3.1-.4.2-.1.1-.3.2-.4.3l-.3.3V8h-.8V2.3h.8zM287 2.8h-.5c-.1 0-.3.1-.4.1.1.1.2.3.3.4.1.2.1.4.1.7 0 .3-.1.5-.2.8-.2.5-.6.8-1.1 1-.3.1-.5.2-.8.1h-.5c-.1 0-.3-.1-.4-.1-.3 0-.4.3-.4.5 0 .1 0 .2.1.3.1.1.2.1.3.1.6 0 1.1 0 1.7.1.4 0 .7.1 1.1.3.2.1.4.3.6.5.1.2.2.5.2.7 0 .2-.1.4-.2.6-.1.2-.3.4-.5.5-.2.2-.5.3-.8.3-.4.1-.7.1-1.1.1-.6 0-1.2-.1-1.8-.3-.4-.2-.6-.6-.6-1 0-.2.1-.5.2-.7.2-.2.4-.4.7-.5-.2-.1-.4-.2-.5-.3-.1-.1-.2-.3-.2-.5s.1-.4.2-.6c.2-.1.3-.3.5-.4-.2-.2-.4-.4-.6-.7-.1-.3-.2-.6-.2-.9 0-.3.1-.5.2-.8.1-.2.3-.4.4-.6.2-.2.4-.3.7-.4.3-.1.6-.1.8-.1.3 0 .5 0 .8.1l.6.3.6-.3c.2-.1.4-.1.6-.2l.1.9zm-.8 5.6c0-.3-.2-.5-.5-.6-.5-.2-1-.2-1.5-.2-.3 0-.5 0-.7.1-.2 0-.3.1-.5.2l-.3.3c0 .1-.1.2-.1.3 0 .1 0 .2.1.3.1.1.1.2.3.2.2.1.4.1.5.1.3 0 .6.1.9 0h.6c.2 0 .4-.1.5-.1.1-.1.3-.1.4-.3.3 0 .3-.2.3-.3zm-.4-4.3c0-.4-.1-.7-.4-1-.3-.3-.7-.4-1.1-.4-.7-.1-1.3.4-1.3 1.1V4c0 .3.1.7.4.9.3.3.7.4 1 .4.2 0 .4 0 .6-.1.2-.1.3-.2.4-.3.1-.1.2-.2.3-.4 0 0 .1-.2.1-.4zM292.9.1v2.7c.2-.2.4-.3.7-.4.2-.1.5-.2.8-.2.3 0 .5.1.7.1.3.1.5.3.7.5.2.3.4.6.5.9.2.4.2.9.2 1.4 0 .5-.1.9-.2 1.4-.1.3-.3.6-.5.9-.2.2-.5.4-.7.5-.2.1-.5.1-.8.1-.3 0-.6-.1-.9-.2-.3-.1-.5-.3-.7-.5l-.1.6h-.5c0-.2.1-.4 0-.6V.1h.8zm0 6.4c.2.2.5.4.7.6.2.1.4.2.7.2.5 0 .9-.2 1.1-.6.3-.5.5-1.1.4-1.6 0-.4 0-.7-.1-1.1-.1-.3-.2-.5-.3-.7-.1-.2-.3-.3-.5-.4-.2-.1-.4-.1-.6-.1-.3 0-.5.1-.7.2-.3.1-.5.3-.7.6v2.9zM301.2 7.8v-.7c-.2.2-.5.5-.7.6-.3.2-.6.2-.9.2-.2 0-.4 0-.6-.1-.2-.1-.4-.1-.5-.3-.2-.1-.3-.3-.4-.5-.1-.2-.1-.5-.1-.8v-4h.8v4c0 .3.1.6.2.8.2.2.4.2.7.2.2 0 .3 0 .4-.1.2-.1.3-.1.4-.2.1-.1.3-.2.4-.3l.3-.3v-4h.8v5.6h-.8zM303.9 2.3V.4h.8v1.8h1.3v.7h-1.3v4c0 .1 0 .2.1.3.1.1.3.1.5.1h.7v.6c-.1 0-.2 0-.3.1h-.6c-.3 0-.6 0-.9-.2-.2-.2-.3-.5-.3-.7V2.9h-.9v-.6h.9zM312.1 2.3V3c.2-.2.5-.5.7-.6.3-.2.6-.2.9-.2.2 0 .4 0 .6.1.2.1.4.1.5.3.2.1.3.3.4.5.1.2.1.5.1.8v4h-.8v-4c0-.3-.1-.6-.2-.8-.2-.2-.4-.2-.7-.2-.2 0-.3 0-.4.1-.1 0-.2 0-.4.1-.1.1-.3.2-.4.3l-.3.3v4.2h-.8V2.3h.8zM321.2 5c0 .4 0 .8-.1 1.1-.1.3-.2.6-.4.9-.2.3-.4.5-.7.6-.6.3-1.4.3-2 0-.3-.1-.5-.4-.7-.6-.2-.3-.3-.6-.4-.9-.2-.7-.2-1.5 0-2.3.1-.3.2-.6.4-.9.2-.3.4-.5.7-.6.6-.3 1.4-.3 2 0 .3.1.5.4.7.6.2.3.3.6.4.9.1.5.1.9.1 1.2zm-.8 0c0-.6-.1-1.2-.4-1.7-.4-.6-1.3-.8-1.9-.3l-.3.3c-.5 1-.5 2.3 0 3.3.4.6 1.3.8 1.9.3l.3-.3c.3-.4.5-1 .4-1.6zM322.6 2.3V.4h.8v1.8h1.3v.7h-1.3v4c0 .1 0 .2.1.3.1.1.3.1.5.1h.7v.6c-.1 0-.2 0-.3.1h-.6c-.3 0-.6 0-.9-.2-.2-.2-.3-.5-.3-.7V2.9h-.9v-.6h.9zM331 .1v7.7h-.8V.1h.8zM333.6 0v.9h-.8V0h.8zm-.8 2.3h.8v5.6h-.8V2.3zM335.3 7.8V2.3h.8V3c.2-.2.5-.5.8-.6.3-.1.5-.2.8-.2.3 0 .6.1.9.2.2.2.4.4.5.6.2-.3.5-.5.8-.6.3-.2.6-.2.9-.2.2 0 .4 0 .6.1.2 0 .3.1.5.3.2.1.3.3.4.5.1.3.1.6.1.8v4h-.8v-4c0-.3-.1-.6-.2-.8-.2-.2-.4-.2-.6-.2-.2 0-.3 0-.5.1-.1 0-.3.1-.4.2-.1.1-.2.2-.4.3l-.3.3v4.1h-.8v-4c0-.3-.1-.6-.2-.8-.2-.2-.4-.2-.6-.2-.2 0-.3 0-.5.1-.1 0-.3.1-.4.2-.1.1-.2.2-.4.3l-.3.3v4.1l-.7-.1zM344.9 0v.9h-.8V0h.8zm-.8 2.3h.8v5.6h-.8V2.3zM346.9 2.3V.4h.8v1.8h1.3v.7h-1.3v4c0 .1 0 .2.1.3.1.1.3.1.5.1h.7v.6c-.1 0-.2 0-.3.1h-.6c-.3 0-.6 0-.9-.2-.2-.2-.3-.5-.3-.7V2.9h-.9v-.6h.9zM354.1 6.6c-.1.2-.2.3-.3.5-.3.3-.6.6-1 .7-.3.1-.5.1-.8.1-.3 0-.6-.1-.9-.2-.3-.1-.6-.3-.8-.5-.2-.3-.4-.6-.5-.9-.1-.4-.2-.9-.2-1.3s0-.8.2-1.2c.1-.3.2-.6.5-.9.2-.2.4-.4.7-.6.3-.1.6-.2.9-.2.3 0 .6 0 .8.1.3.1.5.2.7.4.2.2.4.5.5.8.1.4.2.8.2 1.1V5h-3.6c0 .3 0 .6.1.8.1.2.2.5.4.7.1.2.3.3.5.4.2.1.4.2.6.2.3 0 .6-.1.9-.3.3-.2.5-.4.6-.7l.5.5zm-.9-2.1c0-.4-.1-.9-.3-1.2-.2-.3-.6-.5-1-.5s-.8.1-1.1.5c-.3.4-.4.8-.4 1.2h2.8zM359.5.1V7.8h-.7l-.1-.5c-.2.2-.4.4-.6.5-.3.1-.6.2-.9.2-.3 0-.5 0-.8-.1-.3-.1-.5-.3-.7-.5l-.6-.9c-.1-.5-.2-1-.2-1.5s.1-.9.2-1.4c.1-.3.3-.6.5-.9.2-.2.4-.4.7-.5.2-.1.5-.1.7-.1.3 0 .5.1.8.2.2.1.5.3.7.4V.1h1zm-.8 3.5c-.2-.2-.4-.4-.7-.6-.2-.1-.5-.2-.7-.2-.2 0-.4 0-.6.1-.2.1-.4.2-.5.4-.2.2-.3.4-.3.7-.1.3-.1.7-.1 1.1 0 .6.1 1.1.4 1.6.3.4.7.6 1.1.6.2 0 .5-.1.7-.2.3-.2.5-.4.7-.6V3.6zM365.5 2.3V.4h.8v1.8h1.3v.7h-1.3v4c0 .1 0 .2.1.3.1.1.3.1.5.1h.7v.6c-.1 0-.2 0-.3.1h-.6c-.3 0-.6 0-.9-.2-.2-.2-.3-.5-.3-.7V2.9h-.9v-.6h.9zM372.8 5c0 .4 0 .8-.1 1.1-.1.3-.2.6-.4.9-.2.3-.4.5-.7.6-.6.3-1.4.3-2 0-.3-.1-.5-.4-.7-.6-.2-.3-.3-.6-.4-.9-.2-.7-.2-1.5 0-2.3.1-.3.2-.6.4-.9.2-.3.4-.5.7-.6.6-.3 1.4-.3 2 0 .3.1.5.4.7.6.2.3.3.6.4.9 0 .5.1.9.1 1.2zm-.8 0c0-.6-.1-1.2-.4-1.7-.4-.6-1.3-.8-1.9-.3l-.3.3c-.5 1-.5 2.3 0 3.3.4.6 1.3.8 1.9.3l.3-.3c.3-.4.4-1 .4-1.6zM378.9.1v2.7c.2-.2.4-.3.7-.4.2-.1.5-.2.8-.2.3 0 .5.1.7.1.3.1.5.3.7.5.2.3.4.6.5.9.2.4.2.9.2 1.4 0 .5-.1.9-.2 1.4-.1.3-.3.6-.5.9-.2.2-.5.4-.7.5-.2.1-.5.1-.8.1-.3 0-.6-.1-.9-.2-.3-.1-.5-.3-.7-.5l-.1.6h-.5c0-.2.1-.4 0-.6V.1h.8zm0 6.4c.2.2.5.4.7.6.2.1.4.2.7.2.5 0 .9-.2 1.1-.6.3-.5.5-1.1.4-1.6 0-.4 0-.7-.1-1.1-.1-.3-.2-.5-.3-.7-.1-.2-.3-.3-.5-.4-.2-.1-.4-.1-.6-.1-.3 0-.5.1-.7.2-.3.1-.5.3-.7.6v2.9zM387.2 7.8v-.7c-.2.2-.5.5-.7.6-.3.2-.6.2-.9.2-.2 0-.4 0-.6-.1-.2-.1-.4-.1-.5-.3-.2-.1-.3-.3-.4-.5-.1-.2-.1-.5-.1-.8v-4h.8v4c0 .3.1.6.2.8.2.2.4.2.7.2.2 0 .3 0 .4-.1.2-.1.3-.1.4-.2.1-.1.3-.2.4-.3l.3-.3v-4h.8v5.6h-.8zM389.7 6.4c.2.3.4.5.7.6.3.2.6.2.9.2.3 0 .7-.1.9-.3.2-.2.3-.4.3-.6 0-.2-.1-.4-.2-.6-.2-.1-.4-.3-.6-.3-.2-.1-.5-.2-.8-.2-.3-.1-.5-.2-.8-.3-.2-.1-.4-.3-.6-.5-.2-.2-.2-.5-.2-.8 0-.4.2-.8.5-1.1.4-.3.8-.4 1.3-.4.2 0 .4 0 .6.1.2 0 .4.1.5.2.2.1.3.2.5.3.1.1.3.2.4.4l-.5.5c-.2-.2-.4-.4-.7-.6-.2-.1-.5-.2-.8-.2-.3 0-.5.1-.7.2-.2.2-.3.4-.3.6 0 .2.1.4.2.5l.6.3c.2.1.5.2.8.2.3.1.5.2.8.3.2.1.4.3.6.5.2.2.3.5.2.8 0 .2 0 .5-.2.7-.1.2-.3.4-.4.5l-.6.3c-.2.1-.5.1-.7.1-.4 0-.9-.1-1.2-.3-.4-.2-.7-.4-1-.8l.5-.3zM395.2 0v.9h-.8V0h.8zm-.7 2.3h.8v5.6h-.8V2.3zM397.7 2.3V3c.2-.2.5-.5.7-.6.3-.2.6-.2.9-.2.2 0 .4 0 .6.1.2.1.4.1.5.3.2.1.3.3.4.5.1.2.1.5.1.8v4h-.8v-4c0-.3-.1-.6-.2-.8-.2-.2-.4-.2-.7-.2-.2 0-.3 0-.4.1-.2.1-.3.1-.4.2-.1.1-.3.2-.4.3l-.3.3V8h-.7V2.3h.7zM406.8 6.6c-.1.2-.2.3-.3.5-.3.3-.6.6-1 .7-.3.1-.5.1-.8.1-.3 0-.6-.1-.9-.2-.3-.1-.6-.3-.8-.5-.2-.3-.4-.6-.5-.9-.1-.4-.2-.9-.2-1.3s0-.8.2-1.2c.1-.3.2-.6.5-.9.2-.2.4-.4.7-.6.3-.1.6-.2.9-.2.3 0 .6 0 .8.1.3.1.5.2.7.4.2.2.4.5.5.8.1.4.2.8.2 1.1V5H403c0 .3 0 .6.1.8.1.2.2.5.4.7.1.2.3.3.5.4.2.1.4.2.6.2.3 0 .6-.1.9-.3.3-.2.5-.4.6-.7l.7.5zm-.9-2.1c0-.4-.1-.9-.3-1.2-.2-.3-.6-.5-1-.5s-.8.1-1.1.5c-.3.4-.4.8-.4 1.2h2.8zM408.2 6.4c.2.3.4.5.7.6.3.2.6.2.9.2.3 0 .7-.1.9-.3.2-.2.3-.4.3-.6 0-.2-.1-.4-.2-.6-.2-.1-.4-.3-.6-.3-.2-.1-.5-.2-.8-.2-.3-.1-.5-.2-.8-.3-.2-.1-.4-.3-.6-.5-.2-.2-.2-.5-.2-.8 0-.4.2-.8.5-1.1.4-.3.8-.4 1.3-.4.2 0 .4 0 .6.1.2 0 .4.1.5.2.2.1.3.2.5.3.1.1.3.2.4.4l-.6.5c-.2-.2-.4-.4-.7-.6-.2-.1-.5-.2-.8-.2-.3 0-.5.1-.7.2-.2.2-.3.4-.3.6 0 .2.1.4.2.5l.6.3c.2.1.5.2.8.2.3.1.5.2.8.3.2.1.4.3.6.5.2.2.3.5.2.8 0 .2 0 .5-.2.7-.1.2-.3.4-.4.5l-.6.3c-.2.1-.5.1-.7.1-.4 0-.9-.1-1.2-.3-.4-.2-.7-.4-1-.8l.6-.3zM413.1 6.4c.2.3.4.5.7.6.3.2.6.2.9.2.3 0 .7-.1.9-.3.2-.2.3-.4.3-.6 0-.2-.1-.4-.2-.6-.2-.1-.4-.3-.6-.3-.2-.1-.5-.2-.8-.2-.3-.1-.5-.2-.8-.3-.2-.1-.4-.3-.6-.5-.2-.2-.2-.5-.2-.8 0-.4.2-.8.5-1.1.4-.3.8-.4 1.3-.4.2 0 .4 0 .6.1.2 0 .4.1.5.2.2.1.3.2.5.3.1.1.3.2.4.4l-.5.5c-.2-.2-.4-.4-.7-.6-.2-.1-.5-.2-.8-.2-.3 0-.5.1-.7.2-.2.2-.3.4-.3.6 0 .2.1.4.2.5l.6.3c.2.1.5.2.8.2.3.1.5.2.8.3.2.1.4.3.6.5.2.2.3.5.2.8 0 .2 0 .5-.2.7-.1.2-.3.4-.4.5l-.6.3c-.2.1-.5.1-.7.1-.4 0-.9-.1-1.2-.3-.4-.2-.7-.4-1-.8l.5-.3zM6.8 15.1v-1.8h.8v1.8h1.3v.7H7.6v4c0 .1 0 .2.1.3.2.1.3.1.5.1h.7v.6c-.1 0-.2 0-.3.1H8c-.3 0-.6 0-.9-.2-.2-.2-.3-.5-.3-.7v-4.1h-.9v-.7l.9-.1zM13.3 20.7V20c-.2.2-.5.5-.7.6-.3.2-.6.2-.9.2-.2 0-.4 0-.6-.1-.2-.1-.4-.1-.5-.3-.2-.1-.3-.3-.4-.5-.2-.2-.2-.5-.2-.8v-4h.8v4c0 .3.1.6.2.8.2.2.4.2.7.2.2 0 .3 0 .4-.1.2-.1.3-.1.4-.2.1-.1.3-.2.4-.3l.3-.3V15h.8v5.6h-.7zM15.6 15.1h.8v1.1c.1-.2.2-.3.3-.5.1-.1.2-.3.4-.4.1-.1.3-.2.5-.2.2-.1.4-.1.6-.1v.8c-.4 0-.8.2-1.1.5-.3.4-.6.8-.7 1.3v3.1h-.8v-5.6zM20 15.1v.7c.2-.2.5-.5.7-.6.3-.2.6-.2.9-.2.2 0 .4 0 .6.1.2.1.4.1.5.3.2.1.3.3.4.5.1.2.1.5.1.8v4h-.8v-4c0-.3-.1-.6-.2-.8-.2-.2-.4-.2-.7-.2-.2 0-.3 0-.4.1-.2.1-.3.1-.4.2-.1.1-.3.2-.4.3l-.3.3v4.2h-.8v-5.6h.8zM29.1 17.9c0 .4 0 .8-.1 1.1-.1.3-.2.6-.4.9-.2.3-.4.5-.7.6-.6.3-1.4.3-2 0-.3-.1-.5-.4-.7-.6-.2-.3-.3-.6-.4-.9-.2-.7-.2-1.5 0-2.3.1-.3.2-.6.4-.9.2-.3.4-.5.7-.6.6-.3 1.4-.3 2 0 .3.1.5.4.7.6.2.3.3.6.4.9 0 .4.1.8.1 1.2zm-.8 0c0-.6-.1-1.2-.4-1.7-.4-.6-1.3-.8-1.9-.3l-.3.3c-.5 1-.5 2.3 0 3.3.4.6 1.3.8 1.9.3l.3-.3c.3-.5.4-1 .4-1.6zM32.3 20.7h-1l-1.7-5.6h.8l1.4 4.6 1.4-4.6h.8l-1.7 5.6zM39 19.5c-.1.2-.2.3-.3.5-.3.3-.6.6-1 .7-.3.1-.5.1-.8.1-.3 0-.6-.1-.9-.2-.3-.1-.6-.3-.8-.5-.2-.3-.4-.6-.5-.9-.1-.4-.2-.9-.2-1.3s0-.8.2-1.2c.1-.3.2-.6.5-.9.2-.2.4-.4.7-.6.3-.1.6-.2.9-.2.3 0 .6 0 .8.1.3.1.5.2.7.4.2.2.4.5.5.8.1.4.2.8.2 1.1v.6h-3.6c0 .3 0 .6.1.8.1.2.2.5.4.7.1.2.3.3.5.4.2.1.4.2.6.2.3 0 .6-.1.9-.3.3-.2.5-.4.6-.7l.5.4zm-1-2.1c0-.4-.1-.9-.3-1.2-.2-.3-.6-.5-1-.5s-.8.1-1.1.5c-.3.4-.4.8-.4 1.2H38zM40.1 15.1h.8v1.1c.1-.2.2-.3.3-.5.1-.1.2-.3.4-.4.1-.1.3-.2.5-.2.2-.1.4-.1.6-.1v.8c-.4 0-.8.2-1.1.5-.3.4-.6.8-.7 1.3v3.1h-.8v-5.6zM45.7 16.2c.2-.3.5-.6.8-.8.4-.2.8-.4 1.3-.3.2 0 .5 0 .7.1l.6.3c.2.1.3.3.4.5.1.2.2.5.2.8v3.5c0 .2.1.3.1.5H49v-.9c-.2.2-.5.4-.7.6-.3.2-.7.3-1.1.3-.2 0-.4 0-.6-.1-.4-.1-.7-.4-.8-.8-.1-.2-.1-.4-.1-.7 0-.6.3-1.1.8-1.4.3-.2.7-.4 1.1-.5.5-.2 1-.3 1.6-.4v-.3c0-.3-.1-.6-.3-.8-.2-.2-.5-.2-.8-.2-.2 0-.4 0-.6.1-.1 0-.3.1-.4.2l-.3.3c-.1.1-.1.2-.2.3l-.9-.3zm3.2 1.5c-1.8.3-2.6.8-2.6 1.6 0 .1 0 .2.1.4.1.1.1.2.2.3.1.1.2.1.3.2.1 0 .2.1.3.1.1 0 .3 0 .4-.1.2 0 .3-.1.5-.2s.3-.2.4-.3c.1-.1.3-.2.4-.4v-1.6zM52 15.1v.7c.2-.2.5-.5.7-.6.3-.2.6-.2.9-.2.2 0 .4 0 .6.1.2.1.4.1.5.3.2.1.3.3.4.5.1.2.1.5.1.8v4h-.8v-4c0-.3-.1-.6-.2-.8-.2-.2-.4-.2-.7-.2-.2 0-.3 0-.4.1-.2.1-.3.1-.4.2-.1.1-.3.2-.4.3l-.3.3v4.2h-.8v-5.6h.8zM61.1 12.9V20.6h-.7l-.1-.5c-.2.2-.4.4-.6.5-.3.1-.6.2-.9.2-.3 0-.5 0-.8-.1-.3-.1-.5-.3-.7-.5l-.6-.9c-.2-.4-.2-.9-.2-1.4 0-.5.1-.9.2-1.4.1-.3.3-.6.5-.9.2-.2.4-.4.7-.5.2-.1.5-.1.7-.1.3 0 .5.1.8.2.2.1.5.3.7.4v-2.7h1zm-.8 3.5c-.2-.2-.4-.4-.7-.6-.2-.1-.5-.2-.7-.2-.2 0-.4 0-.6.1-.2.1-.4.2-.5.4-.2.2-.3.4-.3.7-.1.3-.1.7-.1 1.1 0 .6.1 1.1.4 1.6.3.4.7.6 1.1.6.2 0 .5-.1.7-.2.3-.2.5-.4.7-.6v-2.9zM64.9 16.2c.2-.3.5-.6.8-.8.3-.3.8-.4 1.3-.4.2 0 .5 0 .7.1l.6.3c.2.1.3.3.4.5.1.2.2.5.2.8v3.5c0 .2.1.3.1.5h-.8l-.1-.8c-.2.2-.5.4-.7.6-.3.2-.7.3-1.1.3-.2 0-.4 0-.6-.1-.4-.1-.7-.4-.8-.8-.1-.2-.1-.4-.1-.7 0-.6.3-1.1.8-1.4.3-.2.7-.4 1.1-.5.5-.2 1-.3 1.6-.4v-.3c0-.3-.1-.6-.3-.8-.2-.2-.5-.2-.8-.2-.2 0-.4 0-.6.1-.1 0-.3.1-.4.2l-.3.3c-.1.1-.1.2-.2.3l-.8-.3zm3.2 1.5c-1.8.3-2.6.8-2.6 1.6 0 .1 0 .2.1.4.1.1.1.2.2.3.1.1.2.1.3.2.1 0 .2.1.3.1.1 0 .3 0 .4-.1.2 0 .3-.1.5-.2s.3-.2.4-.3c.1-.1.3-.2.4-.4v-1.6zM70.5 19.2c.2.3.4.5.7.6.3.2.6.2.9.2.3 0 .7-.1.9-.3.2-.2.3-.4.3-.6 0-.2-.1-.4-.2-.6-.2-.1-.4-.3-.6-.3-.2-.1-.5-.2-.8-.2-.3-.1-.5-.2-.8-.3-.2-.1-.4-.3-.6-.5-.2-.2-.2-.5-.2-.8 0-.4.2-.8.5-1.1.4-.3.8-.4 1.3-.4.2 0 .4 0 .6.1.2 0 .4.1.5.2.2.1.3.2.5.3.1.1.3.2.4.4l-.5.5c-.2-.2-.4-.4-.7-.6-.2-.1-.5-.2-.8-.2-.3 0-.5.1-.7.2-.2.2-.3.4-.3.6 0 .2.1.4.2.5l.6.3c.2.1.5.2.8.2.3.1.5.2.8.3.2.1.4.3.6.5.2.2.3.5.2.8 0 .2 0 .5-.2.7-.1.2-.3.4-.4.5l-.6.3c-.2.1-.5.1-.7.1-.4 0-.9-.1-1.2-.3-.4-.2-.7-.4-1-.8l.5-.3zM75.3 19.2c.2.3.4.5.7.6.3.2.6.2.9.2.3 0 .7-.1.9-.3.2-.2.3-.4.3-.6 0-.2-.1-.4-.2-.6-.2-.1-.4-.3-.6-.3-.2-.1-.5-.2-.8-.2-.3-.1-.5-.2-.8-.3-.2-.1-.4-.3-.6-.5-.2-.2-.2-.5-.2-.8 0-.4.2-.8.5-1.1.4-.3.8-.4 1.3-.4.2 0 .4 0 .6.1.2 0 .4.1.5.2.2.1.3.2.5.3.1.1.3.2.4.4l-.5.5c-.2-.2-.4-.4-.7-.6-.2-.1-.5-.2-.8-.2-.3 0-.5.1-.7.2-.2.2-.3.4-.3.6 0 .2.1.4.2.5l.6.3c.2.1.5.2.8.2.3.1.5.2.8.3.2.1.4.3.6.5.2.2.3.5.2.8 0 .2 0 .5-.2.7-.1.2-.3.4-.4.5l-.6.3c-.2.1-.5.1-.7.1-.4 0-.9-.1-1.2-.3-.4-.2-.7-.4-1-.8l.5-.3zM84.2 19.5c-.1.2-.2.3-.3.5-.3.3-.6.6-1 .7-.3.1-.5.1-.8.1-.3 0-.6-.1-.9-.2-.3-.1-.6-.3-.8-.5-.2-.3-.4-.6-.5-.9-.1-.4-.2-.9-.2-1.3s0-.8.2-1.2c.1-.3.2-.6.5-.9.2-.2.4-.4.7-.6.3-.1.6-.2.9-.2.3 0 .6 0 .8.1.3.1.5.2.7.4.2.2.4.5.5.8.1.4.2.8.2 1.1v.6h-3.6c0 .3 0 .6.1.8.1.2.2.5.4.7.1.2.3.3.5.4.2.1.4.2.6.2.3 0 .6-.1.9-.3.3-.2.5-.4.6-.7l.5.4zm-.9-2.1c0-.4-.1-.9-.3-1.2-.2-.3-.6-.5-1-.5s-.8.1-1.1.5c-.3.4-.4.8-.4 1.2h2.8zM85.6 15.1v-1.8h.8v1.8h1.3v.7h-1.3v4c0 .1 0 .2.1.3.2.1.3.1.5.1h.7v.6c-.1 0-.2 0-.3.1h-.6c-.3 0-.6 0-.9-.2-.2-.2-.3-.5-.3-.7v-4.1h-.9v-.7l.9-.1zM94.5 20.7V20c-.2.2-.5.5-.7.6-.3.2-.6.2-.9.2-.2 0-.4 0-.6-.1-.2-.1-.4-.1-.5-.3-.2-.1-.3-.3-.4-.5-.1-.2-.1-.5-.1-.8v-4h.7v4c0 .3.1.6.2.8.2.2.4.2.7.2.2 0 .3 0 .4-.1.2-.1.3-.1.4-.2.1-.1.3-.2.4-.3l.3-.3V15h.8v5.6h-.7zM97 19.2c.2.3.4.5.7.6.3.2.6.2.9.2.3 0 .7-.1.9-.3.2-.2.3-.4.3-.6 0-.2-.1-.4-.2-.6-.2-.1-.4-.3-.6-.3-.2-.1-.5-.2-.8-.2-.3-.1-.5-.2-.8-.3-.2-.1-.4-.3-.6-.5-.2-.2-.2-.5-.2-.8 0-.4.2-.8.5-1.1.4-.3.8-.4 1.3-.4.2 0 .4 0 .6.1.2 0 .4.1.5.2.2.1.3.2.5.3.1.1.3.2.4.4l-.5.5c-.2-.2-.4-.4-.7-.6-.2-.1-.5-.2-.8-.2-.3 0-.5.1-.7.2-.2.2-.3.4-.3.6 0 .2.1.4.2.5l.6.3c.2.1.5.2.8.2.3.1.5.2.8.3.2.1.4.3.6.5.2.2.3.5.2.8 0 .2 0 .5-.2.7-.1.2-.3.4-.4.5l-.6.3c-.2.1-.5.1-.7.1-.4 0-.9-.1-1.2-.3-.4-.2-.7-.4-1-.8l.5-.3zM105.9 19.5c-.1.2-.2.3-.3.5-.3.3-.6.6-1 .7-.3.1-.5.1-.8.1-.3 0-.6-.1-.9-.2-.3-.1-.6-.3-.8-.5-.2-.3-.4-.6-.5-.9-.1-.4-.2-.9-.2-1.3s0-.8.2-1.2c.1-.3.2-.6.5-.9.2-.2.4-.4.7-.6.3-.1.6-.2.9-.2.3 0 .6 0 .8.1.3.1.5.2.7.4.2.2.4.5.5.8.1.4.2.8.2 1.1v.6h-3.6c0 .3 0 .6.1.8.1.2.2.5.4.7.1.2.3.3.5.4.2.1.4.2.6.2.3 0 .6-.1.9-.3.3-.2.5-.4.6-.7l.5.4zm-1-2.1c0-.4-.1-.9-.3-1.2-.2-.3-.6-.5-1-.5s-.8.1-1.1.5c-.3.4-.4.8-.4 1.2h2.8zM108.3 19.5v1.2h-1v-1.2h1zM112.8 12.9h2.8c.3 0 .6 0 .9.1.3.1.5.2.7.4.2.2.3.4.4.6.1.2.2.5.2.7.1.8-.5 1.6-1.3 1.8.2.1.4.1.6.3.2.1.3.3.5.4l.3.6c.1.2.1.4.1.7 0 .3 0 .6-.1.8-.1.3-.3.5-.5.7-.3.2-.5.4-.9.4-.4.1-.9.2-1.3.2h-2.4v-7.7zm.8 3.4h1.5c.3 0 .6 0 .8-.1l.6-.3c.1-.1.2-.3.3-.4.1-.2.1-.3.1-.5 0-.8-.5-1.3-1.5-1.3h-1.8v2.6zm0 3.6h1.6c.5 0 1-.1 1.4-.3.3-.3.5-.6.5-1.1 0-.5-.2-.9-.5-1.1-.4-.3-.9-.4-1.5-.4h-1.5v2.9zM123.7 19.5c-.1.2-.2.3-.3.5-.3.3-.6.6-1 .7-.3.1-.5.1-.8.1-.3 0-.6-.1-.9-.2-.3-.1-.6-.3-.8-.5-.2-.3-.4-.6-.5-.9-.1-.4-.2-.9-.2-1.3s0-.8.2-1.2c.1-.3.2-.6.5-.9.2-.2.4-.4.7-.6.3-.1.6-.2.9-.2.3 0 .6 0 .8.1.3.1.5.2.7.4.2.2.4.5.5.8.1.4.2.8.2 1.1v.6h-3.6c0 .3 0 .6.1.8.1.2.2.5.4.7.1.2.3.3.5.4.2.1.4.2.6.2.3 0 .6-.1.9-.3.3-.2.5-.4.6-.7l.5.4zm-1-2.1c0-.4-.1-.9-.3-1.2-.2-.3-.6-.5-1-.5s-.8.1-1.1.5c-.3.4-.4.8-.4 1.2h2.8zM125.1 20.7v-4.9h-.9v-.7h.9v-.6c0-.3 0-.5.1-.8 0-.2.1-.4.3-.5.1-.1.3-.2.4-.3.2 0 .4-.1.6-.1h.6v.7h-.6c-.2 0-.4 0-.6.2-.1.2-.2.4-.2.6v.8h1.2v.7h-1.2v4.9h-.6zM132.3 17.9c0 .4 0 .8-.1 1.1-.1.3-.2.6-.4.9-.2.3-.4.5-.7.6-.6.3-1.4.3-2 0-.3-.1-.5-.4-.7-.6-.2-.3-.3-.6-.4-.9-.2-.7-.2-1.5 0-2.3.1-.3.2-.6.4-.9.2-.3.4-.5.7-.6.6-.3 1.4-.3 2 0 .3.1.5.4.7.6.2.3.3.6.4.9 0 .4.1.8.1 1.2zm-.8 0c0-.6-.1-1.2-.4-1.7-.4-.6-1.3-.8-1.9-.3l-.3.3c-.5 1-.5 2.3 0 3.3.4.6 1.3.8 1.9.3l.3-.3c.3-.5.4-1 .4-1.6zM133.4 15.1h.8v1.1c.1-.2.2-.3.3-.5.1-.1.2-.3.4-.4.1-.1.3-.2.5-.2.2-.1.4-.1.6-.1v.8c-.4 0-.8.2-1.1.5-.3.4-.6.8-.7 1.3v3.1h-.8v-5.6zM141.1 19.5c-.1.2-.2.3-.3.5-.3.3-.6.6-1 .7-.3.1-.5.1-.8.1-.3 0-.6-.1-.9-.2-.3-.1-.6-.3-.8-.5-.2-.3-.4-.6-.5-.9-.1-.4-.2-.9-.2-1.3s0-.8.2-1.2c.1-.3.2-.6.5-.9.2-.2.4-.4.7-.6.3-.1.6-.2.9-.2.3 0 .6 0 .8.1.3.1.5.2.7.4.2.2.4.5.5.8.1.4.2.8.2 1.1v.6h-3.6c0 .3 0 .6.1.8.1.2.2.5.4.7.1.2.3.3.5.4.2.1.4.2.6.2.3 0 .6-.1.9-.3.3-.2.5-.4.6-.7l.5.4zm-.9-2.1c0-.4-.1-.9-.3-1.2-.2-.3-.6-.5-1-.5s-.8.1-1.1.5c-.3.4-.4.8-.4 1.2h2.8zM144.6 22.7v-7.6h.8v.7l.3-.3c.1-.1.2-.2.4-.2.1-.1.3-.1.4-.2.1 0 .3-.1.4-.1.3 0 .5.1.8.1.3.1.5.3.7.5.2.3.4.6.5.9.2.4.2.9.2 1.4 0 .5-.1.9-.2 1.4-.1.3-.3.6-.5.9-.2.2-.4.4-.7.5-.2.1-.5.1-.7.1-.3 0-.5-.1-.8-.2-.2-.1-.5-.3-.7-.4v2.6l-.9-.1zm.8-3.4c.2.2.4.4.7.6.2.1.5.2.7.2.2 0 .4 0 .6-.1.2-.1.4-.2.5-.4.2-.2.3-.4.3-.7.1-.3.1-.7.1-1.1 0-.6-.1-1.1-.4-1.6-.3-.4-.7-.6-1.1-.6-.2 0-.5.1-.7.2-.3.2-.5.4-.7.6v2.9zM150.3 15.1h.8v1.1c.1-.2.2-.3.3-.5.1-.1.2-.3.4-.4.1-.1.3-.2.5-.2.2-.1.4-.1.6-.1v.8c-.4 0-.8.2-1.1.5-.3.4-.6.8-.7 1.3v3.1h-.8v-5.6zM158 17.9c0 .4 0 .8-.1 1.1-.1.3-.2.6-.4.9-.2.3-.4.5-.7.6-.6.3-1.4.3-2 0-.3-.1-.5-.4-.7-.6-.2-.3-.3-.6-.4-.9-.2-.7-.2-1.5 0-2.3.1-.3.2-.6.4-.9.2-.3.4-.5.7-.6.6-.3 1.4-.3 2 0 .3.1.5.4.7.6.2.3.3.6.4.9.1.4.1.8.1 1.2zm-.8 0c0-.6-.1-1.2-.4-1.7-.4-.6-1.3-.8-1.9-.3l-.3.3c-.5 1-.5 2.3 0 3.3.4.6 1.3.8 1.9.3l.3-.3c.3-.5.5-1 .4-1.6zM162.5 16.8c-.1-.3-.3-.6-.5-.8-.2-.2-.5-.3-.8-.3-.4 0-.9.2-1.1.6-.5 1-.5 2.3 0 3.3.2.4.7.6 1.1.6h.5c.1 0 .3-.1.4-.2l.3-.3c.1-.2.2-.3.3-.5l.6.3c-.1.2-.3.4-.4.6-.1.2-.3.3-.5.4l-.6.3c-.2.1-.5.1-.7.1-.3 0-.6-.1-.9-.2-.3-.1-.5-.3-.7-.6-.2-.3-.4-.6-.5-.9-.2-.8-.2-1.6 0-2.4.1-.3.2-.6.5-.9.2-.2.4-.4.7-.6.3-.1.6-.2.9-.2.3 0 .5 0 .7.1l.6.3c.2.1.3.3.4.5l.3.6-.6.2zM168.7 19.5c-.1.2-.2.3-.3.5-.3.3-.6.6-1 .7-.3.1-.5.1-.8.1-.3 0-.6-.1-.9-.2-.3-.1-.6-.3-.8-.5-.2-.3-.4-.6-.5-.9-.1-.4-.2-.9-.2-1.3s0-.8.2-1.2c.1-.3.3-.6.5-.9.2-.2.4-.4.7-.6.3-.1.6-.2.9-.2.3 0 .6 0 .8.1.3.1.5.2.7.4.2.2.4.5.5.8.1.4.2.8.2 1.1v.6h-3.6c0 .3 0 .6.1.8.1.2.2.5.4.7.1.2.3.3.5.4.2.1.4.2.6.2.3 0 .6-.1.9-.3.3-.2.5-.4.6-.7l.5.4zm-1-2.1c0-.4-.1-.9-.3-1.2-.2-.3-.6-.5-1-.5s-.8.1-1.1.5c-.3.4-.4.8-.4 1.2h2.8zM174 19.5c-.1.2-.2.3-.3.5-.3.3-.6.6-1 .7-.3.1-.5.1-.8.1-.3 0-.6-.1-.9-.2-.3-.1-.6-.3-.8-.5-.2-.3-.4-.6-.5-.9-.1-.4-.2-.9-.2-1.3s0-.8.2-1.2c.1-.3.2-.6.5-.9.2-.2.4-.4.7-.6.3-.1.6-.2.9-.2.3 0 .6 0 .8.1.3.1.5.2.7.4.2.2.4.5.5.8.1.4.2.8.2 1.1v.6h-3.6c0 .3 0 .6.1.8.1.2.2.5.4.7.1.2.3.3.5.4.2.1.4.2.6.2.3 0 .6-.1.9-.3.3-.2.5-.4.6-.7l.5.4zm-.9-2.1c0-.4-.1-.9-.3-1.2-.2-.3-.6-.5-1-.5s-.8.1-1.1.5c-.3.4-.4.8-.4 1.2h2.8zM179.3 12.9V20.6h-.7l-.1-.5c-.2.2-.4.4-.6.5-.3.1-.6.2-.9.2-.3 0-.5 0-.8-.1-.3-.1-.5-.3-.7-.5l-.6-.9c-.2-.4-.2-.9-.2-1.4 0-.5.1-.9.2-1.4.1-.3.3-.6.5-.9.2-.2.4-.4.7-.5.2-.1.5-.1.7-.1.3 0 .5.1.8.2.2.1.5.3.7.4v-2.7h1zm-.7 3.5c-.2-.2-.4-.4-.7-.6-.2-.1-.5-.2-.7-.2-.2 0-.4 0-.6.1-.2.1-.4.2-.5.4-.2.2-.3.4-.3.7-.1.3-.1.7-.1 1.1 0 .6.1 1.1.4 1.6.3.4.7.6 1.1.6.2 0 .5-.1.7-.2.3-.2.5-.4.7-.6v-2.9zM181.8 12.8v.9h-.8v-.9h.8zm-.7 2.3h.8v5.6h-.8v-5.6zM184.3 15.1v.7c.2-.2.5-.5.7-.6.3-.2.6-.2.9-.2.2 0 .4 0 .6.1.2.1.4.1.5.3.2.1.3.3.4.5.1.2.1.5.1.8v4h-.8v-4c0-.3-.1-.6-.2-.8-.2-.2-.4-.2-.7-.2-.2 0-.3 0-.4.1-.2.1-.3.1-.4.2-.1.1-.3.2-.4.3l-.3.3v4.2h-.8v-5.6h.8zM193.6 15.7h-.5c-.1 0-.3.1-.4.1.1.1.2.3.3.4.1.2.1.4.1.7 0 .3-.1.5-.2.8-.2.5-.6.8-1.1 1-.3.1-.5.2-.8.1h-.5c-.1 0-.3-.1-.4-.1-.3 0-.4.3-.4.5 0 .1 0 .2.1.3.1.1.2.1.3.1.6 0 1.1 0 1.7.1.4 0 .7.1 1.1.3.2.1.4.3.6.5.1.2.2.5.2.7 0 .2-.1.4-.2.6-.1.2-.3.4-.5.5-.2.2-.5.3-.8.3-.4.1-.7.1-1.1.1-.6 0-1.2-.1-1.8-.3-.4-.2-.6-.6-.6-1 0-.2.1-.5.2-.7.2-.2.4-.4.7-.5-.2-.1-.4-.2-.5-.3-.1-.1-.2-.3-.2-.5s.1-.4.2-.6c.2-.1.3-.3.5-.4-.2-.2-.4-.4-.6-.7-.1-.3-.2-.6-.2-.9 0-.3.1-.5.2-.8.1-.2.3-.4.4-.6.2-.2.4-.3.7-.4.3-.1.6-.1.8-.1.3 0 .5 0 .8.1l.6.3.6-.3c.2-.1.4-.1.6-.2l.1.9zm-.7 5.5c0-.3-.2-.5-.5-.6-.5-.2-1-.2-1.5-.2-.3 0-.5 0-.7.1-.2 0-.3.1-.5.2l-.3.3c0 .1-.1.2-.1.3 0 .1 0 .2.1.3.1.1.1.2.3.2.2.1.4.1.5.1.3 0 .6.1.9 0h.6c.2 0 .4-.1.5-.1.1-.1.3-.1.4-.3.2 0 .3-.1.3-.3zm-.5-4.2c0-.4-.1-.7-.4-1-.3-.3-.7-.4-1.1-.4-.7-.1-1.3.4-1.3 1.1v.2c0 .3.1.7.4.9.3.3.7.4 1 .4.2 0 .4 0 .6-.1.2-.1.3-.2.4-.3.1-.1.2-.2.3-.4.1-.1.1-.3.1-.4zM196.2 15.1h.8l1.1 4.3 1.1-4.3h.8l1.1 4.3 1.1-4.3h.8l-1.5 5.6h-.8l-1.1-4.3-1.1 4.3h-.8l-1.5-5.6zM204.8 12.8v.9h-.8v-.9h.8zm-.7 2.3h.8v5.6h-.8v-5.6zM206.9 15.1v-1.8h.8v1.8h1.3v.7h-1.3v4c0 .1 0 .2.1.3.2.1.3.1.5.1h.7v.6c-.1 0-.2 0-.3.1h-.6c-.3 0-.6 0-.9-.2-.2-.2-.3-.5-.3-.7v-4.1h-.9v-.7l.9-.1zM210.8 12.9v2.9c.2-.2.5-.5.7-.6.3-.2.6-.2.9-.2.2 0 .4 0 .6.1.2.1.4.1.5.3.2.1.3.3.4.5.1.2.1.5.1.8v4h-.8v-4c0-.3-.1-.6-.2-.8-.2-.2-.4-.2-.7-.2-.2 0-.3 0-.4.1-.2.1-.3.1-.4.2-.1.1-.3.2-.4.3l-.3.3v4.2h-.8v-7.7l.8-.2zM221.9 15.1l-2 6.1c-.1.3-.2.5-.4.8-.1.2-.3.3-.5.5-.2.1-.3.2-.5.2s-.4.1-.5.1h-.5V22h.8c.1 0 .3-.1.4-.2.2-.1.3-.2.4-.4.1-.2.2-.5.3-.7l-1.9-5.6h.8l1.5 4.2 1.3-4.2h.8zM226.9 17.9c0 .4 0 .8-.1 1.1-.1.3-.2.6-.4.9-.2.3-.4.5-.7.6-.6.3-1.4.3-2 0-.3-.1-.5-.4-.7-.6-.2-.3-.3-.6-.4-.9-.2-.7-.2-1.5 0-2.3.1-.3.2-.6.4-.9.2-.3.4-.5.7-.6.6-.3 1.4-.3 2 0 .3.1.5.4.7.6.2.3.3.6.4.9 0 .4.1.8.1 1.2zm-.8 0c0-.6-.1-1.2-.4-1.7-.4-.6-1.3-.8-1.9-.3l-.3.3c-.5 1-.5 2.3 0 3.3.4.6 1.3.8 1.9.3l.3-.3c.3-.5.4-1 .4-1.6zM231.4 20.7V20c-.2.2-.5.5-.7.6-.3.2-.6.2-.9.2-.2 0-.4 0-.6-.1-.2-.1-.4-.1-.5-.3-.2-.1-.3-.3-.4-.5-.1-.2-.1-.5-.1-.8v-4h.8v4c0 .3.1.6.2.8.2.2.4.2.7.2.2 0 .3 0 .4-.1.2-.1.3-.1.4-.2.1-.1.3-.2.4-.3l.3-.3V15h.8v5.6h-.8zM233.7 15.1h.8v1.1c.1-.2.2-.3.3-.5.1-.1.2-.3.4-.4.1-.1.3-.2.5-.2.2-.1.4-.1.6-.1v.8c-.4 0-.8.2-1.1.5-.3.4-.6.8-.7 1.3v3.1h-.8v-5.6zM239.7 22.7v-7.6h.8v.7l.3-.3c.1-.1.2-.2.4-.2.1-.1.3-.1.4-.2.1 0 .3-.1.4-.1.3 0 .5.1.8.1.3.1.5.3.7.5.2.3.4.6.5.9.2.4.2.9.2 1.4 0 .5-.1.9-.2 1.4-.1.3-.3.6-.5.9-.2.2-.4.4-.7.5-.2.1-.5.1-.7.1-.3 0-.5-.1-.8-.2-.2-.1-.5-.3-.7-.4v2.6l-.9-.1zm.7-3.4c.2.2.4.4.7.6.2.1.5.2.7.2.2 0 .4 0 .6-.1.2-.1.4-.2.5-.4.2-.2.3-.4.3-.7.1-.3.1-.7.1-1.1 0-.6-.1-1.1-.4-1.6-.3-.4-.7-.6-1.1-.6-.2 0-.5.1-.7.2-.3.2-.5.4-.7.6v2.9zM248.7 20.7V20c-.2.2-.5.5-.7.6-.3.2-.6.2-.9.2-.2 0-.4 0-.6-.1-.2-.1-.4-.1-.5-.3-.2-.1-.3-.3-.4-.5-.1-.2-.1-.5-.1-.8v-4h.8v4c0 .3.1.6.2.8.2.2.4.2.7.2.2 0 .3 0 .4-.1.2-.1.3-.1.4-.2.1-.1.3-.2.4-.3l.3-.3V15h.8v5.6h-.8zM251 15.1h.8v1.1c.1-.2.2-.3.3-.5.1-.1.2-.3.4-.4.1-.1.3-.2.5-.2.2-.1.4-.1.6-.1v.8c-.4 0-.8.2-1.1.5-.3.4-.6.8-.7 1.3v3.1h-.8v-5.6zM257.8 16.8c-.1-.3-.3-.6-.5-.8-.2-.2-.5-.3-.8-.3-.4 0-.9.2-1.1.6-.5 1-.5 2.3 0 3.3.2.4.7.6 1.1.6h.5c.1 0 .3-.1.4-.2l.3-.3c.1-.2.2-.3.3-.5l.6.3c-.1.2-.3.4-.4.6-.1.2-.3.3-.5.4l-.6.3c-.2.1-.5.1-.7.1-.3 0-.6-.1-.9-.2-.3-.1-.5-.3-.7-.6-.2-.3-.4-.6-.5-.9-.2-.8-.2-1.6 0-2.4.1-.3.2-.6.5-.9.2-.2.4-.4.7-.6.3-.1.6-.2.9-.2.3 0 .5 0 .7.1l.6.3c.2.1.3.3.4.5l.3.6-.6.2zM260.6 12.9v2.9c.2-.2.5-.5.7-.6.3-.2.6-.2.9-.2.2 0 .4 0 .6.1.2.1.4.1.5.3.2.1.3.3.4.5.1.2.1.5.1.8v4h-.8v-4c0-.3-.1-.6-.2-.8-.2-.2-.4-.2-.7-.2-.2 0-.3 0-.4.1-.2.1-.3.1-.4.2-.1.1-.3.2-.4.3l-.3.3v4.2h-.8v-7.7l.8-.2zM265.2 16.2c.2-.3.5-.6.8-.8.4-.2.8-.4 1.3-.3.2 0 .5 0 .7.1l.6.3c.2.1.3.3.4.5.1.2.2.5.2.8v3.5c0 .2.1.3.1.5h-.8l-.1-.8c-.2.2-.5.4-.7.6-.3.2-.7.3-1.1.3-.2 0-.4 0-.6-.1-.4-.1-.7-.4-.8-.8-.1-.2-.1-.4-.1-.7 0-.6.3-1.1.8-1.4.3-.2.7-.4 1.1-.5.5-.2 1-.3 1.6-.4v-.3c0-.3-.1-.6-.3-.8-.2-.2-.5-.2-.8-.2-.2 0-.4 0-.6.1-.1 0-.3.1-.4.2l-.3.3c-.1.1-.1.2-.2.3l-.8-.4zm3.3 1.5c-1.8.3-2.6.8-2.6 1.6 0 .1 0 .2.1.4.1.1.1.2.2.3.1.1.2.1.3.2.1 0 .2.1.3.1.1 0 .3 0 .4-.1.2 0 .3-.1.5-.2s.3-.2.4-.3c.1-.1.3-.2.4-.4v-1.6zM270.8 19.2c.2.3.4.5.7.6.3.2.6.2.9.2.3 0 .7-.1.9-.3.2-.2.3-.4.3-.6 0-.2-.1-.4-.2-.6-.2-.1-.4-.3-.6-.3-.2-.1-.5-.2-.8-.2-.3-.1-.5-.2-.8-.3-.2-.1-.4-.3-.6-.5-.2-.2-.2-.5-.2-.8 0-.4.2-.8.5-1.1.4-.3.8-.4 1.3-.4.2 0 .4 0 .6.1.2 0 .4.1.5.2.2.1.3.2.5.3.1.1.3.2.4.4l-.5.5c-.2-.2-.4-.4-.7-.6-.2-.1-.5-.2-.8-.2-.3 0-.5.1-.7.2-.2.2-.3.4-.3.6 0 .2.1.4.2.5l.6.3c.2.1.5.2.8.2.3.1.5.2.8.3.2.1.4.3.6.5.2.2.3.5.2.8 0 .2 0 .5-.2.7-.1.2-.3.4-.4.5l-.6.3c-.2.1-.5.1-.7.1-.4 0-.9-.1-1.2-.3-.4-.2-.7-.4-1-.8l.5-.3zM279.7 19.5c-.1.2-.2.3-.3.5-.3.3-.6.6-1 .7-.3.1-.5.1-.8.1-.3 0-.6-.1-.9-.2-.3-.1-.6-.3-.8-.5-.2-.3-.4-.6-.5-.9-.1-.4-.2-.9-.2-1.3s0-.8.2-1.2c.1-.3.2-.6.5-.9.2-.2.4-.4.7-.6.3-.1.6-.2.9-.2.3 0 .6 0 .8.1.3.1.5.2.7.4.2.2.4.5.5.8.1.4.2.8.2 1.1v.6h-3.6c0 .3 0 .6.1.8.1.2.2.5.4.7.1.2.3.3.5.4.2.1.4.2.6.2.3 0 .6-.1.9-.3.3-.2.5-.4.6-.7l.5.4zm-.9-2.1c0-.4-.1-.9-.3-1.2-.2-.3-.6-.5-1-.5s-.8.1-1.1.5c-.3.4-.4.8-.4 1.2h2.8zM282.1 20.7l-.7 1.6h-.4l.5-1.6h-.5v-1.2h1v1.2zM290 15.1l-2 6.1c-.1.3-.2.5-.4.8-.1.2-.3.3-.5.5-.2.1-.3.2-.5.2s-.4.1-.5.1h-.5V22h.8c.1 0 .3-.1.4-.2.2-.1.3-.2.4-.4.1-.2.2-.5.3-.7l-1.9-5.6h.8l1.5 4.2 1.3-4.2h.8zM295 17.9c0 .4 0 .8-.1 1.1-.1.3-.2.6-.4.9-.2.3-.4.5-.7.6-.6.3-1.4.3-2 0-.3-.1-.5-.4-.7-.6-.2-.3-.3-.6-.4-.9-.2-.7-.2-1.5 0-2.3.1-.3.2-.6.4-.9.2-.3.4-.5.7-.6.6-.3 1.4-.3 2 0 .3.1.5.4.7.6.2.3.3.6.4.9.1.4.1.8.1 1.2zm-.8 0c0-.6-.1-1.2-.4-1.7-.4-.6-1.3-.8-1.9-.3l-.3.3c-.5 1-.5 2.3 0 3.3.4.6 1.3.8 1.9.3l.3-.3c.3-.5.5-1 .4-1.6zM299.5 20.7V20c-.2.2-.5.5-.7.6-.3.2-.6.2-.9.2-.2 0-.4 0-.6-.1-.2-.1-.4-.1-.5-.3-.2-.1-.3-.3-.4-.5-.1-.2-.1-.5-.1-.8v-4h.8v4c0 .3.1.6.2.8.2.2.4.2.7.2.2 0 .3 0 .4-.1.2-.1.3-.1.4-.2.1-.1.3-.2.4-.3l.3-.3V15h.8v5.6h-.8zM304.3 19.2c.2.3.4.5.7.6.3.2.6.2.9.2.3 0 .7-.1.9-.3.2-.2.3-.4.3-.6 0-.2-.1-.4-.2-.6-.2-.1-.4-.3-.6-.3-.2-.1-.5-.2-.8-.2-.3-.1-.5-.2-.8-.3-.2-.1-.4-.3-.6-.5-.2-.2-.2-.5-.2-.8 0-.4.2-.8.5-1.1.4-.3.8-.4 1.3-.4.2 0 .4 0 .6.1.2 0 .4.1.5.2.2.1.3.2.5.3.1.1.3.2.4.4l-.5.5c-.2-.2-.4-.4-.7-.6-.2-.1-.5-.2-.8-.2-.3 0-.5.1-.7.2-.2.2-.3.4-.3.6 0 .2.1.4.2.5l.6.3c.2.1.5.2.8.2.3.1.5.2.8.3.2.1.4.3.6.5.2.2.3.5.2.8 0 .2 0 .5-.2.7-.1.2-.3.4-.4.5l-.6.3c-.2.1-.5.1-.7.1-.4 0-.9-.1-1.2-.3-.4-.2-.7-.4-1-.8l.5-.3zM309.8 12.9v2.9c.2-.2.5-.5.7-.6.3-.2.6-.2.9-.2.2 0 .4 0 .6.1.2.1.4.1.5.3.2.1.3.3.4.5.1.2.1.5.1.8v4h-.8v-4c0-.3-.1-.6-.2-.8-.2-.2-.4-.2-.7-.2-.2 0-.3 0-.4.1-.2.1-.3.1-.4.2-.1.1-.3.2-.4.3l-.3.3v4.2h-.8v-7.7l.8-.2zM318.9 17.9c0 .4 0 .8-.1 1.1-.1.3-.2.6-.4.9-.2.3-.4.5-.7.6-.6.3-1.4.3-2 0-.3-.1-.5-.4-.7-.6-.2-.3-.3-.6-.4-.9-.2-.7-.2-1.5 0-2.3.1-.3.2-.6.4-.9.2-.3.4-.5.7-.6.6-.3 1.4-.3 2 0 .3.1.5.4.7.6.2.3.3.6.4.9 0 .4.1.8.1 1.2zm-.8 0c0-.6-.1-1.2-.4-1.7-.4-.6-1.3-.8-1.9-.3l-.3.3c-.5 1-.5 2.3 0 3.3.4.6 1.3.8 1.9.3l.3-.3c.3-.5.5-1 .4-1.6zM323.4 20.7V20c-.2.2-.5.5-.7.6-.3.2-.6.2-.9.2-.2 0-.4 0-.6-.1-.2-.1-.4-.1-.5-.3-.2-.1-.3-.3-.4-.5-.1-.2-.1-.5-.1-.8v-4h.8v4c0 .3.1.6.2.8.2.2.4.2.7.2.2 0 .3 0 .4-.1.2-.1.3-.1.4-.2.1-.1.3-.2.4-.3l.3-.3V15h.8v5.6h-.8zM326.7 12.9v7.7h-.8v-7.7h.8zM332.6 12.9V20.6h-.7l-.1-.5c-.2.2-.4.4-.6.5-.3.1-.6.2-.9.2-.3 0-.5 0-.8-.1-.3-.1-.5-.3-.7-.5l-.6-.9c-.2-.4-.2-.9-.2-1.4 0-.5.1-.9.2-1.4.1-.3.3-.6.5-.9.2-.2.4-.4.7-.5.2-.1.5-.1.7-.1.3 0 .5.1.8.2.2.1.5.3.7.4v-2.7h1zm-.8 3.5c-.2-.2-.4-.4-.7-.6-.2-.1-.5-.2-.7-.2-.2 0-.4 0-.6.1-.2.1-.4.2-.5.4-.2.2-.3.4-.3.7-.1.3-.1.7-.1 1.1 0 .6.1 1.1.4 1.6.3.4.7.6 1.1.6.2 0 .5-.1.7-.2.3-.2.5-.4.7-.6v-2.9zM336.6 19.2c.2.3.4.5.7.6.3.2.6.2.9.2.3 0 .7-.1.9-.3.2-.2.3-.4.3-.6 0-.2-.1-.4-.2-.6-.2-.1-.4-.3-.6-.3-.2-.1-.5-.2-.8-.2-.3-.1-.5-.2-.8-.3-.2-.1-.4-.3-.6-.5-.2-.2-.2-.5-.2-.8 0-.4.2-.8.5-1.1.4-.3.8-.4 1.3-.4.2 0 .4 0 .6.1.2 0 .4.1.5.2.2.1.3.2.5.3.1.1.3.2.4.4l-.5.5c-.2-.2-.4-.4-.7-.6-.2-.1-.5-.2-.8-.2-.3 0-.5.1-.7.2-.2.2-.3.4-.3.6 0 .2.1.4.2.5l.6.3c.2.1.5.2.8.2.3.1.5.2.8.3.2.1.4.3.6.5.2.2.3.5.2.8 0 .2 0 .5-.2.7-.1.2-.3.4-.4.5l-.6.3c-.2.1-.5.1-.7.1-.4 0-.9-.1-1.2-.3-.4-.2-.7-.4-1-.8l.5-.3zM345.5 19.5c-.1.2-.2.3-.3.5-.3.3-.6.6-1 .7-.3.1-.5.1-.8.1-.3 0-.6-.1-.9-.2-.3-.1-.6-.3-.8-.5-.2-.3-.4-.6-.5-.9-.1-.4-.2-.9-.2-1.3s0-.8.2-1.2c.1-.3.2-.6.5-.9.2-.2.4-.4.7-.6.3-.1.6-.2.9-.2.3 0 .6 0 .8.1.3.1.5.2.7.4.2.2.4.5.5.8.1.4.2.8.2 1.1v.6h-3.6c0 .3 0 .6.1.8.1.2.2.5.4.7.1.2.3.3.5.4.2.1.4.2.6.2.3 0 .6-.1.9-.3.3-.2.5-.4.6-.7l.5.4zm-.9-2.1c0-.4-.1-.9-.3-1.2-.2-.3-.6-.5-1-.5s-.8.1-1.1.5c-.3.4-.4.8-.4 1.2h2.8zM350.8 19.5c-.1.2-.2.3-.3.5-.3.3-.6.6-1 .7-.3.1-.5.1-.8.1-.3 0-.6-.1-.9-.2-.3-.1-.6-.3-.8-.5-.2-.3-.4-.6-.5-.9-.1-.4-.2-.9-.2-1.3s0-.8.2-1.2c.1-.3.2-.6.5-.9.2-.2.4-.4.7-.6.3-.1.6-.2.9-.2.3 0 .6 0 .8.1.3.1.5.2.7.4.2.2.4.5.5.8.1.4.2.8.2 1.1v.6h-3.6c0 .3 0 .6.1.8.1.2.2.5.4.7.1.2.3.3.5.4.2.1.4.2.6.2.3 0 .6-.1.9-.3.3-.2.5-.4.6-.7l.5.4zm-.9-2.1c0-.4-.1-.9-.3-1.2-.2-.3-.6-.5-1-.5s-.8.1-1.1.5c-.3.4-.4.8-.4 1.2h2.8zM352 12.9h.8v5l2.2-2.8h.9l-1.6 2.1 1.8 3.5h-.9l-1.5-2.8-1 1.2v1.7h-.7v-7.9zM359.5 19.2c.2.3.4.5.7.6.3.2.6.2.9.2.3 0 .7-.1.9-.3.2-.2.3-.4.3-.6 0-.2-.1-.4-.2-.6-.2-.1-.4-.3-.6-.3-.2-.1-.5-.2-.8-.2-.3-.1-.5-.2-.8-.3-.2-.1-.4-.3-.6-.5-.2-.2-.2-.5-.2-.8 0-.4.2-.8.5-1.1.4-.3.8-.4 1.3-.4.2 0 .4 0 .6.1.2 0 .4.1.5.2.2.1.3.2.5.3.1.1.3.2.4.4l-.5.5c-.2-.2-.4-.4-.7-.6-.2-.1-.5-.2-.8-.2-.3 0-.5.1-.7.2-.2.2-.3.4-.3.6 0 .2.1.4.2.5l.6.3c.2.1.5.2.8.2.3.1.5.2.8.3.2.1.4.3.6.5.2.2.3.5.2.8 0 .2 0 .5-.2.7-.1.2-.3.4-.4.5l-.6.3c-.2.1-.5.1-.7.1-.4 0-.9-.1-1.2-.3-.4-.2-.7-.4-1-.8l.5-.3zM364.2 22.7v-7.6h.8v.7l.3-.3c.1-.1.2-.2.4-.2.1-.1.3-.1.4-.2.1 0 .3-.1.4-.1.3 0 .5.1.8.1.3.1.5.3.7.5.2.3.4.6.5.9.2.4.2.9.2 1.4 0 .5-.1.9-.2 1.4-.1.3-.3.6-.5.9-.2.2-.4.4-.7.5-.2.1-.5.1-.7.1-.3 0-.5-.1-.8-.2-.2-.1-.5-.3-.7-.4v2.6l-.9-.1zm.8-3.4c.2.2.4.4.7.6.2.1.5.2.7.2.2 0 .4 0 .6-.1.2-.1.4-.2.5-.4.2-.2.3-.4.3-.7.1-.3.1-.7.1-1.1 0-.6-.1-1.1-.4-1.6-.3-.4-.7-.6-1.1-.6-.2 0-.5.1-.7.2-.3.2-.5.4-.7.6v2.9zM374.2 19.5c-.1.2-.2.3-.3.5-.3.3-.6.6-1 .7-.3.1-.5.1-.8.1-.3 0-.6-.1-.9-.2-.3-.1-.6-.3-.8-.5-.2-.3-.4-.6-.5-.9-.1-.4-.2-.9-.2-1.3s0-.8.2-1.2c.1-.3.2-.6.5-.9.2-.2.4-.4.7-.6.3-.1.6-.2.9-.2.3 0 .6 0 .8.1.3.1.5.2.7.4.2.2.4.5.5.8.1.4.2.8.2 1.1v.6h-3.6c0 .3 0 .6.1.8.1.2.2.5.4.7.1.2.3.3.5.4.2.1.4.2.6.2.3 0 .6-.1.9-.3.3-.2.5-.4.6-.7l.5.4zm-.9-2.1c0-.4-.1-.9-.3-1.2-.2-.3-.6-.5-1-.5s-.8.1-1.1.5c-.3.4-.4.8-.4 1.2h2.8zM378.6 16.8c-.1-.3-.3-.6-.5-.8-.2-.2-.5-.3-.8-.3-.4 0-.9.2-1.1.6-.5 1-.5 2.3 0 3.3.2.4.7.6 1.1.6h.5c.1 0 .3-.1.4-.2l.3-.3c.1-.2.2-.3.3-.5l.6.3c-.1.2-.3.4-.4.6-.1.2-.3.3-.5.4l-.6.3c-.2.1-.5.1-.7.1-.3 0-.6-.1-.9-.2-.3-.1-.5-.3-.7-.6-.2-.3-.4-.6-.5-.9-.2-.8-.2-1.6 0-2.4.1-.3.2-.6.5-.9.2-.2.4-.4.7-.6.3-.1.6-.2.9-.2.3 0 .5 0 .7.1l.6.3c.2.1.3.3.4.5l.3.6-.6.2zM381.5 12.8v.9h-.8v-.9h.8zm-.8 2.3h.8v5.6h-.8v-5.6zM382.9 16.2c.2-.3.5-.6.8-.8.4-.2.8-.4 1.3-.3.2 0 .5 0 .7.1l.6.3c.2.1.3.3.4.5.1.2.2.5.2.8v3.5c0 .2.1.3.1.5h-.8l-.1-.8c-.2.2-.5.4-.7.6-.3.2-.7.3-1.1.3-.2 0-.4 0-.6-.1-.4-.1-.7-.4-.8-.8-.1-.2-.1-.4-.1-.7 0-.6.3-1.1.8-1.4.3-.2.7-.4 1.1-.5.5-.2 1-.3 1.6-.4v-.3c0-.3-.1-.6-.3-.8-.2-.2-.5-.2-.8-.2-.2 0-.4 0-.6.1-.1 0-.3.1-.4.2-.2.1-.4.3-.4.6l-.9-.4zm3.3 1.5c-1.8.3-2.6.8-2.6 1.6 0 .1 0 .2.1.4.1.1.1.2.2.3.1.1.2.1.3.2.1 0 .2.1.3.1.1 0 .3 0 .4-.1.2 0 .3-.1.5-.2s.3-.2.4-.3c.1-.1.3-.2.4-.4v-1.6zM389.3 12.9v7.7h-.8v-7.7h.8zM391.9 12.8v.9h-.8v-.9h.8zm-.8 2.3h.8v5.6h-.8v-5.6zM393.7 19.2c.2.3.4.5.7.6.3.2.6.2.9.2.3 0 .7-.1.9-.3.2-.2.3-.4.3-.6 0-.2-.1-.4-.2-.6-.2-.1-.4-.3-.6-.3-.2-.1-.5-.2-.8-.2-.3-.1-.5-.2-.8-.3-.2-.1-.4-.3-.6-.5-.2-.2-.2-.5-.2-.8 0-.4.2-.8.5-1.1.4-.3.8-.4 1.3-.4.2 0 .4 0 .6.1.2 0 .4.1.5.2.2.1.3.2.5.3.1.1.3.2.4.4l-.5.5c-.2-.2-.4-.4-.7-.6-.2-.1-.5-.2-.8-.2-.3 0-.5.1-.7.2-.2.2-.3.4-.3.6 0 .2.1.4.2.5l.6.3c.2.1.5.2.8.2.3.1.5.2.8.3.2.1.4.3.6.5.2.2.3.5.2.8 0 .2 0 .5-.2.7-.1.2-.3.4-.4.5l-.6.3c-.2.1-.5.1-.7.1-.4 0-.9-.1-1.2-.3-.4-.2-.7-.4-1-.8l.5-.3zM398.7 15.1v-1.8h.8v1.8h1.3v.7h-1.3v4c0 .1 0 .2.1.3.1.1.3.1.5.1h.7v.6c-.1 0-.2 0-.3.1h-.6c-.3 0-.6 0-.9-.2-.2-.2-.3-.5-.3-.7v-4.1h-.9v-.7l.9-.1zM404.5 15.1v-1.8h.8v1.8h1.3v.7h-1.3v4c0 .1 0 .2.1.3.1.1.3.1.5.1h.7v.6c-.1 0-.2 0-.3.1h-.6c-.3 0-.6 0-.9-.2-.2-.2-.3-.5-.3-.7v-4.1h-.9v-.7l.9-.1zM407.5 16.2c.2-.3.5-.6.8-.8.4-.2.8-.4 1.3-.3.2 0 .5 0 .7.1l.6.3c.2.1.3.3.4.5.1.2.2.5.2.8v3.5c0 .2.1.3.1.5h-.8l-.1-.8c-.2.2-.5.4-.7.6-.3.2-.7.3-1.1.3-.2 0-.4 0-.6-.1-.4-.1-.7-.4-.8-.8-.1-.2-.1-.4-.1-.7 0-.6.3-1.1.8-1.4.3-.2.7-.4 1.1-.5.5-.2 1-.3 1.6-.4v-.3c0-.3-.1-.6-.3-.8-.2-.2-.5-.2-.8-.2-.2 0-.4 0-.6.1-.1 0-.3.1-.4.2l-.3.3c-.1.1-.1.2-.2.3l-.8-.4zm3.3 1.5c-1.8.3-2.6.8-2.6 1.6 0 .1 0 .2.1.4.1.1.1.2.2.3.1.1.2.1.3.2.1 0 .2.1.3.1.1 0 .3 0 .4-.1.2 0 .3-.1.5-.2s.3-.2.4-.3c.1-.1.3-.2.4-.4v-1.6zM414.7 17.1l1.2-2h.9l-1.6 2.6 1.8 2.9h-.9l-1.4-2.3-1.3 2.3h-.9l1.8-2.9-1.6-2.6h.9l1.1 2zM6.3 29c.2-.3.5-.6.8-.8.4-.2.8-.4 1.3-.3.2 0 .5 0 .7.1l.6.3c.2.1.3.3.4.5.1.2.2.5.2.8v3.5c0 .2.1.3.1.5h-.7l-.1-.8c-.2.2-.5.4-.7.6-.3.2-.7.3-1.1.3-.2 0-.4 0-.6-.1-.4-.1-.7-.4-.8-.8-.1-.2-.1-.4-.1-.7 0-.6.3-1.1.8-1.4.3-.2.7-.4 1.1-.5.5-.2 1-.3 1.6-.4v-.3c0-.3-.1-.6-.3-.8-.2-.2-.5-.2-.8-.2-.2 0-.4 0-.6.1-.1 0-.3.1-.4.2l-.3.3c-.3 0-.4.1-.4.3l-.7-.4zm3.3 1.5c-1.8.3-2.6.8-2.6 1.6 0 .1 0 .2.1.4.1.1.1.2.2.3.1.1.2.1.3.2.1 0 .2.1.3.1.1 0 .3 0 .4-.1.2 0 .3-.1.5-.2s.3-.2.4-.3c.1-.1.3-.2.4-.4v-1.6zM12.6 27.9v.7c.2-.2.5-.5.7-.6.3-.2.6-.2.9-.2.2 0 .4 0 .6.1.2.1.4.1.5.3.2.1.3.3.4.5.1.2.1.5.1.8v4H15v-4c0-.3-.1-.6-.2-.8-.2-.2-.4-.2-.7-.2-.2 0-.3 0-.4.1-.2.1-.3.1-.4.2-.1.1-.3.2-.4.3l-.3.3v4.2h-.8V28h.8zM21.7 25.8V33.5H21l-.1-.5c-.2.2-.4.4-.6.5-.3.1-.6.2-.9.2-.3 0-.5 0-.8-.1-.3-.1-.5-.3-.7-.5l-.6-.9c-.2-.4-.2-.9-.2-1.4 0-.5.1-.9.2-1.4.1-.3.3-.6.5-.9.2-.2.4-.4.7-.5.2-.1.5-.1.7-.1.3 0 .5.1.8.2.2.1.5.3.7.4v-2.7h1zm-.8 3.5c-.2-.2-.4-.4-.7-.6-.2-.1-.5-.2-.7-.2-.2 0-.4 0-.6.1-.2.1-.4.2-.5.4-.2.2-.3.4-.3.7-.1.3-.1.7-.1 1.1 0 .6.1 1.1.4 1.6.3.4.7.6 1.1.6.2 0 .5-.1.7-.2.3-.2.5-.4.7-.6v-2.9zM26.3 29c.2-.3.5-.6.8-.8.4-.2.8-.4 1.3-.3.2 0 .5 0 .7.1l.6.3c.2.1.3.3.4.5.1.2.2.5.2.8v3.5c0 .2.1.3.1.5h-.8l-.1-.8c-.2.2-.5.4-.7.6-.3.2-.7.3-1.1.3-.2 0-.4 0-.6-.1-.4-.1-.7-.4-.8-.8-.1-.2-.1-.4-.1-.7 0-.6.3-1.1.8-1.4.3-.2.7-.4 1.1-.5.5-.2 1-.3 1.6-.4v-.3c0-.3-.1-.6-.3-.8-.2-.2-.5-.2-.8-.2-.2 0-.4 0-.6.1-.1 0-.3.1-.4.2l-.3.3c-.1.1-.1.2-.2.3l-.8-.4zm3.2 1.5c-1.8.3-2.6.8-2.6 1.6 0 .1 0 .2.1.4.1.1.1.2.2.3.1.1.2.1.3.2.1 0 .2.1.3.1.1 0 .3 0 .4-.1.2 0 .3-.1.5-.2s.3-.2.4-.3c.1-.1.3-.2.4-.4v-1.6zM35 29.6c-.1-.3-.3-.6-.5-.8-.2-.2-.5-.3-.8-.3-.4 0-.9.2-1.1.6-.5 1-.5 2.3 0 3.3.2.4.7.6 1.1.6h.5c.1 0 .3-.1.4-.2l.3-.3c.1-.2.2-.3.3-.5l.6.3c-.1.2-.3.4-.4.6-.1.2-.3.3-.5.4l-.6.3c-.2.1-.5.1-.7.1-.3 0-.6-.1-.9-.2-.3-.1-.5-.3-.7-.6-.2-.3-.4-.6-.5-.9-.2-.8-.2-1.6 0-2.4.1-.3.2-.6.5-.9.2-.2.4-.4.7-.6.3-.1.6-.2.9-.2.3 0 .5 0 .7.1l.6.3c.2.1.3.3.4.5l.3.6-.6.2zM40.3 29.6c-.1-.3-.3-.6-.5-.8-.2-.2-.5-.3-.8-.3-.4 0-.9.2-1.1.6-.5 1-.5 2.3 0 3.3.2.4.7.6 1.1.6h.5c.1 0 .3-.1.4-.2l.3-.3c.1-.2.2-.3.3-.5l.6.3c-.1.2-.3.4-.4.6-.1.2-.3.3-.5.4l-.6.3c-.2.1-.5.1-.7.1-.3 0-.6-.1-.9-.2-.3-.1-.5-.3-.7-.6-.2-.3-.4-.6-.5-.9-.2-.8-.2-1.6 0-2.4.1-.3.2-.6.5-.9.2-.2.4-.4.7-.6.3-.1.6-.2.9-.2.3 0 .5 0 .7.1l.6.3c.2.1.3.3.4.5l.3.6-.6.2zM46.5 30.7c0 .4 0 .8-.1 1.1-.1.3-.2.6-.4.9-.2.3-.4.5-.7.6-.6.3-1.4.3-2 0-.3-.1-.5-.4-.7-.6-.2-.3-.3-.6-.4-.9-.2-.7-.2-1.5 0-2.3.1-.3.2-.6.4-.9.2-.3.4-.5.7-.6.6-.3 1.4-.3 2 0 .3.1.5.4.7.6.2.3.3.6.4.9 0 .4.1.8.1 1.2zm-.8 0c0-.6-.1-1.2-.4-1.7-.4-.6-1.3-.8-1.9-.3l-.3.3c-.5 1-.5 2.3 0 3.3.4.6 1.3.8 1.9.3l.3-.3c.3-.4.4-1 .4-1.6zM51 33.5v-.7c-.2.2-.5.5-.7.6-.3.2-.6.2-.9.2-.2 0-.4 0-.6-.1-.2-.1-.4-.1-.5-.3-.2-.1-.3-.3-.4-.5-.1-.2-.1-.5-.1-.8v-4h.8v4c0 .3.1.6.2.8.2.2.4.2.7.2.2 0 .3 0 .4-.1.2-.1.3-.1.4-.2.1-.1.3-.2.4-.3l.3-.3v-4.2h.8v5.6l-.8.1zM54.2 27.9v.7c.2-.2.5-.5.7-.6.3-.2.6-.2.9-.2.2 0 .4 0 .6.1.2.1.4.1.5.3.2.1.3.3.4.5.1.2.1.5.1.8v4h-.8v-4c0-.3-.1-.6-.2-.8-.2-.2-.4-.2-.7-.2-.2 0-.3 0-.4.1-.2.1-.3.1-.4.2-.1.1-.3.2-.4.3l-.3.3v4.2h-.8V28h.8zM59.3 27.9v-1.8h.8v1.8h1.3v.7h-1.3v4c0 .1 0 .2.1.3.2.1.3.1.5.1h.7v.6c-.1 0-.2 0-.3.1h-.6c-.3 0-.6 0-.9-.2-.2-.2-.3-.5-.3-.7v-4.1h-.9V28h.9zM63.4 25.7v.9h-.8v-.9h.8zm-.8 2.2h.8v5.6h-.8v-5.6zM65.9 27.9v.7c.2-.2.5-.5.7-.6.3-.2.6-.2.9-.2.2 0 .4 0 .6.1.2.1.4.1.5.3.2.1.3.3.4.5.1.2.1.5.1.8v4h-.8v-4c0-.3-.1-.6-.2-.8-.2-.2-.4-.2-.7-.2-.2 0-.3 0-.4.1-.2.1-.3.1-.4.2-.1.1-.3.2-.4.3l-.3.3v4.2h-.8V28h.8zM75.1 28.5h-.5c-.1 0-.3.1-.4.1.1.1.2.3.3.4.1.2.1.4.1.7 0 .3-.1.5-.2.8-.2.5-.6.8-1.1 1-.3.1-.5.2-.8.1H72c-.1 0-.3-.1-.4-.1-.3 0-.4.3-.4.5 0 .1 0 .2.1.3.1.1.2.1.3.1.6 0 1.1 0 1.7.1.4 0 .7.1 1.1.3.2.1.4.3.6.5.1.2.2.5.2.7 0 .2-.1.4-.2.6-.1.2-.3.4-.5.5-.2.2-.5.3-.8.3-.4.1-.7.1-1.1.1-.6 0-1.2-.1-1.8-.3-.4-.2-.6-.6-.6-1 0-.2.1-.5.2-.7.2-.2.4-.4.7-.5-.2-.1-.4-.2-.5-.3-.1-.1-.2-.3-.2-.5s.1-.4.2-.6c.2-.1.3-.3.5-.4-.2-.2-.4-.4-.6-.7-.1-.3-.2-.6-.2-.9 0-.3.1-.5.2-.8.1-.2.3-.4.4-.6.2-.2.4-.3.7-.4.3-.1.6-.1.8-.1.3 0 .5 0 .8.1l.6.3.6-.3c.2-.1.4-.1.6-.2l.1.9zm-.7 5.6c0-.3-.2-.5-.5-.6-.5-.2-1-.2-1.5-.2-.3 0-.5 0-.7.1-.2 0-.3.1-.5.2l-.3.3c0 .1-.1.2-.1.3 0 .1 0 .2.1.3.1.1.1.2.3.2.2.1.4.1.5.1.3 0 .6.1.9 0h.6c.2 0 .4-.1.5-.1.1-.1.3-.1.4-.3.3-.1.3-.2.3-.3zm-.5-4.3c0-.4-.1-.7-.4-1-.3-.3-.7-.4-1.1-.4-.7-.1-1.3.4-1.3 1.1v.2c0 .3.1.7.4.9.3.3.7.4 1 .4.2 0 .4 0 .6-.1.2-.1.3-.2.4-.3.1-.1.2-.2.3-.4.1-.1.1-.2.1-.4zM79 29c.2-.3.5-.6.8-.8.4-.2.8-.4 1.3-.3.2 0 .5 0 .7.1l.6.3c.2.1.3.3.4.5.2.2.2.4.2.7V33c0 .2.1.3.1.5h-.8l-.1-.8c-.2.2-.5.4-.7.6-.3.2-.7.3-1.1.3-.2 0-.4 0-.6-.1-.4-.1-.7-.4-.8-.8-.1-.2-.1-.4-.1-.7 0-.6.3-1.1.8-1.4.3-.2.7-.4 1.1-.5.5-.2 1-.3 1.6-.4v-.3c0-.3-.1-.6-.3-.8-.2-.2-.5-.2-.8-.2-.2 0-.4 0-.6.1-.1 0-.3.1-.4.2-.2.1-.4.3-.4.6L79 29zm3.2 1.5c-1.8.3-2.6.8-2.6 1.6 0 .1 0 .2.1.4.1.1.1.2.2.3.1.1.2.1.3.2.1 0 .2.1.3.1.1 0 .3 0 .4-.1.2 0 .3-.1.5-.2s.3-.2.4-.3c.1-.1.3-.2.4-.4v-1.6zM88.7 25.8V33.5H88l-.1-.5c-.2.2-.4.4-.6.5-.3.1-.6.2-.9.2-.3 0-.5 0-.8-.1-.3-.1-.5-.3-.7-.5l-.6-.9c-.2-.4-.2-.9-.2-1.4 0-.5.1-.9.2-1.4.1-.3.3-.6.5-.9.2-.2.4-.4.7-.5.2-.1.5-.1.7-.1.3 0 .5.1.8.2.2.1.5.3.7.4v-2.7h1zm-.8 3.5c-.2-.2-.4-.4-.7-.6-.2-.1-.5-.2-.7-.2-.2 0-.4 0-.6.1-.2.1-.4.2-.5.4-.2.2-.3.4-.3.7-.1.3-.1.7-.1 1.1 0 .6.1 1.1.4 1.6.3.4.7.6 1.1.6.2 0 .5-.1.7-.2.3-.2.5-.4.7-.6v-2.9zM92.4 33.5h-1l-1.7-5.6h.8l1.4 4.6 1.4-4.6h.8l-1.7 5.6zM96 25.7v.9h-.8v-.9h.8zm-.8 2.2h.8v5.6h-.8v-5.6zM100.9 29.6c-.1-.3-.3-.6-.5-.8-.2-.2-.5-.3-.8-.3-.4 0-.9.2-1.1.6-.5 1-.5 2.3 0 3.3.2.4.7.6 1.1.6h.5c.1 0 .3-.1.4-.2l.3-.3c.1-.2.2-.3.3-.5l.6.3c-.1.2-.3.4-.4.6-.1.2-.3.3-.5.4l-.6.3c-.2.1-.5.1-.7.1-.3 0-.6-.1-.9-.2-.3-.1-.5-.3-.7-.6-.2-.3-.4-.6-.5-.9-.2-.8-.2-1.6 0-2.4.1-.3.2-.6.5-.9.2-.2.4-.4.7-.6.3-.1.6-.2.9-.2.3 0 .5 0 .7.1l.6.3c.2.1.3.3.4.5l.3.6-.6.2zM107.1 32.3c-.1.2-.2.3-.3.5-.3.3-.6.6-1 .7-.3.1-.5.1-.8.1-.3 0-.6-.1-.9-.2-.3-.1-.6-.3-.8-.5-.2-.3-.4-.6-.5-.9-.1-.4-.2-.9-.2-1.3s0-.8.2-1.2c.1-.3.2-.6.5-.9.2-.2.4-.4.7-.6.3-.1.6-.2.9-.2.3 0 .6 0 .8.1.3.1.5.2.7.4.2.2.4.5.5.8.1.4.2.8.2 1.1v.5h-3.6c0 .3 0 .6.1.8.1.2.2.5.4.7.1.2.3.3.5.4.2.1.4.2.6.2.3 0 .6-.1.9-.3.3-.2.5-.4.6-.7l.5.5zm-.9-2.1c0-.4-.1-.9-.3-1.2-.2-.3-.6-.5-1-.5s-.8.1-1.1.5c-.3.4-.4.8-.4 1.2h2.8zM111.6 27.9v-1.8h.8v1.8h1.3v.7h-1.3v4c0 .1 0 .2.1.3.2.1.3.1.5.1h.7v.6c-.1 0-.2 0-.3.1h-.6c-.3 0-.6 0-.9-.2-.2-.2-.3-.5-.3-.7v-4.1h-.9V28h.9zM118.9 30.7c0 .4 0 .8-.1 1.1-.1.3-.2.6-.4.9-.2.3-.4.5-.7.6-.6.3-1.4.3-2 0-.3-.1-.5-.4-.7-.6-.2-.3-.3-.6-.4-.9-.2-.7-.2-1.5 0-2.3.1-.3.2-.6.4-.9.2-.3.4-.5.7-.6.6-.3 1.4-.3 2 0 .3.1.5.4.7.6.2.3.3.6.4.9 0 .4.1.8.1 1.2zm-.8 0c0-.6-.1-1.2-.4-1.7-.4-.6-1.3-.8-1.9-.3l-.3.3c-.5 1-.5 2.3 0 3.3.4.6 1.3.8 1.9.3l.3-.3c.3-.4.4-1 .4-1.6zM122.9 29c.2-.3.5-.6.8-.8.4-.2.8-.4 1.3-.3.2 0 .5 0 .7.1l.6.3c.2.1.3.3.4.5.1.2.2.5.2.8v3.5c0 .2.1.3.1.5h-.8l-.1-.8c-.2.2-.5.4-.7.6-.3.2-.7.3-1.1.3-.2 0-.4 0-.6-.1-.4-.1-.7-.4-.8-.8-.1-.2-.1-.4-.1-.7 0-.6.3-1.1.8-1.4.3-.2.7-.4 1.1-.5.5-.2 1-.3 1.6-.4v-.3c0-.3-.1-.6-.3-.8-.2-.2-.5-.2-.8-.2-.2 0-.4 0-.6.1-.1 0-.3.1-.4.2l-.3.3c-.1.1-.1.2-.2.3l-.8-.4zm3.3 1.5c-1.8.3-2.6.8-2.6 1.6 0 .1 0 .2.1.4.1.1.1.2.2.3.1.1.2.1.3.2.1 0 .2.1.3.1.1 0 .3 0 .4-.1.2 0 .3-.1.5-.2s.3-.2.4-.3c.1-.1.3-.2.4-.4v-1.6zM128.5 32.1c.2.3.4.5.7.6.3.2.6.2.9.2.3 0 .7-.1.9-.3.2-.2.3-.4.3-.6 0-.2-.1-.4-.2-.6-.2-.1-.4-.3-.6-.3-.2-.1-.5-.2-.8-.2-.3-.1-.5-.2-.8-.3-.2-.1-.4-.3-.6-.5-.2-.2-.2-.5-.2-.8 0-.4.2-.8.5-1.1.4-.3.8-.4 1.3-.4.2 0 .4 0 .6.1.2 0 .4.1.5.2.2.1.3.2.5.3.1.1.3.2.4.4l-.5.5c-.2-.2-.4-.4-.7-.6-.2-.1-.5-.2-.8-.2-.3 0-.5.1-.7.2-.2.2-.3.4-.3.6 0 .2.1.4.2.5l.6.3c.2.1.5.2.8.2.3.1.5.2.8.3.2.1.4.3.6.5.2.2.3.5.2.8 0 .2 0 .5-.2.7-.1.2-.3.4-.4.5l-.6.3c-.2.1-.5.1-.7.1-.4 0-.9-.1-1.2-.3-.4-.2-.7-.4-1-.8l.5-.3zM136.4 29.6c-.1-.3-.3-.6-.5-.8-.2-.2-.5-.3-.8-.3-.4 0-.9.2-1.1.6-.5 1-.5 2.3 0 3.3.2.4.7.6 1.1.6h.5c.1 0 .3-.1.4-.2l.3-.3c.1-.2.2-.3.3-.5l.6.3c-.1.2-.3.4-.4.6-.1.2-.3.3-.5.4l-.6.3c-.2.1-.5.1-.7.1-.3 0-.6-.1-.9-.2-.3-.1-.5-.3-.7-.6-.2-.3-.4-.6-.5-.9-.2-.8-.2-1.6 0-2.4.1-.3.2-.6.5-.9.2-.2.4-.4.7-.6.3-.1.6-.2.9-.2.3 0 .5 0 .7.1l.6.3c.2.1.3.3.4.5l.3.6-.6.2zM142.6 32.3c-.1.2-.2.3-.3.5-.3.3-.6.6-1 .7-.3.1-.5.1-.8.1-.3 0-.6-.1-.9-.2-.3-.1-.6-.3-.8-.5-.2-.3-.4-.6-.5-.9-.1-.4-.2-.9-.2-1.3s0-.8.2-1.2c.1-.3.2-.6.5-.9.2-.2.4-.4.7-.6.3-.1.6-.2.9-.2.3 0 .6 0 .8.1.3.1.5.2.7.4.2.2.4.5.5.8.1.4.2.8.2 1.1v.5H139c0 .3 0 .6.1.8.1.2.2.5.4.7.1.2.3.3.5.4.2.1.4.2.6.2.3 0 .6-.1.9-.3.3-.2.5-.4.6-.7l.5.5zm-.9-2.1c0-.4-.1-.9-.3-1.2-.2-.3-.6-.5-1-.5s-.8.1-1.1.5c-.3.4-.4.8-.4 1.2h2.8zM143.7 27.9h.8V29c.1-.2.2-.3.3-.5.1-.1.2-.3.4-.4.1-.1.3-.2.5-.2.2-.1.4-.1.6-.1v.8c-.4 0-.8.2-1.1.5-.3.4-.6.8-.7 1.3v3.1h-.8v-5.6zM147.9 27.9v-1.8h.8v1.8h1.3v.7h-1.3v4c0 .1 0 .2.1.3.2.1.3.1.5.1h.7v.6c-.1 0-.2 0-.3.1h-.6c-.3 0-.6 0-.9-.2-.2-.2-.3-.5-.3-.7v-4.1h-.9V28h.9zM150.9 29c.2-.3.5-.6.8-.8.4-.2.8-.4 1.3-.3.2 0 .5 0 .7.1l.6.3c.2.1.3.3.4.5.1.2.2.5.2.8v3.5c0 .2.1.3.1.5h-.8l-.1-.8c-.2.2-.5.4-.7.6-.3.2-.7.3-1.1.3-.2 0-.4 0-.6-.1-.4-.1-.7-.4-.8-.8-.1-.2-.1-.4-.1-.7 0-.6.3-1.1.8-1.4.3-.2.7-.4 1.1-.5.5-.2 1-.3 1.6-.4v-.3c0-.3-.1-.6-.3-.8-.2-.2-.5-.2-.8-.2-.2 0-.4 0-.6.1-.1 0-.3.1-.4.2-.2.1-.4.3-.4.6l-.9-.4zm3.3 1.5c-1.8.3-2.6.8-2.6 1.6 0 .1 0 .2.1.4.1.1.1.2.2.3.1.1.2.1.3.2.1 0 .2.1.3.1.1 0 .3 0 .4-.1.2 0 .3-.1.5-.2s.3-.2.4-.3c.1-.1.3-.2.4-.4v-1.6zM157.3 25.7v.9h-.8v-.9h.8zm-.8 2.2h.8v5.6h-.8v-5.6zM159.8 27.9v.7c.2-.2.5-.5.7-.6.3-.2.6-.2.9-.2.2 0 .4 0 .6.1.2.1.4.1.5.3.2.1.3.3.4.5.1.2.1.5.1.8v4h-.8v-4c0-.3-.1-.6-.2-.8-.2-.2-.4-.2-.7-.2-.2 0-.3 0-.4.1-.2.1-.3.1-.4.2-.1.1-.3.2-.4.3l-.3.3v4.2h-.8V28h.8zM171.6 27.9l-2 6.1c-.1.3-.2.5-.4.8-.1.2-.3.3-.5.5-.2.1-.3.2-.5.2s-.4.1-.5.1h-.5V35h.8c.1 0 .3-.1.4-.2.2-.1.3-.2.4-.4.1-.2.2-.5.3-.7l-1.9-5.6h.8l1.5 4.2 1.3-4.2.8-.2zM176.6 30.7c0 .4 0 .8-.1 1.1-.1.3-.2.6-.4.9-.2.3-.4.5-.7.6-.6.3-1.4.3-2 0-.3-.1-.5-.4-.7-.6-.2-.3-.3-.6-.4-.9-.2-.7-.2-1.5 0-2.3.1-.3.2-.6.4-.9.2-.3.4-.5.7-.6.6-.3 1.4-.3 2 0 .3.1.5.4.7.6.2.3.3.6.4.9.1.4.1.8.1 1.2zm-.7 0c0-.6-.1-1.2-.4-1.7-.4-.6-1.3-.8-1.9-.3l-.3.3c-.5 1-.5 2.3 0 3.3.4.6 1.3.8 1.9.3l.3-.3c.3-.4.4-1 .4-1.6zM181.1 33.5v-.7c-.2.2-.5.5-.7.6-.3.2-.6.2-.9.2-.2 0-.4 0-.6-.1-.2-.1-.4-.1-.5-.3-.2-.1-.3-.3-.4-.5-.1-.2-.1-.5-.1-.8v-4h.8v4c0 .3.1.6.2.8.2.2.4.2.7.2.2 0 .3 0 .4-.1.2-.1.3-.1.4-.2.1-.1.3-.2.4-.3l.3-.3v-4.2h.8v5.6l-.8.1zM183.5 27.9h.8V29c.1-.2.2-.3.3-.5.1-.1.2-.3.4-.4.1-.1.3-.2.5-.2.2-.1.4-.1.6-.1v.8c-.4 0-.8.2-1.1.5-.3.4-.6.8-.7 1.3v3.1h-.8v-5.6zM191 25.8v2.7c.2-.2.4-.3.7-.4.2-.1.5-.2.8-.2.3 0 .5.1.7.1.3.1.5.3.7.5.2.3.4.6.5.9.2.4.2.9.2 1.4 0 .5-.1.9-.2 1.4-.1.3-.3.6-.5.9-.2.2-.5.4-.7.5-.2.1-.5.1-.8.1-.3 0-.6-.1-.9-.2-.3-.1-.5-.3-.7-.5l-.1.6h-.5c0-.2.1-.4 0-.6v-7.1l.8-.1zm0 6.4c.2.2.5.4.7.6.2.1.4.2.7.2.5 0 .9-.2 1.1-.6.3-.5.5-1.1.4-1.6 0-.4 0-.7-.1-1.1-.1-.3-.2-.5-.3-.7-.1-.2-.3-.3-.5-.4-.2-.1-.4-.1-.6-.1-.3 0-.5.1-.7.2-.3.1-.5.3-.7.6v2.9zM199.3 33.5v-.7c-.2.2-.5.5-.7.6-.3.2-.6.2-.9.2-.2 0-.4 0-.6-.1-.2-.1-.4-.1-.5-.3-.2-.1-.3-.3-.4-.5-.1-.2-.1-.5-.1-.8v-4h.8v4c0 .3.1.6.2.8.2.2.4.2.7.2.2 0 .3 0 .4-.1.2-.1.3-.1.4-.2.1-.1.3-.2.4-.3l.3-.3v-4.2h.8v5.6l-.8.1zM201.8 32.1c.2.3.4.5.7.6.3.2.6.2.9.2.3 0 .7-.1.9-.3.2-.2.3-.4.3-.6 0-.2-.1-.4-.2-.6-.2-.1-.4-.3-.6-.3-.2-.1-.5-.2-.8-.2-.3-.1-.5-.2-.8-.3-.2-.1-.4-.3-.6-.5-.2-.2-.2-.5-.2-.8 0-.4.2-.8.5-1.1.4-.3.8-.4 1.3-.4.2 0 .4 0 .6.1.2 0 .4.1.5.2.2.1.3.2.5.3.1.1.3.2.4.4l-.5.5c-.2-.2-.4-.4-.7-.6-.2-.1-.5-.2-.8-.2-.3 0-.5.1-.7.2-.2.2-.3.4-.3.6 0 .2.1.4.2.5l.6.3c.2.1.5.2.8.2.3.1.5.2.8.3.2.1.4.3.6.5.2.2.3.5.2.8 0 .2 0 .5-.2.7-.1.2-.3.4-.4.5l-.6.3c-.2.1-.5.1-.7.1-.4 0-.9-.1-1.2-.3-.4-.2-.7-.4-1-.8l.5-.3zM207.3 25.7v.9h-.8v-.9h.8zm-.7 2.2h.8v5.6h-.8v-5.6zM209.8 27.9v.7c.2-.2.5-.5.7-.6.3-.2.6-.2.9-.2.2 0 .4 0 .6.1.2.1.4.1.5.3.2.1.3.3.4.5.1.2.1.5.1.8v4h-.8v-4c0-.3-.1-.6-.2-.8-.2-.2-.4-.2-.7-.2-.2 0-.3 0-.4.1-.2.1-.3.1-.4.2-.1.1-.3.2-.4.3l-.3.3v4.2h-.8V28h.8zM218.9 32.3c-.1.2-.2.3-.3.5-.3.3-.6.6-1 .7-.3.1-.5.1-.8.1-.3 0-.6-.1-.9-.2-.3-.1-.6-.3-.8-.5-.2-.3-.4-.6-.5-.9-.1-.4-.2-.9-.2-1.3s0-.8.2-1.2c.1-.3.2-.6.5-.9.2-.2.4-.4.7-.6.3-.1.6-.2.9-.2.3 0 .6 0 .8.1.3.1.5.2.7.4.2.2.4.5.5.8.1.4.2.8.2 1.1v.5h-3.6c0 .3 0 .6.1.8.1.2.2.5.4.7.1.2.3.3.5.4.2.1.4.2.6.2.3 0 .6-.1.9-.3.3-.2.5-.4.6-.7l.5.5zm-.9-2.1c0-.4-.1-.9-.3-1.2-.2-.3-.6-.5-1-.5s-.8.1-1.1.5c-.3.4-.4.8-.4 1.2h2.8zM220.3 32.1c.2.3.4.5.7.6.3.2.6.2.9.2.3 0 .7-.1.9-.3.2-.2.3-.4.3-.6 0-.2-.1-.4-.2-.6-.2-.1-.4-.3-.6-.3-.2-.1-.5-.2-.8-.2-.3-.1-.5-.2-.8-.3-.2-.1-.4-.3-.6-.5-.2-.2-.2-.5-.2-.8 0-.4.2-.8.5-1.1.4-.3.8-.4 1.3-.4.2 0 .4 0 .6.1.2 0 .4.1.5.2.2.1.3.2.5.3.1.1.3.2.4.4l-.5.5c-.2-.2-.4-.4-.7-.6-.2-.1-.5-.2-.8-.2-.3 0-.5.1-.7.2-.2.2-.3.4-.3.6 0 .2.1.4.2.5l.6.3c.2.1.5.2.8.2.3.1.5.2.8.3.2.1.4.3.6.5.2.2.3.5.2.8 0 .2 0 .5-.2.7-.1.2-.3.4-.4.5l-.6.3c-.2.1-.5.1-.7.1-.4 0-.9-.1-1.2-.3-.4-.2-.7-.4-1-.8l.5-.3zM225.2 32.1c.2.3.4.5.7.6.3.2.6.2.9.2.3 0 .7-.1.9-.3.2-.2.3-.4.3-.6 0-.2-.1-.4-.2-.6-.2-.1-.4-.3-.6-.3-.2-.1-.5-.2-.8-.2-.3-.1-.5-.2-.8-.3-.2-.1-.4-.3-.6-.5-.2-.2-.2-.5-.2-.8 0-.4.2-.8.5-1.1.4-.3.8-.4 1.3-.4.2 0 .4 0 .6.1.2 0 .4.1.5.2.2.1.3.2.5.3.1.1.3.2.4.4l-.5.5c-.2-.2-.4-.4-.7-.6-.2-.1-.5-.2-.8-.2-.3 0-.5.1-.7.2-.2.2-.3.4-.3.6 0 .2.1.4.2.5l.6.3c.2.1.5.2.8.2.3.1.5.2.8.3.2.1.4.3.6.5.2.2.3.5.2.8 0 .2 0 .5-.2.7-.1.2-.3.4-.4.5l-.6.3c-.2.1-.5.1-.7.1-.4 0-.9-.1-1.2-.3-.4-.2-.7-.4-1-.8l.5-.3zM230.8 26.9l-.7 1.5h-.4l.5-1.5h-.4v-1.2h1v1.2zM239.7 32.3c-.1.2-.2.3-.3.5-.3.3-.6.6-1 .7-.3.1-.5.1-.8.1-.3 0-.6-.1-.9-.2-.3-.1-.6-.3-.8-.5-.2-.3-.4-.6-.5-.9-.1-.4-.2-.9-.2-1.3s0-.8.2-1.2c.1-.3.2-.6.5-.9.2-.2.4-.4.7-.6.3-.1.6-.2.9-.2.3 0 .6 0 .8.1.3.1.5.2.7.4.2.2.4.5.5.8.1.4.2.8.2 1.1v.5H236c0 .3 0 .6.1.8.1.2.2.5.4.7.1.2.3.3.5.4.2.1.4.2.6.2.3 0 .6-.1.9-.3.3-.2.5-.4.6-.7l.6.5zm-.9-2.1c0-.4-.1-.9-.3-1.2-.2-.3-.6-.5-1-.5s-.8.1-1.1.5c-.3.4-.4.8-.4 1.2h2.8zM241.8 25.8v7.7h-.8v-7.7h.8zM244.3 25.7v.9h-.8v-.9h.8zm-.7 2.2h.8v5.6h-.8v-5.6zM250.4 28.5h-.5c-.1 0-.3.1-.4.1.1.1.2.3.3.4.1.2.1.4.1.7 0 .3-.1.5-.2.8-.2.5-.6.8-1.1 1-.3.1-.5.2-.8.1h-.5c-.1 0-.3-.1-.4-.1-.3 0-.4.3-.4.5 0 .1 0 .2.1.3.1.1.2.1.3.1.6 0 1.1 0 1.7.1.4 0 .7.1 1.1.3.2.1.4.3.6.5.1.2.2.5.2.7 0 .2-.1.4-.2.6-.1.2-.3.4-.5.5-.2.2-.5.3-.8.3-.4.1-.7.1-1.1.1-.6 0-1.2-.1-1.8-.3-.4-.2-.6-.6-.6-1 0-.2.1-.5.2-.7.2-.2.4-.4.7-.5-.2-.1-.4-.2-.5-.3-.1-.1-.2-.3-.2-.5s.1-.4.2-.6c.2-.1.3-.3.5-.4-.2-.2-.4-.4-.6-.7-.1-.3-.2-.6-.2-.9 0-.3.1-.5.2-.8.1-.2.3-.4.4-.6.2-.2.4-.3.7-.4.3-.1.6-.1.8-.1.3 0 .5 0 .8.1l.6.3.6-.3c.2-.1.4-.1.6-.2v.9zm-.7 5.6c0-.3-.2-.5-.5-.6-.5-.2-1-.2-1.5-.2-.3 0-.5 0-.7.1-.2 0-.3.1-.5.2l-.3.3c0 .1-.1.2-.1.3 0 .1 0 .2.1.3.1.1.1.2.3.2.2.1.4.1.5.1.3 0 .6.1.9 0h.6c.2 0 .4-.1.5-.1.1-.1.3-.1.4-.3.3-.1.3-.2.3-.3zm-.5-4.3c0-.4-.1-.7-.4-1-.3-.3-.7-.4-1.1-.4-.7-.1-1.3.4-1.3 1.1v.2c0 .3.1.7.4.9.3.3.7.4 1 .4.2 0 .4 0 .6-.1.2-.1.3-.2.4-.3.1-.1.2-.2.3-.4.1-.1.1-.2.1-.4zM252.3 25.7v.9h-.8v-.9h.8zm-.8 2.2h.8v5.6h-.8v-5.6zM254.8 25.8v2.7c.2-.2.4-.3.7-.4.2-.1.5-.2.8-.2.3 0 .5.1.7.1.3.1.5.3.7.5.2.3.4.6.5.9.2.4.2.9.2 1.4 0 .5-.1.9-.2 1.4-.1.3-.3.6-.5.9-.2.2-.5.4-.7.5-.2.1-.5.1-.8.1-.3 0-.6-.1-.9-.2-.3-.1-.5-.3-.7-.5l-.1.6h-.5c0-.2.1-.4 0-.6v-7.1l.8-.1zm0 6.4c.2.2.5.4.7.6.2.1.4.2.7.2.5 0 .9-.2 1.1-.6.3-.5.5-1.1.4-1.6 0-.4 0-.7-.1-1.1-.1-.3-.2-.5-.3-.7-.1-.2-.3-.3-.5-.4-.2-.1-.4-.1-.6-.1-.3 0-.5.1-.7.2-.3.1-.5.3-.7.6v2.9zM260.7 25.7v.9h-.8v-.9h.8zm-.8 2.2h.8v5.6h-.8v-5.6zM263.3 25.8v7.7h-.8v-7.7h.8zM265.9 25.7v.9h-.8v-.9h.8zm-.8 2.2h.8v5.6h-.8v-5.6zM267.9 27.9v-1.8h.8v1.8h1.3v.7h-1.3v4c0 .1 0 .2.1.3.1.1.3.1.5.1h.7v.6c-.1 0-.2 0-.3.1h-.6c-.3 0-.6 0-.9-.2-.2-.2-.3-.5-.3-.7v-4.1h-.9V28h.9zM275.1 27.9l-2 6.1c-.1.3-.2.5-.4.8-.1.2-.3.3-.5.5-.2.1-.3.2-.5.2s-.4.1-.5.1h-.5V35h.8c.1 0 .3-.1.4-.2.2-.1.3-.2.4-.4.1-.2.2-.5.3-.7l-1.9-5.6h.8l1.5 4.2 1.3-4.2h.8zM279.6 33.5v-4.9h-.9v-.7h.9v-.6c0-.3 0-.5.1-.8 0-.2.1-.4.3-.5.1-.1.3-.2.4-.3.2 0 .4-.1.6-.1h.6v.7h-.6c-.2 0-.4 0-.6.2-.1.2-.2.4-.2.6v.8h1.2v.7h-1.2v4.9h-.6zM286.7 30.7c0 .4 0 .8-.1 1.1-.1.3-.2.6-.4.9-.2.3-.4.5-.7.6-.6.3-1.4.3-2 0-.3-.1-.5-.4-.7-.6-.2-.3-.3-.6-.4-.9-.2-.7-.2-1.5 0-2.3.1-.3.2-.6.4-.9.2-.3.4-.5.7-.6.6-.3 1.4-.3 2 0 .3.1.5.4.7.6.2.3.3.6.4.9 0 .4.1.8.1 1.2zm-.8 0c0-.6-.1-1.2-.4-1.7-.4-.6-1.3-.8-1.9-.3l-.3.3c-.5 1-.5 2.3 0 3.3.4.6 1.3.8 1.9.3l.3-.3c.3-.4.4-1 .4-1.6zM287.8 27.9h.8V29c.1-.2.2-.3.3-.5.1-.1.2-.3.4-.4.1-.1.3-.2.5-.2.2-.1.4-.1.6-.1v.8c-.4 0-.8.2-1.1.5-.3.4-.6.8-.7 1.3v3.1h-.8v-5.6zM294.8 27.9v-1.8h.8v1.8h1.3v.7h-1.3v4c0 .1 0 .2.1.3.1.1.3.1.5.1h.7v.6c-.1 0-.2 0-.3.1h-.6c-.3 0-.6 0-.9-.2-.2-.2-.3-.5-.3-.7v-4.1h-.9V28h.9zM298.7 25.8v2.9c.2-.2.5-.5.7-.6.3-.2.6-.2.9-.2.2 0 .4 0 .6.1.2.1.4.1.5.3.2.1.3.3.4.5.1.2.1.5.1.8v4h-.8v-4c0-.3-.1-.6-.2-.8-.2-.2-.4-.2-.7-.2-.2 0-.3 0-.4.1-.2.1-.3.1-.4.2-.1.1-.3.2-.4.3l-.3.3v4.2h-.7V26h.7zM307.8 32.3c-.1.2-.2.3-.3.5-.3.3-.6.6-1 .7-.3.1-.5.1-.8.1-.3 0-.6-.1-.9-.2-.3-.1-.6-.3-.8-.5-.2-.3-.4-.6-.5-.9-.1-.4-.2-.9-.2-1.3s0-.8.2-1.2c.1-.3.2-.6.5-.9.2-.2.4-.4.7-.6.3-.1.6-.2.9-.2.3 0 .6 0 .8.1.3.1.5.2.7.4.2.2.4.5.5.8.1.4.2.8.2 1.1v.5H304c0 .3 0 .6.1.8.1.2.2.5.4.7.1.2.3.3.5.4.2.1.4.2.6.2.3 0 .6-.1.9-.3.3-.2.5-.4.6-.7l.7.5zm-.9-2.1c0-.4-.1-.9-.3-1.2-.2-.3-.6-.5-1-.5s-.8.1-1.1.5c-.3.4-.4.8-.4 1.2h2.8zM313.4 25.8v7.7h-.9v-7.7h.9zM316.2 27.9v.7c.2-.2.5-.5.7-.6.3-.2.6-.2.9-.2.2 0 .4 0 .6.1.2.1.4.1.5.3.2.1.3.3.4.5.1.2.1.5.1.8v4h-.8v-4c0-.3-.1-.6-.2-.8-.2-.2-.4-.2-.7-.2-.2 0-.3 0-.4.1-.2.1-.3.1-.4.2-.1.1-.3.2-.4.3l-.3.3v4.2h-.8V28h.8zM321.1 32.1c.2.3.4.5.7.6.3.2.6.2.9.2.3 0 .7-.1.9-.3.2-.2.3-.4.3-.6 0-.2-.1-.4-.2-.6-.2-.1-.4-.3-.6-.3-.2-.1-.5-.2-.8-.2-.3-.1-.5-.2-.8-.3-.2-.1-.4-.3-.6-.5-.2-.2-.2-.5-.2-.8 0-.4.2-.8.5-1.1.4-.3.8-.4 1.3-.4.2 0 .4 0 .6.1.2 0 .4.1.5.2.2.1.3.2.5.3.1.1.3.2.4.4l-.5.5c-.2-.2-.4-.4-.7-.6-.2-.1-.5-.2-.8-.2-.3 0-.5.1-.7.2-.2.2-.3.4-.3.6 0 .2.1.4.2.5l.6.3c.2.1.5.2.8.2.3.1.5.2.8.3.2.1.4.3.6.5.2.2.3.5.2.8 0 .2 0 .5-.2.7-.1.2-.3.4-.4.5l-.6.3c-.2.1-.5.1-.7.1-.4 0-.9-.1-1.2-.3-.4-.2-.7-.4-1-.8l.5-.3zM326.1 27.9v-1.8h.8v1.8h1.3v.7h-1.3v4c0 .1 0 .2.1.3.1.1.3.1.5.1h.7v.6c-.1 0-.2 0-.3.1h-.6c-.3 0-.6 0-.9-.2-.2-.2-.3-.5-.3-.7v-4.1h-.9V28h.9zM329.2 29c.2-.3.5-.6.8-.8.4-.2.8-.4 1.3-.3.2 0 .5 0 .7.1l.6.3c.2.1.3.3.4.5.1.2.2.5.2.8v3.5c0 .2.1.3.1.5h-.8l-.1-.8c-.2.2-.5.4-.7.6-.3.2-.7.3-1.1.3-.2 0-.4 0-.6-.1-.4-.1-.7-.4-.8-.8-.1-.2-.1-.4-.1-.7 0-.6.3-1.1.8-1.4.3-.2.7-.4 1.1-.5.5-.2 1-.3 1.6-.4v-.3c0-.3-.1-.6-.3-.8-.2-.2-.5-.2-.8-.2-.2 0-.4 0-.6.1-.1 0-.3.1-.4.2l-.3.3c-.1.1-.1.2-.2.3l-.8-.4zm3.2 1.5c-1.8.3-2.6.8-2.6 1.6 0 .1 0 .2.1.4.1.1.1.2.2.3.1.1.2.1.3.2.1 0 .2.1.3.1.1 0 .3 0 .4-.1.2 0 .3-.1.5-.2s.3-.2.4-.3c.1-.1.3-.2.4-.4v-1.6zM335.5 27.9v.7c.2-.2.5-.5.7-.6.3-.2.6-.2.9-.2.2 0 .4 0 .6.1.2.1.4.1.5.3.2.1.3.3.4.5.1.2.1.5.1.8v4h-.7v-4c0-.3-.1-.6-.2-.8-.2-.2-.4-.2-.7-.2-.2 0-.3 0-.4.1-.2.1-.3.1-.4.2-.1.1-.3.2-.4.3l-.3.3v4.2h-.8V28h.7zM340.7 27.9v-1.8h.8v1.8h1.3v.7h-1.3v4c0 .1 0 .2.1.3.1.1.3.1.5.1h.7v.6c-.1 0-.2 0-.3.1h-.6c-.3 0-.6 0-.9-.2-.2-.2-.3-.5-.3-.7v-4.1h-.9V28h.9zM346.4 33.5l2.4-7.7h1.3l2.4 7.7h-.9l-.7-2.4H348l-.7 2.4h-.9zm1.9-3.2h2.3l-1.1-4h-.1l-1.1 4zM353.7 32.1c.2.3.4.5.7.6.3.2.6.2.9.2.3 0 .7-.1.9-.3.2-.2.3-.4.3-.6 0-.2-.1-.4-.2-.6-.2-.1-.4-.3-.6-.3-.2-.1-.5-.2-.8-.2-.3-.1-.5-.2-.8-.3-.2-.1-.4-.3-.6-.5-.2-.2-.2-.5-.2-.8 0-.4.2-.8.5-1.1.4-.3.8-.4 1.3-.4.2 0 .4 0 .6.1.2 0 .4.1.5.2.2.1.3.2.5.3.1.1.3.2.4.4l-.5.5c-.2-.2-.4-.4-.7-.6-.2-.1-.5-.2-.8-.2-.3 0-.5.1-.7.2-.2.2-.3.4-.3.6 0 .2.1.4.2.5l.6.3c.2.1.5.2.8.2.3.1.5.2.8.3.2.1.4.3.6.5.2.2.3.5.2.8 0 .2 0 .5-.2.7-.1.2-.3.4-.4.5l-.6.3c-.2.1-.5.1-.7.1-.4 0-.9-.1-1.2-.3-.4-.2-.7-.4-1-.8l.5-.3zM358.6 32.1c.2.3.4.5.7.6.3.2.6.2.9.2.3 0 .7-.1.9-.3.2-.2.3-.4.3-.6 0-.2-.1-.4-.2-.6-.2-.1-.4-.3-.6-.3-.2-.1-.5-.2-.8-.2-.3-.1-.5-.2-.8-.3-.2-.1-.4-.3-.6-.5-.2-.2-.2-.5-.2-.8 0-.4.2-.8.5-1.1.4-.3.8-.4 1.3-.4.2 0 .4 0 .6.1.2 0 .4.1.5.2.2.1.3.2.5.3.1.1.3.2.4.4l-.5.5c-.2-.2-.4-.4-.7-.6-.2-.1-.5-.2-.8-.2-.3 0-.5.1-.7.2-.2.2-.3.4-.3.6 0 .2.1.4.2.5l.6.3c.2.1.5.2.8.2.3.1.5.2.8.3.2.1.4.3.6.5.2.2.3.5.2.8 0 .2 0 .5-.2.7-.1.2-.3.4-.4.5l-.6.3c-.2.1-.5.1-.7.1-.4 0-.9-.1-1.2-.3-.4-.2-.7-.4-1-.8l.5-.3zM367.5 32.3c-.1.2-.2.3-.3.5-.3.3-.6.6-1 .7-.3.1-.5.1-.8.1-.3 0-.6-.1-.9-.2-.3-.1-.6-.3-.8-.5-.2-.3-.4-.6-.5-.9-.1-.4-.2-.9-.2-1.3s0-.8.2-1.2c.1-.3.2-.6.5-.9.2-.2.4-.4.7-.6.3-.1.6-.2.9-.2.3 0 .6 0 .8.1.3.1.5.2.7.4.2.2.4.5.5.8.1.4.2.8.2 1.1v.5h-3.6c0 .3 0 .6.1.8.1.2.2.5.4.7.1.2.3.3.5.4.2.1.4.2.6.2.3 0 .6-.1.9-.3.3-.2.5-.4.6-.7l.5.5zm-1-2.1c0-.4-.1-.9-.3-1.2-.2-.3-.6-.5-1-.5s-.8.1-1.1.5c-.3.4-.4.8-.4 1.2h2.8zM368.9 27.9v-1.8h.8v1.8h1.3v.7h-1.3v4c0 .1 0 .2.1.3.1.1.3.1.5.1h.7v.6c-.1 0-.2 0-.3.1h-.6c-.3 0-.6 0-.9-.2-.2-.2-.3-.5-.3-.7v-4.1h-.9V28h.9zM374.7 25.8h.8l1.4 6.2 1.5-6.2h.8l1.5 6.2 1.4-6.2h.8l-1.8 7.7h-.8l-1.6-6.2-1.5 6.2h-.8l-1.7-7.7zM383.8 27.9h.8V29c.1-.2.2-.3.3-.5.1-.1.2-.3.4-.4.1-.1.3-.2.5-.2.2-.1.4-.1.6-.1v.8c-.4 0-.8.2-1.1.5-.3.4-.6.8-.7 1.3v3.1h-.8v-5.6zM388.3 25.7v.9h-.8v-.9h.8zm-.8 2.2h.8v5.6h-.8v-5.6zM390.3 27.9v-1.8h.8v1.8h1.3v.7h-1.3v4c0 .1 0 .2.1.3.1.1.3.1.5.1h.7v.6c-.1 0-.2 0-.3.1h-.6c-.3 0-.6 0-.9-.2-.2-.2-.3-.5-.3-.7v-4.1h-.9V28h.9zM397.6 32.3c-.1.2-.2.3-.3.5-.3.3-.6.6-1 .7-.3.1-.5.1-.8.1-.3 0-.6-.1-.9-.2-.3-.1-.6-.3-.8-.5-.2-.3-.4-.6-.5-.9-.1-.4-.2-.9-.2-1.3s0-.8.2-1.2c.1-.3.2-.6.5-.9.2-.2.4-.4.7-.6.3-.1.6-.2.9-.2.3 0 .6 0 .8.1.3.1.5.2.7.4.2.2.4.5.5.8.1.4.2.8.2 1.1v.5H394c0 .3 0 .6.1.8.1.2.2.5.4.7.1.2.3.3.5.4.2.1.4.2.6.2.3 0 .6-.1.9-.3.3-.2.5-.4.6-.7l.5.5zm-1-2.1c0-.4-.1-.9-.3-1.2-.2-.3-.6-.5-1-.5s-.8.1-1.1.5c-.3.4-.4.8-.4 1.2h2.8zM398.5 31v-.7h2.7v.7h-2.7zM406.9 30.7c0 .4 0 .8-.1 1.1-.1.3-.2.6-.4.9-.2.3-.4.5-.7.6-.6.3-1.4.3-2 0-.3-.1-.5-.4-.7-.6-.2-.3-.3-.6-.4-.9-.2-.7-.2-1.5 0-2.3.1-.3.2-.6.4-.9.2-.3.4-.5.7-.6.6-.3 1.4-.3 2 0 .3.1.5.4.7.6.2.3.3.6.4.9 0 .4.1.8.1 1.2zm-.8 0c0-.6-.1-1.2-.4-1.7-.4-.6-1.3-.8-1.9-.3l-.3.3c-.5 1-.5 2.3 0 3.3.4.6 1.3.8 1.9.3l.3-.3c.3-.4.4-1 .4-1.6zM408.4 33.5v-4.9h-.9v-.7h.9v-.6c0-.3 0-.5.1-.8 0-.2.1-.4.3-.5.1-.1.3-.2.4-.3.2 0 .4-.1.6-.1h.6v.7h-.6c-.2 0-.4 0-.6.2-.1.2-.2.4-.2.6v.8h1.2v.7H409v4.9h-.6zM412.1 33.5v-4.9h-.9v-.7h.9v-.6c0-.3 0-.5.1-.8 0-.2.1-.4.3-.5.1-.1.3-.2.4-.3.2 0 .4-.1.6-.1h.6v.7h-.6c-.2 0-.4 0-.6.2-.1.2-.2.4-.2.6v.8h1.2v.7h-1.2v4.9h-.6zM416 32.3v1.2h-1v-1.2h1z"/></svg>