<svg xmlns="http://www.w3.org/2000/svg" viewBox="0 0 970 250"><rect x="820.86102" y="196.965" width="134.00201" height="32.614" fill="red"/><path d="M834.24707,220.45922V206.08227h6.89063v2.15039h-4.4209v3.7041h3.30566v2.15039H836.7168v6.37207Z" fill="#fff"/><path d="M843.22559,220.45922V206.08227h2.46972v14.37695Z" fill="#fff"/><path d="M848.043,220.45922V206.08227h2.29l3.00683,8.22363h.04v-8.22363h2.23047v14.37695H853.46l-3.14648-8.98047h-.04v8.98047Z" fill="#fff"/><path d="M857.81738,206.08227h3.66407c2.54882,0,3.90332,1.39356,3.90332,4.34082v5.69531c0,2.94727-1.3545,4.34082-3.90332,4.34082h-3.66407Zm2.46973,12.3457h.85644c1.31348,0,1.77149-.498,1.77149-2.01074v-6.293c0-1.51269-.458-2.01074-1.77149-2.01074h-.85644Z" fill="#fff"/><path d="M871.832,209.56665a3.785,3.785,0,0,1,7.56738,0v7.4082a3.78505,3.78505,0,0,1-7.56738,0Zm2.46973,7.34765c0,1.07617.31836,1.59375,1.31445,1.59375.99512,0,1.31348-.51758,1.31348-1.59375v-7.28711c0-1.07617-.31836-1.59375-1.31348-1.59375-.99609,0-1.31445.51758-1.31445,1.59375Z" fill="#fff"/><path d="M881.5459,206.08227h2.46972v10.85254c0,1.05566.418,1.57324,1.31446,1.57324.89551,0,1.31347-.51758,1.31347-1.57324V206.08227h2.46973V216.8352a3.78389,3.78389,0,1,1-7.56738,0Z" fill="#fff"/><path d="M893.15332,208.23266h-2.38965v-2.15039h7.248v2.15039h-2.38965v12.22656h-2.46875Z" fill="#fff"/><path d="M913.4209,206.08227v14.37695h-2.15137V209.22875h-.03906L909,220.45922h-1.19531l-2.22949-11.23047h-.04v11.23047h-2.15039V206.08227h3.24511l1.75293,8.40332h.04l1.75195-8.40332Z" fill="#fff"/><path d="M915.52734,209.56665a3.78505,3.78505,0,0,1,7.56739,0v7.4082a3.78506,3.78506,0,0,1-7.56739,0Zm2.46973,7.34765c0,1.07617.31836,1.59375,1.31445,1.59375.99512,0,1.31348-.51758,1.31348-1.59375v-7.28711c0-1.07617-.31836-1.59375-1.31348-1.59375-.99609,0-1.31445.51758-1.31445,1.59375Z" fill="#fff"/><path d="M927.73242,220.45922H925.2627V206.08227h3.46484c2.76855,0,4.18164,1.17481,4.18164,4.24121,0,2.30957-.89551,3.2461-1.73242,3.624l2.09082,6.51172h-2.50879l-1.75195-5.9541a11.86116,11.86116,0,0,1-1.27442.05957Zm0-7.9248h.876c1.334,0,1.832-.49805,1.832-2.21094,0-1.71191-.49805-2.21-1.832-2.21h-.876Z" fill="#fff"/><path d="M935.19629,220.45922V206.08227h6.61133v2.15039H937.666v3.7041h3.18554v2.15039H937.666v4.22168h4.42089v2.15039Z" fill="#fff"/></svg>