<svg xmlns="http://www.w3.org/2000/svg" viewBox="0 0 728 90"><rect x="656.28497" y="67.084" width="62.086" height="15.111" fill="red"/><path d="M661.88379,77.96907V71.31478h3.18945v.99511h-2.0459v1.71485h1.5293v.99511h-1.5293v2.94922Z" fill="#fff"/><path d="M666.18262,77.96907V71.31478h1.14258v6.65429Z" fill="#fff"/><path d="M668.57031,77.96907V71.31478h1.06055l1.3916,3.80664h.01856V71.31478h1.03125v6.65429h-.99512l-1.45606-4.15625h-.01855v4.15625Z" fill="#fff"/><path d="M673.2373,71.31478h1.69629c1.17969,0,1.80664.6455,1.80664,2.00976v2.63574c0,1.36329-.62695,2.00879-1.80664,2.00879H673.2373Zm1.14356,5.71386h.39551c.6084,0,.82031-.23047.82031-.93066V73.18587c0-.7002-.21191-.93066-.82031-.93066h-.39551Z" fill="#fff"/><path d="M679.73047,72.92806a1.75159,1.75159,0,0,1,3.502,0v3.42773a1.75159,1.75159,0,0,1-3.502,0Zm1.14258,3.40039c0,.498.14843.7373.6084.7373.46093,0,.60839-.23925.60839-.7373V72.9554c0-.498-.14746-.7373-.60839-.7373-.46,0-.6084.23925-.6084.7373Z" fill="#fff"/><path d="M684.37988,71.31478h1.14356v5.02343c0,.48829.19336.72754.60742.72754.415,0,.6084-.23925.6084-.72754V71.31478h1.14355v4.97656a1.75156,1.75156,0,1,1-3.50293,0Z" fill="#fff"/><path d="M689.89551,72.30989h-1.10645v-.99511h3.35547v.99511h-1.10644v5.65918h-1.14258Z" fill="#fff"/><path d="M699.28125,71.31478v6.65429h-.99609V72.77083h-.01758l-1.03223,5.19824h-.55371l-1.03223-5.19824h-.01855v5.19824h-.99512V71.31478h1.50293l.81055,3.88964h.01855l.81055-3.88964Z" fill="#fff"/><path d="M700.40039,72.92806a1.75159,1.75159,0,0,1,3.50195,0v3.42773a1.75159,1.75159,0,0,1-3.50195,0Zm1.14258,3.40039c0,.498.14844.7373.6084.7373.46093,0,.6084-.23925.6084-.7373V72.9554c0-.498-.14747-.7373-.6084-.7373-.46,0-.6084.23925-.6084.7373Z" fill="#fff"/><path d="M706.19141,77.96907h-1.14258V71.31478h1.60351c1.28125,0,1.93555.54394,1.93555,1.96289,0,1.06933-.41406,1.50293-.80176,1.67773l.96778,3.01367h-1.16114l-.81152-2.75586a5.468,5.468,0,0,1-.58984.02735Zm0-3.668h.40625c.61718,0,.84765-.23046.84765-1.02343,0-.792-.23047-1.02246-.84765-1.02246h-.40625Z" fill="#fff"/><path d="M709.79,77.96907V71.31478h3.05957v.99511h-1.916v1.71485h1.47461v.99511h-1.47461V76.974h2.0459v.99511Z" fill="#fff"/></svg>