<svg xmlns="http://www.w3.org/2000/svg" width="364.7" height="13.4" overflow="visible"><style>.st0{fill:#fff}</style><path class="st0" d="M0 2.9L1.4.1h.4l1.4 2.8h-.4L1.6.5.4 2.9H0zM6.9.1v.4H4.7V2h1.6v.4H4.7v1.7h2.4v.4H4.2V.1h2.7zM8.5.1v4.6H8V.1h.5zM10.1 0v.5h-.4V0h.4zm-.4 1.3h.5v3.3h-.5V1.3zM13.8 1.7h-.3c-.1 0-.2 0-.2.1.1.1.1.2.1.3.1.1.1.3.1.4 0 .2 0 .3-.1.5-.1.3-.4.5-.6.6-.1.1-.3.1-.5.1H12c-.1 0-.2 0-.3-.1-.1 0-.3.2-.3.3 0 .1 0 .1.1.2.1-.1.2-.1.3-.1.3 0 .7 0 1 .1.2 0 .4.1.6.2.1.1.3.2.3.3.1.1.1.3.1.4 0 .1 0 .2-.1.3l-.3.3c-.1.1-.3.2-.5.2s-.4.1-.7.1c-.4 0-.7 0-1.1-.2-.2-.1-.4-.3-.4-.6 0-.1 0-.3.1-.4.1-.1.3-.2.4-.3-.1 0-.2-.1-.3-.2-.1-.1-.1-.2-.1-.3 0-.1 0-.2.1-.3.1-.1.2-.2.3-.2-.1-.1-.3-.2-.3-.4-.1-.2-.1-.3-.1-.5s0-.3.1-.5c.1-.1.1-.3.3-.4.1-.1.2-.2.4-.2.2-.1.3-.1.5-.1s.3 0 .5.1c.1 0 .2.1.4.2.1-.1.2-.1.3-.2.1-.1.2-.1.4-.1l.1.4zM13.4 5c0-.2-.1-.3-.3-.4-.3-.1-.6-.1-.9-.1-.1 0-.3 0-.4.1-.1 0-.2.1-.3.1-.1 0-.1.1-.1.2v.4c0 .1.1.1.2.1s.2.1.3.1h.9c.1 0 .2 0 .3-.1.1 0 .2-.1.2-.1.1-.2.1-.3.1-.3zm-.3-2.6c0-.2-.1-.4-.2-.6-.2-.2-.4-.2-.6-.2-.2 0-.4.1-.6.2-.1.1-.2.3-.2.5s.1.4.2.5c.2.1.4.2.6.2.1 0 .2 0 .3-.1.1 0 .2-.1.2-.2.2.2.2.1.3 0v-.3zM15.1 0v.5h-.5V0h.5zm-.5 1.3h.5v3.3h-.5V1.3zM16.7.1v1.6c.1-.1.3-.2.4-.3.1-.1.3-.1.5-.1s.3 0 .4.1c.2.1.3.2.4.3.1.2.2.3.3.5.1.3.1.5.1.8 0 .3 0 .6-.1.8-.1.2-.2.4-.3.5-.1.1-.3.2-.4.3-.1.1-.3.1-.5.1s-.4 0-.5-.1c-.2-.1-.3-.2-.4-.3l-.1.3h-.3v-.4V.1h.5zm0 3.8c.1.1.3.2.4.3.1.1.3.1.4.1.3 0 .5-.1.7-.3.2-.3.3-.6.2-1 0-.2 0-.4-.1-.6 0-.1-.1-.3-.2-.4-.1-.1-.2-.2-.3-.2-.1 0-.2-.1-.4-.1-.1 0-.3 0-.4.1-.2.1-.3.2-.4.3l.1 1.8zM20.3 0v.5h-.5V0h.5zm-.5 1.3h.5v3.3h-.5V1.3zM22 .1v4.6h-.5V.1h.5zM23.6 0v.5h-.5V0h.5zm-.4 1.3h.5v3.3h-.5V1.3zM24.9 1.3v-1h.5v1.1h.8v.4h-.8v2.3c0 .1 0 .1.1.2.1 0 .2.1.3.1h.4v.4h-.5c-.2 0-.4 0-.5-.1-.1-.1-.2-.3-.2-.4V1.7h-.5v-.4h.4zM29.3 1.3l-1.2 3.6c0 .2-.1.3-.2.5l-.3.3c-.1.1-.2.1-.3.1h-.5-.1v-.4h.4c.1 0 .2-.1.2-.1.1-.1.2-.1.2-.2.1-.1.1-.3.2-.4l-1.1-3.3h.5l.9 2.4.8-2.5h.5zM32.8 2.3c-.1-.2-.2-.3-.3-.5-.1-.1-.3-.2-.5-.2-.3 0-.5.1-.7.3-.3.6-.3 1.3 0 1.9.1.2.4.4.7.3h.3c.1 0 .2-.1.2-.1l.2-.2c.1-.1.1-.2.2-.3l.4.2c-.1.1-.2.2-.2.4l-.3.3c-.1.1-.2.1-.3.2-.1 0-.3.1-.4.1-.2 0-.4 0-.6-.1-.2-.1-.3-.2-.4-.3-.1-.2-.2-.3-.3-.5-.1-.5-.1-1 0-1.4.1-.2.1-.4.3-.5.1-.1.3-.3.4-.3.2-.1.4-.1.6-.1.1 0 .3 0 .4.1.1 0 .2.1.3.2.1.1.2.2.2.3.1.1.1.2.2.4l-.4-.2zM34.1 1.3h.5V2c.1-.1.1-.2.2-.3.1-.1.1-.2.2-.2.1-.1.2-.1.3-.1h.4v.5c-.3 0-.5.1-.7.3-.2.2-.3.5-.4.8v1.8h-.5V1.3zM36.8 0v.5h-.5V0h.5zm-.4 1.3h.5v3.3h-.5V1.3zM38.2 1.3v-1h.5v1.1h.8v.4h-.8v2.3c0 .1 0 .1.1.2.1 0 .2.1.3.1h.4v.4H39c-.2 0-.4 0-.5-.1-.1-.1-.2-.3-.2-.4V1.7h-.5v-.4h.4zM42.6 3.9c-.1.1-.1.2-.2.3-.2.2-.4.3-.6.4-.2 0-.3.1-.5.1s-.4 0-.5-.1c-.2-.1-.3-.2-.5-.3-.1-.2-.3-.3-.3-.5-.1-.2-.1-.5-.1-.8 0-.2 0-.5.1-.7.1-.2.1-.4.3-.5.1-.1.3-.3.4-.3.2-.1.4-.1.5-.1.2 0 .3 0 .5.1s.3.1.4.3c.1.1.2.3.3.5.1.2.1.4.1.7v.3h-2.1c0 .2 0 .3.1.5 0 .1.1.3.2.4l.3.3c.1.1.2.1.4.1s.4 0 .5-.1c.1-.5.2-.6.3-.8l.4.2zM42 2.7c0-.3-.1-.5-.2-.7-.1-.2-.4-.3-.6-.3-.2 0-.5.1-.6.3-.2.2-.2.5-.2.7H42zM43.3 1.3h.5V2c.1-.1.1-.2.2-.3.1-.1.1-.2.2-.2.1-.1.2-.1.3-.1h.4v.5c-.3 0-.5.1-.7.3-.2.2-.3.5-.4.8v1.8h-.5V1.3zM46.1 0v.5h-.5V0h.5zm-.5 1.3h.5v3.3h-.5V1.3zM47.1 2c.1-.2.3-.4.5-.5.2-.1.5-.2.8-.2.1 0 .3 0 .4.1.1 0 .3.1.4.2l.3.3c.1.1.1.3.1.5v2.1c0 .1 0 .2.1.3h-.5l-.2-.6-.4.4c-.2.1-.4.2-.6.2-.1 0-.2 0-.4-.1-.1 0-.2-.1-.3-.2-.1-.1-.2-.2-.2-.3-.1-.1-.1-.3-.1-.4 0-.3.2-.7.5-.8l.6-.3c.3-.1.6-.2.9-.2v-.2c0-.2-.1-.4-.2-.5-.1-.1-.3-.1-.5-.1H48c-.1 0-.2.1-.2.1-.1 0-.1.1-.2.2 0 .1-.1.1-.1.2l-.4-.2zm1.9.8c-1 .2-1.6.5-1.6.9 0 .1 0 .1.1.2 0 .1.1.1.1.2.1 0 .1.1.2.1h.5c.1 0 .2-.1.3-.1 0 0 .1-.1.2-.1.1-.1.2-.1.2-.2v-1zM51.3 2c.1-.2.3-.4.5-.5.2-.1.5-.2.8-.2.1 0 .3 0 .4.1.1 0 .3.1.4.2l.3.3c.1.1.1.3.1.5v2.1c0 .1 0 .2.1.3h-.5l-.1-.5-.4.4c-.2.1-.4.2-.6.2-.1 0-.2 0-.4-.1-.1 0-.2-.1-.3-.2-.1-.1-.2-.2-.2-.3-.1-.1-.1-.3-.1-.4 0-.3.2-.7.5-.8l.6-.3c.3-.1.6-.2.9-.2v-.3c0-.2-.1-.4-.2-.5-.1-.1-.3-.1-.5-.1h-.3c-.1 0-.2.1-.2.1-.1 0-.1.1-.2.2 0 .1-.1.1-.1.2l-.5-.2zm1.9.8c-1 .2-1.6.5-1.6.9 0 .1 0 .1.1.2 0 .1.1.1.1.2.1 0 .1.1.2.1h.5c.1 0 .2-.1.3-.1 0 0 .1-.1.2-.1.1-.1.2-.1.2-.2v-1zM54.7 5.8V1.3h.5v.4c0-.1.1-.1.2-.2s.1-.1.2-.1.2-.1.2-.1h.2c.2 0 .3 0 .5.1s.3.2.4.3c.1.1.2.3.3.5.1.3.1.5.1.8 0 .3 0 .5-.1.8-.1.2-.2.4-.3.5-.1.1-.3.2-.4.3-.1.1-.3.1-.4.1-.2 0-.3 0-.5-.1-.1-.1-.3-.2-.4-.3v1.5h-.5zm.4-2c.1.1.3.2.4.3.1.1.3.1.4.1.1 0 .2 0 .4-.1.1 0 .2-.1.3-.2.1-.1.2-.3.2-.4.1-.2.1-.4.1-.6 0-.3-.1-.7-.2-1-.2-.2-.4-.3-.7-.3-.1 0-.3 0-.4.1-.2.1-.3.2-.4.3v1.8zM58.2 5.8V1.3h.5v.4c0-.1.1-.1.2-.2s.1-.1.2-.1.2-.1.2-.1h.2c.2 0 .3 0 .5.1s.3.2.4.3c.1.2.3.3.3.5.1.3.1.5.1.8 0 .3 0 .5-.1.8-.1.2-.2.4-.3.5-.1.1-.3.2-.4.3-.1.1-.3.1-.4.1-.2 0-.3 0-.5-.1-.1-.1-.3-.2-.4-.3v1.5h-.5zm.5-2c.1.1.3.2.4.3.1.1.3.1.4.1.1 0 .2 0 .4-.1.1 0 .2-.1.3-.2.1-.1.2-.3.2-.4.1-.2.1-.4.1-.6 0-.3-.1-.7-.2-1-.2-.2-.4-.3-.7-.3-.1 0-.3 0-.4.1-.2.1-.3.2-.4.3v1.8zM62.3.1v4.6h-.5V.1h.5zM65.7 1.3l-1.2 3.6c0 .2-.1.3-.2.5l-.3.3c-.1.1-.2.1-.3.1h-.5-.1v-.4h.4c.1 0 .2-.1.2-.1.2 0 .3-.1.3-.2.1-.1.1-.3.2-.4l-1.1-3.3h.5l.9 2.5.8-2.5h.4zM67.8.1v1.6c.1-.1.3-.2.4-.3.1-.1.3-.1.5-.1s.3 0 .4.1c.2.1.3.2.4.3.1.2.2.3.3.5.2.2.2.5.2.8 0 .3 0 .6-.1.8-.1.2-.2.4-.3.5-.1.1-.3.2-.4.3-.1.1-.3.1-.5.1s-.4 0-.5-.1c-.2-.1-.3-.2-.4-.3l-.1.3h-.3v-.4V.1h.4zm0 3.8c.1.1.3.2.4.3.1.1.3.1.4.1.3 0 .5-.1.7-.3.2-.3.3-.6.2-1 0-.2 0-.4-.1-.6 0-.1-.1-.3-.2-.4-.1-.1-.2-.2-.3-.2-.1 0-.2-.1-.4-.1-.1 0-.3 0-.4.1-.2.1-.3.2-.4.3v1.8zM70.8 2c.1-.2.3-.4.5-.5.2-.1.5-.2.8-.2.1 0 .3 0 .4.1.1 0 .3.1.4.2 0 0 .1.1.1.2.1.1.1.3.1.5v2.1c0 .1 0 .2.1.3h-.5l-.1-.5-.4.4c-.2.1-.4.2-.6.2-.1 0-.2 0-.4-.1-.1 0-.2-.1-.3-.2-.1-.1-.2-.2-.2-.3-.1-.1-.1-.3-.1-.4 0-.3.2-.7.5-.8l.6-.3c.3-.1.6-.2.9-.2v-.2c0-.2-.1-.4-.2-.5-.1-.1-.3-.1-.5-.1h-.3c-.1 0-.2.1-.2.1-.1 0-.1.1-.2.2 0 .1-.1.1-.1.2l-.3-.2zm1.9.8c-1 .2-1.6.5-1.6.9 0 .1 0 .1.1.2 0 .1.1.1.1.2.1 0 .1.1.2.1h.5c.1 0 .2-.1.3-.1l.1-.1c.1-.1.2-.1.2-.2l.1-1zM74.2 3.8c.1.2.2.3.4.4.2.1.4.1.5.1.2 0 .4 0 .5-.2.1-.1.2-.2.2-.4 0-.1 0-.2-.1-.3-.1-.1-.2-.1-.4-.2-.1-.1-.3-.1-.5-.1s-.3-.1-.5-.2c-.1-.1-.3-.2-.4-.3-.1-.1-.1-.3-.1-.5 0-.3.1-.5.3-.7.2-.2.5-.2.8-.2h.3c.1 0 .2.1.3.1.1 0 .2.1.3.2.1.1.2.1.2.2l-.3.3c-.1-.1-.2-.3-.4-.3-.1-.1-.3-.1-.5-.1s-.3 0-.4.1c-.1.1-.2.2-.2.4 0 .1.1.2.1.3.1.1.2.1.4.2.1 0 .3.1.5.1s.3.1.5.2.3.2.4.3c.1.1.2.3.1.5 0 .1 0 .3-.1.4-.1.1-.1.2-.3.3-.1.1-.2.1-.4.2-.1 0-.3.1-.4.1-.3 0-.5-.1-.7-.2-.2-.1-.4-.3-.6-.5l.5-.2zM79.5 3.9c-.1.1-.1.2-.2.3-.2.2-.4.3-.6.4-.2 0-.3.1-.5.1s-.4 0-.5-.1c-.2-.1-.3-.2-.5-.3-.1-.2-.2-.4-.2-.5-.1-.2-.1-.5-.1-.8 0-.2 0-.5.1-.7.1-.2.1-.4.3-.5.1-.1.3-.3.4-.3.2-.1.4-.1.5-.1.2 0 .3 0 .5.1s.3.1.4.3c.1.1.2.3.3.5.1.2.1.4.1.7v.3h-2.1c0 .2 0 .3.1.5 0 .1.1.3.2.4l.3.3c.1.1.2.1.4.1s.4 0 .5-.1c.1-.5.2-.6.3-.8l.3.2zM79 2.7c0-.3-.1-.5-.2-.7-.1-.2-.4-.3-.6-.3-.2 0-.5.1-.6.3-.2.2-.2.5-.2.7H79zM82.8.1V4.7h-.4l-.1-.3-.3.3c-.2.1-.3.1-.5.1s-.3 0-.5-.1-.3-.2-.4-.3c-.1-.2-.3-.3-.3-.5-.1-.3-.1-.5-.1-.8 0-.3 0-.5.1-.8.1-.2.2-.4.3-.5.1-.1.3-.2.4-.3.1-.1.3-.1.4-.1.2 0 .3 0 .5.1.1.1.3.2.4.3V.1h.5zm-.4 2c-.1-.1-.3-.2-.4-.3-.1-.1-.3-.1-.4-.1-.1 0-.3 0-.4.1-.1 0-.2.1-.3.2-.1.1-.2.3-.2.4-.1.2-.1.4-.1.6 0 .3.1.7.2 1 .2.2.4.3.7.3.1 0 .3 0 .4-.1.2-.1.3-.2.4-.3l.1-1.8zM87.3 3c0 .2 0 .4-.1.7 0 .1-.1.3-.2.5s-.3.3-.4.4c-.4.2-.8.2-1.2 0-.2-.1-.3-.2-.4-.4-.1-.2-.2-.3-.3-.5-.1-.4-.1-.9 0-1.3.1-.2.1-.4.3-.5.1-.2.3-.3.4-.4.4-.2.8-.2 1.2 0 .2.1.3.2.4.4.1.2.2.3.3.5V3zm-.4 0c0-.3-.1-.7-.2-1-.3-.4-.7-.4-1.1-.2l-.2.2c-.3.6-.3 1.3 0 2 .3.4.7.4 1.1.2 0-.1.1-.2.1-.2.2-.3.3-.7.3-1zM88.6 1.3v.4l.4-.4c.2-.1.3-.1.5-.1h.4c.1 0 .2.1.3.2.1.1.2.2.2.3.1.1.1.3.1.4v2.4H90V2.2c.2-.2 0-.5-.3-.5h-.5c-.1 0-.2.1-.3.1-.1 0-.2.1-.2.2l-.2.2v2.5H88V1.3h.6zM93.2 1.3v.4l.4-.4c.2-.1.3-.1.5-.1h.4c.1 0 .2.1.3.2.1.2.2.3.2.4.1.1.1.3.1.4v2.4h-.5V2.2c.1-.3-.1-.5-.4-.6h-.5c-.1 0-.2.1-.3.1-.1 0-.2.1-.2.2l-.2.2v2.5h-.5V1.3h.7zM98.1 4.6v-.4l-.4.4c-.2.1-.3.1-.5.1-.1 0-.2 0-.4-.1-.1 0-.2-.1-.3-.2-.1-.1-.2-.2-.2-.3-.1-.1-.1-.3-.1-.4V1.3h.5v2.4c0 .2 0 .3.1.5.1.1.2.1.4.1h.3c.1 0 .2-.1.3-.1.1 0 .2-.1.2-.2l.2-.2V1.3h.5v3.3h-.6zM99.7 4.6V1.3h.5v.4c.1-.1.3-.3.5-.4.2-.1.3-.1.5-.1s.4 0 .5.1c.1.1.2.2.3.4.1-.2.3-.3.5-.4.2-.1.4-.1.6-.1h.3c.1 0 .2.1.3.2.1.1.2.2.2.3.1.2.1.3.1.5v2.3h-.5V2.3c0-.2 0-.3-.1-.5-.1-.1-.2-.1-.4-.1h-.3c-.1 0-.2.1-.2.1-.1 0-.1.1-.2.2l-.3.2v2.4h-.5V2.3c0-.2 0-.3-.1-.5-.1-.1-.2-.1-.4-.1h-.3c-.1 0-.2.1-.2.1-.1 0-.1.1-.2.2l-.2.2v2.4h-.4zM107.4 3.9c-.1.1-.1.2-.2.3-.2.2-.4.3-.6.4-.2 0-.3.1-.5.1s-.4 0-.5-.1c-.2-.1-.3-.2-.5-.3-.1-.2-.3-.3-.3-.5-.1-.2-.1-.5-.1-.8 0-.2 0-.5.1-.7.1-.2.1-.4.3-.5.1-.1.3-.3.4-.3.2-.1.4-.1.5-.1.2 0 .3 0 .5.1s.3.1.4.3c.1.1.2.3.3.5.1.2.1.4.1.7v.3h-2.1c0 .2 0 .3.1.5 0 .1.1.3.2.4l.3.3c.1.1.2.1.4.1s.4 0 .5-.1c.2-.1.3-.2.4-.4l.3-.2zm-.5-1.2c0-.3-.1-.5-.2-.7-.1-.2-.4-.3-.6-.3-.2 0-.5.1-.6.3-.2.2-.2.5-.2.7h1.6zM108.2 1.3h.5V2c.1-.1.1-.2.2-.3.1-.1.1-.2.2-.2.1-.1.2-.1.3-.1h.4v.5c-.3 0-.5.1-.7.3-.2.2-.3.5-.4.8v1.8h-.5V1.3zM112.8 3c0 .2 0 .4-.1.7-.1.2-.1.4-.3.5-.1.2-.3.3-.4.4-.4.2-.8.2-1.2 0-.2-.1-.3-.2-.4-.4-.1-.2-.2-.3-.3-.5-.1-.4-.1-.9 0-1.3.1-.2.1-.4.3-.5.1-.2.3-.3.4-.4.4-.2.8-.2 1.2 0 .2.1.3.2.4.4.1.2.2.3.3.5.1.1.1.4.1.6zm-.4 0c0-.3-.1-.7-.2-1-.3-.4-.7-.4-1.1-.2l-.2.2c-.3.6-.3 1.3 0 2 .3.4.7.4 1.1.2l.2-.2c.1-.3.2-.7.2-1zM115.6 4.6v-.4l-.4.4c-.2.1-.3.1-.5.1-.1 0-.2 0-.4-.1-.1 0-.2-.1-.3-.2-.1-.1-.2-.2-.2-.3-.1-.1-.1-.3-.1-.4V1.3h.5v2.4c0 .2 0 .3.1.5.1.1.2.1.4.1h.3c.1 0 .2-.1.3-.1.1 0 .2-.1.2-.2l.2-.2V1.3h.5v3.3h-.6zM117.2 3.8c.1.2.2.3.4.4.2.1.4.1.5.1.2 0 .4 0 .5-.2.1-.1.2-.2.2-.4 0-.1 0-.2-.1-.3-.1-.1-.2-.1-.4-.2-.1-.1-.3-.1-.5-.1s-.3-.1-.5-.2c-.1-.1-.3-.2-.4-.3-.1-.1-.1-.3-.1-.5 0-.3.1-.5.3-.7.2-.2.5-.2.8-.2h.3c.1 0 .2.1.3.1.1 0 .2.1.3.2.1.1.2.1.2.2l-.3.3c-.1-.1-.2-.3-.4-.3-.1-.1-.3-.1-.5-.1s-.3 0-.4.1c-.1.1-.2.2-.2.4 0 .1.1.2.1.3.1.1.2.1.4.2.1 0 .3.1.5.1s.3.1.5.2c.1.1.3.2.4.3.1.1.2.3.1.5 0 .1 0 .3-.1.4-.1.1-.1.2-.3.3-.1.1-.2.1-.4.2-.1 0-.3.1-.4.1-.3 0-.5-.1-.7-.2-.2-.1-.4-.3-.6-.5l.5-.2zM121.2 4.6V1.7h-.6v-.4h.6V1c0-.2 0-.3.1-.5 0-.1.1-.2.1-.3.1-.1.2-.1.2-.2h.8v.4h-.4c-.1 0-.2 0-.3.1-.1.1-.1.2-.1.4v.5h.7v.4h-.7v2.9l-.4-.1zM123 2c.1-.2.3-.4.5-.5.2-.1.5-.2.8-.2.1 0 .3 0 .4.1.1 0 .3.1.4.2l.3.3c.1.1.1.3.1.5v2.1c0 .1 0 .2.1.3h-.6v-.6l-.4.4c-.2.1-.4.2-.6.2-.1 0-.2 0-.4-.1-.1 0-.2-.1-.3-.2-.1-.1-.2-.2-.2-.3-.1-.1-.1-.3-.1-.4 0-.3.2-.7.5-.8l.6-.3c.3-.1.6-.2.9-.2v-.2c0-.2-.1-.4-.2-.5-.1-.1-.3-.1-.5-.1h-.3c-.1 0-.2.1-.2.1-.1 0-.1.1-.2.2 0 .1-.1.1-.1.2L123 2zm2 .8c-1 .2-1.6.5-1.6.9 0 .1 0 .1.1.2 0 .1.1.1.1.2.1 0 .1.1.2.1h.5c.1 0 .2-.1.3-.1.1-.1.2-.1.3-.2.1-.1.2-.1.2-.2l-.1-.9zM128.3 2.3c-.1-.2-.2-.3-.3-.5-.1-.1-.3-.2-.5-.2-.3 0-.5.1-.7.3-.3.6-.3 1.3 0 1.9.1.2.4.4.7.3h.3c.1 0 .2-.1.2-.1l.2-.2c.1-.1.1-.2.2-.3l.4.2c-.1.1-.2.2-.2.4l-.3.3c-.1.1-.2.1-.3.2-.1 0-.3.1-.4.1-.2 0-.4 0-.6-.1-.2-.1-.3-.2-.4-.3-.1-.2-.2-.3-.3-.5-.1-.5-.1-1 0-1.4.1-.2.1-.4.3-.5.1-.1.3-.3.4-.3.2-.1.4-.1.6-.1.1 0 .3 0 .4.1.1 0 .2.1.3.2.1.1.2.2.2.3.1.1.1.2.2.4l-.4-.2zM129.8 1.3v-1h.5v1.1h.8v.4h-.8v2.3c0 .1 0 .1.1.2.1 0 .2.1.3.1h.4v.4h-.5c-.2 0-.4 0-.5-.1-.1-.1-.2-.3-.2-.4V1.7h-.5v-.4h.4zM134.2 3c0 .2 0 .4-.1.7-.1.2-.1.4-.3.5-.1.2-.3.3-.4.4-.4.2-.8.2-1.2 0-.2-.1-.3-.2-.4-.4-.1-.2-.2-.3-.3-.5-.1-.4-.1-.9 0-1.3.1-.2.1-.4.3-.5.1-.2.3-.3.4-.4.4-.2.8-.2 1.2 0 .2.1.3.2.4.4.1.2.2.3.3.5.1.1.1.4.1.6zm-.4 0c0-.3-.1-.7-.2-1-.3-.4-.7-.4-1.1-.2l-.2.2c-.3.6-.3 1.3 0 2 .3.4.7.4 1.1.2l.2-.2c.1-.3.2-.7.2-1zM135 1.3h.5V2c.1-.1.1-.2.2-.3.1-.1.1-.2.2-.2.1-.1.2-.1.3-.1h.4v.5c-.3 0-.5.1-.7.3-.2.2-.3.5-.4.8v1.8h-.5V1.3zM137.4 3.8c.1.2.2.3.4.4.2.1.4.1.5.1.2 0 .4 0 .5-.2.1-.1.2-.2.2-.4 0-.1 0-.2-.1-.3-.1-.1-.2-.1-.4-.2-.1-.1-.3-.1-.5-.1s-.3-.1-.5-.2c-.1-.1-.3-.2-.4-.3-.1-.1-.1-.3-.1-.5 0-.3.1-.5.3-.7.2-.2.5-.2.8-.2h.3c.1 0 .2.1.3.1.1 0 .2.1.3.2.1.1.2.1.2.2l-.2.4c-.1-.1-.2-.3-.4-.3-.1-.1-.3-.1-.5-.1s-.3 0-.4.1c-.1.1-.2.2-.2.4 0 .1.1.2.1.3.1.1.2.1.4.2.1 0 .3.1.5.1s.3.1.5.2c.1.1.3.2.4.3.1.1.2.3.1.5 0 .1 0 .3-.1.4-.1.1-.1.2-.3.3-.1.1-.2.1-.4.2-.1 0-.3.1-.4.1-.3 0-.5-.1-.7-.2-.2-.1-.4-.3-.6-.5l.4-.3zM141.8 0v.5h-.5V0h.5zm-.5 1.3h.5v3.3h-.5V1.3zM143.4 1.3v.4l.4-.4c.2-.1.3-.1.5-.1h.4c.1 0 .2.1.3.2.1.1.2.2.2.3.1.1.1.3.1.4v2.4h-.5V2.2c.1-.3-.1-.5-.4-.6h-.5c-.1 0-.2.1-.3.1-.1 0-.2.1-.2.2l-.2.2v2.5h-.5V1.3h.7zM148.3 2.3c-.1-.2-.2-.3-.3-.5-.1-.1-.3-.2-.5-.2-.3 0-.5.1-.7.3-.3.6-.3 1.3 0 1.9.1.2.4.4.7.3h.3c.1 0 .2-.1.2-.1l.2-.2c.1-.1.1-.2.2-.3l.4.2c-.1.1-.2.2-.2.4l-.3.3c-.1.1-.2.1-.3.2-.1 0-.3.1-.4.1-.2 0-.4 0-.6-.1-.2-.1-.3-.2-.4-.3-.1-.2-.2-.3-.3-.5-.1-.5-.1-1 0-1.4.1-.2.1-.4.3-.5.1-.1.3-.3.4-.3.2-.1.4-.1.6-.1.1 0 .3 0 .4.1.1 0 .2.1.3.2.1.1.2.2.2.3.1.1.1.2.2.4l-.4-.2zM150.1.1v4.6h-.5V.1h.5zM153.2 4.6v-.4l-.4.4c-.2.1-.3.1-.5.1-.1 0-.2 0-.4-.1-.1 0-.2-.1-.3-.2-.1-.1-.2-.2-.2-.3-.1-.1-.1-.3-.1-.4V1.3h.5v2.4c0 .2 0 .3.1.5.1.1.2.1.4.1h.3c.1 0 .2-.1.3-.1.1 0 .2-.1.2-.2l.2-.2V1.3h.5v3.3h-.6zM157.2.1V4.7h-.4l-.1-.3-.3.3c-.2.1-.3.1-.5.1s-.3 0-.5-.1-.3-.2-.4-.3c-.1-.2-.3-.3-.3-.5-.1-.3-.1-.5-.1-.8 0-.3 0-.5.1-.8.1-.2.2-.4.3-.5.1-.1.3-.2.4-.3.1-.1.3-.1.4-.1.2 0 .3 0 .5.1.1.1.3.2.4.3V.1h.5zm-.4 2c-.1-.1-.3-.2-.4-.3-.1-.1-.3-.1-.4-.1-.1 0-.3 0-.4.1-.1 0-.2.1-.3.2-.1.1-.2.3-.2.4-.1.2-.1.4-.1.6 0 .3.1.7.2 1 .2.2.4.3.7.3.1 0 .3 0 .4-.1.2-.1.3-.2.4-.3l.1-1.8zM158.8 0v.5h-.5V0h.5zm-.4 1.3h.5v3.3h-.5V1.3zM160.5 1.3v.4l.4-.4c.2-.1.3-.1.5-.1h.4c.1 0 .2.1.3.2.1.1.2.2.2.3.1.1.1.3.1.4v2.4h-.5V2.2c.1-.3-.1-.5-.4-.6h-.5c-.1 0-.2.1-.3.1-.1 0-.2.1-.2.2l-.2.2v2.5h-.3V1.3h.5zM166 1.7h-.3c-.1 0-.2 0-.2.1.1.1.1.2.1.3.1.1.1.3.1.4 0 .2 0 .3-.1.5-.1.3-.4.5-.6.6-.1.1-.3.1-.5.1h-.3c-.1 0-.2 0-.3-.1-.1 0-.3.2-.3.3 0 .1 0 .1.1.2.1 0 .1.1.2.1.3 0 .7 0 1 .1.2 0 .4.1.6.2.1.1.3.2.3.3.1.1.1.3.1.4 0 .1 0 .2-.1.3l-.3.3c-.1.1-.3.2-.5.2s-.4.1-.7.1c-.4 0-.7 0-1.1-.2-.2-.1-.4-.3-.4-.6 0-.1 0-.3.1-.4.1-.1.3-.2.4-.3-.1 0-.2-.1-.3-.2-.1-.1-.1-.2-.1-.3 0-.1 0-.2.1-.3.1-.1.2-.2.3-.2-.1-.1-.3-.2-.3-.4-.1-.2-.1-.3-.1-.5s0-.3.1-.5c.1-.1.1-.3.3-.4.1-.1.2-.2.4-.2.2-.1.3-.1.5-.1s.3 0 .5.1c.1 0 .2.1.4.2.1-.1.2-.1.3-.2.1-.1.2-.1.4-.1l.2.2zm-.4 3.3c0-.2-.1-.3-.3-.4-.3-.1-.6-.1-.9-.1-.1 0-.3 0-.4.1-.1 0-.2.1-.3.1-.1 0-.1.1-.1.2v.4c0 .1.1.1.2.1s.2.1.3.1h.9c.1 0 .2 0 .3-.1.1 0 .2-.1.2-.1.1-.2.1-.3.1-.3zm-.3-2.6c0-.2-.1-.4-.2-.6-.2-.2-.4-.2-.6-.2-.2 0-.4.1-.6.2-.1.1-.2.3-.2.5s.1.4.2.5c.2.1.4.2.6.2.1 0 .2 0 .3-.1.1 0 .2-.1.2-.2.1-.1.1-.1.1-.2.2.1.2 0 .2-.1zM168.2.1v1.6c.1-.1.3-.2.4-.3.1-.1.3-.1.5-.1s.3 0 .4.1c.2.1.3.2.4.3.1.2.2.3.3.5.1.3.1.5.1.8 0 .3 0 .6-.1.8-.1.2-.2.4-.3.5-.1.1-.3.2-.4.3-.1.1-.3.1-.5.1s-.4 0-.5-.1c-.2-.1-.3-.2-.4-.3l-.1.3h-.3v-.4V.1h.5zm0 3.8c.1.1.3.2.4.3.1.1.3.1.4.1.3 0 .5-.1.7-.3.2-.3.3-.6.2-1 0-.2 0-.4-.1-.6 0-.1-.1-.3-.2-.4-.1-.1-.2-.2-.3-.2-.1 0-.2-.1-.4-.1-.1 0-.3 0-.4.1-.2.1-.3.2-.4.3v1.8zM173.2 4.6v-.4l-.4.4c-.2.1-.3.1-.5.1-.1 0-.2 0-.4-.1-.1 0-.2-.1-.3-.2-.1-.1-.2-.2-.2-.3-.1-.1-.1-.3-.1-.4V1.3h.5v2.4c0 .2 0 .3.1.5.1.1.2.1.4.1h.3c.1 0 .2-.1.3-.1.1 0 .2-.1.2-.2l.2-.2V1.3h.5v3.3h-.6zM174.9 1.3v-1h.5v1.1h.8v.4h-.8v2.3c0 .1 0 .1.1.2.1 0 .2.1.3.1h.4v.4h-.5c-.2 0-.4 0-.5-.1-.1-.1-.2-.3-.2-.4V1.7h-.5v-.4h.4zM178.4 1.3v.4l.4-.4c.2-.1.3-.1.5-.1h.4c.1 0 .2.1.3.2.1.1.2.2.2.3.1.1.1.3.1.4v2.4h-.5V2.2c.1-.3-.1-.5-.4-.6h-.5c-.1 0-.2.1-.3.1-.1 0-.2.1-.2.2l-.2.2v2.5h-.2V1.3h.4zM183.9 3c0 .2 0 .4-.1.7-.1.2-.1.4-.3.5-.1.2-.3.3-.4.4-.4.2-.8.2-1.2 0-.2-.1-.3-.2-.4-.4-.1-.2-.2-.3-.3-.5-.1-.4-.1-.9 0-1.3.1-.2.1-.4.3-.5.1-.2.3-.3.4-.4.4-.2.8-.2 1.2 0 .2.1.3.2.4.4.1.2.2.3.3.5.1.1.1.4.1.6zm-.4 0c0-.3-.1-.7-.2-1-.3-.4-.7-.4-1.1-.2-.2.1-.2.1-.3.2-.3.6-.3 1.3 0 2 .3.4.7.4 1.1.2l.2-.2c.2-.3.3-.7.3-1zM184.9 1.3v-1h.5v1.1h.8v.4h-.8v2.3c0 .1 0 .1.1.2.1 0 .2.1.3.1h.4v.4h-.5c-.2 0-.4 0-.5-.1-.1-.1-.2-.3-.2-.4V1.7h-.5v-.4h.4zM188.5.1v4.6h-.5V.1h.5zM190.1 0v.5h-.5V0h.5zm-.4 1.3h.5v3.3h-.5V1.3zM191.3 4.6V1.3h.5v.4c.1-.1.3-.3.5-.4.2-.1.3-.1.5-.1s.4 0 .5.1c.1.1.2.2.3.4.1-.2.3-.3.5-.4.2-.1.4-.1.6-.1h.3c.1 0 .2.1.3.2.1.1.2.2.2.3.1.2.1.3.1.5v2.3h-.6V2.3c0-.2 0-.3-.1-.5-.1-.1-.2-.1-.4-.1h-.3c-.1 0-.2.1-.2.1-.1 0-.1.1-.2.2l-.2.2v2.4h-.5V2.3c0-.2 0-.3-.1-.5-.1-.1-.2-.1-.4-.1h-.3c-.1 0-.2.1-.2.1-.1 0-.1.1-.2.2l-.2.2v2.4h-.4zM197.1 0v.5h-.5V0h.5zm-.5 1.3h.5v3.3h-.5V1.3zM198.4 1.3v-1h.5v1.1h.8v.4h-.8v2.3c0 .1 0 .1.1.2.1 0 .2.1.3.1h.4v.4h-.5c-.2 0-.4 0-.5-.1-.1-.1-.2-.3-.2-.4V1.7h-.5v-.4h.4zM202.8 3.9c-.1.1-.1.2-.2.3-.2.2-.4.3-.6.4-.2 0-.3.1-.5.1s-.4 0-.5-.1c-.2-.1-.3-.2-.5-.3-.1-.2-.3-.3-.3-.5-.1-.2-.1-.5-.1-.8 0-.2 0-.5.1-.7.1-.2.1-.4.3-.5.1-.1.3-.3.4-.3.2-.1.4-.1.5-.1.2 0 .3 0 .5.1s.3.1.4.3c.1.1.2.3.3.5.1.2.1.4.1.7v.3h-2.1c0 .2 0 .3.1.5 0 .1.1.3.2.4l.3.3c.1.1.2.1.4.1s.4 0 .5-.1c.2-.1.3-.2.4-.4l.3-.2zm-.6-1.2c0-.3-.1-.5-.2-.7-.1-.2-.4-.3-.6-.3-.2 0-.5.1-.6.3-.2.2-.2.5-.2.7h1.6zM206.1.1V4.7h-.4l-.1-.3-.3.3c-.2.1-.3.1-.5.1s-.3 0-.5-.1-.3-.2-.4-.3c-.1-.2-.3-.3-.3-.5-.1-.3-.1-.5-.1-.8 0-.3 0-.5.1-.8.1-.2.2-.4.3-.5.1-.1.3-.2.4-.3.1-.1.3-.1.4-.1.2 0 .3 0 .5.1.1.1.3.2.4.3V.1h.5zm-.5 2c-.1-.1-.3-.2-.4-.3-.1-.1-.3-.1-.4-.1-.1 0-.3 0-.4.1-.1 0-.2.1-.3.2-.1.1-.2.3-.2.4-.1.2-.1.4-.1.6 0 .3.1.7.2 1 .2.2.4.3.7.3.1 0 .3 0 .4-.1.2-.1.3-.2.4-.3l.1-1.8zM208.3 1.3v-1h.5v1.1h.8v.4h-.8v2.3c0 .1 0 .1.1.2.1 0 .2.1.3.1h.4v.4h-.5c-.2 0-.4 0-.5-.1-.1-.1-.2-.3-.2-.4V1.7h-.5v-.4h.4zM212.7 3c0 .2 0 .4-.1.7-.1.2-.1.4-.3.5-.1.2-.3.3-.4.4-.4.2-.8.2-1.2 0-.2-.1-.3-.2-.4-.4-.1-.2-.2-.3-.3-.5-.1-.4-.1-.9 0-1.3.1-.2.1-.4.3-.5.1-.2.3-.3.4-.4.4-.2.8-.2 1.2 0 .2.1.3.2.4.4.1.2.2.3.3.5 0 .1.1.4.1.6zm-.5 0c0-.3-.1-.7-.2-1-.3-.4-.7-.4-1.1-.2l-.2.2c-.3.6-.3 1.3 0 2 .3.4.7.4 1.1.2l.2-.2c.2-.3.2-.7.2-1zM214.9.1v1.6c.1-.1.3-.2.4-.3.1-.1.3-.1.5-.1s.3 0 .4.1c.2.1.3.2.4.3.1.2.2.3.3.5.1.3.1.5.1.8 0 .3 0 .6-.1.8-.1.2-.2.4-.3.5-.1.1-.3.2-.4.3-.1.1-.3.1-.5.1s-.4 0-.5-.1c-.2-.1-.3-.2-.4-.3l-.1.3h-.3v-.4V.1h.5zm0 3.8c.1.1.3.2.4.3.1.1.3.1.4.1.3 0 .5-.1.7-.3.2-.3.3-.6.2-1 0-.2 0-.4-.1-.6 0-.1-.1-.3-.2-.4-.1-.1-.2-.2-.3-.2-.1 0-.2-.1-.4-.1-.1 0-.3 0-.4.1-.2.1-.3.2-.4.3v1.8zM220 4.6v-.4l-.4.4c-.2.1-.3.1-.5.1-.1 0-.2 0-.4-.1-.1 0-.2-.1-.3-.2-.1-.1-.2-.2-.2-.3-.1-.1-.2-.2-.2-.4V1.3h.5v2.4c0 .2 0 .3.1.5.1.1.2.1.4.1h.3c.1 0 .2-.1.3-.1.1 0 .2-.1.2-.2l.2-.2V1.3h.5v3.3h-.5zM221.5 3.8c.1.2.2.3.4.4.2.1.4.1.5.1.2 0 .4 0 .5-.2.1-.1.2-.2.2-.4 0-.1 0-.2-.1-.3-.1-.1-.2-.1-.4-.2-.1-.1-.3-.1-.5-.1s-.3-.1-.5-.2c-.1-.1-.3-.2-.4-.3-.1-.1-.1-.3-.1-.5 0-.3.1-.5.3-.7.2-.2.5-.2.8-.2h.3c.1 0 .2.1.3.1.1 0 .2.1.3.2.1.1.2.1.2.2l-.3.3c-.1-.1-.2-.3-.4-.3-.1-.1-.3-.1-.5-.1s-.3 0-.4.1c-.1.1-.2.2-.2.4 0 .1.1.2.1.3.1.1.2.1.4.2.1 0 .3.1.5.1s.3.1.5.2c.1.1.3.2.4.3.1.1.2.3.1.5 0 .1 0 .3-.1.4-.1.1-.1.2-.3.3-.1.1-.2.1-.4.2-.1 0-.3.1-.4.1-.3 0-.5-.1-.7-.2-.2-.1-.4-.3-.6-.5l.5-.2zM225 0v.5h-.5V0h.5zm-.5 1.3h.5v3.3h-.5V1.3zM226.6 1.3v.4l.4-.4c.2-.1.3-.1.5-.1h.4c.1 0 .2.1.3.2.1.1.2.2.2.3.1.1.1.3.1.4v2.4h-.5V2.2c.1-.3-.1-.5-.4-.6h-.5c-.1 0-.2.1-.3.1-.1 0-.2.1-.2.2l-.2.2v2.5h-.5V1.3h.7zM232.1 3.9c-.1.1-.1.2-.2.3-.2.2-.4.3-.6.4-.2 0-.3.1-.5.1s-.4 0-.5-.1c-.2-.1-.3-.2-.5-.3-.1-.2-.3-.3-.3-.5-.1-.2-.1-.5-.1-.8 0-.2 0-.5.1-.7.1-.2.1-.4.3-.5.1-.1.3-.3.4-.3.2-.1.4-.1.5-.1.2 0 .3 0 .5.1s.3.1.4.3c.1.1.2.3.3.5.1.2.1.4.1.7v.3h-2.1c0 .2 0 .3.1.5 0 .1.1.3.2.4l.3.3c.1.1.2.1.4.1s.4 0 .5-.1c.2-.1.3-.2.4-.4l.3-.2zm-.6-1.2c0-.3-.1-.5-.2-.7-.1-.2-.4-.3-.6-.3-.2 0-.5.1-.6.3-.2.2-.2.5-.2.7h1.6zM233 3.8c.1.2.2.3.4.4.2.1.4.1.5.1.2 0 .4 0 .5-.2.1-.1.2-.2.2-.4 0-.1 0-.2-.1-.3-.1-.1-.2-.1-.4-.2-.1-.1-.3-.1-.5-.1s-.3-.1-.5-.2c-.1-.1-.3-.2-.4-.3-.1-.1-.1-.3-.1-.5 0-.3.1-.5.3-.7.2-.2.5-.2.8-.2h.3c.1 0 .2.1.3.1.1 0 .2.1.3.2.1.1.2.1.2.2l-.3.3c-.1-.1-.2-.3-.4-.3-.1-.1-.3-.1-.5-.1s-.3 0-.4.1c-.1.1-.2.2-.2.4 0 .1.1.2.1.3.1.1.2.1.4.2.1 0 .3.1.5.1s.3.1.5.2c.1.1.3.2.4.3.1.1.2.3.1.5 0 .1 0 .3-.1.4-.1.1-.1.2-.3.3-.1.1-.2.1-.4.2-.1 0-.3.1-.4.1-.3 0-.5-.1-.7-.2-.2-.1-.4-.3-.6-.5l.5-.2zM236 3.8c.1.2.2.3.4.4.2.1.4.1.5.1.2 0 .4 0 .5-.2.1-.1.2-.2.2-.4 0-.1 0-.2-.1-.3-.1-.1-.2-.1-.4-.2-.1-.1-.3-.1-.5-.1s-.3-.1-.5-.2c-.1-.1-.3-.2-.4-.3-.1-.1-.1-.3-.1-.5 0-.3.1-.5.3-.7.2-.2.5-.2.8-.2h.3c.1 0 .2.1.3.1.1 0 .2.1.3.2.1.1.2.1.2.2l-.3.3c-.1-.1-.2-.3-.4-.3-.1-.1-.3-.1-.5-.1s-.3 0-.4.1c-.1.1-.2.2-.2.4 0 .1.1.2.1.3.1.1.2.1.4.2.1 0 .3.1.5.1s.3.1.5.2c.1.1.3.2.4.3.1.1.2.3.1.5 0 .1 0 .3-.1.4-.1.1-.1.2-.3.3-.1.1-.2.1-.4.2-.1 0-.3.1-.4.1-.3 0-.5-.1-.7-.2-.2-.1-.4-.3-.6-.5l.5-.2zM239.9 1.3v-1h.5v1.1h.8v.4h-.8v2.3c0 .1 0 .1.1.2.1 0 .2.1.3.1h.4v.4h-.5c-.2 0-.4 0-.5-.1-.1-.1-.2-.3-.2-.4V1.7h-.5v-.4h.4zM243.9 4.6v-.4l-.4.4c-.2.1-.3.1-.5.1-.1 0-.2 0-.4-.1-.1 0-.2-.1-.3-.2-.1-.1-.2-.2-.2-.3-.1-.1-.1-.3-.1-.4V1.3h.5v2.4c0 .2 0 .3.1.5.1.1.2.1.4.1h.3c.1 0 .2-.1.3-.1.1 0 .2-.1.2-.2l.2-.2V1.3h.5v3.3h-.6zM245.4 1.3h.5V2c.1-.1.1-.2.2-.3.1-.1.1-.2.2-.2.1-.1.2-.1.3-.1h.4v.5c-.3 0-.5.1-.7.3-.2.2-.3.5-.4.8v1.8h-.5V1.3zM248.1 1.3v.4l.4-.4c.2-.1.3-.1.5-.1h.4c.1 0 .2.1.3.2.1.1.2.2.2.3.1.1.1.3.1.4v2.4h-.5V2.2c.1-.3-.1-.5-.4-.6h-.5c-.1 0-.2.1-.3.1-.1 0-.2.1-.2.2l-.2.2v2.5h-.5V1.3h.7zM253.6 3c0 .2 0 .4-.1.7-.1.2-.1.4-.3.5-.1.2-.3.3-.4.4-.4.2-.8.2-1.2 0-.2-.1-.3-.2-.4-.4-.1-.2-.2-.4-.2-.6-.1-.4-.1-.9 0-1.3.1-.2.1-.4.3-.5.1-.2.3-.3.4-.4.4-.2.8-.2 1.2 0 .2.1.3.2.4.4.1.2.2.3.3.5-.1.2 0 .5 0 .7zm-.5 0c0-.3-.1-.7-.2-1-.3-.4-.7-.4-1.1-.2l-.2.2c-.3.6-.3 1.3 0 2 .3.4.7.4 1.1.2l.2-.2c.2-.3.2-.7.2-1zM255.6 4.6h-.6l-1-3.3h.5l.8 2.7.8-2.7h.5l-1 3.3zM259.7 3.9c-.1.1-.1.2-.2.3-.2.2-.4.3-.6.4-.2 0-.3.1-.5.1s-.4 0-.5-.1c-.2-.1-.3-.2-.5-.3-.1-.2-.3-.3-.3-.5-.1-.3-.1-.6-.1-.8 0-.2 0-.5.1-.7.1-.2.1-.4.3-.5.1-.1.3-.3.4-.3.2-.1.4-.1.5-.1.2 0 .3 0 .5.1s.3.1.4.3c.1.1.2.3.3.5.1.2.1.4.1.7v.3h-2.1c0 .2 0 .3.1.5 0 .1.1.3.2.4l.3.3c.1.1.2.1.4.1s.4 0 .5-.1c.2-.1.3-.2.4-.4l.3-.2zm-.6-1.2c0-.3-.1-.5-.2-.7-.1-.2-.4-.3-.6-.3-.2 0-.5.1-.6.3-.2.2-.2.5-.2.7h1.6zM260.4 1.3h.5V2c.1-.1.1-.2.2-.3.1-.1.1-.2.2-.2.1-.1.2-.1.3-.1h.4v.5c-.3 0-.5.1-.7.3-.2.2-.3.5-.4.8v1.8h-.5V1.3zM263.5 2c.1-.2.3-.4.5-.5.2-.1.5-.2.8-.2.1 0 .3 0 .4.1.1 0 .3.1.4.2l.3.3c.1.1.1.3.1.5v2.1c0 .1 0 .2.1.3h-.5l-.1-.5-.4.4c-.2.1-.4.2-.6.2-.1 0-.2 0-.4-.1-.1 0-.2-.1-.3-.2-.1-.1-.2-.2-.2-.3-.1-.1-.1-.3-.1-.4 0-.3.2-.7.5-.8l.6-.3c.3-.1.6-.2.9-.2v-.3c0-.2-.1-.4-.2-.5-.1-.1-.3-.1-.5-.1h-.3c-.1 0-.2.1-.2.1-.1 0-.1.1-.2.2 0 .1-.1.1-.1.2l-.5-.2zm1.9.8c-1 .2-1.6.5-1.6.9 0 .1 0 .1.1.2 0 .1.1.1.1.2.1 0 .1.1.2.1h.5c.1 0 .2-.1.3-.1.1-.1.2-.1.3-.2.1-.1.2-.1.2-.2l-.1-.9zM267.3 1.3v.4l.4-.4c.2-.1.3-.1.5-.1h.4c.1 0 .2.1.3.2.1.1.2.2.2.3.1.1.1.3.1.4v2.4h-.5V2.2c.1-.3-.1-.5-.4-.6h-.5c-.1 0-.2.1-.3.1-.1 0-.2.1-.2.2l-.2.2v2.5h-.5V1.3h.7zM272.8.1V4.7h-.4l-.1-.3-.3.3c-.2.1-.3.1-.5.1s-.3 0-.5-.1-.3-.2-.4-.3c-.1-.2-.3-.3-.3-.5-.1-.3-.1-.5-.1-.8 0-.3 0-.5.1-.8.1-.2.2-.4.3-.5.1-.1.3-.2.4-.3.1-.1.3-.1.4-.1.2 0 .3 0 .5.1.1.1.3.2.4.3V.1h.5zm-.5 2c-.1-.1-.3-.2-.4-.3-.1-.1-.3-.1-.4-.1-.1 0-.3 0-.4.1-.1 0-.2.1-.3.2-.1.1-.2.3-.2.4-.1.2-.1.4-.1.6 0 .3.1.7.2 1 .2.2.4.3.7.3.1 0 .3 0 .4-.1.2-.1.3-.2.4-.3l.1-1.8zM274.7 2c.1-.2.3-.4.5-.5.2-.1.5-.2.8-.2.1 0 .3 0 .4.1.1 0 .3.1.4.2l.3.3c.1.1.1.3.1.5v2.1c0 .1 0 .2.1.3h-.5l-.1-.5-.4.4c-.2.1-.4.2-.6.2-.1 0-.2 0-.4-.1-.1 0-.2-.1-.3-.2-.1-.1-.2-.2-.2-.3-.1-.1-.1-.3-.1-.4 0-.3.2-.7.5-.8l.6-.3c.3-.1.6-.2.9-.2v-.3c0-.2-.1-.4-.2-.5-.1-.1-.3-.1-.5-.1h-.3c-.1 0-.2.1-.2.1-.1 0-.1.1-.2.2 0 .1-.1.1-.1.2l-.5-.2zm1.9.8c-1 .2-1.6.5-1.6.9 0 .1 0 .1.1.2 0 .1.1.1.1.2.1 0 .1.1.2.1h.5c.1 0 .2-.1.3-.1.1-.1.2-.1.3-.2.1-.1.2-.1.2-.2l-.1-.9zM278.1 3.8c.1.2.2.3.4.4.2.1.4.1.5.1.2 0 .4 0 .5-.2.1-.1.2-.2.2-.4 0-.1 0-.2-.1-.3-.1-.1-.2-.1-.4-.2-.1-.1-.3-.1-.5-.1s-.3-.1-.5-.2c-.1-.1-.3-.2-.4-.3-.1-.1-.1-.3-.1-.5 0-.3.1-.5.3-.7.2-.2.5-.2.8-.2h.3c.1 0 .2.1.3.1.1 0 .2.1.3.2.1.1.2.1.2.2l-.3.3c-.1-.1-.2-.3-.4-.3-.1-.1-.3-.1-.5-.1s-.3 0-.4.1c-.1.1-.2.2-.2.4 0 .1.1.2.1.3.1.1.2.1.4.2.1 0 .3.1.5.1s.3.1.5.2c.1.1.3.2.4.3.1.1.2.3.1.5 0 .1 0 .3-.1.4-.1.1-.1.2-.3.3-.1.1-.2.1-.4.2-.1 0-.3.1-.4.1-.3 0-.5-.1-.7-.2-.2-.1-.4-.3-.6-.5l.5-.2zM281.1 3.8c.1.2.2.3.4.4.2.1.4.1.5.1.2 0 .4 0 .5-.2.1-.1.2-.2.2-.4 0-.1 0-.2-.1-.3-.1-.1-.2-.1-.4-.2-.1-.1-.3-.1-.5-.1s-.3-.1-.5-.2c-.1-.1-.3-.2-.4-.3-.1-.1-.1-.3-.1-.5 0-.3.1-.5.3-.7.2-.2.5-.2.8-.2h.3c.1 0 .2.1.3.1.1 0 .2.1.3.2.1.1.2.1.2.2l-.3.3c-.1-.1-.2-.3-.4-.3-.1-.1-.3-.1-.5-.1s-.3 0-.4.1c-.1.1-.2.2-.2.4 0 .1.1.2.1.3.1.1.2.1.4.2.1 0 .3.1.5.1s.3.1.5.2c.1.1.3.2.4.3.1.1.2.3.1.5 0 .1 0 .3-.1.4-.1.1-.1.2-.3.3-.1.1-.2.1-.4.2-.1 0-.3.1-.4.1-.3 0-.5-.1-.7-.2-.2-.1-.4-.3-.6-.5l.5-.2zM286.5 3.9c-.1.1-.1.2-.2.3-.2.2-.4.3-.6.4-.2 0-.3.1-.5.1s-.4 0-.5-.1c-.2-.1-.3-.2-.5-.3-.1-.2-.3-.3-.3-.5-.1-.2-.1-.5-.1-.8 0-.2 0-.5.1-.7.1-.2.1-.4.3-.5.1-.1.3-.3.4-.3.2-.1.4-.1.5-.1.2 0 .3 0 .5.1s.3.1.4.3c.1.1.2.3.3.5.1.2.1.4.1.7v.3h-2.1c0 .2 0 .3.1.5 0 .1.1.3.2.4l.3.3c.1.1.2.1.4.1s.4 0 .5-.1c.2-.1.3-.2.4-.4l.3-.2zm-.5-1.2c0-.3-.1-.5-.2-.7-.1-.2-.4-.3-.6-.3-.2 0-.5.1-.6.3-.2.2-.2.5-.2.7h1.6zM287.5 1.3v-1h.5v1.1h.8v.4h-.8v2.3c0 .1 0 .1.1.2.1 0 .2.1.3.1h.4v.4h-.5c-.2 0-.4 0-.5-.1-.1-.1-.2-.3-.2-.4V1.7h-.5v-.4h.4zM292.4 4.6v-.4l-.4.4c-.2.1-.3.1-.5.1-.1 0-.2 0-.4-.1-.1 0-.2-.1-.3-.2-.1-.1-.2-.2-.2-.3-.1-.1-.1-.3-.1-.4V1.3h.5v2.4c0 .2 0 .3.1.5.1.1.2.1.4.1h.3c.1 0 .2-.1.3-.1.1 0 .2-.1.2-.2l.2-.2V1.3h.5v3.3h-.6zM294 3.8c.1.2.2.3.4.4.2.1.4.1.5.1.2 0 .4 0 .5-.2.1-.1.2-.2.2-.4 0-.1 0-.2-.1-.3-.1-.1-.2-.1-.4-.2-.1-.1-.3-.1-.5-.1s-.3-.1-.5-.2c-.1-.1-.3-.2-.4-.3-.1-.1-.1-.3-.1-.5 0-.3.1-.5.3-.7.2-.2.5-.2.8-.2h.3c.1 0 .2.1.3.1.1 0 .2.1.3.2.1.1.2.1.2.2l-.3.3c-.1-.1-.2-.3-.4-.3-.1-.1-.3-.1-.5-.1s-.3 0-.4.1c-.1.1-.2.2-.2.4 0 .1.1.2.1.3.1.1.2.1.4.2.1 0 .3.1.5.1s.3.1.5.2c.1.1.3.2.4.3.1.1.2.3.1.5 0 .1 0 .3-.1.4-.1.1-.1.2-.3.3-.1.1-.2.1-.4.2-.1 0-.3.1-.4.1-.3 0-.5-.1-.7-.2-.2-.1-.4-.3-.6-.5l.5-.2zM299.4 3.9c-.1.1-.1.2-.2.3-.2.2-.4.3-.6.4-.2 0-.3.1-.5.1s-.4 0-.5-.1c-.2-.1-.3-.2-.5-.3-.1-.2-.3-.3-.3-.5-.1-.2-.1-.5-.1-.8 0-.2 0-.5.1-.7.1-.2.1-.4.3-.5.1-.1.3-.3.4-.3.2-.1.4-.1.5-.1.2 0 .3 0 .5.1s.3.1.4.3c.1.1.2.3.3.5.1.2.1.4.1.7v.3h-2.1c0 .2 0 .3.1.5 0 .1.1.3.2.4l.3.3c.1.1.2.1.4.1s.4 0 .5-.1c.2-.1.3-.2.4-.4l.3-.2zm-.6-1.2c0-.3-.1-.5-.2-.7-.1-.2-.4-.3-.6-.3-.2 0-.5.1-.6.3-.2.2-.2.5-.2.7h1.6zM300.9 3.9v.7h-.6v-.7h.6zM303.3.1h1.7c.2 0 .4 0 .5.1.1.1.3.1.4.2.1.1.2.2.3.4.1.1.1.3.1.4 0 .2-.1.4-.2.6-.1.2-.4.3-.6.4.1 0 .2.1.3.2l.3.3c.1.1.1.2.2.3 0 .1.1.3.1.4 0 .2 0 .3-.1.5s-.2.3-.3.4c-.1.1-.3.2-.5.3-.3.1-.5.1-.8.1h-1.4V.1zm.5 1.9h.9c.2 0 .3 0 .5-.1.1 0 .2-.1.3-.2.1-.1.1-.2.2-.2 0-.1.1-.2.1-.3 0-.5-.3-.8-.9-.8h-1.1V2zm0 2.2h.9c.3 0 .6 0 .8-.2.2-.1.3-.4.3-.6 0-.3-.1-.5-.3-.7-.3-.2-.6-.3-.9-.2h-.9v1.7zM309.8 3.9c-.1.1-.1.2-.2.3-.2.2-.4.3-.6.4-.2 0-.3.1-.5.1s-.4 0-.5-.1c-.2-.1-.3-.2-.5-.3-.1-.2-.3-.3-.3-.5-.1-.2-.1-.5-.1-.8 0-.2 0-.5.1-.7.1-.2.1-.4.3-.5.1-.1.3-.3.4-.3.2-.1.4-.1.5-.1.2 0 .3 0 .5.1s.3.1.4.3c.1.1.2.3.3.5.1.2.1.4.1.7v.3h-2.1c0 .2 0 .3.1.5 0 .1.1.3.2.4l.3.3c.1.1.2.1.4.1s.4 0 .5-.1c.2-.1.3-.2.4-.4l.3-.2zm-.5-1.2c0-.3-.1-.5-.2-.7-.1-.2-.4-.3-.6-.3-.2 0-.5.1-.6.3-.2.2-.2.5-.2.7h1.6zM310.8 4.6V1.7h-.6v-.4h.6V1c0-.2 0-.3.1-.5 0-.1.1-.2.1-.3.1-.1.2-.1.2-.2h.8v.4h-.4c-.1 0-.2 0-.3.1-.1.1-.1.2-.1.4v.5h.7v.4h-.7v2.9l-.4-.1zM315.2 3c0 .2 0 .4-.1.7-.1.2-.1.4-.3.5-.1.2-.3.3-.4.4-.4.2-.8.2-1.2 0-.2-.1-.3-.2-.4-.4-.1-.2-.2-.3-.3-.5-.1-.4-.1-.9 0-1.3.1-.2.1-.4.3-.5.1-.2.3-.3.4-.4.4-.2.8-.2 1.2 0 .2.1.3.2.4.4.1.2.2.3.3.5 0 .1.1.4.1.6zm-.5 0c0-.3-.1-.7-.2-1-.3-.4-.7-.4-1.1-.2l-.2.2c-.3.6-.3 1.3 0 2 .3.4.7.4 1.1.2l.2-.2c.1-.3.2-.7.2-1zM316 1.3h.5V2c.1-.1.1-.2.2-.3.1-.1.1-.2.2-.2.1-.1.2-.1.3-.1h.4v.5c-.3 0-.5.1-.7.3-.2.2-.3.5-.4.8v1.8h-.5V1.3zM320.6 3.9c-.1.1-.1.2-.2.3-.2.2-.4.3-.6.4-.2 0-.3.1-.5.1s-.4 0-.5-.1c-.2-.1-.3-.2-.5-.3-.1-.2-.3-.3-.3-.5-.1-.2-.1-.5-.1-.8 0-.2 0-.5.1-.7.1-.2.1-.4.3-.5.1-.1.3-.3.4-.3.2-.1.4-.1.5-.1.2 0 .3 0 .5.1s.3.1.4.3c.1.1.2.3.3.5.1.2.1.4.1.7v.3h-2.1c0 .2 0 .3.1.5 0 .1.1.3.2.4l.3.3c.1.1.2.1.4.1s.4 0 .5-.1c.2-.1.3-.2.4-.4l.3-.2zm-.5-1.2c0-.3-.1-.5-.2-.7-.1-.2-.4-.3-.6-.3-.2 0-.5.1-.6.3-.2.2-.2.5-.2.7h1.6zM322.4 5.8V1.3h.5v.4c0-.1.1-.1.2-.2s.1-.1.2-.1.2-.1.2-.1h.2c.2 0 .3 0 .5.1s.3.2.4.3c.1.2.3.3.3.5.1.3.1.5.1.8 0 .3 0 .5-.1.8-.1.2-.2.4-.3.5-.1.1-.3.2-.4.3-.1.1-.3.1-.4.1-.2 0-.3 0-.5-.1-.1-.1-.3-.2-.4-.3v1.5h-.5zm.5-2c.1.1.3.2.4.3.1.1.3.1.4.1.1 0 .2 0 .4-.1.1 0 .2-.1.3-.2.1-.1.2-.3.2-.4.1-.2.1-.4.1-.6 0-.3-.1-.7-.2-1-.2-.2-.4-.3-.7-.3-.1 0-.3 0-.4.1-.2.1-.3.2-.4.3v1.8zM325.9 1.3h.5V2c.1-.1.1-.2.2-.3.1-.1.1-.2.2-.2.1-.1.2-.1.3-.1h.4v.5c-.3 0-.5.1-.7.3-.2.2-.3.5-.4.8v1.8h-.5V1.3zM330.6 3c0 .2 0 .4-.1.7-.1.2-.1.4-.3.5-.1.2-.3.3-.4.4-.4.2-.8.2-1.2 0-.2-.1-.3-.2-.4-.4-.1-.2-.2-.4-.2-.6-.1-.4-.1-.9 0-1.3.1-.2.1-.4.3-.5.1-.2.3-.3.4-.4.4-.2.8-.2 1.2 0 .2.1.3.2.4.4.1.2.2.3.3.5-.1.2 0 .5 0 .7zm-.5 0c0-.3-.1-.7-.2-1-.3-.4-.7-.4-1.1-.2l-.2.2c-.3.6-.3 1.3 0 2 .3.4.7.4 1.1.2l.2-.2c.1-.3.2-.7.2-1zM333.3 2.3c-.1-.2-.2-.3-.3-.5-.1-.1-.3-.2-.5-.2-.3 0-.5.1-.7.3-.3.6-.3 1.3 0 1.9.1.2.4.4.7.3h.3c.1 0 .2-.1.2-.1l.2-.2c.1-.1.1-.2.2-.3l.4.2c-.1.1-.2.2-.2.4l-.3.3c-.1.1-.2.1-.3.2-.1 0-.3.1-.4.1-.2 0-.4 0-.6-.1-.2-.1-.3-.2-.4-.3-.1-.2-.2-.3-.3-.5-.1-.5-.1-1 0-1.4.1-.2.1-.4.3-.5.1-.1.3-.3.4-.3.2-.1.4-.1.6-.1.1 0 .3 0 .4.1.1 0 .2.1.3.2.1.1.2.2.2.3.1.1.1.2.2.4l-.4-.2zM337.1 3.9c-.1.1-.1.2-.2.3-.2.2-.4.3-.6.4-.2 0-.3.1-.5.1s-.4 0-.5-.1c-.2-.1-.3-.2-.5-.3-.1-.2-.3-.3-.3-.5-.1-.2-.1-.5-.1-.8 0-.2 0-.5.1-.7.1-.2.1-.4.3-.5.1-.1.3-.3.4-.3.2-.1.4-.1.5-.1.2 0 .3 0 .5.1s.3.1.4.3c.1.1.2.3.3.5.1.2.1.4.1.7v.3h-2.1c0 .2 0 .3.1.5 0 .1.1.3.2.4l.3.3c.1.1.2.1.4.1s.4 0 .5-.1c.2-.1.3-.2.4-.4l.3-.2zm-.6-1.2c0-.3-.1-.5-.2-.7-.1-.2-.4-.3-.6-.3-.2 0-.5.1-.6.3-.2.2-.2.5-.2.7h1.6zM340.4 3.9c-.1.1-.1.2-.2.3-.2.2-.4.3-.6.4-.2 0-.3.1-.5.1s-.4 0-.5-.1c-.2-.1-.3-.2-.5-.3-.1-.2-.3-.3-.3-.5-.1-.2-.1-.5-.1-.8 0-.2 0-.5.1-.7.1-.2.1-.4.3-.5.1-.1.3-.3.4-.3.2-.1.4-.1.5-.1.2 0 .3 0 .5.1s.3.1.4.3c.1.1.2.3.3.5.1.2.1.4.1.7v.3h-2.1c0 .2 0 .3.1.5 0 .1.1.3.2.4l.3.3c.1.1.2.1.4.1s.4 0 .5-.1c.2-.1.3-.2.4-.4l.3-.2zm-.6-1.2c0-.3-.1-.5-.2-.7-.1-.2-.4-.3-.6-.3-.2 0-.5.1-.6.3-.2.2-.2.5-.2.7h1.6zM343.6.1V4.7h-.4l-.1-.3-.3.3c-.2.1-.3.1-.5.1s-.3 0-.5-.1-.3-.2-.4-.3c-.1-.2-.3-.3-.3-.5-.1-.4-.1-.6-.1-.9 0-.3 0-.5.1-.8.1-.2.2-.4.3-.5.1-.1.3-.2.4-.3.1-.1.3-.1.4-.1.2 0 .3 0 .5.1.1.1.3.2.4.3V.1h.5zm-.4 2c-.1-.1-.3-.2-.4-.3-.1-.1-.3-.1-.4-.1-.1 0-.3 0-.4.1-.1 0-.2.1-.3.2-.1.1-.2.3-.2.4-.1.2-.1.4-.1.6 0 .3.1.7.2 1 .2.2.4.3.7.3.1 0 .3 0 .4-.1.2-.1.3-.2.4-.3l.1-1.8zM345.2 0v.5h-.5V0h.5zm-.4 1.3h.5v3.3h-.5V1.3zM346.9 1.3v.4l.4-.4c.2-.1.3-.1.5-.1h.4c.1 0 .2.1.3.2.1.1.2.2.2.3.1.1.1.3.1.4v2.4h-.5V2.2c.1-.3-.1-.5-.4-.6h-.5c-.1 0-.2.1-.3.1-.1 0-.2.1-.2.2l-.2.2v2.5h-.5V1.3h.7zM352.4 1.7h-.3c-.1 0-.2 0-.2.1.1.1.1.2.1.3.1.1.1.3.1.4 0 .2 0 .3-.1.5-.1.3-.4.5-.6.6-.1.1-.3.1-.5.1h-.3c-.1 0-.2 0-.3-.1-.1 0-.3.2-.3.3 0 .1 0 .1.1.2.1 0 .1.1.2.1.3 0 .7 0 1 .1.2 0 .4.1.6.2.1.1.3.2.3.3.1.1.1.3.1.4 0 .1 0 .2-.1.3l-.3.3c-.1.1-.3.2-.5.2s-.4.1-.7.1c-.4 0-.7 0-1.1-.2-.2-.1-.4-.3-.4-.6 0-.1 0-.3.1-.4.1-.1.3-.2.4-.3-.1 0-.2-.1-.3-.2-.1-.1-.1-.2-.1-.3 0-.1 0-.2.1-.3.1-.1.2-.2.3-.2-.1-.1-.3-.2-.3-.4-.1-.2-.1-.3-.1-.5s0-.3.1-.5c.1-.1.1-.3.3-.4.1-.1.2-.2.4-.2.2-.1.3-.1.5-.1s.3 0 .5.1c.1 0 .2.1.4.2.1-.1.2-.1.3-.2.1-.1.2-.1.4-.1l.2.2zM352 5c0-.2-.1-.3-.3-.4-.3-.1-.6-.1-.9-.1-.1 0-.3 0-.4.1-.1 0-.2.1-.3.1-.1 0-.1.1-.1.2v.4c0 .1.1.1.2.1s.2.1.3.1h.9c.1 0 .2 0 .3-.1.1 0 .2-.1.2-.1.1-.2.1-.3.1-.3zm-.3-2.6c0-.2-.1-.4-.2-.6-.2-.2-.4-.2-.6-.2-.2 0-.4.1-.6.2-.1.1-.2.3-.2.5s.1.4.2.5c.2.1.4.2.6.2.1 0 .2 0 .3-.1.1 0 .2-.1.2-.2.1-.1.1-.1.1-.2.2.1.2 0 .2-.1zM353.7 1.3h.5l.7 2.5.6-2.5h.5l.7 2.5.6-2.5h.5l-.9 3.3h-.5l-.7-2.5-.7 2.5h-.5l-.8-3.3zM358.9 0v.5h-.5V0h.5zm-.4 1.3h.5v3.3h-.5V1.3zM360.3 1.3v-1h.5v1.1h.8v.4h-.8v2.3c0 .1 0 .1.1.2.1 0 .2.1.3.1h.4v.4h-.5c-.2 0-.4 0-.5-.1-.1-.1-.2-.3-.2-.4V1.7h-.5v-.4h.4zM362.7.1v1.7l.4-.4c.2-.1.3-.1.5-.1h.4c.1 0 .2.1.3.2.1.1.2.2.2.3.1.1.1.3.1.4v2.4h-.5V2.2c.1-.3-.1-.5-.4-.6h-.5c-.1 0-.2.1-.3.1-.1 0-.2.1-.2.2l-.2.2v2.5h-.5V.1h.7zM6.2 8.9L5 12.5c0 .2-.1.3-.2.5l-.3.3c-.1.1-.2.1-.3.1h-.5-.1V13h.5c.1 0 .2-.1.2-.1.1-.1.2-.1.2-.2.1-.1.1-.3.2-.4L3.6 8.9h.5l.9 2.5.8-2.5h.4zM9.3 10.6c0 .2 0 .4-.1.7-.1.2-.1.4-.3.5-.1.2-.3.3-.4.4-.4.2-.8.2-1.2 0-.2-.1-.3-.2-.4-.4-.1-.2-.2-.3-.3-.5-.1-.4-.1-.9 0-1.3.1-.2.1-.4.3-.5.2-.3.3-.4.5-.5.4-.2.8-.2 1.2 0 .1.1.2.2.4.3.1.2.2.3.3.5v.8zm-.5 0c0-.3-.1-.7-.2-1-.3-.4-.7-.5-1.1-.2-.1 0-.1.1-.2.2-.3.6-.3 1.3 0 2 .3.3.7.4 1.1.1l.2-.2c.2-.3.3-.6.2-.9zM12.1 12.2v-.4l-.4.4c-.2.1-.3.1-.5.1-.1 0-.2 0-.4-.1-.1 0-.2-.1-.3-.2-.1-.1-.2-.2-.2-.3-.1-.1-.1-.3-.1-.4V8.9h.5v2.4c0 .2 0 .3.1.5.1.1.2.1.4.1h.3c.1 0 .2-.1.3-.1.1 0 .2-.1.2-.2l.2-.2V8.9h.5v3.3h-.6zM13.6 8.9h.4v.7c.1-.1.1-.2.2-.3.1-.1.1-.2.2-.2.1-.1.2-.1.3-.1h.4v.5c-.3 0-.5.1-.7.3-.2.2-.3.5-.4.8v1.8h-.5l.1-3.5zM16.7 13.4V8.9h.5v.4c0-.1.1-.1.2-.2 0 0 .1-.1.2-.1s.2-.1.2-.1h.2c.2 0 .3 0 .5.1s.3.2.4.3c.1.2.3.3.3.5.1.3.1.5.1.8 0 .3 0 .5-.1.8-.1.2-.2.4-.3.5-.1.1-.3.2-.4.3-.1.1-.3.1-.4.1-.2 0-.3 0-.5-.1-.1-.1-.3-.2-.4-.3v1.5h-.5zm.5-2c.1.1.3.2.4.3.1.1.3.1.4.1.1 0 .2 0 .4-.1.1 0 .2-.1.3-.2.1-.1.2-.3.2-.4.1-.2.1-.4.1-.6 0-.3-.1-.7-.2-1-.2-.2-.4-.3-.7-.3-.1 0-.3 0-.4.1-.2.1-.3.2-.4.3l-.1 1.8zM22.2 12.2v-.4l-.4.4c-.2.1-.3.1-.5.1-.1 0-.2 0-.4-.1-.1 0-.2-.1-.3-.2-.1-.1-.2-.2-.2-.3-.1-.1-.1-.3-.1-.4V8.9h.5v2.4c0 .2 0 .3.1.5.1.1.2.1.4.1h.3c.1 0 .2-.1.3-.1.1 0 .2-.1.2-.2l.2-.2V8.9h.5v3.3h-.6zM23.7 8.9h.5v.7c.1-.1.1-.2.2-.3.1-.1.1-.2.2-.2.1-.1.2-.1.3-.1h.4v.5c-.3 0-.5.1-.7.3-.2.2-.3.5-.4.8v1.8h-.5V8.9zM27.8 9.9c-.1-.2-.2-.3-.3-.5-.1-.1-.3-.2-.5-.2-.3 0-.5.1-.7.3-.3.6-.3 1.3 0 1.9.1.2.4.4.7.3h.3c.1 0 .2-.1.2-.1l.2-.2c.1-.1.1-.2.2-.3l.4.2c-.1.1-.2.2-.2.4l-.3.3c-.1.1-.2.1-.3.2-.1 0-.3.1-.4.1-.2 0-.4 0-.6-.1-.2-.1-.3-.2-.4-.3-.1-.2-.2-.3-.3-.5-.1-.5-.1-1 0-1.4.1-.2.1-.4.3-.5 0-.3.2-.5.3-.5.2-.1.4-.1.6-.1.1 0 .3 0 .4.1.1 0 .2.1.3.2.2 0 .3.1.3.2.1.1.1.2.2.4l-.4.1zM29.6 7.6v1.7c.1-.1.2-.2.4-.3.2-.1.3-.1.5-.1h.4c.1 0 .2.1.3.2.1.1.2.2.2.3.1.1.1.3.1.4v2.4H31V9.8c.1-.3-.1-.5-.4-.6h-.5c-.1 0-.2.1-.3.1-.1 0-.2.1-.2.2l-.2.2v2.5h-.5V7.6h.7zM32.4 9.5c.1-.2.3-.4.5-.5.2-.1.5-.2.8-.2.1 0 .3 0 .4.1.1 0 .3.1.4.2l.3.3c.1.1.1.3.1.5V12c0 .1 0 .2.1.3h-.5l-.1-.5-.4.4c-.2.1-.4.2-.6.2-.1 0-.2 0-.4-.1-.1 0-.2-.1-.3-.2-.1-.1-.2-.2-.2-.3-.1-.1-.1-.3-.1-.4 0-.3.2-.7.5-.8l.6-.3c.3-.1.6-.2.9-.2v-.3c0-.2-.1-.4-.2-.5-.1-.1-.3-.1-.5-.1h-.3c-.1 0-.2.1-.2.1-.1 0-.1.1-.2.2 0 .1-.1.1-.1.2l-.5-.2zm1.9.9c-1 .2-1.6.5-1.6.9 0 .1 0 .1.1.2 0 .1.1.1.1.2.1 0 .1.1.2.1h.5c.1 0 .2-.1.3-.1.1-.1.2-.1.3-.2.1-.1.2-.1.2-.2l-.1-.9zM35.8 11.4c.1.2.2.3.4.4.2.1.4.1.5.1.2 0 .4 0 .5-.2.1-.1.2-.2.2-.4 0-.1 0-.2-.1-.3-.1-.1-.2-.1-.4-.2-.1-.1-.3-.1-.5-.1s-.3-.1-.5-.2c-.1-.1-.3-.2-.4-.3-.1-.1-.1-.3-.1-.5 0-.3.1-.5.3-.7.2-.2.5-.2.8-.2h.3c.1 0 .2.1.3.1.1 0 .2.1.3.2.1.1.2.1.2.2l-.3.3c-.1-.1-.2-.3-.4-.3-.1-.1-.3-.1-.5-.1s-.3 0-.4.1c.1.2 0 .3 0 .4 0 .1.1.2.1.3.1.1.2.1.4.2.1 0 .3.1.5.1s.3.1.5.2c.1.1.3.2.4.3.1.1.2.3.1.5 0 .1 0 .3-.1.4-.1.1-.1.2-.3.3-.1.1-.2.1-.4.2-.1 0-.3.1-.4.1-.3 0-.5-.1-.7-.2-.2-.1-.4-.3-.6-.5l.3-.2zM41.2 11.5c-.1.1-.1.2-.2.3-.2.2-.4.3-.6.4-.2 0-.3.1-.5.1s-.4 0-.5-.1c-.2-.1-.3-.2-.5-.3-.1-.2-.3-.3-.3-.5-.1-.2-.1-.5-.1-.8 0-.2 0-.5.1-.7.1-.2.1-.4.3-.5.1-.2.2-.4.4-.4.2-.1.4-.1.5-.1.2 0 .3 0 .5.1s.3.1.4.3c.2 0 .3.2.3.4.1.2.1.4.1.7v.3H39c0 .2 0 .3.1.5 0 .1.1.3.2.4l.3.3c.1.1.2.1.4.1s.4 0 .5-.1c.2-.1.3-.2.4-.4h.3zm-.5-1.2c0-.3-.1-.5-.2-.7-.1-.2-.4-.3-.6-.3-.2 0-.5.1-.6.3-.2.1-.3.4-.3.7h1.7zM42.8 12.2l-.4.9h-.3l.3-.9h-.3v-.7h.6v.7zM47 8.9l-1.2 3.6c0 .2-.1.3-.2.5l-.3.3c-.1.1-.2.1-.3.1h-.5-.1V13h.4c.1 0 .2-.1.2-.1.1-.1.2-.1.2-.2.1-.1.1-.3.2-.4L44.3 9h.5l.9 2.5.8-2.5.5-.1zM50.1 10.6c0 .2 0 .4-.1.7-.1.2-.1.4-.3.5-.1.2-.3.3-.4.4-.4.2-.8.2-1.2 0-.2-.1-.3-.2-.4-.4-.1-.2-.2-.3-.3-.5-.1-.4-.1-.9 0-1.3.1-.2.1-.4.3-.5.2-.3.3-.4.5-.5.4-.2.8-.2 1.2 0 .2.1.3.2.4.4.1.1.2.3.2.5.1.2.1.4.1.7zm-.4 0c0-.3-.1-.7-.2-1-.3-.4-.7-.4-1.1-.2l-.2.2c-.3.6-.3 1.3 0 2 .3.4.7.4 1.1.2l.2-.2c.1-.4.2-.7.2-1zM52.9 12.2v-.4l-.4.4c-.2.1-.3.1-.5.1-.1 0-.2 0-.4-.1-.1 0-.2-.1-.3-.2-.1-.1-.2-.2-.2-.3-.1-.1-.1-.2-.1-.4V8.9h.5v2.4c0 .2 0 .3.1.5.1.1.2.1.4.1h.3c.1 0 .2-.1.3-.1.1 0 .2-.1.2-.2l.2-.2V8.9h.5v3.3h-.6zM55.4 11.4c.1.2.2.3.4.4.2.1.4.1.5.1.2 0 .4 0 .5-.2.1-.1.2-.2.2-.4 0-.1 0-.2-.1-.3-.1-.1-.2-.1-.4-.2-.1-.1-.3-.1-.5-.1s-.3-.1-.5-.2c-.1-.1-.3-.2-.4-.3-.1-.1-.1-.3-.1-.5 0-.3.1-.5.3-.7.2-.2.5-.2.8-.2h.3c.1 0 .2.1.3.1.1 0 .2.1.3.2.1.1.2.1.2.2l-.2.4c-.1-.1-.2-.3-.4-.3-.1-.1-.3-.1-.5-.1s-.3 0-.4.1c-.1.1-.2.2-.2.4 0 .1.1.2.1.3.1.1.2.1.4.2.1 0 .3.1.5.1s.3.1.5.2c.1.1.3.2.4.3.1.1.2.3.1.5 0 .1 0 .3-.1.4-.1.1-.1.2-.3.3-.1.1-.2.1-.4.2-.1 0-.3.1-.4.1-.3 0-.5-.1-.7-.2-.2-.1-.4-.3-.6-.5l.4-.3zM58.7 7.6v1.7c.1-.1.3-.2.5-.3.2-.1.3-.1.5-.1h.4c.1 0 .2.1.3.2.1.1.2.2.2.3.1.1.1.3.1.4v2.4h-.5V9.8c.1-.3-.1-.5-.4-.6h-.5c-.1 0-.2.1-.3.1-.1 0-.2.1-.2.2l-.2.2v2.5h-.5V7.6h.6zM64.2 10.6c0 .2 0 .4-.1.7-.1.2-.1.4-.3.5-.1.2-.3.3-.4.4-.4.2-.8.2-1.2 0-.2-.1-.3-.2-.4-.4-.1-.2-.2-.3-.3-.5-.1-.4-.1-.9 0-1.3.1-.2.1-.4.3-.5.1-.2.3-.3.4-.4.4-.2.8-.2 1.2 0 .2.1.3.2.4.4.2 0 .2.2.3.4.1.2.1.4.1.7zm-.5 0c0-.3-.1-.7-.2-1-.3-.4-.7-.4-1.1-.2l-.2.2c-.3.6-.3 1.3 0 2 .3.4.7.4 1.1.2l.2-.2c.2-.4.2-.7.2-1zM67 12.2v-.4l-.4.4c-.2.1-.3.1-.5.1-.1 0-.2 0-.4-.1-.1 0-.2-.1-.3-.2-.1-.1-.2-.2-.2-.3-.1-.1-.1-.3-.1-.4V8.9h.5v2.4c0 .2 0 .3.1.5.1.1.2.1.4.1h.3c.1 0 .2-.1.3-.1.1 0 .2-.1.2-.2l.2-.2V8.9h.5v3.3H67zM69 7.6v4.6h-.5V7.6h.5zM72.6 7.6V12.2h-.4l-.1-.3-.3.3c-.2.1-.3.1-.5.1s-.3 0-.5-.1-.3-.2-.4-.3c-.1-.2-.3-.3-.3-.5-.1-.3-.1-.6-.1-.8 0-.3 0-.5.1-.8.1-.2.2-.4.3-.5.1-.1.3-.2.4-.3.1-.1.3-.1.4-.1.2 0 .3 0 .5.1.2 0 .3.1.5.2V7.6h.4zm-.4 2.1c-.1-.1-.3-.2-.4-.3-.1-.1-.3-.1-.4-.1-.1 0-.3 0-.4.1-.1 0-.2.1-.3.2-.1.1-.2.3-.2.4-.1.2-.1.4-.1.6 0 .3.1.7.2 1 .2.2.4.3.7.3.1 0 .3 0 .4-.1.2-.1.3-.2.4-.3l.1-1.8zM74.6 11.4c.1.2.2.3.4.4.2.1.4.1.5.1.2 0 .4 0 .5-.2.1-.1.2-.2.2-.4 0-.1 0-.2-.1-.3-.1-.1-.2-.1-.4-.2-.1-.1-.3-.1-.5-.1s-.3-.1-.5-.2c-.1-.1-.3-.2-.4-.3-.1-.1-.1-.3-.1-.5 0-.3.1-.5.3-.7.2-.2.5-.2.8-.2h.3c.3.1.4.2.5.2.1 0 .2.1.3.2.1.1.2.1.2.2l-.3.3c-.1-.1-.2-.3-.4-.3-.1-.1-.3-.1-.5-.1s-.3 0-.4.1c-.1.1-.2.2-.2.4 0 .1.1.2.1.3.1.1.2.1.4.2.1 0 .3.1.5.1s.3.1.5.2c.1.1.3.2.4.3.1.1.2.3.1.5 0 .1 0 .3-.1.4-.1.1-.1.2-.3.3-.1.1-.2.1-.4.2-.1 0-.3.1-.4.1-.3 0-.5-.1-.7-.2-.2-.1-.4-.3-.6-.5l.3-.3zM80 11.5c-.1.1-.1.2-.2.3-.2.2-.4.3-.6.4-.2 0-.3.1-.5.1s-.4 0-.5-.1c-.2-.1-.3-.2-.5-.3-.1-.2-.3-.3-.3-.5-.1-.2-.1-.5-.1-.8 0-.2 0-.5.1-.7.1-.2.1-.4.3-.5.1-.2.2-.4.4-.4.2-.1.4-.1.5-.1.2 0 .3 0 .5.1s.3.1.4.3c.1.1.2.3.3.5.1.2.1.4.1.7v.3h-2.1c0 .2 0 .3.1.5 0 .1.1.3.2.4l.3.3c.1.1.2.1.4.1s.4 0 .5-.1c.2-.1.3-.2.4-.4l.3-.1zm-.5-1.2c0-.3-.1-.5-.2-.7-.1-.2-.4-.3-.6-.3-.2 0-.5.1-.6.3-.2.2-.2.5-.2.7h1.6zM83.3 11.5c-.1.1-.1.2-.2.3-.2.2-.4.3-.6.4-.2 0-.3.1-.5.1s-.4 0-.5-.1c-.2-.1-.3-.2-.5-.3-.1-.2-.3-.3-.3-.5-.1-.2-.1-.5-.1-.8 0-.2 0-.5.1-.7.1-.2.1-.4.3-.5.1-.2.2-.4.4-.4.2-.1.4-.1.5-.1.2 0 .3 0 .5.1s.3.1.4.3c.1.1.2.3.3.5.1.2.1.4.1.7v.3H81c0 .2 0 .3.1.5 0 .1.1.3.2.4l.3.3c.1.1.2.1.4.1s.4 0 .5-.1c.2-.1.3-.2.4-.4l.4-.1zm-.6-1.2c0-.3-.1-.5-.2-.7-.1-.2-.4-.3-.6-.3-.2 0-.5.1-.6.3-.2.2-.2.5-.2.7h1.6zM84.1 7.6h.5v2.9l1.3-1.7h.5l-1 1.2 1.1 2.1H86l-.9-1.7-.6.7v1H84V7.6zM88.1 11.4c.1.2.2.3.4.4.2.1.4.1.5.1.2 0 .4 0 .5-.2.1-.1.2-.2.2-.4 0-.1 0-.2-.1-.3-.1-.1-.2-.1-.4-.2-.1-.1-.3-.1-.5-.1s-.3-.1-.5-.2c-.1-.1-.3-.2-.4-.3-.1-.1-.1-.3-.1-.5 0-.3.1-.5.3-.7.2-.2.5-.2.8-.2h.3c.1 0 .2.1.3.1.1 0 .2.1.3.2.3.2.3.2.4.3l-.3.3c-.1-.1-.2-.3-.4-.3-.1-.1-.3-.1-.5-.1s-.3 0-.4.1c-.1.1-.2.2-.2.4 0 .1.1.2.1.3.1.1.2.1.4.2.1 0 .3.1.5.1s.3.1.5.2c.1.1.3.2.4.3.1.1.2.3.1.5 0 .1 0 .3-.1.4-.1.1-.1.2-.3.3-.1.1-.2.1-.4.2-.1 0-.3.1-.4.1-.3 0-.5-.1-.7-.2-.2-.1-.4-.3-.6-.5l.3-.3zM91 13.4V8.9h.5v.4c0-.1.1-.1.2-.2 0 0 .1-.1.2-.1s.2-.1.2-.1h.2c.2 0 .3 0 .5.1.2 0 .3.1.4.2.1.2.3.3.3.5.1.3.1.5.1.8 0 .3 0 .5-.1.8-.1.2-.2.4-.3.5-.1.1-.3.2-.4.3-.1.1-.3.1-.4.1-.2 0-.3 0-.5-.1-.1-.1-.3-.2-.4-.3v1.5l-.5.1zm.5-2c.1.1.3.2.4.3.1.1.3.1.4.1.1 0 .2 0 .4-.1.1 0 .2-.1.3-.2.1-.1.2-.3.2-.4.1-.2.1-.4.1-.6 0-.3-.1-.7-.2-1-.2-.2-.4-.3-.7-.3-.1 0-.3 0-.4.1-.2.1-.3.2-.4.3v1.8zM97 11.5c-.1.1-.1.2-.2.3-.2.2-.4.3-.6.4-.2 0-.3.1-.5.1s-.4 0-.5-.1c-.2-.1-.3-.2-.5-.3-.1-.2-.3-.3-.3-.5-.1-.2-.1-.5-.1-.8 0-.2 0-.5.1-.7.1-.2.1-.4.3-.5.1-.2.3-.4.4-.4.2-.1.4-.1.5-.1.2 0 .3 0 .5.1s.3.1.4.3c.1.1.2.3.3.5.1.2.1.4.1.7v.3h-2.1c0 .2 0 .3.1.5 0 .1.1.3.2.4l.3.3c.1.1.2.1.4.1s.4 0 .5-.1c.2-.1.3-.2.4-.4l.3-.1zm-.5-1.2c0-.3-.1-.5-.2-.7-.1-.2-.4-.3-.6-.3-.2 0-.5.1-.6.3-.2.2-.2.5-.2.7h1.6zM99.8 9.9c-.1-.2-.2-.3-.3-.5-.1-.1-.3-.2-.5-.2-.3 0-.5.1-.7.3-.3.6-.3 1.3 0 1.9.1.2.4.4.7.3h.3c.1 0 .2-.1.2-.1l.2-.2c.1-.1.1-.2.2-.3l.4.2c-.1.1-.2.2-.2.4l-.3.3c-.1.1-.2.1-.3.2-.1 0-.3.1-.4.1-.2 0-.4 0-.6-.1-.2-.1-.3-.2-.4-.3-.1-.2-.2-.3-.3-.5-.1-.5-.1-1 0-1.4.1-.2.1-.4.3-.5 0-.3.2-.5.3-.5.2-.1.4-.1.6-.1.1 0 .3 0 .4.1.1 0 .2.1.3.2.1.1.2.2.2.3.1.1.1.2.2.4h-.3zM101.6 7.6v.5h-.5v-.5h.5zm-.5 1.3h.5v3.3h-.5V8.9zM102.6 9.5c.1-.2.3-.4.5-.5.2-.1.5-.2.8-.2.1 0 .3 0 .4.1.1 0 .3.1.4.2l.3.3c.1.1.1.3.1.5V12c0 .1 0 .2.1.3h-.5l-.1-.5-.4.4c-.2.1-.4.2-.6.2-.1 0-.2 0-.4-.1-.1 0-.2-.1-.3-.2-.1-.1-.2-.2-.2-.3-.1-.1-.1-.3-.1-.4 0-.3.2-.7.5-.8l.6-.3c.3-.1.6-.2.9-.2v-.3c0-.2-.1-.4-.2-.5-.1-.1-.3-.1-.5-.1h-.3c-.1 0-.2.1-.2.1-.1 0-.1.1-.2.2 0 .1-.1.1-.1.2l-.5-.2zm1.9.9c-1 .2-1.6.5-1.6.9 0 .1 0 .1.1.2 0 .1.1.1.1.2.1 0 .1.1.2.1h.5c.1 0 .2-.1.3-.1.1-.1.2-.1.3-.2.1-.1.2-.1.2-.2l-.1-.9zM106.5 7.6v4.6h-.5V7.6h.5zM108.1 7.6v.5h-.5v-.5h.5zm-.4 1.3h.5v3.3h-.5V8.9zM109.3 11.4c.1.2.2.3.4.4.2.1.4.1.5.1.2 0 .4 0 .5-.2.1-.1.2-.2.2-.4 0-.1 0-.2-.1-.3-.1-.1-.2-.1-.4-.2-.1-.1-.3-.1-.5-.1s-.3-.1-.5-.2c-.1-.1-.3-.2-.4-.3-.1-.1-.1-.3-.1-.5 0-.3.1-.5.3-.7.2-.2.5-.2.8-.2h.3c.1 0 .2.1.3.1.1 0 .2.1.3.2.1.1.2.1.2.2l-.1.4c-.1-.1-.2-.3-.4-.3-.1-.1-.3-.1-.5-.1s-.3 0-.4.1c-.1.1-.2.2-.2.4 0 .1.1.2.1.3.1.1.2.1.4.2.1 0 .3.1.5.1s.3.1.5.2c.1.1.3.2.4.3.1.1.2.3.1.5 0 .1 0 .3-.1.4-.1.1-.1.2-.3.3-.1.1-.2.1-.4.2-.1 0-.3.1-.4.1-.3 0-.5-.1-.7-.2-.2-.1-.4-.3-.6-.5l.3-.3zM112.4 8.9V7.8h.5v1.1h.8v.4h-.8v2.3c0 .1 0 .1.1.2.1 0 .2.1.3.1h.4v.4h-.5c-.2 0-.4 0-.5-.1-.1-.1-.2-.3-.2-.4V9.3h-.5v-.4h.4zM115.4 8.9V7.8h.5v1.1h.8v.4h-.8v2.3c0 .1 0 .1.1.2.1 0 .2.1.3.1h.4v.4h-.5c-.2 0-.4 0-.5-.1-.1-.1-.2-.3-.2-.4V9.3h-.5v-.4h.4zM117.4 9.5c.1-.2.3-.4.5-.5.2-.1.5-.2.8-.2.1 0 .3 0 .4.1.1 0 .3.1.4.2l.3.3c.1.1.1.3.1.5V12c0 .1 0 .2.1.3h-.5l-.1-.5-.4.4c-.2.1-.4.2-.6.2-.1 0-.2 0-.4-.1-.1 0-.2-.1-.3-.2-.1-.1-.2-.2-.2-.3-.1-.1-.1-.3-.1-.4 0-.3.2-.7.5-.8l.6-.3c.3-.1.6-.2.9-.2v-.3c0-.2-.1-.4-.2-.5-.1-.1-.3-.1-.5-.1h-.3c-.1 0-.2.1-.2.1-.1 0-.1.1-.2.2 0 .1-.1.1-.1.2l-.5-.2zm1.9.9c-1 .2-1.6.5-1.6.9 0 .1 0 .1.1.2 0 .1.1.1.1.2.1 0 .1.1.2.1h.5c.1 0 .2-.1.3-.1.1-.1.2-.1.3-.2.1-.1.2-.1.2-.2l-.1-.9zM121.7 10.1l.7-1.2h.5l-.9 1.6 1.1 1.7h-.5l-.8-1.3-.8 1.3h-.5l1-1.7-1-1.6h.5l.7 1.2zM124.4 9.5c.1-.2.3-.4.5-.5.2-.1.5-.2.8-.2.1 0 .3 0 .4.1.1 0 .3.1.4.2l.3.3c.1.1.1.3.1.5V12c0 .1 0 .2.1.3h-.5l-.1-.5-.4.4c-.2.1-.4.2-.6.2-.1 0-.2 0-.4-.1-.1 0-.2-.1-.3-.2-.1-.1-.2-.2-.2-.3-.1-.1-.1-.3-.1-.4 0-.3.2-.7.5-.8l.6-.3c.3-.1.6-.2.9-.2v-.3c0-.2-.1-.4-.2-.5-.1-.1-.3-.1-.5-.1h-.3c-.1 0-.2.1-.2.1-.1 0-.1.1-.2.2 0 .1-.1.1-.1.2l-.5-.2zm1.9.9c-1 .2-1.6.5-1.6.9 0 .1 0 .1.1.2 0 .1.1.1.1.2.1 0 .1.1.2.1h.5c.1 0 .2-.1.3-.1.1-.1.2-.1.3-.2.1-.1.2-.1.2-.2l-.1-.9zM128.3 8.9v.4l.4-.4c.2-.1.3-.1.5-.1h.4c.1 0 .2.1.3.2.1.1.2.2.2.3.1.1.1.3.1.4v2.4h-.5V9.8c.1-.3-.1-.5-.4-.6h-.5c-.1 0-.2.1-.3.1-.1 0-.2.1-.2.2l-.2.2v2.5h-.5V8.9h.7zM133.7 7.6V12.2h-.4l-.1-.3-.3.3c-.2.1-.3.1-.5.1s-.3 0-.5-.1-.3-.2-.4-.3c-.1-.2-.3-.3-.3-.5-.1-.3-.1-.5-.1-.8 0-.3 0-.5.1-.8.1-.2.2-.4.3-.5.1-.1.3-.2.4-.3.1-.1.3-.1.4-.1.2 0 .3 0 .5.1.1.1.3.2.4.3V7.6h.5zm-.4 2.1c-.1-.1-.3-.2-.4-.3-.1-.1-.3-.1-.4-.1-.1 0-.3 0-.4.1-.1 0-.2.1-.3.2-.1.1-.2.3-.2.4-.1.2-.1.4-.1.6 0 .3.1.7.2 1 .2.2.4.3.7.3.1 0 .3 0 .4-.1.2-.1.3-.2.4-.3l.1-1.8zM135.6 9.5c.1-.2.3-.4.5-.5.2-.1.5-.2.8-.2.1 0 .3 0 .4.1.1 0 .3.1.4.2l.3.3c.1.1.1.3.1.5V12c0 .1 0 .2.1.3h-.5l-.1-.5-.4.4c-.2.1-.4.2-.6.2-.1 0-.2 0-.4-.1-.1 0-.2-.1-.3-.2-.1-.1-.2-.2-.2-.3-.1-.1-.1-.3-.1-.4 0-.3.2-.7.5-.8l.6-.3c.3-.1.6-.2.9-.2v-.3c0-.2-.1-.4-.2-.5-.1-.1-.3-.1-.5-.1h-.3c-.1 0-.2.1-.2.1-.1 0-.1.1-.2.2 0 .1-.1.1-.1.2l-.5-.2zm1.9.9c-1 .2-1.6.5-1.6.9 0 .1 0 .1.1.2 0 .1.1.1.1.2.1 0 .1.1.2.1h.5c.1 0 .2-.1.3-.1.1-.1.2-.1.3-.2.1-.1.2-.1.2-.2l-.1-.9zM140.9 9.9c-.1-.2-.2-.3-.3-.5-.1-.1-.3-.2-.5-.2-.3 0-.5.1-.7.3-.3.6-.3 1.3 0 1.9.1.2.4.4.7.3h.3c.1 0 .2-.1.2-.1l.2-.2c.1-.1.1-.2.2-.3l.4.2c-.1.1-.2.2-.2.4l-.3.3c-.1.1-.2.1-.3.2-.1 0-.3.1-.4.1-.2 0-.4 0-.6-.1-.2-.1-.3-.2-.4-.3-.1-.2-.2-.3-.3-.5-.1-.5-.1-1 0-1.4.1-.2.1-.4.3-.5.1-.1.3-.3.4-.3.2-.1.4-.1.6-.1.1 0 .3 0 .4.1.1 0 .2.1.3.2.1.1.2.2.2.3.1.1.1.2.2.4l-.4-.2zM144.1 9.9c-.1-.2-.2-.3-.3-.5-.1-.1-.3-.2-.5-.2-.3 0-.5.1-.7.3-.3.6-.3 1.3 0 1.9.1.2.4.4.7.3h.3c.1 0 .2-.1.2-.1l.2-.2c.1-.1.1-.2.2-.3l.4.2c-.1.1-.2.2-.2.4l-.3.3c-.1.1-.2.1-.3.2-.1 0-.3.1-.4.1-.2 0-.4 0-.6-.1-.2-.1-.3-.2-.4-.3-.1-.2-.2-.3-.3-.5-.1-.5-.1-1 0-1.4.1-.2.1-.4.3-.5.1-.1.3-.3.4-.3.2-.1.4-.1.6-.1.1 0 .3 0 .4.1.1 0 .2.1.3.2.1.1.2.2.2.3.1.1.1.2.2.4l-.4-.2zM147.9 10.6c0 .2 0 .4-.1.7-.1.2-.1.4-.3.5-.1.2-.3.3-.4.4-.4.2-.8.2-1.2 0-.2-.1-.3-.2-.4-.4-.1-.2-.2-.3-.3-.5-.1-.4-.1-.9 0-1.3.1-.2.1-.4.3-.5.1-.2.3-.3.4-.4.4-.2.8-.2 1.2 0 .2.1.3.2.4.4.1.2.2.3.3.5 0 .1.1.3.1.6zm-.5 0c0-.3-.1-.7-.2-1-.3-.4-.7-.4-1.1-.2l-.2.2c-.3.6-.3 1.3 0 2 .3.4.7.4 1.1.2l.2-.2c.1-.4.2-.7.2-1zM150.6 12.2v-.4l-.4.4c-.2.1-.3.1-.5.1-.1 0-.2 0-.4-.1-.1 0-.2-.1-.3-.2-.1-.1-.2-.2-.2-.3-.1-.1-.1-.3-.1-.4V8.9h.5v2.4c0 .2 0 .3.1.5.1.1.2.1.4.1h.3c.1 0 .2-.1.3-.1.1 0 .2-.1.2-.2l.2-.2V8.9h.5v3.3h-.6zM152.7 8.9v.4l.4-.4c.2-.1.3-.1.5-.1h.4c.1 0 .2.1.3.2.1.1.2.2.2.3.1.1.1.3.1.4v2.4h-.5V9.8c.1-.3-.1-.5-.4-.6h-.5c-.1 0-.2.1-.3.1-.1 0-.2.1-.2.2l-.2.2v2.5h-.5V8.9h.7zM155.8 8.9V7.8h.5v1.1h.8v.4h-.8v2.3c0 .1 0 .1.1.2.1 0 .2.1.3.1h.4v.4h-.5c-.2 0-.4 0-.5-.1-.1-.1-.2-.3-.2-.4V9.3h-.5v-.4h.4zM158.4 7.6v.5h-.5v-.5h.5zm-.5 1.3h.5v3.3h-.5V8.9zM160 8.9v.4l.4-.4c.2-.1.3-.1.5-.1h.4c.1 0 .2.1.3.2.1.1.2.2.2.3.1.1.1.3.1.4v2.4h-.5V9.8c.1-.3-.1-.5-.4-.6h-.5c-.1 0-.2.1-.3.1-.1 0-.2.1-.2.2l-.2.2v2.5h-.5V8.9h.7zM165.6 9.2h-.3c-.1 0-.2 0-.2.1.1.1.1.2.1.3.1.1.1.3.1.4 0 .2 0 .3-.1.5-.1.3-.4.5-.6.6-.1.1-.3.1-.5.1h-.3c-.1 0-.2 0-.3-.1-.1 0-.3.2-.3.3 0 .1 0 .1.1.2.1 0 .1.1.2.1.3 0 .7 0 1 .1.2 0 .4.1.6.2.1.1.3.2.3.3.1.1.1.3.1.4 0 .1 0 .2-.1.3l-.3.3c-.1.1-.3.2-.5.2s-.4.1-.7.1c-.4 0-.7 0-1.1-.2-.2-.1-.4-.3-.4-.6 0-.1 0-.3.1-.4.1-.1.3-.2.4-.3-.1 0-.2-.1-.3-.2-.1-.1-.1-.2-.1-.3 0-.1 0-.2.1-.3.1-.1.2-.2.3-.2-.1-.1-.3-.2-.3-.4-.1-.2-.1-.3-.1-.5s0-.3.1-.5c.1-.1.1-.3.3-.4.1-.1.2-.2.4-.2.2-.1.3-.1.5-.1s.3 0 .5.1c.1 0 .2.1.4.2.1-.1.2-.1.3-.2.1-.1.2-.1.4-.1l.2.2zm-.5 3.3c0-.2-.1-.3-.3-.4-.3-.1-.6-.1-.9-.1-.1 0-.3 0-.4.1-.1 0-.2.1-.3.1-.1 0-.1.1-.1.2v.4c0 .1.1.1.2.1s.2.1.3.1h.9c.1 0 .2 0 .3-.1.1 0 .2-.1.2-.1.1-.1.1-.2.1-.3zm-.3-2.5c0-.2-.1-.4-.2-.6-.2-.2-.4-.2-.6-.2-.2 0-.4.1-.6.2-.1.1-.2.3-.2.5s.1.4.2.5c.2.1.4.2.6.2.1 0 .2 0 .3-.1.1 0 .2-.1.2-.2.1-.1.1-.1.1-.2.2.1.2 0 .2-.1zM167 9.5c.1-.2.3-.4.5-.5.2-.1.5-.2.8-.2.1 0 .3 0 .4.1.1 0 .3.1.4.2l.3.3c.1.1.1.3.1.5V12c0 .1 0 .2.1.3h-.5l-.1-.5-.4.4c-.2.1-.4.2-.6.2-.1 0-.2 0-.4-.1-.1 0-.2-.1-.3-.2-.1-.1-.2-.2-.2-.3-.1-.1-.1-.3-.1-.4 0-.3.2-.7.5-.8l.6-.3c.3-.1.6-.2.9-.2v-.3c0-.2-.1-.4-.2-.5-.1-.1-.3-.1-.5-.1h-.3c-.1 0-.2.1-.2.1-.1 0-.1.1-.2.2 0 .1-.1.1-.1.2l-.5-.2zm1.9.9c-1 .2-1.6.5-1.6.9 0 .1 0 .1.1.2 0 .1.1.1.1.2.1 0 .1.1.2.1h.5c.1 0 .2-.1.3-.1.1-.1.2-.1.3-.2.1-.1.2-.1.2-.2l-.1-.9zM172.8 7.6V12.2h-.4l-.1-.3-.3.3c-.2.1-.3.1-.5.1s-.3 0-.5-.1-.3-.2-.4-.3c-.1-.2-.3-.3-.3-.5-.1-.3-.1-.5-.1-.8 0-.3 0-.5.1-.8.1-.2.2-.4.3-.5.1-.1.3-.2.4-.3.1-.1.3-.1.4-.1.2 0 .3 0 .5.1.1.1.3.2.4.3V7.6h.5zm-.5 2.1c-.1-.1-.3-.2-.4-.3-.1-.1-.3-.1-.4-.1-.1 0-.3 0-.4.1-.1 0-.2.1-.3.2-.1.1-.2.3-.2.4-.1.2-.1.4-.1.6 0 .3.1.7.2 1 .2.2.4.3.7.3.1 0 .3 0 .4-.1.2-.1.3-.2.4-.3l.1-1.8zM175.1 12.2h-.6l-1-3.3h.5l.8 2.7.8-2.7h.5l-1 3.3zM177.3 7.6v.5h-.5v-.5h.5zm-.4 1.3h.5v3.3h-.5V8.9zM180.4 9.9c-.1-.2-.2-.3-.3-.5-.1-.1-.3-.2-.5-.2-.3 0-.5.1-.7.3-.3.6-.3 1.3 0 1.9.1.2.4.4.7.3h.3c.1 0 .2-.1.2-.1l.2-.2c.1-.1.1-.2.2-.3l.4.2c-.1.1-.2.2-.2.4l-.3.3c-.1.1-.2.1-.3.2-.1 0-.3.1-.4.1-.2 0-.4 0-.6-.1-.2-.1-.3-.2-.4-.3-.1-.2-.2-.3-.3-.5-.1-.5-.1-1 0-1.4.1-.2.1-.4.3-.5.1-.1.3-.3.4-.3.2-.1.4-.1.6-.1.1 0 .3 0 .4.1.1 0 .2.1.3.2.1.1.2.2.2.3.1.1.1.2.2.4l-.4-.2zM184.2 11.5c-.1.1-.1.2-.2.3-.2.2-.4.3-.6.4-.2 0-.3.1-.5.1s-.4 0-.5-.1c-.2-.1-.3-.2-.5-.3-.1-.2-.3-.3-.3-.5-.1-.2-.1-.5-.1-.8 0-.2 0-.5.1-.7.1-.2.1-.4.3-.5.1-.1.3-.3.4-.3.2-.1.4-.1.5-.1.2 0 .3 0 .5.1s.3.1.4.3c.1.1.2.3.3.5.1.2.1.4.1.7v.3H182c0 .2 0 .3.1.5 0 .1.1.3.2.4l.3.3c.1.1.2.1.4.1s.4 0 .5-.1c.2-.1.3-.2.4-.4l.3-.2zm-.6-1.2c0-.3-.1-.5-.2-.7-.1-.2-.4-.3-.6-.3-.2 0-.5.1-.6.3-.2.2-.2.5-.2.7h1.6zM186 8.9V7.8h.5v1.1h.8v.4h-.8v2.3c0 .1 0 .1.1.2.1 0 .2.1.3.1h.4v.4h-.5c-.2 0-.4 0-.5-.1-.1-.1-.2-.3-.2-.4V9.3h-.5v-.4h.4zM190.4 10.6c0 .2 0 .4-.1.7-.1.2-.1.4-.3.5-.1.2-.3.3-.4.4-.4.2-.8.2-1.2 0-.2-.1-.3-.2-.4-.4-.1-.2-.2-.3-.3-.5-.1-.4-.1-.9 0-1.3.1-.2.1-.4.3-.5.1-.2.3-.3.4-.4.4-.2.8-.2 1.2 0 .2.1.3.2.4.4.1.2.2.3.3.5 0 .1.1.3.1.6zm-.5 0c0-.3-.1-.7-.2-1-.3-.4-.7-.4-1.1-.2l-.2.2c-.3.6-.3 1.3 0 2 .3.4.7.4 1.1.2l.2-.2c.2-.4.2-.7.2-1zM191.9 9.5c.1-.2.3-.4.5-.5.2-.1.5-.2.8-.2.1 0 .3 0 .4.1.1 0 .3.1.4.2l.3.3c.1.1.1.3.1.5V12c0 .1 0 .2.1.3h-.5l-.1-.5-.4.4c-.2.1-.4.2-.6.2-.1 0-.2 0-.4-.1-.1 0-.2-.1-.3-.2-.1-.1-.2-.2-.2-.3-.1-.1-.1-.3-.1-.4 0-.3.2-.7.5-.8l.6-.3c.3-.1.6-.2.9-.2v-.3c0-.2-.1-.4-.2-.5-.1-.1-.3-.1-.5-.1h-.3c-.1 0-.2.1-.2.1-.1 0-.1.1-.2.2 0 .1-.1.1-.1.2l-.5-.2zm1.9.9c-1 .2-1.6.5-1.6.9 0 .1 0 .1.1.2 0 .1.1.1.1.2.1 0 .1.1.2.1h.5c.1 0 .2-.1.3-.1.1-.1.2-.1.3-.2.1-.1.2-.1.2-.2l-.1-.9zM195.3 11.4c.1.2.2.3.4.4.2.1.4.1.5.1.2 0 .4 0 .5-.2.1-.1.2-.2.2-.4 0-.1 0-.2-.1-.3-.1-.1-.2-.1-.4-.2-.1-.1-.3-.1-.5-.1s-.3-.1-.5-.2c-.1-.1-.3-.2-.4-.3-.1-.1-.1-.3-.1-.5 0-.3.1-.5.3-.7.2-.2.5-.2.8-.2h.3c.1 0 .2.1.3.1.1 0 .2.1.3.2.1.1.2.1.2.2l-.3.3c-.1-.1-.2-.3-.4-.3-.1-.1-.3-.1-.5-.1s-.3 0-.4.1c-.1.1-.2.2-.2.4 0 .1.1.2.1.3.1.1.2.1.4.2.1 0 .3.1.5.1s.3.1.5.2c.1.1.3.2.4.3.1.1.2.3.1.5 0 .1 0 .3-.1.4-.1.1-.1.2-.3.3-.1.1-.2.1-.4.2-.1 0-.3.1-.4.1-.3 0-.5-.1-.7-.2-.2-.1-.4-.3-.6-.5l.5-.2zM200.1 9.9c-.1-.2-.2-.3-.3-.5-.1-.1-.3-.2-.5-.2-.3 0-.5.1-.7.3-.3.6-.3 1.3 0 1.9.1.2.4.4.7.3h.3c.1 0 .2-.1.2-.1l.2-.2c.1-.1.1-.2.2-.3l.4.2c-.1.1-.2.2-.2.4l-.3.3c-.1.1-.2.1-.3.2-.1 0-.3.1-.4.1-.2 0-.4 0-.6-.1-.2-.1-.3-.2-.4-.3-.1-.2-.2-.3-.3-.5-.1-.5-.1-1 0-1.4.1-.2.1-.4.3-.5.1-.1.3-.3.4-.3.2-.1.4-.1.6-.1.1 0 .3 0 .4.1.1 0 .2.1.3.2.1.1.2.2.2.3.1.1.1.2.2.4l-.4-.2zM203.9 11.5c-.1.1-.1.2-.2.3-.2.2-.4.3-.6.4-.2 0-.3.1-.5.1s-.4 0-.5-.1c-.2-.1-.3-.2-.5-.3-.1-.2-.3-.3-.3-.5-.1-.2-.1-.5-.1-.8 0-.2 0-.5.1-.7.1-.2.1-.4.3-.5.1-.1.3-.3.4-.3.2-.1.4-.1.5-.1.2 0 .3 0 .5.1s.3.1.4.3c.1.1.2.3.3.5.1.2.1.4.1.7v.3h-2.1c0 .2 0 .3.1.5 0 .1.1.3.2.4l.3.3c.1.1.2.1.4.1s.4 0 .5-.1c.2-.1.3-.2.4-.4l.3-.2zm-.6-1.2c0-.3-.1-.5-.2-.7-.1-.2-.4-.3-.6-.3-.2 0-.5.1-.6.3-.2.2-.2.5-.2.7h1.6zM204.6 8.9h.5v.7c.1-.1.1-.2.2-.3.1-.1.1-.2.2-.2.1-.1.2-.1.3-.1h.4v.5c-.3 0-.5.1-.7.3-.2.2-.3.5-.4.8v1.8h-.5V8.9zM207.2 8.9V7.8h.5v1.1h.8v.4h-.8v2.3c0 .1 0 .1.1.2.1 0 .2.1.3.1h.4v.4h-.5c-.2 0-.4 0-.5-.1-.1-.1-.2-.3-.2-.4V9.3h-.5v-.4h.4zM209.1 9.5c.1-.2.3-.4.5-.5.2-.1.5-.2.8-.2.1 0 .3 0 .4.1.1 0 .3.1.4.2l.3.3c.1.1.1.3.1.5V12c0 .1 0 .2.1.3h-.5l-.1-.5-.4.4c-.2.1-.4.2-.6.2-.1 0-.2 0-.4-.1-.1 0-.2-.1-.3-.2-.1-.1-.2-.2-.2-.3-.1-.1-.1-.3-.1-.4 0-.3.2-.7.5-.8l.6-.3c.3-.1.6-.2.9-.2v-.3c0-.2-.1-.4-.2-.5-.1-.1-.3-.1-.5-.1h-.3c-.1 0-.2.1-.2.1-.1 0-.1.1-.2.2 0 .1-.1.1-.1.2l-.5-.2zm1.9.9c-1 .2-1.6.5-1.6.9 0 .1 0 .1.1.2 0 .1.1.1.1.2.1 0 .1.1.2.1h.5c.1 0 .2-.1.3-.1.1-.1.2-.1.3-.2.1-.1.2-.1.2-.2l-.1-.9zM213 7.6v.5h-.5v-.5h.5zm-.4 1.3h.5v3.3h-.5V8.9zM214.6 8.9v.4l.4-.4c.2-.1.3-.1.5-.1h.4c.1 0 .2.1.3.2.1.1.2.2.2.3.1.1.1.3.1.4v2.4h-.5V9.8c.1-.3-.1-.5-.4-.6h-.5c-.1 0-.2.1-.3.1-.1 0-.2.1-.2.2l-.2.2v2.5h-.5V8.9h.7zM220.8 8.9l-1.2 3.6c0 .2-.1.3-.2.5l-.3.3c-.1.1-.2.1-.3.1h-.5-.1V13h.4c.1 0 .2-.1.2-.1.1-.1.2-.1.2-.2.1-.1.1-.3.2-.4L218.1 9h.5l.9 2.5.8-2.5.5-.1zM223.8 10.6c0 .2 0 .4-.1.7-.1.2-.1.4-.3.5-.1.2-.3.3-.4.4-.4.2-.8.2-1.2 0-.2-.1-.3-.2-.4-.4-.1-.2-.2-.3-.3-.5-.1-.4-.1-.9 0-1.3.1-.2.1-.4.3-.5.1-.2.3-.3.4-.4.4-.2.8-.2 1.2 0 .2.1.3.2.4.4.1.2.2.3.3.5.1.1.1.3.1.6zm-.4 0c0-.3-.1-.7-.2-1-.3-.4-.7-.4-1.1-.2l-.2.2c-.3.6-.3 1.3 0 2 .3.4.7.4 1.1.2l.2-.2c.1-.4.2-.7.2-1zM226.6 12.2v-.4l-.4.4c-.2.1-.3.1-.5.1-.1 0-.2 0-.4-.1-.1 0-.2-.1-.3-.2-.1-.1-.2-.2-.2-.3-.1-.1-.1-.3-.1-.4V8.9h.5v2.4c0 .2 0 .3.1.5.1.1.2.1.4.1h.3c.1 0 .2-.1.3-.1.1 0 .2-.1.2-.2l.2-.2V8.9h.5v3.3h-.6zM228.1 8.9h.5v.7c.1-.1.1-.2.2-.3.1-.1.1-.2.2-.2.1-.1.2-.1.3-.1h.4v.5c-.3 0-.5.1-.7.3-.2.2-.3.5-.4.8v1.8h-.5V8.9zM231.7 7.6v1.6c.1-.1.3-.2.4-.3.1-.1.3-.1.5-.1s.3 0 .4.1c.2.1.3.2.4.3.1.2.2.3.3.5.1.3.1.5.1.8 0 .3 0 .6-.1.8-.1.2-.2.4-.3.5-.1.1-.3.2-.4.3-.1.1-.3.1-.5.1s-.4 0-.5-.1c-.2-.1-.3-.2-.4-.3l-.1.3h-.3v-.4V7.6h.5zm0 3.8c.1.1.3.2.4.3.1.1.3.1.4.1.3 0 .5-.1.7-.3.2-.3.3-.6.2-1 0-.2 0-.4-.1-.6 0-.1-.1-.3-.2-.4-.1-.1-.2-.2-.3-.2-.1 0-.2-.1-.4-.1-.1 0-.3 0-.4.1-.2.1-.3.2-.4.3v1.8zM236.7 12.2v-.4l-.4.4c-.2.1-.3.1-.5.1-.1 0-.2 0-.4-.1-.1 0-.2-.1-.3-.2-.1-.1-.2-.2-.2-.3-.1-.1-.1-.3-.1-.4V8.9h.5v2.4c0 .2 0 .3.1.5.1.1.2.1.4.1h.3c.1 0 .2-.1.3-.1.1 0 .2-.1.2-.2l.2-.2V8.9h.5v3.3h-.6zM238.3 11.4c.1.2.2.3.4.4.2.1.4.1.5.1.2 0 .4 0 .5-.2.1-.1.2-.2.2-.4 0-.1 0-.2-.1-.3-.1-.1-.2-.1-.4-.2-.1-.1-.3-.1-.5-.1s-.3-.1-.5-.2c-.1-.1-.3-.2-.4-.3-.1-.1-.1-.3-.1-.5 0-.3.1-.5.3-.7.2-.2.5-.2.8-.2h.3c.1 0 .2.1.3.1.1 0 .2.1.3.2.1.1.2.1.2.2l-.3.3c-.1-.1-.2-.3-.4-.3-.1-.1-.3-.1-.5-.1s-.3 0-.4.1c-.1.1-.2.2-.2.4 0 .1.1.2.1.3.1.1.2.1.4.2.1 0 .3.1.5.1s.3.1.5.2c.1.1.3.2.4.3.1.1.2.3.1.5 0 .1 0 .3-.1.4-.1.1-.1.2-.3.3-.1.1-.2.1-.4.2-.1 0-.3.1-.4.1-.3 0-.5-.1-.7-.2-.2-.1-.4-.3-.6-.5l.5-.2zM241.7 7.6v.5h-.5v-.5h.5zm-.4 1.3h.5v3.3h-.5V8.9zM243.3 8.9v.4l.4-.4c.2-.1.3-.1.5-.1h.4c.1 0 .2.1.3.2.1.1.2.2.2.3.1.1.1.3.1.4v2.4h-.5V9.8c.1-.3-.1-.5-.4-.6h-.5c-.1 0-.2.1-.3.1-.1 0-.2.1-.2.2l-.2.2v2.5h-.5V8.9h.7zM248.8 11.5c-.1.1-.1.2-.2.3-.2.2-.4.3-.6.4-.2 0-.3.1-.5.1s-.4 0-.5-.1c-.2-.1-.3-.2-.5-.3-.1-.2-.3-.3-.3-.5-.1-.2-.1-.5-.1-.8 0-.2 0-.5.1-.7.1-.2.1-.4.3-.5.1-.1.3-.3.4-.3.2-.1.4-.1.5-.1.2 0 .3 0 .5.1s.3.1.4.3c.1.1.2.3.3.5.1.2.1.4.1.7v.3h-2.1c0 .2 0 .3.1.5 0 .1.1.3.2.4l.3.3c.1.1.2.1.4.1s.4 0 .5-.1c.2-.1.3-.2.4-.4l.3-.2zm-.6-1.2c0-.3-.1-.5-.2-.7-.1-.2-.4-.3-.6-.3-.2 0-.5.1-.6.3-.2.2-.2.5-.2.7h1.6zM249.7 11.4c.1.2.2.3.4.4.2.1.4.1.5.1.2 0 .4 0 .5-.2.1-.1.2-.2.2-.4 0-.1 0-.2-.1-.3-.1-.1-.2-.1-.4-.2-.1-.1-.3-.1-.5-.1s-.3-.1-.5-.2c-.1-.1-.3-.2-.4-.3-.1-.1-.1-.3-.1-.5 0-.3.1-.5.3-.7.2-.2.5-.2.8-.2h.3c.1 0 .2.1.3.1.1 0 .2.1.3.2.1.1.2.1.2.2l-.3.3c-.1-.1-.2-.3-.4-.3-.1-.1-.3-.1-.5-.1s-.3 0-.4.1c-.1.1-.2.2-.2.4 0 .1.1.2.1.3.1.1.2.1.4.2.1 0 .3.1.5.1s.3.1.5.2c.1.1.3.2.4.3.1.1.2.3.1.5 0 .1 0 .3-.1.4-.1.1-.1.2-.3.3-.1.1-.2.1-.4.2-.1 0-.3.1-.4.1-.3 0-.5-.1-.7-.2-.2-.1-.4-.3-.6-.5l.5-.2zM252.7 11.4c.1.2.2.3.4.4.2.1.4.1.5.1.2 0 .4 0 .5-.2.1-.1.2-.2.2-.4 0-.1 0-.2-.1-.3-.1-.1-.2-.1-.4-.2-.1-.1-.3-.1-.5-.1s-.3-.1-.5-.2c-.1-.1-.3-.2-.4-.3-.1-.1-.1-.3-.1-.5 0-.3.1-.5.3-.7.2-.2.5-.2.8-.2h.3c.1 0 .2.1.3.1.1 0 .2.1.3.2.1.1.2.1.2.2l-.3.3c-.1-.1-.2-.3-.4-.3-.1-.1-.3-.1-.5-.1s-.3 0-.4.1c-.1.1-.2.2-.2.4 0 .1.1.2.1.3.1.1.2.1.4.2.1 0 .3.1.5.1s.3.1.5.2c.1.1.3.2.4.3.1.1.2.3.1.5 0 .1 0 .3-.1.4-.1.1-.1.2-.3.3-.1.1-.2.1-.4.2-.1 0-.3.1-.4.1-.3 0-.5-.1-.7-.2-.2-.1-.4-.3-.6-.5l.5-.2zM256.2 8.3l-.4.9h-.3l.3-.9h-.3v-.7h.6v.7zM260.6 11.5c-.1.1-.1.2-.2.3-.2.2-.4.3-.6.4-.2 0-.3.1-.5.1s-.4 0-.5-.1c-.2-.1-.3-.2-.5-.3-.1-.2-.3-.3-.3-.5-.1-.2-.1-.5-.1-.8 0-.2 0-.5.1-.7.1-.2.1-.4.3-.5.1-.1.3-.3.4-.3.2-.1.4-.1.5-.1.2 0 .3 0 .5.1s.3.1.4.3c.1.1.2.3.3.5.1.2.1.4.1.7v.3h-2.1c0 .2 0 .3.1.5 0 .1.1.3.2.4l.3.3c.1.1.2.1.4.1s.4 0 .5-.1c.2-.1.3-.2.4-.4l.3-.2zm-.5-1.2c0-.3-.1-.5-.2-.7-.1-.2-.4-.3-.6-.3-.2 0-.5.1-.6.3-.2.2-.2.5-.2.7h1.6zM261.9 7.6v4.6h-.5V7.6h.5zM263.6 7.6v.5h-.5v-.5h.5zm-.5 1.3h.5v3.3h-.5V8.9zM267.3 9.2h-.3c-.1 0-.2 0-.2.1.1.1.1.2.1.3.1.1.1.3.1.4 0 .2 0 .3-.1.5-.1.3-.4.5-.6.6-.1.1-.3.1-.5.1h-.3c-.1 0-.2 0-.3-.1-.1 0-.3.2-.3.3 0 .1 0 .1.1.2.1 0 .1.1.2.1.3 0 .7 0 1 .1.2 0 .4.1.6.2.1.1.3.2.3.3.1.1.1.3.1.4 0 .1 0 .2-.1.3l-.3.3c-.1.1-.3.2-.5.2s-.4.1-.7.1c-.4 0-.7 0-1.1-.2-.2-.1-.4-.3-.4-.6 0-.1 0-.3.1-.4.1-.1.3-.2.4-.3-.1 0-.2-.1-.3-.2-.1-.1-.1-.2-.1-.3 0-.1 0-.2.1-.3.1-.1.2-.2.3-.2-.1-.1-.3-.2-.3-.4-.1-.2-.1-.3-.1-.5s0-.3.1-.5c.1-.1.1-.3.3-.4.1-.1.2-.2.4-.2.2-.1.3-.1.5-.1s.3 0 .5.1c.1 0 .2.1.4.2.1-.1.2-.1.3-.2.1-.1.2-.1.4-.1l.2.2zm-.4 3.3c0-.2-.1-.3-.3-.4-.3-.1-.6-.1-.9-.1-.1 0-.3 0-.4.1-.1 0-.2.1-.3.1-.1 0-.1.1-.1.2v.4c0 .1.1.1.2.1s.2.1.3.1h.9c.1 0 .2 0 .3-.1.1 0 .2-.1.2-.1.1-.1.1-.2.1-.3zm-.3-2.5c0-.2-.1-.4-.2-.6-.2-.2-.4-.2-.6-.2-.2 0-.4.1-.6.2-.2.2-.2.4-.2.6 0 .2.1.4.2.5.2.1.4.2.6.2.1 0 .2 0 .3-.1.1 0 .2-.1.2-.2.1-.1.1-.1.1-.2.2 0 .2-.1.2-.2zM268.5 7.6v.5h-.5v-.5h.5zm-.4 1.3h.5v3.3h-.5V8.9zM270.2 7.6v1.6c.1-.1.3-.2.4-.3.1-.1.3-.1.5-.1s.3 0 .4.1c.2.1.3.2.4.3.1.2.2.3.3.5.1.3.1.5.1.8 0 .3 0 .6-.1.8-.1.2-.2.4-.3.5-.1.1-.3.2-.4.3-.1.1-.3.1-.5.1s-.4 0-.5-.1c-.2-.1-.3-.2-.4-.3l-.1.3h-.3v-.4V7.6h.5zm0 3.8c.1.1.3.2.4.3.1.1.3.1.4.1.3 0 .5-.1.7-.3.2-.3.3-.6.2-1 0-.2 0-.4-.1-.6 0-.1-.1-.3-.2-.4-.1-.1-.2-.2-.3-.2-.1 0-.2-.1-.4-.1-.1 0-.3 0-.4.1-.2.1-.3.2-.4.3v1.8zM273.8 7.6v.5h-.5v-.5h.5zm-.5 1.3h.5v3.3h-.5V8.9zM275.4 7.6v4.6h-.4V7.6h.4zM277.1 7.6v.5h-.5v-.5h.5zm-.5 1.3h.5v3.3h-.5V8.9zM278.4 8.9V7.8h.5v1.1h.8v.4h-.8v2.3c0 .1 0 .1.1.2.1 0 .2.1.3.1h.4v.4h-.5c-.2 0-.4 0-.5-.1-.1-.1-.2-.3-.2-.4V9.3h-.5v-.4h.4zM282.8 8.9l-1.2 3.6c0 .2-.1.3-.2.5l-.3.3c-.1.1-.2.1-.3.1h-.5-.1V13h.4c.1 0 .2-.1.2-.1.1-.1.2-.1.2-.2.1-.1.1-.3.2-.4L280.1 9h.5l.9 2.5.8-2.5.5-.1zM284.5 12.2V9.3h-.5v-.4h.6v-.4c0-.2 0-.3.1-.5 0-.1.1-.2.1-.3.1-.1.2-.1.2-.2h.8V8h-.4c-.1 0-.2 0-.3.1-.1.1-.1.2-.1.3v.5h.7v.4h-.7v2.9h-.5zM288.9 10.6c0 .2 0 .4-.1.7-.1.2-.1.4-.3.5-.1.2-.3.3-.4.4-.4.2-.8.2-1.2 0-.2-.1-.3-.2-.4-.4-.1-.2-.2-.3-.3-.5-.1-.4-.1-.9 0-1.3.1-.2.1-.4.3-.5.1-.2.3-.3.4-.4.4-.2.8-.2 1.2 0 .2.1.3.2.4.4.1.2.2.3.3.5 0 .1.1.3.1.6zm-.5 0c0-.3-.1-.7-.2-1-.3-.4-.7-.4-1.1-.2l-.2.2c-.3.6-.3 1.3 0 2 .3.4.7.4 1.1.2l.2-.2c.2-.4.2-.7.2-1zM289.7 8.9h.5v.7c.1-.1.1-.2.2-.3.1-.1.1-.2.2-.2.1-.1.2-.1.3-.1h.4v.5c-.3 0-.5.1-.7.3-.2.2-.3.5-.4.8v1.8h-.5V8.9zM292.9 8.9V7.8h.5v1.1h.8v.4h-.8v2.3c0 .1 0 .1.1.2.1 0 .2.1.3.1h.4v.4h-.5c-.2 0-.4 0-.5-.1-.1-.1-.2-.3-.2-.4V9.3h-.5v-.4h.4zM295.4 7.6v1.7l.4-.4c.2-.1.3-.1.5-.1h.4c.1 0 .2.1.3.2.1.1.2.2.2.3.1.1.1.3.1.4v2.4h-.5V9.8c.1-.3-.1-.5-.4-.6h-.5c-.1 0-.2.1-.3.1-.1 0-.2.1-.2.2l-.2.2v2.5h-.5V7.6h.7zM300.9 11.5c-.1.1-.1.2-.2.3-.2.2-.4.3-.6.4-.2 0-.3.1-.5.1s-.4 0-.5-.1c-.2-.1-.3-.2-.5-.3-.1-.2-.3-.3-.3-.5-.1-.2-.1-.5-.1-.8 0-.2 0-.5.1-.7.1-.2.1-.4.3-.5.1-.1.3-.3.4-.3.2-.1.4-.1.5-.1.2 0 .3 0 .5.1s.3.1.4.3c.1.1.2.3.3.5.1.2.1.4.1.7v.3h-2.1c0 .2 0 .3.1.5 0 .1.1.3.2.4l.3.3c.1.1.2.1.4.1s.4 0 .5-.1c.2-.1.3-.2.4-.4l.3-.2zm-.6-1.2c0-.3-.1-.5-.2-.7-.1-.2-.4-.3-.6-.3-.2 0-.5.1-.6.3-.2.2-.2.5-.2.7h1.6zM303.3 7.6v4.6h-.5V7.6h.5zM305 8.9v.4l.4-.4c.2-.1.3-.1.5-.1h.4c.1 0 .2.1.3.2.1.1.2.2.2.3.1.1.1.3.1.4v2.4h-.5V9.8c.1-.3-.1-.5-.4-.6h-.5c-.1 0-.2.1-.3.1-.1 0-.2.1-.2.2l-.2.2v2.5h-.5V8.9h.7zM308.1 11.4c.1.2.2.3.4.4.2.1.4.1.5.1.2 0 .4 0 .5-.2.1-.1.2-.2.2-.4 0-.1 0-.2-.1-.3-.1-.1-.2-.1-.4-.2-.1-.1-.3-.1-.5-.1s-.3-.1-.5-.2c-.1-.1-.3-.2-.4-.3-.1-.1-.1-.3-.1-.5 0-.3.1-.5.3-.7.2-.2.5-.2.8-.2h.3c.1 0 .2.1.3.1.1 0 .2.1.3.2.1.1.2.1.2.2l-.3.3c-.1-.1-.2-.3-.4-.3-.1-.1-.3-.1-.5-.1s-.3 0-.4.1c-.1.1-.2.2-.2.4 0 .1.1.2.1.3.1.1.2.1.4.2.1 0 .3.1.5.1s.3.1.5.2c.1.1.3.2.4.3.1.1.2.3.1.5 0 .1 0 .3-.1.4-.1.1-.1.2-.3.3-.1.1-.2.1-.4.2-.1 0-.3.1-.4.1-.3 0-.5-.1-.7-.2-.2-.1-.4-.3-.6-.5l.5-.2zM311.2 8.9V7.8h.5v1.1h.8v.4h-.8v2.3c0 .1 0 .1.1.2.1 0 .2.1.3.1h.4v.4h-.5c-.2 0-.4 0-.5-.1-.1-.1-.2-.3-.2-.4V9.3h-.5v-.4h.4zM313.1 9.5c.1-.2.3-.4.5-.5.2-.1.5-.2.8-.2.1 0 .3 0 .4.1.1 0 .3.1.4.2l.3.3c.1.1.1.3.1.5V12c0 .1 0 .2.1.3h-.5l-.1-.5-.4.4c-.2.1-.4.2-.6.2-.1 0-.2 0-.4-.1-.1 0-.2-.1-.3-.2-.1-.1-.2-.2-.2-.3-.1-.1-.1-.3-.1-.4 0-.3.2-.7.5-.8l.6-.3c.3-.1.6-.2.9-.2v-.3c0-.2-.1-.4-.2-.5-.1-.1-.3-.1-.5-.1h-.3c-.1 0-.2.1-.2.1-.1 0-.1.1-.2.2 0 .1-.1.1-.1.2l-.5-.2zm1.9.9c-1 .2-1.6.5-1.6.9 0 .1 0 .1.1.2 0 .1.1.1.1.2.1 0 .1.1.2.1h.5c.1 0 .2-.1.3-.1.1-.1.2-.1.3-.2.1-.1.2-.1.2-.2l-.1-.9zM316.9 8.9v.4l.4-.4c.2-.1.3-.1.5-.1h.4c.1 0 .2.1.3.2.1.1.2.2.2.3.1.1.1.3.1.4v2.4h-.5V9.8c.1-.3-.1-.5-.4-.6h-.5c-.1 0-.2.1-.3.1-.1 0-.2.1-.2.2l-.2.2v2.5h-.5V8.9h.7zM320.1 8.9V7.8h.5v1.1h.8v.4h-.8v2.3c0 .1 0 .1.1.2.1 0 .2.1.3.1h.4v.4h-.5c-.2 0-.4 0-.5-.1-.1-.1-.2-.3-.2-.4V9.3h-.5v-.4h.4zM322.7 12.2l1.4-4.6h.8l1.4 4.6h-.5l-.4-1.4h-1.6l-.4 1.4h-.7zm1-1.9h1.4l-.6-2.3h-.1l-.7 2.3zM327.1 11.4c.1.2.2.3.4.4.2.1.4.1.5.1.2 0 .4 0 .5-.2.1-.1.2-.2.2-.4 0-.1 0-.2-.1-.3-.1-.1-.2-.1-.4-.2-.1-.1-.3-.1-.5-.1s-.3-.1-.5-.2c-.1-.1-.3-.2-.4-.3-.1-.1-.1-.3-.1-.5 0-.3.1-.5.3-.7.2-.2.5-.2.8-.2h.3c.1 0 .2.1.3.1.1 0 .2.1.3.2.1.1.2.1.2.2l-.3.3c-.1-.1-.2-.3-.4-.3-.1-.1-.3-.1-.5-.1s-.3 0-.4.1c-.1.1-.2.2-.2.4 0 .1.1.2.1.3.1.1.2.1.4.2.1 0 .3.1.5.1s.3.1.5.2c.1.1.3.2.4.3.1.1.2.3.1.5 0 .1 0 .3-.1.4-.1.1-.1.2-.3.3-.1.1-.2.1-.4.2-.1 0-.3.1-.4.1-.3 0-.5-.1-.7-.2-.2-.1-.4-.3-.6-.5l.5-.2zM330.1 11.4c.1.2.2.3.4.4.2.1.4.1.5.1.2 0 .4 0 .5-.2.1-.1.2-.2.2-.4 0-.1 0-.2-.1-.3-.1-.1-.2-.1-.4-.2-.1-.1-.3-.1-.5-.1s-.3-.1-.5-.2c-.1-.1-.3-.2-.4-.3-.1-.1-.1-.3-.1-.5 0-.3.1-.5.3-.7.2-.2.5-.2.8-.2h.3c.1 0 .2.1.3.1.1 0 .2.1.3.2.1.1.2.1.2.2l-.3.3c-.1-.1-.2-.3-.4-.3-.1-.1-.3-.1-.5-.1s-.3 0-.4.1c-.1.1-.2.2-.2.4 0 .1.1.2.1.3.1.1.2.1.4.2.1 0 .3.1.5.1s.3.1.5.2c.1.1.3.2.4.3.1.1.2.3.1.5 0 .1 0 .3-.1.4-.1.1-.1.2-.3.3-.1.1-.2.1-.4.2-.1 0-.3.1-.4.1-.3 0-.5-.1-.7-.2-.2-.1-.4-.3-.6-.5l.5-.2zM335.5 11.5c-.1.1-.1.2-.2.3-.2.2-.4.3-.6.4-.2 0-.3.1-.5.1s-.4 0-.5-.1c-.2-.1-.3-.2-.5-.3-.1-.2-.3-.3-.3-.5-.1-.2-.1-.5-.1-.8 0-.2 0-.5.1-.7.1-.2.1-.4.3-.5.1-.1.3-.3.4-.3.2-.1.4-.1.5-.1.2 0 .3 0 .5.1s.3.1.4.3c.1.1.2.3.3.5.1.2.1.4.1.7v.3h-2.1c0 .2 0 .3.1.5 0 .1.1.3.2.4l.3.3c.1.1.2.1.4.1s.4 0 .5-.1c.2-.1.3-.2.4-.4l.3-.2zm-.6-1.2c0-.3-.1-.5-.2-.7-.1-.2-.4-.3-.6-.3-.2 0-.5.1-.6.3-.2.2-.2.5-.2.7h1.6zM336.4 8.9V7.8h.5v1.1h.8v.4h-.8v2.3c0 .1 0 .1.1.2.1 0 .2.1.3.1h.4v.4h-.5c-.2 0-.4 0-.5-.1-.1-.1-.2-.3-.2-.4V9.3h-.5v-.4h.4zM339 7.6h.5l.8 3.6.9-3.6h.4l.9 3.6.8-3.6h.5l-1.1 4.6h-.4l-.9-3.7-.9 3.7h-.5l-1-4.6zM344.5 8.9h.5v.7c.1-.1.1-.2.2-.3.1-.1.1-.2.2-.2.1-.1.2-.1.3-.1h.4v.5c-.3 0-.5.1-.7.3-.2.2-.3.5-.4.8v1.8h-.5V8.9zM347.3 7.6v.5h-.5v-.5h.5zm-.5 1.3h.5v3.3h-.5V8.9zM348.6 8.9V7.8h.5v1.1h.8v.4h-.9v2.3c0 .1 0 .1.1.2.1 0 .2.1.3.1h.4v.4h-.5c-.2 0-.4 0-.5-.1-.1-.1-.2-.3-.2-.4V9.3h-.6v-.4h.6zM353 11.5c-.1.1-.1.2-.2.3-.2.2-.4.3-.6.4-.2 0-.3.1-.5.1s-.4 0-.5-.1c-.2-.1-.3-.2-.5-.3-.1-.2-.3-.3-.3-.5-.1-.2-.1-.5-.1-.8 0-.2 0-.5.1-.7.1-.2.1-.4.3-.5.1-.1.3-.3.4-.3.2-.1.4-.1.5-.1.2 0 .3 0 .5.1s.3.1.4.3c.1.1.2.3.3.5.1.2.1.4.1.7v.3h-2.1c0 .2 0 .3.1.5 0 .1.1.3.2.4l.3.3c.1.1.2.1.4.1s.4 0 .5-.1c.2-.1.3-.2.4-.4l.3-.2zm-.6-1.2c0-.3-.1-.5-.2-.7-.1-.2-.4-.3-.6-.3-.2 0-.5.1-.6.3-.2.2-.2.5-.2.7h1.6zM353.7 10.8v-.4h1.6v.4h-1.6zM358.7 10.6c0 .2 0 .4-.1.7-.1.2-.1.4-.3.5-.1.2-.3.3-.4.4-.4.2-.8.2-1.2 0-.2-.1-.3-.2-.4-.4-.1-.2-.2-.3-.3-.5-.1-.4-.1-.9 0-1.3.1-.2.1-.4.3-.5.1-.2.3-.3.4-.4.4-.2.8-.2 1.2 0 .2.1.3.2.4.4.1.2.2.3.3.5.1.1.1.3.1.6zm-.4 0c0-.3-.1-.7-.2-1-.3-.4-.7-.4-1.1-.2l-.2.2c-.3.6-.3 1.3 0 2 .3.4.7.4 1.1.2l.2-.2c.1-.4.2-.7.2-1zM359.7 12.2V9.3h-.6v-.4h.6v-.4c0-.2 0-.3.1-.5 0-.1.1-.2.1-.3.1-.1.2-.1.2-.2h.8V8h-.4c-.1 0-.2 0-.3.1-.1.1-.1.2-.1.4V9h.7v.4h-.7v2.9l-.4-.1zM362 12.2V9.3h-.6v-.4h.6v-.4c0-.2 0-.3.1-.5 0-.1.1-.2.1-.3.1-.1.2-.1.2-.2h.8V8h-.4c-.1 0-.2 0-.3.1-.1.1-.1.2-.1.4V9h.7v.4h-.7v2.9l-.4-.1zM364.5 11.5v.7h-.6v-.7h.6z"/></svg>