<svg xmlns="http://www.w3.org/2000/svg" viewBox="0 0 728 90"><path fill="none" d="M89.323 63.186l-.067.031h.336l-.054-.031h-.215zM89.592 63.217h.629l-.106-.031-.523.031zM89.538 62.468l.027-.064h-.134l.053.064h.054zM90.666 62.366v-.025l-.134-.064-.027-.128-.094-.031.026.095.229.191v-.017l-.006-.014.006-.007zM38.653 61.401l.027-.064-.054.032.027.032zM90.935 61.21v.287h.228l.027-.033-.135-.223-.12-.031zM89.484 62.58l-.053.032v.064h.053v-.096zM90.687 62.341l-.021.025v.021l.048.113-.027-.159zM90.942 61.72l.027.095v-.064l-.027-.031zM91.049 62.341h.054v-.096h-.081l.027.096zM90.794 62.739l.202.16v-.128l-.108-.064-.094.032zM90.821 62.022l-.027.127.148.032.107-.063v-.224l-.161.064-.067.064z"/><path fill="none" d="M90.935 61.656l.053.127.067.032.027-.064-.027-.064-.12-.063h-.108l-.054.127h-.053l.026-.064-.053-.063h-.108l.081.302.107-.032.081-.174.081-.064zM89.041 61.815l.081.111.027-.079.08-.032-.08-.095-.108.095zM38.25 61.894l.054.096-.027-.064-.027-.032zM38.357 61.926l.027.064.054-.096-.054-.047-.027.079zM38.156 61.433l-.107-.032-.081.063v.064l.107.032.135-.032-.027-.031-.027-.064zM38.384 61.433l-.08.031v.064h.08v-.095zM37.525 61.337l-.108.032.027.064.108.064h.08l-.054-.128-.053-.032zM37.726 61.592l.027-.064-.054.032.027.032zM90.115 61.687v-.127l-.08-.127v.159l.08.095zM90.249 61.783l-.08.032.027.032.053-.064zM91.458 60.62l-.053.063.08-.031-.027-.032zM89.592 61.528v.096l.08-.032-.08-.064zM89.592 62.118l.053-.303-.053.032v.271zM90.365 60.477h-.054l-.027.111h.081v-.111zM90.505 61.56l-.068-.032-.134.128v.064h.081l.121-.16zM92.895 62.309l.027-.287-.054.032.027.255zM93.687 61.369v.095l.161.064-.053-.127-.108-.032zM96.252 61.783v.064l.08.079.027-.079-.054-.064h-.053zM94.157 60.97l.027.064.08.032-.026-.064-.081-.032zM96.158 62.803l.067-.622.027-.063-.054-.032-.04.717zM93.969 61.656l.054.064.054-.096-.108-.032v.064zM94.103 61.161l-.053.112.08.032.081-.064-.054-.08h-.054zM96.252 61.098l-.027-.064h-.067l.067.096.027-.032zM97.259 61.464l.094.064-.04-.064h-.054zM91.244 60.779h-.054v.127l.08-.063-.026-.064zM96.359 61.847v-.255l-.054.032.054.223zM97.756 63.153h.08v-.095l-.053.032-.027.063zM97.179 62.022l-.108.032v-.367l-.027.096h-.053l-.054.064.081.239.134.095.134-.032.067-.159-.121-.096-.053.128zM97.232 62.404l.027.064h.094l-.094-.095-.027.031zM97.675 61.305v-.095h-.08l.08.095zM91.874 61.433l.027.095.108.032.053-.096h-.134l-.054-.031zM92.452 61.528l.08-.127-.053.032-.027.095zM92.089 62.899l.054.095.228-.031-.282-.128v.064zM92.237 61.72l-.027-.128h-.067l-.027.064.067.095.054-.031zM93.795 60.349l-.054.032.054.032v-.064zM337.55 63.186l-.076.031H337.885l-.053-.031h-.282zM91.378 61.624l-.081.063-.027.033.269-.064-.054-.032h-.107zM37.417 61.656l-.107.191h.134l.161.175v-.207l-.134-.191-.054.032zM93.392 61.847l-.094.111.067.032.081-.032-.027-.064-.027-.047zM93.137 61.751l.08.175.027-.239h-.053l-.054.064zM93.365 62.118l.027.191.027-.032.027-.064-.027-.064-.054-.031zM92.814 61.656l-.053.095.053.032.108-.096-.054-.031h-.054zM93.137 62.118l.054.031.026-.063-.053-.032-.027.064zM91.66 61.592l.08.095.027-.526-.107.367v.064zM31.952 61.13v-.16l-.027-.032-.067-.032-.134.032.08.128.148.064zM31.952 60.652h-.067l-.054.127.121-.032v-.095zM31.697 60.652l-.054.031-.027.032.081.383v-.446zM31.375 61.002l.188.096v-.064l-.027-.064-.161-.032v.064zM32.771 61.273h-.053l-.054.096.107.287v-.383zM37.417 62.245l.054.032h.054l.027-.128h-.054l-.081.096zM32.194 60.556l-.054.032v.064l.054-.032v-.064zM31.281 60.413l-.027.111-.027.064-.134.064-.027.159h.107l.228-.287-.12-.111zM31.925 61.687l-.174-.159v-.095l-.027-.064-.081-.032.081.223.161.191.04-.064zM32.167 61.401l-.027-.032h-.053l-.081.095.107.192h.027l.027-.255z"/><path fill="none" d="M32.221 61.926l.027-.079-.027-.16-.081-.031v.095l-.027-.095h-.08l-.229.238-.026.096.174.159.054-.063.107.032.135.35.08-.032-.053-.032v-.191l.08-.095.027-.128h-.107l-.054-.064zM31.509 61.56l.027-.127-.229.095-.08-.191-.027.064.027.096.174.095.108-.032zM30.677 61.72l-.054.063.054.143.053.032.094-.032-.067-.462-.08.256zM30.958 61.21l-.026.063.107-.032-.027-.111-.054.08zM31.307 61.815l.068.111.161.032.107.096.027-.064v-.064l-.134-.111h-.229zM29.36 60.588v.095l.054.064.054-.127-.081-.032h-.027zM28.971 60.381l.094.096.027-.064-.067-.032h-.054zM29.387 62.149l.054.064-.027-.095-.027.031zM29.172 62.612h.054v.095h-.054zM90.579 63.186l-.075.031H90.915l-.054-.031h-.282zM29.911 62.086v-.064l.054-.207-.081.079.027.192zM29.575 61.13v.271h.027l-.027-.271zM30.045 62.181l.054.064.081-.032v-.064l-.108-.031-.027.063zM29.911 61.13h-.054v.08l.054.031v-.111zM30.569 62.867h.054l.027-.096-.054.032-.027.064zM29.669 61.687l-.067.064h-.107l.053.096-.026.207.228.032.027-.096-.054-.207.081-.063.053-.128-.134-.064-.054.159zM29.602 61.369v.032l.04.032-.04-.064zM32.328 61.401l-.026.032v.064l.08-.033-.054-.063zM34.53 61.369l.081.128.054-.033.027-.191-.081.032-.081.064zM34.369 63.09l.027-.064-.054.032.027.032zM34.893 61.624v.032l.054-.064-.027-.032-.027.064zM34.369 62.118l.027-.064-.054-.239.027.303zM34.396 61.464l-.107.033-.054.095.107.032.027.127.108-.031.027-.128-.027-.064-.081-.064zM35.712 62.867v.063l.054.064.053-.159-.053-.032-.054.064zM34.745 61.592l-.027.095.121-.095-.027-.032-.067.032zM37.028 62.835l.067.032-.04-.096-.027.064zM37.202 61.497v-.033h-.08l.08.033zM36.598 62.022l.108.127.053-.031.027-.128-.054-.032-.134.064zM36.209 61.305v.064l.107.128-.026-.287-.081.095zM35.9 61.401l-.188.096.081.254.147-.223.027-.127-.027-.064-.04.064zM36.478 61.497v.063l.12.032-.12-.095zM33.134 62.277l-.054.032.027.032.027-.064zM32.61 61.592l.161.366.108.096v-.271l.08-.063h-.107l-.242-.128zM32.932 61.098l-.026.063.026.08h.054l.027-.08-.027-.063h-.054zM32.825 62.436l.107-.032.027-.063-.027-.032-.107.127zM34.289 62.309l.027.064.026-.096-.053.032zM32.744 62.532l.027-.064-.053.032.026.032zM33.134 61.497l-.094-.033.04.064.054-.031zM32.463 61.528h.121v.064h-.121zM34.141 61.656l-.081.031.054.064.027-.095zM34.06 61.847l-.107.111.215.064v-.064l-.027-.064-.081-.047zM33.617 61.497l-.295-.064-.135.031-.026.064v.128l-.054.127v.143l.054.064h.053l.215-.303.108-.031.201.031-.027-.127-.094-.063zM32.382 61.687v.064l.054.032.027-.063-.027-.033h-.054zM33.04 62.835v.064l.094.127h.053l.027-.063-.027-.096-.147-.032zM33.429 62.022l.054.032.134-.032v-.207h-.054l-.134.207zM284.251 62.022l.108.127.053-.031.027-.128-.054-.032-.134.064zM337.905 61.656l.053.127.067.032.027-.064-.027-.064-.12-.063h-.108l-.054.127h-.053l.027-.064-.054-.063h-.108l.081.302.107-.032.081-.174.081-.064zM337.636 62.366v-.025l-.134-.064-.027-.128-.094-.031.027.095.228.191v-.017l-.006-.014.006-.007z"/><path fill="none" d="M337.657 62.341l-.021.025v.021l.048.113-.027-.159zM336.562 63.217h.629l-.105-.031-.524.031zM336.293 63.186l-.067.031h.336l-.054-.031h-.215zM336.455 62.58l-.054.032v.064h.054v-.096zM338.348 61.624l-.081.063-.027.033.269-.064-.054-.032h-.107zM338.214 60.779h-.054v.127l.08-.063-.026-.064zM337.791 62.022l-.027.127.148.032.108-.063v-.224l-.161.064-.068.064zM336.508 62.468l.027-.064h-.134l.054.064h.053zM338.02 62.341h.053v-.096h-.08l.027.096zM337.905 61.21v.287h.228l.027-.033-.135-.223-.12-.031zM337.912 61.72l.027.095v-.064l-.027-.031zM337.764 62.739l.202.16v-.128l-.107-.064-.095.032zM336.011 61.815l.081.111.027-.079.08-.032-.08-.095-.108.095zM286.01 61.926l.027.064.054-.096-.054-.047-.027.079zM285.809 61.433l-.107-.032-.081.063v.064l.107.032.135-.032-.027-.031-.027-.064zM286.037 61.433l-.08.031v.064h.08v-.095zM285.903 61.894l.054.096-.027-.064-.027-.032zM285.178 61.337l-.108.032.027.064.108.064h.08l-.054-.128-.053-.032zM285.379 61.592l.027-.064-.054.032.027.032zM337.22 61.783l-.081.032.027.032.054-.064zM337.086 61.687v-.127l-.081-.127v.159l.081.095zM336.562 61.528v.096l.081-.032-.081-.064zM336.562 62.118l.054-.303-.054.032v.271zM337.475 61.56l-.067-.032-.135.128v.064h.081l.121-.16zM338.429 60.62l-.054.063.08-.031-.026-.032zM337.335 60.477h-.054l-.027.111h.081v-.111zM344.202 62.404l.027.064h.094l-.094-.095-.027.031zM341.074 61.161l-.054.112.081.032.08-.064-.054-.08h-.053zM343.222 61.783v.064l.081.079.027-.079-.054-.064h-.054zM343.33 61.847v-.255l-.054.032.054.223zM285.07 61.656l-.107.191h.134l.161.175v-.207l-.134-.191-.054.032zM341.127 60.97l.027.064.081.032-.027-.064-.081-.032zM338.63 61.592l.08.095.027-.526-.107.367v.064zM343.128 62.803l.067-.622.027-.063-.053-.032-.041.717zM344.726 63.153h.081v-.095l-.054.032-.027.063zM276.624 60.381l.094.096.027-.064-.067-.032h-.054zM344.646 61.305v-.095h-.081l.081.095zM344.229 61.464l.094.064-.04-.064h-.054zM344.149 62.022l-.108.032v-.367l-.027.096h-.053l-.054.064.081.239.134.095.134-.032.067-.159-.121-.096-.053.128zM343.222 61.098l-.027-.064h-.067l.067.096.027-.032zM339.059 62.899l.054.095.228-.031-.282-.128v.064zM339.422 61.528l.08-.127-.053.032-.027.095zM339.865 62.309l.027-.287-.054.032.027.255zM339.784 61.656l-.053.095.053.032.108-.096-.054-.031h-.054zM339.207 61.72l-.027-.128h-.067l-.027.064.067.095.054-.031zM338.845 61.433l.027.095.107.032.054-.096h-.135l-.053-.031zM340.335 62.118l.027.191.027-.032.027-.064-.027-.064-.054-.031zM340.362 61.847l-.094.111.067.032.081-.032-.027-.064-.027-.047zM340.765 60.349l-.054.032.054.032v-.064zM340.658 61.369v.095l.161.064-.054-.127-.107-.032zM340.107 62.118l.054.031.026-.063-.053-.032-.027.064zM340.107 61.751l.08.175.027-.239h-.053l-.054.064zM340.939 61.656l.054.064.054-.096-.108-.032v.064zM286.306 61.401l.027-.064-.054.032.027.032zM279.028 61.002l.188.096v-.064l-.027-.064-.161-.032v.064zM279.162 61.56l.027-.127-.229.095-.08-.191-.027.064.027.096.174.095.108-.032zM278.934 60.413l-.027.111-.027.064-.134.064-.027.159h.107l.228-.287-.12-.111zM278.611 61.21l-.026.063.107-.032-.027-.111-.054.08zM279.605 60.652h-.067l-.054.127.121-.032v-.095zM279.35 60.652l-.054.031-.027.032.081.383v-.446zM279.605 61.13v-.16l-.027-.032-.068-.032-.133.032.08.128.148.064zM279.874 61.926l.027-.079-.027-.16-.081-.031v.095l-.027-.095h-.08l-.229.238-.026.096.174.159.054-.063.107.032.135.35.08-.032-.053-.032v-.191l.08-.095.027-.128h-.107l-.054-.064zM285.07 62.245l.054.032h.054l.027-.128h-.054l-.081.096zM279.847 60.556l-.054.032v.064l.054-.032v-.064zM278.96 61.815l.068.111.161.032.107.096.027-.064v-.064l-.134-.111h-.229zM280.035 61.687v.064l.054.032.027-.063-.027-.033h-.054zM279.82 61.401l-.027-.032h-.053l-.081.095.107.192h.027l.027-.255zM279.578 61.687l-.174-.159v-.095l-.027-.064-.081-.032.081.223.161.191.04-.064zM277.564 62.086v-.064l.054-.207-.081.079.027.192zM277.013 60.588v.095l.054.064.054-.127-.081-.032h-.027zM277.228 61.13v.271h.027l-.027-.271zM277.255 61.369v.032l.04.032-.04-.064zM276.825 62.612h.054v.095h-.054zM277.04 62.149l.054.064-.027-.095-.027.031zM277.322 61.687l-.067.064h-.107l.053.096-.026.207.228.032.027-.096-.054-.207.081-.063.053-.128-.134-.064-.054.159zM279.981 61.401l-.027.032v.064l.081-.033-.054-.063zM277.564 61.13h-.054v.08l.054.031v-.111zM278.222 62.867h.054l.027-.096-.054.032-.027.064zM280.424 61.273h-.053l-.054.096.107.287v-.383zM278.33 61.72l-.054.063.054.143.053.032.094-.032-.067-.462-.08.256zM280.116 61.528h.121v.064h-.121zM277.698 62.181l.054.064.081-.032v-.064l-.108-.031-.027.063z"/><path fill="none" d="M280.263 61.592l.161.366.108.096v-.271l.08-.063h-.107l-.242-.128zM282.183 61.369l.081.128.054-.033.026-.191-.08.032-.081.064zM282.049 61.464l-.107.033-.054.095.107.032.027.127.108-.031.027-.128-.027-.064-.081-.064zM282.398 61.592l-.027.095.121-.095-.027-.032-.067.032zM282.022 63.09l.027-.064-.054.032.027.032zM280.397 62.532l.027-.064-.053.032.026.032zM282.546 61.624v.032l.053-.064-.026-.032-.027.064zM282.022 62.118l.027-.064-.054-.239.027.303zM284.13 61.497v.063l.121.032-.121-.095zM283.365 62.867v.063l.054.064.053-.159-.053-.032-.054.064zM284.681 62.835l.067.032-.04-.096-.027.064zM284.855 61.497v-.033h-.08l.08.033zM281.713 61.847l-.107.111.215.064v-.064l-.027-.064-.081-.047zM283.553 61.401l-.188.096.081.254.147-.223.027-.127-.027-.064-.04.064zM283.862 61.305v.064l.107.128-.027-.287-.08.095zM281.942 62.309l.027.064.026-.096-.053.032zM280.787 61.497l-.094-.033.04.064.054-.031zM280.787 62.277l-.054.032.027.032.027-.064zM280.585 61.098l-.027.063.027.08h.054l.027-.08-.027-.063h-.054zM280.478 62.436l.107-.032.027-.063-.027-.032-.107.127zM281.082 62.022l.053.032.135-.032v-.207h-.054l-.134.207zM280.693 62.835v.064l.094.127h.053l.027-.063-.027-.096-.147-.032zM281.27 61.497l-.295-.064-.135.031-.027.064v.128l-.053.127v.143l.053.064h.054l.215-.303.108-.031.201.031-.027-.127-.094-.063zM281.794 61.656l-.081.031.054.064.027-.095z"/><path fill="red" d="M90.66 62.373l.006.014v-.021l-.006.007z"/><path d="M98.414 60.381l-.188-.096-.269-.064h-.496l-.255.064-.605-.064-.054.192-.08-.159h-.94l-.054.031h-.403l-.067.032-.712-.096-.16.033-.216-.033-.255.096-.134-.063h-.389l-.054.031h-.389l-.054-.03h-.739l-.053.062v.096l-.054.031-.027-.159-.054-.064h-.389l-.054.033H38.384l-.08-.064-.497.095-.135-.031-.12.063-.497-.063h-.765l-.108.063-.054-.032h-.577l-.054.032h-.55l-.175-.063h-.456l-.054.031h-.336l-.054-.031-.604.063-.255-.063-.215.063h-.389l-.054-.032h-.712l-.215.064-.147-.095h-.98l-.08.127h-.095l-.054-.127-.053.031h-.296l-.081-.064-.174.128-.081-.095-.134.031-.362-.064-.323.033-.174.063-.188.207-.081.191v.319l.027.064v.526l-.054.127v.303l.027.064v.558l.08.287.162.16.201.094.524.048.054-.175.107.096.322.079.067-.048h.82l.295-.095.094.031.027.064.497-.031.08-.064.161.095.551-.064.108.033.053.079h.336l.054-.048h.214l.108.08.335-.032.108-.112.967.112.054-.048h.469l.054-.031.712.079.054-.048.053-.127.054-.032v.207l.497-.048.054.048.644-.048.054-.03h.98l.443.11.081-.08 51.658.08.077-.032h.278l.054-.048h-.216l.075-.03h.282l.054.03h.933l.053-.03h.39l.053.03h.605l.054-.03.47.03.187-.095.135.095.47.048.053-.048h.443l.054.048h.417l.053-.048h1.397l.053.048h.498l.026-.048h.336l.054.048h.362l.215-.175.216-.032.12-.223.054-.335-.027-.064v-.812l.027-.032v-.319l.027-.063-.054-.495zm-69.349.096l-.094-.096h.054l.067.032zm.161 2.23h-.054v-.095h.054zm.161-.558l.027-.03.027.094zm.027-1.402l-.054-.064v-.095h.027l.081.032zm.161.383l.027.271v-.032l.04.064-.04-.032h-.027zm.23.59l-.082.063.054.207-.027.096-.228-.032.026-.207-.053-.096h.107l.067-.064.054-.159.134.064zm.052-.59h.054v.111l-.054-.03zm.054.892v.064l-.027-.192.081-.079zm.27.191l-.082.032-.054-.064.027-.063.108.031zm.442.654h-.054l.027-.064.054-.032zm.107-.909l-.053-.032-.054-.143.054-.063.08-.256.067.462zm1.988-.685h.053v.383l-.107-.287zm-.416.16l.026-.032.054.063-.08.033zm-.162-.845l.054-.032v.064l-.054.032zm-.255.064h.067v.095l-.12.032zm-.027.254l.067.032.027.032v.16l-.148-.064-.08-.128zm-.215-.223l.054-.03v.445l-.08-.383zm-.107.287l.027.064v.064l-.188-.096v-.064zm-.604.303l.026-.063.054-.08.027.111zm.134-.462l.027-.159.134-.064.027-.064.027-.11.12.11-.228.287zm.134.59l.027-.064.08.191.23-.095-.028.127-.108.032-.174-.095zm.47.59l-.027.063-.107-.096-.16-.032-.069-.11h.23l.133.11zm-.027-.654l.081.032.027.064v.095l.174.16-.04.063-.16-.19zm.712.781l-.08.095v.191l.053.032-.08.032-.135-.35-.107-.032-.054.063-.174-.159.026-.096.229-.238h.08l-.107-.192.081-.095h.053l.027.032-.027.255.081.031.027.16-.027.08.054.063h.107zm.081-.335l-.054-.032v-.064h.054l.027.033zm.148-.19h-.12v-.065h.12zm.16.94l-.026-.033.053-.032zm.188-.129l-.107.032.107-.127.027.032zm-.053-.62v.27l-.108-.096-.16-.366.241.128h.107zm.107-.543h-.054l-.026-.08.026-.063h.054l.027.063zm.148.256l-.054.031-.04-.064zm0 .78l-.027.064-.027-.032zm.053.75h-.053l-.094-.128v-.064l.147.032.027.096zm.43-1.005l-.134.032-.054-.032.134-.207h.054zm-.08-.366l-.108.031-.215.303h-.053l-.054-.064v-.143l.054-.127v-.128l.026-.064.135-.03.295.063.094.063.027.127zm.604 0l-.027.095-.054-.064zm.027.366l-.215-.064.107-.11.081.046.027.064zm.121.287l.053-.032-.026.096zm.08.781l-.027-.032.054-.032zm0-.972l-.027-.303.054.24zm.108-.398l-.108.031-.027-.127-.107-.032.054-.095.107-.033.081.064.027.064zm.188-.256l-.054.033-.081-.128.081-.064.081-.032zm.053.223l.027-.095.067-.032.027.032zm.175-.03v-.033l.027-.064.027.032zm.873 1.337l-.054-.064v-.063l.054-.064.053.032zm.174-1.466l-.147.223-.08-.254.187-.096.04-.064.027.064zm.27-.159v-.064l.08-.095.026.287zm.268.128l.12.095-.12-.032zm.281.621l-.053.031-.108-.127.134-.064.054.032zm.27.717l.026-.064.04.096zm.173-1.338l-.08-.033h.08zm.323.78h-.054l-.054-.032.081-.096h.054zm.08-.255l-.16-.175h-.135l.107-.19.054-.033.134.191zm-.053-.525l-.108-.064-.027-.064.108-.032.053.032.054.128zm.174.095l-.027-.032.054-.032zm.35-.032l-.108-.032v-.064l.081-.063.107.032.027.064.027.031zm.174.334l.027.032.027.064zm.054-.43l.08-.03v.094h-.08zm.08.526l-.027-.064.027-.079.054.047zm53.074-1.37l.027.032-.08.031zm-1.155 1.036l.134-.128.068.032-.12.16h-.082zm-.019-1.068l.027-.11h.054v.11zm-.035 1.195l-.053.064-.027-.032zm-.134-.223v.127l-.08-.095v-.159zm-.523.064v-.096l.08.064zm.053.191l-.053.303v-.27zm-.08.59l-.027.063h-.054l-.053-.064zm-.134.207l.053-.032v.096h-.053zm-50.778-1.21l-.027-.033.054-.032zm50.496.445l-.027.08-.08-.112.107-.095.08.095zm.443 1.37h-.336l.067-.03h.215l.054.03.523-.03.106.03zm1.074-.813l-.229-.19-.026-.096.094.031.027.128.134.064v.025l.021-.025.027.16-.048-.114zm0-.478l-.08-.302h.107l.053.063-.026.064h.053l.054-.127h.108l.12.063.027.064-.027.064-.067-.032-.053-.127-.08.064-.082.174zm.383-.032v.224l-.107.063-.148-.032.027-.127.067-.064zm-.107-.174l.027.031v.064zm.054 1.18l-.202-.16.094-.033.108.064zm.107-.559h-.054l-.027-.096h.081zm.06-.844h-.228v-.287l.12.031.135.223zm.027-.718h.054l.026.064-.08.063zm.08.941l.027-.033.081-.063h.107l.054.032zm.47-.033l-.08-.095v-.064l.107-.367zm.403-.095h.067l.027.128-.054.031-.067-.095zm-.134-.032l-.108-.032-.027-.095.054.031h.134zm.134 1.434l-.054-.095v-.064l.282.128zm.31-1.466l.026-.095.053-.032zm.442.781l-.027-.255.054-.032zm-.08-.526l-.054-.032.053-.095h.054l.054.031zm.376.366l-.054-.03.027-.065.053.032zm.026-.223l-.08-.175.054-.064h.053zm.202.351l-.027.032-.027-.19.054.03.027.064zm-.054-.287l-.067-.032.094-.11.027.046.027.064zm.43-1.64v.063l-.054-.032zm-.108 1.114v-.095l.108.032.053.127zm.336.256l-.054-.064v-.064l.108.032zm.107-.415l-.08-.032.053-.112h.054l.054.08zm.054-.27l-.027-.065.081.032.026.064zm2.041 0l.027.063-.027.032-.067-.096zm0 1.146l-.067.622.04-.717.054.032zm.134-.334l-.027.08-.08-.08v-.064h.053l.054.064-.054-.223.054-.032zm.9.621l-.027-.064.027-.03.094.094zm.027-.319l-.134.032-.134-.095-.08-.239.053-.064h.054l.026-.096v.367l.109-.032.053-.128.12.096zm-.027-.685h.054l.04.064zm.416-.159l-.08-.095h.08zm.161 1.848h-.08l.027-.063.053-.032z" fill="red"/><path fill="red" d="M32.14 61.656h-.027l.027.095v-.095zM345.559 60.715l-.175-.334-.188-.096-.268-.064h-.497l-.255.064-.605-.064-.054.192-.08-.159h-.94l-.053.031h-.404l-.067.032-.711-.096-.161.033-.215-.033-.255.096-.135-.063h-.39l-.053.031h-.39l-.053-.03h-.738l-.054.062v.096l-.054.031-.027-.159-.053-.064h-.39l-.055.033h-52.202l-.08-.064-.497.095-.135-.031-.12.063-.498-.063h-.765l-.107.063-.055-.032h-.576l-.054.032h-.551l-.175-.063h-.456l-.054.031h-.335l-.054-.031-.604.063-.256-.063-.215.063h-.389l-.054-.032h-.711l-.216.064-.147-.095h-.98l-.08.127h-.095l-.054-.127-.053.031h-.296l-.08-.064-.175.128-.08-.095-.135.031-.362-.064-.323.033-.174.063-.188.207-.08.191v.319l.026.064v.526l-.054.127v.303l.027.064v.558l.081.287.161.16.201.094.524.048.054-.175.107.096.322.079.067-.048h.82l.295-.095.094.031.027.064.497-.031.08-.064.161.095.551-.064.108.033.053.079h.336l.054-.048h.214l.108.08.335-.032.108-.112.967.112.054-.048h.47l.053-.031.712.079.054-.048.053-.127.054-.032v.207l.497-.048.054.048.644-.048.054-.03h.98l.443.11.082-.08 50.974.08.078-.032h.277l.054-.048h-.215l.075-.03h.282l.053.03h.934l.054-.03h.389l.054.03h.604l.054-.03.47.03.188-.095.134.095.47.048.053-.048h.443l.054.048h.417l.053-.048h1.397l.053.048h.497l.027-.048h.336l.054.048h.362l.215-.175.215-.032.12-.223.054-.335-.026-.064v-.812l.026-.032v-.319l.027-.063zm-68.841-.238l-.094-.096h.054l.067.032zm.16 2.23h-.053v-.095h.054zm.162-.558l.027-.03.027.094zm.027-1.402l-.054-.064v-.095h.027l.08.032zm.16.383l.028.271v-.032l.04.064-.04-.032h-.027zm.23.59l-.081.063.054.207-.027.096-.228-.032.026-.207-.053-.096h.107l.067-.064.054-.159.134.064zm.053-.59h.054v.111l-.054-.03zm.054.892v.064l-.027-.192.08-.079zm.269.191l-.081.032-.054-.064.027-.063.108.031zm.443.654h-.054l.027-.064.054-.032zm.107-.909l-.053-.032-.054-.143.054-.063.08-.256.067.462zm1.988-.685h.053v.383l-.107-.287zm-.417.16l.027-.032.054.063-.081.033zm-.161-.845l.054-.032v.064l-.054.032zm-.255.064h.067v.095l-.121.032zm-.028.254l.068.032.027.032v.16l-.148-.064-.08-.128zm-.214-.223l.054-.03v.445l-.081-.383zm-.107.287l.027.064v.064l-.188-.096v-.064zm-.604.303l.026-.063.054-.08.027.111zm.134-.462l.027-.159.134-.064.027-.064.027-.11.12.11-.228.287zm.134.59l.027-.064.08.191.229-.095-.027.127-.108.032-.174-.095zm.47.59l-.027.063-.107-.096-.161-.032-.068-.11h.229l.134.11zm-.027-.654l.08.032.028.064v.095l.174.16-.04.063-.161-.19zm.712.781l-.08.095v.191l.053.032-.08.032-.135-.35-.107-.032-.054.063-.174-.159.025-.096.23-.238h.08l-.108-.192.081-.095h.054l.027.032-.027.255.08.031.028.16-.028.08.055.063h.107zm.08-.335l-.053-.032v-.064h.054l.027.033zm.149-.19h-.121v-.065h.12zm.16.94l-.026-.033.053-.032zm.188-.129l-.107.032.107-.127.027.032zm-.053-.62v.27l-.108-.096-.161-.366.242.128h.107zm.107-.543h-.054l-.027-.08.027-.063h.054l.026.063zm.148.256l-.054.031-.04-.064zm0 .78l-.027.064-.027-.032zm.053.75h-.053l-.094-.128v-.064l.147.032.027.096zm.43-1.005l-.134.032-.054-.032.134-.207h.054zm-.08-.366l-.108.031-.215.303h-.054l-.053-.064v-.143l.053-.127v-.128l.027-.064.135-.03.295.063.094.063.027.127zm.604 0l-.027.095-.054-.064zm.027.366l-.215-.064.107-.11.08.046.028.064zm.12.287l.054-.032-.026.096zm.08.781l-.026-.032.054-.032zm0-.972l-.026-.303.054.24zm.109-.398l-.108.031-.027-.127-.107-.032.054-.095.107-.033.08.064.028.064zm.188-.256l-.054.033-.081-.128.08-.064.08-.032zm.053.223l.027-.095.067-.032.027.032zm.175-.03v-.033l.027-.064.026.032zm.873 1.337l-.054-.064v-.063l.054-.064.053.032zm.174-1.466l-.147.223-.081-.254.188-.096.04-.064.027.064zm.269-.159v-.064l.08-.095.027.287zm.268.128l.12.095-.12-.032zm.282.621l-.053.031-.108-.127.134-.064.054.032zm.269.717l.027-.064.04.096zm.174-1.338l-.08-.033h.08zm.323.78h-.054l-.054-.032.08-.096h.055zm.08-.255l-.161-.175h-.134l.107-.19.054-.033.134.191zm-.053-.525l-.108-.064-.027-.064.108-.032.053.032.054.128zm.174.095l-.027-.032.054-.032zm.349-.032l-.107-.032v-.064l.08-.063.108.032.027.064.027.031zm.175.334l.027.032.027.064zm.054-.43l.08-.03v.094h-.08zm.08.526l-.027-.064.027-.079.054.047zm52.392-1.37l.026.032-.08.031zm-1.156 1.036l.135-.128.067.032-.121.16h-.081zm-.02-1.068l.028-.11h.054v.11zm-.033 1.195l-.054.064-.027-.032zm-.134-.223v.127l-.081-.095v-.159zm-.524.064v-.096l.08.064zm.054.191l-.054.303v-.27zm-.081.59l-.027.063h-.053l-.054-.064zm-.134.207l.054-.032v.096h-.054zm-50.095-1.21l-.027-.033.054-.032zm49.813.445l-.027.08-.081-.112.108-.095.08.095zm.443 1.37h-.336l.067-.03h.215l.054.03.524-.03.105.03zm1.074-.813l-.228-.19-.027-.096.094.031.027.128.134.064v.025l.02-.025.028.16-.048-.114zm0-.478l-.081-.302h.108l.054.063-.027.064h.053l.054-.127h.108l.12.063.027.064-.027.064-.067-.032-.053-.127-.081.064-.081.174zm.384-.032v.224l-.108.063-.148-.032.027-.127.068-.064zm-.108-.174l.027.031v.064zm.054 1.18l-.202-.16.095-.033.107.064zm.107-.559h-.053l-.027-.096h.08zm.06-.844h-.228v-.287l.12.031.135.223zm.027-.718h.054l.026.064-.08.063zm.08.941l.027-.033.08-.063h.108l.054.032zm.47-.033l-.08-.095v-.064l.107-.367zm.403-.095h.067l.027.128-.054.031-.067-.095zm-.134-.032l-.107-.032-.027-.095.053.031h.135zm.134 1.434l-.054-.095v-.064l.282.128zm.309-1.466l.027-.095.053-.032zm.443.781l-.027-.255.054-.032zm-.081-.526l-.053-.032.053-.095h.054l.054.031zm.377.366l-.054-.03.027-.065.053.032zm.026-.223l-.08-.175.054-.064h.053zm.202.351l-.027.032-.027-.19.054.03.027.064zm-.054-.287l-.067-.032.094-.11.027.046.027.064zm.43-1.64v.063l-.054-.032zm-.107 1.114v-.095l.107.032.054.127zm.335.256l-.054-.064v-.064l.108.032zm.108-.415l-.081-.032.054-.112h.053l.054.08zm.053-.27l-.027-.065.08.032.028.064zm2.04 0l.028.063-.027.032-.067-.096zm0 1.146l-.066.622.04-.717.054.032zm.136-.334l-.027.08-.081-.08v-.064h.054l.054.064-.054-.223.054-.032zm.899.621l-.027-.064.027-.03.094.094zm.027-.319l-.134.032-.134-.095-.081-.239.054-.064h.053l.027-.096v.367l.108-.032.053-.128.12.096zm-.027-.685h.054l.04.064zm.417-.159l-.081-.095h.08zm.16 1.848h-.08l.027-.063.054-.032z"/><path fill="red" d="M337.63 62.373l.006.014v-.021l-.006.007zM279.793 61.656h-.027l.027.095v-.095z"/><path d="M241.428 60.72a.26.26 0 00-.191-.077h-1.667a.262.262 0 00-.268.267v1.667a.261.261 0 00.077.192l.025.025a.259.259 0 00.191.076h1.642a.26.26 0 00.19-.076l.026-.025a.26.26 0 00.076-.192v-1.641a.258.258 0 00-.076-.19zM150.897 61.738a4.1 4.1 0 01-.14.534l-.572 1.934h1.425l-.586-1.934a7.995 7.995 0 01-.127-.534zM199.848 60.72a.26.26 0 00-.191-.077h-1.667a.262.262 0 00-.268.267v1.667a.261.261 0 00.077.192l.025.025a.259.259 0 00.191.076h1.642a.26.26 0 00.19-.076l.026-.025a.26.26 0 00.076-.192v-1.641a.258.258 0 00-.076-.19zM207.741 61.738a4.102 4.102 0 01-.14.534l-.573 1.934h1.426l-.586-1.934a7.995 7.995 0 01-.127-.534z" fill="none"/><path d="M116.507 58.862h-1.209a.26.26 0 00-.254.178l-1.973 5.18c-.063.178-.114.356-.165.534a8.643 8.643 0 00-.165-.535l-.65-1.705 1.248-3.296a.268.268 0 00-.255-.356h-1.209a.26.26 0 00-.254.178l-.255.687a3.576 3.576 0 00-.165.522 6.108 6.108 0 00-.166-.522l-.267-.687a.255.255 0 00-.242-.178h-1.209a.269.269 0 00-.267.267.209.209 0 00.013.09l1.247 3.295-.649 1.705a4.235 4.235 0 00-.165.535l-.013-.025a4.045 4.045 0 00-.166-.51l-1.96-5.179a.259.259 0 00-.254-.178h-1.209a.268.268 0 00-.267.267.216.216 0 00.013.09l3.18 8.373a.26.26 0 00.256.178h.84a.255.255 0 00.241-.178l.878-2.304c.064-.165.115-.33.166-.508v-.013a3.564 3.564 0 00.165.521l.865 2.304a.271.271 0 00.255.178h.84a.26.26 0 00.255-.178l3.168-8.374a.266.266 0 00-.242-.356zM122.622 58.862h-3.03a.26.26 0 00-.266.267v1.247a.26.26 0 00.267.267h.623v5.346h-.623a.26.26 0 00-.267.266v1.247a.26.26 0 00.267.268h3.029a.26.26 0 00.267-.268v-1.247a.26.26 0 00-.267-.266h-.624v-5.346h.624a.26.26 0 00.267-.267V59.13a.26.26 0 00-.267-.267zM131.38 58.862h-5.702a.26.26 0 00-.267.267v1.247a.26.26 0 00.267.267h1.96v6.86a.26.26 0 00.267.267h1.247a.26.26 0 00.267-.268v-6.86h1.96a.26.26 0 00.268-.266V59.13a.26.26 0 00-.268-.267zM140.15 58.862h-1.246a.26.26 0 00-.267.267v3.296h-2.673V59.13a.26.26 0 00-.267-.267h-1.247a.26.26 0 00-.267.267v8.373a.26.26 0 00.267.268h1.247a.26.26 0 00.267-.268v-3.296h2.673v3.296a.26.26 0 00.267.268h1.247a.26.26 0 00.267-.268V59.13a.26.26 0 00-.267-.267zM151.839 59.053a.259.259 0 00-.255-.191h-1.387a.27.27 0 00-.254.191l-2.507 8.373a.268.268 0 00.254.344h1.222a.27.27 0 00.254-.19l.484-1.591h2.495l.47 1.59a.275.275 0 00.268.19h1.221a.269.269 0 00.268-.267c0-.025-.013-.05-.013-.076zm-1.654 5.153l.572-1.934a4.1 4.1 0 00.14-.534c.039.178.077.356.127.534l.586 1.934zM167.294 58.862h-1.247a.261.261 0 00-.268.267v5.128a3.7 3.7 0 00-.216-.521l-2.329-4.722a.285.285 0 00-.241-.152h-1.35a.26.26 0 00-.267.267v8.373a.26.26 0 00.268.268h1.247a.26.26 0 00.267-.268v-5.128a3.82 3.82 0 00.216.522l2.33 4.722a.285.285 0 00.24.152h1.35a.261.261 0 00.267-.268V59.13a.261.261 0 00-.267-.267zM175.01 58.862h-4.633a.26.26 0 00-.267.267v8.373a.26.26 0 00.267.268h4.632a.26.26 0 00.267-.268v-1.247a.26.26 0 00-.267-.266h-3.118v-1.783h2.227a.26.26 0 00.268-.266v-1.247a.261.261 0 00-.268-.268h-2.227v-1.782h3.118a.26.26 0 00.267-.267V59.13a.26.26 0 00-.267-.267zM188.692 58.862h-1.209a.26.26 0 00-.254.178l-1.973 5.18c-.063.178-.114.356-.165.534a8.643 8.643 0 00-.165-.535l-.65-1.705 1.248-3.296a.268.268 0 00-.255-.356h-1.209a.26.26 0 00-.254.178l-.255.687a3.576 3.576 0 00-.165.522 6.105 6.105 0 00-.166-.522l-.267-.687a.255.255 0 00-.242-.178h-1.209a.268.268 0 00-.267.267.216.216 0 00.013.09l1.247 3.295-.65 1.705a4.315 4.315 0 00-.164.535l-.013-.025a4.047 4.047 0 00-.166-.51l-1.96-5.179a.26.26 0 00-.254-.178h-1.209a.268.268 0 00-.267.267.216.216 0 00.013.09l3.18 8.373a.26.26 0 00.256.178h.84a.255.255 0 00.241-.178l.878-2.304c.064-.165.115-.33.166-.508v-.013a3.564 3.564 0 00.165.521l.865 2.304a.271.271 0 00.255.178h.84a.26.26 0 00.255-.178l3.168-8.374a.266.266 0 00-.242-.356zM201.095 58.938a.26.26 0 00-.191-.076h-4.696a.26.26 0 00-.267.267v8.373a.26.26 0 00.267.268h1.247a.26.26 0 00.267-.268v-2.85h.904L200 67.618a.285.285 0 00.242.152h1.222a.268.268 0 00.267-.268.37.37 0 00-.025-.114l-1.082-2.33a1.564 1.564 0 00-.28-.406h.56a.26.26 0 00.19-.076l.56-.56a.26.26 0 00.077-.191v-4.136a.258.258 0 00-.076-.19zm-1.146 3.64a.26.26 0 01-.076.19l-.025.026a.26.26 0 01-.191.076h-1.642a.259.259 0 01-.19-.076l-.026-.025a.261.261 0 01-.077-.192V60.91a.262.262 0 01.268-.267h1.667a.26.26 0 01.19.077l.026.025a.258.258 0 01.076.19zM208.683 59.053a.259.259 0 00-.255-.191h-1.387a.27.27 0 00-.254.191l-2.507 8.373a.268.268 0 00.254.344h1.222a.27.27 0 00.254-.19l.484-1.591h2.494l.471 1.59a.275.275 0 00.268.19h1.221a.269.269 0 00.267-.267c0-.025-.012-.05-.012-.076zm-1.655 5.153l.573-1.934a4.102 4.102 0 00.14-.534c.038.178.076.356.127.534l.586 1.934zM221.464 58.862h-1.337a.255.255 0 00-.241.178l-1.973 5.192c-.063.166-.114.344-.165.522a6.105 6.105 0 00-.166-.522l-1.972-5.192a.255.255 0 00-.242-.178h-1.336a.26.26 0 00-.267.267v8.373a.26.26 0 00.267.268h1.247a.26.26 0 00.267-.268v-4.034c.051.179.102.357.165.523l1.362 3.601a.26.26 0 00.255.178h.84a.26.26 0 00.254-.178l1.362-3.601c.064-.166.114-.344.165-.523v4.034a.261.261 0 00.267.268h1.248a.261.261 0 00.267-.268V59.13a.261.261 0 00-.267-.267zM234.705 58.862h-5.702a.26.26 0 00-.267.267v1.247a.26.26 0 00.267.267h1.96v6.86a.26.26 0 00.268.267h1.247a.26.26 0 00.267-.268v-6.86h1.96a.26.26 0 00.267-.266V59.13a.26.26 0 00-.267-.267zM242.675 58.938a.26.26 0 00-.191-.076h-4.696a.26.26 0 00-.267.267v8.373a.26.26 0 00.267.268h1.247a.26.26 0 00.267-.268v-2.85h.904l1.375 2.966a.285.285 0 00.241.152h1.222a.268.268 0 00.267-.268.37.37 0 00-.025-.114l-1.082-2.33a1.564 1.564 0 00-.28-.406h.56a.26.26 0 00.19-.076l.56-.56a.26.26 0 00.077-.191v-4.136a.258.258 0 00-.076-.19zm-1.146 3.64a.26.26 0 01-.076.19l-.025.026a.26.26 0 01-.191.076h-1.642a.259.259 0 01-.19-.076l-.026-.025a.261.261 0 01-.077-.192V60.91a.262.262 0 01.268-.267h1.667a.26.26 0 01.19.077l.026.025a.258.258 0 01.076.19zM251.815 58.862h-1.247a.26.26 0 00-.267.267v6.567a.259.259 0 01-.077.19l-.025.025a.257.257 0 01-.191.078h-2.087a.257.257 0 01-.191-.078l-.025-.025a.259.259 0 01-.077-.19v-6.567a.26.26 0 00-.267-.267h-1.247a.26.26 0 00-.267.267v7.814a.258.258 0 00.076.19l.56.56a.259.259 0 00.19.077h4.582a.259.259 0 00.19-.076l.56-.56a.258.258 0 00.077-.191v-7.814a.26.26 0 00-.267-.267zM259.772 58.938a.26.26 0 00-.19-.076h-4.136a.259.259 0 00-.191.076l-.56.56a.258.258 0 00-.076.19v7.255a.258.258 0 00.076.19l.56.56a.259.259 0 00.19.077h4.137a.26.26 0 00.19-.076l.56-.56a.258.258 0 00.077-.191v-1.578a.261.261 0 00-.267-.268h-1.247a.262.262 0 00-.268.268v.33a.258.258 0 01-.076.191l-.026.025a.257.257 0 01-.19.078h-1.642a.256.256 0 01-.191-.078l-.025-.025a.259.259 0 01-.077-.19v-4.76a.259.259 0 01.077-.19l.025-.026a.26.26 0 01.19-.077h1.642a.26.26 0 01.191.077l.026.025a.258.258 0 01.076.19v.332a.262.262 0 00.268.268h1.247a.261.261 0 00.267-.268v-1.578a.258.258 0 00-.076-.19zM265.744 63.316l3.36-4.022a.299.299 0 00.063-.165.26.26 0 00-.267-.267h-1.629a.266.266 0 00-.203.101l-1.947 2.317a2.629 2.629 0 00-.395.65v-2.8a.26.26 0 00-.267-.268h-1.247a.26.26 0 00-.267.267v8.373a.26.26 0 00.267.268h1.247a.26.26 0 00.267-.268v-2.8a2.61 2.61 0 00.395.65l1.947 2.316a.266.266 0 00.204.102h1.628a.26.26 0 00.268-.268.299.299 0 00-.064-.165z" fill="#fff"/></svg>