<svg xmlns="http://www.w3.org/2000/svg" viewBox="0 0 728 90"><path d="M46.479 28.624V14.533h2.81l5.544 9.602h.039v-9.602h2.537v14.091h-2.596l-5.758-10.032h-.04v10.032zM59.029 23.55a7.366 7.366 0 01.303-2.186 4.77 4.77 0 01.868-1.66 3.83 3.83 0 011.386-1.053 4.827 4.827 0 013.708 0 3.83 3.83 0 011.386 1.054 4.792 4.792 0 01.868 1.659 8.02 8.02 0 010 4.371 4.768 4.768 0 01-.868 1.66 3.802 3.802 0 01-1.386 1.053 4.812 4.812 0 01-3.708 0 3.802 3.802 0 01-1.386-1.054 4.746 4.746 0 01-.868-1.659 7.35 7.35 0 01-.303-2.185zm6.402 0a5.008 5.008 0 00-.488-2.519 1.812 1.812 0 00-3.006 0 5.008 5.008 0 00-.487 2.52 5.003 5.003 0 00.487 2.517 1.812 1.812 0 003.006 0 5.003 5.003 0 00.488-2.518zM68.007 18.475h2.302l1.387 6.324h.039l1.463-6.324h2.244l1.406 6.324h.04l1.443-6.324h2.304l-2.616 10.15h-2.186L74.331 22.3h-.04l-1.484 6.323h-2.185zM82.879 17.305h-1.172v-2.772h2.694v2.772l-1.249 2.926h-1.269zM90.88 21.149a5.93 5.93 0 00-.848-.731 1.759 1.759 0 00-1.045-.342 1.621 1.621 0 00-1.034.273.889.889 0 00-.331.721.806.806 0 00.38.694 4.477 4.477 0 00.937.478q.555.215 1.22.439a5.025 5.025 0 011.22.605 3.368 3.368 0 01.936.976 2.76 2.76 0 01.381 1.513 3.027 3.027 0 01-.283 1.366 2.71 2.71 0 01-.78.946 3.257 3.257 0 01-1.18.557 5.943 5.943 0 01-1.485.176 4.504 4.504 0 01-2.196-.528 4.752 4.752 0 01-1.648-1.522l1.62-1.21a4.964 4.964 0 001.004 1.025 2.18 2.18 0 001.357.44 1.616 1.616 0 001.043-.323 1.017 1.017 0 00.4-.83.831.831 0 00-.38-.702 4.16 4.16 0 00-.937-.489q-.555-.213-1.22-.458a5.811 5.811 0 01-1.22-.614 3.41 3.41 0 01-.936-.937 2.536 2.536 0 01-.38-1.445 2.817 2.817 0 01.273-1.259 2.654 2.654 0 01.741-.926 3.385 3.385 0 011.074-.567 4.134 4.134 0 011.268-.194 5.213 5.213 0 011.962.38 4.073 4.073 0 011.61 1.161zM105.383 28.624l-.157-.878a7.247 7.247 0 01-1.473.791 4.678 4.678 0 01-1.688.283 3.017 3.017 0 01-1.201-.224 2.449 2.449 0 01-.86-.606 2.654 2.654 0 01-.516-.859 2.915 2.915 0 01-.175-1.005 3.038 3.038 0 011.424-2.684 10.33 10.33 0 014.392-1.298v-.859a1.051 1.051 0 00-.42-.897 1.74 1.74 0 00-1.063-.312 2.224 2.224 0 00-1.367.38 4.043 4.043 0 00-.859.869l-1.561-1.191a2.808 2.808 0 01.644-.751 4.616 4.616 0 01.927-.596 5.211 5.211 0 011.083-.39 4.237 4.237 0 011.133-.116 6.894 6.894 0 011.756.233 2.784 2.784 0 011.22.693 2.858 2.858 0 01.702 1.259 7.01 7.01 0 01.224 1.913v4.782a7.273 7.273 0 00.04.761 3.062 3.062 0 00.156.702zm-.254-4.86c-.404.078-.807.163-1.211.254a5.59 5.59 0 00-1.092.36 2.281 2.281 0 00-.791.577 1.299 1.299 0 00-.302.878 1.144 1.144 0 00.332.878 1.172 1.172 0 00.84.313 1.86 1.86 0 00.604-.108 4.004 4.004 0 00.604-.263 4.446 4.446 0 00.557-.35q.264-.196.458-.353zM123.807 19.92q-.428 0-.859.028a1.485 1.485 0 00-.702.205 3.171 3.171 0 01.39.772 3.088 3.088 0 01.157 1.024 3.433 3.433 0 01-.245 1.317 2.848 2.848 0 01-.722 1.035 3.325 3.325 0 01-1.19.684 5.143 5.143 0 01-1.669.244 7.826 7.826 0 00-1.347.097q-.546.098-.546.527 0 .41.498.546a6.315 6.315 0 001.239.186q.74.049 1.6.098a5.959 5.959 0 011.6.302 2.978 2.978 0 011.24.79 2.207 2.207 0 01.497 1.552 2.301 2.301 0 01-.283 1.084 2.917 2.917 0 01-.858.965 4.66 4.66 0 01-1.464.694 7.46 7.46 0 01-2.098.263 7.563 7.563 0 01-3.289-.605 1.938 1.938 0 01-1.239-1.815 1.904 1.904 0 01.166-.82 1.81 1.81 0 01.43-.586 1.76 1.76 0 01.585-.35 1.9 1.9 0 01.654-.118V28a3.193 3.193 0 00-.43-.234 3.014 3.014 0 01-.498-.294 1.534 1.534 0 01-.41-.439 1.242 1.242 0 01-.166-.672 1.316 1.316 0 01.186-.684 2.618 2.618 0 01.44-.557 2.85 2.85 0 01.517-.4 2.429 2.429 0 01.439-.213 5.628 5.628 0 01-1.065-1.133 2.656 2.656 0 01-.439-1.56 3.456 3.456 0 01.254-1.299 3.264 3.264 0 01.761-1.132 3.815 3.815 0 011.25-.8 4.573 4.573 0 011.737-.302 4.017 4.017 0 011.337.243 3.52 3.52 0 011.161.654 2.14 2.14 0 01.928-.703 3.462 3.462 0 011.453-.194zm-5.348 8.509a2.288 2.288 0 00-.829.128 1.812 1.812 0 00-.528.302.965.965 0 00-.282.38 1.033 1.033 0 00-.078.361.901.901 0 00.586.859 5.554 5.554 0 002.107.274 3.297 3.297 0 00.986-.128 2.3 2.3 0 00.644-.302 1.178 1.178 0 00.352-.37.737.737 0 00.107-.333.676.676 0 00-.146-.38 1.323 1.323 0 00-.508-.38 3.997 3.997 0 00-.946-.294 7.64 7.64 0 00-1.465-.117zm2.108-6.674a1.623 1.623 0 00-.487-1.191 1.597 1.597 0 00-1.171-.488 1.715 1.715 0 00-1.27.488 1.697 1.697 0 000 2.38 1.716 1.716 0 001.27.489 1.599 1.599 0 001.171-.489 1.62 1.62 0 00.487-1.19zM124.744 28.624v-10.15h2.224v1.738h.04a3.788 3.788 0 011.103-1.405 3.035 3.035 0 011.746-.526v2.556a.994.994 0 00-.196-.02h-.233a1.757 1.757 0 00-.859.225 3.814 3.814 0 00-.723.507 3.38 3.38 0 00-.498.547.857.857 0 00-.185.361v6.167zM132.765 23.94a3.481 3.481 0 00.644 2.254 1.895 1.895 0 001.463.674 2.277 2.277 0 001.328-.342 5.073 5.073 0 00.937-.869l1.757 1.094a4.178 4.178 0 01-1.748 1.58 5.873 5.873 0 01-2.507.489 4.153 4.153 0 01-1.786-.372 3.774 3.774 0 01-1.346-1.054 4.843 4.843 0 01-.86-1.659 8.02 8.02 0 010-4.371 4.77 4.77 0 01.869-1.66 3.83 3.83 0 011.386-1.053 4.461 4.461 0 011.854-.37 3.931 3.931 0 011.766.38 3.84 3.84 0 011.298 1.024 4.498 4.498 0 01.8 1.494 5.717 5.717 0 01.274 1.765v.996zm3.903-1.64a2.546 2.546 0 00-.555-1.639 1.957 1.957 0 00-2.791 0 2.539 2.539 0 00-.557 1.64zM145.765 28.624l-.157-.878a7.247 7.247 0 01-1.473.791 4.678 4.678 0 01-1.688.283 3.017 3.017 0 01-1.201-.224 2.449 2.449 0 01-.859-.606 2.654 2.654 0 01-.517-.859 2.915 2.915 0 01-.175-1.005 3.038 3.038 0 011.424-2.684 10.33 10.33 0 014.392-1.298v-.859a1.051 1.051 0 00-.42-.897 1.74 1.74 0 00-1.063-.312 2.224 2.224 0 00-1.367.38 4.043 4.043 0 00-.859.869l-1.56-1.191a2.808 2.808 0 01.643-.751 4.616 4.616 0 01.928-.596 5.211 5.211 0 011.082-.39 4.237 4.237 0 011.133-.116 6.894 6.894 0 011.756.233 2.784 2.784 0 011.22.693 2.858 2.858 0 01.702 1.259 7.01 7.01 0 01.224 1.913v4.782a7.273 7.273 0 00.04.761 3.062 3.062 0 00.156.702zm-.254-4.86c-.404.078-.807.163-1.21.254a5.59 5.59 0 00-1.093.36 2.281 2.281 0 00-.79.577 1.299 1.299 0 00-.303.878 1.144 1.144 0 00.332.878 1.172 1.172 0 00.84.313 1.86 1.86 0 00.604-.108 4.005 4.005 0 00.605-.263 4.446 4.446 0 00.556-.35q.264-.196.459-.353zM150.215 18.475v-3.357h2.42v3.357h1.99v1.952h-1.99v5.738a.63.63 0 00.215.557 1.194 1.194 0 00.663.146 2.354 2.354 0 00.556-.068c.19-.046.374-.089.557-.128v1.991c-.34.04-.657.075-.957.107a8.829 8.829 0 01-.956.05 2.514 2.514 0 01-1.922-.626 2.431 2.431 0 01-.576-1.717v-6.05h-1.405v-1.952zM162.276 18.475v-3.357h2.42v3.357h1.99v1.952h-1.99v5.738a.63.63 0 00.215.557 1.194 1.194 0 00.663.146 2.354 2.354 0 00.556-.068c.19-.046.374-.089.557-.128v1.991c-.339.04-.657.075-.957.107a8.829 8.829 0 01-.956.05 2.514 2.514 0 01-1.922-.626 2.431 2.431 0 01-.576-1.717v-6.05h-1.405v-1.952zM168.092 16.6v-2.263h2.42v2.264zm2.42 12.024h-2.42v-10.15h2.42zM172.582 28.624v-10.15h2.205v1.094a6.045 6.045 0 011.347-.956 3.785 3.785 0 011.698-.331 3.071 3.071 0 011.483.37 2.292 2.292 0 011.015 1.112 6.913 6.913 0 01.663-.585 3.994 3.994 0 01.772-.469 4.687 4.687 0 01.926-.312 5.043 5.043 0 011.133-.116 2.835 2.835 0 01.83.135 2.14 2.14 0 01.809.478 2.589 2.589 0 01.615.937 3.96 3.96 0 01.243 1.494v7.3h-2.42V21.54a1.429 1.429 0 00-.273-.948 1.28 1.28 0 00-.937-.36 2.004 2.004 0 00-1.035.351 6.9 6.9 0 00-.994.741v7.3h-2.42V21.54a1.436 1.436 0 00-.273-.948 1.283 1.283 0 00-.937-.36 1.997 1.997 0 00-1.035.351 6.843 6.843 0 00-.995.741v7.3zM190.089 23.94a3.481 3.481 0 00.643 2.254 1.895 1.895 0 001.464.674 2.277 2.277 0 001.328-.342 5.072 5.072 0 00.936-.869l1.757 1.094a4.178 4.178 0 01-1.747 1.58 5.873 5.873 0 01-2.508.489 4.153 4.153 0 01-1.786-.372 3.774 3.774 0 01-1.346-1.054 4.843 4.843 0 01-.859-1.659 8.02 8.02 0 010-4.371 4.77 4.77 0 01.868-1.66 3.83 3.83 0 011.386-1.053 4.461 4.461 0 011.855-.37 3.931 3.931 0 011.765.38 3.84 3.84 0 011.298 1.024 4.498 4.498 0 01.8 1.494 5.717 5.717 0 01.274 1.765v.996zm3.902-1.64a2.546 2.546 0 00-.555-1.639 1.957 1.957 0 00-2.79 0 2.539 2.539 0 00-.557 1.64zM204.16 18.475v-3.357h2.42v3.357h1.991v1.952h-1.99v5.738a.63.63 0 00.214.557 1.194 1.194 0 00.664.146 2.354 2.354 0 00.556-.068c.189-.046.374-.089.556-.128v1.991c-.338.04-.656.075-.956.107a8.829 8.829 0 01-.957.05 2.514 2.514 0 01-1.921-.626 2.431 2.431 0 01-.576-1.717v-6.05h-1.405v-1.952zM209.059 23.55a7.366 7.366 0 01.303-2.186 4.77 4.77 0 01.868-1.66 3.83 3.83 0 011.387-1.053 4.827 4.827 0 013.707 0 3.83 3.83 0 011.386 1.054 4.792 4.792 0 01.868 1.659 8.02 8.02 0 010 4.371 4.768 4.768 0 01-.868 1.66 3.802 3.802 0 01-1.386 1.053 4.812 4.812 0 01-3.707 0 3.802 3.802 0 01-1.387-1.054 4.746 4.746 0 01-.868-1.659 7.35 7.35 0 01-.303-2.185zm6.402 0a5.008 5.008 0 00-.488-2.519 1.812 1.812 0 00-3.006 0 5.008 5.008 0 00-.487 2.52 5.003 5.003 0 00.487 2.517 1.812 1.812 0 003.006 0 5.003 5.003 0 00.488-2.518zM232.636 18.631a3.288 3.288 0 00-.926-1.463 2.356 2.356 0 00-1.63-.567 2.382 2.382 0 00-2.118 1.24 7.193 7.193 0 00-.771 3.738q-.059 4.976 2.967 4.976a3.334 3.334 0 00.83-.098 2.032 2.032 0 00.702-.33 3.043 3.043 0 00.625-.635 5.806 5.806 0 00.595-1.024l2.498.663a5.31 5.31 0 01-1.961 2.761 5.627 5.627 0 01-3.289.928 5.005 5.005 0 01-4.187-1.884 8.52 8.52 0 01-1.473-5.357 8.528 8.528 0 011.473-5.359 5.008 5.008 0 014.187-1.883 5.189 5.189 0 013.22.907 5.017 5.017 0 011.7 2.802zM236.832 28.624V14.533h2.694v5.62h5.426v-5.62h2.693v14.091h-2.693v-6.05h-5.426v6.05zM250.182 28.624V14.533h9.33v2.263h-6.636v3.357h4.821v2.265h-4.821v3.943h6.851v2.263zM268.45 18.631a3.288 3.288 0 00-.926-1.463 2.356 2.356 0 00-1.63-.567 2.382 2.382 0 00-2.118 1.24 7.193 7.193 0 00-.772 3.738q-.058 4.976 2.968 4.976a3.334 3.334 0 00.83-.098 2.032 2.032 0 00.702-.33 3.043 3.043 0 00.624-.635 5.805 5.805 0 00.596-1.024l2.498.663a5.31 5.31 0 01-1.961 2.761 5.627 5.627 0 01-3.29.928 5.005 5.005 0 01-4.186-1.884 8.521 8.521 0 01-1.474-5.357 8.528 8.528 0 011.474-5.359 5.008 5.008 0 014.187-1.883 5.189 5.189 0 013.22.907 5.017 5.017 0 011.699 2.802zM272.589 28.624V14.533h2.693v6.265l4.704-6.265h3.104l-4.002 5.29 4.646 8.801h-2.987l-3.493-6.695-1.972 2.46v4.235zM289.862 30.264a3.174 3.174 0 00.507.069c.156.006.326.009.508.009a2.31 2.31 0 001.005-.185 1.301 1.301 0 00.595-.615q.176-.372.283-.624a1.441 1.441 0 00.107-.567 1.806 1.806 0 00-.107-.585q-.107-.313-.205-.625l-2.713-8.666h2.44l1.678 6.245h.04l1.736-6.245h2.421l-3.201 10.169a15.278 15.278 0 01-.791 1.805 4.29 4.29 0 01-.829 1.132 2.515 2.515 0 01-1.005.586 4.608 4.608 0 01-1.299.166 9.72 9.72 0 01-.702-.02 4.578 4.578 0 01-.468-.058zM298.213 23.55a7.366 7.366 0 01.304-2.186 4.77 4.77 0 01.868-1.66 3.83 3.83 0 011.386-1.053 4.827 4.827 0 013.708 0 3.83 3.83 0 011.386 1.054 4.791 4.791 0 01.868 1.659 8.02 8.02 0 010 4.371 4.768 4.768 0 01-.868 1.66 3.802 3.802 0 01-1.386 1.053 4.812 4.812 0 01-3.708 0 3.802 3.802 0 01-1.386-1.054 4.747 4.747 0 01-.868-1.659 7.35 7.35 0 01-.304-2.185zm6.402 0a5.008 5.008 0 00-.487-2.519 1.812 1.812 0 00-3.006 0 5.008 5.008 0 00-.487 2.52 5.003 5.003 0 00.487 2.517 1.812 1.812 0 003.006 0 5.003 5.003 0 00.487-2.518zM316.697 18.475v10.15h-2.224V27.53a14.992 14.992 0 01-1.454.878 3.501 3.501 0 01-1.67.41 2.737 2.737 0 01-2.263-.917 3.823 3.823 0 01-.741-2.478v-6.95h2.42v6.598a2.323 2.323 0 00.312 1.415 1.138 1.138 0 00.937.38 2.529 2.529 0 001.375-.36 4.105 4.105 0 00.889-.713v-7.32zM318.571 28.624v-10.15h2.225v1.738h.039a3.788 3.788 0 011.103-1.405 3.035 3.035 0 011.747-.526v2.556a.994.994 0 00-.196-.02h-.233a1.757 1.757 0 00-.859.225 3.814 3.814 0 00-.723.507 3.38 3.38 0 00-.498.547.857.857 0 00-.185.361v6.167zM32.806 37.954h2.42v4.879h.039a2.24 2.24 0 01.467-.448 3.197 3.197 0 01.635-.361 4.571 4.571 0 01.693-.235 2.732 2.732 0 01.663-.087 3.482 3.482 0 011.737.429 4.007 4.007 0 011.279 1.132 5.056 5.056 0 01.78 1.6 6.474 6.474 0 01.265 1.835 9.079 9.079 0 01-.254 2.206 5.433 5.433 0 01-.761 1.757 3.676 3.676 0 01-1.27 1.16 3.63 3.63 0 01-1.776.42 3.144 3.144 0 01-1.463-.332 5.483 5.483 0 01-1.289-.957l-.273 1.094h-1.892zm2.42 11.437c.13.105.25.209.36.313a2.323 2.323 0 00.372.283 2.135 2.135 0 00.478.215 2.218 2.218 0 00.663.087 1.915 1.915 0 001.679-.85 4.33 4.33 0 00.585-2.467 4.334 4.334 0 00-.585-2.47 1.918 1.918 0 00-1.679-.85 2.06 2.06 0 00-1.045.265 4.878 4.878 0 00-.829.594zM51.523 41.896v10.15h-2.224v-1.094a14.989 14.989 0 01-1.455.879 3.502 3.502 0 01-1.669.41 2.737 2.737 0 01-2.263-.917 3.823 3.823 0 01-.742-2.479v-6.949h2.42v6.598a2.323 2.323 0 00.313 1.415 1.138 1.138 0 00.937.38 2.529 2.529 0 001.374-.36 4.105 4.105 0 00.89-.714v-7.319zM58.432 44.57a5.93 5.93 0 00-.849-.731 1.759 1.759 0 00-1.045-.341 1.621 1.621 0 00-1.034.272.889.889 0 00-.331.722.807.807 0 00.38.693 4.477 4.477 0 00.937.478q.555.215 1.22.44a5.025 5.025 0 011.22.604 3.368 3.368 0 01.936.976 2.76 2.76 0 01.38 1.513 3.027 3.027 0 01-.282 1.367 2.709 2.709 0 01-.78.946 3.257 3.257 0 01-1.181.556 5.943 5.943 0 01-1.484.176 4.504 4.504 0 01-2.196-.528 4.752 4.752 0 01-1.648-1.522l1.62-1.21a4.964 4.964 0 001.004 1.025 2.18 2.18 0 001.357.44 1.616 1.616 0 001.043-.322 1.017 1.017 0 00.4-.83.831.831 0 00-.38-.703 4.16 4.16 0 00-.937-.488q-.555-.213-1.22-.46a5.811 5.811 0 01-1.22-.613 3.41 3.41 0 01-.936-.937 2.536 2.536 0 01-.38-1.445 2.817 2.817 0 01.273-1.259 2.654 2.654 0 01.741-.926 3.386 3.386 0 011.074-.567 4.135 4.135 0 011.268-.194 5.213 5.213 0 011.962.38 4.073 4.073 0 011.61 1.161zM61.75 40.022V37.76h2.42v2.263zm2.42 12.024h-2.42v-10.15h2.42zM66.24 52.046v-10.15h2.224v1.093a15.095 15.095 0 011.454-.878 3.493 3.493 0 011.67-.41 2.734 2.734 0 012.263.918 3.83 3.83 0 01.741 2.479v6.948h-2.42v-6.598a2.323 2.323 0 00-.312-1.415 1.144 1.144 0 00-.937-.38 2.548 2.548 0 00-1.376.36 4.125 4.125 0 00-.887.713v7.32zM78.34 47.361a3.481 3.481 0 00.644 2.254 1.895 1.895 0 001.463.674 2.277 2.277 0 001.328-.341 5.072 5.072 0 00.937-.87l1.756 1.094a4.178 4.178 0 01-1.747 1.58 5.873 5.873 0 01-2.507.49 4.153 4.153 0 01-1.787-.372 3.774 3.774 0 01-1.346-1.054 4.843 4.843 0 01-.858-1.66 8.02 8.02 0 010-4.371 4.77 4.77 0 01.867-1.659 3.831 3.831 0 011.387-1.054 4.461 4.461 0 011.854-.37 3.931 3.931 0 011.766.38 3.84 3.84 0 011.298 1.025 4.498 4.498 0 01.8 1.493 5.717 5.717 0 01.273 1.766v.995zm3.903-1.64a2.546 2.546 0 00-.555-1.638 1.957 1.957 0 00-2.792 0 2.539 2.539 0 00-.556 1.639zM91.085 44.57a5.93 5.93 0 00-.848-.731 1.759 1.759 0 00-1.045-.341 1.621 1.621 0 00-1.035.272.889.889 0 00-.33.722.807.807 0 00.38.693 4.478 4.478 0 00.937.478q.555.215 1.22.44a5.025 5.025 0 011.22.604 3.369 3.369 0 01.936.976 2.76 2.76 0 01.38 1.513 3.027 3.027 0 01-.282 1.367 2.71 2.71 0 01-.78.946 3.256 3.256 0 01-1.181.556 5.943 5.943 0 01-1.485.176 4.504 4.504 0 01-2.195-.528 4.752 4.752 0 01-1.649-1.522l1.62-1.21a4.964 4.964 0 001.005 1.025 2.18 2.18 0 001.356.44 1.616 1.616 0 001.044-.322 1.017 1.017 0 00.4-.83.831.831 0 00-.38-.703 4.16 4.16 0 00-.937-.488q-.555-.213-1.22-.46a5.811 5.811 0 01-1.22-.613 3.41 3.41 0 01-.937-.937 2.536 2.536 0 01-.38-1.445 2.818 2.818 0 01.274-1.259 2.654 2.654 0 01.741-.926 3.386 3.386 0 011.074-.567 4.135 4.135 0 011.268-.194 5.213 5.213 0 011.962.38 4.073 4.073 0 011.61 1.161zM99.438 44.57a5.93 5.93 0 00-.848-.731 1.759 1.759 0 00-1.045-.341 1.621 1.621 0 00-1.035.272.889.889 0 00-.33.722.807.807 0 00.38.693 4.477 4.477 0 00.936.478q.556.215 1.22.44a5.025 5.025 0 011.22.604 3.369 3.369 0 01.937.976 2.76 2.76 0 01.38 1.513 3.027 3.027 0 01-.283 1.367 2.71 2.71 0 01-.78.946 3.256 3.256 0 01-1.18.556 5.943 5.943 0 01-1.485.176 4.504 4.504 0 01-2.196-.528 4.752 4.752 0 01-1.648-1.522l1.62-1.21a4.964 4.964 0 001.004 1.025 2.18 2.18 0 001.357.44 1.616 1.616 0 001.044-.322 1.017 1.017 0 00.4-.83.831.831 0 00-.38-.703 4.16 4.16 0 00-.938-.488q-.555-.213-1.22-.46a5.811 5.811 0 01-1.219-.613 3.41 3.41 0 01-.937-.937 2.536 2.536 0 01-.38-1.445 2.817 2.817 0 01.273-1.259 2.654 2.654 0 01.742-.926 3.386 3.386 0 011.073-.567 4.135 4.135 0 011.268-.194 5.213 5.213 0 011.963.38 4.073 4.073 0 011.609 1.161zM103.517 40.726h-1.172v-2.772h2.694v2.772l-1.249 2.927h-1.269zM114.877 47.361a3.481 3.481 0 00.644 2.254 1.895 1.895 0 001.463.674 2.277 2.277 0 001.328-.341 5.073 5.073 0 00.937-.87l1.756 1.094a4.178 4.178 0 01-1.747 1.58 5.873 5.873 0 01-2.507.49 4.153 4.153 0 01-1.787-.372 3.774 3.774 0 01-1.346-1.054 4.843 4.843 0 01-.859-1.66 8.02 8.02 0 010-4.371 4.77 4.77 0 01.868-1.659 3.83 3.83 0 011.387-1.054 4.461 4.461 0 011.854-.37 3.931 3.931 0 011.766.38 3.84 3.84 0 011.297 1.025 4.498 4.498 0 01.8 1.493 5.717 5.717 0 01.274 1.766v.995zm3.903-1.64a2.546 2.546 0 00-.556-1.638 1.957 1.957 0 00-2.79 0 2.539 2.539 0 00-.557 1.639zM122.625 52.046V37.954h2.421v14.092zM127.231 40.022V37.76h2.421v2.263zm2.421 12.024h-2.42v-10.15h2.42zM140.151 43.341q-.428 0-.859.029a1.485 1.485 0 00-.702.204 3.17 3.17 0 01.391.772 3.088 3.088 0 01.156 1.024 3.433 3.433 0 01-.245 1.317 2.848 2.848 0 01-.722 1.035 3.325 3.325 0 01-1.19.684 5.143 5.143 0 01-1.668.244 7.825 7.825 0 00-1.348.098q-.545.097-.546.526 0 .41.498.546a6.314 6.314 0 001.24.186q.74.05 1.6.098a5.96 5.96 0 011.6.302 2.978 2.978 0 011.24.79 2.208 2.208 0 01.496 1.552 2.301 2.301 0 01-.282 1.084 2.917 2.917 0 01-.859.966 4.66 4.66 0 01-1.463.693 7.46 7.46 0 01-2.098.263 7.564 7.564 0 01-3.29-.604 1.938 1.938 0 01-1.238-1.816 1.904 1.904 0 01.165-.82 1.81 1.81 0 01.43-.586 1.76 1.76 0 01.585-.35 1.9 1.9 0 01.654-.117v-.04a3.195 3.195 0 00-.43-.234 3.013 3.013 0 01-.498-.293 1.534 1.534 0 01-.409-.44 1.242 1.242 0 01-.166-.672 1.316 1.316 0 01.186-.684 2.618 2.618 0 01.439-.556 2.85 2.85 0 01.517-.4 2.43 2.43 0 01.44-.214 5.628 5.628 0 01-1.065-1.132 2.656 2.656 0 01-.44-1.561 3.456 3.456 0 01.255-1.298 3.264 3.264 0 01.76-1.133 3.815 3.815 0 011.25-.8 4.573 4.573 0 011.737-.302 4.017 4.017 0 011.337.244 3.52 3.52 0 011.161.654 2.14 2.14 0 01.928-.704 3.462 3.462 0 011.453-.194zm-5.348 8.51a2.288 2.288 0 00-.828.127 1.812 1.812 0 00-.528.302.965.965 0 00-.283.38 1.033 1.033 0 00-.078.362.901.901 0 00.586.858 5.554 5.554 0 002.107.274 3.297 3.297 0 00.987-.128 2.3 2.3 0 00.643-.302 1.178 1.178 0 00.352-.37.737.737 0 00.107-.332.676.676 0 00-.146-.38 1.323 1.323 0 00-.508-.381 3.997 3.997 0 00-.946-.293 7.64 7.64 0 00-1.465-.118zm2.109-6.675a1.623 1.623 0 00-.488-1.191 1.597 1.597 0 00-1.171-.487 1.715 1.715 0 00-1.27.487 1.697 1.697 0 000 2.38 1.716 1.716 0 001.27.49 1.599 1.599 0 001.171-.49 1.62 1.62 0 00.488-1.19zM141.303 40.022V37.76h2.421v2.263zm2.421 12.024h-2.42v-10.15h2.42zM145.793 37.954h2.42v4.879h.04a2.24 2.24 0 01.467-.448 3.197 3.197 0 01.635-.361 4.571 4.571 0 01.693-.235 2.732 2.732 0 01.663-.087 3.482 3.482 0 011.737.429 4.007 4.007 0 011.279 1.132 5.056 5.056 0 01.78 1.6 6.474 6.474 0 01.265 1.835 9.079 9.079 0 01-.255 2.206 5.433 5.433 0 01-.76 1.756 3.676 3.676 0 01-1.27 1.161 3.63 3.63 0 01-1.776.42 3.144 3.144 0 01-1.463-.332 5.483 5.483 0 01-1.289-.957l-.274 1.094h-1.892zm2.42 11.437c.13.105.25.209.361.313a2.323 2.323 0 00.372.283 2.135 2.135 0 00.478.215 2.218 2.218 0 00.663.087 1.915 1.915 0 001.678-.85 4.33 4.33 0 00.585-2.467 4.334 4.334 0 00-.585-2.47 1.918 1.918 0 00-1.678-.85 2.06 2.06 0 00-1.045.265 4.878 4.878 0 00-.829.594zM156.35 40.022V37.76h2.422v2.263zm2.422 12.024h-2.421v-10.15h2.421zM160.957 52.046V37.954h2.421v14.092zM165.564 40.022V37.76h2.42v2.263zm2.42 12.024h-2.42v-10.15h2.42zM170.52 41.896V38.54h2.42v3.357h1.991v1.952h-1.99v5.739a.63.63 0 00.214.556 1.194 1.194 0 00.664.146 2.354 2.354 0 00.556-.068c.189-.045.374-.088.556-.127v1.99c-.338.04-.656.075-.956.108a8.829 8.829 0 01-.957.05 2.514 2.514 0 01-1.922-.626 2.431 2.431 0 01-.576-1.718v-6.05h-1.404v-1.952zM175.537 53.685a3.175 3.175 0 00.507.07c.157.006.326.008.508.008a2.31 2.31 0 001.005-.185 1.301 1.301 0 00.596-.615q.175-.371.282-.624a1.441 1.441 0 00.107-.567 1.806 1.806 0 00-.107-.585q-.107-.313-.204-.624l-2.713-8.667h2.44l1.677 6.246h.04l1.737-6.246h2.42l-3.201 10.17a15.28 15.28 0 01-.791 1.804 4.29 4.29 0 01-.829 1.132 2.515 2.515 0 01-1.004.587 4.608 4.608 0 01-1.3.165 9.72 9.72 0 01-.702-.02 4.579 4.579 0 01-.468-.058zM193.649 43.848v8.198h-2.42v-8.198h-1.405v-1.952h1.385v-1.248a4.866 4.866 0 01.167-1.376 1.96 1.96 0 01.516-.889 2.072 2.072 0 01.898-.478 5.014 5.014 0 011.289-.146h1.6v1.952h-.663a1.692 1.692 0 00-1.064.253 1.04 1.04 0 00-.303.84v1.092h2.05v1.952zM196.108 46.972a7.366 7.366 0 01.303-2.187 4.77 4.77 0 01.868-1.659 3.831 3.831 0 011.386-1.054 4.827 4.827 0 013.708 0 3.83 3.83 0 011.386 1.054 4.791 4.791 0 01.868 1.659 8.02 8.02 0 010 4.372 4.768 4.768 0 01-.868 1.659 3.802 3.802 0 01-1.386 1.054 4.812 4.812 0 01-3.708 0 3.802 3.802 0 01-1.386-1.054 4.746 4.746 0 01-.868-1.66 7.35 7.35 0 01-.303-2.184zm6.402 0a5.008 5.008 0 00-.488-2.52 1.812 1.812 0 00-3.006 0 5.008 5.008 0 00-.487 2.52 5.003 5.003 0 00.487 2.517 1.812 1.812 0 003.006 0 5.003 5.003 0 00.488-2.517zM206.179 52.046v-10.15h2.224v1.737h.04a3.788 3.788 0 011.103-1.405 3.035 3.035 0 011.746-.526v2.557a.995.995 0 00-.195-.02h-.233a1.757 1.757 0 00-.86.224 3.814 3.814 0 00-.722.507 3.38 3.38 0 00-.498.547.857.857 0 00-.185.361v6.168zM218.807 41.896V38.54h2.42v3.357h1.99v1.952h-1.99v5.739a.63.63 0 00.215.556 1.194 1.194 0 00.663.146 2.354 2.354 0 00.556-.068c.19-.045.374-.088.557-.127v1.99c-.339.04-.657.075-.957.108a8.829 8.829 0 01-.956.05 2.514 2.514 0 01-1.922-.626 2.431 2.431 0 01-.576-1.718v-6.05h-1.405v-1.952zM224.448 52.046V37.954h2.42v5.035a8.675 8.675 0 011.298-.878 3.27 3.27 0 011.63-.41 2.734 2.734 0 012.263.918 3.83 3.83 0 01.742 2.479v6.948h-2.42v-6.598a2.323 2.323 0 00-.313-1.415 1.144 1.144 0 00-.937-.38 2.548 2.548 0 00-1.376.36 4.126 4.126 0 00-.887.713v7.32zM236.548 47.361a3.481 3.481 0 00.644 2.254 1.895 1.895 0 001.463.674 2.277 2.277 0 001.328-.341 5.073 5.073 0 00.937-.87l1.757 1.094a4.178 4.178 0 01-1.748 1.58 5.873 5.873 0 01-2.507.49 4.153 4.153 0 01-1.786-.372 3.774 3.774 0 01-1.346-1.054 4.843 4.843 0 01-.86-1.66 8.02 8.02 0 010-4.371 4.77 4.77 0 01.869-1.659 3.83 3.83 0 011.386-1.054 4.461 4.461 0 011.854-.37 3.931 3.931 0 011.766.38 3.84 3.84 0 011.298 1.025 4.498 4.498 0 01.8 1.493 5.717 5.717 0 01.274 1.766v.995zm3.903-1.64a2.546 2.546 0 00-.555-1.638 1.957 1.957 0 00-2.791 0 2.539 2.539 0 00-.557 1.639zM258.505 43.341q-.428 0-.859.029a1.485 1.485 0 00-.702.204 3.171 3.171 0 01.39.772 3.088 3.088 0 01.157 1.024 3.433 3.433 0 01-.245 1.317 2.848 2.848 0 01-.722 1.035 3.325 3.325 0 01-1.19.684 5.143 5.143 0 01-1.669.244 7.825 7.825 0 00-1.347.098q-.545.097-.546.526 0 .41.498.546a6.314 6.314 0 001.239.186q.74.05 1.6.098a5.96 5.96 0 011.6.302 2.978 2.978 0 011.24.79 2.208 2.208 0 01.497 1.552 2.301 2.301 0 01-.282 1.084 2.917 2.917 0 01-.86.966 4.66 4.66 0 01-1.463.693 7.46 7.46 0 01-2.097.263 7.564 7.564 0 01-3.29-.604 1.938 1.938 0 01-1.239-1.816 1.904 1.904 0 01.166-.82 1.81 1.81 0 01.43-.586 1.76 1.76 0 01.585-.35 1.9 1.9 0 01.654-.117v-.04a3.195 3.195 0 00-.43-.234 3.013 3.013 0 01-.498-.293 1.534 1.534 0 01-.409-.44 1.242 1.242 0 01-.167-.672 1.316 1.316 0 01.187-.684 2.618 2.618 0 01.439-.556 2.85 2.85 0 01.517-.4 2.429 2.429 0 01.44-.214 5.628 5.628 0 01-1.065-1.132 2.656 2.656 0 01-.44-1.561 3.456 3.456 0 01.255-1.298 3.264 3.264 0 01.76-1.133 3.815 3.815 0 011.25-.8 4.573 4.573 0 011.737-.302 4.017 4.017 0 011.337.244 3.52 3.52 0 011.161.654 2.14 2.14 0 01.928-.704 3.462 3.462 0 011.453-.194zm-5.348 8.51a2.288 2.288 0 00-.829.127 1.812 1.812 0 00-.527.302.965.965 0 00-.283.38 1.033 1.033 0 00-.078.362.901.901 0 00.586.858 5.554 5.554 0 002.107.274 3.297 3.297 0 00.987-.128 2.3 2.3 0 00.643-.302 1.178 1.178 0 00.352-.37.737.737 0 00.107-.332.676.676 0 00-.146-.38 1.323 1.323 0 00-.508-.381 3.997 3.997 0 00-.946-.293 7.64 7.64 0 00-1.465-.118zm2.109-6.675a1.623 1.623 0 00-.488-1.191 1.597 1.597 0 00-1.171-.487 1.715 1.715 0 00-1.27.487 1.697 1.697 0 000 2.38 1.716 1.716 0 001.27.49 1.599 1.599 0 001.171-.49 1.62 1.62 0 00.488-1.19zM258.74 46.972a7.366 7.366 0 01.303-2.187 4.77 4.77 0 01.868-1.659 3.83 3.83 0 011.386-1.054 4.827 4.827 0 013.708 0 3.831 3.831 0 011.386 1.054 4.791 4.791 0 01.868 1.659 8.02 8.02 0 010 4.372 4.768 4.768 0 01-.868 1.659 3.802 3.802 0 01-1.386 1.054 4.812 4.812 0 01-3.708 0 3.802 3.802 0 01-1.386-1.054 4.746 4.746 0 01-.868-1.66 7.35 7.35 0 01-.303-2.184zm6.402 0a5.008 5.008 0 00-.488-2.52 1.812 1.812 0 00-3.006 0 5.008 5.008 0 00-.487 2.52 5.003 5.003 0 00.487 2.517 1.812 1.812 0 003.006 0 5.003 5.003 0 00.488-2.517zM267.66 41.896h2.419l1.678 6.871h.04l1.717-6.87h2.42l-2.908 10.149h-2.537zM278.472 47.361a3.481 3.481 0 00.644 2.254 1.895 1.895 0 001.463.674 2.277 2.277 0 001.328-.341 5.072 5.072 0 00.937-.87l1.756 1.094a4.178 4.178 0 01-1.747 1.58 5.873 5.873 0 01-2.507.49 4.153 4.153 0 01-1.787-.372 3.774 3.774 0 01-1.346-1.054 4.843 4.843 0 01-.859-1.66 8.02 8.02 0 010-4.371 4.77 4.77 0 01.868-1.659 3.831 3.831 0 011.387-1.054 4.461 4.461 0 011.854-.37 3.931 3.931 0 011.766.38 3.84 3.84 0 011.298 1.025 4.498 4.498 0 01.8 1.493 5.717 5.717 0 01.273 1.766v.995zm3.903-1.64a2.546 2.546 0 00-.555-1.638 1.957 1.957 0 00-2.792 0 2.539 2.539 0 00-.556 1.639zM286.026 52.046v-10.15h2.224v1.737h.04a3.788 3.788 0 011.103-1.405 3.035 3.035 0 011.746-.526v2.557a.995.995 0 00-.195-.02h-.234a1.757 1.757 0 00-.858.224 3.814 3.814 0 00-.724.507 3.38 3.38 0 00-.497.547.857.857 0 00-.185.361v6.168zM292.193 52.046v-10.15h2.225v1.093a15.094 15.094 0 011.454-.878 3.493 3.493 0 011.669-.41 2.734 2.734 0 012.263.918 3.83 3.83 0 01.742 2.479v6.948h-2.42v-6.598a2.323 2.323 0 00-.313-1.415 1.144 1.144 0 00-.937-.38 2.548 2.548 0 00-1.376.36 4.126 4.126 0 00-.887.713v7.32zM302.478 52.046v-10.15h2.205v1.093a6.046 6.046 0 011.348-.956 3.785 3.785 0 011.697-.331 3.071 3.071 0 011.483.37 2.292 2.292 0 011.015 1.113 6.91 6.91 0 01.664-.585 3.995 3.995 0 01.771-.47 4.686 4.686 0 01.927-.312 5.042 5.042 0 011.132-.116 2.835 2.835 0 01.83.135 2.14 2.14 0 01.81.479 2.588 2.588 0 01.614.937 3.96 3.96 0 01.244 1.493v7.3h-2.42V44.96a1.429 1.429 0 00-.274-.947 1.28 1.28 0 00-.936-.361 2.004 2.004 0 00-1.035.351 6.899 6.899 0 00-.994.742v7.3h-2.421V44.96a1.436 1.436 0 00-.273-.947 1.283 1.283 0 00-.937-.361 1.997 1.997 0 00-1.034.351 6.843 6.843 0 00-.996.742v7.3zM319.986 47.361a3.481 3.481 0 00.644 2.254 1.895 1.895 0 001.463.674 2.277 2.277 0 001.328-.341 5.073 5.073 0 00.937-.87l1.757 1.094a4.178 4.178 0 01-1.748 1.58 5.873 5.873 0 01-2.507.49 4.153 4.153 0 01-1.786-.372 3.774 3.774 0 01-1.346-1.054 4.843 4.843 0 01-.86-1.66 8.02 8.02 0 010-4.371 4.77 4.77 0 01.869-1.659 3.83 3.83 0 011.386-1.054 4.461 4.461 0 011.854-.37 3.931 3.931 0 011.766.38 3.84 3.84 0 011.298 1.025 4.498 4.498 0 01.8 1.493 5.717 5.717 0 01.274 1.766v.995zm3.903-1.64a2.546 2.546 0 00-.555-1.638 1.957 1.957 0 00-2.791 0 2.539 2.539 0 00-.557 1.639zM327.617 52.046v-10.15h2.225v1.093a15.094 15.094 0 011.454-.878 3.493 3.493 0 011.669-.41 2.734 2.734 0 012.263.918 3.83 3.83 0 01.742 2.479v6.948h-2.42v-6.598a2.323 2.323 0 00-.313-1.415 1.144 1.144 0 00-.937-.38 2.548 2.548 0 00-1.376.36 4.126 4.126 0 00-.887.713v7.32zM338.332 41.896V38.54h2.42v3.357h1.991v1.952h-1.99v5.739a.63.63 0 00.214.556 1.194 1.194 0 00.663.146 2.354 2.354 0 00.557-.068c.189-.045.374-.088.556-.127v1.99c-.339.04-.657.075-.956.108a8.83 8.83 0 01-.957.05 2.514 2.514 0 01-1.922-.626 2.431 2.431 0 01-.576-1.718v-6.05h-1.404v-1.952zM61.78 75.467V61.376h2.694v14.091zM67.109 75.467V61.376h2.81l5.544 9.602h.039v-9.602h2.537v14.091h-2.596l-5.758-10.032h-.039v10.032zM87.094 65.123a3.094 3.094 0 00-.937-1.328 2.424 2.424 0 00-1.58-.506 2.597 2.597 0 00-1.446.37 1.32 1.32 0 00-.565 1.19 1.207 1.207 0 00.537 1.005 6.373 6.373 0 001.346.742q.811.342 1.747.693a9.288 9.288 0 011.746.87 4.745 4.745 0 011.348 1.277 3.21 3.21 0 01.537 1.894 4 4 0 01-1.29 3.259 5.552 5.552 0 01-3.649 1.074 6.183 6.183 0 01-3.2-.898 5.166 5.166 0 01-1.24-1.054 4.71 4.71 0 01-.83-1.386l2.226-.976a5.01 5.01 0 001.18 1.6 2.766 2.766 0 001.884.605 4.212 4.212 0 00.937-.098 2.12 2.12 0 00.751-.321 1.576 1.576 0 00.507-.586 1.881 1.881 0 00.187-.869 1.445 1.445 0 00-.537-1.141 5.74 5.74 0 00-1.348-.83q-.809-.37-1.746-.722a10.14 10.14 0 01-1.747-.848 4.821 4.821 0 01-1.346-1.21 2.91 2.91 0 01-.537-1.806 3.718 3.718 0 01.37-1.68 3.67 3.67 0 01.996-1.239 4.528 4.528 0 011.445-.76A5.944 5.944 0 0187.6 62a4.815 4.815 0 011.952 2.361zM100.757 61.356v2.264h-3.69v11.847h-2.693V63.62h-3.687v-2.264zM103.86 61.356h3.356l4.002 14.111h-2.674l-.78-3.045h-4.45l-.84 3.045H99.8zm.038 8.841h3.279l-1.58-6.128h-.04zM112.525 75.467V61.376h2.81l5.544 9.602h.039v-9.602h2.537v14.091h-2.596l-5.758-10.032h-.04v10.032zM134.912 61.356v2.264h-3.69v11.847h-2.693V63.62h-3.688v-2.264zM145.198 61.356h3.357l4.001 14.111h-2.674l-.78-3.045h-4.45l-.84 3.045h-2.673zm.039 8.841h3.279l-1.581-6.128h-.04zM160.52 65.123a3.094 3.094 0 00-.937-1.328 2.424 2.424 0 00-1.581-.506 2.597 2.597 0 00-1.445.37 1.32 1.32 0 00-.566 1.19 1.207 1.207 0 00.537 1.005 6.373 6.373 0 001.346.742q.811.342 1.748.693a9.288 9.288 0 011.746.87 4.745 4.745 0 011.347 1.277 3.21 3.21 0 01.537 1.894 4 4 0 01-1.289 3.259 5.552 5.552 0 01-3.65 1.074 6.183 6.183 0 01-3.2-.898 5.166 5.166 0 01-1.24-1.054 4.71 4.71 0 01-.83-1.386l2.226-.976a5.01 5.01 0 001.18 1.6 2.766 2.766 0 001.884.605 4.212 4.212 0 00.937-.098 2.12 2.12 0 00.752-.321 1.577 1.577 0 00.507-.585 1.881 1.881 0 00.186-.87 1.445 1.445 0 00-.537-1.141 5.74 5.74 0 00-1.347-.83q-.81-.37-1.746-.722a10.14 10.14 0 01-1.748-.848 4.821 4.821 0 01-1.346-1.21 2.91 2.91 0 01-.537-1.806 3.718 3.718 0 01.37-1.68 3.67 3.67 0 01.996-1.239 4.528 4.528 0 011.445-.76 5.944 5.944 0 014.761.556 4.815 4.815 0 011.952 2.361zM171.956 65.123a3.094 3.094 0 00-.936-1.328 2.424 2.424 0 00-1.581-.506 2.597 2.597 0 00-1.445.37 1.32 1.32 0 00-.566 1.19 1.207 1.207 0 00.537 1.005 6.373 6.373 0 001.346.742q.811.342 1.748.693a9.288 9.288 0 011.746.87 4.745 4.745 0 011.347 1.277 3.21 3.21 0 01.537 1.894 4 4 0 01-1.289 3.259 5.552 5.552 0 01-3.65 1.074 6.183 6.183 0 01-3.2-.898 5.166 5.166 0 01-1.24-1.054 4.71 4.71 0 01-.83-1.386l2.226-.976a5.01 5.01 0 001.181 1.6 2.766 2.766 0 001.883.605 4.212 4.212 0 00.937-.098 2.12 2.12 0 00.752-.321 1.577 1.577 0 00.507-.586 1.881 1.881 0 00.186-.869 1.445 1.445 0 00-.537-1.141 5.74 5.74 0 00-1.347-.83q-.81-.37-1.746-.722a10.14 10.14 0 01-1.748-.848 4.821 4.821 0 01-1.346-1.21 2.91 2.91 0 01-.537-1.806 3.718 3.718 0 01.37-1.68 3.67 3.67 0 01.996-1.239 4.528 4.528 0 011.445-.76 5.944 5.944 0 014.761.556 4.815 4.815 0 011.952 2.361zM176.561 75.467V61.376h9.33v2.263h-6.636v3.357h4.821v2.265h-4.821v3.943h6.852v2.263zM197.035 61.356v2.264h-3.689v11.847h-2.693V63.62h-3.688v-2.264zM203.4 61.376h2.517l1.776 9.504h.04l2.009-9.504h2.771l1.854 9.504h.04l1.932-9.504h2.518l-2.927 14.091h-2.733l-2.05-10.032h-.039l-2.03 10.032h-2.732zM220.222 75.467V61.376h5.622a5.84 5.84 0 012.05.322 3.498 3.498 0 012.195 2.215 4.97 4.97 0 01.263 1.639 3.896 3.896 0 01-.634 2.284 3.355 3.355 0 01-1.942 1.346l3.103 6.285h-2.986l-2.654-5.739h-2.323v5.74zm2.694-7.924h1.99a3.454 3.454 0 002.168-.498 2.198 2.198 0 000-2.986 2.56 2.56 0 00-1.698-.498h-2.46zM232.636 75.467V61.376h2.694v14.091zM246.942 61.356v2.264h-3.69v11.847h-2.693V63.62h-3.688v-2.264zM248.348 75.467V61.376h9.33v2.263h-6.637v3.357h4.821v2.265h-4.821v3.943h6.852v2.263zM258.633 71.446v-2.107h4.782v2.107zM276.726 68.421a8.4 8.4 0 01-1.503 5.357 6.105 6.105 0 01-8.821 0 8.4 8.4 0 01-1.504-5.357 8.407 8.407 0 011.504-5.358 6.108 6.108 0 018.821 0 8.407 8.407 0 011.503 5.358zm-2.694 0a7.131 7.131 0 00-.78-3.737 3.02 3.02 0 00-4.88 0 7.132 7.132 0 00-.78 3.737 6.853 6.853 0 00.751 3.738 2.718 2.718 0 002.47 1.239 2.676 2.676 0 002.439-1.24 7.132 7.132 0 00.78-3.737zM278.424 75.467V61.376h8.978v2.263h-6.285v3.357h4.704v2.265h-4.704v6.206zM288.728 75.467V61.376h8.979v2.263h-6.285v3.357h4.704v2.265h-4.704v6.206zM297.376 65.019l2.048-4.268h1.138l2.048 4.268h-1.251l-1.366-2.993-1.377 2.993zM304.385 75.467v-2.772h2.693v2.772z" fill="#fff"/></svg>