<svg xmlns="http://www.w3.org/2000/svg" viewBox="0 0 728 90"><defs><clipPath id="a"><path fill="none" d="M-32768-32677h65535v65535h-65535z"/></clipPath></defs><g clip-path="url(#a)" opacity=".8"><path d="M421.198 30.363L362.791 47.11a3.527 3.527 0 01-4.35-2.411l-4.362-15.212-.016-.057-.437-1.521-.02-.075-.044-.15-.049-.17-.053-.187a3.524 3.524 0 01-.015-1.114.975.975 0 01.04-.215 2.013 2.013 0 01.054-.238.41.41 0 01.048-.116c.021-.067.043-.134.051-.177a1.975 1.975 0 01.11-.255l.066-.121a.916.916 0 01.094-.17l.027-.047a4.033 4.033 0 01.761-.89c.032-.03.051-.034.083-.064l.02-.005c.101-.07.184-.135.286-.205l.051-.034a3.358 3.358 0 01.813-.355l1.446-.415a.652.652 0 01.193-.035c.056-.016.126-.057.183-.073l6.516-1.868a1.977 1.977 0 011.421-2.135l39.12-11.218a1.994 1.994 0 012.335 1.058l8.508-2.44a3.582 3.582 0 01.461-.091c.038-.011.081-.003.118-.014.057-.016.1-.008.156-.024a3.55 3.55 0 013.615 2.54l4.884 17.035a3.491 3.491 0 01.133 1.1c-.008.043.002.08-.006.123a.277.277 0 00-.005.124 3.57 3.57 0 01-.699 1.745c-.013.024-.045.053-.059.078a3.397 3.397 0 01-.86.755.216.216 0 01-.089.045 1.013 1.013 0 01-.12.075 1.77 1.77 0 01-.435.186l-1.578.452z" fill="#fff"/></g><path d="M402.799 9.928a.114.114 0 00-.081.145l.162.564a.113.113 0 00.145.08l.883-.253.883 3.08a.112.112 0 00.145.08l.563-.16a.113.113 0 00.08-.146l-.883-3.08.883-.254a.111.111 0 00.08-.145l-.161-.563a.113.113 0 00-.145-.08zm-2.817.808a.113.113 0 00-.081.145l1.083 3.775a.112.112 0 00.145.08l2.084-.598a.112.112 0 00.08-.145l-.161-.563a.111.111 0 00-.145-.08l-1.408.403-.232-.807.995-.286a.111.111 0 00.08-.144l-.161-.564a.112.112 0 00-.145-.08l-.995.285-.237-.826 1.408-.404a.113.113 0 00.08-.145l-.161-.564a.112.112 0 00-.145-.08zm-2.93.84c-.038.011-.051.035-.083.064l-.174.315a.143.143 0 00-.011.104l.474 1.653c.01.038.035.051.064.083l.315.174a.143.143 0 00.104.011l1.108-.318c.038-.01.062.003.105.011l.024.013a.156.156 0 01.065.083l.156.545c.01.038-.003.062-.011.105l-.013.024a.154.154 0 01-.083.064l-.545.156a.204.204 0 01-.105-.01l-.024-.014a.143.143 0 01-.064-.083l-.043-.15a.113.113 0 00-.145-.08l-.564.161a.113.113 0 00-.08.145l.204.714c.01.037.035.051.065.083l.314.174a.145.145 0 00.105.011l1.652-.474c.038-.01.05-.035.084-.065l.174-.314a.149.149 0 00.01-.104l-.474-1.653c-.01-.038-.034-.05-.064-.083l-.314-.174a.145.145 0 00-.105-.01l-1.108.317a.218.218 0 01-.105-.01l-.024-.014a.154.154 0 01-.064-.083l-.156-.545a.204.204 0 01.01-.105l.014-.024a.143.143 0 01.083-.064l.544-.157a.217.217 0 01.105.011l.024.013a.155.155 0 01.065.084l.043.15a.112.112 0 00.145.08l.563-.16a.113.113 0 00.08-.146l-.204-.714c-.011-.038-.035-.05-.065-.083l-.32-.193a.156.156 0 00-.104-.01l-1.652.473zm-3.193.915c-.037.011-.051.035-.083.065l-.174.314a.156.156 0 00-.011.105l.474 1.652c.01.038.035.051.065.084l.314.174a.15.15 0 00.105.01l1.108-.317a.201.201 0 01.104.01l.024.014a.144.144 0 01.065.083l.156.544c.01.038-.003.062-.011.105l-.013.024a.148.148 0 01-.083.065l-.545.156c-.037.011-.061-.003-.104-.01l-.025-.014a.15.15 0 01-.064-.083l-.043-.15a.113.113 0 00-.145-.08l-.564.161a.112.112 0 00-.08.145l.205.713c.01.038.035.051.064.083l.314.175a.152.152 0 00.105.01l1.653-.474c.037-.01.05-.035.083-.064l.174-.314a.156.156 0 00.01-.105l-.473-1.653c-.011-.037-.035-.05-.065-.083l-.314-.174a.156.156 0 00-.105-.01l-1.108.317a.201.201 0 01-.104-.01l-.024-.014a.144.144 0 01-.065-.083l-.156-.545c-.011-.037.003-.06.01-.104l.014-.024a.144.144 0 01.083-.065l.545-.156c.037-.01.06.003.104.011l.025.013a.147.147 0 01.064.083l.043.15a.113.113 0 00.145.081l.563-.162a.112.112 0 00.08-.145l-.204-.714c-.011-.037-.035-.05-.064-.083l-.32-.193a.149.149 0 00-.104-.01l-1.653.474zm-2.07 1.996c.04.07.086.16.127.228l.51.79-.638.182.015-.939a.663.663 0 00-.014-.26zm-.672-1.209a.122.122 0 00-.085.126l-.045 4.098a.126.126 0 00.156.118l.545-.156a.124.124 0 00.085-.127l.02-.778 1.128-.323.41.654a.124.124 0 00.14.062l.545-.156a.113.113 0 00.08-.145l-.01-.038-2.21-3.45a.125.125 0 00-.14-.063zm-6.122 1.755a.113.113 0 00-.081.145l.162.564a.113.113 0 00.145.08l.883-.253.883 3.08a.113.113 0 00.145.08l.563-.16a.113.113 0 00.08-.146l-.882-3.08.882-.253a.113.113 0 00.08-.145l-.161-.564a.113.113 0 00-.145-.08zm-1.334.383a.112.112 0 00-.08.145l.662 2.31c-.06-.065-.104-.153-.158-.199l-1.66-1.82a.132.132 0 00-.135-.043l-.601.172a.113.113 0 00-.08.145l1.083 3.775a.112.112 0 00.145.08l.563-.16a.113.113 0 00.08-.146l-.662-2.31c.059.064.105.153.158.198l1.66 1.821a.132.132 0 00.135.043l.6-.173a.112.112 0 00.08-.145l-1.081-3.775a.113.113 0 00-.145-.08zm-3.816 2.496c.04.07.086.16.126.228l.51.79-.638.182.016-.939c-.01-.1-.011-.18-.014-.26m-.691-1.205a.125.125 0 00-.086.126l-.044 4.098a.125.125 0 00.156.118l.544-.156a.123.123 0 00.086-.126l.02-.778 1.128-.324.41.655a.123.123 0 00.14.061l.545-.156a.113.113 0 00.08-.145l-.01-.037-2.21-3.452a.123.123 0 00-.14-.062zm-3.737 1.072a.113.113 0 00-.081.145l.162.563a.113.113 0 00.145.081l.883-.254.883 3.08a.112.112 0 00.145.081l.563-.162a.113.113 0 00.08-.145l-.883-3.08.883-.253a.112.112 0 00.08-.145l-.161-.563a.113.113 0 00-.145-.08zm-2.686.77c-.037.011-.051.035-.083.064l-.174.314a.158.158 0 00-.011.105l.474 1.653c.01.037.035.051.065.083l.314.174a.143.143 0 00.104.011l1.109-.318c.037-.01.06.003.104.011l.024.013a.148.148 0 01.065.083l.156.545c.01.037-.003.062-.011.104l-.013.025a.15.15 0 01-.083.064l-.545.156a.201.201 0 01-.104-.01l-.025-.014a.147.147 0 01-.064-.083l-.043-.15a.112.112 0 00-.145-.08l-.564.161a.113.113 0 00-.08.145l.205.714c.01.037.035.051.064.083l.314.174a.156.156 0 00.105.011l1.653-.474c.037-.01.05-.035.083-.065l.174-.314a.156.156 0 00.01-.105l-.473-1.652c-.011-.038-.035-.05-.065-.083l-.314-.175a.15.15 0 00-.105-.01l-1.108.318a.214.214 0 01-.104-.01l-.025-.014a.153.153 0 01-.064-.084l-.156-.544a.204.204 0 01.01-.105l.014-.024a.148.148 0 01.083-.065l.545-.156c.037-.01.06.003.104.011l.024.013a.151.151 0 01.065.083l.043.151a.113.113 0 00.145.08l.563-.162a.111.111 0 00.08-.144l-.204-.714c-.011-.038-.035-.05-.064-.083l-.314-.174a.147.147 0 00-.105-.01zm-1.86.533a.112.112 0 00-.08.145l.663 2.31c-.06-.064-.105-.153-.16-.198l-1.683-1.834a.13.13 0 00-.134-.043l-.601.172a.113.113 0 00-.081.145l1.083 3.775a.113.113 0 00.145.08l.563-.16a.113.113 0 00.08-.146l-.656-2.292c.059.065.104.153.158.2l1.66 1.82a.132.132 0 00.135.042l.6-.172a.113.113 0 00.08-.145l-1.081-3.775a.113.113 0 00-.145-.08zm-4.394 1.26a.113.113 0 00-.08.145l.16.564a.113.113 0 00.146.08l.282-.08.689 2.403-.281.081a.113.113 0 00-.081.145l.162.563a.113.113 0 00.145.081l1.37-.394a.112.112 0 00.08-.145l-.16-.563a.113.113 0 00-.145-.08l-.282.08-.69-2.403.282-.08a.113.113 0 00.08-.146l-.161-.564a.112.112 0 00-.145-.08zm49.839-5.023c-.04-.07-.09-.096-.13-.166-.018.005-.97-1.185-.97-1.185l-.093-.116-.067-.02-.394.112-.027.048-.008.043.005.02-.01.104c-.08.571-.136 1.156-.216 1.728l-.011.105-.002.062.01.037.049.027.043.008.432-.124.045-.054.024-.128c.02-.352.075-.733.1-1.066l.023-.067.013-.024.019-.006.048.027.129.166c.159.2.336.392.476.596l.134.185.054.045.067.022.094-.027c.099-.008.22-.084.319-.092l.05-.035.014-.024-.01-.037-.03-.033zm-2.934-.663l-.07-.102-.096-.053-.124-.005-.362.083a24.05 24.05 0 00-1.615.463c-.724.31-1.58.372-2.3.7l-.042-.008-.17.05-.096.087-.018.29a9.464 9.464 0 01.447 1.417c.086.3.153.606.239.907.148.587 1.689 5.958 2.197 7.662l.014.118.145.365.102.072.105.011.249-.05a8.257 8.257 0 011.165-.335l.252-.113.075-.164-.003-.08-.194-.677c-.347-1.14-.6-2.307-1.004-3.43l-.038-.275.04-.072c.014-.024.008-.043.046-.054.032-.029.075-.02.113-.032.263-.076.568-.143.807-.232.057-.016.588-.148.588-.148l.244-.07.083-.064.064-.06.035-.09-.003-.08-.15-.527c.01-.105-.076-.263-.07-.387a2.198 2.198 0 01-.178-.477l-.054-.046-.072-.04-.105-.01-.131.037c-.521.17-1.09.313-1.621.445l-.075.021c-.038.011-.064.06-.113.032-.024-.013-.024-.013-.03-.032l-.023-.013-.038-.274c-.218-.689-.415-1.446-.657-2.149l.013-.166.04-.073.245-.07.032-.029.413-.119c.33-.054 1.108-.317 1.419-.366a3.698 3.698 0 01.446-.148l.123-.137.005-.124.008-.042a6.279 6.279 0 00-.302-1.337m-9.415 7.497c.418 1.811 1.166 3.995 1.62 5.795l.146.365.102.072.105.011.25-.05c.069-.042.246-.133.338-.098a6.083 6.083 0 01.826-.237l.252-.113.075-.164-.003-.08-.193-.677c-.348-1.14-.606-2.326-1.005-3.43l-.038-.275.108-.193.005.02c.01.036.306-.069.343-.08.486-.078.91-.3 1.4-.36l.084-.065.064-.059.035-.09-.002-.082a4.86 4.86 0 01-.221-.912.724.724 0 00-.138-.266c-.016-.056-.032-.255-.1-.276l-.072-.04-.104-.01-.132.037c-.12.075-.775.202-.94.27-.042-.009-.208-.022-.12.074.003.081-.03-.032-.053-.045a.791.791 0 01-.357.102l-.244.07c-.193.035-.143-.142-.204-.287-.124-.289-.17-.662-.294-.952-.08-.14-.084-.505-.196-.615l-.167-.582.013-.166.04-.073.244-.07c.497-.183 1.326-.339 1.822-.522a1.265 1.265 0 00.268-.057c.033-.029.024-.128.083-.064l.119-.014.123-.137.005-.123.008-.043-.14-.488.027-.049-.113-.252-.162-.563-.07-.102-.096-.054-.124-.005-.362.084c-1.253.38-2.715.737-3.938 1.15l-.17.048-.096.088-.018.29.075.121-.011.105.065.083.027.236.118.13c.005.017-.032.17.01.178a29.21 29.21 0 00.827 2.812l.103.357a.388.388 0 01.019.137c.07.102.09.177.134.185zm-2.111 3.837c.054.188.126.37.18.558.027.094.035.193.057.268l.059.35c-.045.195-.045.337-.211.466a.77.77 0 01-.236.17c-.02.005-.201.077-.201.077l-.218.022-.215-.04-.134-.043-.06-.064-.042-.008-.193-.25-.148-.303c-.525-2.044-1.244-4.196-1.664-5.945l-.046-.23-.006-.162.01-.105.105-.273.244-.213a3.738 3.738 0 01.45-.129l.167.013.293.1.132.104.139.204.453 1.577c.353 1.302.75 2.55 1.085 3.856zm.287-6.302a2.838 2.838 0 00-.817-1.005 2.793 2.793 0 00-.586-.34 3.27 3.27 0 00-.706-.123 1.807 1.807 0 00-.864.105c-.187.054-.381.09-.55.137-.131.038-.246.132-.378.17a3.198 3.198 0 00-.84.545c-.14.081-.275.384-.375.535a4.844 4.844 0 00-.265.564 2.35 2.35 0 00-.012 1.304 248.38 248.38 0 001.829 6.447l.099.276a3.365 3.365 0 00.744.966.414.414 0 01.247.153c.054.045.315.174.363.2l.56.185a3.758 3.758 0 001.724-.23.334.334 0 00.322-.153c.177.051.348-.202.54-.237a1.822 1.822 0 01.355-.325c-.04-.069.169-.19.196-.239l.289-.55a7.479 7.479 0 00.193-.746 1.138 1.138 0 01.018-.29l-.03-.459a9.143 9.143 0 00-.32-1.189l-.977-3.337a19.806 19.806 0 00-.76-2.364m-5.206 4.948l-.07-.1-.175-.114-.161.006c-.614.196-1.253.38-1.867.576a8.328 8.328 0 00-.97.237l-.203.14c-.142.142.02.421.063.571a2.01 2.01 0 00.207.652l.078.06.086.015.255-.033c.177-.09 1.108-.317 1.164-.333a7.36 7.36 0 011.089-.313 1.122 1.122 0 01.489-.14l.203-.14.04-.214c-.016-.057-.193-.676-.185-.719a.15.15 0 01-.043-.15m-2.161 5.863c.022-.067-.08-.14-.096-.196a1.679 1.679 0 00-.05-.31l-.085-.16-.234-.034-.287.062a4.553 4.553 0 00-.69.218c-.461.091-.99.304-1.464.42l-.18.011c-.02.005-.078-.059-.102-.073-.03-.032-.04-.069-.07-.102-.215-.75-.444-1.478-.635-2.216-.038-.13-.094-.257-.137-.408l.029-.11.083-.064.263-.075a.962.962 0 01.513-.127c.287-.062.627-.22.896-.277l.088-.046.105-.132.024-.128a3.968 3.968 0 00-.334-1.023c.04-.072-.022-.217-.062-.287l-.07-.102-.054-.045-.123-.005-.263.075a2.256 2.256 0 01-.706.162 3.674 3.674 0 01-.76.258l-.157-.056-.076-.12.008-.044-.037-.13c-.167-.584-.353-1.303-.552-1.855l-.041-.212.03-.11.072-.102.196-.097c.258-.094.977-.138 1.135-.366.024.155.365-.003.354-.04.156-.025.413-.119.593-.13l.207-.059.083-.065.027-.048c.048-.258-.132-.53-.141-.773-.04-.07-.035-.335-.14-.346-.02-.137-.051-.392-.177-.478l-.116-.048-.032.03-.002.062-.043-.008-.054-.046c-.808.232-1.71.49-2.541.708a12.394 12.394 0 01-1.433.391l-.448.21-.048.115-.002.062c1.025 3.506 1.965 6.997 3.023 10.474l-.002.061.059.065.215.04.112-.032c1.377-.375 2.774-.816 4.199-1.164l.27-.118.084-.207.008-.043zm-8.221-7.195l.008-.043-.043-.15-.024-.014-.05-.169.009-.043-.124-.432-.075-.12-.182-.07-.27.056-.138.081c-.435.043-.853.285-1.288.33-.703.241-1.366.411-2.023.6a2.563 2.563 0 01-.531.131c-.207.06-.421.161-.633.202l-.443.086-.032.03-.003.061-.113.033-.048.115.135.47-.027.048.189.657.16.422.13.024c.102-.07.174-.03.292-.044.11-.112.274-.037.405-.075a3.388 3.388 0 01.427-.143c.005-.123.164-.067.225-.064l.282-.08.062.001.19.312c.154.606.289 1.218.485 1.832.033.113.078.201.11.314.302 1.052.585 2.11.887 3.16l.425 1.484c.14.488.26.982.439 1.46l.083.22.017.056.088.096.153.038.207-.059.043.008.488-.14.032-.03.132-.038.024.014.276-.1.16-.005.24-.089.16-.148.025-.129-.083-.077.045-.054-.003-.08-.03-.033-.085-.3c-.792-2.76-1.484-5.245-2.294-8l-.06-.35.073-.102.05-.035.33-.054a3.194 3.194 0 01.577-.185c.027-.049.059-.078.108-.05l.292-.045.183-.072.083-.065.056-.158-.011-.18-.078-.2-.03-.033-.027-.094zm-4.175 9.895c-.743-2.733-1.534-5.21-2.256-8.01l-.14-.489-.03-.032-.14-.489c-.005-.018-.091-.034-.091-.034a.183.183 0 00-.142 0c-.038.011-.062-.003-.1.008l-.244.07a1.459 1.459 0 01-.394.113.421.421 0 00-.196.097 1.793 1.793 0 00-.555.118l-.14.081-.075.164-.005.123.264.921c.15.525.503 1.684.503 1.684s.924 3.292 1.035 3.75c.018-.007.042.007.034.05a.143.143 0 00-.002.061c.288 1.076.625 2.18.93 3.25l.206.713.094.115.12.067.226-.064a.78.78 0 00.44-.167 1.612 1.612 0 00.419-.1 1.57 1.57 0 00.292-.043l.32-.092.026-.048.024-.27a5.428 5.428 0 00-.331-1.085c.075-.164-.097-.338-.092-.462m-7.618-2.469l-.161.005-.094-.115-.07-.244a3.43 3.43 0 00-.111-.456c-.223-.282-.145-.792-.355-1.098a5.897 5.897 0 01-.194-.818l-.065-.225.027-.049.223-.145c.075-.02.333-.115.405-.075l.083-.065a.288.288 0 00.18-.01l.233.034.159.056.247.295a4.123 4.123 0 01.269.655 6.095 6.095 0 01.285.995c-.024.13.079.344.036.478l-.067.263-.148.123-.026.05-.078.082-.352.121-.024-.013a.654.654 0 01-.402.156zm4.88 4.616a1.716 1.716 0 01-.4-.617c-.594-.866-1.183-1.855-1.758-2.727l-.191-.31-.051-.25-.03-.033.095-.027.332-.4.23-.473.027-.19c.064-.059.013-.309.016-.37a.917.917 0 00-.046-.516c.088-.188-.076-.547-.13-.735a1.581 1.581 0 00-.118-.413c-.041-.07-.05-.31-.121-.352l-.135-.469-.118-.27-.285-.57-.253-.313-.357-.325-.121-.067-.21-.163-.34-.126-.18.011-.183-.07-.57.001-.24.008-.027.048-.038.011c-.12-.067-.348.06-.461.092a1.847 1.847 0 00-.445.148 5.496 5.496 0 00-1.095.293 2.53 2.53 0 00-.644.165l-.432.124-.115.094-.024.271.145.507c.1.418 2.849 9.935 2.849 9.935l.137.123h.142l.244-.07a1.375 1.375 0 00.287-.062c.054-.097.12-.218.169-.049.175-.029.44-.166.6-.172l.278-.1.045-.053.008-.043.046-.054.037-.153a99.598 99.598 0 01-1.171-4.014l.027-.19.158-.086.08-.003.178.051.209.306c.619 1.164 1.366 2.21 2.003 3.368l.123.148.089.096.172.032.16-.005c.277-.1.664-.17.935-.288.053.045.169-.049.225-.065l.263-.075.083-.065.048-.115.016-.086-.03-.032-.01-.038zm-9.333-8.522c-.054-.046-.204-.003-.255.032a4.348 4.348 0 00-.475.116c-.011-.037-.488.14-.513.127l-.032.03c-.075.021-.362.083-.402.155l-.081.145.163 1.417a10.088 10.088 0 01.192 1.307c.102.641.226 1.358.305 1.986l-.094.026c.094-.026.105.011.13.105l-.004.266a.13.13 0 01.116.048c-.057.016-.078.083-.086.126l.049.311.07.245-.006.123-.04.072-.142-.142-.054-.187c-.285-.569-.6-1.312-.91-1.894-.142-.427-.448-.928-.572-1.36-.04-.07-.293-.668-.411-.655.156-.024-.272-.735-.27-.796l-.238-.48-.145-.08-.105-.012-.826.237-.046.054-.394.113-.097.09-.043.133.07.671c.182 1.553.449 3.123.56 4.717l.08.282-.017.147.032.113.024.014.027.093-.08.003-.164-.075-.12-.413c-.316-.68-.727-1.478-.97-2.18-.365-.85-.908-1.895-1.2-2.767l-.2-.206-.13-.024a3.121 3.121 0 00-.708.223 2.535 2.535 0 00-.826.237l-.091.108-.027.048.113.395.334.595a18.591 18.591 0 00.836 1.711c.382.907.82 1.798 1.24 2.694.266.574.55 1.142.812 1.698a1.257 1.257 0 00.217.405 1.017 1.017 0 00.224.423l.075.263c.258.333.382.907.626 1.264a.353.353 0 00.162.28c-.046.052.019.136.067.162l.083.22.065.083.072.041.223-.003c.094-.027.333-.116.445-.148a.941.941 0 00.32-.092c.163-.067.448-.067.57-.204l.074-.102-.003-.223c-.02-.42-.122-.92-.141-1.342a6.86 6.86 0 00-.13-.877c.046-.196-.11-.456-.041-.639l-.054-.33a.098.098 0 01-.02-.137c-.058-.49-.121-1.205-.204-1.709-.027-.094-.1-.419-.022-.502-.011-.038-.043-.15-.016-.199l.072.041.16.28c.03.173.203.347.238.54.107.092.116.333.23.381.07-.04.213-.04.098.054-.231-.096.272.735.298.83.369.788.724 1.6 1.124 2.36l.307.643.043.15.21.164.212-.04a4.759 4.759 0 00.888-.235l.338-.097.12-.075.07-.183-.062-.57c-.406-3.543-.804-6.844-1.175-10.335l-.054-.188zm-14.017.096l4.793 16.715a.958.958 0 001.184.656l59.346-17.017a.96.96 0 00.657-1.184l-4.793-16.715a.96.96 0 00-1.184-.656l-8.696 2.493.323 1.127 8.489-2.434 4.675 16.302-58.934 16.898-4.68-16.32 8.245-2.364-.323-1.127-8.451 2.424a.962.962 0 00-.651 1.202m61.978-18.117l4.96 17.297a1.619 1.619 0 01-1.112 2.006l-59.93 17.184a1.617 1.617 0 01-2.004-1.112l-4.96-17.297a1.618 1.618 0 011.112-2.006l8.789-2.52.102.357-8.79 2.52a1.268 1.268 0 00-.87 1.571l4.96 17.297a1.269 1.269 0 001.57.871l59.929-17.185a1.266 1.266 0 00.87-1.57l-4.964-17.316a1.268 1.268 0 00-1.571-.87l-8.94 2.563-.102-.357 8.94-2.564a1.647 1.647 0 012.01 1.131" fill="#ed1c24"/></svg>