<svg xmlns="http://www.w3.org/2000/svg" viewBox="0 0 300 250"><rect x="99.722" y="208.294" width="100.556" height="24.474" fill="red"/><path d="M109.65674,225.92389V215.13874h5.16846V216.752h-3.31641v2.77832h2.48v1.61328h-2.48v4.78027Z" fill="#fff"/><path d="M116.40869,225.92389V215.13874h1.852v10.78515Z" fill="#fff"/><path d="M120.05371,225.92389V215.13874h1.71777l2.25586,6.16894h.02979v-6.16894H125.73v10.78515H124.1167l-2.36035-6.7373h-.02979v6.7373Z" fill="#fff"/><path d="M127.41846,215.13874H130.167c1.91211,0,2.92774,1.04492,2.92774,3.25586v4.27246c0,2.21093-1.01563,3.25683-2.92774,3.25683h-2.74853Zm1.85205,9.26172h.64258c.98584,0,1.32959-.374,1.32959-1.50879V218.171c0-1.13574-.34375-1.50879-1.32959-1.50879h-.64258Z" fill="#fff"/><path d="M137.93506,217.753a2.83914,2.83914,0,0,1,5.67627,0v5.55665a2.83914,2.83914,0,0,1-5.67627,0Zm1.85205,5.51172c0,.80664.23926,1.19532.98584,1.19532.74707,0,.98633-.38868.98633-1.19532v-5.46777c0-.80664-.23926-1.19434-.98633-1.19434-.74658,0-.98584.3877-.98584,1.19434Z" fill="#fff"/><path d="M145.27,215.13874h1.85205v8.14062c0,.792.314,1.18067.98584,1.18067.67236,0,.98633-.38868.98633-1.18067v-8.14062h1.852v8.0664a2.83829,2.83829,0,1,1-5.67627,0Z" fill="#fff"/><path d="M153.99365,216.752h-1.79248v-1.61328h5.4375V216.752h-1.79248v9.17187h-1.85254Z" fill="#fff"/><path d="M169.20117,215.13874v10.78515h-1.61328v-8.4248h-.03027l-1.67285,8.4248h-.89649l-1.67285-8.4248h-.02979v8.4248h-1.61376V215.13874h2.43505l1.31495,6.30371h.02978l1.31445-6.30371Z" fill="#fff"/><path d="M170.81445,217.753a2.83914,2.83914,0,0,1,5.67627,0v5.55665a2.83914,2.83914,0,0,1-5.67627,0Zm1.85205,5.51172c0,.80664.23926,1.19532.98584,1.19532.74707,0,.98633-.38868.98633-1.19532v-5.46777c0-.80664-.23926-1.19434-.98633-1.19434-.74658,0-.98584.3877-.98584,1.19434Z" fill="#fff"/><path d="M180.00146,225.92389h-1.85205V215.13874h2.59913c2.07617,0,3.1372.88086,3.1372,3.18164,0,1.73242-.67236,2.43457-1.2998,2.71875l1.56836,4.88476h-1.88184l-1.31494-4.46679a8.8269,8.8269,0,0,1-.95606.04492Zm0-5.94531h.65723c1.001,0,1.37451-.374,1.37451-1.6582,0-1.28516-.37353-1.65821-1.37451-1.65821h-.65723Z" fill="#fff"/><path d="M185.61865,225.92389V215.13874h4.95947V216.752H187.4707v2.77832h2.39014v1.61328H187.4707v3.167h3.31641v1.61328Z" fill="#fff"/></svg>