<?xml version="1.0" encoding="utf-8"?>
<!-- Generator: Adobe Illustrator 24.2.0, SVG Export Plug-In . SVG Version: 6.00 Build 0)  -->
<svg version="1.1" id="Layer_1" xmlns="http://www.w3.org/2000/svg" xmlns:xlink="http://www.w3.org/1999/xlink" x="0px" y="0px"
	 viewBox="0 0 300 250" style="enable-background:new 0 0 300 250;" xml:space="preserve">
<style type="text/css">
	.st0{enable-background:new    ;}
	.st1{fill:#FF0000;}
</style>
<g class="st0">
	<path d="M85.2,118c0.2,0,0.3,0.2,0.2,0.3l-3,7.9c0,0.1-0.1,0.2-0.2,0.2h-0.8c-0.1,0-0.2-0.1-0.2-0.2l-0.8-2.2
		c-0.1-0.2-0.1-0.3-0.2-0.5v0c0,0.2-0.1,0.3-0.2,0.5l-0.8,2.2c0,0.1-0.1,0.2-0.2,0.2h-0.8c-0.1,0-0.2-0.1-0.2-0.2l-3-7.9
		c0,0,0-0.1,0-0.1c0-0.1,0.1-0.3,0.3-0.3h1.1c0.1,0,0.2,0.1,0.2,0.2l1.9,4.9c0.1,0.2,0.1,0.3,0.2,0.5l0,0c0-0.2,0.1-0.3,0.2-0.5
		l0.6-1.6l-1.2-3.1c0,0,0-0.1,0-0.1c0-0.1,0.1-0.3,0.3-0.3h1.1c0.1,0,0.2,0.1,0.2,0.2l0.3,0.7c0.1,0.2,0.1,0.3,0.2,0.5
		c0-0.2,0.1-0.3,0.2-0.5l0.2-0.7c0-0.1,0.1-0.2,0.2-0.2H82c0.2,0,0.3,0.2,0.2,0.3l-1.2,3.1l0.6,1.6c0.1,0.2,0.1,0.3,0.2,0.5
		c0-0.2,0.1-0.3,0.2-0.5l1.9-4.9c0-0.1,0.1-0.2,0.2-0.2H85.2z"/>
</g>
<g class="st0">
	<path d="M91,118c0.1,0,0.3,0.1,0.3,0.3v1.2c0,0.1-0.1,0.3-0.3,0.3h-0.6v5.1H91c0.1,0,0.3,0.1,0.3,0.3v1.2c0,0.1-0.1,0.3-0.3,0.3
		h-2.9c-0.1,0-0.3-0.1-0.3-0.3V125c0-0.1,0.1-0.3,0.3-0.3h0.6v-5.1h-0.6c-0.1,0-0.3-0.1-0.3-0.3v-1.2c0-0.1,0.1-0.3,0.3-0.3H91z"/>
</g>
<g class="st0">
	<path d="M99.2,118c0.1,0,0.3,0.1,0.3,0.3v1.2c0,0.1-0.1,0.3-0.3,0.3h-1.9v6.5c0,0.1-0.1,0.3-0.3,0.3H96c-0.1,0-0.3-0.1-0.3-0.3
		v-6.5h-1.9c-0.1,0-0.3-0.1-0.3-0.3v-1.2c0-0.1,0.1-0.3,0.3-0.3H99.2z"/>
</g>
<g class="st0">
	<path d="M107.5,118c0.1,0,0.3,0.1,0.3,0.3v7.9c0,0.1-0.1,0.3-0.3,0.3h-1.2c-0.1,0-0.3-0.1-0.3-0.3V123h-2.5v3.1
		c0,0.1-0.1,0.3-0.3,0.3h-1.2c-0.1,0-0.3-0.1-0.3-0.3v-7.9c0-0.1,0.1-0.3,0.3-0.3h1.2c0.1,0,0.3,0.1,0.3,0.3v3.1h2.5v-3.1
		c0-0.1,0.1-0.3,0.3-0.3H107.5z"/>
</g>
<g class="st0">
	<path d="M118.3,118c0.1,0,0.2,0.1,0.2,0.2l2.4,7.9c0,0,0,0,0,0.1c0,0.1-0.1,0.3-0.3,0.3h-1.2c-0.1,0-0.2-0.1-0.3-0.2l-0.4-1.5h-2.4
		l-0.5,1.5c0,0.1-0.1,0.2-0.2,0.2h-1.2c-0.2,0-0.3-0.2-0.2-0.3l2.4-7.9c0-0.1,0.1-0.2,0.2-0.2H118.3z M117.6,121.2L117,123h1.3
		l-0.6-1.8c0-0.2-0.1-0.3-0.1-0.5C117.7,120.8,117.6,121,117.6,121.2z"/>
	<path d="M133.2,118c0.1,0,0.3,0.1,0.3,0.3v7.9c0,0.1-0.1,0.3-0.3,0.3h-1.3c-0.1,0-0.2-0.1-0.2-0.1l-2.2-4.5
		c-0.1-0.2-0.1-0.3-0.2-0.5v4.9c0,0.1-0.1,0.3-0.3,0.3h-1.2c-0.1,0-0.3-0.1-0.3-0.3v-7.9c0-0.1,0.1-0.3,0.3-0.3h1.3
		c0.1,0,0.2,0.1,0.2,0.1l2.2,4.5c0.1,0.2,0.1,0.3,0.2,0.5v-4.9c0-0.1,0.1-0.3,0.3-0.3H133.2z"/>
</g>
<g class="st0">
	<path d="M140.5,118c0.1,0,0.3,0.1,0.3,0.3v1.2c0,0.1-0.1,0.3-0.3,0.3h-2.9v1.7h2.1c0.1,0,0.3,0.1,0.3,0.3v1.2
		c0,0.1-0.1,0.3-0.3,0.3h-2.1v1.7h2.9c0.1,0,0.3,0.1,0.3,0.3v1.2c0,0.1-0.1,0.3-0.3,0.3h-4.4c-0.1,0-0.3-0.1-0.3-0.3v-7.9
		c0-0.1,0.1-0.3,0.3-0.3H140.5z"/>
	<path d="M152.5,118c0.2,0,0.3,0.2,0.2,0.3l-3,7.9c0,0.1-0.1,0.2-0.2,0.2h-0.8c-0.1,0-0.2-0.1-0.2-0.2l-0.8-2.2
		c-0.1-0.2-0.1-0.3-0.2-0.5v0c0,0.2-0.1,0.3-0.2,0.5l-0.8,2.2c0,0.1-0.1,0.2-0.2,0.2h-0.8c-0.1,0-0.2-0.1-0.2-0.2l-3-7.9
		c0,0,0-0.1,0-0.1c0-0.1,0.1-0.3,0.3-0.3h1.1c0.1,0,0.2,0.1,0.2,0.2l1.9,4.9c0.1,0.2,0.1,0.3,0.2,0.5l0,0c0-0.2,0.1-0.3,0.2-0.5
		l0.6-1.6l-1.2-3.1c0,0,0-0.1,0-0.1c0-0.1,0.1-0.3,0.3-0.3h1.1c0.1,0,0.2,0.1,0.2,0.2l0.3,0.7c0.1,0.2,0.1,0.3,0.2,0.5
		c0-0.2,0.1-0.3,0.2-0.5l0.2-0.7c0-0.1,0.1-0.2,0.2-0.2h1.1c0.2,0,0.3,0.2,0.2,0.3l-1.2,3.1l0.6,1.6c0.1,0.2,0.1,0.3,0.2,0.5
		c0-0.2,0.1-0.3,0.2-0.5l1.9-4.9c0-0.1,0.1-0.2,0.2-0.2H152.5z"/>
</g>
<g class="st0">
	<path d="M165,118c0.1,0,0.1,0,0.2,0.1l0.5,0.5c0,0,0.1,0.1,0.1,0.2v3.9c0,0.1,0,0.1-0.1,0.2l-0.5,0.5c0,0-0.1,0.1-0.2,0.1h-0.5
		c0.1,0.1,0.2,0.2,0.3,0.4l1,2.2c0,0,0,0.1,0,0.1c0,0.1-0.1,0.3-0.3,0.3h-1.2c-0.1,0-0.2-0.1-0.2-0.1l-1.3-2.8h-0.9v2.7
		c0,0.1-0.1,0.3-0.3,0.3h-1.2c-0.1,0-0.3-0.1-0.3-0.3v-7.9c0-0.1,0.1-0.3,0.3-0.3H165z M162.2,119.6c-0.1,0-0.3,0.1-0.3,0.3v1.6
		c0,0.1,0,0.1,0.1,0.2l0,0c0,0,0.1,0.1,0.2,0.1h1.6c0.1,0,0.1,0,0.2-0.1l0,0c0,0,0.1-0.1,0.1-0.2v-1.6c0-0.1,0-0.1-0.1-0.2l0,0
		c0,0-0.1-0.1-0.2-0.1H162.2z"/>
</g>
<g class="st0">
	<path d="M172.1,118c0.1,0,0.2,0.1,0.2,0.2l2.4,7.9c0,0,0,0,0,0.1c0,0.1-0.1,0.3-0.3,0.3h-1.2c-0.1,0-0.2-0.1-0.3-0.2l-0.4-1.5h-2.4
		l-0.5,1.5c0,0.1-0.1,0.2-0.2,0.2h-1.2c-0.2,0-0.3-0.2-0.2-0.3l2.4-7.9c0-0.1,0.1-0.2,0.2-0.2H172.1z M171.3,121.2l-0.5,1.8h1.3
		l-0.6-1.8c0-0.2-0.1-0.3-0.1-0.5C171.4,120.8,171.3,121,171.3,121.2z"/>
	<path d="M183.8,118c0.1,0,0.3,0.1,0.3,0.3v7.9c0,0.1-0.1,0.3-0.3,0.3h-1.2c-0.1,0-0.3-0.1-0.3-0.3v-3.8c0,0.2-0.1,0.3-0.2,0.5
		l-1.3,3.4c0,0.1-0.1,0.2-0.2,0.2h-0.8c-0.1,0-0.2-0.1-0.2-0.2l-1.3-3.4c-0.1-0.2-0.1-0.3-0.2-0.5v3.8c0,0.1-0.1,0.3-0.3,0.3h-1.2
		c-0.1,0-0.3-0.1-0.3-0.3v-7.9c0-0.1,0.1-0.3,0.3-0.3h1.3c0.1,0,0.2,0.1,0.2,0.2l1.9,4.9c0.1,0.2,0.1,0.3,0.2,0.5
		c0-0.2,0.1-0.3,0.2-0.5l1.9-4.9c0-0.1,0.1-0.2,0.2-0.2H183.8z"/>
	<path d="M196.3,118c0.1,0,0.3,0.1,0.3,0.3v1.2c0,0.1-0.1,0.3-0.3,0.3h-1.9v6.5c0,0.1-0.1,0.3-0.3,0.3H193c-0.1,0-0.3-0.1-0.3-0.3
		v-6.5h-1.9c-0.1,0-0.3-0.1-0.3-0.3v-1.2c0-0.1,0.1-0.3,0.3-0.3H196.3z"/>
</g>
<g class="st0">
	<path d="M204.2,118c0.1,0,0.1,0,0.2,0.1l0.5,0.5c0,0,0.1,0.1,0.1,0.2v3.9c0,0.1,0,0.1-0.1,0.2l-0.5,0.5c0,0-0.1,0.1-0.2,0.1h-0.5
		c0.1,0.1,0.2,0.2,0.3,0.4l1,2.2c0,0,0,0.1,0,0.1c0,0.1-0.1,0.3-0.3,0.3h-1.2c-0.1,0-0.2-0.1-0.2-0.1l-1.3-2.8h-0.9v2.7
		c0,0.1-0.1,0.3-0.3,0.3h-1.2c-0.1,0-0.3-0.1-0.3-0.3v-7.9c0-0.1,0.1-0.3,0.3-0.3H204.2z M201.5,119.6c-0.1,0-0.3,0.1-0.3,0.3v1.6
		c0,0.1,0,0.1,0.1,0.2l0,0c0,0,0.1,0.1,0.2,0.1h1.6c0.1,0,0.1,0,0.2-0.1l0,0c0,0,0.1-0.1,0.1-0.2v-1.6c0-0.1,0-0.1-0.1-0.2l0,0
		c0,0-0.1-0.1-0.2-0.1H201.5z"/>
</g>
<g class="st0">
	<path d="M213.1,118c0.1,0,0.3,0.1,0.3,0.3v7.4c0,0.1,0,0.1-0.1,0.2l-0.5,0.5c0,0-0.1,0.1-0.2,0.1h-4.3c-0.1,0-0.1,0-0.2-0.1
		l-0.5-0.5c0,0-0.1-0.1-0.1-0.2v-7.4c0-0.1,0.1-0.3,0.3-0.3h1.2c0.1,0,0.3,0.1,0.3,0.3v6.2c0,0.1,0,0.1,0.1,0.2l0,0
		c0,0,0.1,0.1,0.2,0.1h2c0.1,0,0.1,0,0.2-0.1l0,0c0,0,0.1-0.1,0.1-0.2v-6.2c0-0.1,0.1-0.3,0.3-0.3H213.1z"/>
</g>
<g class="st0">
	<path d="M220.4,118c0.1,0,0.1,0,0.2,0.1l0.5,0.5c0,0,0.1,0.1,0.1,0.2v1.5c0,0.1-0.1,0.3-0.3,0.3h-1.2c-0.1,0-0.3-0.1-0.3-0.3v-0.3
		c0-0.1,0-0.1-0.1-0.2l0,0c0,0-0.1-0.1-0.2-0.1h-1.6c-0.1,0-0.1,0-0.2,0.1l0,0c0,0-0.1,0.1-0.1,0.2v4.5c0,0.1,0,0.1,0.1,0.2l0,0
		c0,0,0.1,0.1,0.2,0.1h1.6c0.1,0,0.1,0,0.2-0.1l0,0c0,0,0.1-0.1,0.1-0.2v-0.3c0-0.1,0.1-0.3,0.3-0.3h1.2c0.1,0,0.3,0.1,0.3,0.3v1.5
		c0,0.1,0,0.1-0.1,0.2l-0.5,0.5c0,0-0.1,0.1-0.2,0.1h-3.9c-0.1,0-0.1,0-0.2-0.1l-0.5-0.5c0,0-0.1-0.1-0.1-0.2v-6.9
		c0-0.1,0-0.1,0.1-0.2l0.5-0.5c0,0,0.1-0.1,0.2-0.1H220.4z"/>
</g>
<g class="st0">
	<path d="M229.2,118c0.2,0,0.3,0.1,0.3,0.3c0,0,0,0.1-0.1,0.2l-3.2,3.8l3.2,3.8c0,0,0.1,0.1,0.1,0.2c0,0.1-0.1,0.3-0.3,0.3h-1.5
		c-0.1,0-0.1,0-0.2-0.1l-1.8-2.2c-0.2-0.2-0.3-0.4-0.4-0.6v2.6c0,0.1-0.1,0.3-0.3,0.3h-1.2c-0.1,0-0.3-0.1-0.3-0.3v-7.9
		c0-0.1,0.1-0.3,0.3-0.3h1.2c0.1,0,0.3,0.1,0.3,0.3v2.6c0.1-0.2,0.2-0.4,0.4-0.6l1.8-2.2c0-0.1,0.1-0.1,0.2-0.1H229.2z"/>
</g>
<path class="st1" d="M236.6,119.4L236.6,119.4l-0.1,0L236.6,119.4L236.6,119.4z M236.7,121.5L236.7,121.5L236.7,121.5L236.7,121.5
	L236.7,121.5z M236.9,121.1L236.9,121.1L236.9,121.1L236.9,121.1z M237,119.6L237,119.6l-0.1,0v0.1l0.1,0.1L237,119.6z M237.1,120.1
	v0.3h0L237.1,120.1z M237.1,120.3L237.1,120.3L237.1,120.3L237.1,120.3z M237.2,120.6L237.2,120.6l-0.2,0.1l0.1,0.1l0,0.2l0.2,0
	l0-0.1L237.2,120.6l0.1,0l0.1-0.1l-0.1-0.1L237.2,120.6z M237.4,120.1L237.4,120.1L237.4,120.1v0.1V120.1z M237.4,121L237.4,121
	l0.1-0.3l-0.1,0.1L237.4,121z M237.6,121.1L237.6,121.1l-0.1-0.1l0,0.1L237.6,121.1L237.6,121.1z M238.1,121.7L238.1,121.7
	L238.1,121.7L238.1,121.7L238.1,121.7z M238.1,120.7L238.1,120.7v0.2l0.1,0l0.1,0l-0.1-0.4L238.1,120.7z M238.4,120.1L238.4,120.1
	l-0.1,0.1l0.1,0L238.4,120.1z M238.7,119.5L238.7,119.5l-0.2,0.1l0,0.2h0.1l0.2-0.3l-0.1-0.1L238.7,119.5z M238.6,120.3L238.6,120.3
	v0.2l0.2,0.1l0.1,0l0-0.1l-0.2,0.1L238.6,120.3z M239,120.1L239,120.1l0-0.1l-0.2,0v0.1L239,120.1z M239,121L239,121l0-0.1l-0.1-0.1
	h-0.2l0.1,0.1l0.2,0L239,121z M239.1,119.7L239.1,119.7L239.1,119.7v0.4V119.7z M239.1,120.5L239.1,120.5l0-0.1l-0.1,0L239.1,120.5
	l0.1,0.2l0-0.1L239.1,120.5z M239.3,119.7L239.3,119.7l-0.1,0.1L239.3,119.7L239.3,119.7z M239.3,120L239.3,120L239.3,120l-0.2,0
	l0.1,0.1l0.1,0.1V120z M239.5,120.6L239.5,120.6L239.5,120.6L239.5,120.6z M239.5,119.6L239.5,119.6L239.5,119.6L239.5,119.6
	L239.5,119.6z M239.7,120.4L239.7,120.4L239.7,120.4L239.7,120.4L239.7,120.4z M239.5,120.4L239.5,120.4L239.5,120.4l-0.2,0.1
	l0.1,0.2h-0.1l-0.2,0.2l0,0.1l0.2,0.2l0.1-0.1l0.1,0l0.1,0.3l0.1,0l-0.1,0v-0.2l0.1-0.1l0-0.1h-0.1l-0.1-0.1l0-0.1l0-0.2l-0.1,0
	L239.5,120.4z M239.8,120.7L239.8,120.7L239.8,120.7L239.8,120.7L239.8,120.7L239.8,120.7z M239.8,120.5h0.1v-0.1L239.8,120.5
	L239.8,120.5z M240.1,120.2L240.1,120.2l-0.1,0.1l0.1,0.3L240.1,120.2z M240.1,121.4L240.1,121.4L240.1,121.4L240.1,121.4z
	 M240.3,120.7h-0.1l-0.2-0.1l0.2,0.3l0.1,0.1L240.3,120.7L240.3,120.7z M240.2,121.3L240.2,121.3L240.2,121.3l-0.1,0L240.2,121.3z
	 M240.2,120.1L240.2,120.1v0.1h0.1L240.2,120.1L240.2,120.1L240.2,120.1z M240.4,120.5L240.4,120.5L240.4,120.5L240.4,120.5z
	 M240.4,121.2L240.4,121.2L240.4,121.2L240.4,121.2z M240.3,121.7L240.3,121.7l0.1,0.2h0.1l0-0.1l0-0.1L240.3,121.7z M240.7,121
	L240.7,121h0.2v-0.2h-0.1L240.7,121z M240.5,120.4L240.5,120.4l0,0.2l-0.1,0.1v0.1l0.1,0.1h0.1l0.2-0.3l0.1,0l0.2,0l0-0.1l-0.1-0.1
	l-0.3-0.1L240.5,120.4z M241.4,120.6L241.4,120.6L241.4,120.6L241.4,120.6z M241.4,121L241.4,121l0-0.1l-0.1,0l-0.1,0.1L241.4,121z
	 M241.6,121.2L241.6,121.2L241.6,121.2L241.6,121.2z M241.6,121L241.6,121l0-0.3L241.6,121z M241.6,121.9L241.6,121.9L241.6,121.9
	L241.6,121.9z M241.7,120.5L241.7,120.5l-0.1-0.1l-0.1,0l-0.1,0.1l0.1,0l0,0.1l0.1,0L241.7,120.5z M241.9,120.2L241.9,120.2
	l-0.2,0.1l0.1,0.1l0.1,0L241.9,120.2z M242,120.5L242,120.5l-0.1,0.1L242,120.5L242,120.5z M242.1,120.5L242.1,120.5L242.1,120.5
	L242.1,120.5L242.1,120.5z M242.9,121.8L242.9,121.8l0.1,0.1l0.1-0.2L242.9,121.8L242.9,121.8z M243.1,120.3L243.1,120.3l-0.2,0.2
	l0.1,0.2l0.1-0.2L243.1,120.3L243.1,120.3z M243.3,120.3L243.3,120.3l0.1,0.2L243.3,120.3L243.3,120.3z M243.6,120.5L243.6,120.5
	l0.1,0.1L243.6,120.5z M243.9,120.9L243.9,120.9l-0.2,0l0.1,0.1l0.1,0L243.9,120.9z M244.1,121.7L244.1,121.7L244.1,121.7
	L244.1,121.7z M244.3,120.5L244.3,120.5L244.3,120.5L244.3,120.5z M244.5,121.2L244.5,121.2l0.1,0l0-0.1L244.5,121.2L244.5,121.2z
	 M244.5,120.6L244.5,120.6l-0.2,0.2h0.1l0.2,0.2v-0.2L244.5,120.6z M244.7,120.5l-0.1-0.1l-0.1,0l-0.1,0l0,0.1L244.7,120.5
	L244.7,120.5z M244.8,120.5L244.8,120.5L244.8,120.5L244.8,120.5z M245.2,120.5L245.2,120.5L245.2,120.5l-0.2-0.1l-0.1,0.1v0.1
	l0.1,0L245.2,120.5z M245.3,120.9L245.3,120.9L245.3,120.9L245.3,120.9z M245.3,120.4L245.3,120.4L245.3,120.4L245.3,120.4
	L245.3,120.4z M245.5,120.8L245.5,120.8L245.5,120.8L245.5,120.8L245.5,120.8z M245.7,120.3L245.7,120.3L245.7,120.3L245.7,120.3z
	 M260.3,119.5L260.3,119.5l-0.1,0.1h0.1V119.5z M260.6,121.3L260.6,121.3l0,0.2L260.6,121.3z M260.9,120.8L260.9,120.8L260.9,120.8
	L260.9,120.8z M260.9,121.8v-0.1l-0.1-0.1l-0.1,0L260.9,121.8z M261,120.8l-0.2,0.1l-0.1,0.1l0,0.1l0.1,0l0.1-0.1V120.8z M261,121.2
	L261,121.2L261,121.2L261,121.2L261,121.2z M259.3,120.8L259.3,120.8h-0.2l0.1,0.1L259.3,120.8L259.3,120.8z M259.5,121.5
	L259.5,121.5L259.5,121.5L259.5,121.5L259.5,121.5z M259.6,121.3h-0.1H259.6L259.6,121.3L259.6,121.3z M259.6,120.8L259.6,120.8
	l0,0.3L259.6,120.8z M259.6,120.5L259.6,120.5L259.6,120.5L259.6,120.5z M260,120.4v0.2l0.1,0.1v-0.1L260,120.4z M260.2,120.7
	L260.2,120.7L260.2,120.7L260.2,120.7z M260.5,120.5L260.5,120.5l-0.2,0.1v0.1h0.1L260.5,120.5z M260.6,121.3L260.6,121.3l-0.1-0.1
	l0-0.1l-0.1,0l0,0.1L260.6,121.3z M260.7,120.7L260.7,120.7l0-0.1h-0.1l0.1,0.3l0.1,0l0.1-0.2l0.1-0.1l0,0.1l0.1,0l0-0.1l0-0.1
	l-0.1-0.1h-0.1L260.7,120.7L260.7,120.7z M260.9,120.2v0.3h0.2l0,0l-0.1-0.2L260.9,120.2z M261.1,119.8v0.1V119.8L261.1,119.8
	L261.1,119.8z M261.4,119.7L261.4,119.7L261.4,119.7L261.4,119.7z M261.4,120.6L261.4,120.6l-0.2,0l-0.1,0.1l0,0L261.4,120.6z
	 M261.6,120.5L261.6,120.5l0.1,0.2l0-0.5L261.6,120.5z M261.9,120.4h-0.1l-0.1,0l0,0.1L261.9,120.4L261.9,120.4z M262,120.5
	L262,120.5l0,0.1l0.1,0L262,120.5L262,120.5z M262,121.7L262,121.7l0.1,0.2l0.2,0L262,121.7z M262.3,120.5l0.1-0.1L262.3,120.5
	L262.3,120.5z M262.7,120.6L262.7,120.6l-0.1,0l0,0.1l0,0L262.7,120.6z M262.7,121L262.7,121l0,0.3L262.7,121z M263,121L263,121
	L263,121L263,121L263,121z M263,120.6L263,120.6l-0.1,0.1l0.1,0.2L263,120.6z M263.2,120.9L263.2,120.9l-0.1-0.1l-0.1,0.1
	L263.2,120.9L263.2,120.9z M263.2,121.2L263.2,121.2L263.2,121.2l0-0.1l-0.1,0L263.2,121.2z M263.6,119.4L263.6,119.4L263.6,119.4
	L263.6,119.4z M263.5,120.3L263.5,120.3l0.2,0.1l0-0.1L263.5,120.3z M263.7,120.5L263.7,120.5l0.1,0.1l0-0.1L263.7,120.5z
	 M264,120.2L264,120.2l-0.1-0.1l0,0.1L264,120.2L264,120.2z M263.9,120L263.9,120l0.1,0.1L263.9,120L263.9,120z M265.9,120.1
	L265.9,120.1L265.9,120.1L265.9,120.1L265.9,120.1z M265.9,121.1L265.9,121.1L265.9,121.1l-0.1,0.6L265.9,121.1z M266,120.5
	L266,120.5v0.2V120.5z M265.9,120.7L265.9,120.7l0.1,0.1l0-0.1L265.9,120.7L265.9,120.7z M266.9,120.5L266.9,120.5L266.9,120.5
	L266.9,120.5z M266.6,120.7L266.6,120.7l-0.1,0.1l0.1,0.2l0.1,0.1l0.1,0l0.1-0.2l-0.1-0.1l0,0.1l-0.1,0L266.6,120.7L266.6,120.7z
	 M266.8,121.3L266.8,121.3l0.1,0.1L266.8,121.3L266.8,121.3z M267.2,120.2L267.2,120.2L267.2,120.2L267.2,120.2z M267.4,121.9
	L267.4,121.9L267.4,121.9L267.4,121.9L267.4,121.9z M235.7,121L235.7,121l0-0.3l0.1-0.1v-0.5l0-0.1v-0.3l0.1-0.2l0.2-0.2l0.2-0.1
	l0.3,0l0.3,0.1l0.1,0l0.1,0.1l0.2-0.1l0.1,0.1h0.3l0.1,0l0.1,0.1h0.1l0.1-0.1h0.9l0.1,0.1l0.2-0.1h0.7l0.1,0h0.4l0.2-0.1l0.2,0.1
	l0.6-0.1l0.1,0h0.3l0.1,0h0.4l0.2,0.1h0.5l0.1,0h0.5l0.1,0l0.1-0.1h0.7l0.5,0.1l0.1-0.1l0.1,0l0.5-0.1l0.1,0.1h15.2l0,0h-1.2l0.1,0
	h1.7l0.1,0h0.4l0.1,0.1l0,0.2l0,0v-0.1l0.1-0.1h0.7l0.1,0h0.4l0.1,0h0.4l0.1,0.1l0.2-0.1l0.2,0l0.2,0l0.7,0.1l0.1,0h0.4l0.1,0h0.9
	l0.1,0.2l0.1-0.2l0.6,0.1l0.2-0.1h0.5l0.3,0.1l0.2,0.1l0.2,0.3l0.1,0.5l0,0.1v0.3l0,0v0.8l0,0.1l0,0.3l-0.1,0.2l-0.2,0l-0.2,0.2
	h-0.3l-0.1,0h-0.3l0,0h-0.5l-0.1,0H265l0,0h-0.4l-0.1,0h-0.4l0,0l-0.4,0l-0.1-0.1l-0.2,0.1l-0.4,0l-0.1,0h-0.6l-0.1,0h-0.4l-0.1,0
	h-1.1l-0.1,0h-0.3l-0.3-0.1l-0.5,0l-0.1,0h-0.2l-0.1,0h1.6l-0.1,0h-0.3l-0.3,0.1l-14.6-0.1l-0.1,0.1l-0.4-0.1h-0.9l-0.1,0l-0.6,0
	l-0.1,0l-0.5,0v-0.2l-0.1,0l-0.1,0.1l-0.1,0l-0.7-0.1l-0.1,0h-0.4l-0.1,0l-0.9-0.1l-0.1,0.1l-0.3,0l-0.1-0.1H240l-0.1,0h-0.3
	l-0.1-0.1l-0.1,0l-0.5,0.1l-0.2-0.1l-0.1,0.1l-0.5,0l0-0.1l-0.1,0l-0.3,0.1h-0.8l-0.1,0l-0.3-0.1l-0.1-0.1l-0.1,0.2l-0.5,0l-0.2-0.1
	l-0.2-0.2l-0.1-0.3L235.7,121z"/>
<path class="st1" d="M36.8,119.4L36.8,119.4l-0.1,0L36.8,119.4L36.8,119.4z M36.9,121.5L36.9,121.5L36.9,121.5L36.9,121.5
	L36.9,121.5z M37.1,121.1L37.1,121.1L37.1,121.1L37.1,121.1z M37.1,119.6L37.1,119.6l-0.1,0v0.1l0,0.1L37.1,119.6z M37.2,120.1v0.3
	h0L37.2,120.1z M37.3,120.3L37.3,120.3L37.3,120.3L37.3,120.3z M37.3,120.6L37.3,120.6l-0.2,0.1l0,0.1l0,0.2l0.2,0l0-0.1L37.3,120.6
	l0.1,0l0-0.1l-0.1-0.1L37.3,120.6z M37.5,120.1L37.5,120.1L37.5,120.1v0.1V120.1z M37.5,121L37.5,121l0.1-0.3l-0.1,0.1L37.5,121z
	 M37.8,121.1L37.8,121.1l-0.1-0.1l0,0.1L37.8,121.1L37.8,121.1z M38.2,121.7L38.2,121.7L38.2,121.7L38.2,121.7L38.2,121.7z
	 M38.3,120.7L38.3,120.7v0.2l0.1,0l0.1,0l-0.1-0.4L38.3,120.7z M38.6,120.1L38.6,120.1l-0.1,0.1l0.1,0L38.6,120.1z M38.8,119.5
	L38.8,119.5l-0.2,0.1l0,0.2h0.1l0.2-0.3l-0.1-0.1L38.8,119.5z M38.8,120.3L38.8,120.3v0.2l0.2,0.1l0.1,0l0-0.1l-0.2,0.1L38.8,120.3z
	 M39.1,120.1L39.1,120.1l0-0.1l-0.2,0v0.1L39.1,120.1z M39.2,121L39.2,121l0-0.1l-0.1-0.1h-0.2l0.1,0.1l0.2,0L39.2,121z M39.2,119.7
	L39.2,119.7L39.2,119.7v0.4V119.7z M39.3,120.5L39.3,120.5l0-0.1l-0.1,0L39.3,120.5l0.1,0.2l0-0.1L39.3,120.5z M39.5,119.7
	L39.5,119.7l-0.1,0.1L39.5,119.7L39.5,119.7z M39.5,120L39.5,120L39.5,120l-0.2,0l0.1,0.1l0.1,0.1V120z M39.6,120.6L39.6,120.6
	L39.6,120.6L39.6,120.6z M39.7,119.6L39.7,119.6L39.7,119.6L39.7,119.6L39.7,119.6z M39.8,120.4L39.8,120.4L39.8,120.4L39.8,120.4
	L39.8,120.4z M39.7,120.4L39.7,120.4L39.7,120.4l-0.2,0.1l0.1,0.2h-0.1l-0.2,0.2l0,0.1l0.2,0.2l0.1-0.1l0.1,0l0.1,0.3l0.1,0l0,0
	v-0.2l0.1-0.1l0-0.1h-0.1l-0.1-0.1l0-0.1l0-0.2l-0.1,0L39.7,120.4z M40,120.7L40,120.7L40,120.7L40,120.7L40,120.7L40,120.7z
	 M40,120.5h0.1v-0.1L40,120.5L40,120.5z M40.2,120.2L40.2,120.2l-0.1,0.1l0.1,0.3L40.2,120.2z M40.2,121.4L40.2,121.4L40.2,121.4
	L40.2,121.4z M40.4,120.7h-0.1l-0.2-0.1l0.2,0.3l0.1,0.1L40.4,120.7L40.4,120.7z M40.4,121.3L40.4,121.3L40.4,121.3l-0.1,0
	L40.4,121.3z M40.4,120.1L40.4,120.1v0.1h0.1L40.4,120.1L40.4,120.1L40.4,120.1z M40.6,120.5L40.6,120.5L40.6,120.5L40.6,120.5z
	 M40.6,121.2L40.6,121.2L40.6,121.2L40.6,121.2z M40.5,121.7L40.5,121.7l0.1,0.2h0.1l0-0.1l0-0.1L40.5,121.7z M40.9,121L40.9,121H41
	v-0.2h0L40.9,121z M40.6,120.4L40.6,120.4l0,0.2l-0.1,0.1v0.1l0.1,0.1h0.1l0.2-0.3l0.1,0l0.2,0l0-0.1l-0.1-0.1l-0.3-0.1L40.6,120.4z
	 M41.5,120.6L41.5,120.6L41.5,120.6L41.5,120.6z M41.6,121L41.6,121l0-0.1l-0.1,0l-0.1,0.1L41.6,121z M41.7,121.2L41.7,121.2
	L41.7,121.2L41.7,121.2z M41.8,121L41.8,121l0-0.3L41.8,121z M41.8,121.9L41.8,121.9L41.8,121.9L41.8,121.9z M41.9,120.5L41.9,120.5
	l-0.1-0.1l-0.1,0l-0.1,0.1l0.1,0l0,0.1l0.1,0L41.9,120.5z M42.1,120.2L42.1,120.2l-0.2,0.1l0.1,0.1l0.1,0L42.1,120.2z M42.2,120.5
	L42.2,120.5l-0.1,0.1L42.2,120.5L42.2,120.5z M42.3,120.5L42.3,120.5L42.3,120.5L42.3,120.5L42.3,120.5z M43,121.8L43,121.8l0.1,0.1
	l0-0.2L43,121.8L43,121.8z M43.2,120.3L43.2,120.3l-0.2,0.2l0.1,0.2l0.1-0.2V120.3L43.2,120.3z M43.5,120.3L43.5,120.3l0.1,0.2
	L43.5,120.3L43.5,120.3z M43.8,120.5L43.8,120.5l0.1,0.1L43.8,120.5z M44,120.9L44,120.9l-0.2,0l0.1,0.1l0.1,0L44,120.9z
	 M44.3,121.7L44.3,121.7L44.3,121.7L44.3,121.7z M44.4,120.5L44.4,120.5L44.4,120.5L44.4,120.5z M44.6,121.2L44.6,121.2l0.1,0l0-0.1
	L44.6,121.2L44.6,121.2z M44.7,120.6L44.7,120.6l-0.2,0.2h0.1l0.2,0.2v-0.2L44.7,120.6z M44.8,120.5l-0.1-0.1l-0.1,0l-0.1,0l0,0.1
	L44.8,120.5L44.8,120.5z M45,120.5L45,120.5L45,120.5L45,120.5z M45.4,120.5L45.4,120.5L45.4,120.5l-0.2-0.1l-0.1,0.1v0.1l0.1,0
	L45.4,120.5z M45.5,120.9L45.5,120.9L45.5,120.9L45.5,120.9z M45.5,120.4L45.5,120.4L45.5,120.4L45.5,120.4L45.5,120.4z M45.6,120.8
	L45.6,120.8L45.6,120.8L45.6,120.8L45.6,120.8z M45.8,120.3L45.8,120.3L45.8,120.3L45.8,120.3z M60.5,119.5L60.5,119.5l-0.1,0.1h0.1
	V119.5z M60.8,121.3L60.8,121.3l0,0.2L60.8,121.3z M61,120.8L61,120.8L61,120.8L61,120.8z M61.1,121.8v-0.1l-0.1-0.1l-0.1,0
	L61.1,121.8z M61.1,120.8l-0.2,0.1l-0.1,0.1l0,0.1l0.1,0l0.1-0.1V120.8z M61.2,121.2L61.2,121.2L61.2,121.2L61.2,121.2L61.2,121.2z
	 M59.4,120.8L59.4,120.8h-0.2l0.1,0.1L59.4,120.8L59.4,120.8z M59.6,121.5L59.6,121.5L59.6,121.5L59.6,121.5L59.6,121.5z
	 M59.7,121.3h-0.1H59.7L59.7,121.3L59.7,121.3z M59.8,120.8L59.8,120.8l0,0.3L59.8,120.8z M59.7,120.5L59.7,120.5L59.7,120.5
	L59.7,120.5z M60.2,120.4v0.2l0.1,0.1v-0.1L60.2,120.4z M60.4,120.7L60.4,120.7L60.4,120.7L60.4,120.7z M60.6,120.5L60.6,120.5
	l-0.2,0.1v0.1h0.1L60.6,120.5z M60.8,121.3L60.8,121.3l-0.1-0.1l0-0.1l-0.1,0l0,0.1L60.8,121.3z M60.8,120.7L60.8,120.7l0-0.1h-0.1
	l0.1,0.3l0.1,0l0.1-0.2l0.1-0.1l0,0.1l0.1,0l0-0.1l0-0.1l-0.1-0.1h-0.1L60.8,120.7L60.8,120.7z M61,120.2v0.3h0.2l0,0l-0.1-0.2
	L61,120.2z M61.3,119.8v0.1V119.8L61.3,119.8L61.3,119.8z M61.5,119.7L61.5,119.7L61.5,119.7L61.5,119.7z M61.6,120.6L61.6,120.6
	l-0.2,0l-0.1,0.1l0,0L61.6,120.6z M61.7,120.5L61.7,120.5l0.1,0.2l0-0.5L61.7,120.5z M62.1,120.4H62l-0.1,0l0,0.1L62.1,120.4
	L62.1,120.4z M62.2,120.5L62.2,120.5l0,0.1l0.1,0L62.2,120.5L62.2,120.5z M62.1,121.7L62.1,121.7l0.1,0.2l0.2,0L62.1,121.7z
	 M62.5,120.5l0.1-0.1L62.5,120.5L62.5,120.5z M62.9,120.6L62.9,120.6l-0.1,0l0,0.1l0,0L62.9,120.6z M62.9,121L62.9,121l0,0.3
	L62.9,121z M63.2,121L63.2,121L63.2,121L63.2,121L63.2,121z M63.2,120.6L63.2,120.6l-0.1,0.1l0.1,0.2L63.2,120.6z M63.4,120.9
	L63.4,120.9l-0.1-0.1l-0.1,0.1L63.4,120.9L63.4,120.9z M63.3,121.2L63.3,121.2L63.3,121.2l0-0.1l-0.1,0L63.3,121.2z M63.7,119.4
	L63.7,119.4L63.7,119.4L63.7,119.4z M63.6,120.3L63.6,120.3l0.2,0.1l0-0.1L63.6,120.3z M63.9,120.5L63.9,120.5l0.1,0.1l0-0.1
	L63.9,120.5z M64.1,120.2L64.1,120.2l-0.1-0.1l0,0.1L64.1,120.2L64.1,120.2z M64.1,120L64.1,120l0.1,0.1L64.1,120L64.1,120z
	 M66,120.1L66,120.1L66,120.1L66,120.1L66,120.1z M66,121.1L66,121.1L66,121.1l-0.1,0.6L66,121.1z M66.1,120.5L66.1,120.5v0.2V120.5
	z M66,120.7L66,120.7l0.1,0.1l0-0.1L66,120.7L66,120.7z M67.1,120.5L67.1,120.5L67.1,120.5L67.1,120.5z M66.8,120.7L66.8,120.7
	l-0.1,0.1l0.1,0.2l0.1,0.1l0.1,0l0.1-0.2l-0.1-0.1l-0.1,0.1l-0.1,0L66.8,120.7L66.8,120.7z M67,121.3L67,121.3l0.1,0.1L67,121.3
	L67,121.3z M67.4,120.2L67.4,120.2L67.4,120.2L67.4,120.2z M67.5,121.9L67.5,121.9L67.5,121.9L67.5,121.9L67.5,121.9z M35.9,121
	L35.9,121l0-0.3l0-0.1v-0.5l0-0.1v-0.3l0.1-0.2l0.2-0.2l0.2-0.1l0.3,0l0.3,0.1l0.1,0l0.1,0.1l0.2-0.1l0.1,0.1h0.3l0,0l0.1,0.1h0.1
	l0.1-0.1h0.9l0.1,0.1l0.2-0.1h0.7l0.1,0h0.4l0.2-0.1l0.2,0.1l0.6-0.1l0.1,0h0.3l0,0h0.4l0.2,0.1h0.5l0.1,0h0.5l0.1,0l0.1-0.1h0.7
	l0.5,0.1l0.1-0.1l0.1,0l0.5-0.1l0.1,0.1h15.2l0,0h-1.2l0.1,0h1.7l0.1,0h0.4l0.1,0.1l0,0.2l0,0v-0.1l0.1-0.1h0.7l0.1,0H63l0.1,0h0.4
	l0.1,0.1l0.2-0.1l0.2,0l0.2,0l0.7,0.1l0.1,0h0.4l0.1,0h0.9l0.1,0.2l0.1-0.2l0.6,0.1l0.2-0.1h0.5l0.3,0.1l0.2,0.1l0.2,0.3l0.1,0.5
	l0,0.1v0.3l0,0v0.8l0,0.1l-0.1,0.3l-0.1,0.2l-0.2,0l-0.2,0.2h-0.3l-0.1,0H67l0,0h-0.5l-0.1,0h-1.3l-0.1,0h-0.4l-0.1,0h-0.4l-0.1,0
	l-0.4,0l-0.1-0.1l-0.2,0.1l-0.4,0l-0.1,0h-0.6l-0.1,0h-0.4l-0.1,0h-1.1l-0.1,0h-0.3l-0.3-0.1l-0.5,0l-0.1,0h-0.2l-0.1,0H61l-0.1,0
	h-0.3l-0.3,0.1l-14.6-0.1l-0.1,0.1l-0.4-0.1h-0.9l-0.1,0l-0.6,0l-0.1,0l-0.5,0v-0.2l-0.1,0l-0.1,0.1l0,0l-0.7-0.1l-0.1,0h-0.4
	l-0.1,0l-0.9-0.1l-0.1,0.1l-0.3,0l-0.1-0.1h-0.2l-0.1,0h-0.3l0-0.1l-0.1,0l-0.5,0.1L39,122l-0.1,0.1l-0.5,0l0-0.1l-0.1,0l-0.3,0.1
	h-0.8l-0.1,0l-0.3-0.1l-0.1-0.1l0,0.2l-0.5,0l-0.2-0.1l-0.2-0.2l-0.1-0.3L35.9,121z"/>
</svg>
