<svg xmlns="http://www.w3.org/2000/svg" width="274.5" height="59" overflow="visible"><style>.st0{fill:#fff}</style><path class="st0" d="M0 5.1l2.5-5h.7l2.5 5H5L2.8.9.7 5.1H0zM12 .1v.8H8v2.7h2.8v.8H8.1v3.1h4.2v.8H7.2V.1H12zM14.5.1v8.1h-.8V.1h.8zM17.1 0v1h-.8V0h.8zm-.8 2.4h.8v5.8h-.8V2.4zM23.5 3H23c-.2 0-.3.1-.4.1.1.1.2.3.3.5 0 .2.1.4.1.7 0 .3-.1.6-.2.8s-.3.5-.5.6c-.2.2-.4.3-.7.4-.3.1-.5.2-.8.2h-.6c-.1 0-.3-.1-.5-.1-.3.1-.5.3-.5.5 0 .1 0 .2.1.3.1.1.2.1.4.1.7 0 1.3 0 1.7.1.5.1.8.2 1.1.3s.5.3.6.5c.1.2.2.5.2.7 0 .2-.1.4-.2.6-.1.2-.3.4-.5.5-.2.1-.5.3-.8.3-.3.1-.7.1-1.2.1-.8 0-1.4-.1-1.9-.3s-.4-.5-.4-.9c0-.3.1-.5.3-.7.2-.2.4-.3.7-.5-.2-.1-.4-.2-.5-.3-.1-.2-.2-.3-.2-.5 0-.3.1-.4.2-.6s.3-.3.6-.4c-.3-.2-.5-.5-.6-.7-.1-.3-.2-.6-.2-.9 0-.3.1-.6.2-.8.1-.4.2-.6.4-.8s.4-.3.7-.4c.3-.1.6-.1.9-.1.3 0 .6 0 .8.1l.6.3.6-.3c.2-.1.4-.2.7-.2V3zm-.8 5.8c0-.3-.2-.5-.5-.6-.2-.2-.8-.2-1.5-.2-.3 0-.6 0-.8.1-.2.1-.4.1-.5.2l-.3.3c-.1.1-.1.2-.1.3 0 .1 0 .2.1.3s.1.2.3.2.3.1.6.1c.2 0 .6.1 1 .1.2 0 .5 0 .7-.1.2 0 .4-.1.6-.2s.3-.2.4-.3v-.2zm-.5-4.4c0-.4-.1-.8-.4-1-.2-.3-.6-.4-1-.4-.5 0-.8.1-1.1.4s-.4.6-.4 1 .1.7.4 1c.3.3.6.4 1.1.4.2 0 .4 0 .6-.1.2-.1.3-.2.4-.3.2-.3.3-.4.3-.6s.1-.3.1-.4zM25.4 0v1h-.8V0h.8zm-.8 2.4h.8v5.8h-.8V2.4zM28 .1v2.8c.2-.2.5-.3.7-.5.3-.1.5-.2.8-.2.2 0 .5.1.8.2.3.1.5.3.8.5.2.2.4.5.6.9.2.5.3.9.3 1.5s-.1 1.1-.2 1.5-.3.7-.6.9c-.2.2-.5.4-.8.5-.3.1-.6.1-.8.1-.4 0-.7-.1-.9-.2s-.5-.3-.8-.5l-.1.6h-.6c0-.2.1-.4.1-.6V.1h.7zm0 6.7c.3.3.5.5.8.6.2.1.5.2.7.2.5 0 .9-.2 1.2-.6.3-.4.4-1 .4-1.7 0-.4 0-.8-.1-1.1-.1-.3-.2-.5-.3-.7-.1-.2-.3-.3-.5-.4s-.5-.1-.7-.1c-.2 0-.5 0-.7.2-.3.1-.5.3-.7.6v3zM34.2 0v1h-.8V0h.8zm-.8 2.4h.8v5.8h-.8V2.4zM36.9.1v8.1h-.8V.1h.8zM39.5 0v1h-.8V0h.8zm-.8 2.4h.8v5.8h-.8V2.4zM41.6 2.4V.5h.8v1.9h1.3v.7h-1.3v4.2c0 .1.1.2.2.3.1.1.3.1.5.1h.7v.7c-.1 0-.2 0-.3.1h-.6c-.4 0-.8-.1-1-.2-.2-.1-.3-.4-.3-.8V3.1h-1v-.7h1zM49.2 2.4l-2.1 6.4c-.1.3-.2.6-.4.8-.1.2-.3.4-.5.5-.2.1-.4.2-.5.3-.2 0-.4.1-.6.1h-.6v-.9h.8c.1 0 .3-.1.4-.2.3 0 .4-.2.5-.4.1-.2.2-.4.3-.8l-2-5.9h.9L47 6.8l1.4-4.5h.8zM61.5 4.1c-.1-.4-.3-.6-.5-.8s-.5-.3-.9-.3c-.5 0-.9.2-1.2.6-.3.4-.4 1-.4 1.7s.2 1.3.5 1.7c.3.4.7.6 1.2.6h.5c.1 0 .3-.1.4-.2.1-.1.2-.2.4-.3.1-.1.2-.3.3-.5l.7.3c-.1.2-.3.5-.4.7-.1.2-.3.3-.5.5l-.6.3c-.2.1-.5.1-.8.1-.4 0-.7-.1-1-.2-.3-.1-.5-.3-.8-.6-.2-.3-.4-.6-.5-1s-.2-.8-.2-1.3.1-.9.2-1.3.3-.7.5-1c.2-.3.5-.5.8-.6.3-.1.6-.2 1-.2.3 0 .6 0 .8.1l.6.3c.2.1.3.3.4.5l.3.6-.8.3zM63.5 2.4h.8v1.2c.1-.2.2-.4.3-.5l.4-.4c.1-.1.3-.2.5-.2.2-.1.4-.1.6-.1v.8c-.5 0-.9.2-1.2.5s-.4.7-.6 1.3v3.2h-.8V2.4zM68.2 0v1h-.8V0h.8zm-.8 2.4h.8v5.8h-.8V2.4zM70.3 2.4V.5h.8v1.9h1.3v.7h-1.3v4.2c0 .1.1.2.2.3.1.1.3.1.5.1h.7v.7c-.1 0-.2 0-.3.1h-.6c-.4 0-.8-.1-1-.2-.2-.1-.3-.4-.3-.8V3.1h-1v-.7h1zM77.8 7c-.1.2-.2.3-.3.5-.1.2-.3.3-.4.4l-.6.3c-.2.1-.5.1-.9.1s-.6 0-1-.1c-.3-.1-.6-.3-.8-.5-.2-.2-.4-.6-.6-.9-.1-.4-.2-.8-.2-1.4 0-.5.1-.9.2-1.3s.3-.7.5-1c.2-.3.5-.5.8-.6s.6-.2 1-.2c.3 0 .6.1.9.2.3.1.5.3.7.5.2.2.4.5.5.8.1.3.2.7.2 1.2v.5H74c0 .3 0 .6.1.9s.2.5.4.7.3.3.5.4c.2.1.4.2.7.2.4 0 .7-.1.9-.3s.4-.4.6-.8l.6.4zm-.9-2.2c0-.5-.1-1-.4-1.3-.2-.3-.6-.5-1-.5-.5 0-.9.2-1.1.5-.3.3-.4.8-.4 1.3h2.9zM79 2.4h.8v1.2c.1-.3.2-.4.3-.6s.3-.3.4-.4c.1-.1.3-.2.5-.2.2-.1.4-.1.6-.1v.8c-.5 0-.9.2-1.2.5s-.4.8-.6 1.4v3.2H79V2.4zM83.6 0v1h-.8V0h.8zm-.8 2.4h.8v5.8h-.8V2.4zM85.2 3.5c.2-.3.5-.6.8-.9s.8-.4 1.4-.4c.2 0 .5 0 .7.1s.5.2.6.3c.2.1.3.3.5.5.1.2.2.5.2.8V7.8c0 .2.1.3.1.5h-.8l-.1-.8c-.2.2-.5.4-.8.6-.3.2-.7.3-1.1.3-.2 0-.4 0-.6-.1-.2-.1-.4-.2-.5-.3s-.3-.3-.4-.5-.2-.5-.2-.8c0-.3.1-.6.2-.8s.3-.5.6-.7c.3-.2.7-.4 1.1-.5s1-.3 1.7-.4V4c0-.4-.1-.7-.3-.8-.3-.2-.6-.2-.9-.2-.2 0-.4 0-.6.1-.2.1-.3.1-.4.2l-.3.3c-.1.1-.1.2-.2.3l-.7-.4zm3.4 1.6c-1.8.3-2.8.9-2.8 1.7 0 .1 0 .3.1.4s.1.2.2.3c.1.1.2.1.3.2s.2.1.3.1c.1 0 .3 0 .5-.1.2 0 .3-.1.5-.2s.3-.3.5-.5c.1-.1.3-.2.4-.4V5.1zM98.7 3.5c.2-.3.5-.6.8-.9s.8-.4 1.4-.4c.2 0 .5 0 .7.1s.5.2.6.3c.2.1.3.3.5.5.1.2.2.5.2.8V7.8c0 .2.1.3.1.5h-.8l-.1-.8c-.2.2-.5.4-.8.6-.3.2-.7.3-1.1.3-.2 0-.4 0-.6-.1-.2-.1-.4-.2-.5-.3s-.3-.3-.4-.5-.2-.5-.2-.8c0-.3.1-.6.2-.8s.3-.5.6-.7c.3-.2.7-.4 1.1-.5s1-.3 1.7-.4V4c0-.4-.1-.7-.3-.8-.3-.2-.5-.2-.9-.2-.2 0-.4 0-.6.1-.2.1-.3.1-.4.2l-.3.3c-.1.1-.1.2-.2.3l-.7-.4zm3.4 1.6c-1.8.3-2.8.9-2.8 1.7 0 .1 0 .3.1.4s.1.2.2.3c.1.1.2.1.3.2s.2.1.3.1c.1 0 .3 0 .5-.1.2 0 .3-.1.5-.2s.3-.2.5-.3c.1-.1.3-.2.4-.4V5.1zM104.5 10.4v-8h.8v.7l.3-.3c.1-.1.2-.2.4-.3.1-.1.3-.1.4-.2.1 0 .3-.1.4-.1.3 0 .5 0 .8.1.3.1.5.3.8.5.2.2.4.5.6.9.2.4.2.9.2 1.5s-.1 1-.2 1.4c-.2.4-.3.7-.6.9-.2.2-.5.4-.8.5-.3.1-.5.2-.8.2-.3 0-.5-.1-.8-.2-.3-.1-.5-.3-.7-.5v2.7h-.8zm.8-3.6c.2.2.5.4.7.6.3.1.5.2.8.2.2 0 .4 0 .7-.1s.4-.2.5-.4c.1-.2.3-.4.3-.7.1-.3.1-.7.1-1.1 0-.7-.1-1.3-.4-1.7-.3-.4-.7-.6-1.2-.6-.3 0-.5.1-.7.2-.2.1-.5.3-.8.6v3zM110.6 10.4v-8h.8v.7l.3-.3c.1-.1.2-.2.4-.3.1-.1.3-.1.4-.2.1 0 .3-.1.4-.1.3 0 .5 0 .8.1.3.1.5.3.8.5.2.2.4.5.6.9.2.4.2.9.2 1.5s-.1 1-.2 1.4c-.2.4-.3.7-.6.9-.2.2-.5.4-.8.5-.3.1-.5.2-.8.2-.3 0-.5-.1-.8-.2-.3-.1-.5-.3-.7-.5v2.7h-.8zm.8-3.6c.2.2.5.4.7.6.3.1.5.2.8.2.2 0 .4 0 .7-.1s.4-.2.5-.4c.1-.2.3-.4.3-.7.1-.3.1-.7.1-1.1 0-.7-.1-1.3-.4-1.7-.3-.4-.7-.6-1.2-.6-.3 0-.5.1-.7.2-.2.1-.5.3-.8.6v3zM117.5.1v8.1h-.8V.1h.8zM123.3 2.4l-2.1 6.4c-.1.3-.2.6-.4.8-.1.2-.3.4-.5.5-.2.1-.4.2-.5.3-.2 0-.4.1-.6.1h-.6v-.9h.8c.1 0 .3-.1.4-.2.1-.1.3-.2.4-.4.1-.2.2-.4.3-.8l-2-5.9h.9l1.6 4.5 1.4-4.5h.9zM133.2.1v2.8c.2-.2.5-.3.7-.5.3-.1.5-.2.8-.2.2 0 .5.1.8.2.3.1.5.3.8.5.2.2.4.5.6.9.2.4.2.9.2 1.4 0 .6-.1 1.1-.2 1.5s-.3.7-.6.9c-.2.2-.5.4-.8.5-.3.1-.6.1-.8.1-.4 0-.7-.1-.9-.2s-.5-.3-.8-.5l-.1.6h-.6c0-.2.1-.4.1-.6V.1h.8zm0 6.7c.3.3.5.5.8.6.2.1.5.2.7.2.5 0 .9-.2 1.2-.6.3-.4.4-1 .4-1.7 0-.4 0-.8-.1-1.1-.1-.3-.2-.5-.3-.7-.1-.2-.3-.3-.5-.4s-.5-.1-.7-.1c-.2 0-.5.1-.8.2-.3.1-.5.3-.7.6v3zM138.2 3.5c.2-.3.5-.6.8-.9s.8-.4 1.4-.4c.2 0 .5 0 .7.1s.5.2.6.3c.2.1.3.3.5.5.1.2.2.5.2.8V7.8c0 .2.1.3.1.5h-.8l-.1-.8c-.2.2-.5.4-.8.6-.3.2-.7.3-1.1.3-.2 0-.4 0-.6-.1-.2-.1-.4-.2-.5-.3s-.3-.3-.4-.5-.1-.4-.1-.7c0-.3.1-.6.2-.8s.3-.5.6-.7c.3-.2.7-.4 1.1-.5s1-.3 1.7-.4V4c0-.4-.1-.7-.3-.8-.3-.2-.6-.2-1-.2-.2 0-.4 0-.6.1-.2.1-.3.1-.4.2l-.3.3c-.1.1-.1.2-.2.3l-.7-.4zm3.4 1.6c-1.8.3-2.8.9-2.8 1.7 0 .1 0 .3.1.4s.1.2.2.3c.1.1.2.1.3.2s.2.1.3.1c.1 0 .3 0 .5-.1.2 0 .3-.1.5-.2s.3-.2.5-.3c.1-.1.3-.2.4-.4V5.1zM144 6.7c.2.3.4.5.7.7.3.2.6.2 1 .2s.8-.1 1-.3.3-.4.3-.7-.1-.4-.3-.6c-.2-.1-.4-.3-.6-.3-.3-.1-.5-.2-.8-.3-.3-.1-.6-.2-.8-.3-.2-.1-.5-.3-.6-.5-.2-.2-.2-.5-.2-.8 0-.5.2-.9.6-1.2.4-.3.8-.4 1.4-.4.2 0 .4 0 .6.1.2.1.4.1.6.2s.3.2.5.3l.4.4-.8.6c-.2-.3-.5-.5-.7-.6-.3-.2-.5-.2-.9-.2-.3 0-.6.1-.8.2s-.3.4-.3.6c0 .2.1.4.3.5l.6.3c.2.1.5.2.8.3.3.1.6.2.8.3.2.1.5.3.6.5.2.2.3.5.3.9 0 .3-.1.5-.2.7-.1.2-.3.4-.5.5-.2.1-.4.2-.7.3-.2.1-.5.1-.8.1-.5 0-.9-.1-1.3-.3-.4-.2-.8-.5-1-.8l.8-.4zM153.4 7c-.1.2-.2.3-.3.5-.1.2-.3.3-.4.4l-.6.3c-.2.1-.5.1-.9.1s-.6-.1-.9-.2c-.3-.1-.6-.3-.8-.5-.2-.2-.4-.6-.6-.9-.1-.4-.2-.8-.2-1.4 0-.5.1-.9.2-1.3s.3-.7.5-1c.2-.3.5-.5.8-.6s.6-.2 1-.2c.3 0 .6.1.9.2.3.1.5.3.7.5.2.2.4.5.5.8.1.3.2.7.2 1.2v.5h-3.8c0 .3 0 .6.1.9s.2.5.4.7.3.3.5.4c.2.1.4.2.7.2.4 0 .7-.1.9-.3s.5-.4.7-.7l.4.4zm-1-2.2c0-.5-.1-1-.4-1.3-.2-.3-.6-.5-1-.5-.5 0-.9.2-1.1.5-.3.3-.4.8-.4 1.3h2.9zM158.9.1V8.1h-.7l-.1-.6c-.1.2-.3.3-.6.5-.3.1-.6.2-.9.2-.3 0-.5 0-.8-.1-.3-.1-.5-.3-.8-.5-.2-.2-.4-.5-.6-.9s-.2-.9-.2-1.5.1-1 .2-1.4c.2-.4.3-.7.6-.9.2-.2.5-.4.8-.5s.5-.2.8-.2c.3 0 .5.1.8.2.3.1.5.3.7.5V.1h.8zm-.8 3.7c-.2-.2-.5-.4-.7-.6-.3-.2-.5-.2-.8-.2-.2 0-.5 0-.7.1s-.4.2-.5.4c-.2.2-.3.4-.3.7-.1.3-.1.7-.1 1.1 0 .7.1 1.3.4 1.7s.7.6 1.2.6c.3 0 .5-.1.7-.2.2-.1.5-.3.8-.6v-3zM173 5.3c0 .4-.1.8-.2 1.2-.1.4-.3.7-.4 1s-.4.5-.7.6c-.3.2-.6.2-1 .2s-.7-.1-1-.2c-.3-.2-.5-.4-.7-.6s-.3-.6-.4-1c-.1-.4-.2-.8-.2-1.2s.1-.8.2-1.2c.1-.4.3-.7.4-1 .2-.3.4-.5.7-.6.3-.2.6-.2 1-.2s.7.1 1 .2c.3.2.5.4.7.6.2.3.3.6.4 1 .2.4.2.8.2 1.2zm-.8 0c0-.8-.1-1.3-.4-1.7-.3-.4-.7-.6-1.2-.6s-.9.2-1.2.6c-.3.4-.4 1-.4 1.7s.1 1.3.4 1.7.7.6 1.2.6.9-.2 1.2-.6c.3-.4.4-.9.4-1.7zM175.1 2.4v.8c.2-.3.5-.5.8-.6.3-.2.6-.3.9-.3.2 0 .4 0 .6.1.2.1.4.2.5.3s.3.3.4.5.1.5.1.8v4.2h-.8V4c0-.4-.1-.7-.3-.8 0-.2-.2-.2-.5-.2-.2 0-.3 0-.5.1s-.3.1-.5.2c-.1.1-.3.2-.4.3l-.3.3v4.4h-.8V2.4h.8zM189.3 2.4v.8c.2-.3.5-.5.8-.6.3-.2.6-.3.9-.3.2 0 .4 0 .6.1.2.1.4.2.5.3s.3.3.4.5.1.5.1.8v4.2h-.6V4c0-.4-.1-.7-.3-.8-.2-.2-.4-.2-.7-.2-.2 0-.3 0-.5.1s-.3.1-.5.2c-.1.1-.3.2-.4.3l-.3.3v4.4h-.8V2.4h.8zM197.9 8.2v-.8c-.2.3-.5.5-.8.6-.3.2-.6.3-.9.3-.2 0-.4 0-.6-.1s-.4-.2-.5-.3c-.2-.1-.3-.3-.4-.5-.1-.2-.1-.5-.1-.8V2.4h.8v4.2c0 .4.1.7.3.8.2.1.4.2.7.2.1 0 .3 0 .5-.1s.3-.1.5-.2c.1-.1.3-.2.4-.3l.3-.3V2.4h.8v5.8h-1zM200.3 8.2V2.4h.8v.8c.2-.3.5-.5.8-.6.3-.1.6-.2.9-.2.4 0 .7.1 1 .3.3.2.4.4.5.7.3-.3.5-.5.9-.7.3-.2.6-.3 1-.3.2 0 .4 0 .6.1.2 0 .4.1.5.3s.3.3.4.5c.1.2.1.5.1.9v4.2h-.8V4c0-.4-.1-.7-.3-.8-.1-.2-.3-.2-.6-.2-.2 0-.3 0-.5.1-.1.1-.3.1-.4.2s-.3.2-.4.3l-.3.3v4.4h-.8V4c0-.4-.1-.7-.3-.8-.1-.2-.4-.2-.6-.2-.2 0-.3 0-.5.1-.1.1-.3.1-.4.2-.1.1-.3.2-.4.3l-.3.3v4.4h-.9zM213.9 7c-.1.2-.2.3-.3.5-.1.2-.3.3-.4.4l-.6.3c-.2.1-.5.1-.9.1s-.6-.1-.9-.2c-.3-.1-.6-.3-.8-.5-.2-.2-.4-.6-.6-.9-.1-.4-.2-.8-.2-1.4 0-.5.1-.9.2-1.3s.3-.7.5-1c.2-.3.5-.5.8-.6s.6-.2 1-.2c.3 0 .6.1.9.2.3.1.5.3.7.5.2.2.4.5.5.8.1.3.2.7.2 1.2v.5h-3.8c0 .3 0 .6.1.9s.2.5.4.7.3.3.5.4c.2.1.4.2.7.2.4 0 .7-.1.9-.3s.5-.4.7-.7l.4.4zm-1-2.2c0-.5-.1-1-.4-1.3-.2-.3-.6-.5-1-.5-.5 0-.9.2-1.1.5-.3.3-.4.8-.4 1.3h2.9zM215 2.4h.8v1.2c.1-.2.2-.4.3-.5l.4-.4c.1-.1.3-.2.5-.2.2-.1.4-.1.6-.1v.8c-.5 0-.9.2-1.2.5s-.4.7-.6 1.3v3.2h-.8V2.4zM223 5.3c0 .4-.1.8-.2 1.2-.1.4-.3.7-.4 1s-.4.5-.7.6c-.3.2-.6.2-1 .2s-.7-.1-1-.2c-.3-.2-.5-.4-.7-.6s-.3-.6-.4-1c-.1-.4-.2-.8-.2-1.2s.1-.8.2-1.2c.1-.4.3-.7.4-1 .2-.3.4-.5.7-.6.3-.2.6-.2 1-.2s.7.1 1 .2c.3.2.5.4.7.6.2.3.3.6.4 1 .2.4.2.8.2 1.2zm-.8 0c0-.8-.1-1.3-.4-1.7-.3-.4-.7-.6-1.2-.6s-.9.2-1.2.6c-.3.4-.4 1-.4 1.7s.1 1.3.4 1.7.7.6 1.2.6.9-.2 1.2-.6c.3-.4.4-.9.4-1.7zM227.7 8.2v-.8c-.2.3-.5.5-.8.6-.3.2-.6.3-.9.3-.2 0-.4 0-.6-.1s-.4-.2-.5-.3c-.2-.1-.3-.3-.4-.5-.1-.2-.1-.5-.1-.8V2.4h.8v4.2c0 .4.1.7.3.8.2.1.4.2.7.2.1 0 .3 0 .5-.1s.3-.1.5-.2c.1-.1.3-.2.4-.3l.3-.3V2.4h.8v5.8h-1zM230.3 6.7c.2.3.4.5.7.7.3.2.6.2 1 .2s.8-.1 1-.3.3-.4.3-.7-.1-.4-.3-.6c-.2-.1-.4-.3-.6-.3-.3-.1-.5-.2-.8-.3-.3-.1-.6-.2-.8-.3-.2-.1-.5-.3-.6-.5-.2-.2-.2-.5-.2-.8 0-.5.2-.9.6-1.2.4-.3.8-.4 1.4-.4.2 0 .4 0 .6.1.2.1.4.1.6.2s.3.2.5.3l.4.4-.6.5c-.2-.3-.5-.5-.7-.6-.5-.1-.8-.1-1.1-.1-.3 0-.6.1-.8.2s-.3.4-.3.6c0 .2.1.4.3.5l.6.3c.2.1.5.2.8.3.3.1.6.2.8.3.2.1.5.3.6.5.3.3.3.6.3.9 0 .3-.1.5-.2.7-.1.2-.3.4-.5.5-.2.1-.4.2-.7.3-.2.1-.5.1-.8.1-.5 0-.9-.1-1.3-.3-.4-.2-.8-.5-1-.8l.8-.4zM243.6 8.2V3.1h-1v-.7h1v-.7c0-.3 0-.6.1-.8.1-.2.1-.4.3-.5.1-.1.3-.2.4-.3.2 0 .4-.1.6-.1h.8v.7c-.1 0-.2 0-.3-.1s-.2 0-.3 0c-.3 0-.5.1-.6.2s-.2.3-.2.7v.9h1.3v.7h-1.3v5.1h-.8zM246.6 3.5c.2-.3.5-.6.8-.9s.8-.4 1.4-.4c.2 0 .5 0 .7.1s.5.2.6.3c.2.1.3.3.5.5.1.2.2.5.2.8V7.8c0 .2.1.3.1.5h-.8l-.1-.9c-.2.2-.5.4-.8.6-.3.2-.7.3-1.1.3-.2 0-.4 0-.6-.1-.2-.1-.4-.2-.5-.3s-.3-.3-.4-.5-.1-.4-.1-.7c0-.3.1-.6.2-.8s.3-.5.6-.7c.3-.2.7-.4 1.1-.5s1-.3 1.7-.4V4c0-.4-.1-.7-.3-.8-.4-.2-.7-.2-1-.2-.2 0-.4 0-.6.1-.2.1-.3.1-.4.2l-.3.3c-.1.1-.1.2-.2.3l-.7-.4zm3.4 1.6c-1.8.3-2.8.9-2.8 1.7 0 .1 0 .3.1.4s.1.2.2.3c.1.1.2.1.3.2s.2.1.3.1c.1 0 .3 0 .5-.1.2 0 .3-.1.5-.2s.3-.2.5-.3c.1-.1.3-.2.4-.4V5.1zM255.7 4.1c-.1-.4-.3-.6-.5-.8s-.5-.3-.9-.3c-.5 0-.9.2-1.2.6-.3.4-.4 1-.4 1.7s.1 1.3.4 1.7c.3.4.7.6 1.2.6h.5c.1 0 .3-.1.4-.2.1-.1.2-.2.4-.3.1-.1.2-.3.3-.5l.7.3c-.1.2-.3.5-.4.7-.1.2-.3.3-.5.5l-.6.3c-.2.1-.5.1-.8.1-.4 0-.7-.1-1-.2-.3-.1-.5-.3-.8-.6-.2-.3-.4-.6-.5-1s-.2-.8-.2-1.3.1-.9.2-1.3.3-.7.5-1c.2-.3.5-.5.8-.6.3-.1.6-.2 1-.2.3 0 .6 0 .8.1l.6.3c.2.1.3.3.4.5l.3.6-.7.3zM258.1 2.4V.5h.8v1.9h1.3v.7H259v4.2c0 .1.1.2.2.3.1.1.3.1.5.1h.7v.7c-.1 0-.2 0-.3.1h-.6c-.4 0-.8-.1-1-.2-.2-.1-.3-.4-.3-.8V3.1h-1v-.7h.9zM265.7 5.3c0 .4-.1.8-.2 1.2-.1.4-.3.7-.4 1s-.4.5-.7.6c-.3.2-.6.2-1 .2s-.7-.1-1-.2c-.3-.2-.5-.4-.7-.6s-.3-.6-.4-1c-.1-.4-.2-.8-.2-1.2s.1-.8.2-1.2c.1-.4.3-.7.4-1 .2-.3.4-.5.7-.6.3-.2.6-.2 1-.2s.7.1 1 .2c.3.2.5.4.7.6.2.3.3.6.4 1 .2.4.2.8.2 1.2zm-.8 0c0-.8-.1-1.3-.4-1.7-.3-.4-.7-.6-1.2-.6s-.9.2-1.2.6c-.3.4-.4 1-.4 1.7s.1 1.3.4 1.7.7.6 1.2.6.9-.2 1.2-.6c.3-.4.4-.9.4-1.7zM266.9 2.4h.8v1.2c.1-.2.2-.4.3-.5l.4-.4c.1-.1.3-.2.5-.2.2-.1.4-.1.6-.1v.8c-.5 0-.9.2-1.2.5s-.5.8-.7 1.4v3.2h-.8V2.4zM270.8 6.7c.2.3.4.5.7.7.3.2.6.2 1 .2s.8-.1 1-.3.3-.4.3-.7-.1-.4-.3-.6c-.2-.1-.4-.3-.6-.3-.3-.1-.5-.2-.8-.3-.3-.1-.6-.2-.8-.3-.2-.1-.5-.3-.6-.5-.2-.2-.2-.5-.2-.8 0-.5.2-.9.6-1.2.4-.3.8-.4 1.4-.4.2 0 .4 0 .6.1.2.1.4.1.6.2s.3.2.5.3l.4.4-.6.5c-.2-.3-.5-.5-.7-.6-.5-.1-.8-.1-1.1-.1-.3 0-.6.1-.8.2s-.3.4-.3.6c0 .2.1.4.3.5l.6.3c.2.1.5.2.8.3.3.1.6.2.8.3.2.1.5.3.6.5.2.2.3.5.3.9 0 .3-.1.5-.2.7-.1.2-.3.4-.5.5-.2.1-.4.2-.7.3-.2.1-.5.1-.8.1-.5 0-.9-.1-1.3-.3-.4-.2-.8-.5-1-.8l.8-.4z"/><g><path class="st0" d="M7.9 12.2v1h-.8v-1h.8zm-.8 2.3h.8v5.8h-.8v-5.8zM10.5 14.5v.8c.2-.3.5-.5.8-.6.3-.2.6-.3.9-.3.2 0 .4 0 .6.1.2.1.4.2.5.3s.3.3.4.5.1.5.1.8v4.2H13v-4.2c0-.4-.1-.7-.3-.8-.2-.2-.4-.2-.7-.2-.2 0-.3 0-.5.1s-.3.1-.5.2c-.1.1-.3.2-.4.3l-.3.3v4.4h-.6v-5.8h.8zM19 16.3c-.1-.4-.3-.6-.5-.8s-.5-.3-.9-.3c-.5 0-.9.2-1.2.6-.3.4-.4 1-.4 1.7s.1 1.3.4 1.7c.3.4.7.6 1.2.6h.5c.1 0 .3-.1.4-.2.1-.1.2-.2.4-.3.1-.1.2-.3.3-.5l.7.3c-.1.2-.3.5-.4.7-.1.2-.3.3-.5.5l-.6.3c-.2.1-.5.1-.8.1-.4 0-.7-.1-1-.2-.3-.1-.5-.3-.8-.6-.2-.3-.4-.6-.5-1s-.2-.8-.2-1.3.1-.9.2-1.3.3-.7.5-1c.2-.3.5-.5.8-.6.3-.1.6-.2 1-.2.3 0 .6 0 .8.1l.6.3c.2.1.3.3.4.5l.3.6-.7.3zM22 12.3v8.1h-.8v-8.1h.8zM27.2 20.4v-.8c-.2.3-.5.5-.8.6-.3.2-.6.3-.9.3-.2 0-.4 0-.6-.1s-.4-.2-.5-.3c-.2-.1-.3-.3-.4-.5-.1-.2-.1-.5-.1-.8v-4.2h.8v4.2c0 .4.1.7.3.8.2.1.4.2.7.2.1 0 .3 0 .5-.1s.3-.1.5-.2c.1-.1.3-.2.4-.3l.3-.3v-4.4h.6v5.8h-.8zM34.1 12.3V20.3h-.7l-.1-.6c-.1.2-.3.3-.6.5-.3.1-.6.2-.9.2-.3 0-.5 0-.8-.1-.3-.1-.5-.3-.8-.5-.2-.2-.4-.5-.6-.9s-.2-.9-.2-1.5.1-1 .2-1.4c.2-.4.3-.7.6-.9.2-.2.5-.4.8-.5s.5-.2.8-.2c.3 0 .5.1.8.2.3.1.5.3.7.5v-2.8h.8zm-.8 3.6c-.2-.2-.5-.4-.7-.6-.3-.2-.5-.2-.8-.2-.2 0-.5 0-.7.1s-.4.2-.5.4c-.2.2-.3.4-.3.7-.1.3-.1.7-.1 1.1 0 .7.1 1.3.4 1.7s.7.6 1.2.6c.3 0 .5-.1.7-.2.2-.1.5-.3.8-.6v-3zM36.7 12.2v1h-.8v-1h.8zm-.8 2.3h.8v5.8h-.8v-5.8zM39.3 14.5v.8c.2-.3.5-.5.8-.6.3-.2.6-.3.9-.3.2 0 .4 0 .6.1.2.1.4.2.5.3s.3.3.4.5.1.5.1.8v4.2h-.8v-4.2c0-.4-.1-.7-.3-.8-.2-.2-.4-.2-.7-.2-.2 0-.3 0-.5.1s-.3.1-.5.2c-.1.1-.3.2-.4.3l-.3.3v4.4h-.8v-5.8h1zM49 15.1h-.5c-.2 0-.3.1-.4.1.1.1.2.3.3.5.1.2.1.4.1.7 0 .3-.1.6-.2.8s-.3.5-.5.6c-.2.2-.4.3-.7.4-.3.1-.5.2-.8.2h-.6c-.1 0-.3-.1-.5-.1-.3.1-.5.3-.5.5 0 .1 0 .2.1.3.1.1.2.1.4.1.7 0 1.3 0 1.7.1.5.1.8.2 1.1.3s.5.3.6.5c.1.2.2.5.2.7 0 .2-.1.4-.2.6-.1.2-.3.4-.5.5-.2.1-.5.3-.8.3-.3.1-.7.1-1.2.1-.8 0-1.4-.1-1.9-.3s-.6-.6-.6-1.1c0-.3.1-.5.3-.7.2-.2.4-.3.7-.5-.2-.1-.4-.2-.5-.3-.1-.2-.2-.3-.2-.5 0-.3.1-.4.2-.6s.3-.3.6-.4c-.3-.2-.5-.5-.6-.7-.1-.3-.2-.6-.2-.9 0-.3.1-.6.2-.8.1-.3.3-.5.5-.6s.4-.3.7-.4c.3-.1.6-.1.9-.1.3 0 .6 0 .8.1l.6.3.6-.3c.2-.1.4-.2.7-.2v.8zm-.8 5.9c0-.3-.2-.5-.5-.6-.3-.1-.8-.2-1.5-.2-.3 0-.6 0-.8.1-.2.1-.4.1-.5.2l-.3.3c-.1.1-.1.2-.1.3 0 .1 0 .2.1.3s.1.2.3.2.3.1.6.1c.2 0 .6.1 1 .1.2 0 .5 0 .7-.1.2 0 .4-.1.6-.2s.3-.2.4-.3V21zm-.5-4.5c0-.4-.1-.8-.4-1-.2-.3-.6-.4-1.1-.4-.5 0-.8.1-1.1.4s-.4.6-.4 1 .1.7.4 1c.3.3.6.4 1.1.4.2 0 .4 0 .6-.1.2-.1.3-.2.4-.3.1-.1.2-.3.3-.4s.2-.4.2-.6zM54.7 12.3v2.8c.2-.2.5-.3.7-.5.3-.1.5-.2.8-.2.2 0 .5.1.8.2.3.1.5.3.8.5.2.2.4.5.6.9.2.4.2.9.2 1.4 0 .6-.1 1.1-.2 1.5s-.3.7-.6.9c-.2.2-.5.4-.8.5-.3.1-.6.1-.8.1-.4 0-.7-.1-.9-.2s-.5-.3-.8-.5l-.1.6h-.6c0-.2.1-.4.1-.6V12.3h.8zm0 6.7c.3.3.5.5.8.6.2.1.5.2.7.2.5 0 .9-.2 1.2-.6.3-.4.4-1 .4-1.7 0-.4 0-.8-.1-1.1-.1-.3-.2-.5-.3-.7-.1-.2-.3-.3-.5-.4s-.4-.1-.7-.1c-.2 0-.5.1-.8.2-.3.1-.5.3-.7.6v3zM63.4 20.4v-.8c-.2.3-.5.5-.8.6-.3.2-.6.3-.9.3-.2 0-.4 0-.6-.1s-.4-.2-.5-.3c-.2-.1-.3-.3-.4-.5-.2-.2-.2-.5-.2-.8v-4.2h.8v4.2c0 .4.1.7.3.8.2.1.4.2.7.2.1 0 .3 0 .5-.1s.3-.1.5-.2c.1-.1.3-.2.4-.3l.3-.3v-4.4h.8v5.8h-.9zM66.2 14.5v-1.9h.8v1.9h1.3v.7H67v4.2c0 .1.1.2.2.3.1.1.3.1.5.1h.7v.7c-.1 0-.2 0-.3.1h-.6c-.4 0-.8-.1-1-.2-.2-.1-.3-.4-.3-.8v-4.3h-1v-.7h1zM74.3 14.5v.8c.2-.3.5-.5.8-.6.3-.2.6-.3.9-.3.2 0 .4 0 .6.1.2.1.4.2.5.3s.3.3.4.5.1.5.1.8v4.2H77v-4.2c0-.4-.1-.7-.3-.8-.2-.2-.4-.2-.7-.2-.2 0-.3 0-.5.1s-.3.1-.5.2c-.1.1-.3.2-.4.3l-.3.3v4.4h-.8v-5.8h.8zM83.8 17.5c0 .4-.1.8-.2 1.2-.1.4-.3.7-.4 1s-.4.5-.7.6c-.3.2-.6.2-1 .2s-.7-.1-1-.2c-.3-.2-.5-.4-.7-.6s-.3-.6-.4-1c-.1-.4-.2-.8-.2-1.2s.1-.8.2-1.2c.1-.4.3-.7.4-1 .2-.3.4-.5.7-.6.3-.2.6-.2 1-.2s.7.1 1 .2c.3.2.5.4.7.6.2.3.3.6.4 1 .2.3.2.7.2 1.2zm-.8 0c0-.8-.1-1.3-.4-1.7-.3-.4-.7-.6-1.2-.6s-.9.2-1.2.6c-.3.4-.4 1-.4 1.7s.1 1.3.4 1.7.7.6 1.2.6.9-.2 1.2-.6c.3-.4.4-1 .4-1.7zM85.3 14.5v-1.9h.8v1.9h1.3v.7h-1.3v4.2c0 .1.1.2.2.3.1.1.3.1.5.1h.7v.7c-.1 0-.2 0-.3.1h-.6c-.4 0-.8-.1-1-.2-.2-.1-.3-.4-.3-.8v-4.3h-1v-.7h1zM93.6 12.3v8.1h-.8v-8.1h.8zM96.2 12.2v1h-.8v-1h.8zm-.8 2.3h.8v5.8h-.8v-5.8zM98 20.4v-5.8h.8v.8c.2-.3.5-.5.8-.6.3-.1.6-.2.9-.2.4 0 .7.1 1 .3.3.2.4.4.5.7.3-.3.5-.5.9-.7.3-.2.6-.3 1-.3.2 0 .4 0 .6.1.2 0 .4.1.5.3s.3.3.4.5c.1.2.1.5.1.9v4.2h-.8v-4.2c0-.4-.1-.7-.3-.8-.2-.2-.4-.2-.7-.2-.2 0-.3 0-.5.1-.1.1-.3.1-.4.2s-.3.2-.4.3l-.3.3v4.4h-.8v-4.2c0-.4-.1-.7-.3-.8-.2-.2-.4-.2-.7-.2-.2 0-.3 0-.5.1-.1.1-.3.1-.4.2-.1.1-.3.2-.4.3l-.3.3v4.4H98zM108 12.2v1h-.8v-1h.8zm-.8 2.3h.8v5.8h-.8v-5.8zM110.1 14.5v-1.9h.8v1.9h1.3v.7h-1.3v4.2c0 .1.1.2.2.3.1.1.3.1.5.1h.7v.7c-.1 0-.2 0-.3.1h-.6c-.4 0-.8-.1-1-.2-.2-.1-.3-.4-.3-.8v-4.3h-1v-.7h1zM117.7 19.1c-.1.2-.2.3-.3.5-.1.2-.3.3-.4.4l-.6.3c-.2.1-.5.1-.9.1s-.6-.1-.9-.2c-.3-.1-.6-.3-.8-.5-.2-.2-.4-.6-.6-.9-.1-.4-.2-.8-.2-1.4 0-.5.1-.9.2-1.3s.3-.7.5-1c.2-.3.5-.5.8-.6s.6-.2 1-.2c.3 0 .6.1.9.2.3.1.5.3.7.5.2.2.4.5.5.8.1.3.2.7.2 1.2v.5H114c0 .3 0 .6.1.9s.2.5.4.7.3.3.5.4c.2.1.4.2.7.2.4 0 .7-.1.9-.3s.5-.4.7-.7l.4.4zm-1-2.2c0-.5-.1-1-.4-1.3-.2-.3-.6-.5-1-.5-.5 0-.9.2-1.1.5-.3.3-.4.8-.4 1.3h2.9zM123.3 12.3V20.3h-.7l-.1-.6c-.1.2-.3.3-.6.5-.3.1-.6.2-.9.2-.3 0-.5 0-.8-.1-.3-.1-.5-.3-.8-.5-.2-.2-.4-.5-.6-.9s-.2-.9-.2-1.5.1-1 .2-1.4c.2-.4.3-.7.6-.9.2-.2.5-.4.8-.5s.5-.2.8-.2c.3 0 .5.1.8.2.3.1.5.3.7.5v-2.8h.8zm-.9 3.6c-.2-.2-.5-.4-.7-.6-.3-.2-.5-.2-.8-.2-.2 0-.5 0-.7.1s-.4.2-.5.4c-.2.2-.3.4-.3.7-.1.3-.1.7-.1 1.1 0 .7.1 1.3.4 1.7s.7.6 1.2.6c.3 0 .5-.1.7-.2.2-.1.5-.3.8-.6v-3zM129.1 14.5v-1.9h.8v1.9h1.3v.7h-1.3v4.2c0 .1.1.2.2.3.1.1.3.1.5.1h.7v.7c-.1 0-.2 0-.3.1h-.6c-.4 0-.8-.1-1-.2-.2-.1-.3-.4-.3-.8v-4.3h-1v-.7h1zM136.7 17.5c0 .4-.1.8-.2 1.2-.1.4-.3.7-.4 1s-.4.5-.7.6c-.3.2-.6.2-1 .2s-.7-.1-1-.2c-.3-.2-.5-.4-.7-.6s-.3-.6-.4-1c-.1-.4-.2-.8-.2-1.2s.1-.8.2-1.2c.1-.4.3-.7.4-1 .2-.3.4-.5.7-.6.3-.2.6-.2 1-.2s.7.1 1 .2c.3.2.5.4.7.6.2.3.3.6.4 1 .1.3.2.7.2 1.2zm-.8 0c0-.8-.1-1.3-.4-1.7-.3-.4-.7-.6-1.2-.6s-.9.2-1.2.6c-.3.4-.4 1-.4 1.7s.1 1.3.4 1.7.7.6 1.2.6.9-.2 1.2-.6c.2-.4.4-1 .4-1.7zM142.6 12.3v2.8c.2-.2.5-.3.7-.5.3-.1.5-.2.8-.2.2 0 .5.1.8.2.3.1.5.3.8.5.2.2.4.5.6.9.2.4.2.9.2 1.4 0 .6-.1 1.1-.2 1.5s-.3.7-.6.9c-.2.2-.5.4-.8.5-.3.1-.6.1-.8.1-.4 0-.7-.1-.9-.2s-.5-.3-.8-.5l-.1.6h-.6c0-.2.1-.4.1-.6V12.3h.8zm0 6.7c.3.3.5.5.8.6.2.1.5.2.7.2.5 0 .9-.2 1.2-.6.3-.4.4-1 .4-1.7 0-.4 0-.8-.1-1.1-.1-.3-.2-.5-.3-.7-.1-.2-.3-.3-.5-.4s-.4-.1-.7-.1c-.2 0-.5.1-.8.2-.3.1-.5.3-.7.6v3zM151.3 20.4v-.8c-.2.3-.5.5-.8.6-.3.2-.6.3-.9.3-.2 0-.4 0-.6-.1s-.4-.2-.5-.3c-.2-.1-.3-.3-.4-.5-.1-.2-.1-.5-.1-.8v-4.2h.8v4.2c0 .4.1.7.3.8.2.1.4.2.7.2.1 0 .3 0 .5-.1s.3-.1.5-.2c.1-.1.3-.2.4-.3l.3-.3v-4.4h.8v5.8h-1zM153.9 18.9c.2.3.4.5.7.7.3.2.6.2 1 .2s.8-.1 1-.3.3-.4.3-.7-.1-.4-.3-.6c-.2-.1-.4-.3-.6-.3-.3-.1-.5-.2-.8-.3-.3-.1-.6-.2-.8-.3-.2-.1-.5-.3-.6-.5-.2-.2-.2-.5-.2-.8 0-.5.2-.9.6-1.2.4-.3.8-.4 1.4-.4.2 0 .4 0 .6.1.2.1.4.1.6.2s.3.2.5.3l.4.4-.6.5c-.2-.3-.5-.5-.7-.6-.2-.1-.5-.2-.8-.2-.3 0-.6.1-.8.2s-.3.4-.3.6c0 .2.1.4.3.5l.6.3c.2.1.5.2.8.3.3.1.6.2.8.3.2.1.5.3.6.5.2.2.3.5.3.9 0 .3-.1.5-.2.7-.1.2-.3.4-.5.5-.2.1-.4.2-.7.3-.2.1-.5.1-.8.1-.5 0-.9-.1-1.3-.3-.4-.2-.8-.5-1-.8l.5-.3zM159.7 12.2v1h-.8v-1h.8zm-.8 2.3h.8v5.8h-.8v-5.8zM162.3 14.5v.8c.2-.3.5-.5.8-.6.3-.2.6-.3.9-.3.2 0 .4 0 .6.1.2.1.4.2.5.3s.3.3.4.5.1.5.1.8v4.2h-.8v-4.2c0-.4-.1-.7-.3-.8-.2-.2-.4-.2-.7-.2-.2 0-.3 0-.5.1s-.3.1-.5.2c-.1.1-.3.2-.4.3l-.3.3v4.4h-.8v-5.8h1zM171.8 19.1c-.1.2-.2.3-.3.5-.1.2-.3.3-.4.4l-.6.3c-.2.1-.5.1-.9.1s-.6-.1-.9-.2c-.3-.1-.6-.3-.8-.5-.2-.2-.4-.6-.6-.9-.1-.4-.2-.8-.2-1.4 0-.5.1-.9.2-1.3s.3-.7.5-1c.2-.3.5-.5.8-.6s.6-.2 1-.2c.3 0 .6.1.9.2.3.1.5.3.7.5.2.2.4.5.5.8.1.3.2.7.2 1.2v.5h-3.8c0 .3 0 .6.1.9s.2.5.4.7.3.3.5.4c.2.1.4.2.7.2.4 0 .7-.1.9-.3s.5-.4.7-.7l.4.4zm-1-2.2c0-.5-.1-1-.4-1.3-.2-.3-.6-.5-1-.5-.5 0-.9.2-1.1.5-.3.3-.4.8-.4 1.3h2.9zM173.2 18.9c.2.3.4.5.7.7.3.2.6.2 1 .2s.8-.1 1-.3.3-.4.3-.7-.1-.4-.3-.6c-.2-.1-.4-.3-.6-.3-.3-.1-.5-.2-.8-.3-.3-.1-.6-.2-.8-.3-.2-.1-.5-.3-.6-.5-.2-.2-.2-.5-.2-.8 0-.5.2-.9.6-1.2.4-.3.8-.4 1.4-.4.2 0 .4 0 .6.1.2.1.4.1.6.2s.3.2.5.3l.4.4-.6.5c-.2-.3-.5-.5-.7-.6-.2-.1-.5-.2-.8-.2-.3 0-.6.1-.8.2s-.3.4-.3.6c0 .2.1.4.3.5l.6.3c.2.1.5.2.8.3.3.1.6.2.8.3.2.1.5.3.6.5.2.2.3.5.3.9 0 .3-.1.5-.2.7-.1.2-.3.4-.5.5-.2.1-.4.2-.7.3-.2.1-.5.1-.8.1-.5 0-.9-.1-1.3-.3-.4-.2-.8-.5-1-.8l.5-.3zM178.3 18.9c.2.3.4.5.7.7.3.2.6.2 1 .2s.8-.1 1-.3.3-.4.3-.7-.1-.4-.3-.6c-.2-.1-.4-.3-.6-.3-.3-.1-.5-.2-.8-.3-.3-.1-.6-.2-.8-.3-.2-.1-.5-.3-.6-.5-.2-.2-.2-.5-.2-.8 0-.5.2-.9.6-1.2.4-.3.8-.4 1.4-.4.2 0 .4 0 .6.1.2.1.4.1.6.2s.3.2.5.3l.4.4-.6.5c-.2-.3-.5-.5-.7-.6-.2-.1-.5-.2-.8-.2-.3 0-.6.1-.8.2s-.3.4-.3.6c0 .2.1.4.3.5l.6.3c.2.1.5.2.8.3.3.1.6.2.8.3.2.1.5.3.6.5.2.2.3.5.3.9 0 .3-.1.5-.2.7-.1.2-.3.4-.5.5-.2.1-.4.2-.7.3-.2.1-.5.1-.8.1-.5 0-.9-.1-1.3-.3-.4-.2-.8-.5-1-.8l.5-.3zM187.2 14.5v-1.9h.8v1.9h1.3v.7H188v4.2c0 .1.1.2.2.3.1.1.3.1.5.1h.7v.7c-.1 0-.2 0-.3.1h-.6c-.4 0-.8-.1-1-.2-.2-.1-.3-.4-.3-.8v-4.3h-1v-.7h1zM194 20.4v-.8c-.2.3-.5.5-.8.6-.3.2-.6.3-.9.3-.2 0-.4 0-.6-.1s-.4-.2-.5-.3c-.2-.1-.3-.3-.4-.5-.1-.2-.1-.5-.1-.8v-4.2h.8v4.2c0 .4.1.7.3.8.2.1.4.2.7.2.1 0 .3 0 .5-.1s.3-.1.5-.2c.1-.1.3-.2.4-.3l.3-.3v-4.4h.8v5.8h-1zM196.4 14.5h.8v1.2c.1-.2.2-.4.3-.5l.4-.4c.1-.1.3-.2.5-.2.2-.1.4-.1.6-.1v.8c-.5 0-.9.2-1.2.5s-.5.8-.7 1.4v3.2h-.8v-5.9zM201 14.5v.8c.2-.3.5-.5.8-.6.3-.2.6-.3.9-.3.2 0 .4 0 .6.1.2.1.4.2.5.3s.3.3.4.5.1.5.1.8v4.2h-.8v-4.2c0-.4-.1-.7-.3-.8-.2-.2-.4-.2-.7-.2-.2 0-.3 0-.5.1s-.3.1-.5.2c-.1.1-.3.2-.4.3l-.3.3v4.4h-.8v-5.8h1zM210.5 17.5c0 .4-.1.8-.2 1.2-.1.4-.3.7-.4 1s-.4.5-.7.6c-.3.2-.6.2-1 .2s-.7-.1-1-.2c-.3-.2-.5-.4-.7-.6s-.3-.6-.4-1c-.1-.4-.2-.8-.2-1.2s.1-.8.2-1.2c.1-.4.3-.7.4-1 .2-.3.4-.5.7-.6.3-.2.6-.2 1-.2s.7.1 1 .2c.3.2.5.4.7.6.2.3.3.6.4 1 .1.3.2.7.2 1.2zm-.8 0c0-.8-.1-1.3-.4-1.7-.3-.4-.7-.6-1.2-.6s-.9.2-1.2.6c-.3.4-.4 1-.4 1.7s.1 1.3.4 1.7.7.6 1.2.6.9-.2 1.2-.6c.2-.4.4-1 .4-1.7zM213.8 20.4h-1.1l-1.8-5.8h.8l1.5 4.8 1.5-4.8h.8l-1.7 5.8zM220.8 19.1c-.1.2-.2.3-.3.5-.1.2-.3.3-.4.4l-.6.3c-.2.1-.5.1-.9.1s-.6-.1-.9-.2c-.3-.1-.6-.3-.8-.5-.2-.2-.4-.6-.6-.9-.1-.4-.2-.8-.2-1.4 0-.5.1-.9.2-1.3s.3-.7.5-1c.2-.3.5-.5.8-.6s.6-.2 1-.2c.3 0 .6.1.9.2.3.1.5.3.7.5.2.2.4.5.5.8.1.3.2.7.2 1.2v.5h-3.8c0 .3 0 .6.1.9s.2.5.4.7.3.3.5.4c.2.1.4.2.7.2.4 0 .7-.1.9-.3s.5-.4.7-.7l.4.4zm-1-2.2c0-.5-.1-1-.4-1.3-.2-.3-.6-.5-1-.5-.5 0-.9.2-1.1.5-.3.3-.4.8-.4 1.3h2.9zM221.9 14.5h.8v1.2c.1-.2.2-.4.3-.5l.4-.4c.1-.1.3-.2.5-.2.2-.1.4-.1.6-.1v.8c-.5 0-.9.2-1.2.5s-.5.8-.7 1.4v3.2h-.8v-5.9zM229.2 15.7c.2-.3.5-.6.8-.9s.8-.4 1.4-.4c.2 0 .5 0 .7.1s.5.2.6.3c.2.1.3.3.5.5.1.2.2.5.2.8v3.7c0 .2.1.3.1.5h-.8l-.1-.8c-.2.2-.5.4-.8.6-.3.2-.7.3-1.1.3-.2 0-.4 0-.6-.1-.2-.1-.4-.2-.5-.3s-.3-.3-.4-.5-.1-.4-.1-.7c0-.3.1-.6.2-.8s.3-.5.6-.7c.3-.2.7-.4 1.1-.5s1-.3 1.7-.4v-.3c0-.4-.1-.7-.3-.8-.2-.2-.5-.2-.9-.2-.2 0-.4 0-.6.1-.2.1-.3.1-.4.2l-.3.3c-.1.1-.1.2-.2.3l-.8-.3zm3.4 1.5c-1.8.3-2.8.9-2.8 1.7 0 .1 0 .3.1.4s.1.2.2.3c.1.1.2.1.3.2s.2.1.3.1c.1 0 .3 0 .5-.1.2 0 .3-.1.5-.2s.3-.2.5-.3c.1-.1.3-.2.4-.4v-1.7zM235.8 14.5v.8c.2-.3.5-.5.8-.6.3-.2.6-.3.9-.3.2 0 .4 0 .6.1.2.1.4.2.5.3s.3.3.4.5.1.5.1.8v4.2h-.8v-4.2c0-.4-.1-.7-.3-.8-.2-.2-.4-.2-.7-.2-.2 0-.3 0-.5.1s-.3.1-.5.2c-.1.1-.3.2-.4.3l-.3.3v4.4h-.6v-5.8h.8zM245.3 12.3V20.3h-.7l-.1-.6c-.1.2-.3.3-.6.5-.3.1-.6.2-.9.2-.3 0-.5 0-.8-.1-.3-.1-.5-.3-.8-.5-.2-.2-.4-.5-.6-.9s-.2-.9-.2-1.5.1-1 .2-1.4c.2-.4.3-.7.6-.9.2-.2.5-.4.8-.5s.5-.2.8-.2c.3 0 .5.1.8.2.3.1.5.3.7.5v-2.8h.8zm-.8 3.6c-.2-.2-.5-.4-.7-.6-.3-.2-.5-.2-.8-.2-.2 0-.5 0-.7.1s-.4.2-.5.4c-.2.2-.3.4-.3.7-.1.3-.1.7-.1 1.1 0 .7.1 1.3.4 1.7s.7.6 1.2.6c.3 0 .5-.1.7-.2.2-.1.5-.3.8-.6v-3zM250.7 15.7c.2-.3.5-.6.8-.9s.8-.4 1.4-.4c.2 0 .5 0 .7.1s.5.2.6.3c.2.1.3.3.5.5.1.2.2.5.2.8v3.7c0 .2.1.3.1.5h-.8l-.1-.8c-.2.2-.5.4-.8.6-.3.2-.7.3-1.1.3-.2 0-.4 0-.6-.1-.2-.1-.4-.2-.5-.3s-.3-.3-.4-.5-.1-.4-.1-.7c0-.3.1-.6.2-.8s.3-.5.6-.7c.3-.2.7-.4 1.1-.5s1-.3 1.7-.4v-.3c0-.4-.1-.7-.3-.8-.2-.2-.5-.2-.9-.2-.2 0-.4 0-.6.1-.2.1-.3.1-.4.2l-.3.3c-.1.1-.1.2-.2.3l-.8-.3zm3.4 1.5c-1.8.3-2.8.9-2.8 1.7 0 .1 0 .3.1.4s.1.2.2.3c.1.1.2.1.3.2s.2.1.3.1c.1 0 .3 0 .5-.1.2 0 .3-.1.5-.2s.3-.2.5-.3c.1-.1.3-.2.4-.4v-1.7zM256.5 18.9c.2.3.4.5.7.7.3.2.6.2 1 .2s.8-.1 1-.3.3-.4.3-.7-.1-.4-.3-.6c-.2-.1-.4-.3-.6-.3-.3-.1-.5-.2-.8-.3-.3-.1-.6-.2-.8-.3-.2-.1-.5-.3-.6-.5-.2-.2-.2-.5-.2-.8 0-.5.2-.9.6-1.2.4-.3.8-.4 1.4-.4.2 0 .4 0 .6.1.2.1.4.1.6.2s.3.2.5.3l.4.4-.6.5c-.2-.3-.5-.5-.7-.6-.2-.1-.5-.2-.8-.2-.3 0-.6.1-.8.2s-.3.4-.3.6c0 .2.1.4.3.5l.6.3c.2.1.5.2.8.3.3.1.6.2.8.3.2.1.5.3.6.5.2.2.3.5.3.9 0 .3-.1.5-.2.7-.1.2-.3.4-.5.5-.2.1-.4.2-.7.3-.2.1-.5.1-.8.1-.5 0-.9-.1-1.3-.3-.4-.2-.8-.5-1-.8l.5-.3zM261.6 18.9c.2.3.4.5.7.7.3.2.6.2 1 .2s.8-.1 1-.3.3-.4.3-.7-.1-.4-.3-.6c-.2-.1-.4-.3-.6-.3-.3-.1-.5-.2-.8-.3-.3-.1-.6-.2-.8-.3-.2-.1-.5-.3-.6-.5-.2-.2-.2-.5-.2-.8 0-.5.2-.9.6-1.2.4-.3.8-.4 1.4-.4.2 0 .4 0 .6.1.2.1.4.1.6.2s.3.2.5.3l.4.4-.6.5c-.2-.3-.5-.5-.7-.6-.2-.1-.5-.2-.8-.2-.3 0-.6.1-.8.2s-.5.4-.5.7c0 .2.1.4.3.5l.6.3c.2.1.5.2.8.3.3.1.6.2.8.3.2.1.5.3.6.5.2.2.3.5.3.9 0 .3-.1.5-.2.7-.1.2-.3.4-.5.5-.2.1-.4.2-.7.3-.2.1-.5.1-.8.1-.5 0-.9-.1-1.3-.3-.4-.2-.8-.5-1-.8l.7-.4zM270.9 19.1c-.1.2-.2.3-.3.5-.1.2-.3.3-.4.4l-.6.3c-.2.1-.5.1-.9.1s-.6-.1-.9-.2c-.3-.1-.6-.3-.8-.5-.2-.2-.4-.6-.6-.9-.1-.4-.2-.8-.2-1.4 0-.5.1-.9.2-1.3s.3-.7.5-1c.2-.3.5-.5.8-.6s.6-.2 1-.2c.3 0 .6.1.9.2.3.1.5.3.7.5.2.2.4.5.5.8.1.3.2.7.2 1.2v.5h-4c0 .3 0 .6.1.9s.2.5.4.7.3.3.5.4c.2.1.4.2.7.2.4 0 .7-.1.9-.3s.5-.4.7-.7l.6.4zm-1-2.2c0-.5-.1-1-.4-1.3-.2-.3-.6-.5-1-.5-.5 0-.9.2-1.1.5-.3.3-.4.8-.4 1.3h2.9zM272.4 14.5v-1.9h.8v1.9h1.3v.7h-1.3v4.2c0 .1.1.2.2.3.1.1.3.1.5.1h.7v.7c-.1 0-.2 0-.3.1h-.6c-.4 0-.8-.1-1-.2-.2-.1-.3-.4-.3-.8v-4.3h-1v-.7h1z"/></g><g><path class="st0" d="M10.4 32.5v-.8c-.2.3-.5.5-.8.6-.3.2-.6.3-.9.3-.2 0-.4 0-.6-.1s-.4-.2-.5-.3c-.2-.1-.3-.3-.4-.5-.2-.2-.2-.4-.2-.8v-4.2h.8v4.2c0 .4.1.7.3.8.2.1.4.2.7.2.1 0 .3 0 .5-.1s.3-.1.5-.2c.1-.1.3-.2.4-.3l.3-.3v-4.4h.8v5.8h-.9zM13 31c.2.3.4.5.7.7.3.2.6.2 1 .2s.8-.1 1-.3.3-.4.3-.7-.1-.4-.3-.6c-.2-.1-.4-.3-.6-.3-.3-.1-.5-.2-.8-.3-.3-.1-.6-.2-.8-.3-.2-.1-.5-.3-.6-.5-.2-.2-.2-.5-.2-.8 0-.5.2-.9.6-1.2.4-.3.8-.4 1.4-.4.2 0 .4 0 .6.1.2.1.4.1.6.2s.3.2.5.3l.4.4-.6.5c-.2-.3-.5-.5-.7-.6-.2-.1-.5-.2-.8-.2-.3 0-.6.1-.8.2s-.3.4-.3.6c0 .2.1.4.3.5l.6.3c.2.1.5.2.8.3.3.1.6.2.8.3.2.1.5.3.6.5.2.2.3.5.3.9 0 .3-.1.5-.2.7-.1.2-.3.4-.5.5-.2.1-.4.2-.7.3-.2.1-.5.1-.8.1-.5 0-.9-.1-1.3-.3-.4-.2-.8-.5-1-.8l.5-.3zM22.3 31.3c-.1.2-.2.3-.3.5-.1.2-.3.3-.4.4l-.6.3c-.2.1-.5.1-.9.1s-.6-.1-.9-.2c-.3-.1-.6-.3-.8-.5-.2-.2-.4-.6-.6-.9-.1-.4-.2-.8-.2-1.4 0-.5.1-.9.2-1.3s.3-.7.5-1c.2-.3.5-.5.8-.6s.6-.2 1-.2c.3 0 .6.1.9.2.3.1.5.3.7.5.2.2.4.5.5.8.1.3.2.7.2 1.2v.5h-3.8c0 .3 0 .6.1.9s.2.5.4.7.3.3.5.4c.2.1.4.2.7.2.4 0 .7-.1.9-.3s.5-.4.7-.7l.4.4zm-1-2.2c0-.5-.1-1-.4-1.3-.2-.3-.6-.5-1-.5-.5 0-.9.2-1.1.5-.3.3-.4.8-.4 1.3h2.9zM24.8 31.3v1.2h-1.1v-1.2h1.1zM31.6 24.4h3c.4 0 .7.1.9.2.3.1.5.2.7.4s.3.4.4.6c.1.2.2.5.2.8 0 .4-.1.8-.3 1.1-.2.3-.6.6-1.1.7l.6.3c.2.1.4.3.5.5l.3.6c.1.2.1.5.1.7 0 .3 0 .6-.2.9-.1.3-.3.5-.5.7-.2.2-.5.4-.9.5-.4.1-.8.2-1.4.2h-2.5v-8.2zm.9 3.5H34c.3 0 .6 0 .9-.1l.6-.3c.2-.1.3-.3.3-.4.1-.2.1-.3.1-.5 0-.9-.5-1.3-1.5-1.3h-1.9v2.6zm0 3.9h1.7c.7 0 1.2-.1 1.5-.3.3-.2.5-.6.5-1.1 0-.5-.2-.9-.6-1.2s-.9-.4-1.5-.4h-1.5v3zM43 31.3c-.1.2-.2.3-.3.5-.1.2-.3.3-.4.4l-.6.3c-.2.1-.5.1-.9.1s-.6-.1-.9-.2c-.3-.1-.6-.3-.8-.5-.2-.2-.4-.6-.6-.9-.1-.4-.2-.8-.2-1.4 0-.5.1-.9.2-1.3s.3-.7.5-1c.2-.3.5-.5.8-.6s.6-.2 1-.2c.3 0 .6.1.9.2.3.1.5.3.7.5.2.2.4.5.5.8.1.3.2.7.2 1.2v.5H39c0 .3 0 .6.1.9s.2.5.4.7.3.3.5.4c.2.1.4.2.7.2.4 0 .7-.1.9-.3s.5-.4.7-.7l.7.4zm-1-2.2c0-.5-.1-1-.4-1.3-.2-.3-.6-.5-1-.5-.5 0-.9.2-1.1.5-.3.3-.4.8-.4 1.3H42zM44.5 32.5v-5.1h-1v-.7h1V26c0-.3 0-.6.1-.8.1-.2.1-.4.3-.5.1-.1.3-.2.4-.3.2 0 .4-.1.6-.1h.8v.7c-.1 0-.2 0-.3-.1s-.2 0-.3 0c-.3 0-.5.1-.6.2s-.2.3-.2.7v.9h1.3v.7h-1.3v5.1h-.8zM51.9 29.6c0 .4-.1.8-.2 1.2-.1.4-.3.7-.4 1s-.4.5-.7.6c-.3.2-.6.2-1 .2s-.7-.1-1-.2c-.3-.2-.5-.4-.7-.6s-.3-.6-.4-1c-.1-.4-.2-.8-.2-1.2s.1-.8.2-1.2c.1-.4.3-.7.4-1 .2-.3.4-.5.7-.6.3-.2.6-.2 1-.2s.7.1 1 .2c.3.2.5.4.7.6.2.3.3.6.4 1 .2.4.2.8.2 1.2zm-.8 0c0-.8-.1-1.3-.4-1.7-.3-.4-.7-.6-1.2-.6s-.9.2-1.2.6c-.3.4-.4 1-.4 1.7s.1 1.3.4 1.7.7.6 1.2.6.9-.2 1.2-.6c.3-.4.4-.9.4-1.7zM53.1 26.7h.8v1.2c.1-.2.2-.4.3-.5l.4-.4c.1-.1.3-.2.5-.2.2-.1.4-.1.6-.1v.8c-.5 0-.9.2-1.2.5s-.5.8-.7 1.4v3.2H53v-5.9zM61.2 31.3c-.1.2-.2.3-.3.5-.1.2-.3.3-.4.4l-.6.3c-.2.1-.5.1-.9.1s-.6-.1-.9-.2c-.3-.1-.6-.3-.8-.5-.2-.2-.4-.6-.6-.9-.1-.4-.2-.8-.2-1.4 0-.5.1-.9.2-1.3s.3-.7.5-1c.2-.3.5-.5.8-.6s.6-.2 1-.2c.3 0 .6.1.9.2.3.1.5.3.7.5.2.2.4.5.5.8.1.3.2.7.2 1.2v.5h-3.8c0 .3 0 .6.1.9s.2.5.4.7.3.3.5.4c.2.1.4.2.7.2.4 0 .7-.1.9-.3s.5-.4.7-.7l.4.4zm-1-2.2c0-.5-.1-1-.4-1.3-.2-.3-.6-.5-1-.5-.5 0-.9.2-1.1.5-.3.3-.4.8-.4 1.3h2.9zM67 34.7v-8h.8v.7l.3-.3c.1-.1.2-.2.4-.3.1-.1.3-.1.4-.2.1 0 .3-.1.4-.1.3 0 .5 0 .8.1.3.1.5.3.8.5.2.2.4.5.6.9.2.4.2.9.2 1.5s-.1 1-.2 1.4c-.2.4-.3.7-.6.9-.2.2-.5.4-.8.5-.3.1-.5.2-.8.2-.3 0-.5-.1-.8-.2-.3-.1-.5-.3-.7-.5v2.7H67zm.8-3.6c.2.2.5.4.7.6.3.1.5.2.8.2.2 0 .4 0 .7-.1s.4-.2.5-.4c.1-.2.3-.4.3-.7.1-.3.1-.7.1-1.1 0-.7-.1-1.3-.4-1.7-.3-.4-.7-.6-1.2-.6-.3 0-.5.1-.7.2-.2.1-.5.3-.8.6v3zM72.9 26.7h.8v1.2c.1-.2.2-.4.3-.5l.4-.4c.1-.1.3-.2.5-.2.2-.1.4-.1.6-.1v.8c-.5 0-.9.2-1.2.5s-.5.8-.7 1.4v3.2h-.8v-5.9zM81 29.6c0 .4-.1.8-.2 1.2-.1.4-.3.7-.4 1s-.4.5-.7.6c-.3.2-.6.2-1 .2s-.7-.1-1-.2c-.3-.2-.5-.4-.7-.6s-.3-.6-.4-1c-.1-.4-.2-.8-.2-1.2s.1-.8.2-1.2c.1-.4.3-.7.4-1 .2-.3.4-.5.7-.6.3-.2.6-.2 1-.2s.7.1 1 .2c.3.2.5.4.7.6.2.3.3.6.4 1 .1.4.2.8.2 1.2zm-.8 0c0-.8-.1-1.3-.4-1.7-.3-.4-.7-.6-1.2-.6s-.9.2-1.2.6c-.3.4-.4 1-.4 1.7s.1 1.3.4 1.7.7.6 1.2.6.9-.2 1.2-.6c.2-.4.4-.9.4-1.7zM85.6 28.4c-.1-.4-.3-.6-.5-.8s-.5-.3-.9-.3c-.5 0-.9.2-1.2.6-.3.4-.4 1-.4 1.7s.1 1.3.4 1.7c.3.4.7.6 1.2.6h.5c.1 0 .3-.1.4-.2.1-.1.2-.2.4-.3.1-.1.2-.3.3-.5l.7.3c-.1.2-.3.5-.4.7-.1.2-.3.3-.5.5l-.6.3c-.2.1-.5.1-.8.1-.4 0-.7-.1-1-.2-.3-.1-.5-.3-.8-.6-.2-.3-.4-.6-.5-1s-.2-.8-.2-1.3.1-.9.2-1.3.3-.7.5-1c.2-.3.5-.5.8-.6.3-.1.6-.2 1-.2.3 0 .6 0 .8.1l.6.3c.2.1.3.3.4.5l.3.6-.7.3zM92.1 31.3c-.1.2-.2.3-.3.5-.1.2-.3.3-.4.4l-.6.3c-.2.1-.5.1-.9.1s-.6-.1-.9-.2c-.3-.1-.6-.3-.8-.5-.2-.2-.4-.6-.6-.9-.1-.4-.2-.8-.2-1.4 0-.5.1-.9.2-1.3s.3-.7.5-1c.2-.3.5-.5.8-.6s.6-.2 1-.2c.3 0 .6.1.9.2.3.1.5.3.7.5.2.2.4.5.5.8.1.3.2.7.2 1.2v.5h-3.8c0 .3 0 .6.1.9s.2.5.4.7.3.3.5.4c.2.1.4.2.7.2.4 0 .7-.1.9-.3s.5-.4.7-.7l.4.4zm-1-2.2c0-.5-.1-1-.4-1.3-.2-.3-.6-.5-1-.5-.5 0-.9.2-1.1.5-.3.3-.4.8-.4 1.3h2.9zM97.7 31.3c-.1.2-.2.3-.3.5-.1.2-.3.3-.4.4l-.6.3c-.2.1-.5.1-.9.1s-.6-.1-.9-.2c-.3-.1-.6-.3-.8-.5-.2-.2-.4-.6-.6-.9-.1-.4-.2-.8-.2-1.4 0-.5.1-.9.2-1.3s.3-.7.5-1c.2-.3.5-.5.8-.6s.6-.2 1-.2c.3 0 .6.1.9.2.3.1.5.3.7.5.2.2.4.5.5.8.1.3.2.7.2 1.2v.5H94c0 .3 0 .6.1.9s.2.5.4.7.3.3.5.4c.2.1.4.2.7.2.4 0 .7-.1.9-.3s.5-.4.7-.7l.4.4zm-1-2.2c0-.5-.1-1-.4-1.3-.2-.3-.6-.5-1-.5-.5 0-.9.2-1.1.5-.3.3-.4.8-.4 1.3h2.9zM103.3 24.4V32.4h-.7l-.1-.6c-.1.2-.3.3-.6.5-.3.1-.6.2-.9.2-.3 0-.5 0-.8-.1-.3-.1-.5-.3-.8-.5-.2-.2-.4-.5-.6-.9s-.2-.9-.2-1.5.1-1 .2-1.4c.2-.4.3-.7.6-.9.2-.2.5-.4.8-.5s.5-.2.8-.2c.3 0 .5.1.8.2.3.1.5.3.7.5v-2.8h.8zm-.8 3.7c-.2-.2-.5-.4-.7-.6-.3-.2-.5-.2-.8-.2-.2 0-.5 0-.7.1s-.4.2-.5.4c-.2.2-.3.4-.3.7-.1.3-.1.7-.1 1.1 0 .7.1 1.3.4 1.7s.7.6 1.2.6c.3 0 .5-.1.7-.2.2-.1.5-.3.8-.6v-3zM105.9 24.3v1h-.9v-1h.9zm-.9 2.4h.8v5.8h-.8v-5.8zM108.4 26.7v.8c.2-.3.5-.5.8-.6.3-.2.6-.3.9-.3.2 0 .4 0 .6.1.2.1.4.2.5.3s.3.3.4.5.1.5.1.8v4.2h-.8v-4.2c0-.4-.1-.7-.3-.8-.2-.2-.4-.2-.7-.2-.2 0-.3 0-.5.1s-.3.1-.5.2c-.1.1-.3.2-.4.3l-.3.3v4.4h-.8v-5.8h1zM118.1 27.3h-.5c-.2 0-.3.1-.4.1.1.1.2.3.3.5.1.2.1.4.1.7 0 .3-.1.6-.2.8s-.3.5-.5.6c-.2.2-.4.3-.7.4-.3.1-.5.2-.8.2h-.6c-.1 0-.3-.1-.5-.1-.3.1-.5.3-.5.5 0 .1 0 .2.1.3.1.1.2.1.4.1.7 0 1.3 0 1.7.1.5.1.8.2 1.1.3s.5.3.6.5c.1.2.2.5.2.7 0 .2-.1.4-.2.6-.1.2-.3.4-.5.5-.2.1-.5.3-.8.3-.3.1-.7.1-1.2.1-.8 0-1.4-.1-1.9-.3s-.6-.6-.6-1.1c0-.3.1-.5.3-.7.2-.2.4-.3.7-.5-.2-.1-.4-.2-.5-.3-.1-.2-.2-.3-.2-.5 0-.3.1-.4.2-.6s.3-.3.6-.4c-.3-.2-.5-.5-.6-.7-.1-.3-.2-.6-.2-.9 0-.3.1-.6.2-.8.1-.3.3-.5.5-.6s.4-.3.7-.4c.3-.1.6-.1.9-.1.3 0 .6 0 .8.1l.6.3.6-.3c.2-.1.4-.2.7-.2v.8zm-.7 5.8c0-.3-.2-.5-.5-.6-.3-.1-.8-.2-1.5-.2-.3 0-.6 0-.8.1-.2.1-.4.1-.5.2l-.3.3c-.1.1-.1.2-.1.3 0 .1 0 .2.1.3s.1.2.3.2.3.1.6.1c.2 0 .6.1 1 .1.2 0 .5 0 .7-.1.2 0 .4-.1.6-.2s.3-.2.4-.3c-.1.1 0 0 0-.2zm-.5-4.4c0-.4-.1-.8-.4-1-.2-.3-.6-.4-1.1-.4-.5 0-.8.1-1.1.4s-.4.6-.4 1 .1.7.4 1c.3.3.6.4 1.1.4.2 0 .4 0 .6-.1.2-.1.3-.2.4-.3.1-.1.2-.3.3-.4s.2-.5.2-.6zM123 26.7h.8l1.2 4.5 1.1-4.5h.8l1.2 4.5 1.1-4.5h.8l-1.6 5.8h-.8l-1.2-4.5-1.2 4.5h-.8l-1.4-5.8zM132 24.3v1h-.8v-1h.8zm-.8 2.4h.8v5.8h-.8v-5.8zM134.1 26.7v-1.9h.8v1.9h1.3v.7h-1.3v4.2c0 .1.1.2.2.3.1.1.3.1.5.1h.7v.7c-.1 0-.2 0-.3.1h-.6c-.4 0-.8-.1-1-.2-.2-.1-.3-.4-.3-.8v-4.3h-1v-.7h1zM138.3 24.4v3.1c.2-.3.5-.5.8-.6.3-.2.6-.3.9-.3.2 0 .4 0 .6.1.2.1.4.2.5.3s.3.3.4.5.1.5.1.8v4.2h-.8v-4.2c0-.4-.1-.7-.3-.8-.2-.2-.4-.2-.7-.2-.2 0-.3 0-.5.1s-.3.1-.5.2c-.1.1-.3.2-.4.3l-.3.3v4.4h-.8v-8.1h1zM151.9 26.7l-2.1 6.4c-.1.3-.2.6-.4.8-.1.2-.3.4-.5.5-.2.1-.4.2-.5.3-.2 0-.4.1-.6.1h-.6V34h.8c.1 0 .3-.1.4-.2.1-.1.3-.2.4-.4.1-.2.2-.4.3-.8l-2-5.9h.9l1.6 4.5 1.4-4.5h.9zM157.2 29.6c0 .4-.1.8-.2 1.2-.1.4-.3.7-.4 1s-.4.5-.7.6c-.3.2-.6.2-1 .2s-.7-.1-1-.2c-.3-.2-.5-.4-.7-.6s-.3-.6-.4-1c-.1-.4-.2-.8-.2-1.2s.1-.8.2-1.2c.1-.4.3-.7.4-1 .2-.3.4-.5.7-.6.3-.2.6-.2 1-.2s.7.1 1 .2c.3.2.5.4.7.6.2.3.3.6.4 1 .1.4.2.8.2 1.2zm-.9 0c0-.8-.1-1.3-.4-1.7-.3-.4-.7-.6-1.2-.6s-.9.2-1.2.6c-.3.4-.4 1-.4 1.7s.1 1.3.4 1.7.7.6 1.2.6.9-.2 1.2-.6c.3-.4.4-.9.4-1.7zM161.9 32.5v-.8c-.2.3-.5.5-.8.6-.3.2-.6.3-.9.3-.2 0-.4 0-.6-.1s-.4-.2-.5-.3c-.2-.1-.3-.3-.4-.5-.1-.2-.1-.5-.1-.8v-4.2h.8v4.2c0 .4.1.7.3.8.2.1.4.2.7.2.1 0 .3 0 .5-.1s.3-.1.5-.2c.1-.1.3-.2.4-.3l.3-.3v-4.4h.8v5.8h-1zM164.3 26.7h.8v1.2c.1-.2.2-.4.3-.5l.4-.4c.1-.1.3-.2.5-.2.2-.1.4-.1.6-.1v.8c-.5 0-.9.2-1.2.5s-.5.8-.7 1.4v3.2h-.8v-5.9zM172.6 34.7v-8h.8v.7l.3-.3c.1-.1.2-.2.4-.3.1-.1.3-.1.4-.2.1 0 .3-.1.4-.1.3 0 .5 0 .8.1.3.1.5.3.8.5.2.2.4.5.6.9.2.4.2.9.2 1.5s-.1 1-.2 1.4c-.2.4-.3.7-.6.9-.2.2-.5.4-.8.5-.3.1-.5.2-.8.2-.3 0-.5-.1-.8-.2-.3-.1-.5-.3-.7-.5v2.7h-.8zm.8-3.6c.2.2.5.4.7.6.3.1.5.2.8.2.2 0 .4 0 .7-.1s.4-.2.5-.4c.1-.2.3-.4.3-.7.1-.3.1-.7.1-1.1 0-.7-.1-1.3-.4-1.7-.3-.4-.7-.6-1.2-.6-.3 0-.5.1-.7.2-.2.1-.5.3-.8.6v3zM182.1 32.5v-.8c-.2.3-.5.5-.8.6-.3.2-.6.3-.9.3-.2 0-.4 0-.6-.1s-.4-.2-.5-.3c-.2-.1-.3-.3-.4-.5-.1-.2-.1-.5-.1-.8v-4.2h.8v4.2c0 .4.1.7.3.8.2.1.4.2.7.2.1 0 .3 0 .5-.1s.3-.1.5-.2c.1-.1.3-.2.4-.3l.3-.3v-4.4h.8v5.8h-1zM184.5 26.7h.8v1.2c.1-.2.2-.4.3-.5l.4-.4c.1-.1.3-.2.5-.2.2-.1.4-.1.6-.1v.8c-.5 0-.9.2-1.2.5s-.5.8-.7 1.4v3.2h-.8v-5.9zM191.6 28.4c-.1-.4-.3-.6-.5-.8s-.5-.3-.9-.3c-.5 0-.9.2-1.2.6-.3.4-.4 1-.4 1.7s.1 1.3.4 1.7c.3.4.7.6 1.2.6h.5c.1 0 .3-.1.4-.2.1-.1.2-.2.4-.3.1-.1.2-.3.3-.5l.7.3c-.1.2-.3.5-.4.7-.1.2-.3.3-.5.5l-.6.3c-.2.1-.5.1-.8.1-.4 0-.7-.1-1-.2-.3-.1-.5-.3-.8-.6-.2-.3-.4-.6-.5-1s-.2-.8-.2-1.3.1-.9.2-1.3.3-.7.5-1c.2-.3.5-.5.8-.6.3-.1.6-.2 1-.2.3 0 .6 0 .8.1l.6.3c.2.1.3.3.4.5l.3.6-.7.3zM194.5 24.4v3.1c.2-.3.5-.5.8-.6.3-.2.6-.3.9-.3.2 0 .4 0 .6.1.2.1.4.2.5.3s.3.3.4.5.1.5.1.8v4.2h-.8v-4.2c0-.4-.1-.7-.3-.8-.2-.2-.4-.2-.7-.2-.2 0-.3 0-.5.1s-.3.1-.5.2c-.1.1-.3.2-.4.3l-.3.3v4.4h-.8v-8.1h1zM199.3 27.8c.2-.3.5-.6.8-.9s.8-.4 1.4-.4c.2 0 .5 0 .7.1s.5.2.6.3c.2.1.3.3.5.5.1.2.2.5.2.8v3.7c0 .2.1.3.1.5h-.8l-.1-.8c-.2.2-.5.4-.8.6-.3.2-.7.3-1.1.3-.2 0-.4 0-.6-.1-.2-.1-.4-.2-.5-.3s-.3-.3-.4-.5-.1-.4-.1-.7c0-.3.1-.6.2-.8s.3-.5.6-.7c.3-.2.7-.4 1.1-.5s1-.3 1.7-.4v-.3c0-.4-.1-.7-.3-.8-.2-.2-.5-.2-.9-.2-.2 0-.4 0-.6.1-.2.1-.3.1-.4.2l-.3.3c-.1.1-.1.2-.2.3l-.8-.3zm3.4 1.6c-1.8.3-2.8.9-2.8 1.7 0 .1 0 .3.1.4s.1.2.2.3c.1.1.2.1.3.2s.2.1.3.1c.1 0 .3 0 .5-.1.2 0 .3-.1.5-.2s.3-.2.5-.3c.1-.1.3-.2.4-.4v-1.7zM205.2 31c.2.3.4.5.7.7.3.2.6.2 1 .2s.8-.1 1-.3.3-.4.3-.7-.1-.4-.3-.6c-.2-.1-.4-.3-.6-.3-.3-.1-.5-.2-.8-.3-.3-.1-.6-.2-.8-.3-.2-.1-.5-.3-.6-.5-.2-.2-.2-.5-.2-.8 0-.5.2-.9.6-1.2.4-.3.8-.4 1.4-.4.2 0 .4 0 .6.1.2.1.4.1.6.2s.3.2.5.3l.4.4-.6.5c-.2-.3-.5-.5-.7-.6-.2-.1-.5-.2-.8-.2-.3 0-.6.1-.8.2s-.3.4-.3.6c0 .2.1.4.3.5l.6.3c.2.1.5.2.8.3.3.1.6.2.8.3.2.1.5.3.6.5.2.2.3.5.3.9 0 .3-.1.5-.2.7-.1.2-.3.4-.5.5-.2.1-.4.2-.7.3-.2.1-.5.1-.8.1-.5 0-.9-.1-1.3-.3-.4-.2-.8-.5-1-.8l.5-.3zM214.5 31.3c-.1.2-.2.3-.3.5-.1.2-.3.3-.4.4l-.6.3c-.2.1-.5.1-.9.1s-.6-.1-.9-.2c-.3-.1-.6-.3-.8-.5-.2-.2-.4-.6-.6-.9-.1-.4-.2-.8-.2-1.4 0-.5.1-.9.2-1.3s.3-.7.5-1c.2-.3.5-.5.8-.6s.6-.2 1-.2c.3 0 .6.1.9.2.3.1.5.3.7.5.2.2.4.5.5.8.1.3.2.7.2 1.2v.5h-3.8c0 .3 0 .6.1.9s.2.5.4.7.3.3.5.4c.2.1.4.2.7.2.4 0 .7-.1.9-.3s.5-.4.7-.7l.4.4zm-1-2.2c0-.5-.1-1-.4-1.3-.2-.3-.6-.5-1-.5-.5 0-.9.2-1.1.5-.3.3-.4.8-.4 1.3h2.9zM216.9 32.5l-.7 1.7h-.5l.5-1.7h-.4v-1.2h1.1v1.2zM227.4 26.7l-2.1 6.4c-.1.3-.2.6-.4.8-.1.2-.3.4-.5.5-.2.1-.4.2-.5.3-.2 0-.4.1-.6.1h-.6V34h.8c.1 0 .3-.1.4-.2.1-.1.3-.2.4-.4.1-.2.2-.4.3-.8l-2-5.9h.9l1.6 4.5 1.4-4.5h.9zM232.6 29.6c0 .4-.1.8-.2 1.2-.1.4-.3.7-.4 1s-.4.5-.7.6c-.3.2-.6.2-1 .2s-.7-.1-1-.2c-.3-.2-.5-.4-.7-.6s-.3-.6-.4-1c-.1-.4-.2-.8-.2-1.2s.1-.8.2-1.2c.1-.4.3-.7.4-1 .2-.3.4-.5.7-.6.3-.2.6-.2 1-.2s.7.1 1 .2c.3.2.5.4.7.6.2.3.3.6.4 1 .1.4.2.8.2 1.2zm-.8 0c0-.8-.1-1.3-.4-1.7-.3-.4-.7-.6-1.2-.6s-.9.2-1.2.6c-.3.4-.4 1-.4 1.7s.1 1.3.4 1.7.7.6 1.2.6.9-.2 1.2-.6c.2-.4.4-.9.4-1.7zM237.3 32.5v-.8c-.2.3-.5.5-.8.6-.3.2-.6.3-.9.3-.2 0-.4 0-.6-.1s-.4-.2-.5-.3c-.2-.1-.3-.3-.4-.5-.1-.2-.1-.5-.1-.8v-4.2h.8v4.2c0 .4.1.7.3.8.2.1.4.2.7.2.1 0 .3 0 .5-.1s.3-.1.5-.2c.1-.1.3-.2.4-.3l.3-.3v-4.4h.8v5.8h-1zM244.4 31c.2.3.4.5.7.7.3.2.6.2 1 .2s.8-.1 1-.3.3-.4.3-.7-.1-.4-.3-.6c-.2-.1-.4-.3-.6-.3-.3-.1-.5-.2-.8-.3-.3-.1-.6-.2-.8-.3-.2-.1-.5-.3-.6-.5-.2-.2-.2-.5-.2-.8 0-.5.2-.9.6-1.2.4-.3.8-.4 1.4-.4.2 0 .4 0 .6.1.2.1.4.1.6.2s.3.2.5.3l.4.4-.6.5c-.2-.3-.5-.5-.7-.6-.2-.1-.5-.2-.8-.2-.3 0-.6.1-.8.2s-.3.4-.3.6c0 .2.1.4.3.5l.6.3c.2.1.5.2.8.3.3.1.6.2.8.3.2.1.5.3.6.5.2.2.3.5.3.9 0 .3-.1.5-.2.7-.1.2-.3.4-.5.5-.2.1-.4.2-.7.3-.2.1-.5.1-.8.1-.5 0-.9-.1-1.3-.3-.4-.2-.8-.5-1-.8l.5-.3zM250.1 24.4v3.1c.2-.3.5-.5.8-.6.3-.2.6-.3.9-.3.2 0 .4 0 .6.1.2.1.4.2.5.3s.3.3.4.5.1.5.1.8v4.2h-.8v-4.2c0-.4-.1-.7-.3-.8-.2-.2-.4-.2-.7-.2-.2 0-.3 0-.5.1s-.3.1-.5.2c-.1.1-.3.2-.4.3l-.3.3v4.4h-.8v-8.1h1zM259.6 29.6c0 .4-.1.8-.2 1.2-.1.4-.3.7-.4 1s-.4.5-.7.6c-.3.2-.6.2-1 .2s-.7-.1-1-.2c-.3-.2-.5-.4-.7-.6s-.3-.6-.4-1c-.1-.4-.2-.8-.2-1.2s.1-.8.2-1.2c.1-.4.3-.7.4-1 .2-.3.4-.5.7-.6.3-.2.6-.2 1-.2s.7.1 1 .2c.3.2.5.4.7.6.2.3.3.6.4 1 .2.4.2.8.2 1.2zm-.8 0c0-.8-.1-1.3-.4-1.7-.3-.4-.7-.6-1.2-.6s-.9.2-1.2.6c-.3.4-.4 1-.4 1.7s.1 1.3.4 1.7.7.6 1.2.6.9-.2 1.2-.6c.3-.4.4-.9.4-1.7zM264.3 32.5v-.8c-.2.3-.5.5-.8.6-.3.2-.6.3-.9.3-.2 0-.4 0-.6-.1s-.4-.2-.5-.3c-.2-.1-.3-.3-.4-.5-.1-.2-.1-.5-.1-.8v-4.2h.8v4.2c0 .4.1.7.3.8.2.1.4.2.7.2.1 0 .3 0 .5-.1s.3-.1.5-.2c.1-.1.3-.2.4-.3l.3-.3v-4.4h.8v5.8h-1zM267.7 24.4v8.1h-.8v-8.1h.8zM273.9 24.4V32.4h-.7l-.1-.6c-.1.2-.3.3-.6.5-.3.1-.6.2-.9.2-.3 0-.5 0-.8-.1-.3-.1-.5-.3-.8-.5-.2-.2-.4-.5-.6-.9s-.2-.9-.2-1.5.1-1 .2-1.4c.2-.4.3-.7.6-.9.2-.2.5-.4.8-.5s.5-.2.8-.2c.3 0 .5.1.8.2.3.1.5.3.7.5v-2.8h.8zm-.8 3.7c-.2-.2-.5-.4-.7-.6-.3-.2-.5-.2-.8-.2-.2 0-.5 0-.7.1s-.4.2-.5.4c-.2.2-.3.4-.3.7-.1.3-.1.7-.1 1.1 0 .7.1 1.3.4 1.7s.7.6 1.2.6c.3 0 .5-.1.7-.2.2-.1.5-.3.8-.6v-3z"/></g><g><path class="st0" d="M6.9 43.2c.2.3.4.5.7.7.3.2.6.2 1 .2s.8-.1 1-.3.3-.4.3-.7-.1-.4-.3-.6c-.2-.1-.4-.3-.6-.3-.4-.1-.6-.2-.9-.2-.3-.1-.6-.2-.8-.3-.2-.1-.5-.3-.6-.5-.2-.2-.2-.5-.2-.8 0-.5.2-.9.6-1.2.4-.3.8-.4 1.4-.4.2 0 .4 0 .6.1.2.1.4.1.6.2s.3.2.5.3l.4.4-.6.5c-.2-.3-.5-.5-.7-.6-.2-.1-.5-.2-.8-.2-.3 0-.6.1-.8.2s-.5.3-.5.6c0 .2.1.4.3.5l.6.3c.2.1.5.2.8.3.3.1.6.2.8.3.2.1.5.3.6.5.2.2.3.5.3.9 0 .3-.1.5-.2.7-.1.2-.3.4-.5.5-.2.1-.4.2-.7.3-.2.1-.5.1-.8.1-.5 0-.9-.1-1.3-.3-.4-.2-.8-.5-1-.8l.8-.4zM16.2 43.4c-.1.2-.2.3-.3.5-.1.2-.3.3-.4.4l-.6.3c-.2.1-.5.1-.9.1s-.6-.1-.9-.2c-.3-.1-.6-.3-.8-.5-.2-.2-.4-.6-.6-.9-.1-.4-.2-.8-.2-1.4 0-.5.1-.9.2-1.3s.3-.7.5-1c.2-.3.5-.5.8-.6s.6-.2 1-.2c.3 0 .6.1.9.2.3.1.5.3.7.5.2.2.4.5.5.8.1.3.2.7.2 1.2v.5h-3.8c0 .3 0 .6.1.9s.2.5.4.7.3.3.5.4c.2.1.4.2.7.2.4 0 .7-.1.9-.3s.5-.4.7-.7l.4.4zm-1-2.2c0-.5-.1-1-.4-1.3-.2-.3-.6-.5-1-.5-.5 0-.9.2-1.1.5-.3.3-.4.8-.4 1.3h2.9zM21.8 43.4c-.1.2-.2.3-.3.5-.1.2-.3.3-.4.4l-.6.3c-.2.1-.5.1-.9.1s-.6-.1-.9-.2c-.3-.1-.6-.3-.8-.5-.2-.2-.4-.6-.6-.9-.1-.4-.2-.8-.2-1.4 0-.5.1-.9.2-1.3s.3-.7.5-1c.2-.3.5-.5.8-.6s.6-.2 1-.2c.3 0 .6.1.9.2.3.1.5.3.7.5.2.2.4.5.5.8.1.3.2.7.2 1.2v.5h-3.8c0 .3 0 .6.1.9s.2.5.4.7.3.3.5.4c.2.1.4.2.7.2.4 0 .7-.1.9-.3s.5-.4.7-.7l.4.4zm-1-2.2c0-.5-.1-1-.4-1.3-.2-.3-.6-.5-1-.5-.5 0-.9.2-1.1.5-.3.3-.4.8-.4 1.3h2.9zM23 36.6h.8v5.2l2.4-3h1L25.4 41l1.9 3.7h-1l-1.5-3-1.1 1.2v1.8H23v-8.1zM33.6 43.2c.2.3.4.5.7.7.3.2.6.2 1 .2s.8-.1 1-.3.3-.4.3-.7-.1-.4-.3-.6c-.2-.1-.4-.3-.6-.3-.3-.1-.5-.2-.8-.3-.3-.1-.6-.2-.8-.3-.2-.1-.5-.3-.6-.5-.2-.2-.2-.5-.2-.8 0-.5.2-.9.6-1.2.4-.3.8-.4 1.4-.4.2 0 .4 0 .6.1.2.1.4.1.6.2s.3.2.5.3l.4.4-.6.5c-.2-.3-.5-.5-.7-.6-.2-.1-.5-.2-.8-.2-.3 0-.6.1-.8.2s-.5.4-.5.7c0 .2.1.4.3.5l.6.3c.2.1.5.2.8.3.3.1.6.2.8.3.2.1.5.3.6.5.2.2.3.5.3.9 0 .3-.1.5-.2.7-.1.2-.3.4-.5.5-.2.1-.4.2-.7.3-.2.1-.5.1-.8.1-.5 0-.9-.1-1.3-.3-.4-.2-.8-.5-1-.8l.7-.4zM38.5 46.8v-8h.8v.7l.3-.3c.1-.1.2-.2.4-.3.1-.1.3-.1.4-.2.1 0 .3-.1.4-.1.3 0 .5 0 .8.1.3.1.5.3.8.5.2.2.4.5.6.9.2.4.2.9.2 1.5s-.1 1-.2 1.4c-.2.4-.3.7-.6.9-.2.2-.5.4-.8.5-.3.1-.5.2-.8.2-.3 0-.5-.1-.8-.2-.3-.1-.5-.3-.7-.5v2.7h-.8zm.9-3.5c.2.2.5.4.7.6.3.1.5.2.8.2.2 0 .4 0 .7-.1s.4-.2.5-.4c.1-.2.3-.4.3-.7.1-.3.1-.7.1-1.1 0-.7-.1-1.3-.4-1.7-.3-.4-.7-.6-1.2-.6-.3 0-.5.1-.7.2-.2.1-.5.3-.8.6v3zM49 43.4c-.1.2-.2.3-.3.5-.1.2-.3.3-.4.4l-.6.3c-.2.1-.5.1-.9.1s-.6-.1-.9-.2c-.3-.1-.6-.3-.8-.5-.2-.2-.4-.6-.6-.9-.1-.4-.2-.8-.2-1.4 0-.5.1-.9.2-1.3s.3-.7.5-1c.2-.3.5-.5.8-.6s.6-.2 1-.2c.3 0 .6.1.9.2.3.1.5.3.7.5.2.2.4.5.5.8.1.3.2.7.2 1.2v.5H45c0 .3 0 .6.1.9s.2.5.4.7.3.3.5.4c.2.1.4.2.7.2.4 0 .7-.1.9-.3s.5-.4.7-.7l.7.4zm-1-2.2c0-.5-.1-1-.4-1.3-.2-.3-.6-.5-1-.5-.5 0-.9.2-1.1.5-.3.3-.4.8-.4 1.3H48zM53.6 40.6c-.1-.4-.3-.6-.5-.8s-.5-.3-.9-.3c-.5 0-.9.2-1.2.6-.3.4-.4 1-.4 1.7s.1 1.3.4 1.7c.3.4.7.6 1.2.6h.5c.1 0 .3-.1.4-.2.1-.1.2-.2.4-.3.1-.1.2-.3.3-.5l.7.3c-.1.2-.3.5-.4.7-.1.2-.3.3-.5.5l-.6.3c-.2.1-.5.1-.8.1-.4 0-.7-.1-1-.2-.3-.1-.5-.3-.8-.6-.2-.3-.4-.6-.5-1s-.2-.8-.2-1.3.1-.9.2-1.3.3-.7.5-1c.2-.3.5-.5.8-.6.3-.1.6-.2 1-.2.3 0 .6 0 .8.1l.6.3c.2.1.3.3.4.5l.3.6-.7.3zM56.6 36.5v1h-.8v-1h.8zm-.9 2.4h.8v5.8h-.8v-5.8zM58.1 40c.2-.3.5-.6.8-.9s.8-.4 1.4-.4c.2 0 .5 0 .7.1s.5.2.6.3c.2.1.3.3.5.5.1.2.2.5.2.8v3.7c0 .2.1.3.1.5h-.8l-.1-.8c-.2.2-.5.4-.8.6-.3.2-.7.3-1.1.3-.2 0-.4 0-.6-.1-.2-.1-.4-.2-.5-.3s-.3-.3-.4-.5-.1-.4-.1-.7c0-.3.1-.6.2-.8s.3-.5.6-.7c.3-.2.7-.4 1.1-.5s1-.3 1.7-.4v-.3c0-.4-.1-.7-.3-.8-.2-.2-.5-.2-.9-.2-.2 0-.4 0-.6.1-.2.1-.3.1-.4.2-.3.1-.4.2-.4.3-.1.1-.1.2-.2.3l-.7-.3zm3.4 1.5c-1.8.3-2.8.9-2.8 1.7 0 .1 0 .3.1.4s.1.2.2.3c.1.1.2.1.3.2s.2.1.3.1c.1 0 .3 0 .5-.1.2 0 .3-.1.5-.2s.3-.2.5-.3c.1-.1.3-.2.4-.4v-1.7zM64.7 36.6v8.1h-.8v-8.1h.8zM67.4 36.5v1h-.8v-1h.8zm-.8 2.4h.8v5.8h-.8v-5.8zM69.3 43.2c.2.3.4.5.7.7.3.2.6.2 1 .2s.8-.1 1-.3.3-.4.3-.7-.1-.4-.3-.6c-.2-.1-.4-.3-.6-.3-.4-.1-.6-.2-.9-.2-.3-.1-.6-.2-.8-.3-.2-.1-.5-.3-.6-.5-.2-.2-.2-.5-.2-.8 0-.5.2-.9.6-1.2.4-.3.8-.4 1.4-.4.2 0 .4 0 .6.1.2.1.4.1.6.2s.3.2.5.3l.4.4-.6.5c-.2-.3-.5-.5-.7-.6-.2-.1-.5-.2-.8-.2-.3 0-.6.1-.8.2s-.3.4-.3.6c0 .2.1.4.3.5l.6.3c.2.1.5.2.8.3.3.1.6.2.8.3.2.1.5.3.6.5.2.2.3.5.3.9 0 .3-.1.5-.2.7-.1.2-.3.4-.5.5-.2.1-.4.2-.7.3-.2.1-.5.1-.8.1-.5 0-.9-.1-1.3-.3-.4-.2-.8-.5-1-.8l.6-.4zM74.5 38.9V37h.8v1.9h1.3v.7h-1.3v4.2c0 .1.1.2.2.3.1.1.3.1.5.1h.7v.7c-.1 0-.2 0-.3.1h-.6c-.4 0-.8-.1-1-.2-.2-.1-.3-.4-.3-.8v-4.3h-1V39h1zM83.4 38.9V37h.8v1.9h1.3v.7h-1.3v4.2c0 .1.1.2.2.3.1.1.3.1.5.1h.7v.7c-.1 0-.2 0-.3.1h-.6c-.4 0-.8-.1-1-.2-.2-.1-.3-.4-.3-.8v-4.3h-1V39h1zM86.6 40c.2-.3.5-.6.8-.9s.8-.4 1.4-.4c.2 0 .5 0 .7.1s.5.2.6.3c.2.1.3.3.5.5.1.2.2.5.2.8v3.7c0 .2.1.3.1.5h-.8l-.1-.7c-.2.2-.5.4-.8.6-.3.2-.7.3-1.1.3-.2 0-.4 0-.6-.1-.2-.1-.4-.2-.5-.3s-.3-.3-.4-.5-.1-.4-.1-.7c0-.3.1-.6.2-.8s.3-.5.6-.7c.3-.2.7-.4 1.1-.5s1-.3 1.7-.4v-.3c0-.4-.1-.7-.3-.8-.2-.2-.5-.2-.9-.2-.2 0-.4 0-.6.1-.2.1-.3.1-.4.2l-.3.3c-.1.1-.1.2-.2.3l-.8-.4zm3.4 1.5c-1.8.3-2.8.9-2.8 1.7 0 .1 0 .3.1.4s.1.2.2.3c.1.1.2.1.3.2s.2.1.3.1c.1 0 .3 0 .5-.1.2 0 .3-.1.5-.2s.3-.2.5-.3c.1-.1.3-.2.4-.4v-1.7zM94 40.9l1.2-2.1h.9l-1.6 2.8 1.9 3.1h-.9L94 42.3l-1.4 2.4h-.9l1.8-3.1-1.7-2.8h.9l1.3 2.1zM102.3 40c.2-.3.5-.6.8-.9s.8-.4 1.4-.4c.2 0 .5 0 .7.1s.5.2.6.3c.2.1.3.3.5.5.1.2.2.5.2.8v3.7c0 .2.1.3.1.5h-.8l-.1-.8c-.2.2-.5.4-.8.6-.3.2-.7.3-1.1.3-.2 0-.4 0-.6-.1-.2-.1-.4-.2-.5-.3s-.3-.3-.4-.5-.1-.4-.1-.7c0-.3.1-.6.2-.8s.3-.5.6-.7c.3-.2.7-.4 1.1-.5s1-.3 1.7-.4v-.3c0-.4-.1-.7-.3-.8-.2-.2-.5-.2-.9-.2-.2 0-.4 0-.6.1-.2.1-.3.1-.4.2l-.3.3c-.1.1-.1.2-.2.3l-.8-.3zm3.4 1.5c-1.8.3-2.8.9-2.8 1.7 0 .1 0 .3.1.4s.1.2.2.3c.1.1.2.1.3.2s.2.1.3.1c.1 0 .3 0 .5-.1.2 0 .3-.1.5-.2s.3-.2.5-.3c.1-.1.3-.2.4-.4v-1.7zM108.9 38.9v.8c.2-.3.5-.5.8-.6.3-.2.6-.3.9-.3.2 0 .4 0 .6.1.2.1.4.2.5.3s.3.3.4.5.1.5.1.8v4.2h-.8v-4.2c0-.4-.1-.7-.3-.8-.2-.2-.4-.2-.7-.2-.2 0-.3 0-.5.1s-.3.1-.5.2c-.1.1-.3.2-.4.3l-.3.3v4.4h-.8V39h1zM118.4 36.6V44.6h-.7l-.1-.6c-.1.2-.3.3-.6.5-.3.1-.6.2-.9.2-.3 0-.5 0-.8-.1-.3-.1-.5-.3-.8-.5-.2-.2-.4-.5-.6-.9s-.2-.9-.2-1.5.1-1 .2-1.4c.2-.4.3-.7.6-.9.2-.2.5-.4.8-.5s.5-.2.8-.2c.3 0 .5.1.8.2.3.1.5.3.7.5v-2.8h.8zm-.8 3.6c-.2-.2-.5-.4-.7-.6-.3-.2-.5-.2-.8-.2-.2 0-.5 0-.7.1s-.4.2-.5.4c-.2.2-.3.4-.3.7-.1.3-.1.7-.1 1.1 0 .7.1 1.3.4 1.7s.7.6 1.2.6c.3 0 .5-.1.7-.2.2-.1.5-.3.8-.6v-3zM125.2 40c.2-.3.5-.6.8-.9s.8-.4 1.4-.4c.2 0 .5 0 .7.1s.5.2.6.3c.2.1.3.3.5.5.1.2.2.5.2.8v3.7c0 .2.1.3.1.5h-.8l-.1-.8c-.2.2-.5.4-.8.6-.3.2-.7.3-1.1.3-.2 0-.4 0-.6-.1-.2-.1-.4-.2-.5-.3s-.3-.3-.4-.5-.1-.4-.1-.7c0-.3.1-.6.2-.8s.3-.5.6-.7c.3-.2.7-.4 1.1-.5s1-.3 1.7-.4v-.3c0-.4-.1-.7-.3-.8-.2-.2-.5-.2-.9-.2-.2 0-.4 0-.6.1-.2.1-.3.1-.4.2l-.3.3c-.1.1-.1.2-.2.3l-.8-.3zm3.4 1.5c-1.8.3-2.8.9-2.8 1.7 0 .1 0 .3.1.4s.1.2.2.3c.1.1.2.1.3.2s.2.1.3.1c.1 0 .3 0 .5-.1.2 0 .3-.1.5-.2s.3-.2.5-.3c.1-.1.3-.2.4-.4v-1.7zM134.3 40.6c-.1-.4-.3-.6-.5-.8s-.5-.3-.9-.3c-.5 0-.9.2-1.2.6-.3.4-.4 1-.4 1.7s.1 1.3.4 1.7c.3.4.7.6 1.2.6h.5c.1 0 .3-.1.4-.2.1-.1.2-.2.4-.3.1-.1.2-.3.3-.5l.7.3c-.1.2-.3.5-.4.7-.1.2-.3.3-.5.5l-.6.3c-.2.1-.5.1-.8.1-.4 0-.7-.1-1-.2-.3-.1-.5-.3-.8-.6-.2-.3-.4-.6-.5-1s-.2-.8-.2-1.3.1-.9.2-1.3.3-.7.5-1c.2-.3.5-.5.8-.6.3-.1.6-.2 1-.2.3 0 .6 0 .8.1l.6.3c.2.1.3.3.4.5l.3.6-.7.3zM139.8 40.6c-.1-.4-.3-.6-.5-.8s-.5-.3-.9-.3c-.5 0-.9.2-1.2.6-.3.4-.4 1-.4 1.7s.1 1.3.4 1.7c.3.4.7.6 1.2.6h.5c.1 0 .3-.1.4-.2.1-.1.2-.2.4-.3.1-.1.2-.3.3-.5l.7.3c-.1.2-.3.5-.4.7-.1.2-.3.3-.5.5l-.6.3c-.2.1-.5.1-.8.1-.4 0-.7-.1-1-.2-.3-.1-.5-.3-.8-.6-.2-.3-.4-.6-.5-1s-.2-.8-.2-1.3.1-.9.2-1.3.3-.7.5-1c.2-.3.5-.5.8-.6.3-.1.6-.2 1-.2.3 0 .6 0 .8.1l.6.3c.2.1.3.3.4.5l.3.6-.7.3zM146.3 41.8c0 .4-.1.8-.2 1.2-.1.4-.3.7-.4 1s-.4.5-.7.6c-.3.2-.6.2-1 .2s-.7-.1-1-.2c-.3-.2-.5-.4-.7-.6s-.3-.6-.4-1c-.1-.4-.2-.8-.2-1.2s.1-.8.2-1.2c.1-.4.3-.7.4-1 .2-.3.4-.5.7-.6.3-.2.6-.2 1-.2s.7.1 1 .2c.3.2.5.4.7.6.2.3.3.6.4 1 .1.4.2.8.2 1.2zm-.8 0c0-.8-.1-1.3-.4-1.7-.3-.4-.7-.6-1.2-.6s-.9.2-1.2.6c-.3.4-.4 1-.4 1.7s.1 1.3.4 1.7.7.6 1.2.6.9-.2 1.2-.6c.2-.4.4-1 .4-1.7zM151 44.7v-.8c-.2.3-.5.5-.8.6-.3.2-.6.3-.9.3-.2 0-.4 0-.6-.1s-.4-.2-.5-.3c-.2-.1-.3-.3-.4-.5-.1-.2-.1-.5-.1-.8v-4.2h.8v4.2c0 .4.1.7.3.8.2.1.4.2.7.2.1 0 .3 0 .5-.1s.3-.1.5-.2c.1-.1.3-.2.4-.3l.3-.3v-4.4h.8v5.8h-1zM154.3 38.9v.8c.2-.3.5-.5.8-.6.3-.2.6-.3.9-.3.2 0 .4 0 .6.1.2.1.4.2.5.3s.3.3.4.5.1.5.1.8v4.2h-.8v-4.2c0-.4-.1-.7-.3-.8-.2-.2-.4-.2-.7-.2-.2 0-.3 0-.5.1s-.3.1-.5.2c-.1.1-.3.2-.4.3l-.3.3v4.4h-.8V39h1zM159.7 38.9V37h.8v1.9h1.3v.7h-1.3v4.2c0 .1.1.2.2.3.1.1.3.1.5.1h.7v.7c-.1 0-.2 0-.3.1h-.6c-.4 0-.8-.1-1-.2-.2-.1-.3-.4-.3-.8v-4.3h-1V39h1zM163.9 36.5v1h-.8v-1h.8zm-.8 2.4h.8v5.8h-.8v-5.8zM166.5 38.9v.8c.2-.3.5-.5.8-.6.3-.2.6-.3.9-.3.2 0 .4 0 .6.1.2.1.4.2.5.3s.3.3.4.5.1.5.1.8v4.2h-.8v-4.2c0-.4-.1-.7-.3-.8-.2-.2-.4-.2-.7-.2-.2 0-.3 0-.5.1s-.3.1-.5.2c-.1.1-.3.2-.4.3l-.3.3v4.4h-.8V39h1zM176.2 39.4h-.5c-.2 0-.3.1-.4.1.1.1.2.3.3.5.1.2.1.4.1.7 0 .3-.1.6-.2.8s-.3.5-.5.6c-.2.2-.4.3-.7.4-.3.1-.5.2-.8.2h-.6c-.1 0-.3-.1-.5-.1-.3.1-.5.3-.5.5 0 .1 0 .2.1.3.1.1.2.1.4.1.7 0 1.3 0 1.7.1.5.1.8.2 1.1.3s.5.3.6.5c.1.2.2.5.2.7 0 .2-.1.4-.2.6-.1.2-.3.4-.5.5-.2.1-.5.3-.8.3-.3.1-.7.1-1.2.1-.8 0-1.4-.1-1.9-.3s-.6-.6-.6-1.1c0-.3.1-.5.3-.7.2-.2.4-.3.7-.5-.2-.1-.4-.2-.5-.3-.1-.2-.2-.3-.2-.5 0-.3.1-.4.2-.6s.3-.3.6-.4c-.3-.2-.5-.5-.6-.7-.1-.3-.2-.6-.2-.9 0-.3.1-.6.2-.8.1-.3.3-.5.5-.6s.4-.3.7-.4c.3-.1.6-.1.9-.1.3 0 .6 0 .8.1l.6.3.6-.3c.2-.1.4-.2.7-.2v.8zm-.8 5.9c0-.3-.2-.5-.5-.6-.3-.1-.8-.2-1.5-.2-.3 0-.6 0-.8.1-.2.1-.4.1-.5.2l-.3.3c-.1.1-.1.2-.1.3 0 .1 0 .2.1.3s.1.2.3.2.3.1.6.1c.2 0 .6.1 1 .1.2 0 .5 0 .7-.1.2 0 .4-.1.6-.2s.3-.2.4-.3v-.2zm-.5-4.5c0-.4-.1-.8-.4-1-.2-.3-.6-.4-1.1-.4-.5 0-.8.1-1.1.4s-.4.6-.4 1 .1.7.4 1c.3.3.6.4 1.1.4.2 0 .4 0 .6-.1.2-.1.3-.2.4-.3.1-.1.2-.3.3-.4s.2-.4.2-.6zM182.2 40c.2-.3.5-.6.8-.9s.8-.4 1.4-.4c.2 0 .5 0 .7.1s.5.2.6.3c.2.1.3.3.5.5.1.2.2.5.2.8v3.7c0 .2.1.3.1.5h-.8l-.1-.8c-.2.2-.5.4-.8.6-.3.2-.7.3-1.1.3-.2 0-.4 0-.6-.1-.2-.1-.4-.2-.5-.3s-.3-.3-.4-.5-.1-.4-.1-.7c0-.3.1-.6.2-.8s.3-.5.6-.7c.3-.2.7-.4 1.1-.5s1-.3 1.7-.4v-.3c0-.4-.1-.7-.3-.8-.2-.2-.5-.2-.9-.2-.2 0-.4 0-.6.1-.2.1-.3.1-.4.2l-.3.3c-.1.1-.1.2-.2.3l-.8-.3zm3.4 1.5c-1.8.3-2.8.9-2.8 1.7 0 .1 0 .3.1.4s.1.2.2.3c.1.1.2.1.3.2s.2.1.3.1c.1 0 .3 0 .5-.1.2 0 .3-.1.5-.2s.3-.2.5-.3c.1-.1.3-.2.4-.4v-1.7zM192.3 36.6V44.6h-.7l-.1-.6c-.1.2-.3.3-.6.5-.3.1-.6.2-.9.2-.3 0-.5 0-.8-.1-.3-.1-.5-.3-.8-.5-.2-.2-.4-.5-.6-.9s-.2-.9-.2-1.5.1-1 .2-1.4c.2-.4.3-.7.6-.9.2-.2.5-.4.8-.5s.5-.2.8-.2c.3 0 .5.1.8.2.3.1.5.3.7.5v-2.8h.8zm-.8 3.6c-.2-.2-.5-.4-.7-.6-.3-.2-.5-.2-.8-.2-.2 0-.5 0-.7.1s-.4.2-.5.4c-.2.2-.3.4-.3.7-.1.3-.1.7-.1 1.1 0 .7.1 1.3.4 1.7s.7.6 1.2.6c.3 0 .5-.1.7-.2.2-.1.5-.3.8-.6v-3zM196.2 44.7h-1.1l-1.8-5.8h.8l1.5 4.8 1.5-4.8h.8l-1.7 5.8zM199.9 36.5v1h-.8v-1h.8zm-.8 2.4h.8v5.8h-.8v-5.8zM205.1 40.6c-.1-.4-.3-.6-.5-.8s-.5-.3-.9-.3c-.5 0-.9.2-1.2.6-.3.4-.4 1-.4 1.7s.1 1.3.4 1.7c.3.4.7.6 1.2.6h.5c.1 0 .3-.1.4-.2.1-.1.2-.2.4-.3.1-.1.2-.3.3-.5l.7.3c-.1.2-.3.5-.4.7-.1.2-.3.3-.5.5l-.6.3c-.2.1-.5.1-.8.1-.4 0-.7-.1-1-.2-.3-.1-.5-.3-.8-.6-.2-.3-.4-.6-.5-1s-.2-.8-.2-1.3.1-.9.2-1.3.3-.7.5-1c.2-.3.5-.5.8-.6.3-.1.6-.2 1-.2.3 0 .6 0 .8.1l.6.3c.2.1.3.3.4.5l.3.6-.7.3zM211.6 43.4c-.1.2-.2.3-.3.5-.1.2-.3.3-.4.4l-.6.3c-.2.1-.5.1-.9.1s-.6-.1-.9-.2c-.3-.1-.6-.3-.8-.5-.2-.2-.4-.6-.6-.9-.1-.4-.2-.8-.2-1.4 0-.5.1-.9.2-1.3s.3-.7.5-1c.2-.3.5-.5.8-.6s.6-.2 1-.2c.3 0 .6.1.9.2.3.1.5.3.7.5.2.2.4.5.5.8.1.3.2.7.2 1.2v.5h-3.8c0 .3 0 .6.1.9s.2.5.4.7.3.3.5.4c.2.1.4.2.7.2.4 0 .7-.1.9-.3s.5-.4.7-.7l.4.4zm-1-2.2c0-.5-.1-1-.4-1.3-.2-.3-.6-.5-1-.5-.5 0-.9.2-1.1.5-.3.3-.4.8-.4 1.3h2.9zM218.2 38.9V37h.8v1.9h1.3v.7H219v4.2c0 .1.1.2.2.3.1.1.3.1.5.1h.7v.7c-.1 0-.2 0-.3.1h-.6c-.4 0-.8-.1-1-.2-.2-.1-.3-.4-.3-.8v-4.3h-1V39h1zM225.8 41.8c0 .4-.1.8-.2 1.2-.1.4-.3.7-.4 1s-.4.5-.7.6c-.3.2-.6.2-1 .2s-.7-.1-1-.2c-.3-.2-.5-.4-.7-.6s-.3-.6-.4-1c-.1-.4-.2-.8-.2-1.2s.1-.8.2-1.2c.1-.4.3-.7.4-1 .2-.3.4-.5.7-.6.3-.2.6-.2 1-.2s.7.1 1 .2c.3.2.5.4.7.6.2.3.3.6.4 1 .1.4.2.8.2 1.2zm-.8 0c0-.8-.1-1.3-.4-1.7-.3-.4-.7-.6-1.2-.6s-.9.2-1.2.6c-.3.4-.4 1-.4 1.7s.1 1.3.4 1.7.7.6 1.2.6.9-.2 1.2-.6c.2-.4.4-1 .4-1.7zM232 40c.2-.3.5-.6.8-.9s.8-.4 1.4-.4c.2 0 .5 0 .7.1s.5.2.6.3c.2.1.3.3.5.5.1.2.2.5.2.8v3.7c0 .2.1.3.1.5h-.8l-.1-.8c-.2.2-.5.4-.8.6-.3.2-.7.3-1.1.3-.2 0-.4 0-.6-.1-.2-.1-.4-.2-.5-.3s-.3-.3-.4-.5-.1-.4-.1-.7c0-.3.1-.6.2-.8s.3-.5.6-.7c.3-.2.7-.4 1.1-.5s1-.3 1.7-.4v-.3c0-.4-.1-.7-.3-.8-.2-.2-.5-.2-.9-.2-.2 0-.4 0-.6.1-.2.1-.3.1-.4.2l-.3.3c-.1.1-.1.2-.2.3l-.8-.3zm3.4 1.5c-1.8.3-2.8.9-2.8 1.7 0 .1 0 .3.1.4s.1.2.2.3c.1.1.2.1.3.2s.2.1.3.1c.1 0 .3 0 .5-.1.2 0 .3-.1.5-.2s.3-.2.5-.3c.1-.1.3-.2.4-.4v-1.7zM237.8 43.2c.2.3.4.5.7.7.3.2.6.2 1 .2s.8-.1 1-.3.3-.4.3-.7-.1-.4-.3-.6c-.2-.1-.4-.3-.6-.3-.3-.1-.5-.2-.8-.3-.3-.1-.6-.2-.8-.3-.2-.1-.5-.3-.6-.5-.2-.2-.2-.5-.2-.8 0-.5.2-.9.6-1.2.4-.3.8-.4 1.4-.4.2 0 .4 0 .6.1.2.1.4.1.6.2s.3.2.5.3l.4.4-.6.5c-.2-.3-.5-.5-.7-.6-.2-.1-.5-.2-.8-.2-.3 0-.6.1-.8.2s-.3.4-.3.6c0 .2.1.4.3.5l.6.3c.2.1.5.2.8.3.3.1.6.2.8.3.2.1.5.3.6.5.2.2.3.5.3.9 0 .3-.1.5-.2.7-.1.2-.3.4-.5.5-.2.1-.4.2-.7.3-.2.1-.5.1-.8.1-.5 0-.9-.1-1.3-.3-.4-.2-.8-.5-1-.8l.5-.3zM246.1 40.6c-.1-.4-.3-.6-.5-.8s-.5-.3-.9-.3c-.5 0-.9.2-1.2.6-.3.4-.4 1-.4 1.7s.1 1.3.4 1.7c.3.4.7.6 1.2.6h.5c.1 0 .3-.1.4-.2.1-.1.2-.2.4-.3.1-.1.2-.3.3-.5l.7.3c-.1.2-.3.5-.4.7-.1.2-.3.3-.5.5l-.6.3c-.2.1-.5.1-.8.1-.4 0-.7-.1-1-.2-.3-.1-.5-.3-.8-.6-.2-.3-.4-.6-.5-1s-.2-.8-.2-1.3.1-.9.2-1.3.3-.7.5-1c.2-.3.5-.5.8-.6.3-.1.6-.2 1-.2.3 0 .6 0 .8.1l.6.3c.2.1.3.3.4.5l.3.6-.7.3zM252.6 43.4c-.1.2-.2.3-.3.5-.1.2-.3.3-.4.4l-.6.3c-.2.1-.5.1-.9.1s-.6-.1-.9-.2c-.3-.1-.6-.3-.8-.5-.2-.2-.4-.6-.6-.9-.1-.4-.2-.8-.2-1.4 0-.5.1-.9.2-1.3s.3-.7.5-1c.2-.3.5-.5.8-.6s.6-.2 1-.2c.3 0 .6.1.9.2.3.1.5.3.7.5.2.2.4.5.5.8.1.3.2.7.2 1.2v.5h-3.8c0 .3 0 .6.1.9s.2.5.4.7.3.3.5.4c.2.1.4.2.7.2.4 0 .7-.1.9-.3s.5-.4.7-.7l.4.4zm-1-2.2c0-.5-.1-1-.4-1.3-.2-.3-.6-.5-1-.5-.5 0-.9.2-1.1.5-.3.3-.4.8-.4 1.3h2.9zM253.7 38.9h.8V40c.1-.2.2-.4.3-.5l.4-.4c.1-.1.3-.2.5-.2.2-.1.4-.1.6-.1v.8c-.5 0-.9.2-1.2.5s-.5.8-.7 1.4v3.2h-.8v-5.8zM258 38.9V37h.8v1.9h1.3v.7h-1.3v4.2c0 .1.1.2.2.3.1.1.3.1.5.1h.7v.7c-.1 0-.2 0-.3.1h-.6c-.4 0-.8-.1-1-.2-.2-.1-.3-.4-.3-.8v-4.3h-1V39h1zM261.2 40c.2-.3.5-.6.8-.9s.8-.4 1.4-.4c.2 0 .5 0 .7.1s.5.2.6.3c.2.1.3.3.5.5.1.2.2.5.2.8v3.7c0 .2.1.3.1.5h-.8l-.1-.8c-.2.2-.5.4-.8.6-.3.2-.7.3-1.1.3-.2 0-.4 0-.6-.1-.2-.1-.4-.2-.5-.3s-.3-.3-.4-.5-.1-.4-.1-.7c0-.3.1-.6.2-.8s.3-.5.6-.7c.3-.2.7-.4 1.1-.5s1-.3 1.7-.4v-.3c0-.4-.1-.7-.3-.8-.2-.2-.5-.2-.9-.2-.2 0-.4 0-.6.1-.2.1-.3.1-.4.2l-.3.3c-.1.1-.1.2-.2.3l-.8-.3zm3.4 1.5c-1.8.3-2.8.9-2.8 1.7 0 .1 0 .3.1.4s.1.2.2.3c.1.1.2.1.3.2s.2.1.3.1c.1 0 .3 0 .5-.1.2 0 .3-.1.5-.2s.3-.2.5-.3c.1-.1.3-.2.4-.4v-1.7zM267.9 36.5v1h-.8v-1h.8zm-.8 2.4h.8v5.8h-.8v-5.8zM270.5 38.9v.8c.2-.3.5-.5.8-.6.3-.2.6-.3.9-.3.2 0 .4 0 .6.1.2.1.4.2.5.3s.3.3.4.5.1.5.1.8v4.2h-.8v-4.2c0-.4-.1-.7-.3-.8-.2-.2-.4-.2-.7-.2-.2 0-.3 0-.5.1s-.3.1-.5.2c-.1.1-.3.2-.4.3l-.3.3v4.4h-.8V39h1z"/></g><g><path class="st0" d="M10.8 51l-2.1 6.4c-.1.3-.2.6-.4.8-.1.2-.3.4-.5.5-.2.1-.4.2-.5.3H6.1v-.7h.8c.1 0 .3-.1.4-.2.1-.1.3-.2.4-.4.1-.2.2-.4.3-.8L6 51h1l1.6 4.5L9.9 51h.9zM16 53.9c0 .4-.1.8-.2 1.2-.1.4-.3.7-.4 1s-.4.5-.7.6c-.3.2-.6.2-1 .2s-.7-.1-1-.2c-.3-.2-.5-.4-.7-.6s-.3-.6-.4-1c-.1-.4-.2-.8-.2-1.2s.1-.8.2-1.2c.1-.4.3-.7.4-1 .2-.3.4-.5.7-.6.3-.2.6-.2 1-.2s.7.1 1 .2c.3.2.5.4.7.6.2.3.3.6.4 1 .1.4.2.8.2 1.2zm-.8 0c0-.8-.1-1.3-.4-1.7-.3-.4-.7-.6-1.2-.6s-.9.2-1.2.6c-.3.4-.4 1-.4 1.7s.1 1.3.4 1.7.7.6 1.2.6.9-.2 1.2-.6c.2-.3.4-.9.4-1.7zM20.7 56.8V56c-.2.3-.5.5-.8.6-.3.2-.6.3-.9.3-.2 0-.4 0-.6-.1s-.4-.2-.5-.3c-.2-.1-.3-.3-.4-.5-.1-.2-.1-.5-.1-.8V51h.8v4.2c0 .4.1.7.3.8.2.1.4.2.7.2.1 0 .3 0 .5-.1s.3-.1.5-.2c.1-.1.3-.2.4-.3l.3-.3V51h.8v5.8h-1zM23.1 51h.8v1.2c.1-.2.2-.4.3-.5l.4-.4c.1-.1.3-.2.5-.2.2-.1.4-.1.6-.1v.8c-.5 0-.9.2-1.2.5s-.5.8-.7 1.4v3.2H23V51zM32.1 48.7v2.8c.2-.2.5-.3.7-.5.3-.1.5-.2.8-.2.2 0 .5.1.8.2.3.1.5.3.8.5.2.2.4.5.6.9.2.4.2.9.2 1.4 0 .6-.1 1.1-.2 1.5s-.3.7-.6.9c-.2.2-.5.4-.8.5-.3.1-.6.1-.8.1-.4 0-.7-.1-.9-.2s-.5-.3-.8-.5l-.1.6h-.6c0-.2.1-.4.1-.6V48.7h.8zm0 6.8c.3.3.5.5.8.6.2.1.5.2.7.2.5 0 .9-.2 1.2-.6.3-.4.4-1 .4-1.7 0-.4 0-.8-.1-1.1-.1-.3-.2-.5-.3-.7-.1-.2-.3-.3-.5-.4s-.4-.1-.7-.1c-.2 0-.5.1-.8.2-.3.1-.5.3-.7.6v3zM40.8 56.8V56c-.2.3-.5.5-.8.6-.3.2-.6.3-.9.3-.2 0-.4 0-.6-.1s-.4-.2-.5-.3c-.2-.1-.3-.3-.4-.5-.1-.2-.1-.5-.1-.8V51h.8v4.2c0 .4.1.7.3.8.2.1.4.2.7.2.1 0 .3 0 .5-.1s.3-.1.5-.2c.1-.1.3-.2.4-.3l.3-.3V51h.8v5.8h-1zM43.4 55.4c.2.3.4.5.7.7.3.2.6.2 1 .2s.8-.1 1-.3.3-.4.3-.7-.1-.4-.3-.6c-.2-.1-.4-.3-.6-.3-.3-.1-.5-.2-.8-.3-.3-.1-.6-.2-.8-.3-.2-.1-.5-.3-.6-.5-.2-.2-.2-.5-.2-.8 0-.5.2-.9.6-1.2.4-.3.8-.4 1.4-.4.2 0 .4 0 .6.1.2.1.4.1.6.2s.3.2.5.3l.4.4-.6.5c-.2-.3-.5-.5-.7-.6-.2-.1-.5-.2-.8-.2-.3 0-.6.1-.8.2s-.3.4-.3.6c0 .2.1.4.3.5l.6.3c.2.1.5.2.8.3.3.1.6.2.8.3.2.1.5.3.6.5.2.2.3.5.3.9 0 .3-.1.5-.2.7-.1.2-.3.4-.5.5-.2.1-.4.2-.7.3-.2.1-.5.1-.8.1-.5 0-.9-.1-1.3-.3-.4-.2-.8-.5-1-.8l.5-.3zM49.2 48.6v1h-.8v-1h.8zm-.8 2.4h.8v5.8h-.8V51zM51.8 51v.8c.2-.3.5-.5.8-.6.3-.2.6-.3.9-.3.2 0 .4 0 .6.1.2.1.4.2.5.3s.3.3.4.5.1.5.1.8v4.2h-.8v-4.2c0-.4-.1-.7-.3-.8-.2-.2-.4-.2-.7-.2-.2 0-.3 0-.5.1s-.3.1-.5.2c-.1.1-.3.2-.4.3l-.3.3v4.4H51V51h.8zM61.3 55.6c-.1.2-.2.3-.3.5-.1.2-.3.3-.4.4l-.6.3c-.3.1-.6.2-1 .2s-.6-.1-.9-.2c-.3-.1-.6-.3-.8-.5-.2-.2-.4-.6-.6-.9-.1-.4-.2-.8-.2-1.4 0-.5.1-.9.2-1.3s.3-.7.5-1c.2-.3.5-.5.8-.6s.6-.2 1-.2c.3 0 .6.1.9.2.3.1.5.3.7.5.2.2.4.5.5.8.1.3.2.7.2 1.2v.5h-3.8c0 .3 0 .6.1.9s.2.5.4.7.3.3.5.4c.2.1.4.2.7.2.4 0 .7-.1.9-.3s.5-.4.7-.7l.5.3zm-1-2.2c0-.5-.1-1-.4-1.3-.2-.3-.6-.5-1-.5-.5 0-.9.2-1.1.5-.3.3-.4.8-.4 1.3h2.9zM62.7 55.4c.2.3.4.5.7.7.3.2.6.2 1 .2s.8-.1 1-.3.3-.4.3-.7-.1-.4-.3-.6c-.2-.1-.4-.3-.6-.3-.3-.1-.5-.2-.8-.3-.3-.1-.6-.2-.8-.3-.2-.1-.5-.3-.6-.5-.2-.2-.2-.5-.2-.8 0-.5.2-.9.6-1.2.4-.3.8-.4 1.4-.4.2 0 .4 0 .6.1.2.1.4.1.6.2s.3.2.5.3l.4.4-.6.5c-.2-.3-.5-.5-.7-.6-.2-.1-.5-.2-.8-.2-.3 0-.6.1-.8.2s-.6.4-.6.7c0 .2.1.4.3.5l.6.3c.2.1.5.2.8.3.3.1.6.2.8.3.2.1.5.3.6.5.2.2.3.5.3.9 0 .3-.1.5-.2.7-.1.2-.3.4-.5.5-.2.1-.4.2-.7.3-.2.1-.5.1-.8.1-.5 0-.9-.1-1.3-.3-.4-.2-.8-.5-1-.8l.8-.4zM67.8 55.4c.2.3.4.5.7.7.3.2.6.2 1 .2s.8-.1 1-.3.3-.4.3-.7-.1-.4-.3-.6c-.2-.1-.4-.3-.6-.3-.3-.1-.5-.2-.8-.3-.3-.1-.6-.2-.8-.3-.2-.1-.5-.3-.6-.5-.2-.2-.2-.5-.2-.8 0-.5.2-.9.6-1.2.4-.3.8-.4 1.4-.4.2 0 .4 0 .6.1.2.1.4.1.6.2s.3.2.5.3l.4.4-.6.5c-.2-.3-.5-.5-.7-.6-.2-.1-.5-.2-.8-.2-.3 0-.6.1-.8.2s-.3.4-.3.6c0 .2.1.4.3.5l.6.3c.2.1.5.2.8.3.3.1.6.2.8.3.2.1.5.3.6.5.2.2.3.5.3.9 0 .3-.1.5-.2.7-.1.2-.3.4-.5.5-.2.1-.4.2-.7.3-.4.2-.7.3-.9.3-.5 0-.9-.1-1.3-.3-.4-.2-.8-.5-1-.8l.6-.5zM73.7 50l-.7 1.6h-.5L73 50h-.4v-1.2h1.1V50zM84.2 55.6c-.1.2-.2.3-.3.5-.1.2-.3.3-.4.4l-.6.3c-.2.1-.5.1-.9.1s-.6-.1-.9-.2c-.3-.1-.6-.3-.8-.5-.2-.2-.4-.6-.6-.9-.1-.4-.2-.8-.2-1.4 0-.5.1-.9.2-1.3s.3-.7.5-1c.2-.3.5-.5.8-.6s.6-.2 1-.2c.3 0 .6.1.9.2.3.1.5.3.7.5.2.2.4.5.5.8.1.3.2.7.2 1.2v.5h-3.8c0 .3 0 .6.1.9s.2.5.4.7.3.3.5.4c.2.1.4.2.7.2.4 0 .7-.1.9-.3s.5-.4.7-.7l.4.4zm-1-2.2c0-.5-.1-1-.4-1.3-.2-.3-.6-.5-1-.5-.5 0-.9.2-1.1.5-.3.3-.4.8-.4 1.3h2.9zM86.3 48.7v8.1h-.8v-8.1h.8zM88.9 48.6v1h-.8v-1h.8zm-.8 2.4h.8v5.8h-.8V51zM95.3 51.6h-.5c-.2 0-.3.1-.4.1.1.1.2.3.3.5.1.2.1.4.1.7 0 .3-.1.6-.2.8s-.3.5-.5.6c-.2.2-.4.3-.7.4-.2.2-.4.3-.7.3h-.6c-.1 0-.3-.1-.5-.1-.3.1-.5.3-.5.5 0 .1 0 .2.1.3.1.1.2.1.4.1.7 0 1.3 0 1.7.1.5.1.8.2 1.1.3s.5.3.6.5c.1.2.2.5.2.7 0 .2-.1.4-.2.6-.1.2-.3.4-.5.5-.2.1-.5.3-.8.3-.2.2-.6.2-1.1.2-.8 0-1.4-.1-1.9-.3s-.6-.6-.6-1.1c0-.3.1-.5.3-.7.2-.2.4-.3.7-.5-.2-.1-.4-.2-.5-.3-.1-.2-.2-.3-.2-.5 0-.3.1-.4.2-.6s.3-.3.6-.4c-.3-.2-.5-.5-.6-.7-.1-.3-.2-.6-.2-.9 0-.3.1-.6.2-.8.1-.3.3-.5.5-.6s.4-.3.7-.4c.3-.1.6-.1.9-.1.3 0 .6 0 .8.1l.6.3.6-.3c.2-.1.4-.2.7-.2v.6zm-.8 5.9c0-.3-.2-.5-.5-.6-.3-.1-.8-.2-1.5-.2-.3 0-.6 0-.8.1-.2.1-.4.1-.5.2-.1 0-.2.1-.2.2-.1.1-.1.2-.1.3 0 .1 0 .2.1.3s.1.2.3.2.3.1.6.1c.2 0 .6.1 1 .1.2 0 .5 0 .7-.1.2 0 .4-.1.6-.2s.3-.2.4-.3c-.1.1-.1 0-.1-.1zM94 53c0-.4-.1-.8-.4-1-.2-.3-.6-.4-1.1-.4-.5 0-.8.1-1.1.4s-.4.6-.4 1 .1.7.4 1c.3.3.6.4 1.1.4.2 0 .4 0 .6-.1.2-.1.3-.2.4-.3.1-.1.2-.3.3-.4s.2-.4.2-.6zM97.2 48.6v1h-.8v-1h.8zm-.8 2.4h.8v5.8h-.8V51zM99.8 48.7v2.8c.2-.2.5-.3.7-.5.3-.1.5-.2.8-.2.2 0 .5.1.8.2.3.1.5.3.8.5.2.2.4.5.6.9.2.4.2.9.2 1.4 0 .6-.1 1.1-.2 1.5s-.3.7-.6.9c-.2.2-.5.4-.8.5-.3.1-.6.1-.8.1-.4 0-.7-.1-.9-.2s-.5-.3-.8-.5l-.1.6H99c0-.2.1-.4.1-.6V48.7h.7zm0 6.8c.3.3.5.5.8.6.2.1.5.2.7.2.5 0 .9-.2 1.2-.6.3-.4.4-1 .4-1.7 0-.4 0-.8-.1-1.1-.1-.3-.2-.5-.3-.7-.1-.2-.3-.3-.5-.4s-.4-.1-.7-.1c-.2 0-.5.1-.8.2-.3.1-.5.3-.7.6v3zM106 48.6v1h-.8v-1h.8zm-.8 2.4h.8v5.8h-.8V51zM108.7 48.7v8.1h-.8v-8.1h.8zM111.3 48.6v1h-.8v-1h.8zm-.8 2.4h.8v5.8h-.8V51zM113.4 51v-1.9h.8V51h1.3v.7h-1.3v4.2c0 .1.1.2.2.3.1.1.3.1.5.1h.7v.7c-.1 0-.2 0-.3.1h-.6c-.4 0-.8-.1-1-.2-.2-.1-.3-.4-.3-.8v-4.3h-1V51h1zM121 51l-2.1 6.4c-.1.3-.2.6-.4.8-.1.2-.3.4-.5.5-.2.1-.4.2-.5.3-.2 0-.4.1-.6.1h-.6v-.7h.8c.1 0 .3-.1.4-.2.1-.1.3-.2.4-.4.1-.2.2-.4.3-.8l-2-5.9h.9l1.6 4.5 1.4-4.5h.9zM126.7 56.8v-5.1h-1V51h1v-.7c0-.3 0-.6.1-.8.1-.2.1-.4.3-.5.1-.1.3-.2.4-.3.2 0 .4-.1.6-.1h.8v.7c-.1 0-.2 0-.3-.1s-.2 0-.3 0c-.3 0-.5.1-.6.2s-.2.3-.2.7v.9h1.3v.7h-1.3v5.1h-.8zM134.2 53.9c0 .4-.1.8-.2 1.2-.1.4-.3.7-.4 1s-.4.5-.7.6c-.3.2-.6.2-1 .2s-.7-.1-1-.2c-.3-.2-.5-.4-.7-.6s-.3-.6-.4-1c-.1-.4-.2-.8-.2-1.2s.1-.8.2-1.2c.1-.4.3-.7.4-1 .2-.3.4-.5.7-.6.3-.2.6-.2 1-.2s.7.1 1 .2c.3.2.5.4.7.6.2.3.3.6.4 1 .1.4.2.8.2 1.2zm-.8 0c0-.8-.1-1.3-.4-1.7-.3-.4-.7-.6-1.2-.6s-.9.2-1.2.6c-.3.4-.4 1-.4 1.7s.1 1.3.4 1.7.7.6 1.2.6.9-.2 1.2-.6c.2-.3.4-.9.4-1.7zM135.3 51h.8v1.2c.1-.2.2-.4.3-.5l.4-.4c.1-.1.3-.2.5-.2.2-.1.4-.1.6-.1v.8c-.5 0-.9.2-1.2.5s-.5.8-.7 1.4v3.2h-.8V51zM143.7 51v-1.9h.8V51h1.3v.7h-1.3v4.2c0 .1.1.2.2.3.1.1.3.1.5.1h.7v.7c-.1 0-.2 0-.3.1h-.6c-.4 0-.8-.1-1-.2-.2-.1-.3-.4-.3-.8v-4.3h-1V51h1zM147.9 48.7v3.1c.2-.3.5-.5.8-.6.3-.2.6-.3.9-.3.2 0 .4 0 .6.1.2.1.4.2.5.3s.3.3.4.5.1.5.1.8v4.2h-.8v-4.2c0-.4-.1-.7-.3-.8-.2-.2-.4-.2-.7-.2-.2 0-.3 0-.5.1s-.3.1-.5.2c-.1.1-.3.2-.4.3l-.3.3v4.4h-.8v-8.1h1zM157.4 55.6c-.1.2-.2.3-.3.5-.1.2-.3.3-.4.4l-.6.3c-.2.1-.5.1-.9.1s-.6-.1-.9-.2c-.3-.1-.6-.3-.8-.5-.2-.2-.4-.6-.6-.9-.1-.4-.2-.8-.2-1.4 0-.5.1-.9.2-1.3s.3-.7.5-1c.2-.3.5-.5.8-.6s.6-.2 1-.2c.3 0 .6.1.9.2.3.1.5.3.7.5.2.2.4.5.5.8.1.3.2.7.2 1.2v.5h-3.8c0 .3 0 .6.1.9s.2.5.4.7.3.3.5.4c.2.1.4.2.7.2.4 0 .7-.1.9-.3s.5-.4.7-.7l.4.4zm-1-2.2c0-.5-.1-1-.4-1.3-.2-.3-.6-.5-1-.5-.5 0-.9.2-1.1.5-.3.3-.4.8-.4 1.3h2.9zM164.4 48.7v8.1h-.9v-8.1h.9zM167.2 51v.8c.2-.3.5-.5.8-.6.3-.2.6-.3.9-.3.2 0 .4 0 .6.1.2.1.4.2.5.3s.3.3.4.5.1.5.1.8v4.2h-.8v-4.2c0-.4-.1-.7-.3-.8-.2-.2-.4-.2-.7-.2-.2 0-.3 0-.5.1s-.3.1-.5.2c-.1.1-.3.2-.4.3l-.3.3v4.4h-.8V51h1zM172.4 55.4c.2.3.4.5.7.7.3.2.6.2 1 .2s.8-.1 1-.3.3-.4.3-.7-.1-.4-.3-.6c-.2-.1-.4-.3-.6-.3-.3-.1-.5-.2-.8-.3-.3-.1-.6-.2-.8-.3-.2-.1-.5-.3-.6-.5-.2-.2-.2-.5-.2-.8 0-.5.2-.9.6-1.2.4-.3.8-.4 1.4-.4.2 0 .4 0 .6.1.2.1.4.1.6.2s.3.2.5.3l.4.4-.6.5c-.2-.3-.5-.5-.7-.6-.2-.1-.5-.2-.8-.2-.3 0-.6.1-.8.2s-.3.4-.3.6c0 .2.1.4.3.5l.6.3c.2.1.5.2.8.3.3.1.6.2.8.3.2.1.5.3.6.5.2.2.3.5.3.9 0 .3-.1.5-.2.7-.1.2-.3.4-.5.5-.2.1-.4.2-.7.3-.2.1-.5.1-.8.1-.5 0-.9-.1-1.3-.3-.4-.2-.8-.5-1-.8l.5-.3zM177.6 51v-1.9h.8V51h1.3v.7h-1.3v4.2c0 .1.1.2.2.3.1.1.3.1.5.1h.7v.7c-.1 0-.2 0-.3.1h-.6c-.4 0-.8-.1-1-.2-.2-.1-.3-.4-.3-.8v-4.3h-1V51h1zM180.8 52.1c.2-.3.5-.6.8-.9s.8-.4 1.4-.4c.2 0 .5 0 .7.1s.5.2.6.3c.2.1.3.3.5.5.1.2.2.5.2.8v3.7c0 .2.1.3.1.5h-.8l-.1-.8c-.2.2-.5.4-.8.6-.3.2-.7.3-1.1.3-.2 0-.4 0-.6-.1-.2-.1-.4-.2-.5-.3s-.3-.3-.4-.5-.1-.4-.1-.7c0-.3.1-.6.2-.8s.3-.5.6-.7c.3-.2.7-.4 1.1-.5s1-.3 1.7-.4v-.3c0-.4-.1-.7-.3-.8-.2-.2-.5-.2-.9-.2-.2 0-.4 0-.6.1-.2.1-.3.1-.4.2l-.3.3c-.1.1-.1.2-.2.3l-.8-.3zm3.4 1.6c-1.8.3-2.8.9-2.8 1.7 0 .1 0 .3.1.4s.1.2.2.3c.1.1.2.1.3.2s.2.1.3.1c.1 0 .3 0 .5-.1.2 0 .3-.1.5-.2s.3-.2.5-.3c.1-.1.3-.2.4-.4v-1.7zM187.4 51v.8c.2-.3.5-.5.8-.6.3-.2.6-.3.9-.3.2 0 .4 0 .6.1.2.1.4.2.5.3s.3.3.4.5.1.5.1.8v4.2h-.7v-4.2c0-.4-.1-.7-.3-.8-.2-.2-.4-.2-.7-.2-.2 0-.3 0-.5.1s-.3.1-.5.2c-.1.1-.3.2-.4.3l-.3.3v4.4h-.8V51h.9zM192.8 51v-1.9h.8V51h1.3v.7h-1.3v4.2c0 .1.1.2.2.3.1.1.3.1.5.1h.7v.7c-.1 0-.2 0-.3.1h-.6c-.4 0-.8-.1-1-.2-.2-.1-.3-.4-.3-.8v-4.3h-1V51h1zM199.9 56.8l2.5-8.1h1.3l2.5 8.1h-.9l-.8-2.5h-2.9l-.8 2.5h-.9zm1.9-3.3h2.5l-1.2-4.2h-.1l-1.2 4.2zM207.5 55.4c.2.3.4.5.7.7.3.2.6.2 1 .2s.8-.1 1-.3.3-.4.3-.7-.1-.4-.3-.6c-.2-.1-.4-.3-.6-.3-.3-.1-.5-.2-.8-.3-.3-.1-.6-.2-.8-.3-.2-.1-.5-.3-.6-.5-.2-.2-.2-.5-.2-.8 0-.5.2-.9.6-1.2.4-.3.8-.4 1.4-.4.2 0 .4 0 .6.1.2.1.4.1.6.2s.3.2.5.3l.4.4-.6.5c-.2-.3-.5-.5-.7-.6-.2-.1-.5-.2-.8-.2-.3 0-.6.1-.8.2s-.3.4-.3.6c0 .2.1.4.3.5l.6.3c.2.1.5.2.8.3.3.1.6.2.8.3.2.1.5.3.6.5.2.2.3.5.3.9 0 .3-.1.5-.2.7-.1.2-.3.4-.5.5-.2.1-.4.2-.7.3-.2.1-.5.1-.8.1-.5 0-.9-.1-1.3-.3-.4-.2-.8-.5-1-.8l.5-.3zM212.6 55.4c.2.3.4.5.7.7.3.2.6.2 1 .2s.8-.1 1-.3.3-.4.3-.7-.1-.4-.3-.6c-.2-.1-.4-.3-.6-.3-.3-.1-.5-.2-.8-.3-.3-.1-.6-.2-.8-.3-.2-.1-.5-.3-.6-.5-.2-.2-.2-.5-.2-.8 0-.5.2-.9.6-1.2.4-.3.8-.4 1.4-.4.2 0 .4 0 .6.1.2.1.4.1.6.2s.3.2.5.3l.4.4-.6.5c-.2-.3-.5-.5-.7-.6-.2-.1-.5-.2-.8-.2-.3 0-.6.1-.8.2s-.3.4-.3.6c0 .2.1.4.3.5l.6.3c.2.1.5.2.8.3.3.1.6.2.8.3.2.1.5.3.6.5.2.2.3.5.3.9 0 .3-.1.5-.2.7-.1.2-.3.4-.5.5-.2.1-.4.2-.7.3-.2.1-.5.1-.8.1-.5 0-.9-.1-1.3-.3-.4-.2-.8-.5-1-.8l.5-.3zM222 55.6c-.1.2-.2.3-.3.5-.1.2-.3.3-.4.4l-.6.3c-.2.1-.5.1-.9.1s-.6-.1-.9-.2c-.3-.1-.6-.3-.8-.5-.2-.2-.4-.6-.6-.9-.1-.4-.2-.8-.2-1.4 0-.5.1-.9.2-1.3s.3-.7.5-1c.2-.3.5-.5.8-.6s.6-.2 1-.2c.3 0 .6.1.9.2.3.1.5.3.7.5.2.2.4.5.5.8.1.3.2.7.2 1.2v.5H218c0 .3 0 .6.1.9s.2.5.4.7.3.3.5.4c.2.1.4.2.7.2.4 0 .7-.1.9-.3s.5-.4.7-.7l.7.4zm-1-2.2c0-.5-.1-1-.4-1.3-.2-.3-.6-.5-1-.5-.5 0-.9.2-1.1.5-.3.3-.4.8-.4 1.3h2.9zM223.4 51v-1.9h.8V51h1.3v.7h-1.3v4.2c0 .1.1.2.2.3.1.1.3.1.5.1h.7v.7c-.1 0-.2 0-.3.1h-.6c-.4 0-.8-.1-1-.2-.2-.1-.3-.4-.3-.8v-4.3h-1V51h1zM230.6 48.7h.9l1.5 6.5 1.6-6.5h.8l1.6 6.5 1.5-6.5h.9l-1.9 8.1h-.8l-1.7-6.6-1.6 6.6h-.8l-2-8.1zM240.1 51h.8v1.2c.1-.2.2-.4.3-.5l.4-.4c.1-.1.3-.2.5-.2.2-.1.4-.1.6-.1v.8c-.5 0-.9.2-1.2.5s-.5.8-.7 1.4v3.2h-.8V51zM244.8 48.6v1h-.8v-1h.8zM244 51h.8v5.8h-.8V51zM246.9 51v-1.9h.8V51h1.3v.7h-1.3v4.2c0 .1.1.2.2.3.1.1.3.1.5.1h.7v.7c-.1 0-.2 0-.3.1h-.6c-.4 0-.8-.1-1-.2-.2-.1-.3-.4-.3-.8v-4.3h-1V51h1zM254.5 55.6c-.1.2-.2.3-.3.5-.1.2-.3.3-.4.4l-.6.3c-.2.1-.5.1-.9.1s-.6-.1-.9-.2c-.3-.1-.6-.3-.8-.5-.2-.2-.4-.6-.6-.9-.1-.4-.2-.8-.2-1.4 0-.5.1-.9.2-1.3s.3-.7.5-1c.2-.3.5-.5.8-.6s.6-.2 1-.2c.3 0 .6.1.9.2.3.1.5.3.7.5.2.2.4.5.5.8.1.3.2.7.2 1.2v.5h-3.8c0 .3 0 .6.1.9s.2.5.4.7.3.3.5.4c.2.1.4.2.7.2.4 0 .7-.1.9-.3s.5-.4.7-.7l.4.4zm-1-2.2c0-.5-.1-1-.4-1.3-.2-.3-.6-.5-1-.5-.5 0-.9.2-1.1.5-.3.3-.4.8-.4 1.3h2.9zM255.4 54.3v-.7h2.8v.7h-2.8zM264.2 53.9c0 .4-.1.8-.2 1.2-.1.4-.3.7-.4 1s-.4.5-.7.6c-.3.2-.6.2-1 .2s-.7-.1-1-.2c-.3-.2-.5-.4-.7-.6s-.3-.6-.4-1c-.1-.4-.2-.8-.2-1.2s.1-.8.2-1.2c.1-.4.3-.7.4-1 .2-.3.4-.5.7-.6.3-.2.6-.2 1-.2s.7.1 1 .2c.3.2.5.4.7.6.2.3.3.6.4 1 .1.4.2.8.2 1.2zm-.8 0c0-.8-.1-1.3-.4-1.7-.3-.4-.7-.6-1.2-.6s-.9.2-1.2.6c-.3.4-.4 1-.4 1.7s.1 1.3.4 1.7.7.6 1.2.6.9-.2 1.2-.6c.2-.3.4-.9.4-1.7zM265.7 56.8v-5.1h-1V51h1v-.7c0-.3 0-.6.1-.8.1-.2.1-.4.3-.5.1-.1.3-.2.4-.3.2 0 .4-.1.6-.1h.8v.7c-.1 0-.2 0-.3-.1s-.2 0-.3 0c-.3 0-.5.1-.6.2s-.2.3-.2.7v.9h1.3v.7h-1.3v5.1h-.8zM269.6 56.8v-5.1h-1V51h1v-.7c0-.3 0-.6.1-.8.1-.2.1-.4.3-.5.1-.1.3-.2.4-.3.2 0 .4-.1.6-.1h.8v.7c-.1 0-.2 0-.3-.1s-.2 0-.3 0c-.3 0-.5.1-.6.2s-.2.3-.2.7v.9h1.3v.7h-1.3v5.1h-.8zM273.6 55.6v1.2h-1.1v-1.2h1.1z"/></g></svg>