<svg xmlns="http://www.w3.org/2000/svg" viewBox="0 0 300 250"><defs><clipPath id="a"><path fill="none" d="M-32768-32517h65535v65535h-65535z"/></clipPath></defs><g clip-path="url(#a)" opacity=".8"><path d="M94.88 38.625L16.701 61.042a4.72 4.72 0 01-5.822-3.227L5.04 37.453l-.02-.075-.585-2.036-.029-.1-.058-.202-.064-.226-.073-.25a4.744 4.744 0 01-.019-1.492 1.233 1.233 0 01.054-.288 2.845 2.845 0 01.071-.319.568.568 0 01.065-.155c.028-.09.057-.18.068-.237a2.663 2.663 0 01.147-.34l.09-.163a1.232 1.232 0 01.125-.227l.036-.064a5.386 5.386 0 011.02-1.19c.042-.04.067-.047.11-.087l.025-.007c.137-.093.248-.18.384-.273l.068-.047a4.547 4.547 0 011.088-.475l1.936-.555a.86.86 0 01.26-.047c.074-.022.167-.076.243-.097l8.723-2.5a2.647 2.647 0 011.901-2.859L72.968 8.127a2.667 2.667 0 013.126 1.416l11.388-3.265a5.102 5.102 0 01.617-.123c.051-.014.108-.003.16-.018.074-.02.131-.01.207-.032a4.75 4.75 0 014.838 3.4l6.538 22.8a4.644 4.644 0 01.177 1.473c-.01.057.004.108-.007.165a.388.388 0 00-.007.165 4.776 4.776 0 01-.935 2.336c-.018.033-.06.072-.079.104a4.513 4.513 0 01-1.152 1.011.284.284 0 01-.119.061 1.624 1.624 0 01-.16.101 2.441 2.441 0 01-.583.248l-2.11.606z" fill="#fff"/></g><path d="M70.252 11.273a.151.151 0 00-.108.194l.217.754a.15.15 0 00.194.108l1.181-.339 1.182 4.123a.15.15 0 00.194.107l.755-.216a.15.15 0 00.107-.194l-1.182-4.122 1.181-.339a.15.15 0 00.108-.194l-.216-.754a.15.15 0 00-.194-.108zm-3.771 1.082a.15.15 0 00-.107.194l1.449 5.052a.15.15 0 00.194.108l2.79-.8a.152.152 0 00.108-.194l-.217-.754a.15.15 0 00-.194-.108l-1.885.541-.31-1.081 1.332-.382a.151.151 0 00.108-.194l-.216-.755a.151.151 0 00-.195-.107l-1.332.382-.317-1.106 1.885-.541a.15.15 0 00.108-.194l-.216-.754a.151.151 0 00-.194-.108zm-3.921 1.124c-.05.014-.068.047-.111.086l-.234.421a.201.201 0 00-.014.14l.635 2.212c.014.05.046.068.086.111l.42.233a.202.202 0 00.14.015l1.484-.426a.279.279 0 01.14.015l.032.018a.193.193 0 01.086.111l.209.729c.015.05-.003.082-.014.14l-.018.032a.2.2 0 01-.111.087l-.729.209a.278.278 0 01-.14-.015l-.033-.018a.204.204 0 01-.086-.111l-.058-.201a.15.15 0 00-.194-.108l-.754.217a.15.15 0 00-.107.194l.274.955c.014.05.046.068.086.111l.42.233a.204.204 0 00.141.015l2.212-.635c.05-.014.068-.046.111-.086l.233-.421a.195.195 0 00.014-.14l-.634-2.212c-.014-.05-.047-.068-.086-.111l-.421-.233a.196.196 0 00-.14-.014l-1.483.425a.288.288 0 01-.14-.014l-.033-.018a.203.203 0 01-.086-.112l-.209-.729a.29.29 0 01.014-.14l.018-.032a.199.199 0 01.112-.086l.729-.209c.05-.015.082.003.14.014l.032.018a.2.2 0 01.086.111l.058.201a.151.151 0 00.194.108l.754-.216a.152.152 0 00.108-.195l-.274-.955c-.015-.05-.047-.068-.086-.111l-.428-.258a.197.197 0 00-.14-.014l-2.212.634zm-4.274 1.225c-.05.015-.068.047-.111.087l-.233.42a.197.197 0 00-.014.14l.634 2.212c.014.051.047.069.086.112l.421.233a.201.201 0 00.14.014l1.483-.425a.266.266 0 01.14.014l.033.018a.204.204 0 01.086.111l.209.729a.288.288 0 01-.014.14l-.018.033a.199.199 0 01-.112.086l-.729.209a.29.29 0 01-.14-.014l-.032-.018a.2.2 0 01-.086-.111l-.058-.202a.15.15 0 00-.194-.107l-.754.216a.151.151 0 00-.108.194l.274.955c.015.051.047.069.086.112l.421.233a.201.201 0 00.14.014l2.212-.634c.051-.015.068-.047.112-.087l.233-.42a.201.201 0 00.014-.14l-.634-2.212c-.015-.051-.047-.069-.087-.112l-.42-.233a.202.202 0 00-.14-.014l-1.484.425c-.05.015-.082-.003-.14-.014l-.032-.018a.2.2 0 01-.086-.111l-.209-.729a.266.266 0 01.014-.14l.018-.033a.204.204 0 01.111-.086l.729-.209a.288.288 0 01.14.014l.033.018a.203.203 0 01.086.112l.058.201a.15.15 0 00.194.107l.754-.216a.15.15 0 00.107-.194l-.274-.955c-.014-.051-.046-.069-.086-.112l-.428-.258a.195.195 0 00-.14-.014l-2.212.634zm-2.77 2.672c.054.093.115.212.169.305l.683 1.056-.854.245.02-1.258a.902.902 0 00-.018-.348m-.9-1.619a.166.166 0 00-.115.169l-.059 5.485a.167.167 0 00.208.158l.729-.209a.166.166 0 00.115-.169l.028-1.042 1.508-.432.551.875a.164.164 0 00.187.083l.729-.209a.15.15 0 00.107-.194l-.014-.05-2.957-4.621a.166.166 0 00-.187-.082zm-8.195 2.35a.15.15 0 00-.107.194l.216.754a.15.15 0 00.194.107l1.182-.338 1.182 4.122a.15.15 0 00.194.108l.754-.216a.151.151 0 00.107-.195l-1.182-4.122 1.182-.339a.15.15 0 00.107-.194l-.216-.754a.151.151 0 00-.194-.108zm-1.785.511a.15.15 0 00-.107.194l.887 3.092c-.08-.086-.141-.204-.213-.265l-2.222-2.437a.176.176 0 00-.18-.057l-.804.23a.151.151 0 00-.108.194l1.449 5.053a.151.151 0 00.194.108l.754-.217a.15.15 0 00.108-.194l-.887-3.092c.08.086.141.205.213.266l2.222 2.437a.176.176 0 00.18.057l.804-.23a.152.152 0 00.108-.195l-1.449-5.052a.151.151 0 00-.194-.108zm-5.108 3.342c.054.094.115.212.169.305l.684 1.056-.855.245.02-1.257c-.01-.133-.014-.241-.018-.349m-.925-1.612a.166.166 0 00-.114.169l-.06 5.485a.168.168 0 00.209.158l.729-.209a.164.164 0 00.114-.169l.028-1.041 1.508-.433.551.876a.167.167 0 00.187.083l.729-.21a.15.15 0 00.107-.194l-.014-.05-2.957-4.62a.168.168 0 00-.187-.083zm-5.002 1.435a.15.15 0 00-.108.194l.217.754a.15.15 0 00.194.108l1.181-.339 1.182 4.122a.15.15 0 00.194.108l.755-.216a.15.15 0 00.107-.194l-1.182-4.123 1.181-.339a.15.15 0 00.108-.194l-.216-.754a.151.151 0 00-.194-.108zm-3.595 1.031c-.05.014-.068.046-.111.086l-.233.42a.197.197 0 00-.014.14l.634 2.213c.014.05.047.068.086.111l.421.233a.196.196 0 00.14.014l1.483-.425a.266.266 0 01.14.014l.032.018a.2.2 0 01.087.111l.209.729a.287.287 0 01-.014.14l-.018.033a.199.199 0 01-.112.086l-.729.209c-.05.015-.082-.003-.14-.014l-.032-.018a.2.2 0 01-.086-.111l-.058-.201a.15.15 0 00-.194-.108l-.754.216a.151.151 0 00-.108.194l.274.956c.015.05.047.068.086.111l.421.233a.196.196 0 00.14.014l2.212-.634c.05-.015.068-.047.111-.086l.234-.421a.207.207 0 00.014-.14l-.635-2.212c-.014-.05-.046-.068-.086-.111l-.42-.234a.208.208 0 00-.14-.014l-1.484.425c-.05.015-.082-.003-.14-.014l-.032-.018a.2.2 0 01-.086-.111l-.209-.729a.266.266 0 01.014-.14l.018-.032a.2.2 0 01.111-.087l.729-.209a.289.289 0 01.14.014l.032.018a.2.2 0 01.087.112l.057.201a.151.151 0 00.195.107l.754-.216a.15.15 0 00.107-.194l-.274-.955c-.014-.05-.046-.068-.086-.111l-.42-.234a.21.21 0 00-.141-.014zm-2.488.713a.15.15 0 00-.108.194l.887 3.092c-.079-.086-.141-.204-.213-.265l-2.254-2.455a.179.179 0 00-.18-.058l-.804.231a.151.151 0 00-.108.194l1.449 5.053a.15.15 0 00.194.107l.754-.216a.15.15 0 00.108-.194l-.88-3.067c.08.086.141.205.213.266l2.222 2.437a.176.176 0 00.18.057l.804-.231a.15.15 0 00.108-.194l-1.449-5.052a.15.15 0 00-.194-.108zm-5.883 1.687a.15.15 0 00-.107.194l.216.754a.151.151 0 00.194.108l.377-.108.923 3.217-.377.108a.151.151 0 00-.108.194l.216.755a.15.15 0 00.194.107l1.836-.526a.15.15 0 00.107-.194l-.216-.754a.15.15 0 00-.194-.108l-.377.108-.923-3.217.377-.109a.15.15 0 00.108-.194l-.216-.754a.151.151 0 00-.195-.107zm66.71-6.723c-.054-.094-.119-.13-.173-.223-.025.007-1.298-1.586-1.298-1.586l-.126-.155-.09-.028-.527.151-.036.065-.011.057.007.025-.014.14c-.107.766-.182 1.549-.289 2.314l-.014.14-.004.083.015.05.065.036.057.01.578-.165.061-.072.032-.173c.029-.47.1-.98.136-1.426l.028-.09.018-.032.025-.007.065.036.173.222c.212.266.449.524.636.797l.18.248.072.061.09.028.125-.036c.133-.011.295-.111.428-.122l.068-.047.018-.032-.015-.051-.039-.043zm-3.927-.888l-.093-.136-.13-.072-.165-.007-.485.112c-.711.177-1.44.386-2.162.62-.969.414-2.115.498-3.077.937l-.058-.011-.226.065-.129.119-.025.388a12.575 12.575 0 01.598 1.896c.115.402.206.811.321 1.214.198.786 2.26 7.975 2.941 10.256l.018.158.194.488.137.097.14.014.334-.068a11.072 11.072 0 011.559-.447l.337-.151.101-.22-.004-.107-.26-.905c-.464-1.527-.804-3.089-1.344-4.593l-.051-.367.054-.097c.018-.032.011-.057.061-.072.043-.039.101-.028.151-.043.352-.101.761-.191 1.081-.31.075-.021.787-.198.787-.198l.326-.094.112-.086.086-.079.046-.122-.003-.108-.202-.704c.014-.14-.101-.352-.094-.517a3.005 3.005 0 01-.238-.639l-.072-.061-.097-.054-.14-.014-.176.05c-.696.227-1.458.418-2.169.595l-.1.029c-.051.014-.087.079-.151.043-.033-.018-.033-.018-.04-.043l-.032-.018-.051-.366c-.292-.923-.555-1.936-.879-2.877l.018-.223.054-.097.326-.093.043-.04.553-.159c.442-.072 1.484-.425 1.9-.49a5.077 5.077 0 01.596-.198l.165-.183.007-.166.011-.057a8.362 8.362 0 00-.404-1.789zM71.816 27.637c.559 2.425 1.56 5.348 2.17 7.757l.194.489.137.096.14.015.334-.069c.093-.054.33-.176.452-.13a8.51 8.51 0 011.106-.317l.338-.151.1-.219-.004-.108-.259-.905c-.465-1.526-.811-3.113-1.344-4.593l-.051-.366.144-.259.007.025c.014.05.409-.09.459-.104.65-.105 1.218-.404 1.875-.484l.111-.086.086-.079.047-.122-.004-.108a6.69 6.69 0 01-.295-1.221.952.952 0 00-.184-.355c-.022-.076-.043-.342-.133-.37l-.097-.054-.14-.014-.176.05c-.162.101-1.038.271-1.257.361-.058-.011-.28-.029-.162.1.004.108-.039-.043-.072-.061a1.056 1.056 0 01-.477.137l-.327.094c-.259.047-.191-.19-.273-.384-.166-.388-.228-.887-.393-1.275-.108-.187-.112-.675-.263-.822l-.224-.78.018-.222.054-.097.327-.094c.664-.245 1.774-.454 2.438-.699a1.737 1.737 0 00.359-.076c.043-.04.032-.172.111-.086l.159-.018.165-.184.007-.165.01-.058-.187-.653.036-.065-.151-.337-.217-.754-.093-.137-.13-.072-.165-.007-.485.112c-1.677.508-3.634.988-5.271 1.539l-.227.065-.129.119-.025.388.101.161-.014.14.086.111.036.317.159.172c.007.025-.043.23.014.24.336 1.265.646 2.536 1.107 3.764l.137.478a.53.53 0 01.025.183c.093.136.122.237.18.247zm-2.826 5.136c.072.252.169.496.241.747.036.126.047.259.076.359l.08.467c-.061.262-.061.453-.283.625a1.037 1.037 0 01-.316.227c-.026.007-.27.105-.27.105l-.291.029-.287-.054-.18-.057-.079-.087-.057-.01-.259-.334-.198-.406c-.703-2.736-1.665-5.616-2.228-7.958l-.061-.309-.007-.215.014-.14.14-.367.326-.284a5.055 5.055 0 01.603-.173l.223.018.392.132.176.14.187.273.606 2.112c.472 1.741 1.005 3.411 1.452 5.16zm.384-8.434a3.793 3.793 0 00-1.094-1.346 3.698 3.698 0 00-.783-.456 4.381 4.381 0 00-.945-.164 2.436 2.436 0 00-1.157.141c-.251.072-.51.119-.736.184-.176.05-.33.176-.506.227a4.28 4.28 0 00-1.124.73c-.186.108-.369.514-.502.715a6.19 6.19 0 00-.355.755 3.131 3.131 0 00-.016 1.746c.67 2.528 1.564 5.645 2.447 8.629l.133.37a4.5 4.5 0 00.997 1.292.56.56 0 01.33.205c.072.061.421.233.485.269l.751.247a5.045 5.045 0 002.306-.308.445.445 0 00.431-.205c.237.068.467-.27.725-.317a2.419 2.419 0 01.474-.435c-.054-.093.226-.255.262-.32l.387-.736a10.077 10.077 0 00.258-.999 1.483 1.483 0 01.025-.388l-.04-.615a12.244 12.244 0 00-.429-1.59l-1.308-4.468a26.437 26.437 0 00-1.016-3.163m-6.97 6.623l-.093-.137-.234-.15-.216.007c-.822.263-1.677.508-2.499.771a11.213 11.213 0 00-1.296.318l-.273.187c-.19.19.025.564.083.765a2.7 2.7 0 00.277.872l.105.079.115.022.341-.044c.237-.122 1.483-.425 1.558-.447a9.86 9.86 0 011.458-.418 1.491 1.491 0 01.654-.187l.273-.187.053-.288c-.021-.075-.259-.905-.248-.962a.199.199 0 01-.058-.201zm-2.891 7.848c.028-.09-.108-.187-.13-.262a2.308 2.308 0 00-.065-.417l-.115-.212-.313-.046-.384.083a6.015 6.015 0 00-.923.292c-.618.122-1.325.407-1.961.562l-.24.015c-.025.007-.104-.079-.137-.097-.039-.043-.054-.094-.093-.137-.289-1.005-.595-1.978-.851-2.966-.05-.176-.126-.345-.184-.546l.04-.147.111-.086.352-.101a1.294 1.294 0 01.686-.17c.384-.083.84-.295 1.199-.371l.119-.061.14-.176.032-.173a5.335 5.335 0 00-.447-1.368c.054-.097-.029-.291-.083-.384l-.093-.137-.072-.061-.166-.007-.351.101a3.012 3.012 0 01-.945.217 4.95 4.95 0 01-1.016.345l-.212-.075-.101-.161.011-.058-.051-.176c-.223-.779-.472-1.741-.738-2.481l-.055-.284.04-.147.097-.137.262-.129c.344-.126 1.307-.185 1.519-.49.032.208.488-.004.474-.055.208-.032.553-.158.794-.173l.276-.079.111-.086.036-.065c.065-.345-.176-.711-.188-1.034-.054-.094-.047-.449-.187-.464-.025-.183-.069-.524-.237-.639l-.155-.064-.043.039-.004.083-.057-.011-.072-.061c-1.081.31-2.288.656-3.401.948a16.83 16.83 0 01-1.917.523l-.6.28-.065.155-.003.083c1.373 4.693 2.631 9.365 4.047 14.019l-.003.083.079.086.287.054.151-.044c1.842-.501 3.713-1.091 5.62-1.557l.363-.158.111-.277.011-.057zm-11.005-9.631l.011-.057-.058-.202-.032-.017-.065-.227.011-.057-.166-.578-.101-.162-.244-.093-.359.076-.187.108c-.582.058-1.142.382-1.724.44-.941.324-1.828.551-2.708.803a3.473 3.473 0 01-.711.177c-.276.079-.563.216-.847.27l-.593.116-.043.039-.003.083-.151.043-.065.155.181.628-.036.065.252.879.216.564.173.032c.136-.093.233-.039.391-.057.147-.151.366-.051.542-.102a4.443 4.443 0 01.571-.19c.007-.166.219-.09.302-.087l.377-.108.083.003.255.417c.206.812.386 1.63.649 2.453.043.15.104.269.148.42.403 1.408.782 2.822 1.186 4.23l.569 1.986c.187.654.35 1.314.587 1.954l.112.294.022.075.118.13.205.05.277-.08.057.011.654-.187.043-.04.176-.05.032.018.37-.134.215-.007.32-.119.215-.198.033-.172-.112-.104.061-.072-.004-.108-.039-.043-.116-.402c-1.059-3.695-1.985-7.021-3.07-10.709l-.08-.467.097-.136.068-.047.442-.072a4.161 4.161 0 01.772-.249c.036-.065.079-.104.144-.068l.391-.058.244-.097.112-.087.075-.212-.015-.24-.104-.27-.04-.043-.036-.125zm-5.587 13.246c-.995-3.66-2.055-6.974-3.021-10.723l-.187-.654-.04-.043-.187-.653c-.007-.026-.122-.047-.122-.047a.252.252 0 00-.191 0c-.05.015-.082-.003-.133.011l-.326.094a1.945 1.945 0 01-.528.151.564.564 0 00-.262.13 2.408 2.408 0 00-.744.158l-.187.108-.1.22-.007.165.353 1.232c.202.703.674 2.255.674 2.255s1.236 4.406 1.384 5.017c.025-.008.058.01.047.068a.186.186 0 00-.003.082c.385 1.441.836 2.916 1.247 4.349l.273.956.126.154.162.09.302-.087a1.047 1.047 0 00.589-.223 2.14 2.14 0 00.56-.134 1.952 1.952 0 00.391-.058l.428-.122.036-.065.032-.363a7.316 7.316 0 00-.444-1.45c.101-.22-.129-.453-.122-.618zm-10.198-3.306l-.215.007-.126-.154-.094-.327a4.893 4.893 0 00-.148-.61c-.298-.377-.195-1.06-.475-1.469a7.843 7.843 0 01-.26-1.095l-.087-.302.036-.065.298-.194c.101-.029.445-.155.543-.101l.111-.086a.382.382 0 00.24-.015l.313.047.212.075.331.395a5.501 5.501 0 01.36.876 8.185 8.185 0 01.382 1.332c-.032.172.105.46.047.639l-.089.353-.198.165-.035.065-.105.111-.47.162-.032-.018a.878.878 0 01-.539.209m6.533 6.179a2.31 2.31 0 01-.536-.825c-.795-1.16-1.583-2.484-2.353-3.651l-.255-.417-.069-.334-.039-.043.125-.036.445-.535.308-.633.036-.255c.086-.079.018-.413.021-.496a1.22 1.22 0 00-.062-.689c.119-.252-.101-.733-.173-.984a2.114 2.114 0 00-.158-.553c-.054-.094-.066-.417-.163-.471l-.18-.628-.158-.363-.382-.761-.338-.42-.478-.434-.162-.09-.28-.219-.456-.168-.241.015-.244-.094-.762.001-.323.011-.036.065-.05.014c-.162-.089-.467.08-.618.123a2.469 2.469 0 00-.596.198 7.302 7.302 0 00-1.465.393 3.392 3.392 0 00-.862.22l-.578.166-.155.126-.032.363.195.678c.133.56 3.813 13.298 3.813 13.298l.183.165h.191l.327-.094a1.81 1.81 0 00.384-.083c.072-.129.161-.291.226-.065.234-.039.589-.223.804-.23l.37-.133.061-.072.011-.058.061-.072.05-.205c-.547-1.72-1.095-3.63-1.568-5.372l.036-.255.212-.115.108-.004.237.068.28.41c.828 1.558 1.828 2.958 2.681 4.509l.165.197.119.129.23.043.215-.007c.37-.134.887-.227 1.25-.386.072.061.226-.065.302-.086l.352-.101.111-.087.064-.154.022-.115-.04-.043-.014-.05zM26.762 33.891c-.072-.061-.273-.003-.341.044a5.418 5.418 0 00-.635.155c-.015-.051-.654.187-.686.169l-.043.04c-.101.028-.485.111-.539.208l-.108.195.218 1.896a13.301 13.301 0 01.256 1.749c.138.858.304 1.817.409 2.658l-.126.036c.126-.036.14.014.176.14l-.007.355a.176.176 0 01.155.065c-.075.022-.104.111-.115.169l.065.417.094.326-.007.166-.054.097-.19-.191-.073-.251c-.381-.761-.802-1.756-1.216-2.535-.191-.571-.601-1.242-.767-1.82-.054-.094-.392-.894-.55-.876.208-.033-.364-.984-.361-1.067l-.32-.642-.194-.108-.14-.014-1.106.317-.061.072-.528.151-.129.119-.058.179.095.898c.242 2.08.6 4.181.749 6.315l.108.377-.025.197.044.151.032.018.036.126-.108.003-.219-.1-.158-.553c-.425-.912-.976-1.978-1.3-2.919-.49-1.138-1.217-2.535-1.606-3.702l-.269-.276-.173-.033a4.2 4.2 0 00-.948.299 3.419 3.419 0 00-1.106.318l-.122.143-.036.065.152.528.446.797a25.092 25.092 0 001.119 2.291c.511 1.213 1.098 2.405 1.66 3.605.356.768.737 1.529 1.087 2.272a1.659 1.659 0 00.291.543 1.356 1.356 0 00.299.567l.101.352c.345.445.511 1.213.838 1.691a.47.47 0 00.216.373c-.061.072.025.183.09.219l.112.295.086.111.097.054.298-.004c.126-.036.446-.155.596-.198a1.276 1.276 0 00.428-.123c.219-.09.599-.09.765-.274l.096-.136-.003-.298c-.026-.564-.163-1.232-.189-1.796a8.968 8.968 0 00-.174-1.175c.061-.262-.147-.61-.054-.854l-.072-.442a.129.129 0 01-.026-.183c-.079-.658-.163-1.613-.275-2.288-.036-.126-.133-.561-.029-.672-.015-.05-.058-.201-.022-.266l.097.054.216.373c.04.234.27.467.317.726.143.122.154.445.309.509.093-.054.284-.054.129.072-.309-.129.364.984.4 1.11.493 1.055.968 2.143 1.505 3.159l.41.862.058.201.28.219.284-.054a6.446 6.446 0 001.188-.314l.453-.13.161-.1.094-.245-.084-.765c-.543-4.741-1.075-9.158-1.572-13.831l-.072-.252zm-18.761.129l6.415 22.373a1.284 1.284 0 001.585.879l79.436-22.778a1.284 1.284 0 00.878-1.585L89.9 10.536a1.283 1.283 0 00-1.585-.878l-11.639 3.337.433 1.508 11.362-3.258 6.257 21.82-78.883 22.619-6.264-21.845 11.036-3.164-.433-1.508L8.872 32.41a1.29 1.29 0 00-.871 1.61zM90.959 9.77l6.639 23.152a2.166 2.166 0 01-1.488 2.685L15.895 58.608a2.166 2.166 0 01-2.685-1.488L6.571 33.968a2.166 2.166 0 011.488-2.685l11.765-3.373.137.477-11.765 3.374a1.695 1.695 0 00-1.165 2.102l6.639 23.152a1.696 1.696 0 002.102 1.166l80.215-23.002a1.695 1.695 0 001.165-2.102L90.507 9.9a1.698 1.698 0 00-2.103-1.166l-11.966 3.431-.137-.477 11.966-3.431a2.204 2.204 0 012.692 1.513" fill="#ed1c24"/></svg>