<svg xmlns="http://www.w3.org/2000/svg" width="300" height="250" overflow="visible"><path fill="none" d="M0 0h300v250H0z"/><path d="M27.9 84.5V70.1h2.9l5.7 9.8v-9.8H39v14.4h-2.6l-5.9-10.2v10.2h-2.6zm12.9-5.2c0-.8.1-1.6.3-2.2.2-.7.5-1.2.9-1.7s.9-.8 1.4-1.1 1.2-.4 1.9-.4 1.3.1 1.9.4 1 .6 1.4 1.1c.4.5.7 1 .9 1.7.2.7.3 1.4.3 2.2s-.1 1.6-.3 2.2c-.2.7-.5 1.2-.9 1.7s-.9.8-1.4 1.1c-.6.3-1.2.4-1.9.4s-1.3-.1-1.9-.4c-.6-.3-1-.6-1.4-1.1-.4-.5-.7-1-.9-1.7-.2-.6-.3-1.3-.3-2.2zm6.6 0c0-1.2-.2-2-.5-2.6-.4-.5-.9-.7-1.6-.7-.7 0-1.2.3-1.5.8-.3.5-.5 1.4-.5 2.6s.2 2 .5 2.6.8.8 1.5.8 1.2-.3 1.5-.8c.4-.6.6-1.5.6-2.7zm2.7-5.1h2.3l1.4 6.4 1.5-6.4h2.3l1.4 6.4 1.5-6.4H63l-2.7 10.3h-2.2l-1.5-6.4-1.6 6.4h-2.2l-2.7-10.3zM65.5 73h-1.2v-2.8H67V73l-1.3 3h-1.3l1.1-3zm8.3 3.9c-.3-.3-.5-.5-.9-.7-.3-.2-.7-.3-1.1-.3-.5 0-.8.1-1.1.3-.2.2-.3.4-.3.7 0 .3.1.5.4.7.3.2.6.3 1 .5.4.1.8.3 1.2.4.5.2.9.4 1.2.6s.7.6 1 1c.3.4.4.9.4 1.5 0 .5-.1 1-.3 1.4-.2.4-.5.7-.8 1s-.7.4-1.2.6c-.5.1-1 .2-1.5.2-.8 0-1.6-.2-2.2-.5-.7-.4-1.2-.9-1.7-1.6l1.7-1.2c.3.4.6.7 1 1s.9.4 1.4.4c.4 0 .8-.1 1.1-.3s.4-.5.4-.8c0-.3-.1-.5-.4-.7s-.6-.4-1-.5c-.4-.1-.8-.3-1.2-.5-.5-.2-.9-.4-1.2-.6-.4-.3-.7-.6-1-1-.3-.4-.4-.9-.4-1.5 0-.5.1-.9.3-1.3.2-.4.4-.7.8-.9s.7-.4 1.1-.6c.4-.1.8-.2 1.3-.2.7 0 1.4.1 2 .4.6.3 1.2.7 1.6 1.2l-1.6 1.3zm15.1 7.6l-.2-.9c-.5.3-1 .6-1.5.8-.5.2-1.1.3-1.7.3-.5 0-.9-.1-1.2-.2-.4-.2-.6-.4-.9-.6-.2-.3-.4-.6-.5-.9-.1-.3-.2-.7-.2-1 0-1.2.5-2.1 1.5-2.7s2.5-1.1 4.5-1.3v-1c0-.4-.1-.7-.4-.9-.3-.2-.6-.3-1.1-.3-.6 0-1 .1-1.4.4l-.9.9-1.6-1.2c.2-.3.4-.5.7-.8l.9-.6c.4-.2.7-.3 1.1-.4s.8-.1 1.2-.1c.7 0 1.3.1 1.8.2s.9.4 1.2.7c.3.3.6.8.7 1.3.2.5.2 1.2.2 1.9v5.7c0 .3.1.5.2.7h-2.4zm-.2-4.9l-1.2.3c-.4.1-.8.2-1.1.4s-.6.3-.8.6c-.2.2-.3.5-.3.9s.1.7.3.9c.2.2.5.3.9.3.2 0 .4 0 .6-.1l.6-.3c.2-.1.4-.2.6-.4.2-.1.3-.3.5-.4v-2.2zm19.4-4h-.9c-.3 0-.5.1-.7.2.2.2.3.5.4.8.1.3.2.6.2 1 0 .5-.1.9-.2 1.3-.2.4-.4.8-.7 1.1-.3.3-.7.5-1.2.7-.5.2-1.1.2-1.7.2-.5 0-1 0-1.4.1-.4.1-.6.2-.6.5s.2.5.5.6c.3.1.8.2 1.3.2s1 .1 1.6.1c.6 0 1.1.1 1.6.3.5.2.9.4 1.3.8.3.4.5.9.5 1.6 0 .4-.1.7-.3 1.1s-.5.7-.9 1c-.4.3-.9.5-1.5.7s-1.3.3-2.1.3c-1.4 0-2.5-.2-3.4-.6s-1.3-1-1.3-1.8c0-.3.1-.6.2-.8.1-.2.3-.4.4-.6s.4-.3.6-.4c.2-.1.4-.1.7-.1-.1-.1-.3-.2-.4-.2-.2-.1-.3-.2-.5-.3-.2-.1-.3-.3-.4-.4-.2-.3-.2-.5-.2-.8 0-.3.1-.5.2-.7.1-.2.3-.4.4-.6.2-.2.3-.3.5-.4.2-.1.3-.2.4-.2-.4-.3-.8-.7-1.1-1.2-.3-.4-.4-1-.4-1.6 0-.5.1-.9.3-1.3.2-.4.4-.8.8-1.2.3-.3.8-.6 1.3-.8.5-.2 1.1-.3 1.8-.3.4 0 .9.1 1.4.2.5.2.9.4 1.2.7.2-.3.6-.6.9-.7s.9-.2 1.5-.2v1.7zm-5.4 8.7c-.3 0-.6 0-.8.1-.2.1-.4.2-.5.3-.1.1-.2.2-.3.4-.1.1-.1.3-.1.4 0 .4.2.7.6.9s1.1.3 2.1.3c.4 0 .7 0 1-.1.3-.1.5-.2.7-.3.2-.1.3-.2.4-.4s.1-.2.1-.3c0-.1 0-.2-.1-.4-.1-.1-.3-.3-.5-.4-.2-.1-.6-.2-1-.3-.6-.2-1-.2-1.6-.2zm2.1-6.8c0-.5-.2-.9-.5-1.2-.3-.3-.7-.5-1.2-.5s-1 .2-1.3.5c-.3.3-.5.7-.5 1.2s.2.9.5 1.2c.3.3.8.5 1.3.5s.9-.2 1.2-.5c.3-.3.5-.7.5-1.2zm4.4 7V74.2h2.3V76c.3-.6.7-1.1 1.1-1.4.4-.3 1-.5 1.8-.5v2.6h-.4c-.3 0-.6.1-.9.2-.3.2-.5.3-.7.5-.2.2-.4.4-.5.6-.1.2-.2.3-.2.4v6.3h-2.5zm8.4-4.8c0 1.1.2 1.8.7 2.3.4.5.9.7 1.5.7s1-.1 1.4-.3.6-.5 1-.9l1.8 1.1c-.5.7-1.1 1.3-1.8 1.6-.7.3-1.6.5-2.6.5-.7 0-1.3-.1-1.8-.4-.5-.3-1-.6-1.4-1.1-.4-.5-.7-1-.9-1.7-.2-.7-.3-1.4-.3-2.2s.1-1.6.3-2.2c.2-.7.5-1.2.9-1.7s.9-.8 1.4-1.1 1.2-.4 1.9-.4 1.3.1 1.8.4c.5.3 1 .6 1.3 1 .4.4.6.9.8 1.5.2.6.3 1.2.3 1.8v1h-6.3zm4-1.6c0-.7-.2-1.3-.6-1.7-.4-.4-.8-.6-1.4-.6-.6 0-1.1.2-1.4.6-.4.4-.5 1-.6 1.7h4zm9.4 6.4l-.2-.9c-.5.3-1 .6-1.5.8-.5.2-1.1.3-1.7.3-.5 0-.9-.1-1.2-.2-.4-.2-.6-.4-.9-.6-.2-.3-.4-.6-.5-.9-.1-.3-.2-.7-.2-1 0-1.2.5-2.1 1.5-2.7s2.5-1.1 4.5-1.3v-1c0-.4-.1-.7-.4-.9-.3-.2-.6-.3-1.1-.3-.6 0-1 .1-1.4.4l-.9.9-1.6-1.2c.2-.3.4-.5.7-.8l.9-.6c.4-.2.7-.3 1.1-.4s.8-.1 1.2-.1c.7 0 1.3.1 1.8.2s.9.4 1.2.7c.3.3.6.8.7 1.3.2.5.2 1.2.2 1.9v5.7c0 .3.1.5.2.7H131zm-.3-4.9l-1.2.3c-.4.1-.8.2-1.1.4s-.6.3-.8.6c-.2.2-.3.5-.3.9s.1.7.3.9c.2.2.5.3.9.3.2 0 .4 0 .6-.1l.6-.3c.2-.1.4-.2.6-.4.2-.1.3-.3.5-.4v-2.2zm5-5.4v-3.4h2.5v3.4h2v2h-2V82c0 .3.1.5.2.6.1.1.4.1.7.1.2 0 .4 0 .6-.1.2 0 .4-.1.6-.1v2c-.3 0-.7.1-1 .1h-1c-.9 0-1.6-.2-2-.6-.4-.4-.6-1-.6-1.8V76h-1.4v-2h1.4zm12.7 0v-3.4h2.5v3.4h2v2h-2V82c0 .3.1.5.2.6.1.1.4.1.7.1.2 0 .4 0 .6-.1.2 0 .4-.1.6-.1v2c-.3 0-.7.1-1 .1h-1c-.9 0-1.6-.2-2-.6-.4-.4-.6-1-.6-1.8V76H147v-2h1.4zm6.1-1.9V70h2.5v2.3h-2.5zm2.5 12.2h-2.5V74.2h2.5v10.3zm2.3 0V74.2h2.2v1.1c.5-.4.9-.7 1.4-1 .5-.2 1-.3 1.7-.3.5 0 1 .1 1.5.4s.8.6 1 1.1c.2-.2.4-.4.7-.6s.5-.3.8-.5l.9-.3c.3-.1.7-.1 1.2-.1.3 0 .5 0 .8.1.3.1.6.3.8.5.3.2.5.5.6 1 .2.4.2.9.2 1.5v7.4h-2.5v-7.2c0-.4-.1-.7-.3-1s-.5-.3-1-.4c-.3 0-.7.1-1.1.4-.4.2-.7.5-1 .8v7.4H165v-7.2c0-.4-.1-.7-.3-1-.2-.2-.5-.3-1-.4-.3 0-.7.1-1.1.4-.4.2-.7.5-1 .8v7.4h-2.3zm18-4.8c0 1.1.2 1.8.7 2.3.4.5.9.7 1.5.7s1-.1 1.4-.3c.3-.2.7-.5 1-.9l1.8 1.1c-.5.7-1.1 1.3-1.8 1.6-.7.3-1.6.5-2.6.5-.7 0-1.3-.1-1.8-.4-.5-.3-1-.6-1.4-1.1-.4-.5-.7-1-.9-1.7-.2-.7-.3-1.4-.3-2.2s.1-1.6.3-2.2c.2-.7.5-1.2.9-1.7s.9-.8 1.4-1.1 1.2-.4 1.9-.4 1.3.1 1.8.4c.5.3 1 .6 1.3 1 .4.4.6.9.8 1.5.2.6.3 1.2.3 1.8v1h-6.3zm3.9-1.6c0-.7-.2-1.3-.6-1.7-.4-.4-.8-.6-1.4-.6-.6 0-1.1.2-1.4.6-.4.4-.5 1-.6 1.7h4zm10.8-3.9v-3.4h2.5v3.4h2v2h-2V82c0 .3.1.5.2.6.1.1.4.1.7.1.2 0 .4 0 .6-.1.2 0 .4-.1.6-.1v2c-.3 0-.7.1-1 .1h-1c-.9 0-1.6-.2-2-.6-.4-.4-.6-1-.6-1.8V76h-1.4v-2h1.4zm5.2 5.1c0-.8.1-1.6.3-2.2.2-.7.5-1.2.9-1.7s.9-.8 1.4-1.1 1.2-.4 1.9-.4 1.3.1 1.9.4c.6.3 1 .6 1.4 1.1.4.5.7 1 .9 1.7.2.7.3 1.4.3 2.2s-.1 1.6-.3 2.2c-.2.7-.5 1.2-.9 1.7s-.9.8-1.4 1.1c-.6.3-1.2.4-1.9.4s-1.3-.1-1.9-.4c-.6-.3-1-.6-1.4-1.1-.4-.5-.7-1-.9-1.7-.2-.6-.3-1.3-.3-2.2zm6.5 0c0-1.2-.2-2-.5-2.6-.3-.5-.8-.8-1.5-.8s-1.2.3-1.5.8c-.3.5-.5 1.4-.5 2.6s.2 2 .5 2.6c.3.5.8.8 1.5.8s1.2-.3 1.5-.8c.3-.5.5-1.4.5-2.6zm17.9-5c-.2-.6-.5-1.1-.9-1.5-.4-.4-1-.6-1.7-.6-.9 0-1.6.4-2.2 1.3-.5.8-.8 2.1-.8 3.8 0 3.4 1 5.1 3 5.1.3 0 .6 0 .8-.1.3-.1.5-.2.7-.3s.4-.4.6-.6c.2-.3.4-.6.6-1l2.5.7c-.4 1.2-1.1 2.2-2 2.8-.9.6-2 .9-3.4.9-1.8 0-3.3-.6-4.3-1.9-1-1.3-1.5-3.1-1.5-5.5s.5-4.2 1.5-5.5c1-1.3 2.4-1.9 4.3-1.9 1.4 0 2.5.3 3.3.9.8.6 1.4 1.6 1.7 2.9l-2.2.5zm4.5 10.2V70.1h2.7v5.7h5.5v-5.7h2.7v14.4h-2.7v-6.2h-5.5v6.2h-2.7zm13.7 0V70.1h9.5v2.3h-6.8v3.4h4.9v2.3h-4.9v4h7v2.3h-9.7zm18.8-10.2c-.2-.6-.5-1.1-.9-1.5-.4-.4-1-.6-1.7-.6-.9 0-1.6.4-2.2 1.3-.5.8-.8 2.1-.8 3.8 0 3.4 1 5.1 3 5.1.3 0 .6 0 .8-.1.3-.1.5-.2.7-.3s.4-.4.6-.6c.2-.3.4-.6.6-1l2.5.7c-.4 1.2-1.1 2.2-2 2.8-.9.6-2 .9-3.4.9-1.8 0-3.3-.6-4.3-1.9-1-1.3-1.5-3.1-1.5-5.5s.5-4.2 1.5-5.5c1-1.3 2.4-1.9 4.3-1.9 1.4 0 2.5.3 3.3.9.8.6 1.4 1.6 1.7 2.9l-2.2.5zm4.4 10.2V70.1h2.7v6.4l4.8-6.4h3.2l-4.1 5.4 4.7 9h-3l-3.6-6.8-2 2.5v4.3H263zM19.6 110.1c.2 0 .4.1.5.1h.5c.4 0 .8-.1 1-.2s.5-.3.6-.6c.1-.3.2-.5.3-.6.1-.2.1-.4.1-.6 0-.2 0-.4-.1-.6-.1-.2-.1-.4-.2-.6l-2.8-9H22l1.7 6.4 1.8-6.4H28l-3.3 10.4c-.3.7-.5 1.4-.8 1.8-.3.5-.5.9-.8 1.2-.3.3-.6.5-1 .6-.4.1-.8.2-1.3.2h-.7c-.2 0-.3 0-.5-.1v-2zm8.6-6.9c0-.8.1-1.6.3-2.2.2-.7.5-1.2.9-1.7s.9-.8 1.4-1.1 1.2-.4 1.9-.4 1.3.1 1.9.4 1 .6 1.4 1.1c.4.5.7 1 .9 1.7.2.7.3 1.4.3 2.2s-.1 1.6-.3 2.2c-.2.7-.5 1.2-.9 1.7s-.9.8-1.4 1.1c-.6.3-1.2.4-1.9.4s-1.3-.1-1.9-.4c-.6-.3-1-.6-1.4-1.1-.4-.5-.7-1-.9-1.7-.2-.6-.3-1.4-.3-2.2zm6.6 0c0-1.2-.2-2-.5-2.6-.3-.5-.8-.8-1.5-.8s-1.2.3-1.5.8c-.3.5-.5 1.4-.5 2.6s.2 2 .5 2.6.8.8 1.5.8 1.2-.3 1.5-.8c.3-.6.5-1.4.5-2.6zM47.2 98v10.3H45v-1.1l-1.5.9c-.5.3-1.1.4-1.7.4-1 0-1.8-.3-2.3-.9-.5-.6-.8-1.5-.8-2.5V98h2.5v6.7c0 .7.1 1.2.3 1.4.2.3.5.4 1 .4s1-.1 1.4-.4c.4-.2.7-.5.9-.7V98h2.4zm2.1 10.4V98h2.3v1.8c.3-.6.7-1.1 1.1-1.4.4-.3 1-.5 1.8-.5v2.6h-.4c-.3 0-.6.1-.9.2-.3.2-.5.3-.7.5-.2.2-.4.4-.5.6-.1.2-.2.3-.2.4v6.3h-2.5zM62.2 94h2.5v5c.1-.2.3-.3.5-.5.2-.1.4-.3.6-.4s.5-.2.7-.2c.2-.1.5-.1.7-.1.7 0 1.3.1 1.8.4s1 .7 1.3 1.2.6 1 .8 1.6c.2.6.3 1.2.3 1.9 0 .8-.1 1.6-.3 2.2s-.4 1.3-.8 1.8c-.3.5-.8.9-1.3 1.2-.5.3-1.1.4-1.8.4-.6 0-1.1-.1-1.5-.3-.4-.2-.9-.5-1.3-1l-.3 1.1h-1.9V94zm2.4 11.7c.1.1.3.2.4.3.1.1.2.2.4.3.1.1.3.2.5.2.2.1.4.1.7.1.7 0 1.3-.3 1.7-.9s.6-1.4.6-2.5-.2-1.9-.6-2.5c-.4-.6-1-.9-1.7-.9-.4 0-.8.1-1.1.3-.3.2-.6.4-.8.6v5zM81.4 98v10.3h-2.3v-1.1l-1.5.9c-.5.3-1.1.4-1.7.4-1 0-1.8-.3-2.3-.9-.5-.6-.8-1.5-.8-2.5V98h2.5v6.7c0 .7.1 1.2.3 1.4.2.3.5.4 1 .4s1-.1 1.4-.4c.4-.2.7-.5.9-.7V98h2.5zm7.2 2.8c-.3-.3-.5-.5-.9-.7-.3-.2-.7-.3-1.1-.3-.5 0-.8.1-1.1.3-.2.2-.3.4-.3.7 0 .3.1.5.4.7.3.2.6.3 1 .5.4.1.8.3 1.2.4.5.2.9.4 1.2.6s.7.6 1 1c.3.4.4.9.4 1.5 0 .5-.1 1-.3 1.4-.2.4-.5.7-.8 1s-.7.4-1.2.6c-.5.1-1 .2-1.5.2-.8 0-1.6-.2-2.2-.5-.7-.4-1.2-.9-1.7-1.6l1.7-1.2c.3.4.6.7 1 1s.9.4 1.4.4c.4 0 .8-.1 1.1-.3s.4-.5.4-.8c0-.3-.1-.5-.4-.7s-.6-.4-1-.5c-.4-.1-.8-.3-1.2-.5-.5-.2-.9-.4-1.2-.6-.4-.3-.7-.6-1-1-.3-.4-.4-.9-.4-1.5 0-.5.1-.9.3-1.3.2-.4.4-.7.8-.9s.7-.4 1.1-.6c.4-.1.8-.2 1.3-.2.7 0 1.4.1 2 .4.6.3 1.2.7 1.6 1.2l-1.6 1.3zm3.6-4.7v-2.3h2.5v2.3h-2.5zm2.4 12.3h-2.5V98h2.5v10.4zm2.3 0V98h2.3v1.1l1.5-.9c.5-.3 1.1-.4 1.7-.4 1 0 1.8.3 2.3.9.5.6.8 1.5.8 2.5v7.1H103v-6.7c0-.7-.1-1.2-.3-1.4-.2-.3-.5-.4-1-.4s-1 .1-1.4.4c-.4.2-.7.5-.9.7v7.5h-2.5zm12.5-4.8c0 1.1.2 1.8.7 2.3.4.5.9.7 1.5.7s1-.1 1.4-.3.6-.5 1-.9l1.8 1.1c-.5.7-1.1 1.3-1.8 1.6-.7.3-1.6.5-2.6.5-.7 0-1.3-.1-1.8-.4-.5-.3-1-.6-1.4-1.1-.4-.5-.7-1-.9-1.7-.2-.7-.3-1.4-.3-2.2s.1-1.6.3-2.2c.2-.7.5-1.2.9-1.7s.9-.8 1.4-1.1 1.2-.4 1.9-.4 1.3.1 1.8.4c.5.3 1 .6 1.3 1 .4.4.6.9.8 1.5.2.6.3 1.2.3 1.8v1h-6.3zm4-1.7c0-.7-.2-1.3-.6-1.7-.4-.4-.8-.6-1.4-.6-.6 0-1.1.2-1.4.6-.4.4-.5 1-.6 1.7h4zm9.2-1.1c-.3-.3-.5-.5-.9-.7-.3-.2-.7-.3-1.1-.3-.5 0-.8.1-1.1.3-.2.2-.3.4-.3.7 0 .3.1.5.4.7.3.2.6.3 1 .5.4.1.8.3 1.2.4.5.2.9.4 1.2.6s.7.6 1 1c.3.4.4.9.4 1.5 0 .5-.1 1-.3 1.4-.2.4-.5.7-.8 1s-.7.4-1.2.6c-.5.1-1 .2-1.5.2-.8 0-1.6-.2-2.2-.5-.7-.4-1.2-.9-1.7-1.6l1.7-1.2c.3.4.6.7 1 1s.9.4 1.4.4c.4 0 .8-.1 1.1-.3s.4-.5.4-.8c0-.3-.1-.5-.4-.7s-.6-.4-1-.5c-.4-.1-.8-.3-1.2-.5-.5-.2-.9-.4-1.2-.6-.4-.3-.7-.6-1-1-.3-.4-.4-.9-.4-1.5 0-.5.1-.9.3-1.3.2-.4.4-.7.8-.9s.7-.4 1.1-.6c.4-.1.8-.2 1.3-.2.7 0 1.4.1 2 .4.6.3 1.2.7 1.6 1.2l-1.6 1.3zm8.7 0c-.3-.3-.5-.5-.9-.7-.3-.2-.7-.3-1.1-.3-.5 0-.8.1-1.1.3-.2.2-.3.4-.3.7 0 .3.1.5.4.7.3.2.6.3 1 .5.4.1.8.3 1.2.4.5.2.9.4 1.2.6s.7.6 1 1c.3.4.4.9.4 1.5 0 .5-.1 1-.3 1.4-.2.4-.5.7-.8 1s-.7.4-1.2.6c-.5.1-1 .2-1.5.2-.8 0-1.6-.2-2.2-.5-.7-.4-1.2-.9-1.7-1.6l1.7-1.2c.3.4.6.7 1 1s.9.4 1.4.4c.4 0 .8-.1 1.1-.3s.4-.5.4-.8c0-.3-.1-.5-.4-.7s-.6-.4-1-.5c-.4-.1-.8-.3-1.2-.5-.5-.2-.9-.4-1.2-.6-.4-.3-.7-.6-1-1-.3-.4-.4-.9-.4-1.5 0-.5.1-.9.3-1.3.2-.4.4-.7.8-.9s.7-.4 1.1-.6c.4-.1.8-.2 1.3-.2.7 0 1.4.1 2 .4.6.3 1.2.7 1.6 1.2l-1.6 1.3zm4.3-4h-1.2V94h2.7v2.8l-1.3 3h-1.3l1.1-3zm11.9 6.8c0 1.1.2 1.8.7 2.3.4.5.9.7 1.5.7s1-.1 1.4-.3.6-.5 1-.9l1.8 1.1c-.5.7-1.1 1.3-1.8 1.6-.7.3-1.6.5-2.6.5-.7 0-1.3-.1-1.8-.4-.5-.3-1-.6-1.4-1.1-.4-.5-.7-1-.9-1.7-.2-.7-.3-1.4-.3-2.2s.1-1.6.3-2.2c.2-.7.5-1.2.9-1.7s.9-.8 1.4-1.1 1.2-.4 1.9-.4 1.3.1 1.8.4c.5.3 1 .6 1.3 1 .4.4.6.9.8 1.5.2.6.3 1.2.3 1.8v1h-6.3zm4-1.7c0-.7-.2-1.3-.6-1.7-.4-.4-.8-.6-1.4-.6-.6 0-1.1.2-1.4.6-.4.4-.5 1-.6 1.7h4zm4.1 6.5V94h2.5v14.4h-2.5zm4.9-12.3v-2.3h2.5v2.3h-2.5zm2.4 12.3h-2.5V98h2.5v10.4zm10.9-8.9h-.9c-.3 0-.5.1-.7.2.2.2.3.5.4.8.1.3.2.6.2 1 0 .5-.1.9-.2 1.3-.2.4-.4.8-.7 1.1-.3.3-.7.5-1.2.7-.5.2-1.1.2-1.7.2-.5 0-1 0-1.4.1-.4.1-.6.2-.6.5s.2.5.5.6c.3.1.8.2 1.3.2s1 .1 1.6.1c.6 0 1.1.1 1.6.3.5.2.9.4 1.3.8.3.4.5.9.5 1.6 0 .4-.1.7-.3 1.1s-.5.7-.9 1c-.4.3-.9.5-1.5.7s-1.3.3-2.1.3c-1.4 0-2.5-.2-3.4-.6s-1.3-1-1.3-1.8c0-.3.1-.6.2-.8.1-.2.3-.4.4-.6s.4-.3.6-.4c.2-.1.4-.1.7-.1-.1-.1-.3-.2-.4-.2-.2-.1-.3-.2-.5-.3-.2-.1-.3-.3-.4-.4-.1-.2-.2-.4-.2-.7 0-.3.1-.5.2-.7.1-.2.3-.4.4-.6.2-.2.3-.3.5-.4.2-.1.3-.2.4-.2-.4-.3-.8-.7-1.1-1.2-.3-.4-.4-1-.4-1.6 0-.5.1-.9.3-1.3.2-.4.4-.8.8-1.2.3-.3.8-.6 1.3-.8.5-.2 1.1-.3 1.8-.3.4 0 .9.1 1.4.2.5.2.9.4 1.2.7.2-.3.6-.6.9-.7s.9-.2 1.5-.2v1.6zm-5.4 8.7c-.3 0-.6 0-.8.1-.2.1-.4.2-.5.3-.1.1-.2.2-.3.4-.1.1-.1.3-.1.4 0 .4.2.7.6.9s1.1.3 2.1.3c.4 0 .7 0 1-.1.3-.1.5-.2.7-.3.2-.1.3-.2.4-.4s.1-.2.1-.3c0-.1 0-.2-.1-.4-.1-.1-.3-.3-.5-.4-.2-.1-.6-.2-1-.3-.5-.2-1-.2-1.6-.2zm2.1-6.8c0-.5-.2-.9-.5-1.2-.3-.3-.7-.5-1.2-.5s-1 .2-1.3.5c-.3.3-.5.7-.5 1.2s.2.9.5 1.2c.3.3.8.5 1.3.5s.9-.2 1.2-.5c.3-.3.5-.7.5-1.2zm4.6-5.3v-2.3h2.5v2.3h-2.5zm2.5 12.3h-2.5V98h2.5v10.4zm2.3-14.4h2.5v5c.1-.2.3-.3.5-.5s.4-.3.6-.4.5-.2.7-.2c.2-.1.5-.1.7-.1.7 0 1.3.1 1.8.4.5.3 1 .7 1.3 1.2s.6 1 .8 1.6c.2.6.3 1.2.3 1.9 0 .8-.1 1.6-.3 2.2s-.4 1.3-.8 1.8c-.3.5-.8.9-1.3 1.2-.5.3-1.1.4-1.8.4-.6 0-1.1-.1-1.5-.3-.4-.2-.9-.5-1.3-1l-.3 1.1h-1.9V94zm2.4 11.7c.1.1.3.2.4.3.1.1.2.2.4.3.1.1.3.2.5.2.2.1.4.1.7.1.7 0 1.3-.3 1.7-.9.4-.6.6-1.4.6-2.5s-.2-1.9-.6-2.5c-.4-.6-1-.9-1.7-.9-.4 0-.8.1-1.1.3-.3.2-.6.4-.8.6v5zm8.5-9.6v-2.3h2.5v2.3h-2.5zm2.5 12.3h-2.5V98h2.5v10.4zm2.4 0V94h2.5v14.4h-2.5zm4.8-12.3v-2.3h2.5v2.3h-2.5zm2.5 12.3h-2.5V98h2.5v10.4zm2.8-10.4v-3.4h2.5V98h2v2h-2v5.8c0 .3.1.5.2.6.1.1.4.1.7.1.2 0 .4 0 .6-.1.2 0 .4-.1.6-.1v2c-.3 0-.7.1-1 .1h-1c-.9 0-1.6-.2-2-.6-.4-.4-.6-1-.6-1.8v-6h-1.4v-2h1.4zm5.2 12.1c.2 0 .4.1.5.1h.5c.4 0 .8-.1 1-.2.3-.1.5-.3.6-.6.1-.3.2-.5.3-.6.1-.2.1-.4.1-.6 0-.2 0-.4-.1-.6-.1-.2-.1-.4-.2-.6l-2.7-9h2.5l1.7 6.4L217 98h2.5l-3.3 10.4c-.3.7-.5 1.4-.8 1.8s-.5.9-.8 1.2c-.3.3-.6.5-1 .6-.4.1-.8.2-1.3.2h-.7c-.2 0-.3 0-.5-.1v-2zm18.9-10.1v8.4h-2.5V100H226v-2h1.4v-1.3c0-.6.1-1 .2-1.4s.3-.7.5-.9c.2-.2.5-.4.9-.5s.8-.1 1.3-.1h1.6v2h-.7c-.5 0-.9.1-1.1.3-.2.2-.3.5-.3.9v1h2.1v2h-2zm2.7 3.2c0-.8.1-1.6.3-2.2.2-.7.5-1.2.9-1.7s.9-.8 1.4-1.1 1.2-.4 1.9-.4 1.3.1 1.9.4c.6.3 1 .6 1.4 1.1.4.5.7 1 .9 1.7.2.7.3 1.4.3 2.2s-.1 1.6-.3 2.2c-.2.7-.5 1.2-.9 1.7s-.9.8-1.4 1.1c-.6.3-1.2.4-1.9.4s-1.3-.1-1.9-.4c-.6-.3-1-.6-1.4-1.1-.4-.5-.7-1-.9-1.7-.2-.6-.3-1.4-.3-2.2zm6.5 0c0-1.2-.2-2-.5-2.6-.3-.5-.8-.8-1.5-.8s-1.2.3-1.5.8c-.3.5-.5 1.4-.5 2.6s.2 2 .5 2.6c.3.5.8.8 1.5.8s1.2-.3 1.5-.8c.3-.6.5-1.4.5-2.6zm3.9 5.2V98h2.3v1.8c.3-.6.7-1.1 1.1-1.4.4-.3 1-.5 1.8-.5v2.6h-.4c-.3 0-.6.1-.9.2-.3.2-.5.3-.7.5-.2.2-.4.4-.5.6-.1.2-.2.3-.2.4v6.3H243zM256.3 98v-3.4h2.5V98h2v2h-2v5.8c0 .3.1.5.2.6.1.1.4.1.7.1.2 0 .4 0 .6-.1.2 0 .4-.1.6-.1v2c-.3 0-.7.1-1 .1h-1c-.9 0-1.6-.2-2-.6-.4-.4-.6-1-.6-1.8v-6h-1.4v-2h1.4zm5.9 10.4V94h2.5v5.1c.4-.3.8-.6 1.3-.9.5-.3 1.1-.4 1.7-.4 1 0 1.8.3 2.3.9.5.6.8 1.5.8 2.5v7.1h-2.5v-6.7c0-.7-.1-1.2-.3-1.4-.2-.3-.5-.4-1-.4s-1 .1-1.4.4c-.4.2-.7.5-.9.7v7.5h-2.5zm12.5-4.8c0 1.1.2 1.8.7 2.3.4.5.9.7 1.5.7s1-.1 1.4-.3c.3-.2.7-.5 1-.9l1.8 1.1c-.5.7-1.1 1.3-1.8 1.6-.7.3-1.6.5-2.6.5-.7 0-1.3-.1-1.8-.4-.5-.3-1-.6-1.4-1.1-.4-.5-.7-1-.9-1.7-.2-.7-.3-1.4-.3-2.2s.1-1.6.3-2.2c.2-.7.5-1.2.9-1.7s.9-.8 1.4-1.1 1.2-.4 1.9-.4 1.3.1 1.8.4c.5.3 1 .6 1.3 1 .4.4.6.9.8 1.5.2.6.3 1.2.3 1.8v1h-6.3zm4-1.7c0-.7-.2-1.3-.6-1.7-.4-.4-.8-.6-1.4-.6s-1.1.2-1.4.6c-.4.4-.5 1-.6 1.7h4zM37.3 123.4h-.9c-.3 0-.5.1-.7.2.2.2.3.5.4.8.1.3.2.6.2 1 0 .5-.1.9-.2 1.3-.2.4-.4.8-.7 1.1-.3.3-.7.5-1.2.7-.5.2-1.1.2-1.7.2-.5 0-1 0-1.4.1-.4.1-.6.2-.6.5s.2.5.5.6c.3.1.8.2 1.3.2s1 .1 1.6.1c.6 0 1.1.1 1.6.3.5.2.9.4 1.3.8.3.4.5.9.5 1.6 0 .4-.1.7-.3 1.1s-.5.7-.9 1c-.4.3-.9.5-1.5.7s-1.3.3-2.1.3c-1.4 0-2.5-.2-3.4-.6s-1.3-1-1.3-1.8c0-.3.1-.6.2-.8.1-.2.3-.4.4-.6s.4-.3.6-.4c.2-.1.4-.1.7-.1-.1-.1-.3-.2-.4-.2-.2-.1-.3-.2-.5-.3-.2-.1-.3-.3-.4-.4-.1-.2-.2-.4-.2-.7 0-.3.1-.5.2-.7.1-.2.3-.4.4-.6.2-.2.3-.3.5-.4.2-.1.3-.2.4-.2-.4-.3-.8-.7-1.1-1.2-.3-.4-.4-1-.4-1.6 0-.5.1-.9.3-1.3.2-.4.4-.8.8-1.2.3-.3.8-.6 1.3-.8.5-.2 1.1-.3 1.8-.3.4 0 .9.1 1.4.2.5.2.9.4 1.2.7.2-.3.6-.6.9-.7s.9-.2 1.5-.2v1.6zm-5.5 8.7c-.3 0-.6 0-.8.1-.2.1-.4.2-.5.3-.1.1-.2.2-.3.4-.1.1-.1.3-.1.4 0 .4.2.7.6.9s1.1.3 2.1.3c.4 0 .7 0 1-.1.3-.1.5-.2.7-.3.2-.1.3-.2.4-.4s.1-.2.1-.3c0-.1 0-.2-.1-.4-.1-.1-.3-.3-.5-.4-.2-.1-.6-.2-1-.3-.5-.2-1-.2-1.6-.2zm2.2-6.8c0-.5-.2-.9-.5-1.2-.3-.3-.7-.5-1.2-.5s-1 .2-1.3.5c-.3.3-.5.7-.5 1.2s.2.9.5 1.2c.3.3.8.5 1.3.5s.9-.2 1.2-.5c.3-.4.5-.8.5-1.2zm3.7 1.8c0-.8.1-1.6.3-2.2.2-.7.5-1.2.9-1.7s.9-.8 1.4-1.1 1.2-.4 1.9-.4 1.3.1 1.9.4 1 .6 1.4 1.1c.4.5.7 1 .9 1.7.2.7.3 1.4.3 2.2s-.1 1.6-.3 2.2c-.2.7-.5 1.2-.9 1.7s-.9.8-1.4 1.1c-.6.3-1.2.4-1.9.4s-1.3-.1-1.9-.4c-.6-.3-1-.6-1.4-1.1-.4-.5-.7-1-.9-1.7-.2-.6-.3-1.4-.3-2.2zm6.5 0c0-1.2-.2-2-.5-2.6-.3-.5-.8-.8-1.5-.8s-1.2.3-1.5.8c-.3.5-.5 1.4-.5 2.6s.2 2 .5 2.6.8.8 1.5.8 1.2-.3 1.5-.8c.4-.6.5-1.4.5-2.6zm2.8-5.2h2.5l1.7 7 1.8-7h2.5l-3 10.3h-2.6L47 121.9zm11.2 5.6c0 1.1.2 1.8.7 2.3.4.5.9.7 1.5.7s1-.1 1.4-.3.6-.5 1-.9l1.8 1.1c-.5.7-1.1 1.3-1.8 1.6-.7.3-1.6.5-2.6.5-.7 0-1.3-.1-1.8-.4-.5-.3-1-.6-1.4-1.1-.4-.5-.7-1-.9-1.7-.2-.7-.3-1.4-.3-2.2s.1-1.6.3-2.2c.2-.7.5-1.2.9-1.7s.9-.8 1.4-1.1 1.2-.4 1.9-.4 1.3.1 1.8.4c.5.3 1 .6 1.3 1 .4.4.6.9.8 1.5.2.6.3 1.2.3 1.8v1h-6.3zm3.9-1.7c0-.7-.2-1.3-.6-1.7-.4-.4-.8-.6-1.4-.6-.6 0-1.1.2-1.4.6-.4.4-.5 1-.6 1.7h4zm3.9 6.5V122h2.3v1.8c.3-.6.7-1.1 1.1-1.4.4-.3 1-.5 1.8-.5v2.6h-.4c-.3 0-.6.1-.9.2-.3.2-.5.3-.7.5-.2.2-.4.4-.5.6-.1.2-.2.3-.2.4v6.3H66zm6.5 0V122h2.3v1.1l1.5-.9c.5-.3 1.1-.4 1.7-.4 1 0 1.8.3 2.3.9.5.6.8 1.5.8 2.5v7.1h-2.5v-6.7c0-.7-.1-1.2-.3-1.4-.2-.3-.5-.4-1-.4s-1 .1-1.4.4c-.4.2-.7.5-.9.7v7.5h-2.5zm10.6 0V122h2.2v1.1c.5-.4.9-.7 1.4-1 .5-.2 1-.3 1.7-.3.5 0 1 .1 1.5.4s.8.6 1 1.1c.2-.2.4-.4.7-.6s.5-.3.8-.5l.9-.3c.3-.1.7-.1 1.2-.1.3 0 .5 0 .8.1.3.1.6.3.8.5.3.2.5.5.6 1 .2.4.2.9.2 1.5v7.4h-2.5V125c0-.4-.1-.7-.3-1s-.5-.3-1-.4c-.3 0-.7.1-1.1.4-.4.2-.7.5-1 .8v7.4h-2.5V125c0-.4-.1-.7-.3-1-.2-.2-.5-.3-1-.4-.3 0-.7.1-1.1.4-.4.2-.7.5-1 .8v7.4h-2zm18-4.8c0 1.1.2 1.8.7 2.3.4.5.9.7 1.5.7s1-.1 1.4-.3.6-.5 1-.9l1.8 1.1c-.5.7-1.1 1.3-1.8 1.6-.7.3-1.6.5-2.6.5-.7 0-1.3-.1-1.8-.4-.5-.3-1-.6-1.4-1.1-.4-.5-.7-1-.9-1.7-.2-.7-.3-1.4-.3-2.2s.1-1.6.3-2.2c.2-.7.5-1.2.9-1.7s.9-.8 1.4-1.1 1.2-.4 1.9-.4 1.3.1 1.8.4c.5.3 1 .6 1.3 1 .4.4.6.9.8 1.5.2.6.3 1.2.3 1.8v1h-6.3zm4-1.7c0-.7-.2-1.3-.6-1.7-.4-.4-.8-.6-1.4-.6-.6 0-1.1.2-1.4.6-.4.4-.5 1-.6 1.7h4zm4 6.5V122h2.3v1.1l1.5-.9c.5-.3 1.1-.4 1.7-.4 1 0 1.8.3 2.3.9.5.6.8 1.5.8 2.5v7.1h-2.5v-6.7c0-.7-.1-1.2-.3-1.4-.2-.3-.5-.4-1-.4s-1 .1-1.4.4c-.4.2-.7.5-.9.7v7.5h-2.5zm11.1-10.4v-3.4h2.5v3.4h2v2h-2v5.8c0 .3.1.5.2.6.1.1.4.1.7.1.2 0 .4 0 .6-.1.2 0 .4-.1.6-.1v2c-.3 0-.7.1-1 .1h-1c-.9 0-1.6-.2-2-.6-.4-.4-.6-1-.6-1.8v-6.2h-1.4v-2h1.4zm12.9 10.4v-14.4h2.7v14.4h-2.7zm5.7 0v-14.4h2.9l5.7 9.8v-9.8h2.6v14.4h-2.6l-5.9-10.2v10.2h-2.7zm20.5-10.6c-.2-.6-.5-1-1-1.4-.4-.3-1-.5-1.6-.5-.6 0-1.1.1-1.5.4-.4.3-.6.7-.6 1.2 0 .4.2.8.5 1s.8.5 1.4.8 1.1.5 1.8.7c.6.2 1.2.5 1.8.9.6.4 1 .8 1.4 1.3.4.5.5 1.2.5 1.9 0 1.5-.4 2.6-1.3 3.3s-2.1 1.1-3.7 1.1c-.6 0-1.2-.1-1.7-.2s-1.1-.4-1.6-.7c-.5-.3-.9-.7-1.3-1.1-.4-.4-.6-.9-.8-1.4l2.3-1c.3.7.7 1.2 1.2 1.6.5.4 1.1.6 1.9.6.3 0 .7 0 1-.1.3-.1.5-.2.8-.3.2-.2.4-.4.5-.6.1-.2.2-.5.2-.9 0-.5-.2-.9-.5-1.2s-.8-.6-1.4-.8c-.6-.3-1.1-.5-1.8-.7-.6-.2-1.2-.5-1.8-.9-.6-.3-1-.8-1.4-1.2-.4-.5-.5-1.1-.5-1.8 0-.6.1-1.2.4-1.7s.6-.9 1-1.3c.4-.3.9-.6 1.5-.8.6-.2 1.1-.3 1.8-.3 1.2 0 2.2.3 3.1.8.9.6 1.6 1.4 2 2.4l-2.6.9zm14.1-3.8v2.3h-3.8v12.1h-2.7v-12.1h-3.8v-2.3h10.3zm3.3 0h3.4l4.1 14.4h-2.7l-.8-3.1h-4.5l-.9 3.1h-2.7l4.1-14.4zm.1 9h3.3l-1.6-6.2-1.7 6.2zm8.9 5.4v-14.4h2.9l5.7 9.8v-9.8h2.6v14.4h-2.6l-5.9-10.2v10.2h-2.7zm23-14.4v2.3h-3.8v12.1h-2.7v-12.1h-3.8v-2.3h10.3zm10.9 0h3.4l4.1 14.4h-2.7l-.8-3.1H219l-.9 3.1h-2.7l4.2-14.4zm0 9h3.3l-1.6-6.2-1.7 6.2zm15.8-5.2c-.2-.6-.5-1-1-1.4-.4-.3-1-.5-1.6-.5-.6 0-1.1.1-1.5.4s-.6.7-.6 1.2c0 .4.2.8.5 1 .4.3.8.5 1.4.8s1.1.5 1.8.7c.6.2 1.2.5 1.8.9s1 .8 1.4 1.3c.4.5.5 1.2.5 1.9 0 1.5-.4 2.6-1.3 3.3-.9.7-2.1 1.1-3.7 1.1-.6 0-1.2-.1-1.7-.2-.6-.2-1.1-.4-1.6-.7-.5-.3-.9-.7-1.3-1.1-.4-.4-.6-.9-.8-1.4l2.3-1c.3.7.7 1.2 1.2 1.6.5.4 1.1.6 1.9.6.3 0 .7 0 1-.1.3-.1.5-.2.8-.3.2-.2.4-.4.5-.6.1-.2.2-.5.2-.9 0-.5-.2-.9-.5-1.2s-.8-.6-1.4-.8c-.5-.3-1.1-.5-1.8-.7-.6-.2-1.2-.5-1.8-.9-.5-.3-1-.8-1.4-1.2-.4-.5-.5-1.1-.5-1.8 0-.6.1-1.2.4-1.7s.6-.9 1-1.3c.4-.3.9-.6 1.5-.8.6-.2 1.1-.3 1.8-.3 1.2 0 2.2.3 3.1.8.9.6 1.6 1.4 2 2.4l-2.6.9zm11.8 0c-.2-.6-.5-1-1-1.4-.4-.3-1-.5-1.6-.5-.6 0-1.1.1-1.5.4s-.6.7-.6 1.2c0 .4.2.8.5 1 .4.3.8.5 1.4.8s1.1.5 1.8.7c.6.2 1.2.5 1.8.9s1 .8 1.4 1.3c.4.5.5 1.2.5 1.9 0 1.5-.4 2.6-1.3 3.3-.9.7-2.1 1.1-3.7 1.1-.6 0-1.2-.1-1.7-.2-.6-.2-1.1-.4-1.6-.7-.5-.3-.9-.7-1.3-1.1-.4-.4-.6-.9-.8-1.4l2.3-1c.3.7.7 1.2 1.2 1.6.5.4 1.1.6 1.9.6.3 0 .7 0 1-.1.3-.1.5-.2.8-.3.2-.2.4-.4.5-.6.1-.2.2-.5.2-.9 0-.5-.2-.9-.5-1.2s-.8-.6-1.4-.8c-.5-.3-1.1-.5-1.8-.7-.6-.2-1.2-.5-1.8-.9-.5-.3-1-.8-1.4-1.2-.4-.5-.5-1.1-.5-1.8 0-.6.1-1.2.4-1.7s.6-.9 1-1.3c.4-.3.9-.6 1.5-.8.6-.2 1.1-.3 1.8-.3 1.2 0 2.2.3 3.1.8.9.6 1.6 1.4 2 2.4l-2.6.9zm4.8 10.6v-14.4h9.5v2.3h-6.8v3.4h4.9v2.3h-4.9v4h7v2.3H252zm21.1-14.4v2.3h-3.8v12.1h-2.7v-12.1h-3.8v-2.3h10.3zm-177 23.9h2.6l1.8 9.7 2-9.7h2.8l1.9 9.7 2-9.7h2.6l-3 14.4H106l-2.1-10.2-2.1 10.2H99l-2.9-14.4zm17.4 14.3v-14.4h5.7c.8 0 1.5.1 2.1.3s1.1.5 1.4.9c.4.4.6.8.8 1.4.2.5.3 1.1.3 1.7 0 .9-.2 1.7-.6 2.3s-1.1 1.1-2 1.4l3.2 6.4h-3l-2.7-5.8h-2.4v5.8h-2.8zm2.7-8h2c1.1 0 1.8-.2 2.2-.5.4-.3.6-.8.6-1.5s-.2-1.2-.6-1.5c-.4-.3-1-.5-1.7-.5h-2.5v4zm10.1 8v-14.4h2.7v14.4h-2.7zm14.7-14.3v2.3h-3.8v12.1h-2.7v-12.1h-3.8v-2.3H141zm1.6 14.3v-14.4h9.5v2.3h-6.8v3.4h4.9v2.3h-4.9v4h7v2.3h-9.7zm10.7-4.1v-2.1h4.9v2.1h-4.9zm18.6-3c0 2.4-.5 4.2-1.5 5.5s-2.5 1.9-4.5 1.9-3.5-.6-4.5-1.9-1.5-3.1-1.5-5.5.5-4.2 1.5-5.5c1-1.3 2.5-1.9 4.5-1.9s3.5.6 4.5 1.9c1 1.3 1.5 3.1 1.5 5.5zm-2.8 0c0-1.7-.3-3-.8-3.8-.5-.8-1.4-1.3-2.5-1.3s-2 .4-2.5 1.3c-.5.8-.8 2.1-.8 3.8 0 1.7.2 3 .8 3.8.5.8 1.4 1.3 2.5 1.3s2-.4 2.5-1.3c.6-.9.8-2.1.8-3.8zm4.7 7.1v-14.4h9.2v2.3h-6.4v3.4h4.8v2.3h-4.8v6.3h-2.8zm10.6 0v-14.4h9.2v2.3h-6.4v3.4h4.8v2.3h-4.8v6.3h-2.8zm9.2-10.6l2.1-4.3h1.2l2.1 4.3h-1.3l-1.4-3.1-1.4 3.1h-1.3zm7.1 10.6v-2.8h2.7v2.8h-2.7z" fill="#fff"/></svg>