<svg xmlns="http://www.w3.org/2000/svg" xmlns:xlink="http://www.w3.org/1999/xlink" viewBox="0 0 320 50"><defs><clipPath id="a"><rect x="-32768" y="-32717" width="65535" height="65535" fill="none"/></clipPath></defs><g opacity="0.8" style="isolation:isolate"><g clip-path="url(#a)"><path d="M48.2444,19.4322l-41.12,11.791a2.48357,2.48357,0,0,1-3.063-1.697l-3.071-10.71-.011-.04-.307-1.071-.015-.053-.031-.106-.034-.119-.038-.132a2.48113,2.48113,0,0,1-.01-.784.65391.65391,0,0,1,.028-.151,1.41171,1.41171,0,0,1,.038-.168.28508.28508,0,0,1,.034-.082c.015-.047.03-.094.036-.124a1.31569,1.31569,0,0,1,.077-.18l.047-.085a.62977.62977,0,0,1,.066-.119l.019-.034a2.82432,2.82432,0,0,1,.536-.626c.022-.021.036-.024.058-.045l.014-.004c.071-.049.13-.095.202-.144l.035-.024a2.35783,2.35783,0,0,1,.573-.25l1.018-.292a.43705.43705,0,0,1,.136-.025c.039-.011.089-.04.128-.051l4.588-1.316a1.393,1.393,0,0,1,1-1.503l27.542-7.897a1.40132,1.40132,0,0,1,1.644.745l5.99-1.718a2.668,2.668,0,0,1,.325-.064c.026-.008.056-.002.083-.01.039-.011.07-.006.109-.017a2.49819,2.49819,0,0,1,2.545,1.789l3.439,11.992a2.445,2.445,0,0,1,.093.775c-.005.03.002.056-.004.086a.199.199,0,0,0-.003.087,2.51169,2.51169,0,0,1-.492,1.229c-.01.017-.032.038-.042.055a2.3527,2.3527,0,0,1-.606.531.13492.13492,0,0,1-.062.032.76591.76591,0,0,1-.085.053,1.26068,1.26068,0,0,1-.306.131l-1.111.319Z" fill="#fff"/></g></g><path d="M35.2909,5.0459a.07946.07946,0,0,0-.057.102l.114.396a.07946.07946,0,0,0,.102.057l.621-.178.622,2.168a.07945.07945,0,0,0,.102.057l.397-.114a.07819.07819,0,0,0,.056-.102l-.621-2.168.621-.179a.07946.07946,0,0,0,.057-.102l-.114-.396a.07983.07983,0,0,0-.102-.057Zm-1.984.568a.07886.07886,0,0,0-.056.102l.762,2.658a.07946.07946,0,0,0,.102.057l1.467-.421a.07981.07981,0,0,0,.057-.102l-.114-.397a.07819.07819,0,0,0-.102-.056l-.991.284-.163-.569.7-.201a.07945.07945,0,0,0,.057-.102l-.114-.396a.07946.07946,0,0,0-.102-.057l-.701.201-.167-.582.992-.284a.07983.07983,0,0,0,.057-.102l-.114-.397a.07818.07818,0,0,0-.102-.056Zm-2.062.592c-.027.007-.036.024-.059.045l-.123.221a.10643.10643,0,0,0-.007.074l.334,1.164c.007.026.024.036.045.058l.221.123a.10574.10574,0,0,0,.074.007l.78-.223a.13875.13875,0,0,1,.074.007l.017.009a.11147.11147,0,0,1,.045.059l.11.383c.008.027-.002.044-.007.074l-.01.017a.10646.10646,0,0,1-.058.046l-.384.11a.15081.15081,0,0,1-.074-.008l-.017-.009a.10767.10767,0,0,1-.045-.059l-.03-.106a.07852.07852,0,0,0-.102-.056l-.397.113a.08081.08081,0,0,0-.057.103l.144.502c.008.026.025.036.046.058l.221.123a.10546.10546,0,0,0,.074.008l1.163-.334c.027-.008.036-.025.059-.045l.122-.222a.1034.1034,0,0,0,.008-.073l-.334-1.164c-.007-.026-.024-.036-.045-.058l-.221-.123a.10642.10642,0,0,0-.074-.007l-.78.223c-.027.008-.044-.002-.074-.007l-.017-.01a.101.101,0,0,1-.045-.058l-.11-.384c-.008-.026.002-.043.007-.073l.01-.017a.10645.10645,0,0,1,.058-.046l.384-.11a.146.146,0,0,1,.073.008l.017.009a.109.109,0,0,1,.046.059l.03.105a.07981.07981,0,0,0,.102.057l.397-.114a.07819.07819,0,0,0,.056-.102l-.144-.502c-.007-.027-.024-.036-.045-.059l-.225-.136a.10574.10574,0,0,0-.074-.007l-1.163.334Zm-2.248.644c-.027.008-.036.025-.059.046l-.122.221a.10542.10542,0,0,0-.008.074l.334,1.163c.007.027.024.036.045.059l.221.122a.1062.1062,0,0,0,.074.008l.78-.224a.14862.14862,0,0,1,.074.008l.017.009a.10018.10018,0,0,1,.045.059l.11.383c.008.026-.002.043-.007.074l-.01.017a.101.101,0,0,1-.058.045l-.384.11c-.026.008-.043-.002-.073-.007l-.017-.01a.10641.10641,0,0,1-.046-.058l-.03-.106a.07946.07946,0,0,0-.102-.057l-.397.114a.07818.07818,0,0,0-.056.102l.144.502c.007.027.024.036.045.059l.221.123a.10654.10654,0,0,0,.074.007l1.164-.334c.026-.007.035-.024.058-.045l.123-.221a.10574.10574,0,0,0,.007-.074l-.334-1.163c-.007-.027-.024-.036-.045-.059l-.221-.122a.10041.10041,0,0,0-.074-.008l-.78.224a.15081.15081,0,0,1-.074-.008l-.017-.009a.10776.10776,0,0,1-.045-.059l-.11-.383c-.008-.027.002-.044.008-.074l.009-.017a.10019.10019,0,0,1,.059-.045l.383-.11c.026-.008.043.002.074.007l.017.01a.10516.10516,0,0,1,.045.058l.03.106a.08018.08018,0,0,0,.102.057l.397-.114a.07982.07982,0,0,0,.057-.102l-.144-.503c-.008-.026-.025-.036-.046-.058l-.225-.136a.10362.10362,0,0,0-.073-.007l-1.164.333Zm-1.457,1.406c.028.049.06.111.089.16l.359.555-.45.129.011-.661A.46635.46635,0,0,0,27.5399,8.25591Zm-.474-.852a.08726.08726,0,0,0-.06.089l-.031,2.885a.08784.08784,0,0,0,.109.083l.384-.11a.08613.08613,0,0,0,.06-.089l.015-.548.793-.227.29.46a.087.087,0,0,0,.098.044l.383-.11a.07983.07983,0,0,0,.057-.102l-.008-.027-1.555-2.43a.08617.08617,0,0,0-.098-.043Zm-4.31,1.236a.07947.07947,0,0,0-.057.102l.114.397a.07851.07851,0,0,0,.102.056l.622-.178.622,2.168a.07947.07947,0,0,0,.102.057l.396-.114a.07946.07946,0,0,0,.057-.102l-.622-2.168.621-.178a.08017.08017,0,0,0,.057-.102l-.114-.397a.07945.07945,0,0,0-.102-.057Zm-.939.269a.07817.07817,0,0,0-.056.102l.466,1.626c-.042-.045-.074-.107-.112-.139l-1.168-1.282a.09171.09171,0,0,0-.095-.03l-.423.121a.07982.07982,0,0,0-.057.102l.762,2.658a.07949.07949,0,0,0,.103.056l.396-.113a.07982.07982,0,0,0,.057-.102l-.467-1.627c.042.046.074.108.112.14l1.169,1.282a.09463.09463,0,0,0,.094.03l.424-.121a.08031.08031,0,0,0,.056-.102l-.762-2.658a.07947.07947,0,0,0-.102-.057Zm-2.687,1.758c.029.049.061.111.089.16l.36.556-.45.128.011-.661c-.006-.07-.008-.126-.01-.183m-.486-.848a.08505.08505,0,0,0-.06.089l-.032,2.885a.0883.0883,0,0,0,.11.083l.383-.11a.08689.08689,0,0,0,.061-.089l.014-.548.794-.227.289.46a.08888.08888,0,0,0,.099.044l.383-.11a.07946.07946,0,0,0,.057-.102l-.008-.027-1.555-2.43a.08824.08824,0,0,0-.099-.043Zm-2.631.754a.08081.08081,0,0,0-.057.103l.114.396a.07946.07946,0,0,0,.102.057l.621-.178.622,2.168a.07982.07982,0,0,0,.102.057l.397-.114a.07981.07981,0,0,0,.057-.102l-.622-2.169.621-.178a.07946.07946,0,0,0,.057-.102l-.114-.397a.07887.07887,0,0,0-.102-.056Zm-1.891.543c-.026.007-.036.024-.058.045l-.123.221a.11122.11122,0,0,0-.008.074l.334,1.163c.008.027.025.036.045.059l.222.123a.10362.10362,0,0,0,.073.007l.78-.224a.14862.14862,0,0,1,.074.008l.017.009a.109.109,0,0,1,.046.059l.11.383a.14867.14867,0,0,1-.008.074l-.009.017a.1034.1034,0,0,1-.059.045l-.383.11c-.027.008-.044-.002-.074-.007l-.017-.01a.10094.10094,0,0,1-.045-.058l-.031-.106a.07946.07946,0,0,0-.102-.057l-.397.114a.07994.07994,0,0,0-.056.102l.144.503c.008.026.025.036.045.058l.222.123a.10362.10362,0,0,0,.073.007l1.164-.333c.026-.008.036-.025.058-.046l.123-.221a.10572.10572,0,0,0,.007-.074l-.333-1.163c-.008-.027-.025-.036-.046-.059l-.221-.122a.10546.10546,0,0,0-.074-.008l-.78.224c-.026.008-.043-.002-.073-.007l-.017-.01a.10641.10641,0,0,1-.046-.058l-.11-.384a.15081.15081,0,0,1,.008-.074l.009-.017a.10769.10769,0,0,1,.059-.045l.383-.11c.027-.008.044.002.074.008l.017.009a.10018.10018,0,0,1,.045.059l.031.105a.07945.07945,0,0,0,.102.057l.396-.114a.07947.07947,0,0,0,.057-.102l-.144-.502c-.008-.027-.025-.036-.046-.059l-.221-.123a.10362.10362,0,0,0-.073-.007Zm-1.309.375a.07819.07819,0,0,0-.056.102l.466,1.626c-.042-.045-.074-.107-.112-.139l-1.186-1.292a.09319.09319,0,0,0-.094-.03l-.423.122a.07946.07946,0,0,0-.057.102l.762,2.657a.07982.07982,0,0,0,.102.057l.397-.114a.07946.07946,0,0,0,.057-.102l-.463-1.613c.042.045.074.108.112.14l1.168,1.282a.09564.09564,0,0,0,.095.03l.423-.122a.07946.07946,0,0,0,.057-.102l-.762-2.657a.08016.08016,0,0,0-.102-.057Zm-3.094.887a.07852.07852,0,0,0-.056.102l.113.397a.07852.07852,0,0,0,.102.056l.199-.056.485,1.692-.198.057a.07946.07946,0,0,0-.057.102l.114.397a.07818.07818,0,0,0,.102.056l.965-.277a.07946.07946,0,0,0,.057-.102l-.114-.396a.07946.07946,0,0,0-.102-.057l-.198.057-.486-1.692.199-.057a.07922.07922,0,0,0,.056-.102l-.114-.397a.07946.07946,0,0,0-.102-.057Zm35.088-3.536c-.028-.049-.062-.068-.091-.117-.013.004-.683-.835-.683-.835l-.066-.081-.047-.015-.278.08-.019.034-.005.03.004.013-.008.074c-.056.402-.095.814-.152,1.217l-.007.073-.002.044.008.026.034.019.03.006.304-.087.032-.038.017-.091c.015-.247.052-.516.071-.75l.015-.047.009-.017.014-.004.034.019.091.117c.111.14.236.275.334.419l.095.13.038.032.047.015.066-.019c.07-.005.155-.058.225-.064l.036-.025.009-.017-.007-.026-.021-.023Zm-2.065-.467-.05-.072-.068-.037-.087-.004-.255.059c-.374.093-.757.203-1.137.326-.51.218-1.112.262-1.618.493l-.031-.006-.119.034-.068.063-.013.204a6.50437,6.50437,0,0,1,.315.997c.061.212.108.427.169.638.104.414,1.188,4.196,1.547,5.395l.009.083.102.257.072.051.074.007.176-.036a5.87734,5.87734,0,0,1,.819-.235l.178-.079.053-.116-.002-.056-.137-.476c-.244-.803-.423-1.625-.707-2.416l-.026-.193.028-.051c.009-.017.006-.03.032-.038.023-.02.053-.015.079-.022.185-.053.401-.101.569-.163.04-.012.414-.105.414-.105l.171-.049.059-.045.045-.042.025-.064-.002-.057-.106-.37c.007-.074-.053-.185-.05-.272a1.60325,1.60325,0,0,1-.125-.336l-.038-.032-.051-.029-.073-.007-.093.026c-.366.12-.767.22-1.141.313l-.053.015c-.026.008-.045.042-.079.023-.017-.009-.017-.009-.021-.023l-.017-.009-.026-.193c-.154-.485-.292-1.018-.463-1.513l.009-.117.029-.051.172-.049.022-.021.291-.083c.233-.038.78-.224.999-.258a2.51134,2.51134,0,0,1,.314-.104l.087-.097.003-.087.006-.03A4.47674,4.47674,0,0,0,42.7419,8.3749Zm-6.629,5.278c.294,1.275.821,2.812,1.141,4.08l.103.257.071.051.074.007.176-.036c.049-.028.174-.093.238-.068a4.45158,4.45158,0,0,1,.582-.167l.177-.08.053-.115-.002-.056-.137-.476c-.244-.803-.426-1.638-.707-2.416l-.026-.193.075-.136.004.013c.008.027.215-.047.242-.055.342-.055.64-.212.986-.254l.058-.045.046-.042.024-.064-.002-.057a3.44449,3.44449,0,0,1-.155-.642.51161.51161,0,0,0-.097-.187c-.011-.04-.023-.18-.07-.195l-.051-.028-.074-.008-.092.027c-.085.053-.546.142-.661.19-.031-.006-.148-.015-.085.053.002.056-.021-.023-.038-.032a.5774.5774,0,0,1-.251.072l-.172.049c-.136.025-.1-.1-.144-.202-.087-.204-.12-.467-.207-.671-.056-.098-.059-.355-.138-.432l-.117-.41.009-.117.028-.051.172-.05c.349-.128.933-.239,1.283-.367a.9115.9115,0,0,0,.188-.04c.023-.021.017-.091.059-.046l.083-.009.087-.097.004-.087.005-.03-.098-.344.019-.034-.08-.177-.114-.397-.049-.071-.068-.038-.087-.004-.255.059c-.882.267-1.911.519-2.773.809l-.119.034-.068.063-.013.204.053.085-.007.074.045.058.019.166.083.091c.004.013-.022.121.008.127.176.664.34,1.333.582,1.979l.072.251a.261.261,0,0,1,.013.097C36.0679,13.5939,36.0829,13.6469,36.1129,13.6529Zm-1.486,2.701c.038.132.089.261.127.393.019.066.024.136.04.189l.041.246c-.032.138-.031.238-.149.328a.54724.54724,0,0,1-.166.12c-.013.003-.141.055-.141.055l-.153.015-.152-.028-.094-.03-.042-.046-.03-.005-.136-.176-.104-.213c-.37-1.44-.876-2.955-1.172-4.186l-.032-.163-.004-.113.007-.074.074-.192.172-.15a2.72383,2.72383,0,0,1,.317-.091l.117.009.206.07.093.074.098.143.319,1.111C34.1109,14.5559,34.3919,15.4339,34.6269,16.3539Zm.201-4.436a1.98674,1.98674,0,0,0-.575-.708,1.929,1.929,0,0,0-.412-.24,2.32524,2.32524,0,0,0-.497-.086,1.278,1.278,0,0,0-.608.074c-.132.038-.268.063-.387.097-.093.026-.174.093-.266.119a2.26042,2.26042,0,0,0-.591.384c-.099.057-.195.271-.265.376a3.33831,3.33831,0,0,0-.186.397,1.65014,1.65014,0,0,0-.009.919c.353,1.329.823,2.969,1.287,4.539l.07.194a2.37159,2.37159,0,0,0,.524.68.28917.28917,0,0,1,.174.107c.038.032.222.123.256.142l.395.13a2.6527,2.6527,0,0,0,1.212-.162.23421.23421,0,0,0,.227-.108c.125.036.245-.142.381-.167a1.23113,1.23113,0,0,1,.25-.228c-.029-.049.119-.135.137-.169l.204-.387a5.1921,5.1921,0,0,0,.136-.526.79984.79984,0,0,1,.013-.204l-.021-.323a6.50276,6.50276,0,0,0-.226-.836l-.688-2.35A13.78252,13.78252,0,0,0,34.8279,11.9179Zm-3.665,3.483-.05-.071-.122-.079-.114.003c-.432.139-.882.268-1.314.406a5.884,5.884,0,0,0-.682.167l-.144.098c-.1.101.014.297.044.403a1.4227,1.4227,0,0,0,.146.459l.055.041.06.011.18-.022a8.44634,8.44634,0,0,1,.819-.235,5.00822,5.00822,0,0,1,.767-.22.77623.77623,0,0,1,.344-.099l.144-.098.028-.152c-.012-.039-.137-.475-.131-.506A.10342.10342,0,0,1,31.1629,15.4009Zm-1.521,4.128c.015-.047-.057-.098-.068-.138a1.14936,1.14936,0,0,0-.035-.219l-.06-.111-.164-.024-.203.043a3.11625,3.11625,0,0,0-.485.154c-.325.064-.697.214-1.031.295l-.127.008c-.013.004-.055-.041-.072-.051-.021-.023-.028-.049-.049-.072-.152-.528-.313-1.04-.447-1.56-.027-.092-.067-.181-.097-.287l.021-.077.058-.046.185-.053a.68429.68429,0,0,1,.361-.089c.202-.044.442-.155.631-.195l.062-.032.074-.093.017-.091a2.77921,2.77921,0,0,0-.235-.719c.028-.051-.015-.153-.044-.202l-.049-.072-.038-.032-.087-.004-.185.053a1.57938,1.57938,0,0,1-.497.114,2.62952,2.62952,0,0,1-.534.182l-.112-.04-.053-.085.006-.03-.026-.093c-.118-.409-.249-.916-.389-1.305l-.029-.149.021-.077.051-.072.138-.068c.181-.067.688-.097.799-.258.017.109.257-.002.249-.029.11-.017.291-.083.418-.091l.145-.042.059-.045.019-.034c.033-.181-.093-.374-.099-.544-.029-.049-.025-.236-.099-.244-.013-.096-.036-.275-.125-.336l-.081-.034-.023.021-.001.043-.031-.005-.037-.032c-.569.163-1.204.345-1.789.498a8.60983,8.60983,0,0,1-1.009.275l-.315.148-.034.081-.002.044c.722,2.468,1.384,4.926,2.129,7.374l-.002.043.041.046.152.028.079-.023c.969-.264,1.953-.574,2.956-.819l.191-.083.058-.146.006-.03Zm-5.788-5.065.005-.03-.03-.106-.017-.01-.034-.119.005-.03-.087-.304-.053-.085-.128-.049-.189.04-.098.057c-.306.03-.601.2-.907.231-.495.171-.961.29-1.424.423a1.87743,1.87743,0,0,1-.374.093c-.146.041-.297.113-.446.142l-.312.061-.022.02-.002.044-.079.023-.034.081.094.33-.019.034.133.463.114.297.091.017c.071-.05.122-.021.205-.031.078-.079.193-.026.286-.053a2.24342,2.24342,0,0,1,.3-.1c.004-.087.115-.048.159-.046l.198-.057.043.002.135.219c.108.427.203.858.341,1.29.023.08.055.142.078.221.212.741.411,1.485.624,2.225l.299,1.045c.099.344.184.691.309,1.027l.059.155.011.04.063.068.107.026.146-.041.03.005.344-.098.022-.021.093-.027.017.01.194-.07.114-.004.168-.063.113-.104.017-.091-.059-.054.033-.038-.002-.057-.021-.022-.061-.212c-.557-1.944-1.044-3.693-1.615-5.633l-.042-.245.051-.072.036-.025.232-.038a2.25734,2.25734,0,0,1,.406-.13c.019-.034.042-.055.076-.036l.206-.031.128-.051.059-.045.039-.112-.007-.126-.055-.142-.021-.023-.019-.066Zm-2.939,6.967c-.524-1.925-1.081-3.668-1.589-5.64l-.098-.344-.021-.023-.099-.344c-.004-.013-.064-.024-.064-.024a.12811.12811,0,0,0-.1,0c-.027.008-.044-.002-.07.006l-.172.049a1.0307,1.0307,0,0,1-.278.08.29835.29835,0,0,0-.138.068,1.2923,1.2923,0,0,0-.391.083l-.098.057-.053.115-.003.087.185.648c.107.37.355,1.186.355,1.186s.65,2.318.728,2.639c.013-.004.03.006.025.036a.09851.09851,0,0,0-.002.043c.203.758.44,1.534.656,2.288l.144.502.066.082.085.047.159-.046a.54437.54437,0,0,0,.309-.117,1.1339,1.1339,0,0,0,.295-.07,1.09,1.09,0,0,0,.206-.031l.225-.064.019-.034.016-.191a3.86273,3.86273,0,0,0-.233-.763C21.0319,21.6399,20.9109,21.5179,20.9149,21.4309Zm-5.364-1.739-.113.004-.067-.081-.049-.172a2.52764,2.52764,0,0,0-.078-.321c-.157-.198-.102-.558-.25-.773a4.16707,4.16707,0,0,1-.136-.576l-.046-.159.019-.034.157-.102c.053-.015.234-.081.285-.053l.059-.045a.19844.19844,0,0,0,.126-.008l.165.024.111.04.174.208a2.73661,2.73661,0,0,1,.189.46,4.20963,4.20963,0,0,1,.201.701c-.017.091.055.242.025.336l-.047.186-.104.087-.018.034-.055.058-.248.086-.017-.01A.462.462,0,0,1,15.5509,19.6919Zm3.436,3.25a1.22531,1.22531,0,0,1-.282-.434c-.418-.61-.832-1.307-1.237-1.92l-.135-.219-.036-.176-.02-.023.066-.019.234-.281.162-.333.019-.134c.045-.042.009-.218.011-.261a.64353.64353,0,0,0-.033-.363c.062-.132-.053-.385-.091-.517a1.08805,1.08805,0,0,0-.083-.291c-.029-.049-.035-.219-.086-.248l-.094-.33-.084-.191-.2-.4-.178-.221-.252-.229-.085-.047-.147-.115-.24-.088-.127.007-.128-.049-.401.001-.17.005-.019.035-.026.007c-.085-.047-.246.042-.325.065a1.30081,1.30081,0,0,0-.314.104,3.77378,3.77378,0,0,0-.77.207,1.77055,1.77055,0,0,0-.454.115l-.304.087-.081.067-.017.19.102.357c.071.295,2.006,6.995,2.006,6.995l.097.087h.1l.172-.05a.99169.99169,0,0,0,.202-.043c.037-.068.085-.153.119-.034.122-.021.309-.118.423-.122l.194-.07.032-.038.006-.03.032-.038.026-.107c-.288-.905-.576-1.91-.824-2.826l.019-.134.111-.061.057-.002.125.036.147.215c.435.82.961,1.556,1.41,2.372l.087.104.062.068.121.022.114-.004c.194-.07.466-.119.657-.202.038.032.119-.035.159-.046l.185-.053.058-.045.034-.082.011-.06-.02-.023-.008-.026Zm-6.571-6c-.038-.032-.144-.002-.18.023a2.86416,2.86416,0,0,0-.334.082c-.008-.027-.344.098-.361.089l-.022.021c-.053.015-.255.058-.284.109l-.056.102.114.998a7.15381,7.15381,0,0,1,.135.92c.072.451.16.956.215,1.398l-.066.019c.066-.019.073.007.092.073l-.003.188a.09126.09126,0,0,1,.081.033c-.04.012-.055.059-.06.089l.034.219.049.172-.003.087-.029.051-.1-.1-.038-.132c-.201-.4-.422-.923-.64-1.333-.1-.301-.316-.654-.403-.958-.029-.049-.207-.47-.29-.461.11-.017-.191-.517-.189-.56l-.169-.339-.102-.056-.073-.008-.582.167-.032.038-.278.08-.068.062-.03.095.05.472c.127,1.094.315,2.199.394,3.321l.057.198-.013.104.022.08.017.009.019.066-.056.002-.116-.053-.083-.291c-.223-.479-.513-1.04-.684-1.535-.257-.599-.639-1.333-.844-1.947l-.142-.146-.091-.016a2.12362,2.12362,0,0,0-.498.157,1.78513,1.78513,0,0,0-.582.167l-.064.075-.019.034.08.278.234.419a13.20428,13.20428,0,0,0,.589,1.205c.269.638.577,1.265.873,1.896.187.404.388.805.571,1.196a.8726.8726,0,0,0,.154.285.71152.71152,0,0,0,.157.298l.053.185c.182.234.269.639.441.89a.24486.24486,0,0,0,.114.196c-.032.038.013.096.047.115l.059.155.045.059.051.028.157-.002c.066-.019.234-.081.313-.104a.67056.67056,0,0,0,.225-.065c.115-.047.316-.047.403-.144l.05-.072-.002-.156c-.013-.297-.085-.648-.099-.945a4.69538,4.69538,0,0,0-.091-.618c.032-.138-.078-.321-.029-.449l-.038-.233c-.034-.019-.032-.062-.013-.096-.042-.346-.086-.848-.145-1.203-.019-.066-.07-.295-.015-.354-.008-.026-.031-.105-.012-.14l.051.029.114.196c.021.123.142.246.166.382.076.064.082.234.163.268.049-.029.149-.029.068.038-.162-.068.192.517.211.583.259.555.509,1.128.791,1.662l.216.453.03.106.148.115.149-.028a3.39871,3.39871,0,0,0,.625-.165l.238-.069.085-.053.049-.128-.044-.402c-.286-2.494-.566-4.818-.827-7.276l-.038-.132Zm-9.868.068,3.374,11.768a.67551.67551,0,0,0,.834.462l41.781-11.981a.67366.67366,0,0,0,.462-.833l-3.374-11.768a.67551.67551,0,0,0-.834-.462l-6.121,1.755.227.794,5.976-1.714,3.291,11.477-41.49,11.897-3.295-11.49,5.804-1.664-.227-.794-5.95,1.706A.67859.67859,0,0,0,2.5479,17.0099Zm43.634-12.755,3.492,12.177a1.14033,1.14033,0,0,1-.783,1.413L6.6999,29.9429a1.13884,1.13884,0,0,1-1.412-.783l-3.492-12.177a1.139,1.139,0,0,1,.782-1.413l6.188-1.774.072.251-6.187,1.775a.8918.8918,0,0,0-.613,1.106l3.491,12.177a.893.893,0,0,0,1.106.613l42.192-12.098a.893.893,0,0,0,.613-1.106l-3.496-12.191a.89259.89259,0,0,0-1.106-.613l-6.294,1.805-.072-.251,6.294-1.805a1.15981,1.15981,0,0,1,1.416.796" fill="#ed1c24"/></svg>