<svg xmlns="http://www.w3.org/2000/svg" viewBox="0 0 320 50"><path d="M52.1799,36.9646l-.055-.024h-.044l.077.073Zm.11,1.656h-.044v.072h.044Zm.176-.3-.022-.072-.022.024Zm.022-1.2-.066-.024h-.022v.072l.044.048Zm.088.384v.204h.022Zm.022.18v.024l.032.024Zm.055.24-.055.048h-.088l.044.072-.022.156.187.024.022-.072-.044-.156.066-.048.043-.096-.109-.048Zm.198-.42h-.045v.06l.045.024Zm0,.72v-.048l.044-.156-.067.06Zm.22.096v-.048l-.089-.024-.022.048.044.048Zm.384.419-.044.025-.022.048h.044Zm.022-.791-.044.048.044.108.044.024.077-.024-.055-.348Zm.275-.444-.044.06-.022.048.088-.024Zm.198-.456-.022.048-.11.049-.022.119h.088l.187-.216-.099-.084Zm-.022.612-.022.048.022.072.143.072.088-.024.022-.096-.187.072Zm.275-.18v-.048l-.022-.048-.132-.024v.048Zm.066.72.022-.048v-.048l-.11-.084h-.187l.055.084.132.024Zm.044-1.055-.044.023-.022.024.066.288Zm.044.659v-.072l-.022-.048-.066-.024.066.168.132.144.033-.048Zm.165-.659h-.055l-.044.095.099-.024Zm0,.239-.022-.024-.055-.024-.11.024.066.096.121.048Zm.132.516.022.072v-.072Zm.066-.78v-.048l-.044.024v.049Zm.088.612v.048l.066-.024-.044-.048Zm-.11-.024-.022-.024h-.044l-.066.072.088.144h-.066l-.187.18-.022.072.143.12.044-.048.088.024.11.264.066-.024-.044-.024v-.144l.066-.072.022-.096h-.088l-.044-.048.022-.06-.022-.12-.066-.024Zm.242.24-.022-.024h-.044v.048l.044.024Zm0-.096h.099v-.048h-.099Zm.253-.24h-.044l-.044.072.088.216Zm0,.9-.044.024.022.023Zm.154-.564h-.088l-.198-.096.132.276.088.072v-.204Zm-.022.516.022-.048-.022-.025-.088.097Zm0-.984-.022.048.022.06h.044l.022-.06-.022-.048Zm.164.3-.077-.024.034.048Zm0,.588-.043.023.022.025Zm-.077.42v.048l.077.095h.045l.022-.047-.022-.072Zm.32-.612.044.024.109-.024v-.156h-.044Zm-.198-.42-.023.048v.096l-.043.096v.108l.043.048h.045l.176-.228.088-.024.164.024-.022-.096-.077-.048-.241-.048Zm.78.144-.066.024.044.048Zm.022.276v-.048l-.022-.048-.066-.036-.088.084Zm.143.192-.044.023.022.049Zm.022-.12.022-.048-.044-.18Zm.022.683-.044.024.022.024Zm.088-1.079-.022-.048-.066-.048-.088.024-.044.072.088.024.022.096.088-.024Zm.154-.24-.066.024-.066.048.066.096.044-.024Zm.099.216-.055.024-.022.072.099-.072Zm.088,0-.022.048v.024l.044-.048Zm.649.984v.047l.044.048.044-.119-.044-.024Zm.187-1.152-.033.048-.154.072.066.192.121-.168.022-.096Zm.22-.024v.048l.088.096-.022-.216Zm.22.144v.048l.099.024Zm.253.372-.044-.024-.11.048.087.096.045-.024Zm.219.587-.021.049.055.024Zm.121-.959v-.024h-.065Zm.176.564.044.024h.044l.022-.096h-.044Zm.044-.468-.044.024-.088.144h.11l.132.132v-.156Zm.132-.096-.044-.096-.044-.024-.088.024.022.048.088.048Zm.099.024-.044.024.022.024Zm.374,0-.022-.024-.022-.048-.088-.024-.066.048v.048l.088.024Zm.077.348-.022-.048-.022-.024Zm0-.396v.048h.066v-.072Zm.11.324-.044-.036-.022.06.022.048Zm.198-.42-.044.024.022.024Zm35.277-.647h-.044l-.022.083h.066Zm.264,1.403-.022.024.044.096Zm.231-.396v-.048l-.022-.024Zm.022.816v-.097l-.088-.048-.077.025Zm.044-.756-.132.048-.055.048-.022.096.121.024.088-.048Zm.044.264h-.066l.022.072h.044Zm-1.535-.324-.066-.072-.088.072.066.084.022-.06Zm.209.576-.044.024v.048h.044Zm.066-.132h-.11l.044.048h.044Zm.066-.444-.044.024v.204Zm-.044-.216v.072l.066-.024Zm.363-.072v.12l.066.072v-.096Zm.176.264-.066.024.022.024Zm.209-.168-.055-.024-.11.096v.048h.066Zm.132.636v-.048l-.11-.048-.022-.096-.077-.024.022.072Zm.044-.492.022-.048-.044-.048h-.088l.066.228.088-.024.066-.132.066-.048.044.096.055.024.022-.048-.022-.048-.099-.048h-.088l-.044.096Zm.176-.408v.216h.187l.022-.024-.11-.168Zm.209-.324v.096l.066-.048-.022-.048Zm.242-.095-.022-.025-.044.048Zm.044.755-.044-.024h-.088l-.066.048-.022.024Zm.099-.096v.048l.066.072.022-.396Zm.329-.048h-.109l-.044-.024.022.072.087.024Zm.067.096-.022.048.054.072.045-.024-.022-.096Zm-.044.936v.048l.044.071.186-.023Zm.297-.984.065-.096-.043.024Zm.384.12-.044-.024h-.044l-.044.072.044.024Zm0,.252-.044.024.022.191Zm.242.048-.044-.024-.022.048.044.024Zm.022-.3h-.044l-.044.048.066.132Zm.165.204-.022-.048-.022-.036-.077.084.055.024Zm-.044.263.022-.023.022-.048-.022-.048-.044-.024Zm.33-1.427v-.048l-.044.024Zm-.088.72v.072l.132.048-.044-.096Zm.231.168v.048l.044.048.044-.072Zm.198-.264-.044-.06h-.044l-.044.084.066.024Zm-.044-.204.022.048.066.024-.022-.048Zm1.693.12.022-.024-.022-.048h-.055Zm0,.792.022-.048-.044-.024-.033.54Zm.11-.444-.044.024.044.168Zm-.088.144v.048l.066.06.022-.06-.044-.048Zm.902-.192-.033-.048h-.044Zm-.253.192h-.044l-.044.048.066.18.11.072.11-.024.055-.12-.099-.072-.044.096-.088.024v-.276Zm.154.468.022.048h.077l-.077-.072Zm.363-.9h-.066l.066.072Zm.132,1.391-.044.024-.022.048h.066Zm-50.039-.707-.022-.048v-.228l.044-.096v-.396l-.022-.048v-.24l.066-.144.154-.156.143-.047.264-.025.297.048.11-.023.066.071.142-.096.067.048h.242l.043-.023.044.095h.077l.067-.095h.802l.121.071.176-.048h.583l.044.024h.319l.176-.047.209.047.494-.047.044.023h.275l.044-.023h.374l.143.047h.451l.044-.024h.473l.044.024.088-.047h.626l.407.047.099-.047.11.023.407-.071.066.048h35.739l.022.023h-1.007l.044-.023h1.463l.044-.025h.319l.044.048.021.12.045-.024v-.072l.044-.047h.604l.045.023h.318l.044-.023h.319l.11.047.209-.072.176.025.132-.025.583.072.054-.024h.331l.043-.023h.77l.066.119.044-.144.495.048.209-.048h.407l.22.048.154.072.142.252.045.372-.022.048v.24l-.023.024v.612l.023.048-.044.252-.099.167-.176.024-.176.132h-.297l-.044-.036h-.275l-.022.036h-.407l-.044-.036h-1.144l-.043.036h-.341l-.044-.036h-.363l-.044.036-.385-.036-.11-.071-.154.071-.385-.023-.044.023h-.495l-.044-.023h-.318l-.044.023h-.924l-.044.036h-.231l-.22-.059-.429.023-.044-.023h-.176l-.055.023h1.359l-.044-.023h-.231l-.22.084-35.255-.061-.066.061-.363-.084h-.803l-.043.023-.528.036-.044-.036-.407.036v-.156l-.044.024-.044.096-.044.036-.583-.059-.044.023h-.385l-.044.036-.791-.084-.089.084-.275.025-.087-.061h-.176l-.044.036h-.275l-.044-.059-.088-.025-.451.048-.132-.071-.066.048-.407.023-.022-.048-.077-.023-.242.071h-.671l-.054.036-.264-.059-.088-.073-.044.132-.429-.036-.165-.071-.132-.12-.066-.216Z" fill="red"/><path d="M227.497,36.9646l-.055-.024h-.044l.077.073Zm.109,1.656h-.044v.072h.044Zm.176-.3-.022-.072-.022.024Zm.022-1.2-.066-.024h-.022v.072l.044.048Zm.087.384v.204h.022Zm.022.18v.024l.033.024Zm.055.24-.055.048h-.087l.043.072-.021.156.186.024.022-.072-.044-.156.066-.048.043-.096-.109-.048Zm.197-.42h-.044v.06l.044.024Zm0,.72v-.048l.044-.156-.066.06Zm.22.096v-.048l-.088-.024-.022.048.044.048Zm.384.419-.044.025-.022.048h.044Zm.022-.791-.044.048.044.108.044.024.076-.024-.055-.348Zm.274-.444-.044.06-.022.048.088-.024Zm.197-.456-.022.048-.11.049-.021.119h.087l.186-.216-.098-.084Zm-.022.612-.022.048.022.072.142.072.088-.024.022-.096-.186.072Zm.274-.18v-.048l-.022-.048-.131-.024v.048Zm.066.72.022-.048v-.048l-.11-.084h-.186l.055.084.131.024Zm.044-1.055-.044.023-.022.024.066.288Zm.044.659v-.072l-.022-.048-.066-.024.066.168.131.144.033-.048Zm.164-.659h-.055l-.044.095.099-.024Zm0,.239-.022-.024-.055-.024-.109.024.065.096.121.048Zm.132.516.022.072v-.072Zm.066-.78v-.048l-.044.024v.049Zm.087.612v.048l.066-.024-.044-.048Zm-.109-.024-.022-.024h-.044l-.066.072.088.144h-.066l-.187.18-.021.072.142.12.044-.048.088.024.11.264.065-.024-.044-.024v-.144l.066-.072.022-.096h-.088l-.043-.048.022-.06-.022-.12-.066-.024Zm.241.24-.022-.024h-.044v.048l.044.024Zm0-.096h.099v-.048h-.099Zm.252-.24h-.044l-.044.072.088.216Zm0,.9-.044.024.022.023Zm.154-.564h-.088l-.197-.096.131.276.088.072v-.204Zm-.022.516.022-.048-.022-.025-.088.097Zm0-.984-.022.048.022.06h.044l.022-.06-.022-.048Zm.164.3-.077-.024.033.048Zm0,.588-.044.023.022.025Zm-.077.42v.048l.077.095h.044l.022-.047-.022-.072Zm.318-.612.044.024.11-.024v-.156h-.044Zm-.197-.42-.022.048v.096l-.044.096v.108l.044.048h.044l.175-.228.088-.024.165.024-.022-.096-.077-.048-.241-.048Zm.779.144-.066.024.044.048Zm.022.276v-.048l-.022-.048-.066-.036-.088.084Zm.142.192-.044.023.022.049Zm.022-.12.022-.048-.044-.18Zm.022.683-.044.024.022.024Zm.088-1.079-.022-.048-.066-.048-.088.024-.044.072.088.024.022.096.088-.024Zm.153-.24-.066.024-.065.048.065.096.044-.024Zm.099.216-.055.024-.022.072.099-.072Zm.087,0-.022.048v.024l.044-.048Zm.647.984v.047l.044.048.044-.119-.044-.024Zm.187-1.152-.033.048-.154.072.066.192.121-.168.022-.096Zm.219-.024v.048l.088.096-.022-.216Zm.22.144v.048l.098.024Zm.252.372-.044-.024-.11.048.088.096.044-.024Zm.219.587-.022.049.055.024Zm.121-.959v-.024h-.066Zm.175.564.044.024h.044l.022-.096h-.044Zm.044-.468-.044.024-.088.144h.11l.131.132v-.156Zm.131-.096-.044-.096-.043-.024-.088.024.022.048.088.048Zm.099.024-.044.024.022.024Zm.373,0-.022-.024-.022-.048-.087-.024-.066.048v.048l.087.024Zm.077.348-.022-.048-.022-.024Zm0-.396v.048h.065v-.072Zm.109.324-.044-.036-.021.06.021.048Zm.198-.42-.044.024.022.024Zm43.52-.647h-.044l-.022.083h.066Zm.263,1.403-.022.024.044.096Zm.23-.396v-.048l-.022-.024Zm.022.816v-.097l-.088-.048-.077.025Zm.044-.756-.132.048-.055.048-.022.096.121.024.088-.048Zm.043.264h-.065l.022.072h.043Zm-1.53-.324-.065-.072-.088.072.066.084.022-.06Zm.209.576-.044.024v.048h.044Zm.065-.132h-.109l.044.048h.044Zm.066-.444-.044.024v.204Zm-.044-.216v.072l.066-.024Zm.362-.072v.12l.066.072v-.096Zm.176.264-.066.024.022.024Zm.208-.168-.055-.024-.109.096v.048h.066Zm.132.636v-.048l-.11-.048-.022-.096-.076-.024.021.072Zm.044-.492.021-.048-.043-.048h-.088l.066.228.087-.024.066-.132.066-.048.044.096.055.024.022-.048-.022-.048-.099-.048h-.088l-.044.096Zm.175-.408v.216h.186l.022-.024-.109-.168Zm.208-.324v.096l.066-.048-.022-.048Zm.241-.095-.021-.025-.044.048Zm.044.755-.044-.024h-.087l-.066.048-.022.024Zm.099-.096v.048l.066.072.022-.396Zm.329-.048h-.109l-.044-.024.022.072.087.024Zm.066.096-.022.048.055.072.044-.024-.022-.096Zm-.044.936v.048l.044.071.186-.023Zm.296-.984.066-.096-.044.024Zm.384.12-.044-.024h-.044l-.044.072.044.024Zm0,.252-.044.024.022.191Zm.241.048-.044-.024-.022.048.044.024Zm.022-.3h-.044l-.044.048.066.132Zm.165.204-.022-.048-.022-.036-.077.084.055.024Zm-.044.263.022-.023.022-.048-.022-.048-.044-.024Zm.329-1.427v-.048l-.044.024Zm-.088.72v.072l.132.048-.044-.096Zm.23.168v.048l.044.048.044-.072Zm.198-.264-.044-.06h-.044l-.044.084.066.024Zm-.044-.204.022.048.065.024-.021-.048Zm1.688.12.022-.024-.022-.048h-.054Zm0,.792.022-.048-.044-.024-.032.54Zm.11-.444-.044.024.044.168Zm-.088.144v.048l.066.06.022-.06-.044-.048Zm.899-.192-.032-.048h-.044Zm-.252.192h-.044l-.044.048.066.18.11.072.109-.024.055-.12-.098-.072-.044.096-.088.024v-.276Zm.154.468.022.048h.076l-.076-.072Zm.362-.9h-.066l.066.072Zm.131,1.391-.044.024-.022.048h.066Zm-58.24-.707-.022-.048v-.228l.044-.096v-.396l-.022-.048v-.24l.066-.144.153-.156.143-.047.263-.025.296.048.11-.023.066.071.142-.096.066.048h.241l.044-.023.044.095h.077l.066-.095h.8l.12.071.176-.048h.581l.044.024h.318l.176-.047.208.047.493-.047.044.023h.274l.044-.023h.373l.142.047h.45l.044-.024h.471l.044.024.088-.047h.625l.406.047.098-.047.11.023.406-.071.065.048h43.981l.022.023h-1.004l.044-.023h1.458l.044-.025h.318l.044.048.022.12.044-.024v-.072l.044-.047h.603l.044.023h.317l.044-.023h.318l.11.047.208-.072.176.025.131-.025.581.072.055-.024h.329l.044-.023h.768l.065.119.044-.144.494.048.208-.048h.406l.219.048.154.072.142.252.044.372-.022.048v.24l-.022.024v.612l.022.048-.044.252-.098.167-.176.024-.175.132h-.296l-.044-.036h-.274l-.022.036h-.406l-.044-.036h-1.14l-.044.036h-.34l-.044-.036h-.362l-.044.036-.383-.036-.11-.071-.153.071-.384-.023-.044.023h-.494l-.044-.023h-.317l-.044.023h-.921l-.044.036h-.23l-.22-.059-.428.023-.043-.023h-.176l-.055.023h1.355l-.044-.023h-.23l-.219.084-43.498-.061-.066.061-.362-.084h-.8l-.044.023-.526.036-.044-.036-.406.036v-.156l-.044.024-.044.096-.044.036-.581-.059-.044.023h-.383l-.044.036-.79-.084-.088.084-.274.025-.087-.061h-.176l-.044.036h-.274l-.044-.059-.087-.025-.45.048-.132-.071-.065.048-.406.023-.022-.048-.077-.023-.241.071h-.669l-.055.036-.263-.059-.088-.073-.043.132-.428-.036-.165-.071-.131-.12-.066-.216Z" fill="red"/><g style="isolation:isolate"><g style="isolation:isolate"><path d="M114.67773,36.53516a.18531.18531,0,0,1,.16846.248l-2.20361,5.82325a.18073.18073,0,0,1-.17725.124h-.584a.18867.18867,0,0,1-.17725-.124l-.60156-1.60157a2.44006,2.44006,0,0,1-.11524-.36328v.00879c-.03515.124-.0708.23926-.11523.35449l-.61035,1.60157a.17727.17727,0,0,1-.168.124h-.58447a.17971.17971,0,0,1-.17676-.124l-2.2124-5.82325a.14229.14229,0,0,1-.00928-.06152.18731.18731,0,0,1,.186-.18652h.84082a.1809.1809,0,0,1,.17675.124l1.36328,3.60254a2.70825,2.70825,0,0,1,.11475.35351l.00879.01758a2.95018,2.95018,0,0,1,.11523-.37109l.45118-1.18652-.86719-2.292a.14954.14954,0,0,1-.00879-.06152.1873.1873,0,0,1,.186-.18652h.84082a.17852.17852,0,0,1,.168.124l.18555.47754c.04443.11523.08008.23926.11523.36328a2.44006,2.44006,0,0,1,.11524-.36328l.17676-.47754a.18193.18193,0,0,1,.17724-.124h.84082a.18617.18617,0,0,1,.17676.248l-.86719,2.292.45118,1.18652c.04443.12305.07959.24707.11523.37109.03516-.124.0708-.248.11475-.37109l1.37207-3.60254a.1809.1809,0,0,1,.17675-.124Z"/></g><g style="isolation:isolate"><path d="M119.07812,36.53516a.18178.18178,0,0,1,.18555.18652v.86719a.18155.18155,0,0,1-.18555.18554h-.43359v3.7168h.43359a.18179.18179,0,0,1,.18555.18652v.86719a.18156.18156,0,0,1-.18555.18555h-2.10644a.18167.18167,0,0,1-.186-.18555v-.86719a.1819.1819,0,0,1,.186-.18652h.43359v-3.7168h-.43359a.18166.18166,0,0,1-.186-.18554v-.86719a.18189.18189,0,0,1,.186-.18652Z"/><path d="M124.87549,36.53516a.18218.18218,0,0,1,.186.18652v.86719a.182.182,0,0,1-.186.18554H123.5127v4.77051a.18167.18167,0,0,1-.186.18555h-.86719a.18167.18167,0,0,1-.186-.18555V37.77441h-1.3628a.182.182,0,0,1-.186-.18554v-.86719a.18218.18218,0,0,1,.186-.18652Z"/></g><g style="isolation:isolate"><path d="M131.57715,36.53516a.18189.18189,0,0,1,.186.18652v5.82324a.18167.18167,0,0,1-.186.18555H130.71a.18167.18167,0,0,1-.186-.18555V40.252h-1.8584v2.293a.18167.18167,0,0,1-.186.18555h-.86719a.18167.18167,0,0,1-.186-.18555V36.72168a.18189.18189,0,0,1,.186-.18652h.86719a.18189.18189,0,0,1,.186.18652v2.292h1.8584v-2.292a.18189.18189,0,0,1,.186-.18652Z"/><path d="M139.5083,36.53516a.18156.18156,0,0,1,.17725.13281l1.75195,5.82324c0,.01758.00928.03613.00928.05371a.18711.18711,0,0,1-.186.18555h-.84961a.19147.19147,0,0,1-.186-.13281l-.32715-1.10645h-1.73486l-.33594,1.10645a.18876.18876,0,0,1-.17725.13281h-.84961a.18724.18724,0,0,1-.17724-.23926L138.3667,36.668a.18954.18954,0,0,1,.17725-.13281Zm-.57519,2.37207-.398,1.34472h.99121l-.40723-1.34472c-.03564-.124-.062-.248-.08887-.37207A2.82277,2.82277,0,0,1,138.93311,38.90723Z"/></g><g style="isolation:isolate"><path d="M150.44922,36.53516a.18178.18178,0,0,1,.18555.18652v5.82324a.18156.18156,0,0,1-.18555.18555h-.93848a.19686.19686,0,0,1-.168-.10645l-1.61963-3.2832a2.67209,2.67209,0,0,1-.15039-.3623v3.5664a.18167.18167,0,0,1-.186.18555h-.86719a.18167.18167,0,0,1-.186-.18555V36.72168a.18189.18189,0,0,1,.186-.18652h.938a.20024.20024,0,0,1,.16846.10644l1.61914,3.2832a2.63568,2.63568,0,0,1,.15088.36329V36.72168a.18178.18178,0,0,1,.18554-.18652Z"/></g><g style="isolation:isolate"><path d="M155.95508,36.53516a.18177.18177,0,0,1,.18554.18652v.86719a.18154.18154,0,0,1-.18554.18554h-2.16846v1.23926h1.54883a.181.181,0,0,1,.18555.18555v.86719a.181.181,0,0,1-.18555.18554h-1.54883v1.23926h2.16846a.18178.18178,0,0,1,.18554.18652v.86719a.18155.18155,0,0,1-.18554.18555H152.7334a.18167.18167,0,0,1-.186-.18555V36.72168a.18189.18189,0,0,1,.186-.18652Z"/></g><g style="isolation:isolate"><path d="M165.61133,36.53516a.18462.18462,0,0,1,.168.248l-2.20313,5.82325a.18131.18131,0,0,1-.17773.124h-.584a.189.189,0,0,1-.17675-.124l-.60157-1.60157a2.49857,2.49857,0,0,1-.11523-.36328v.00879c-.03516.124-.07129.23926-.11524.35449l-.61035,1.60157a.17725.17725,0,0,1-.168.124h-.584a.18133.18133,0,0,1-.17774-.124l-2.21191-5.82325a.14229.14229,0,0,1-.00928-.06152.18731.18731,0,0,1,.186-.18652h.84082a.18092.18092,0,0,1,.17676.124l1.36328,3.60254a2.868,2.868,0,0,1,.11523.35351l.00782.01758a3.11907,3.11907,0,0,1,.11523-.37109l.45117-1.18652-.86719-2.292a.16688.16688,0,0,1-.00781-.06152.18688.18688,0,0,1,.18555-.18652h.84082a.17854.17854,0,0,1,.168.124l.18554.47754c.044.11523.08008.23926.11524.36328a2.49857,2.49857,0,0,1,.11523-.36328l.17676-.47754a.18254.18254,0,0,1,.17773-.124h.83985a.18672.18672,0,0,1,.17773.248l-.86718,2.292.45117,1.18652c.04394.12305.0791.24707.11523.37109.03516-.124.07031-.248.11426-.37109l1.37207-3.60254a.18134.18134,0,0,1,.17676-.124Z"/></g><g style="isolation:isolate"><path d="M174.10938,36.53516a.17662.17662,0,0,1,.13281.05371l.38965.38867a.18269.18269,0,0,1,.05273.13281v2.877a.18271.18271,0,0,1-.05273.13282l-.38965.38867a.17666.17666,0,0,1-.13281.05371h-.38868a1.06365,1.06365,0,0,1,.19434.2832l.75195,1.61914a.25643.25643,0,0,1,.01758.08008.18669.18669,0,0,1-.18555.18555h-.84961a.19745.19745,0,0,1-.168-.10645l-.95606-2.06152h-.62793v1.98242a.18208.18208,0,0,1-.18652.18555h-.86719a.18127.18127,0,0,1-.18555-.18555V36.72168a.18149.18149,0,0,1,.18555-.18652ZM172.083,37.77441a.18127.18127,0,0,0-.18555.18555v1.15918a.17953.17953,0,0,0,.05274.13281l.01757.01856a.18114.18114,0,0,0,.13282.05273h1.1416a.17958.17958,0,0,0,.13281-.05273l.01758-.01856a.18034.18034,0,0,0,.05371-.13281v-1.1416a.17971.17971,0,0,0-.05371-.13184l-.01758-.01855a.17955.17955,0,0,0-.13281-.05274Z"/><path d="M179.04,36.53516a.18255.18255,0,0,1,.17773.13281l1.752,5.82324c0,.01758.00879.03613.00879.05371a.18734.18734,0,0,1-.18555.18555h-.84961a.19208.19208,0,0,1-.18652-.13281l-.32715-1.10645h-1.73438l-.33691,1.10645a.18725.18725,0,0,1-.17676.13281H176.332a.187.187,0,0,1-.17676-.23926l1.74317-5.82324a.18966.18966,0,0,1,.17773-.13281Zm-.5752,2.37207-.39843,1.34472h.99121l-.40625-1.34472c-.03614-.124-.0625-.248-.08887-.37207A2.75111,2.75111,0,0,1,178.46484,38.90723Z"/></g><g style="isolation:isolate"><path d="M188.69727,36.53516a.18207.18207,0,0,1,.18554.18652v5.82324a.18185.18185,0,0,1-.18554.18555h-.86719a.18208.18208,0,0,1-.18653-.18555V39.73926c-.03515.124-.07031.248-.11523.3623l-.94629,2.50489a.18012.18012,0,0,1-.17676.124h-.585a.18013.18013,0,0,1-.17676-.124l-.94726-2.50489c-.04395-.11426-.0791-.23828-.11426-.3623v2.80566a.18208.18208,0,0,1-.18652.18555h-.86719a.18127.18127,0,0,1-.18555-.18555V36.72168a.1815.1815,0,0,1,.18555-.18652h.92969a.17854.17854,0,0,1,.168.124l1.37207,3.61133c.04394.11426.0791.23828.11425.3623.03614-.124.07129-.248.11524-.3623l1.37207-3.61133a.17854.17854,0,0,1,.168-.124Z"/></g><g style="isolation:isolate"><path d="M197.90332,36.53516a.18229.18229,0,0,1,.18652.18652v.86719a.18206.18206,0,0,1-.18652.18554H196.541v4.77051a.18208.18208,0,0,1-.18653.18555h-.86719a.18208.18208,0,0,1-.18652-.18555V37.77441h-1.3623a.18207.18207,0,0,1-.18653-.18554v-.86719a.1823.1823,0,0,1,.18653-.18652Z"/></g><g style="isolation:isolate"><path d="M203.45312,36.53516a.17663.17663,0,0,1,.13282.05371l.38965.38867a.18269.18269,0,0,1,.05273.13281v2.877a.18271.18271,0,0,1-.05273.13282l-.38965.38867a.17666.17666,0,0,1-.13282.05371h-.38867a1.06365,1.06365,0,0,1,.19434.2832l.75195,1.61914a.25643.25643,0,0,1,.01758.08008.18669.18669,0,0,1-.18555.18555h-.84961a.19745.19745,0,0,1-.168-.10645l-.95606-2.06152h-.62793v1.98242a.18208.18208,0,0,1-.18652.18555h-.86719a.18127.18127,0,0,1-.18555-.18555V36.72168a.18149.18149,0,0,1,.18555-.18652Zm-2.02636,1.23925a.18127.18127,0,0,0-.18555.18555v1.15918a.17953.17953,0,0,0,.05274.13281l.01757.01856a.18114.18114,0,0,0,.13282.05273h1.1416a.17958.17958,0,0,0,.13281-.05273l.01758-.01856a.18034.18034,0,0,0,.05371-.13281v-1.1416a.17971.17971,0,0,0-.05371-.13184l-.01758-.01855a.17955.17955,0,0,0-.13281-.05274Z"/></g><g style="isolation:isolate"><path d="M210.083,36.53516a.1823.1823,0,0,1,.18652.18652v5.43359a.18191.18191,0,0,1-.05371.13282l-.38965.38964a.18108.18108,0,0,1-.13281.05274h-3.18555a.1811.1811,0,0,1-.13281-.05274l-.38965-.38964a.182.182,0,0,1-.05371-.13282V36.72168a.1823.1823,0,0,1,.18652-.18652h.86719a.1823.1823,0,0,1,.18653.18652v4.56641a.18265.18265,0,0,0,.05273.13281l.01758.01758a.18112.18112,0,0,0,.13281.05273h1.45117a.1811.1811,0,0,0,.13281-.05273l.01758-.01758a.18266.18266,0,0,0,.05274-.13281V36.72168a.1823.1823,0,0,1,.18652-.18652Z"/></g><g style="isolation:isolate"><path d="M215.64258,36.53516a.17812.17812,0,0,1,.13281.05371l.38965.38867a.18265.18265,0,0,1,.05273.13281V38.208a.18069.18069,0,0,1-.18554.18554h-.86817a.18126.18126,0,0,1-.18554-.18554v-.23047a.17887.17887,0,0,0-.05274-.13184l-.01758-.01855a.18108.18108,0,0,0-.13281-.05274h-1.1416a.17953.17953,0,0,0-.13281.05274l-.01758.01855a.176.176,0,0,0-.05371.13184v3.31055a.17967.17967,0,0,0,.05371.13281l.01758.01758a.17956.17956,0,0,0,.13281.05273h1.1416a.18112.18112,0,0,0,.13281-.05273l.01758-.01758a.18266.18266,0,0,0,.05274-.13281v-.23047a.18126.18126,0,0,1,.18554-.18555h.86817a.18069.18069,0,0,1,.18554.18555v1.09765a.1811.1811,0,0,1-.05273.13282l-.38965.38964a.1811.1811,0,0,1-.13281.05274h-2.876a.17955.17955,0,0,1-.13281-.05274l-.38965-.38964a.1811.1811,0,0,1-.05273-.13282V37.11035a.18265.18265,0,0,1,.05273-.13281l.38965-.38867a.17662.17662,0,0,1,.13281-.05371Z"/></g><g style="isolation:isolate"><path d="M222.27246,36.53516a.18134.18134,0,0,1,.18555.18652.20694.20694,0,0,1-.04395.11426l-2.33594,2.79687,2.33594,2.79688a.20706.20706,0,0,1,.04395.11523.18112.18112,0,0,1-.18555.18555h-1.13281a.18389.18389,0,0,1-.1416-.07031l-1.35352-1.61133a1.827,1.827,0,0,1-.27539-.45117v1.94726a.18127.18127,0,0,1-.18555.18555h-.86718a.18127.18127,0,0,1-.18555-.18555V36.72168a.18149.18149,0,0,1,.18555-.18652h.86718a.18149.18149,0,0,1,.18555.18652V38.668a1.827,1.827,0,0,1,.27539-.45117l1.35352-1.61035a.18186.18186,0,0,1,.1416-.07129Z"/></g></g></svg>