<svg xmlns="http://www.w3.org/2000/svg" viewBox="0 0 300 100"><defs><clipPath id="a"><path transform="rotate(-16.001 45.886 39.151)" fill="none" d="M5.701 23.784h80.37v30.735H5.701z"/></clipPath><clipPath id="b"><path fill="none" d="M-32768-32667h65535v65535h-65535z"/></clipPath></defs><g clip-path="url(#a)"><g clip-path="url(#b)" opacity=".8"><path d="M83.335 44.4L15.424 63.873a4.102 4.102 0 01-5.058-2.803L5.295 43.382l-.019-.065-.507-1.77-.025-.086-.05-.175-.057-.197-.062-.218a4.071 4.071 0 01-.017-1.295 1.06 1.06 0 01.046-.25 2.555 2.555 0 01.063-.277.47.47 0 01.056-.134c.024-.08.049-.157.059-.206a2.387 2.387 0 01.127-.297l.078-.141a1.052 1.052 0 01.109-.196l.031-.056a4.676 4.676 0 01.886-1.034c.037-.034.059-.041.096-.075l.022-.006c.119-.082.215-.157.334-.238l.059-.04a3.91 3.91 0 01.945-.413l1.681-.482a.772.772 0 01.225-.041c.066-.02.147-.066.212-.085l7.577-2.172a2.3 2.3 0 011.652-2.483l45.485-13.042a2.317 2.317 0 012.716 1.23l9.891-2.837a4.394 4.394 0 01.537-.106c.044-.013.094-.003.137-.016.066-.02.116-.01.181-.028a4.126 4.126 0 014.203 2.954l5.679 19.805a4.015 4.015 0 01.154 1.28c-.009.049.003.093-.006.143a.337.337 0 00-.006.144 4.156 4.156 0 01-.812 2.029c-.016.028-.053.062-.069.09a3.878 3.878 0 01-1.001.878.244.244 0 01-.103.053 1.561 1.561 0 01-.14.088 2.128 2.128 0 01-.505.215l-1.835.526z" fill="#fff"/></g><path d="M61.942 20.64a.13.13 0 00-.094.168l.188.656a.131.131 0 00.169.093l1.026-.294 1.027 3.581a.13.13 0 00.168.093l.655-.188a.13.13 0 00.094-.168l-1.027-3.58 1.026-.296a.13.13 0 00.094-.168l-.188-.655a.13.13 0 00-.17-.094zm-3.276.94a.131.131 0 00-.093.168l1.258 4.39a.131.131 0 00.169.092l2.424-.695a.13.13 0 00.093-.168l-.188-.656a.13.13 0 00-.168-.093l-1.638.47-.27-.939 1.158-.332a.131.131 0 00.093-.169l-.187-.655a.131.131 0 00-.17-.093l-1.156.332-.276-.96 1.638-.47a.13.13 0 00.093-.169l-.187-.656a.131.131 0 00-.17-.093zm-3.406.976c-.044.012-.06.04-.097.075l-.202.365a.174.174 0 00-.013.122l.55 1.921c.014.044.042.06.076.097l.365.203a.181.181 0 00.122.012l1.288-.37a.251.251 0 01.122.013l.028.015a.173.173 0 01.075.097l.182.633a.24.24 0 01-.013.122l-.015.028a.173.173 0 01-.097.075l-.633.182a.24.24 0 01-.122-.013l-.028-.015a.177.177 0 01-.075-.097l-.05-.175a.13.13 0 00-.168-.093l-.656.188a.13.13 0 00-.093.168l.238.83c.012.044.04.06.075.097l.365.202a.174.174 0 00.122.013l1.92-.55c.045-.014.06-.042.098-.076l.203-.366a.173.173 0 00.012-.12l-.551-1.923c-.013-.044-.041-.059-.075-.097l-.365-.202a.17.17 0 00-.122-.012l-1.288.37c-.044.012-.072-.004-.122-.013l-.028-.016a.173.173 0 01-.075-.097l-.182-.633a.24.24 0 01.013-.122l.015-.028a.177.177 0 01.097-.075l.633-.18c.044-.014.072.002.122.011l.028.016a.175.175 0 01.075.096l.05.175a.132.132 0 00.169.094l.655-.188a.131.131 0 00.093-.169l-.238-.83c-.012-.043-.04-.059-.075-.096l-.371-.225a.175.175 0 00-.122-.012l-1.922.551zm-3.713 1.064c-.043.013-.06.041-.096.075l-.203.366a.173.173 0 00-.012.121l.55 1.922c.014.044.042.06.076.096l.365.203a.17.17 0 00.122.012l1.288-.369c.044-.013.072.003.122.012l.028.016a.17.17 0 01.075.097l.182.633a.236.236 0 01-.013.121l-.015.03a.177.177 0 01-.097.074l-.633.181c-.044.013-.072-.003-.122-.012l-.028-.016a.175.175 0 01-.075-.096l-.05-.175a.132.132 0 00-.17-.094l-.654.188a.131.131 0 00-.093.17l.238.83c.012.042.04.058.075.095l.365.203a.175.175 0 00.122.012l1.92-.55c.045-.013.06-.042.098-.076l.202-.365a.174.174 0 00.013-.122l-.551-1.92c-.013-.045-.041-.06-.075-.098l-.365-.203a.181.181 0 00-.122-.012l-1.288.37c-.044.012-.072-.004-.122-.013l-.028-.015a.173.173 0 01-.075-.097l-.182-.633a.25.25 0 01.012-.122l.016-.028a.173.173 0 01.097-.075l.633-.182a.24.24 0 01.122.013l.028.015a.177.177 0 01.075.097l.05.175a.13.13 0 00.168.093l.656-.188a.13.13 0 00.093-.168l-.238-.83c-.012-.044-.041-.059-.075-.097l-.371-.224a.176.176 0 00-.122-.013l-1.922.551zm-2.406 2.321c.047.081.1.184.147.265l.593.917-.742.213.018-1.092a.793.793 0 00-.016-.303zm-.782-1.407a.144.144 0 00-.1.147l-.051 4.765a.145.145 0 00.18.137l.634-.18a.144.144 0 00.1-.148l.024-.905 1.31-.376.479.761a.145.145 0 00.162.072l.633-.182a.132.132 0 00.094-.168l-.013-.044-2.57-4.014a.143.143 0 00-.161-.07zm-7.118 2.042a.131.131 0 00-.094.168l.188.655a.13.13 0 00.169.094l1.026-.294 1.027 3.581a.131.131 0 00.169.093l.655-.188a.13.13 0 00.093-.168l-1.027-3.58 1.026-.296a.13.13 0 00.094-.168l-.188-.655a.13.13 0 00-.168-.094zm-1.551.444a.131.131 0 00-.093.17l.77 2.685c-.07-.075-.122-.178-.184-.23l-1.931-2.118a.155.155 0 00-.156-.05l-.698.201a.13.13 0 00-.094.168l1.259 4.39a.13.13 0 00.168.093l.655-.188a.13.13 0 00.094-.169l-.77-2.685c.068.074.122.177.184.23l1.93 2.117a.153.153 0 00.156.05l.699-.2a.132.132 0 00.094-.169l-1.26-4.389a.132.132 0 00-.168-.094zm-4.437 2.903c.047.081.1.184.147.265l.594.917-.743.213.018-1.092a5.249 5.249 0 01-.016-.303m-.803-1.4a.144.144 0 00-.1.147l-.052 4.765a.146.146 0 00.18.137l.635-.182a.144.144 0 00.099-.147l.025-.905 1.31-.375.478.761a.143.143 0 00.162.071l.633-.18a.13.13 0 00.094-.17l-.013-.044-2.568-4.013a.146.146 0 00-.163-.072zm-4.346 1.246a.131.131 0 00-.093.17l.188.654a.13.13 0 00.168.093l1.027-.294 1.026 3.581a.131.131 0 00.169.093l.655-.187a.132.132 0 00.094-.169l-1.027-3.58 1.026-.295a.131.131 0 00.093-.169l-.187-.655a.133.133 0 00-.17-.094zm-3.122.895c-.044.013-.06.041-.097.075l-.202.366a.172.172 0 00-.013.121l.55 1.922c.014.044.042.06.076.097l.365.202a.17.17 0 00.122.012l1.288-.369a.25.25 0 01.122.012l.028.016a.173.173 0 01.075.097l.182.633a.24.24 0 01-.013.122l-.015.028a.177.177 0 01-.097.075l-.633.181c-.044.013-.072-.003-.122-.012l-.028-.016a.175.175 0 01-.075-.096l-.05-.175a.13.13 0 00-.168-.093l-.656.187a.131.131 0 00-.093.17l.238.83c.012.042.04.058.075.095l.365.203a.175.175 0 00.122.012l1.92-.55c.045-.013.06-.04.098-.076l.203-.365a.18.18 0 00.012-.122l-.551-1.92c-.013-.045-.041-.06-.075-.098l-.365-.202a.174.174 0 00-.122-.013l-1.288.37a.24.24 0 01-.122-.013l-.028-.015a.173.173 0 01-.075-.097l-.182-.633a.24.24 0 01.013-.122l.015-.028a.173.173 0 01.097-.075l.633-.182a.24.24 0 01.122.013l.028.015a.177.177 0 01.075.097l.05.175a.131.131 0 00.169.093l.655-.188a.13.13 0 00.093-.168l-.238-.83c-.012-.044-.04-.059-.075-.097l-.365-.202a.174.174 0 00-.122-.013zm-2.162.62a.132.132 0 00-.094.17l.77 2.685c-.068-.075-.121-.178-.184-.23l-1.958-2.133a.153.153 0 00-.156-.05l-.7.2a.131.131 0 00-.092.17l1.258 4.388a.131.131 0 00.169.093l.655-.188a.13.13 0 00.093-.168l-.764-2.664c.069.075.122.178.185.231l1.93 2.116a.152.152 0 00.156.05l.699-.2a.131.131 0 00.093-.169l-1.258-4.389a.131.131 0 00-.17-.093zm-5.11 1.465a.132.132 0 00-.093.17l.188.654a.131.131 0 00.168.094l.328-.094.8 2.795-.326.094a.13.13 0 00-.094.168l.188.655a.13.13 0 00.169.094l1.594-.457a.131.131 0 00.093-.169l-.188-.655a.13.13 0 00-.168-.093l-.328.093-.801-2.795.327-.093a.132.132 0 00.094-.169l-.188-.655a.132.132 0 00-.17-.094zm57.948-5.84c-.046-.08-.103-.112-.15-.193-.021.006-1.127-1.378-1.127-1.378l-.11-.134-.078-.025-.458.131-.031.056-.01.05.007.022-.013.122c-.093.665-.158 1.345-.251 2.01l-.012.121-.003.072.012.044.057.031.05.01.502-.145.053-.062.028-.15c.024-.409.086-.852.117-1.239l.025-.078.016-.028.02-.006.058.031.15.193c.184.231.39.455.553.692l.156.216.062.053.078.024.109-.03c.116-.01.256-.098.372-.107l.059-.04.015-.029-.012-.044-.034-.037zm-3.411-.77l-.081-.119-.112-.062-.144-.006-.421.097c-.618.153-1.251.335-1.878.538-.842.36-1.838.433-2.673.814l-.05-.009-.197.056-.112.103-.022.337a10.82 10.82 0 01.52 1.647c.1.35.178.705.279 1.055.172.683 1.963 6.928 2.554 8.91l.016.136.169.424.119.085.12.012.29-.06a9.774 9.774 0 011.355-.388l.293-.13.088-.192-.004-.093-.225-.786c-.404-1.326-.698-2.683-1.168-3.99l-.044-.318.047-.085c.016-.028.009-.05.053-.062.037-.034.087-.025.13-.038.307-.087.662-.166.94-.269.066-.019.683-.172.683-.172l.284-.082.097-.075.075-.068.04-.106-.003-.094-.176-.61c.013-.123-.087-.307-.081-.45a2.617 2.617 0 01-.207-.556l-.062-.053-.084-.047-.122-.012-.153.044c-.605.197-1.266.363-1.884.517l-.087.025c-.044.012-.075.068-.131.037-.03-.015-.03-.015-.035-.037l-.028-.016-.044-.318c-.253-.802-.482-1.68-.764-2.499l.016-.193.047-.085.283-.08.038-.035.48-.138c.384-.063 1.289-.369 1.65-.426a4.365 4.365 0 01.518-.172l.144-.159.006-.144.009-.05a7.282 7.282 0 00-.351-1.553zM63.3 34.855c.486 2.105 1.356 4.645 1.885 6.738l.169.424.118.084.122.013.29-.06c.08-.047.287-.153.393-.113a7.268 7.268 0 01.96-.275l.294-.132.087-.19-.003-.094-.225-.786c-.404-1.325-.705-2.704-1.168-3.989l-.044-.319.125-.224.006.021c.013.044.356-.078.399-.09.565-.092 1.058-.35 1.629-.42l.096-.075.075-.069.04-.106-.003-.094a5.733 5.733 0 01-.256-1.06.833.833 0 00-.16-.309c-.02-.066-.038-.296-.116-.32l-.084-.048-.122-.012-.152.043c-.141.088-.902.235-1.092.313-.05-.009-.244-.024-.141.088.004.094-.034-.037-.062-.053a.92.92 0 01-.415.12l-.284.08c-.224.041-.165-.165-.237-.333-.144-.337-.198-.77-.341-1.108-.094-.162-.098-.586-.23-.714l-.193-.677.015-.193.047-.085.284-.08c.577-.214 1.54-.396 2.118-.608a1.56 1.56 0 00.312-.066c.037-.035.028-.15.097-.075l.137-.016.143-.159.007-.144.009-.05-.163-.568.03-.056-.13-.293-.188-.655-.081-.118-.113-.063-.143-.006-.421.097c-1.457.442-3.157.858-4.58 1.337l-.196.056-.112.103-.022.337.088.141-.013.121.075.097.032.275.137.15c.006.021-.037.2.013.208a33.905 33.905 0 00.96 3.27l.12.414a.463.463 0 01.022.16c.08.118.106.205.156.215zm-2.455 4.461c.063.218.147.43.21.65.03.108.04.223.066.311l.069.405c-.053.228-.053.394-.246.544a.909.909 0 01-.274.196c-.022.007-.234.091-.234.091l-.253.025-.25-.046-.156-.05-.07-.075-.048-.009-.225-.29-.172-.353c-.611-2.377-1.447-4.878-1.935-6.912l-.054-.269-.006-.187.012-.122.122-.318.283-.247a4.4 4.4 0 01.524-.15l.194.015.34.116.153.121.163.237.526 1.834c.41 1.513.873 2.964 1.26 4.483zm.334-7.327a3.302 3.302 0 00-.95-1.169 3.244 3.244 0 00-.681-.396 3.743 3.743 0 00-.821-.142 2.1 2.1 0 00-1.004.122c-.22.063-.443.104-.64.16-.153.044-.287.153-.44.197a3.723 3.723 0 00-.976.634c-.162.094-.32.447-.436.622a5.511 5.511 0 00-.308.655 2.726 2.726 0 00-.014 1.517 288.902 288.902 0 002.126 7.496l.115.321a3.932 3.932 0 00.866 1.123.483.483 0 01.287.177 4.616 4.616 0 00.422.234l.652.215a4.382 4.382 0 002.003-.268.385.385 0 00.374-.178c.206.06.406-.234.63-.275a2.056 2.056 0 01.412-.378c-.047-.08.196-.222.227-.278l.337-.64a8.614 8.614 0 00.223-.868 1.319 1.319 0 01.022-.337L63.57 40a10.476 10.476 0 00-.373-1.382l-1.136-3.88a23.087 23.087 0 00-.882-2.749zm-6.055 5.754l-.081-.119-.203-.13-.187.006c-.714.228-1.457.441-2.171.67a9.813 9.813 0 00-1.126.275l-.237.163c-.166.165.022.49.072.664a2.348 2.348 0 00.24.758l.092.07.1.017.296-.037c.206-.107 1.288-.37 1.354-.389a8.55 8.55 0 011.266-.363 1.303 1.303 0 01.568-.163l.237-.162.047-.25c-.02-.065-.226-.786-.217-.836a.174.174 0 01-.05-.174zm-2.511 6.817c.025-.078-.094-.162-.113-.228a1.978 1.978 0 00-.056-.362l-.1-.184-.272-.04-.334.072a5.237 5.237 0 00-.801.253c-.537.107-1.151.354-1.704.49l-.21.012c-.02.006-.09-.069-.117-.085-.035-.037-.047-.08-.081-.118-.251-.874-.517-1.719-.74-2.577-.043-.153-.11-.299-.16-.474l.035-.128.097-.075.306-.088a1.136 1.136 0 01.595-.147c.334-.072.73-.256 1.042-.322l.103-.053.122-.153.028-.15a4.626 4.626 0 00-.388-1.189c.046-.084-.025-.252-.072-.333l-.082-.119-.062-.053-.144-.006-.305.088a2.633 2.633 0 01-.821.188 4.277 4.277 0 01-.883.3l-.184-.065-.087-.14.009-.05-.044-.153c-.194-.677-.41-1.513-.641-2.156l-.047-.246.034-.128.084-.119.228-.113c.299-.109 1.135-.16 1.319-.425.028.181.424-.004.412-.047.18-.029.48-.138.689-.15l.24-.07.097-.075.03-.056c.057-.299-.152-.618-.162-.898-.047-.08-.041-.39-.162-.403-.022-.159-.06-.455-.207-.555l-.134-.056-.038.034-.003.072-.05-.009-.062-.053c-.94.27-1.987.57-2.954.823a14.478 14.478 0 01-1.666.454l-.521.244-.056.134-.003.072c1.193 4.077 2.286 8.136 3.516 12.18l-.003.07.068.075.25.047.13-.038c1.6-.435 3.227-.948 4.883-1.352l.315-.138.097-.24.009-.05zm-9.56-8.366l.01-.05-.05-.175-.028-.015-.057-.197.01-.05-.144-.502-.088-.14-.212-.08-.312.065-.162.093c-.506.051-.992.332-1.498.382-.817.282-1.588.48-2.352.7a3.06 3.06 0 01-.617.152c-.241.07-.49.188-.737.235l-.514.1-.038.034-.003.072-.131.038-.056.134.157.546-.032.056.22.764.187.49.15.028c.119-.08.203-.034.34-.05.128-.13.318-.044.47-.088a3.791 3.791 0 01.497-.166c.006-.143.19-.078.262-.075l.328-.094.072.003.22.362c.18.705.337 1.416.565 2.131.038.131.09.233.128.364.35 1.223.68 2.452 1.03 3.675l.495 1.725c.163.568.304 1.142.51 1.697l.097.256.019.066.103.112.178.043.24-.069.05.01.568-.163.037-.034.153-.044.028.015.322-.115.187-.007.277-.103.188-.172.027-.15-.096-.09.053-.063-.004-.093-.034-.038-.1-.349c-.921-3.21-1.725-6.099-2.667-9.302l-.07-.406.085-.118.059-.04.384-.064a3.686 3.686 0 01.67-.216c.03-.056.069-.09.125-.059l.34-.05.212-.085.097-.075.065-.184-.012-.209-.091-.234-.035-.037-.031-.11zM38.2 47.7c-.864-3.179-1.785-6.058-2.624-9.315l-.163-.567-.034-.038-.163-.568c-.006-.02-.106-.04-.106-.04a.218.218 0 00-.165 0c-.044.013-.072-.003-.116.01l-.284.081a1.633 1.633 0 01-.458.131.495.495 0 00-.228.113 2.097 2.097 0 00-.646.138l-.162.094-.087.19-.006.144.307 1.07c.175.611.585 1.96.585 1.96s1.074 3.826 1.202 4.357c.022-.007.05.01.04.06a.184.184 0 00-.002.071c.335 1.251.726 2.533 1.083 3.777l.238.83.11.134.14.078.262-.075a.906.906 0 00.512-.194 1.874 1.874 0 00.486-.116 1.81 1.81 0 00.34-.05l.372-.107.03-.056.028-.315a6.323 6.323 0 00-.385-1.26c.088-.19-.112-.393-.106-.537zm-8.858-2.872l-.188.007-.11-.134-.08-.284a4.028 4.028 0 00-.13-.53c-.258-.328-.168-.92-.412-1.276a6.854 6.854 0 01-.225-.952l-.076-.262.032-.056.258-.169c.088-.025.387-.134.472-.087l.096-.075a.342.342 0 00.209-.013l.272.04.184.065.287.343a4.806 4.806 0 01.313.762 7.083 7.083 0 01.332 1.157c-.028.15.09.4.04.555l-.077.306-.171.144-.031.056-.091.097-.408.141-.028-.016a.761.761 0 01-.468.181m5.674 5.368a2.015 2.015 0 01-.465-.717c-.691-1.007-1.375-2.158-2.044-3.17l-.222-.363-.06-.29-.034-.038.109-.03.387-.466.268-.55.03-.22c.076-.07.016-.36.019-.432a1.057 1.057 0 00-.054-.599c.103-.219-.088-.636-.15-.855a1.845 1.845 0 00-.138-.48c-.047-.08-.056-.362-.141-.409l-.156-.546-.138-.315-.331-.66-.294-.366-.415-.377-.141-.078-.243-.19-.397-.146-.21.012-.211-.08h-.662l-.28.01-.032.056-.043.013c-.141-.078-.406.07-.537.106a2.174 2.174 0 00-.518.172 6.321 6.321 0 00-1.272.342 2.914 2.914 0 00-.75.191l-.501.144-.134.11-.028.314.169.59c.116.486 3.312 11.551 3.312 11.551l.159.144h.166l.284-.082a1.622 1.622 0 00.334-.072c.062-.112.14-.253.196-.056.203-.035.512-.194.699-.2l.32-.117.054-.062.009-.05.053-.062.044-.178a114.728 114.728 0 01-1.362-4.667l.03-.222.185-.1.094-.003.206.06.243.355c.719 1.353 1.588 2.57 2.329 3.917l.144.171.103.112.199.038.188-.007c.32-.116.77-.197 1.085-.335.063.053.197-.056.262-.075l.306-.088.097-.074.056-.135.018-.1-.034-.037-.013-.044zm-10.852-9.909c-.063-.053-.237-.003-.297.038a4.85 4.85 0 00-.552.135c-.012-.044-.567.162-.596.147l-.037.034c-.087.025-.421.097-.468.182l-.093.168.188 1.647a11.572 11.572 0 01.223 1.52c.12.745.264 1.578.355 2.31l-.11.03c.11-.03.123.012.154.121l-.006.31a.152.152 0 01.134.055c-.065.02-.09.097-.1.147l.057.362.082.284-.007.143-.046.085-.166-.166-.062-.218c-.332-.66-.698-1.525-1.057-2.202-.166-.496-.522-1.079-.666-1.58-.047-.082-.341-.778-.478-.762.18-.028-.316-.855-.313-.927l-.28-.558-.167-.093-.122-.013-.961.276-.053.062-.458.132-.112.103-.05.156.082.78c.21 1.806.52 3.632.65 5.485l.095.327-.022.172.038.131.028.016.03.11-.093.002-.19-.087-.138-.48c-.37-.793-.847-1.719-1.13-2.536-.424-.989-1.055-2.202-1.393-3.216l-.235-.24-.15-.028a3.588 3.588 0 00-.823.26 2.953 2.953 0 00-.961.275l-.106.125-.031.056.132.46.387.691a21.989 21.989 0 00.972 1.99c.445 1.054.954 2.09 1.442 3.132.309.667.64 1.328.944 1.974a1.46 1.46 0 00.253.471 1.19 1.19 0 00.26.493l.087.305c.3.387.445 1.054.729 1.47a.408.408 0 00.187.324c-.053.062.022.16.079.19l.097.256.075.096.084.047.259-.003c.109-.032.387-.135.518-.172a1.122 1.122 0 00.37-.107c.19-.078.522-.078.665-.238l.084-.118-.003-.259c-.022-.49-.141-1.07-.164-1.56a7.85 7.85 0 00-.15-1.02c.052-.228-.13-.53-.048-.743l-.063-.384a.112.112 0 01-.022-.159c-.07-.57-.141-1.4-.24-1.987-.03-.11-.115-.487-.024-.584-.013-.044-.05-.175-.02-.23l.085.046.188.324c.034.203.234.406.275.63.125.106.134.387.269.443.08-.047.246-.047.112.062-.268-.112.316.855.347.964.429.917.84 1.862 1.307 2.745l.357.748.05.175.243.19.247-.047a5.526 5.526 0 001.032-.272l.393-.113.14-.087.082-.213-.073-.664c-.472-4.119-.934-7.956-1.365-12.015l-.063-.219zM7.866 40.4l5.573 19.435a1.115 1.115 0 001.377.763l69.003-19.786a1.116 1.116 0 00.763-1.377L79.009 20a1.115 1.115 0 00-1.377-.763l-10.11 2.9.376 1.31 9.87-2.83 5.435 18.953L14.68 59.22 9.239 40.241l9.586-2.749-.375-1.31-9.827 2.818a1.12 1.12 0 00-.757 1.398m72.063-21.065l5.767 20.111a1.88 1.88 0 01-1.293 2.332l-69.68 19.981a1.881 1.881 0 01-2.332-1.293l-5.766-20.11a1.88 1.88 0 011.292-2.333l10.22-2.93.119.414-10.22 2.93a1.474 1.474 0 00-1.012 1.827l5.767 20.111a1.473 1.473 0 001.826 1.012l69.68-19.98a1.473 1.473 0 001.012-1.826l-5.773-20.133a1.474 1.474 0 00-1.826-1.013l-10.394 2.981-.12-.415 10.395-2.98a1.916 1.916 0 012.338 1.314" fill="#ed1c24"/></g></svg>