<svg xmlns="http://www.w3.org/2000/svg" viewBox="0 0 300 100"><path d="M34.464 35.566V24h2.307l4.55 7.883h.032v-7.883h2.083v11.567h-2.131l-4.726-8.234h-.033v8.234zM44.909 31.401a6.053 6.053 0 01.248-1.795 3.923 3.923 0 01.713-1.36 3.133 3.133 0 011.138-.866 3.954 3.954 0 013.044 0 3.135 3.135 0 011.137.865 3.931 3.931 0 01.713 1.361 6.602 6.602 0 010 3.59 3.923 3.923 0 01-.713 1.36 3.125 3.125 0 01-1.137.866 3.954 3.954 0 01-3.044 0 3.122 3.122 0 01-1.138-.865 3.914 3.914 0 01-.713-1.362 6.046 6.046 0 01-.248-1.794zm5.255 0a4.1 4.1 0 00-.4-2.067 1.488 1.488 0 00-2.468 0 4.1 4.1 0 00-.4 2.067 4.097 4.097 0 00.4 2.067 1.486 1.486 0 002.467 0 4.097 4.097 0 00.4-2.067zM52.423 27.235h1.89l1.138 5.192h.032l1.202-5.192h1.842l1.153 5.192h.032l1.186-5.192h1.89l-2.146 8.331h-1.795l-1.233-5.19h-.032l-1.218 5.19H54.57zM64.774 26.274h-.96V24h2.21v2.275L65 28.678h-1.042zM71.487 29.43a4.818 4.818 0 00-.696-.6 1.443 1.443 0 00-.858-.281 1.325 1.325 0 00-.849.224.73.73 0 00-.272.593.664.664 0 00.312.57 3.708 3.708 0 00.769.391q.457.177 1.001.361a4.069 4.069 0 011.002.497 2.764 2.764 0 01.769.8 2.271 2.271 0 01.312 1.243 2.492 2.492 0 01-.232 1.12 2.204 2.204 0 01-.641.778 2.665 2.665 0 01-.97.456 4.855 4.855 0 01-1.217.145 3.706 3.706 0 01-1.802-.433 3.906 3.906 0 01-1.354-1.25l1.33-.993a4.1 4.1 0 00.825.842 1.783 1.783 0 001.113.36 1.323 1.323 0 00.858-.265.834.834 0 00.328-.68.683.683 0 00-.313-.578 3.463 3.463 0 00-.769-.4q-.456-.176-1-.376a4.765 4.765 0 01-1.002-.505 2.774 2.774 0 01-.77-.77 2.082 2.082 0 01-.312-1.185 2.31 2.31 0 01.225-1.033 2.19 2.19 0 01.609-.76 2.789 2.789 0 01.88-.466 3.382 3.382 0 011.042-.16 4.283 4.283 0 011.61.313 3.353 3.353 0 011.322.953zM83.68 35.566l-.13-.72a5.94 5.94 0 01-1.209.648 3.818 3.818 0 01-1.385.233 2.452 2.452 0 01-.986-.185 1.994 1.994 0 01-.705-.496 2.159 2.159 0 01-.424-.705 2.374 2.374 0 01-.144-.825 2.494 2.494 0 011.17-2.204 8.476 8.476 0 013.604-1.065v-.704a.864.864 0 00-.345-.737 1.424 1.424 0 00-.873-.257 1.827 1.827 0 00-1.121.312 3.327 3.327 0 00-.705.713l-1.282-.976a2.29 2.29 0 01.529-.618 3.79 3.79 0 01.761-.488 4.272 4.272 0 01.89-.32 3.417 3.417 0 01.928-.097 5.623 5.623 0 011.442.193 2.296 2.296 0 011.001.568 2.347 2.347 0 01.577 1.034 5.74 5.74 0 01.185 1.57v3.925a5.903 5.903 0 00.031.624 2.534 2.534 0 00.129.577zm-.21-3.989q-.496.097-.992.208a4.552 4.552 0 00-.898.297 1.872 1.872 0 00-.648.473 1.064 1.064 0 00-.249.72.942.942 0 00.273.721.966.966 0 00.689.257 1.528 1.528 0 00.496-.088 3.339 3.339 0 00.497-.217 3.635 3.635 0 00.456-.288q.216-.16.377-.289zM99.123 28.42q-.353 0-.705.025a1.206 1.206 0 00-.577.168 2.614 2.614 0 01.32.633 2.508 2.508 0 01.129.84 2.824 2.824 0 01-.2 1.083 2.35 2.35 0 01-.593.849 2.722 2.722 0 01-.977.56 4.226 4.226 0 01-1.37.2 6.379 6.379 0 00-1.106.081c-.299.053-.448.198-.448.432q0 .337.408.45a5.296 5.296 0 001.018.152q.608.04 1.314.08a4.897 4.897 0 011.313.248 2.438 2.438 0 011.017.648 1.809 1.809 0 01.409 1.275 1.89 1.89 0 01-.233.888 2.39 2.39 0 01-.704.793 3.815 3.815 0 01-1.202.57 6.115 6.115 0 01-1.722.215 6.201 6.201 0 01-2.7-.497 1.59 1.59 0 01-1.017-1.489 1.559 1.559 0 01.136-.673 1.466 1.466 0 01.833-.77 1.573 1.573 0 01.537-.095v-.032a2.633 2.633 0 00-.353-.193 2.414 2.414 0 01-.408-.24 1.27 1.27 0 01-.337-.36 1.021 1.021 0 01-.135-.553 1.076 1.076 0 01.151-.56 2.176 2.176 0 01.36-.458 2.384 2.384 0 01.426-.328 2.018 2.018 0 01.36-.176 4.606 4.606 0 01-.873-.93 2.173 2.173 0 01-.36-1.28 2.846 2.846 0 01.208-1.066 2.686 2.686 0 01.625-.93 3.133 3.133 0 011.025-.657 3.768 3.768 0 011.426-.248 3.313 3.313 0 011.097.2 2.883 2.883 0 01.953.538 1.75 1.75 0 01.761-.578 2.852 2.852 0 011.194-.16zm-4.39 6.986a1.881 1.881 0 00-.68.105 1.497 1.497 0 00-.433.248.781.781 0 00-.233.312.855.855 0 00-.064.296.74.74 0 00.48.705 4.575 4.575 0 001.731.225 2.711 2.711 0 00.81-.105 1.895 1.895 0 00.528-.248.967.967 0 00.288-.304.593.593 0 00.089-.273.55.55 0 00-.12-.312 1.1 1.1 0 00-.417-.313 3.32 3.32 0 00-.777-.24 6.327 6.327 0 00-1.202-.096zm1.73-5.48a1.33 1.33 0 00-.4-.976 1.31 1.31 0 00-.961-.401 1.408 1.408 0 00-1.042.401 1.392 1.392 0 000 1.954 1.407 1.407 0 001.042.4 1.309 1.309 0 00.961-.4 1.33 1.33 0 00.4-.977zM100.052 35.566v-8.33h1.826v1.425h.032a3.108 3.108 0 01.905-1.153 2.5 2.5 0 011.435-.433v2.099a.894.894 0 00-.16-.016h-.193a1.446 1.446 0 00-.705.185 3.078 3.078 0 00-.593.416 2.796 2.796 0 00-.408.448.702.702 0 00-.152.297v5.062zM106.78 31.722a2.861 2.861 0 00.53 1.85 1.558 1.558 0 001.201.553 1.866 1.866 0 001.09-.281 4.122 4.122 0 00.769-.713l1.441.897a3.42 3.42 0 01-1.434 1.298 4.838 4.838 0 01-2.058.4 3.407 3.407 0 01-1.466-.304 3.103 3.103 0 01-1.105-.865 3.995 3.995 0 01-.706-1.362 6.602 6.602 0 010-3.589 3.923 3.923 0 01.713-1.36 3.133 3.133 0 011.138-.866 3.648 3.648 0 011.522-.305 3.237 3.237 0 011.45.313 3.169 3.169 0 011.065.84 3.71 3.71 0 01.657 1.226 4.71 4.71 0 01.224 1.45v.818zm3.205-1.346a2.089 2.089 0 00-.457-1.346 1.603 1.603 0 00-2.29 0 2.086 2.086 0 00-.457 1.346zM117.61 35.566l-.128-.72a5.94 5.94 0 01-1.21.648 3.818 3.818 0 01-1.385.233 2.452 2.452 0 01-.985-.185 1.994 1.994 0 01-.705-.496 2.16 2.16 0 01-.425-.705 2.374 2.374 0 01-.144-.825 2.494 2.494 0 011.17-2.204 8.476 8.476 0 013.604-1.065v-.704a.864.864 0 00-.344-.737 1.424 1.424 0 00-.873-.257 1.827 1.827 0 00-1.121.312 3.327 3.327 0 00-.706.713l-1.281-.976a2.29 2.29 0 01.529-.617 3.79 3.79 0 01.76-.489 4.272 4.272 0 01.89-.32 3.417 3.417 0 01.93-.097 5.623 5.623 0 011.44.193 2.296 2.296 0 011.002.568 2.347 2.347 0 01.577 1.034 5.74 5.74 0 01.184 1.57v3.925a5.903 5.903 0 00.032.624 2.534 2.534 0 00.128.577zm-.208-3.989q-.496.097-.993.208a4.552 4.552 0 00-.897.297 1.872 1.872 0 00-.649.473 1.064 1.064 0 00-.248.72.942.942 0 00.272.721.966.966 0 00.69.257 1.528 1.528 0 00.496-.088 3.339 3.339 0 00.496-.217 3.635 3.635 0 00.457-.288q.216-.16.376-.289zM121.423 27.235V24.48h1.987v2.755h1.634v1.603h-1.634v4.71a.514.514 0 00.176.456.97.97 0 00.545.121 1.906 1.906 0 00.456-.057c.155-.037.308-.072.457-.104v1.635q-.417.048-.785.088a7.377 7.377 0 01-.785.04 2.068 2.068 0 01-1.578-.513 2.001 2.001 0 01-.473-1.41v-4.966h-1.153v-1.603zM131.645 27.235V24.48h1.986v2.755h1.634v1.603h-1.634v4.71a.514.514 0 00.177.456.97.97 0 00.544.121 1.906 1.906 0 00.457-.057c.154-.037.307-.072.456-.104v1.635q-.417.048-.785.088a7.376 7.376 0 01-.785.04 2.068 2.068 0 01-1.578-.513 2.001 2.001 0 01-.472-1.41v-4.966h-1.154v-1.603zM136.579 25.697V23.84h1.986v1.858zm1.986 9.87h-1.986v-8.332h1.986zM140.408 35.566v-8.33h1.81v.897a4.948 4.948 0 011.105-.785 3.114 3.114 0 011.394-.273 2.51 2.51 0 011.218.305 1.882 1.882 0 01.833.913 5.801 5.801 0 01.544-.48 3.325 3.325 0 01.633-.385 3.837 3.837 0 01.761-.256 4.112 4.112 0 01.93-.097 2.313 2.313 0 01.68.113 1.753 1.753 0 01.665.392 2.118 2.118 0 01.505.769 3.246 3.246 0 01.2 1.225v5.992H149.7v-5.815a1.175 1.175 0 00-.225-.777 1.052 1.052 0 00-.769-.296 1.64 1.64 0 00-.849.288 5.645 5.645 0 00-.817.608v5.992h-1.986v-5.815a1.175 1.175 0 00-.225-.777 1.052 1.052 0 00-.769-.296 1.64 1.64 0 00-.849.288 5.646 5.646 0 00-.817.608v5.992zM154.938 31.722a2.861 2.861 0 00.53 1.85 1.558 1.558 0 001.201.553 1.866 1.866 0 001.09-.281 4.122 4.122 0 00.768-.713l1.442.897a3.42 3.42 0 01-1.434 1.298 4.838 4.838 0 01-2.058.4 3.407 3.407 0 01-1.466-.304 3.103 3.103 0 01-1.106-.865 3.995 3.995 0 01-.705-1.362 6.602 6.602 0 010-3.589 3.923 3.923 0 01.713-1.36 3.133 3.133 0 011.138-.866 3.648 3.648 0 011.522-.305 3.237 3.237 0 011.45.313 3.169 3.169 0 011.065.84 3.71 3.71 0 01.657 1.226 4.71 4.71 0 01.224 1.45v.818zm3.205-1.346a2.089 2.089 0 00-.457-1.346 1.603 1.603 0 00-2.291 0 2.086 2.086 0 00-.456 1.346zM166.81 27.235V24.48h1.986v2.755h1.634v1.603h-1.634v4.71a.514.514 0 00.177.456.97.97 0 00.544.121 1.906 1.906 0 00.457-.057c.154-.037.307-.072.456-.104v1.635q-.417.048-.784.088a7.376 7.376 0 01-.786.04 2.068 2.068 0 01-1.578-.513 2.001 2.001 0 01-.472-1.41v-4.966h-1.154v-1.603zM170.975 31.401a6.053 6.053 0 01.248-1.795 3.923 3.923 0 01.713-1.36 3.133 3.133 0 011.138-.866 3.954 3.954 0 013.044 0 3.135 3.135 0 011.137.865 3.931 3.931 0 01.713 1.361 6.602 6.602 0 010 3.59 3.922 3.922 0 01-.713 1.36 3.125 3.125 0 01-1.137.866 3.954 3.954 0 01-3.044 0 3.122 3.122 0 01-1.138-.865 3.914 3.914 0 01-.713-1.362 6.047 6.047 0 01-.248-1.794zm5.254 0a4.1 4.1 0 00-.4-2.067 1.488 1.488 0 00-2.467 0 4.1 4.1 0 00-.4 2.067 4.097 4.097 0 00.4 2.067 1.486 1.486 0 002.467 0 4.097 4.097 0 00.4-2.067zM190.648 27.363a2.696 2.696 0 00-.76-1.2 1.936 1.936 0 00-1.338-.466 1.956 1.956 0 00-1.738 1.018 5.914 5.914 0 00-.633 3.068q-.049 4.086 2.435 4.085a2.722 2.722 0 00.68-.08 1.703 1.703 0 00.578-.272 2.494 2.494 0 00.512-.52 4.695 4.695 0 00.489-.842l2.05.544a4.362 4.362 0 01-1.61 2.268 4.626 4.626 0 01-2.699.76 4.105 4.105 0 01-3.436-1.545 6.993 6.993 0 01-1.21-4.398 6.998 6.998 0 011.21-4.398 4.108 4.108 0 013.436-1.546 4.264 4.264 0 012.644.745 4.12 4.12 0 011.393 2.299zM194.253 35.566V24h2.21v4.614h4.455V24h2.21v11.567h-2.21V30.6h-4.454v4.966zM205.371 35.566V24h7.658v1.858h-5.447v2.756h3.957v1.859h-3.957v3.236h5.623v1.858zM220.526 27.363a2.696 2.696 0 00-.76-1.2 1.936 1.936 0 00-1.338-.466 1.956 1.956 0 00-1.739 1.018 5.914 5.914 0 00-.632 3.068q-.049 4.086 2.435 4.085a2.722 2.722 0 00.68-.08 1.703 1.703 0 00.578-.272 2.494 2.494 0 00.512-.52 4.695 4.695 0 00.489-.842l2.05.544a4.362 4.362 0 01-1.61 2.268 4.626 4.626 0 01-2.699.76 4.105 4.105 0 01-3.436-1.545 6.993 6.993 0 01-1.21-4.398 6.998 6.998 0 011.21-4.398 4.108 4.108 0 013.436-1.546 4.264 4.264 0 012.644.745 4.12 4.12 0 011.393 2.299zM224.067 35.566V24h2.211v5.143l3.86-5.143h2.549l-3.285 4.342 3.813 7.225h-2.451l-2.868-5.495-1.618 2.019v3.476zM238.55 36.912a2.418 2.418 0 00.417.056q.192.009.416.009a1.895 1.895 0 00.825-.153 1.072 1.072 0 00.488-.505q.145-.304.233-.512a1.184 1.184 0 00.088-.465 1.486 1.486 0 00-.088-.48q-.088-.257-.168-.513l-2.227-7.114h2.002l1.378 5.127h.032l1.426-5.127h1.986l-2.627 8.347a12.462 12.462 0 01-.649 1.482 3.531 3.531 0 01-.68.93 2.065 2.065 0 01-.826.48 3.771 3.771 0 01-1.065.136c-.245 0-.438-.006-.576-.015a3.753 3.753 0 01-.385-.05zM245.566 31.401a6.038 6.038 0 01.248-1.795 3.923 3.923 0 01.713-1.36 3.129 3.129 0 011.138-.866 3.954 3.954 0 013.044 0 3.145 3.145 0 011.138.865 3.94 3.94 0 01.713 1.361 6.615 6.615 0 010 3.59 3.93 3.93 0 01-.713 1.36 3.134 3.134 0 01-1.138.866 3.954 3.954 0 01-3.044 0 3.118 3.118 0 01-1.138-.865 3.914 3.914 0 01-.713-1.362 6.031 6.031 0 01-.248-1.794zm5.255 0a4.106 4.106 0 00-.4-2.067 1.488 1.488 0 00-2.468 0 4.106 4.106 0 00-.4 2.067 4.102 4.102 0 00.4 2.067 1.487 1.487 0 002.468 0 4.102 4.102 0 00.4-2.067zM260.882 27.235v8.331h-1.826v-.897a12.393 12.393 0 01-1.194.722 2.882 2.882 0 01-1.37.336 2.248 2.248 0 01-1.858-.753 3.145 3.145 0 01-.609-2.034v-5.705h1.987v5.415a1.91 1.91 0 00.257 1.163.935.935 0 00.768.312 2.08 2.08 0 001.13-.297 3.368 3.368 0 00.729-.585v-6.008zM262.565 35.566v-8.33h1.827v1.425h.032a3.098 3.098 0 01.905-1.153 2.498 2.498 0 011.434-.433v2.099a.898.898 0 00-.16-.016h-.193a1.446 1.446 0 00-.705.185 3.063 3.063 0 00-.593.416 2.82 2.82 0 00-.408.448.708.708 0 00-.152.297v5.062zM20.262 43.225h1.986v4.005h.032a1.822 1.822 0 01.385-.369 2.65 2.65 0 01.52-.296 3.715 3.715 0 01.57-.192 2.256 2.256 0 01.544-.072 2.857 2.857 0 011.426.352 3.304 3.304 0 011.049.93 4.167 4.167 0 01.641 1.313 5.325 5.325 0 01.216 1.506 7.465 7.465 0 01-.208 1.81 4.426 4.426 0 01-.625 1.442 3.008 3.008 0 01-1.041.953 2.974 2.974 0 01-1.458.345 2.585 2.585 0 01-1.202-.272 4.516 4.516 0 01-1.057-.785l-.224.897h-1.554zm1.986 9.388c.107.086.206.171.296.256a1.87 1.87 0 00.305.233 1.757 1.757 0 00.393.176 1.798 1.798 0 00.544.073 1.572 1.572 0 001.378-.698 4.515 4.515 0 000-4.053 1.574 1.574 0 00-1.378-.697 1.695 1.695 0 00-.857.216 4.048 4.048 0 00-.681.49zM35.786 46.46v8.332h-1.827v-.898a12.393 12.393 0 01-1.193.722 2.88 2.88 0 01-1.37.336 2.248 2.248 0 01-1.858-.753 3.14 3.14 0 01-.61-2.034v-5.704h1.987v5.415a1.91 1.91 0 00.256 1.162.938.938 0 00.77.312 2.076 2.076 0 001.129-.296 3.36 3.36 0 00.729-.585V46.46zM41.602 48.656a4.818 4.818 0 00-.697-.6 1.443 1.443 0 00-.858-.282 1.325 1.325 0 00-.849.225.73.73 0 00-.272.593.664.664 0 00.312.57 3.707 3.707 0 00.77.39q.456.178 1 .362a4.069 4.069 0 011.002.496 2.763 2.763 0 01.77.8 2.271 2.271 0 01.311 1.243 2.492 2.492 0 01-.232 1.121 2.204 2.204 0 01-.64.778 2.665 2.665 0 01-.97.456 4.855 4.855 0 01-1.217.144 3.706 3.706 0 01-1.803-.432 3.905 3.905 0 01-1.354-1.25l1.33-.994a4.099 4.099 0 00.825.842 1.783 1.783 0 001.113.36 1.323 1.323 0 00.858-.264.834.834 0 00.328-.68.683.683 0 00-.312-.578 3.464 3.464 0 00-.77-.4q-.456-.176-1-.376a4.764 4.764 0 01-1.002-.505 2.774 2.774 0 01-.769-.77 2.082 2.082 0 01-.312-1.185 2.31 2.31 0 01.224-1.034 2.19 2.19 0 01.61-.76 2.789 2.789 0 01.88-.465 3.382 3.382 0 011.041-.16 4.283 4.283 0 011.61.312 3.354 3.354 0 011.322.953zM44.469 44.923v-1.859h1.987v1.859zm1.987 9.869h-1.987v-8.331h1.987zM48.298 54.792v-8.331h1.826v.897a12.145 12.145 0 011.194-.72 2.87 2.87 0 011.37-.337 2.248 2.248 0 011.858.753 3.145 3.145 0 01.609 2.035v5.703h-1.987v-5.415a1.905 1.905 0 00-.256-1.161.935.935 0 00-.77-.313 2.084 2.084 0 00-1.129.296 3.39 3.39 0 00-.729.585v6.008zM58.39 50.947a2.861 2.861 0 00.53 1.85 1.558 1.558 0 001.201.554 1.866 1.866 0 001.09-.282 4.123 4.123 0 00.768-.713l1.442.898a3.42 3.42 0 01-1.434 1.298 4.838 4.838 0 01-2.058.4 3.407 3.407 0 01-1.466-.305 3.103 3.103 0 01-1.106-.865 3.995 3.995 0 01-.705-1.361 6.602 6.602 0 010-3.589 3.923 3.923 0 01.713-1.361 3.133 3.133 0 011.138-.866 3.648 3.648 0 011.522-.304 3.237 3.237 0 011.45.312 3.169 3.169 0 011.065.841 3.71 3.71 0 01.657 1.226 4.71 4.71 0 01.224 1.45v.817zm3.205-1.345a2.089 2.089 0 00-.457-1.346 1.603 1.603 0 00-2.29 0 2.086 2.086 0 00-.457 1.346zM68.997 48.656a4.818 4.818 0 00-.697-.6 1.443 1.443 0 00-.858-.282 1.325 1.325 0 00-.849.225.73.73 0 00-.272.593.664.664 0 00.312.57 3.707 3.707 0 00.77.39q.456.178 1 .362a4.069 4.069 0 011.002.496 2.763 2.763 0 01.77.8 2.271 2.271 0 01.311 1.243 2.492 2.492 0 01-.232 1.121 2.203 2.203 0 01-.64.778 2.665 2.665 0 01-.97.456 4.855 4.855 0 01-1.217.144 3.706 3.706 0 01-1.803-.432 3.905 3.905 0 01-1.354-1.25l1.33-.994a4.099 4.099 0 00.825.842 1.783 1.783 0 001.113.36 1.323 1.323 0 00.858-.264.834.834 0 00.328-.68.683.683 0 00-.313-.578 3.464 3.464 0 00-.769-.4q-.456-.176-1-.376a4.764 4.764 0 01-1.002-.505 2.774 2.774 0 01-.769-.77 2.082 2.082 0 01-.313-1.185 2.31 2.31 0 01.225-1.034 2.19 2.19 0 01.609-.76 2.789 2.789 0 01.88-.465 3.382 3.382 0 011.042-.16 4.283 4.283 0 011.61.312 3.354 3.354 0 011.322.953zM76.014 48.656a4.818 4.818 0 00-.697-.6 1.443 1.443 0 00-.858-.282 1.325 1.325 0 00-.849.225.73.73 0 00-.272.593.664.664 0 00.312.57 3.707 3.707 0 00.77.39q.456.178 1 .362a4.069 4.069 0 011.002.496 2.763 2.763 0 01.77.8 2.271 2.271 0 01.311 1.243 2.492 2.492 0 01-.232 1.121 2.203 2.203 0 01-.64.778 2.665 2.665 0 01-.97.456 4.855 4.855 0 01-1.217.144 3.706 3.706 0 01-1.803-.432 3.905 3.905 0 01-1.353-1.25l1.33-.994a4.099 4.099 0 00.824.842 1.783 1.783 0 001.114.36 1.323 1.323 0 00.857-.264.834.834 0 00.328-.68.683.683 0 00-.312-.578 3.464 3.464 0 00-.77-.4q-.456-.176-1-.376a4.764 4.764 0 01-1.002-.505 2.774 2.774 0 01-.769-.77 2.082 2.082 0 01-.312-1.185 2.31 2.31 0 01.224-1.034 2.19 2.19 0 01.61-.76 2.789 2.789 0 01.88-.465 3.382 3.382 0 011.042-.16 4.283 4.283 0 011.61.312 3.354 3.354 0 011.321.953zM79.505 45.5h-.96v-2.275h2.21V45.5l-1.025 2.403h-1.042zM89.134 50.947a2.861 2.861 0 00.53 1.85 1.558 1.558 0 001.2.554 1.866 1.866 0 001.09-.282 4.123 4.123 0 00.77-.713l1.44.898a3.42 3.42 0 01-1.433 1.298 4.838 4.838 0 01-2.059.4 3.407 3.407 0 01-1.465-.305 3.103 3.103 0 01-1.106-.865 3.995 3.995 0 01-.705-1.361 6.602 6.602 0 010-3.589 3.923 3.923 0 01.713-1.361 3.133 3.133 0 011.138-.866 3.648 3.648 0 011.522-.304 3.237 3.237 0 011.45.312 3.169 3.169 0 011.065.841 3.71 3.71 0 01.656 1.226 4.71 4.71 0 01.225 1.45v.817zm3.204-1.345a2.089 2.089 0 00-.456-1.346 1.603 1.603 0 00-2.291 0 2.086 2.086 0 00-.457 1.346zM95.638 54.792V43.225h1.987v11.567zM99.58 44.923v-1.859h1.986v1.859zm1.986 9.869H99.58v-8.331h1.986zM110.33 47.646q-.353 0-.705.025a1.206 1.206 0 00-.577.168 2.614 2.614 0 01.32.633 2.508 2.508 0 01.128.84 2.824 2.824 0 01-.2 1.083 2.35 2.35 0 01-.593.848 2.722 2.722 0 01-.977.56 4.226 4.226 0 01-1.37.2 6.38 6.38 0 00-1.105.082c-.3.053-.449.197-.449.432q0 .337.409.449a5.295 5.295 0 001.017.152q.609.04 1.314.08a4.897 4.897 0 011.314.248 2.438 2.438 0 011.017.649 1.809 1.809 0 01.408 1.274 1.89 1.89 0 01-.232.889 2.39 2.39 0 01-.705.793 3.815 3.815 0 01-1.201.57 6.115 6.115 0 01-1.723.215 6.201 6.201 0 01-2.7-.497 1.59 1.59 0 01-1.016-1.49 1.559 1.559 0 01.136-.672 1.466 1.466 0 01.833-.77 1.573 1.573 0 01.537-.096v-.032a2.633 2.633 0 00-.353-.192 2.413 2.413 0 01-.409-.24 1.27 1.27 0 01-.336-.36 1.021 1.021 0 01-.136-.553 1.076 1.076 0 01.152-.56 2.176 2.176 0 01.36-.458 2.383 2.383 0 01.425-.328 2.018 2.018 0 01.36-.177 4.605 4.605 0 01-.872-.929 2.173 2.173 0 01-.36-1.28 2.846 2.846 0 01.207-1.066 2.686 2.686 0 01.625-.93 3.133 3.133 0 011.026-.657 3.768 3.768 0 011.425-.248 3.312 3.312 0 011.098.2 2.883 2.883 0 01.953.537 1.75 1.75 0 01.76-.577 2.852 2.852 0 011.195-.16zm-4.39 6.986a1.881 1.881 0 00-.681.104 1.497 1.497 0 00-.433.248.781.781 0 00-.232.313.855.855 0 00-.064.296.74.74 0 00.48.705 4.575 4.575 0 001.73.224 2.711 2.711 0 00.81-.104 1.895 1.895 0 00.529-.248.966.966 0 00.288-.305.593.593 0 00.088-.272.551.551 0 00-.12-.313 1.101 1.101 0 00-.417-.312 3.32 3.32 0 00-.777-.24 6.326 6.326 0 00-1.202-.096zm1.73-5.48a1.33 1.33 0 00-.4-.976 1.31 1.31 0 00-.962-.402 1.408 1.408 0 00-1.041.402 1.392 1.392 0 000 1.954 1.407 1.407 0 001.041.4 1.309 1.309 0 00.962-.4 1.33 1.33 0 00.4-.978zM111.419 44.923v-1.859h1.987v1.859zm1.987 9.869h-1.987v-8.331h1.987zM115.248 43.225h1.986v4.005h.033a1.822 1.822 0 01.384-.369 2.65 2.65 0 01.52-.296 3.715 3.715 0 01.57-.192 2.256 2.256 0 01.544-.072 2.857 2.857 0 011.426.352 3.304 3.304 0 011.05.93 4.167 4.167 0 01.64 1.313 5.325 5.325 0 01.217 1.506 7.465 7.465 0 01-.209 1.81 4.426 4.426 0 01-.624 1.442 3.008 3.008 0 01-1.042.953 2.974 2.974 0 01-1.458.345 2.585 2.585 0 01-1.201-.272 4.516 4.516 0 01-1.058-.785l-.224.897h-1.554zm1.986 9.388c.107.086.206.171.297.256a1.87 1.87 0 00.304.233 1.757 1.757 0 00.393.176 1.798 1.798 0 00.544.073 1.572 1.572 0 001.378-.698 4.515 4.515 0 000-4.053 1.574 1.574 0 00-1.378-.697 1.695 1.695 0 00-.856.216 4.048 4.048 0 00-.682.49zM124.06 44.923v-1.859h1.986v1.859zm1.986 9.869h-1.987v-8.331h1.987zM128 54.792V43.225h1.987v11.567zM131.941 44.923v-1.859h1.987v1.859zm1.987 9.869h-1.987v-8.331h1.987zM136.17 46.46v-2.754h1.988v2.755h1.633v1.602h-1.633v4.71a.514.514 0 00.176.456.97.97 0 00.544.122 1.906 1.906 0 00.457-.057c.155-.037.307-.072.456-.105v1.635q-.416.049-.784.088a7.377 7.377 0 01-.785.04 2.068 2.068 0 01-1.578-.513 2.001 2.001 0 01-.473-1.41v-4.966h-1.153v-1.602zM140.417 56.138a2.427 2.427 0 00.416.055q.193.01.417.01a1.896 1.896 0 00.825-.153 1.073 1.073 0 00.488-.505q.145-.305.232-.513a1.185 1.185 0 00.089-.465 1.487 1.487 0 00-.089-.48q-.087-.256-.168-.513l-2.227-7.113h2.003l1.378 5.127h.032l1.426-5.127h1.987l-2.628 8.347a12.63 12.63 0 01-.649 1.482 3.554 3.554 0 01-.681.929 2.064 2.064 0 01-.825.481 3.778 3.778 0 01-1.065.136c-.246 0-.438-.006-.577-.016a3.748 3.748 0 01-.385-.049zM155.588 48.063v6.729H153.6v-6.729h-1.153v-1.602h1.137v-1.025a4 4 0 01.136-1.13 1.611 1.611 0 01.425-.729 1.681 1.681 0 01.737-.392 4.115 4.115 0 011.057-.12h1.314v1.602h-.545a1.385 1.385 0 00-.873.208.853.853 0 00-.248.69v.896h1.682v1.602zM157.766 50.627a6.053 6.053 0 01.249-1.795 3.923 3.923 0 01.713-1.361 3.133 3.133 0 011.137-.865 3.954 3.954 0 013.044 0 3.135 3.135 0 011.137.865 3.931 3.931 0 01.713 1.361 6.602 6.602 0 010 3.589 3.923 3.923 0 01-.713 1.361 3.125 3.125 0 01-1.137.866 3.954 3.954 0 01-3.044 0 3.122 3.122 0 01-1.137-.866 3.914 3.914 0 01-.713-1.361 6.046 6.046 0 01-.249-1.794zm5.255 0a4.1 4.1 0 00-.4-2.067 1.488 1.488 0 00-2.468 0 4.1 4.1 0 00-.4 2.067 4.097 4.097 0 00.4 2.066 1.486 1.486 0 002.468 0 4.097 4.097 0 00.4-2.066zM166.193 54.792v-8.331h1.827v1.426h.032a3.108 3.108 0 01.905-1.154 2.5 2.5 0 011.434-.432v2.098a.895.895 0 00-.16-.015h-.192a1.446 1.446 0 00-.706.184 3.078 3.078 0 00-.592.416 2.796 2.796 0 00-.408.449.702.702 0 00-.153.297v5.062zM176.863 46.46v-2.754h1.987v2.755h1.633v1.602h-1.633v4.71a.514.514 0 00.176.456.97.97 0 00.544.122 1.913 1.913 0 00.457-.057 19.9 19.9 0 01.456-.105v1.635q-.417.049-.784.088a7.376 7.376 0 01-.785.04 2.068 2.068 0 01-1.579-.513 2.001 2.001 0 01-.472-1.41v-4.966h-1.154v-1.602zM181.653 54.792V43.225h1.987v4.133a7.042 7.042 0 011.065-.72 2.688 2.688 0 011.338-.337 2.248 2.248 0 011.858.753 3.142 3.142 0 01.609 2.035v5.703h-1.987v-5.415a1.912 1.912 0 00-.255-1.161.936.936 0 00-.77-.313 2.083 2.083 0 00-1.129.296 3.382 3.382 0 00-.73.585v6.008zM191.746 50.947a2.864 2.864 0 00.528 1.85 1.559 1.559 0 001.203.554 1.864 1.864 0 001.088-.282 4.095 4.095 0 00.77-.713l1.441.898a3.417 3.417 0 01-1.433 1.298 4.838 4.838 0 01-2.059.4 3.407 3.407 0 01-1.466-.305 3.107 3.107 0 01-1.105-.865 3.986 3.986 0 01-.705-1.361 6.615 6.615 0 010-3.589 3.923 3.923 0 01.713-1.361 3.129 3.129 0 011.137-.866 3.646 3.646 0 011.522-.304 3.238 3.238 0 011.45.312 3.164 3.164 0 011.066.841 3.737 3.737 0 01.657 1.226 4.71 4.71 0 01.223 1.45v.817zm3.204-1.345a2.086 2.086 0 00-.457-1.346 1.602 1.602 0 00-2.29 0 2.086 2.086 0 00-.457 1.346zM210.09 47.646q-.353 0-.705.025a1.206 1.206 0 00-.577.168 2.563 2.563 0 01.32.633 2.494 2.494 0 01.129.84 2.843 2.843 0 01-.2 1.083 2.355 2.355 0 01-.593.848 2.724 2.724 0 01-.978.56 4.225 4.225 0 01-1.37.2 6.388 6.388 0 00-1.105.082c-.3.053-.448.197-.448.432q0 .337.408.449a5.301 5.301 0 001.017.152q.61.04 1.314.08a4.89 4.89 0 011.313.248 2.44 2.44 0 011.018.649 1.809 1.809 0 01.409 1.274 1.895 1.895 0 01-.232.889 2.402 2.402 0 01-.706.793 3.813 3.813 0 01-1.202.57 6.107 6.107 0 01-1.721.215 6.199 6.199 0 01-2.7-.497 1.589 1.589 0 01-1.017-1.49 1.559 1.559 0 01.136-.672 1.47 1.47 0 01.833-.77 1.578 1.578 0 01.537-.096v-.032a2.604 2.604 0 00-.353-.192 2.372 2.372 0 01-.408-.24 1.265 1.265 0 01-.337-.36 1.021 1.021 0 01-.136-.553 1.076 1.076 0 01.153-.56 2.115 2.115 0 01.36-.458 2.396 2.396 0 01.424-.328 2.022 2.022 0 01.361-.177 4.61 4.61 0 01-.874-.929 2.173 2.173 0 01-.36-1.28 2.828 2.828 0 01.209-1.066 2.69 2.69 0 01.624-.93 3.154 3.154 0 011.025-.657 3.773 3.773 0 011.426-.248 3.315 3.315 0 011.098.2 2.88 2.88 0 01.953.537 1.752 1.752 0 01.761-.577 2.85 2.85 0 011.194-.16zm-4.39 6.986a1.877 1.877 0 00-.68.104 1.478 1.478 0 00-.433.248.772.772 0 00-.233.313.845.845 0 00-.064.296.74.74 0 00.48.705 4.574 4.574 0 001.731.224 2.706 2.706 0 00.809-.104 1.885 1.885 0 00.529-.248.972.972 0 00.288-.305.591.591 0 00.088-.272.551.551 0 00-.12-.313 1.099 1.099 0 00-.416-.312 3.328 3.328 0 00-.778-.24 6.324 6.324 0 00-1.2-.096zm1.73-5.48a1.327 1.327 0 00-.4-.976 1.308 1.308 0 00-.962-.402 1.405 1.405 0 00-1.04.402 1.392 1.392 0 000 1.954 1.404 1.404 0 001.04.4 1.307 1.307 0 00.961-.4 1.328 1.328 0 00.402-.978zM210.442 50.627a6.037 6.037 0 01.248-1.795 3.923 3.923 0 01.713-1.361 3.129 3.129 0 011.138-.865 3.954 3.954 0 013.044 0 3.145 3.145 0 011.138.865 3.94 3.94 0 01.712 1.361 6.615 6.615 0 010 3.589 3.93 3.93 0 01-.712 1.361 3.135 3.135 0 01-1.138.866 3.954 3.954 0 01-3.044 0 3.118 3.118 0 01-1.138-.866 3.914 3.914 0 01-.713-1.361 6.03 6.03 0 01-.248-1.794zm5.255 0a4.106 4.106 0 00-.4-2.067 1.488 1.488 0 00-2.468 0 4.106 4.106 0 00-.4 2.067 4.102 4.102 0 00.4 2.066 1.487 1.487 0 002.468 0 4.102 4.102 0 00.4-2.066zM217.924 46.46h1.986l1.378 5.64h.032l1.41-5.64h1.987l-2.387 8.332h-2.083zM226.943 50.947a2.864 2.864 0 00.529 1.85 1.559 1.559 0 001.202.554 1.864 1.864 0 001.089-.282 4.095 4.095 0 00.77-.713l1.44.898a3.417 3.417 0 01-1.433 1.298 4.838 4.838 0 01-2.059.4 3.407 3.407 0 01-1.465-.305 3.107 3.107 0 01-1.106-.865 3.986 3.986 0 01-.705-1.361 6.615 6.615 0 010-3.589 3.923 3.923 0 01.713-1.361 3.129 3.129 0 011.138-.866 3.646 3.646 0 011.521-.304 3.238 3.238 0 011.45.312 3.164 3.164 0 011.066.841 3.737 3.737 0 01.657 1.226 4.71 4.71 0 01.224 1.45v.817zm3.204-1.345a2.086 2.086 0 00-.457-1.346 1.602 1.602 0 00-2.29 0 2.086 2.086 0 00-.457 1.346zM233.288 54.792v-8.331h1.826v1.426h.032a3.098 3.098 0 01.906-1.154 2.498 2.498 0 011.433-.432v2.098a.899.899 0 00-.16-.015h-.192a1.446 1.446 0 00-.705.184 3.063 3.063 0 00-.593.416 2.819 2.819 0 00-.408.449.708.708 0 00-.153.297v5.062zM238.494 54.792v-8.331h1.826v.897a12.195 12.195 0 011.194-.72 2.872 2.872 0 011.37-.337 2.248 2.248 0 011.858.753 3.142 3.142 0 01.609 2.035v5.703h-1.987v-5.415a1.912 1.912 0 00-.256-1.161.936.936 0 00-.77-.313 2.083 2.083 0 00-1.128.296 3.382 3.382 0 00-.73.585v6.008zM247.098 54.792v-8.331h1.81v.897a4.914 4.914 0 011.106-.785 3.109 3.109 0 011.393-.272 2.512 2.512 0 011.218.305 1.882 1.882 0 01.833.913 5.808 5.808 0 01.545-.48 3.264 3.264 0 01.633-.386 3.822 3.822 0 01.76-.255 4.11 4.11 0 01.93-.097 2.316 2.316 0 01.68.112 1.742 1.742 0 01.665.393 2.119 2.119 0 01.505.768 3.247 3.247 0 01.2 1.226v5.992h-1.986v-5.815a1.175 1.175 0 00-.225-.778 1.049 1.049 0 00-.769-.296 1.64 1.64 0 00-.85.288 5.634 5.634 0 00-.816.609v5.992h-1.987v-5.815a1.175 1.175 0 00-.223-.778 1.051 1.051 0 00-.77-.296 1.64 1.64 0 00-.849.288 5.7 5.7 0 00-.817.609v5.992zM261.628 50.947a2.864 2.864 0 00.528 1.85 1.559 1.559 0 001.202.554 1.864 1.864 0 001.09-.282 4.095 4.095 0 00.769-.713l1.441.898a3.417 3.417 0 01-1.433 1.298 4.838 4.838 0 01-2.059.4 3.407 3.407 0 01-1.466-.305 3.107 3.107 0 01-1.105-.865 3.986 3.986 0 01-.705-1.361 6.615 6.615 0 010-3.589 3.923 3.923 0 01.713-1.361 3.129 3.129 0 011.137-.866 3.646 3.646 0 011.522-.304 3.238 3.238 0 011.45.312 3.164 3.164 0 011.065.841 3.737 3.737 0 01.658 1.226 4.71 4.71 0 01.223 1.45v.817zm3.204-1.345a2.086 2.086 0 00-.457-1.346 1.602 1.602 0 00-2.29 0 2.086 2.086 0 00-.457 1.346zM268.036 54.792v-8.331h1.826v.897a12.195 12.195 0 011.194-.72 2.872 2.872 0 011.37-.337 2.248 2.248 0 011.858.753 3.142 3.142 0 01.609 2.035v5.703h-1.987v-5.415a1.912 1.912 0 00-.256-1.161.936.936 0 00-.77-.313 2.083 2.083 0 00-1.128.296 3.382 3.382 0 00-.73.585v6.008zM276.992 46.46v-2.754h1.987v2.755h1.634v1.602h-1.634v4.71a.513.513 0 00.176.456.97.97 0 00.545.122 1.906 1.906 0 00.456-.057 20 20 0 01.457-.105v1.635q-.417.049-.785.088a7.376 7.376 0 01-.785.04 2.066 2.066 0 01-1.578-.513 1.999 1.999 0 01-.473-1.41v-4.966h-1.153v-1.602zM47.64 74.017V62.449h2.21v11.568zM52.173 74.017V62.449h2.306l4.55 7.883h.033v-7.883h2.083v11.568h-2.131l-4.726-8.235h-.033v8.235zM68.722 65.525a2.534 2.534 0 00-.769-1.088 1.99 1.99 0 00-1.298-.417 2.122 2.122 0 00-1.185.304 1.081 1.081 0 00-.465.978.99.99 0 00.44.824 5.23 5.23 0 001.106.61q.665.28 1.434.568a7.7 7.7 0 011.434.713 3.919 3.919 0 011.105 1.05 2.63 2.63 0 01.44 1.553 3.286 3.286 0 01-1.056 2.676 4.56 4.56 0 01-2.996.88 5.07 5.07 0 01-2.628-.737 4.248 4.248 0 01-1.017-.864 3.861 3.861 0 01-.681-1.138l1.827-.801a4.115 4.115 0 00.969 1.314 2.268 2.268 0 001.546.496 3.456 3.456 0 00.769-.08 1.742 1.742 0 00.616-.263 1.298 1.298 0 00.417-.482 1.54 1.54 0 00.152-.713 1.183 1.183 0 00-.44-.936 4.72 4.72 0 00-1.106-.682q-.665-.303-1.434-.593a8.227 8.227 0 01-1.434-.696 3.97 3.97 0 01-1.105-.993 2.396 2.396 0 01-.44-1.483 3.038 3.038 0 01.304-1.378 2.984 2.984 0 01.817-1.016 3.682 3.682 0 011.185-.625 4.875 4.875 0 013.91.456A3.958 3.958 0 0170.74 64.9zM80.08 62.434v1.858h-3.027v9.725h-2.211v-9.725h-3.028v-1.858zM82.788 62.434h2.756l3.284 11.583h-2.195l-.64-2.5h-3.654l-.688 2.5h-2.195zm.032 7.257h2.692l-1.298-5.03h-.032zM90.062 74.017V62.449h2.306l4.55 7.883h.032v-7.883h2.083v11.568h-2.13l-4.727-8.235h-.032v8.235zM108.581 62.434v1.858h-3.028v9.725h-2.21v-9.725h-3.029v-1.858zM117.328 62.434h2.756l3.284 11.583h-2.195l-.64-2.5h-3.654l-.688 2.5h-2.195zm.032 7.257h2.692l-1.298-5.03h-.032zM130.049 65.525a2.535 2.535 0 00-.77-1.088 1.99 1.99 0 00-1.297-.417 2.122 2.122 0 00-1.186.304 1.081 1.081 0 00-.464.978.99.99 0 00.44.824 5.23 5.23 0 001.106.61q.664.28 1.434.568a7.7 7.7 0 011.434.713 3.919 3.919 0 011.105 1.05 2.63 2.63 0 01.44 1.553 3.286 3.286 0 01-1.057 2.676 4.56 4.56 0 01-2.996.88 5.07 5.07 0 01-2.627-.737 4.248 4.248 0 01-1.017-.864 3.861 3.861 0 01-.681-1.138l1.826-.801a4.115 4.115 0 00.97 1.314 2.268 2.268 0 001.545.496 3.456 3.456 0 00.77-.08 1.742 1.742 0 00.616-.263 1.298 1.298 0 00.417-.482 1.54 1.54 0 00.152-.713 1.183 1.183 0 00-.44-.936 4.72 4.72 0 00-1.106-.682q-.665-.303-1.434-.593a8.227 8.227 0 01-1.434-.696 3.97 3.97 0 01-1.106-.993 2.396 2.396 0 01-.44-1.483 3.038 3.038 0 01.305-1.378 2.984 2.984 0 01.817-1.016 3.682 3.682 0 011.185-.625 4.875 4.875 0 013.91.456 3.958 3.958 0 011.601 1.938zM139.597 65.525a2.534 2.534 0 00-.769-1.088 1.99 1.99 0 00-1.298-.417 2.122 2.122 0 00-1.185.304 1.081 1.081 0 00-.465.978.99.99 0 00.44.824 5.23 5.23 0 001.106.61q.665.28 1.434.568a7.7 7.7 0 011.434.713 3.919 3.919 0 011.105 1.05 2.63 2.63 0 01.44 1.553 3.286 3.286 0 01-1.056 2.676 4.56 4.56 0 01-2.996.88 5.07 5.07 0 01-2.628-.737 4.248 4.248 0 01-1.017-.864 3.861 3.861 0 01-.681-1.138l1.827-.801a4.115 4.115 0 00.969 1.314 2.268 2.268 0 001.546.496 3.456 3.456 0 00.769-.08 1.742 1.742 0 00.616-.263 1.298 1.298 0 00.417-.482 1.54 1.54 0 00.152-.713 1.183 1.183 0 00-.44-.936 4.72 4.72 0 00-1.106-.682q-.665-.303-1.434-.593a8.227 8.227 0 01-1.434-.696 3.97 3.97 0 01-1.105-.993 2.396 2.396 0 01-.44-1.483 3.038 3.038 0 01.304-1.378 2.984 2.984 0 01.817-1.016 3.682 3.682 0 011.185-.625 4.875 4.875 0 013.91.456 3.958 3.958 0 011.602 1.938zM143.538 74.017V62.449h7.658v1.859h-5.447v2.755h3.957v1.859h-3.957v3.236h5.623v1.859zM160.488 62.434v1.858h-3.028v9.725h-2.211v-9.725h-3.028v-1.858zM166.015 62.45h2.067l1.458 7.802h.031l1.65-7.803h2.276l1.522 7.803h.031l1.587-7.803h2.066L176.3 74.017h-2.243l-1.682-8.235h-.032l-1.666 8.235h-2.243zM179.969 74.017V62.449h4.613a4.813 4.813 0 011.684.265 2.996 2.996 0 011.144.73 2.94 2.94 0 01.656 1.088 4.08 4.08 0 01.217 1.346 3.195 3.195 0 01-.52 1.875 2.757 2.757 0 01-1.595 1.104l2.549 5.16h-2.451l-2.18-4.71h-1.906v4.71zm2.21-6.505h1.635a2.832 2.832 0 001.778-.408 1.803 1.803 0 000-2.452 2.095 2.095 0 00-1.393-.408h-2.02zM190.302 74.017V62.449h2.21v11.568zM202.205 62.434v1.858h-3.027v9.725h-2.211v-9.725h-3.029v-1.858zM203.503 74.017V62.449h7.658v1.859h-5.447v2.755h3.957v1.859h-3.957v3.236h5.623v1.859zM212.106 70.717v-1.73h3.925v1.73zM227.102 68.233a6.897 6.897 0 01-1.234 4.398 5.014 5.014 0 01-7.242 0 6.897 6.897 0 01-1.233-4.398 6.902 6.902 0 011.233-4.398 5.014 5.014 0 017.242 0 6.902 6.902 0 011.234 4.398zm-2.211 0a5.858 5.858 0 00-.641-3.068 2.48 2.48 0 00-4.006 0 5.858 5.858 0 00-.64 3.068 5.617 5.617 0 00.617 3.068 2.23 2.23 0 002.026 1.017 2.197 2.197 0 002.003-1.017 5.851 5.851 0 00.64-3.068zM228.64 74.017V62.449h7.369v1.859h-5.158v2.755h3.86v1.859h-3.86v5.095zM237.243 74.017V62.449h7.37v1.859h-5.159v2.755h3.86v1.859h-3.86v5.095zM244.55 65.44l1.682-3.502h.934l1.682 3.502h-1.028l-1.12-2.456-1.13 2.456zM250.36 74.017V71.74h2.21v2.276z" fill="#fff"/></svg>