<svg xmlns="http://www.w3.org/2000/svg" width="199.1" height="7.2"><style>.st0{fill:red}</style><path class="st0" d="M.8 1.3zM.9 3zm.2-.3zm0-1.3v.1-.1zm.1.4V2v-.2zm0 .2zm.1.3h-.2V2.6h.2V2.3h.1v-.1h-.1v.1zm.2-.5zm0 .8v-.2l-.1.1.1.1zm.2.1h-.1.1zm.4.5zm0-.9v.2h.1v-.4l-.1.2zm.3-.5l-.1.2.1-.2zm.2-.4l-.2.1v.1h.1l.2-.2h-.1zm-.1.6v.1l.1.1h.1v-.1l-.1.1-.1-.2zm.3-.2v-.1h-.1v.1h.1zm.1.8v-.1l-.1-.1h-.2l.1.1.2.1zm0-1.1v.4-.4zm.1.7v-.1L2.9 2l.1.2.1.2v-.1L3 2.2zm.1-.7l-.1.1.1-.1zm0 .2h-.2l.1.1.1.1v-.2zm.2.6zm0-.9zm.1.7zm-.1 0h-.1l.1.2h-.1l-.2.2v.1l.1.1v-.1h.1l.1.3h.1v-.2l.1-.1v-.1h-.1V2.2h-.1v-.1zm.2.2zm0-.1zm.3-.2v.3V2zm0 .9zm.1-.6l-.2-.1.1.3.1.1v-.3zm0 .6zm0-1.1v.1-.1zm.2.3zm0 .7zm-.1.4l.1.2v-.2H4zm.3-.6h.2v-.2l-.2.2zm-.2-.5v.5l.2-.2H4.6v-.1l-.1-.2h-.4zm.8.2zm0 .3v-.1h-.2l.2.1zm.2.2zm0-.2v-.2.2zm0 .8zm.1-1.2l-.1-.1H5v.1h.1v.1h.1v-.1zm.1-.2h-.1l.1.1V2zm.1.2v.1-.1zm.1 0zm.7 1v.1-.1zM6.4 2l-.2.1.1.2.1-.2V2zm.2 0l.1.2-.1-.2zm.2.1zm.2.4h-.2l.2.2v-.2zm.3.7zm.1-1.1zm.1.6l.1-.1-.1.1zm.1-.5l-.1.2h.1l.1.1v-.1l-.1-.2zm.1-.1V2h-.2v.1h.2zm.1.1zm.4 0l-.1-.1H8v.1h.2zm.1.3zm0-.4zm.1.4zm.2-.5zm12.5-.7zm.3 1.5v.1-.1zm.2-.4zm0 .9v-.1l-.1-.1h-.1l.2.2zm.1-.8l-.1.1-.1.1v.1h.1l.1-.1v-.2zm0 .2zm-1.5-.3H20h.2zm.2.6zm.1-.1h-.1.1zm0-.5v.2-.2zm0-.2zm.4-.1v.1l.1.1v-.1l-.1-.1zm.1.3zm.2-.2l-.2.1v.1h.1l.1-.2zm.2.7l-.1-.1v-.1h-.1v.1l.2.1zm0-.6v-.1h-.1l.1.2h.1l.1-.1.1-.1v.1h.1v-.2l-.1-.1h-.1l-.2.3zm.2-.4v.2h.2l-.2-.2zm.2-.3v.1-.1zm.2-.1zm.1.8H22l-.1.1.2-.1zm.1-.1l.1.1v-.4l-.1.3zm.3-.1h-.1v.1l.1-.1zm.1.1v.1-.1zm-.1 1v.1h.2l-.2-.1zm.3-1l.1-.1-.1.1zm.4.1l-.1.1.1-.1zm0 .3v.2-.2zm.2 0zm.1-.3v.2-.2zm.1.2h-.1.1zm0 .3v-.1.1zm.3-1.5zm-.1.7l.1.1-.1-.1zm.2.2v.1-.1zm.2-.3h-.1.1zm0-.2zm1.7.1zm0 .9l-.1.5.1-.5zm.1-.5v.2-.2zm-.1.2l.1.1-.1-.1zm.9-.2zm-.3.2v.2l.1.1h.1l.1-.1-.1-.1v.1h-.1l-.1-.2zm.2.5zm.3-1zm.2 1.5zM0 2.6V1.5l.1-.2.2-.2.1-.1h.3l.3.1h.1l.1.1.1-.1.1.1h.2v.1h.1l.1-.1h.8l.1.1.2-.1H3.8l.2-.1.2.1.5-.1h.7l.1.1h1l.1-.1h.6l.4.1.1-.1h.1l.4-.1.1.1h13-1H22v.2-.2h1.6l.1.1.3-.1H24.3l.6.1H26.1l.1.1v-.2l.5.1.2-.1h.4l.2.1.2.1.1.3V3.5l-.1.2h-.2l-.2.1H24.1l-.1-.1-.2.1H21.5l-.2-.1H20.6h1.3-.2l-.2.1-12.9-.3-.1.1-.4-.1H6.4v-.1.1h-2l-.1.1H4l-.1-.1h-.5v-.1h-.1l-.4.1H2.3v-.1h-.1l-.3.1h-1l-.1-.1v.1H.2l-.1-.2-.1-.2v-.5zM172.1 1.3zm.1 1.7zm.2-.3zm0-1.3v.1-.1zm.1.4V2v-.2zm0 .2zm.1.3l-.1.1V2.7h.2v-.1l-.1-.3h.1v-.1l-.1-.1v.2zm.2-.5zm0 .8v-.2l-.1.1.1.1zm.2.1h-.1.1zm.4.5zm0-.9v.2h.1l-.1-.4v.2zm.3-.5l-.1.2.1-.2zm.2-.4l-.1.1v.1h.1l.2-.2h-.2zm-.1.6v.1l.1.1h.1v-.1l-.2.1V2zm.3-.2v-.1h-.1v.1h.1zm.1.8v-.1l-.1-.1h-.2l.1.1.2.1zm0-1.1v.4-.4zm.1.7v-.1h-.1l.1.1.1.2v-.1l-.1-.1zm.1-.7l-.1.1.1-.1zm0 .2h-.2l.1.1.1.1v-.2zm.1.6zm.1-.9zm.1.7zm-.1 0l-.1.1.1.2h-.1l-.2.2v.1l.1.1v-.1h.1l.1.3h.1v-.3l.1-.1v-.1h-.1V2.2h-.1v-.1zm.2.2zm0-.1zm.3-.2v.3V2zm0 .9zm.1-.6l-.2-.1.1.3.1.1v-.3zm0 .6zm0-1.1v.1-.1zm.2.3zm0 .7zm-.1.4l.1.2v-.2h-.1zm.3-.6h.2v-.2l-.2.2zm-.2-.5v.5l.2-.2H175.9v-.1l-.1-.1-.2-.1h-.2zm.8.2zm0 .3v-.1h-.2l.2.1zm.2.2zm0-.2v-.2.2zm0 .8zm.1-1.2l-.1-.1h-.1v.1h.1v.1h.1v-.1zm.1-.2h-.1l.1.1V2zm.1.2l-.1.1.1-.1zm.1 0zm.7 1v.1-.1zm.1-1.2l-.2.1.1.2.1-.2V2zm.3 0l.1.2-.1-.2zm.2.1zm.2.4h-.2l.1.1.1-.1zm.3.7zm.1-1.1zm.1.6l.1-.1-.1.1zm.1-.5l-.1.2h.1l.1.1v-.1l-.1-.2zm.1-.1V2h-.1v.1h.1zm.1.1zm.4 0l-.1-.1-.1.1v.1h.1l.1-.1zm.1.3zm0-.4zm.1.4zm.2-.5zm12.5-.7zm.3 1.5v.1-.1zm.2-.4zm0 .9v-.1l-.1-.1h-.1l.2.2zm.1-.8l-.1.1-.1.1v.1h.1l.1-.1v-.2zm0 .2zm-1.5-.3h-.2.2zm.2.6zm.1-.1h-.1.1zm0-.5v.2-.2zm0-.2zm.4-.1v.1l.1.1v-.1l-.1-.1zm.1.3zm.2-.2l-.2.1v.1h.1l.1-.2zm.2.7l-.1-.1v-.1h-.1v.1l.2.1zm0-.6v-.1h-.1l.1.2h.1l.1-.1.1-.1v.1h.1v-.2L193 2h-.1l-.2.3zm.2-.4v.2h.2l-.2-.2zm.2-.3v.1-.1zm.2-.1zm.1.8h-.1l-.1.1.2-.1zm.1-.1l.1.1v-.4l-.1.3zm.3-.1h-.1v.1l.1-.1zm.1.1v.1-.1zm-.1 1v.1h.2l-.2-.1zm.3-1l.1-.1-.1.1zm.4.1l-.1.1.1-.1zm0 .3v.2-.2zm.2 0zm.1-.3v.2-.2zm.1.2h-.1.1zm0 .3v-.1.1zm.3-1.5zm-.1.7l.1.1-.1-.1zm.2.2v.1-.1zm.2-.3h-.1.1zm0-.2zm1.7.1zm0 .9l-.1.5.1-.5zm.1-.5v.2-.2zm-.1.2l.1.1-.1-.1zm.9-.2zm-.3.2v.2l.1.1h.1l.1-.1-.1-.1v.1h-.1l-.1-.2zm.2.5zm.3-1zm.2 1.5zm-27.2-.8V1.5l.1-.2.2-.2.1-.1h.3l.3.1h.1l.1.1.1-.1.1.1h.2v.1h.1l.1-.1h.8l.1.1.2-.1H175.1l.2-.1.2.1.5-.1h.7l.1.1h.9l.1-.1h.6l.4.1.1-.1h.1l.4-.1.1.1h13-1 1.7v.2-.2h1.2l.1.1.2-.1H195l.6.1H196.8l.1.1v-.2l.5.1.2-.1h.4l.2.1.2.1.1.3V3.5l.5-.1h-.2l-.2.1h-3.4l-.1-.1-.2.1H192.6l-.2-.1H191.7h1.3-.2l-.2.1-12.5-.1-.1.1-.4-.1H177.9v.1l-.6-.1h-.4l-.8-.1-.1.1h-.3l-.1-.1H174.7v-.1h-.1l-.4.1-.2.2h-.4v-.1h-.1l-.2.1H172.5l-.3-.1-.1-.1v.1h-.4l-.2-.1-.1-.1-.1-.2v-.4z"/><path d="M41.8 0c.1 0 .2.2.2.3l-2.6 6.8c0 .1-.1.1-.2.1h-.7c-.1 0-.2-.1-.2-.1l-.7-1.9c-.1-.1-.1-.3-.1-.4 0 .1-.1.3-.1.4l-.7 1.9c0 .1-.1.1-.2.1h-.7c-.1 0-.2-.1-.2-.1L33 .3V.2c0-.1.1-.2.2-.2h1c.1 0 .2.1.2.1L36 4.3c.1.1.1.3.1.4 0-.1.1-.3.1-.4l.6-1.3-1-2.7V.2c0-.1 0-.2.2-.2h1c.1 0 .2.1.2.1l.2.6c.1.1.1.3.1.4 0-.1.1-.3.1-.4l.2-.6c.1 0 .1-.1.2-.1h1c.2 0 .3.2.2.3l-1 2.7.5 1.4c.1.1.1.3.1.4 0-.1.1-.3.1-.4L40.5.2c0-.1.1-.1.2-.1h1.1zM46.8 0c.1 0 .2.1.2.2v1c0 .1-.1.2-.2.2h-.5v4.3h.5c.1 0 .2.1.2.2v1c0 .1-.1.2-.2.2h-2.5c-.1 0-.2-.1-.2-.2V6c0-.1.1-.2.2-.2h.5V1.4h-.5c-.1 0-.2-.1-.2-.2v-1c0-.1.1-.2.2-.2h2.5zM54 0c.1 0 .2.1.2.2v1c0 .1-.1.2-.2.2h-1.6V7c0 .1-.1.2-.2.2h-1c-.1 0-.2-.1-.2-.2V1.4h-1.6c-.1 0-.2-.1-.2-.2v-1c0-.1.1-.2.2-.2H54zM61.2 0c.1 0 .2.1.2.2V7c0 .1-.1.2-.2.2h-1c-.1 0-.2-.1-.2-.2V4.3h-2.2V7c0 .1-.1.2-.2.2h-1c-.1 0-.2-.1-.2-.2V.2c0-.1.1-.2.2-.2h1c.1 0 .2.1.2.2v2.7H60V.2c0-.1.1-.2.2-.2h1zM70.5 0c.1 0 .2.1.2.2l2 6.8v.1c0 .1-.1.2-.2.2h-1c-.1 0-.2-.1-.2-.2l-.4-1.3h-2l-.4 1.3c0 .1-.1.2-.2.2h-1c-.1 0-.2-.1-.2-.3l2-6.8c0-.1.1-.2.2-.2h1.2zm-.7 2.8l-.5 1.6h1.2L70 2.8c0-.1-.1-.3-.1-.4 0 .1 0 .2-.1.4zM83.2 0c.1 0 .2.1.2.2V7c0 .1-.1.2-.2.2h-1.1c-.1 0-.2-.1-.2-.1L80 3.3c-.1-.1-.1-.3-.2-.4V7c0 .1-.1.2-.2.2h-1c-.1 0-.2-.1-.2-.2V.2c0-.1.1-.2.2-.2h1.1c.1 0 .2.1.2.1L81.8 4c.1.1.1.3.2.4V.2c0-.1.1-.2.2-.2h1zM89.5 0c.1 0 .2.1.2.2v1c0 .1-.1.2-.2.2H87v1.4h1.8c.1.1.2.2.2.3v1c0 .1-.1.2-.2.2H87v1.4h2.5c.1 0 .2.1.2.2v1c0 .1-.1.2-.2.2h-3.8c-.1 0-.2-.1-.2-.2V.2c0-.1.1-.2.2-.2h3.8zM100.7 0c.1 0 .2.2.2.3l-2.6 6.8c0 .1-.1.1-.2.1h-.7c-.1 0-.2-.1-.2-.1l-.7-1.9c-.1-.1-.1-.3-.1-.4 0 .1-.1.3-.1.4l-.7 1.9c0 .1-.1.1-.2.1h-.7c-.1 0-.2-.1-.2-.1L91.9.3V.2c0-.1.1-.2.2-.2h1c.1 0 .2.1.2.1l1.6 4.2c0 .2.1.3.1.5 0-.1.1-.3.1-.4l.6-1.4-1-2.7V.2c0-.1.1-.2.2-.2h1l.1.1.2.6c.1.1.1.3.1.4 0-.1.1-.3.1-.4l.2-.6c0-.1.1-.1.2-.1h1c.2 0 .3.2.2.3L97 3l.5 1.4c.1.1.1.3.1.4 0-.1.1-.3.1-.4L99.3.2c0-.1.1-.1.2-.1h1.2zM110.6 0c.1 0 .1 0 .2.1l.5.5s.1.1.1.2V4c0 .1 0 .1-.1.2l-.5.5s-.1.1-.2.1h-.5c.1.1.2.2.2.3l.9 1.9v.1c0 .1-.1.2-.2.2h-1c-.1 0-.2-.1-.2-.1l-1.1-2.4h-.7V7c0 .1-.1.2-.2.2h-1c-.1 0-.2-.1-.2-.2V.2c0-.1.1-.2.2-.2h3.8zm-2.4 1.4c-.1 0-.2.1-.2.2V3c0 .1 0 .1.1.2 0 0 .1.1.2.1h1.3c.1 0 .1 0 .2-.1 0 0 .1-.1.1-.2V1.7c0-.1 0-.1-.1-.2 0 0-.1-.1-.2-.1h-1.4zM116.8 0c.1 0 .2.1.2.2l2 6.8v.1c0 .1-.1.2-.2.2h-1c-.1 0-.2-.1-.2-.2l-.4-1.3h-2l-.4 1.3c0 .1-.1.2-.2.2h-1c-.1 0-.2-.1-.2-.3l2-6.8c0-.1.1-.2.2-.2h1.2zm-.7 2.8l-.5 1.6h1.2l-.5-1.6c0-.1-.1-.3-.1-.4 0 .1-.1.2-.1.4zM127.4 0c.1 0 .2.1.2.2V7c0 .1-.1.2-.2.2h-1c-.1 0-.2-.1-.2-.2V3.7c0 .1-.1.3-.1.4L125 7c0 .1-.1.1-.2.1h-.7c-.1 0-.2-.1-.2-.1l-1.1-2.9c-.1-.1-.1-.3-.1-.4V7c0 .1-.1.2-.2.2h-1c-.1 0-.2-.1-.2-.2V.2c0-.1.1-.2.2-.2h1.1c.1 0 .2.1.2.1l1.6 4.2c.1.1.1.3.1.4 0-.1.1-.3.1-.4l1.6-4.2c0-.1.1-.1.2-.1h1zM138.1 0c.1 0 .2.1.2.2v1c0 .1-.1.2-.2.2h-1.6V7c0 .1-.1.2-.2.2h-1c-.1 0-.2-.1-.2-.2V1.4h-1.6c-.1 0-.2-.1-.2-.2v-1c0-.1.1-.2.2-.2h4.6zM144.5 0c.1 0 .1 0 .2.1l.5.5s.1.1.1.2V4c0 .1 0 .1-.1.2l-.5.5s-.1.1-.2.1h-.5c.1.1.2.2.2.3l.9 1.9v.1c0 .1-.1.2-.2.2h-1c-.1 0-.2-.1-.2-.1l-1.1-2.4h-.7V7c0 .1-.1.2-.2.2h-1c-.1 0-.2-.1-.2-.2V.2c0-.1.1-.2.2-.2h3.8zm-2.3 1.4c-.1 0-.2.1-.2.2V3c0 .1 0 .1.1.2 0 0 .1.1.2.1h1.3c.1 0 .1 0 .2-.1 0 0 .1-.1.1-.2V1.7c0-.1 0-.1-.1-.2 0 0-.1-.1-.2-.1h-1.4zM152.2 0c.1 0 .2.1.2.2v6.3c0 .1 0 .1-.1.2l-.5.5s-.1.1-.2.1H148c-.1 0-.1 0-.2-.1l-.5-.5s-.1-.1-.1-.2V.2c0-.1.1-.2.2-.2h1c.1 0 .2.1.2.2v5.3c0 .1 0 .1.1.2 0 0 .1.1.2.1h1.7c.1 0 .1 0 .2-.1 0 0 .1-.1.1-.2V.2c0-.1.1-.2.2-.2h1.1zM158.6 0c.1 0 .1 0 .2.1l.5.5s.1.1.1.2V2c0 .1-.1.2-.2.2h-1c-.1 0-.2-.1-.2-.2v-.3c0-.1 0-.1-.1-.2 0 0-.1-.1-.2-.1h-1.3c-.1 0-.1 0-.2.1 0 0-.1.1-.1.2v3.9c0 .1 0 .1.1.2 0 0 .1.1.2.1h1.3c.1 0 .1 0 .2-.1 0 0 .1-.1.1-.2v-.3c0-.1.1-.2.2-.2h1c.1 0 .2.1.2.2v1.3c0 .1 0 .1-.1.2l-.5.5s-.1.1-.2.1h-3.4c-.1 0-.1 0-.2-.1l-.5-.5s-.1-.1-.1-.2V.7c0-.1 0-.1.1-.2l.5-.5s.1-.1.2-.1h3.4zM166.2 0c.1 0 .2.1.2.2 0 0 0 .1-.1.1l-2.7 3.3 2.7 3.3.1.1c0 .1-.1.2-.2.2h-1.3c-.1 0-.1 0-.2-.1l-1.6-1.9c-.1-.2-.2-.3-.3-.5V7c0 .1-.1.2-.2.2h-1c-.1 0-.2-.1-.2-.2V.2c0-.1.1-.2.2-.2h1c.1 0 .2.1.2.2v2.3c.1-.2.2-.4.3-.5l1.6-1.9c0-.1.1-.1.2-.1h1.3z"/></svg>