<svg xmlns="http://www.w3.org/2000/svg" width="283.7" height="26.2" overflow="visible"><style>.st0{fill:#fff}</style><path class="st0" d="M0 3.3L1.7 0h.4l1.6 3.3h-.4L1.9.6.5 3.3H0zM8 .1v.5H5.4v1.8h1.8v.5H5.4v2h2.7v.5H4.9V.1H8zM9.8.1v5.3h-.5V.1h.5zM11.7 0v.6h-.5V0h.5zm-.5 1.6h.5v3.8h-.5V1.6zM16 1.9h-.3c-.1 0-.2 0-.3.1.1.1.1.2.2.3.1.1.1.3.1.5s0 .4-.1.5c-.1.3-.4.6-.7.7-.2.1-.4.1-.5.1H14c-.1 0-.2 0-.3-.1-.2 0-.3.2-.3.4 0 .1 0 .2.1.2.1.1.1.1.2.1.4 0 .8 0 1.1.1.3 0 .5.1.7.2.2.1.3.2.4.3 0 .1.1.3.1.5 0 .1 0 .3-.1.4l-.3.3c-.2.1-.3.2-.5.2-.3.1-.5.1-.8.1-.4 0-.8-.1-1.2-.2-.3-.1-.4-.4-.4-.7 0-.2.1-.3.2-.5.1-.1.3-.2.5-.3-.1 0-.3-.1-.3-.2-.1-.1-.1-.2-.1-.3 0-.1 0-.3.1-.4-.1-.1 0-.2.2-.3-.2-.1-.3-.3-.4-.5-.1-.2-.1-.4-.1-.6 0-.2 0-.4.1-.5 0-.2.1-.3.3-.4.1-.1.3-.2.5-.3.2-.1.4-.1.6-.1.2 0 .4 0 .5.1.1 0 .3.1.4.2.1-.1.3-.2.4-.2.1-.1.3-.1.4-.1v.4zm-.5 3.9c0-.2-.1-.4-.3-.4-.3-.1-.7-.2-1-.1-.2 0-.3 0-.5.1-.1 0-.2.1-.3.2l-.2.2c0 .1 0 .1-.1.2v.2c0 .1.1.1.2.2s.2.1.4.1h1c.1 0 .3-.1.4-.1.1 0 .2-.1.2-.2.1-.2.2-.3.2-.4zm-.4-2.9c0-.2-.1-.5-.2-.7-.2-.2-.5-.3-.7-.2-.5 0-.9.3-.9.8v.1c0 .2.1.5.3.6.2.2.5.3.7.3.1 0 .3 0 .4-.1.1 0 .2-.1.3-.2.1-.1.1-.2.2-.3-.1-.1-.1-.2-.1-.3zM17.4 0v.6h-.5V0h.5zm-.5 1.6h.5v3.8h-.5V1.6zM19.2.1V2c.1-.1.3-.2.5-.3.2-.1.3-.1.5-.1s.4 0 .5.1c.2.1.4.2.5.3.2.2.3.4.4.6.1.3.2.6.2.9 0 .3 0 .7-.2 1-.1.2-.2.4-.4.6-.1.1-.3.3-.5.3-.2.1-.3.1-.5.1s-.4 0-.6-.1c-.2-.1-.3-.2-.5-.3l-.1.3h-.4V5 .1h.6zm0 4.4c.1.2.3.3.5.4.4.2 1 .1 1.3-.3.2-.3.3-.7.3-1.1 0-.2 0-.5-.1-.7 0-.2-.1-.3-.2-.5l-.3-.3c-.1-.1-.3-.1-.4-.1-.2 0-.3.1-.5.1-.2.1-.3.2-.5.4l-.1 2.1zM23.4 0v.6h-.5V0h.5zm-.5 1.6h.5v3.8h-.5V1.6zM25.3.1v5.3h-.5V.1h.5zM27.2 0v.6h-.5V0h.5zm-.5 1.6h.5v3.8h-.5V1.6zM28.7 1.6V.3h.5v1.3h.9V2h-.9v2.7c0 .1 0 .2.1.2.1.1.2.1.4.1h.4v.4H29.5c-.2 0-.4 0-.6-.1-.1-.1-.2-.3-.2-.5V2h-.6v-.4h.6zM33.8 1.6l-1.3 4.2c-.1.2-.1.4-.2.5l-.3.3c-.1.1-.2.1-.4.2h-.8v-.5H31.4c.1 0 .2-.1.3-.1l.3-.3c-.1-.1 0-.3 0-.5l-1.3-3.9h.6l1 2.9.9-2.9.6.1zM38.6 2.7l-.3-.6c-.2-.1-.4-.2-.6-.2-.3 0-.6.1-.8.4-.4.7-.4 1.6 0 2.3.1.3.4.4.7.4h.3c.1 0 .2-.1.3-.1.1-.1.2-.1.2-.2.1-.1.2-.2.2-.3l.4.2c-.1.1-.2.3-.3.4l-.3.3c-.1.1-.2.1-.4.2-.2 0-.3.1-.5.1s-.4 0-.7-.1c-.2-.1-.4-.2-.5-.4l-.3-.6c-.1-.5-.1-1.1 0-1.7l.3-.6c.1-.2.3-.3.5-.4.2-.1.4-.1.7-.1.2 0 .3 0 .5.1.1 0 .3.1.4.2l.3.3c.2-.1.3.1.3.2l-.4.2zM40 1.6h.5v.8c.1-.1.1-.2.2-.3l.3-.3c.1-.1.2-.1.3-.2.1 0 .3-.1.4-.1V2c-.3 0-.6.1-.8.3-.2.3-.4.6-.5.9v2.1H40V1.6zM43.2 0v.6h-.5V0h.5zm-.5 1.6h.5v3.8h-.5V1.6zM44.7 1.6V.3h.5v1.3h.9V2h-.9v2.7c0 .1 0 .2.1.2.1.1.2.1.4.1h.4v.4H45.5c-.2 0-.4 0-.6-.1-.1-.1-.2-.3-.2-.5V2h-.6v-.4h.6zM49.8 4.6c-.1.1-.1.2-.2.3l-.3.3c-.1.1-.3.2-.4.2-.2.1-.4.1-.6.1-.2 0-.4 0-.6-.1-.2-.1-.4-.2-.5-.4-.2-.2-.3-.4-.4-.6-.1-.3-.1-.6-.1-.9 0-.3 0-.6.1-.8 0-.3.2-.5.3-.7.1-.2.3-.3.5-.4.2-.1.4-.1.6-.1.2 0 .4 0 .6.1.2.1.3.2.5.3.1.2.2.3.3.5.1.3.1.5.1.8v.4h-2.5c0 .2 0 .4.1.6.1.2.1.3.2.4.1.1.2.2.4.3.1.1.3.1.4.1.3 0 .5 0 .7-.2.2-.1.3-.3.4-.5l.4.3zm-.6-1.5c0-.3-.1-.6-.2-.9-.2-.2-.4-.3-.7-.3-.3 0-.6.1-.7.3-.2.2-.3.5-.3.9h1.9zM50.7 1.6h.5v.8c.1-.1.1-.2.2-.3l.3-.3c.1-.1.2-.1.3-.2.1 0 .3-.1.4-.1V2c-.3 0-.6.1-.8.3-.2.3-.4.6-.5.9v2.1h-.5l.1-3.7zM53.9 0v.6h-.5V0h.5zm-.6 1.6h.5v3.8h-.5V1.6zM55 2.3c.1-.2.3-.4.5-.6.3-.2.6-.3.9-.2.2 0 .3 0 .5.1.2 0 .3.1.4.2.1.1.2.2.3.4.1.2.1.3.1.5v2.4c0 .1 0 .2.1.3h-.5l-.1-.5c-.2.2-.3.3-.5.4-.2.1-.5.2-.8.2-.1 0-.3 0-.4-.1-.3-.1-.5-.3-.6-.5-.1-.1-.1-.3-.1-.5 0-.4.2-.8.5-1 .2-.1.5-.3.7-.3.4-.1.7-.2 1.1-.3v-.2c0-.2-.1-.4-.2-.5-.2-.1-.4-.2-.6-.2-.1 0-.3 0-.4.1-.1 0-.2.1-.3.1l-.2.2c0 .1-.1.1-.1.2l-.3-.2zm2.2 1c-1.2.2-1.8.6-1.8 1.1 0 .1 0 .2.1.2 0 .1.1.1.1.2.1.1.1.1.2.1h.5c.1 0 .2-.1.3-.1.1-.1.2-.1.3-.2.1-.1.2-.2.3-.2V3.3zM60.6 2.3c.1-.2.3-.4.5-.6.3-.2.6-.3.9-.2.2 0 .3 0 .5.1.2 0 .3.1.4.2.1 0 .2.2.3.3.1.2.1.3.1.5V5c0 .1 0 .2.1.3h-.5l-.1-.5c-.2.2-.3.3-.5.4-.2.1-.5.2-.8.2-.1 0-.3 0-.4-.1-.3-.1-.5-.3-.6-.5-.1-.1-.1-.3-.1-.5 0-.4.2-.8.5-1 .2-.1.5-.3.7-.3.4-.1.7-.2 1.1-.3v-.1c0-.2-.1-.4-.2-.5-.1-.1-.3-.2-.5-.2-.1 0-.3 0-.4.1-.1 0-.2.1-.3.1l-.2.2c0 .1-.1.1-.1.2l-.4-.2zm2.2 1c-1.2.2-1.8.6-1.8 1.1 0 .1 0 .2.1.2 0 .1.1.1.1.2.1.1.1.1.2.1h.5c.1 0 .2-.1.3-.1.1-.1.2-.1.3-.2.1-.1.2-.2.3-.2V3.3zM64.5 6.8V1.6h.5V2l.2-.2c.1-.1.2-.1.2-.2.1 0 .2-.1.3-.1h.3c.2 0 .4 0 .5.1.2.1.4.2.5.3.2.2.3.4.4.6.1.3.2.6.2 1 0 .3 0 .6-.2.9-.1.2-.2.4-.4.6-.1.1-.3.3-.5.3-.2.1-.3.1-.5.1s-.4 0-.5-.1c-.1 0-.3-.1-.5-.3v1.8h-.5zm.5-2.3c.1.2.3.3.5.4.1.1.3.1.5.1.1 0 .3 0 .4-.1.1-.1.3-.1.3-.3.1-.1.2-.3.2-.5.1-.2.1-.5.1-.7 0-.4-.1-.8-.3-1.1-.2-.3-.5-.4-.8-.4-.2 0-.3 0-.5.1s-.3.2-.5.4l.1 2.1zM68.6 6.8V1.6h.5V2l.2-.2c.1-.1.2-.1.2-.2.1 0 .2-.1.3-.1h.3c.2 0 .4 0 .5.1.2.1.4.2.5.3.2.2.3.4.4.6.1.3.2.6.2 1 0 .3 0 .6-.2.9-.1.2-.2.4-.4.6-.1.1-.3.3-.5.3-.2.1-.3.1-.5.1s-.4 0-.5-.1c-.2-.1-.3-.2-.5-.3v1.8h-.5zm.5-2.3c.1.2.3.3.5.4.1.1.3.1.5.1.1 0 .3 0 .4-.1.1-.1.3-.1.3-.3.2-.1.2-.2.3-.4.1-.2.1-.5.1-.7 0-.4-.1-.8-.3-1.1-.2-.3-.5-.4-.8-.4-.2 0-.3 0-.5.1s-.3.2-.5.4v2zM73.3.1v5.3h-.5V.1h.5zM77.2 1.6l-1.3 4.2c-.1.2-.1.4-.2.5l-.3.3c-.1.1-.2.1-.4.2h-.8v-.5H74.8c.1 0 .2-.1.3-.1l.3-.3c.1-.2.2-.3.2-.5l-1.3-3.9h.6l1 2.9.9-2.9.4.1zM80.4.1V2c.1-.1.3-.2.5-.3.2-.1.3-.1.5-.1s.4 0 .5.1c.2.1.4.2.5.3.2.2.3.4.4.6.1.2.2.6.2.9 0 .3 0 .7-.2 1-.1.2-.2.4-.4.6-.1.1-.3.3-.5.3-.2.1-.3.1-.5.1s-.4 0-.6-.1c-.2-.1-.3-.2-.5-.3l-.1.4h-.4v-.4-5h.6zm0 4.4c.1.2.3.3.5.4.4.2 1 .1 1.3-.3.2-.3.3-.7.3-1.1 0-.2 0-.5-.1-.7 0-.2-.1-.3-.2-.5-.2-.1-.3-.2-.4-.3-.1-.1-.3-.1-.4-.1-.2 0-.3.1-.5.1-.2.1-.3.2-.5.4v2.1zM83.8 2.3c.1-.2.3-.4.5-.6.3-.2.6-.3.9-.2.2 0 .3 0 .5.1.2 0 .3.1.4.2.1.1.2.2.3.4.1.2.1.3.1.5v2.4c0 .1 0 .2.1.3h-.5l-.1-.5c-.2.2-.3.3-.5.4-.2.1-.5.2-.8.2-.1 0-.3 0-.4-.1-.3-.1-.5-.3-.6-.5-.1-.1-.1-.3-.1-.5 0-.4.2-.8.5-1 .2-.1.5-.3.7-.3.5-.1.9-.2 1.2-.3v-.2c0-.2-.1-.4-.2-.5-.2-.1-.4-.2-.6-.2-.1 0-.3 0-.4.1-.1 0-.2.1-.3.1l-.2.2c0 .1-.1.1-.1.2l-.4-.2zm2.2 1c-1.2.2-1.8.6-1.8 1.1 0 .1 0 .2.1.2 0 .1.1.1.1.2.1.1.1.1.2.1h.5c.1 0 .2-.1.3-.1.1-.1.2-.1.3-.2.2-.1.3-.1.3-.2V3.3zM87.7 4.4c.1.2.3.3.5.4.2.2.4.2.6.2.2 0 .5-.1.6-.2.1-.1.2-.3.2-.4 0-.1-.1-.3-.2-.4-.1-.1-.3-.2-.4-.2-.2-.1-.3-.1-.5-.2-.2 0-.4-.1-.5-.2-.2-.1-.3-.2-.4-.3-.1-.2-.2-.4-.1-.6 0-.3.1-.6.4-.8.3-.2.6-.3.9-.3.1 0 .3 0 .4.1.1 0 .3.1.4.1.1.1.2.1.3.2 0 .2 0 .3.1.4l-.4.3c-.1-.2-.3-.3-.4-.4-.2-.1-.4-.2-.5-.2-.2 0-.4 0-.5.2-.2.1-.2.3-.2.4 0 .1.1.3.2.3.1.1.2.2.3.2.2.1.3.1.5.2s.4.1.5.2c.2.1.3.2.4.4.1.2.2.4.2.6 0 .2 0 .3-.1.5 0 .1-.1.2-.2.3-.1.1-.3.2-.4.2-.2 0-.3.1-.5.1-.3 0-.6-.1-.9-.2-.3-.1-.5-.3-.7-.5l.4-.4zM94 4.6c-.1.1-.1.2-.2.3l-.3.3c-.1.1-.3.2-.4.2-.2.1-.4.1-.6.1-.2 0-.4 0-.6-.1-.2-.1-.4-.2-.5-.4-.2-.2-.3-.4-.4-.6-.1-.3-.1-.6-.1-.9 0-.3 0-.6.1-.8 0-.3.1-.5.3-.7.1-.2.3-.3.5-.4.2-.1.4-.1.6-.1.2 0 .4 0 .6.1.2.1.3.2.5.3.1.2.2.3.3.5.1.3.1.5.1.8v.4h-2.5c0 .2 0 .4.1.6.1.2.1.3.2.4.1.1.2.2.4.3.1.1.2.1.4.1s.4-.1.6-.2c.2-.1.3-.3.4-.5l.5.3zm-.7-1.5c0-.3-.1-.6-.2-.9-.2-.2-.4-.3-.7-.3-.3 0-.6.1-.7.3-.2.2-.3.5-.3.9h1.9zM97.7.1V5.4h-.5V5c-.1.1-.2.2-.4.3-.2.1-.4.1-.6.1-.2 0-.4 0-.5-.1-.2-.1-.4-.2-.5-.3-.2-.2-.3-.4-.4-.6-.1-.3-.2-.6-.2-1 0-.3 0-.6.2-.9.1-.2.2-.4.4-.6.1-.1.3-.3.5-.3.2-.1.3-.1.5-.1s.4 0 .5.1c.2.1.3.2.5.3V.1h.5zm-.5 2.4c-.1-.2-.3-.3-.5-.4-.1-.1-.3-.1-.5-.1-.1 0-.3 0-.4.1-.1.1-.3.1-.3.3-.1.1-.2.3-.2.5-.1.2-.1.5-.1.7 0 .4.1.8.3 1.1.1.2.4.3.7.3.2 0 .3 0 .5-.1s.3-.2.5-.4v-2zM103.7 3.5c0 .3 0 .5-.1.8l-.3.6c-.1.2-.3.3-.5.4-.4.2-.9.2-1.4 0-.2-.1-.4-.2-.5-.4l-.3-.6c-.1-.5-.1-1 0-1.6l.3-.6c.1-.2.3-.3.5-.4.4-.2.9-.2 1.4 0 .2.1.4.2.5.4l.3.6c.1.3.1.5.1.8zm-.5 0c0-.4-.1-.8-.3-1.1-.3-.4-.9-.5-1.3-.2-.1.1-.2.1-.2.2-.4.7-.4 1.6 0 2.3.3.4.9.5 1.3.2.1-.1.2-.1.2-.2.2-.4.3-.8.3-1.2zM105.2 1.6v.5c.1-.2.3-.3.5-.4.2-.1.4-.2.6-.2.1 0 .3 0 .4.1.1 0 .3.1.4.2.1.1.2.2.2.3.1.2.1.3.1.5v2.8h-.5V2.6c0-.2 0-.4-.2-.5-.1-.1-.3-.2-.5-.1-.1 0-.2 0-.3.1-.1 0-.2.1-.3.1-.1.1-.2.1-.3.2-.1.1-.2.1-.2.2v2.9h-.5V1.6h.6zM111.2 1.6v.5c.1-.2.3-.3.5-.4.2-.1.4-.2.6-.2.1 0 .3 0 .4.1.1 0 .3.1.4.2.1.1.2.2.2.3.1.2.1.3.1.5v2.8h-.5V2.6c0-.2 0-.4-.2-.5-.1-.1-.3-.2-.5-.1-.1 0-.2 0-.3.1-.1 0-.2.1-.3.1-.1.1-.2.1-.3.2-.1.1-.2.1-.2.2v2.9h-.5V1.6h.6zM116.9 5.4v-.5c-.1.2-.3.3-.5.4-.2.1-.4.2-.6.2-.1 0-.3 0-.4-.1-.1 0-.3-.1-.4-.2-.1-.1-.2-.2-.2-.3-.1-.2-.1-.3-.1-.5V1.6h.5v2.8c0 .2 0 .4.2.5.1.1.3.2.5.1.1 0 .2 0 .3-.1.1 0 .2-.1.3-.1.1-.1.2-.1.3-.2.1-.1.2-.1.2-.2V1.6h.5v3.8h-.6zM118.7 5.4V1.6h.5v.5c.1-.2.3-.3.5-.4.2-.1.4-.1.6-.1.2 0 .4.1.6.2.2.1.3.3.4.4.2-.2.4-.3.6-.4.2-.1.4-.2.6-.2h.4c.1 0 .2.1.3.2.1.1.2.2.2.4.1.2.1.4.1.6v2.7h-.5V2.7c0-.2 0-.4-.2-.5-.1-.1-.3-.2-.4-.2-.1 0-.2 0-.3.1-.1 0-.2.1-.3.1-.1.1-.2.1-.2.2-.1.1-.2.1-.2.2v2.9h-.5V2.7c0-.2 0-.4-.2-.5-.1-.1-.3-.2-.4-.2-.1 0-.2 0-.3.1-.1 0-.2.1-.3.1-.1.1-.2.1-.2.2-.1.1-.2.1-.2.2v2.9l-.6-.1zM127.7 4.6c-.1.1-.1.2-.2.3l-.3.3c-.1.1-.3.2-.4.2-.2.1-.4.1-.6.1-.2 0-.4 0-.6-.1-.2-.1-.4-.2-.5-.4-.2-.2-.3-.4-.4-.6-.1-.3-.1-.6-.1-.9 0-.3 0-.6.1-.8l.3-.6c.1-.2.3-.3.5-.4.2-.1.4-.1.6-.1.2 0 .4 0 .6.1.2.1.3.2.5.3.1.2.2.3.3.5.1.3.1.5.1.8v.4h-2.5c0 .2 0 .4.1.6.1.2.1.3.2.4.1.1.2.2.4.3h.4c.2 0 .4-.1.6-.2.2-.1.3-.3.4-.5l.5.3zm-.7-1.5c0-.3-.1-.6-.2-.9-.2-.2-.4-.3-.7-.3-.3 0-.6.1-.7.3-.2.2-.3.5-.3.9h1.9zM128.5 1.6h.5v.8c.1-.1.1-.2.2-.3l.3-.3c.1-.1.2-.1.3-.2.1 0 .3-.1.4-.1V2c-.3 0-.6.1-.8.3-.2.3-.4.6-.5.9v2.1h-.5l.1-3.7zM133.9 3.5c0 .3 0 .5-.1.8l-.3.6c-.1.2-.3.3-.5.4-.4.2-.9.2-1.4 0-.2-.1-.4-.2-.5-.4l-.3-.6c-.1-.5-.1-1 0-1.6l.3-.6c.1-.2.3-.3.5-.4.4-.2.9-.2 1.4 0 .2.1.4.2.5.4l.3.6c.1.3.1.5.1.8zm-.5 0c0-.4-.1-.8-.3-1.1-.3-.4-.9-.5-1.3-.2-.1.1-.2.1-.2.2-.4.7-.4 1.6 0 2.3.3.4.9.5 1.3.2.1-.1.2-.1.2-.2.2-.4.3-.8.3-1.2zM137.1 5.4v-.5c-.1.2-.3.3-.5.4-.2.1-.4.2-.6.2-.1 0-.3 0-.4-.1-.1 0-.3-.1-.4-.2-.1-.1-.2-.2-.2-.3-.1-.2-.1-.3-.1-.5V1.6h.5v2.8c0 .2 0 .4.2.5.1.1.3.1.4.1.1 0 .2 0 .3-.1.1 0 .2-.1.3-.1.1-.1.2-.1.3-.2.1-.1.2-.1.2-.2V1.6h.5v3.8h-.5zM138.9 4.4c.1.2.3.3.5.4.2.2.4.2.6.2.2 0 .5-.1.6-.2.1-.1.2-.3.2-.4 0-.1-.1-.3-.2-.4-.1-.1-.3-.2-.4-.2-.2-.1-.3-.1-.5-.2-.2 0-.4-.1-.5-.2-.2-.1-.3-.2-.4-.3-.1-.2-.2-.4-.1-.6 0-.3.1-.6.4-.8.3-.2.6-.3.9-.3.1 0 .3 0 .4.1.1 0 .3.1.4.1.1.1.2.1.3.2.1.1.2.2.2.3l-.4.3c-.1-.2-.3-.3-.4-.4-.2-.1-.4-.1-.5-.1-.2 0-.4 0-.5.2-.1.1-.2.3-.2.4 0 .1.1.3.2.3.1.1.3.2.4.2.2.1.3.1.5.2s.4.1.5.2c.2.1.3.2.4.4.1.2.2.4.2.6 0 .2 0 .3-.1.5-.1.1-.2.3-.3.3-.1.1-.3.2-.4.2-.2 0-.3.1-.5.1-.3 0-.6-.1-.9-.2-.3-.1-.5-.3-.7-.5l.3-.4zM144.3 5.4V2h-.6v-.4h.6v-.5c0-.2 0-.4.1-.6 0-.1.1-.2.2-.3.1-.1.2-.1.3-.2.1 0 .3-.1.4 0h.4v.5h-.4c-.1 0-.3 0-.4.1-.1.1-.1.3-.1.4v.6h.8V2h-.8v3.4h-.5zM146.4 2.3c.1-.2.3-.4.5-.6.3-.2.6-.3.9-.2.2 0 .3 0 .5.1.2 0 .3.1.4.2.1.1.2.2.3.4.1.2.1.3.1.5v2.4c0 .1 0 .2.1.3h-.5l-.1-.5c-.2.2-.3.3-.5.4-.2.1-.5.2-.8.2-.1 0-.3 0-.4-.1-.3-.1-.5-.3-.6-.5-.1-.1-.1-.3-.1-.5 0-.4.2-.8.5-1 .2-.1.5-.3.7-.3.4-.1.7-.2 1.1-.3v-.2c0-.2-.1-.4-.2-.5-.2-.1-.4-.2-.6-.2-.1 0-.3 0-.4.1-.1 0-.2.1-.3.1l-.2.2c0 .1-.1.1-.1.2l-.3-.2zm2.2 1c-1.2.2-1.8.6-1.8 1.1 0 .1 0 .2.1.2 0 .1.1.1.1.2.1.1.1.1.2.1h.5c.1 0 .2-.1.3-.1.1-.1.2-.1.3-.2.1-.1.2-.2.3-.2V3.3zM152.5 2.7l-.3-.6c-.2-.1-.4-.2-.6-.2-.3 0-.6.1-.8.4-.4.7-.4 1.6 0 2.3.2.3.5.4.8.4h.3c.1 0 .2-.1.3-.1.1-.1.2-.1.2-.2.1-.1.2-.2.2-.3l.4.2c-.1.1-.2.3-.3.4l-.3.3c-.1.1-.2.1-.4.2-.2 0-.3.1-.5.1s-.4 0-.7-.1c-.2-.1-.4-.2-.5-.4l-.3-.6c-.1-.5-.1-1.1 0-1.7l.3-.6c.1-.2.3-.3.5-.4.2-.1.4-.1.7-.1.2 0 .3 0 .5.1.1 0 .3.1.4.2l.3.3c.1.1.2.3.2.4h-.4zM154.2 1.6V.3h.5v1.3h.9V2h-.9v2.7c0 .1 0 .2.1.2.2.1.3.1.4.1h.4v.4H155c-.2 0-.4 0-.6-.1-.1-.1-.2-.3-.2-.5V2h-.6v-.4h.6zM159.3 3.5c0 .3 0 .5-.1.8l-.3.6c-.1.2-.3.3-.5.4-.4.2-.9.2-1.4 0-.2-.1-.4-.2-.5-.4l-.3-.6c-.1-.5-.1-1 0-1.6l.3-.6c.1-.2.3-.3.5-.4.4-.2.9-.2 1.4 0 .2.1.4.2.5.4l.3.6c.1.3.1.5.1.8zm-.5 0c0-.4-.1-.8-.3-1.1-.3-.4-.9-.5-1.3-.2-.1.1-.2.1-.2.2-.4.7-.4 1.6 0 2.3.3.4.9.5 1.3.2.1-.1.2-.1.2-.2.2-.4.3-.8.3-1.2zM160.2 1.6h.5v.8c.1-.1.1-.2.2-.3l.3-.3c.1-.1.2-.1.3-.2.1 0 .3-.1.4-.1V2c-.3 0-.6.1-.8.3-.2.3-.4.6-.5.9v2.1h-.5l.1-3.7zM162.9 4.4c.1.2.3.3.5.4.2.2.4.2.6.2.2 0 .5-.1.6-.2.1-.1.2-.3.2-.4 0-.1-.1-.3-.2-.4-.1-.1-.3-.2-.4-.2-.2-.1-.3-.1-.5-.2-.2 0-.4-.1-.5-.2-.2-.1-.3-.2-.4-.3-.1-.2-.2-.4-.1-.6 0-.3.1-.6.4-.8.3-.2.6-.3.9-.3.1 0 .3 0 .4.1.1 0 .3.1.4.1.1.1.2.1.3.2.1.1.2.2.2.3l-.4.3c-.1-.2-.3-.3-.4-.4-.2-.1-.4-.1-.5-.1-.2 0-.4 0-.5.2-.1.1-.2.3-.2.4 0 .1.1.3.2.3.1.1.3.2.4.2.2.1.3.1.5.2s.4.1.5.2c.2.1.3.2.4.4.1.2.2.4.2.6 0 .2 0 .3-.1.5-.1.1-.2.3-.3.3-.1.1-.3.2-.4.2-.2 0-.3.1-.5.1-.3 0-.6-.1-.9-.2-.3-.1-.5-.3-.7-.5l.3-.4zM168.8 0v.6h-.5V0h.5zm-.6 1.6h.5v3.8h-.5V1.6zM170.6 1.6v.5c.1-.2.3-.3.5-.4.2-.1.4-.2.6-.2.1 0 .3 0 .4.1.1 0 .3.1.4.2.1.1.2.2.2.3.1.2.1.3.1.5v2.8h-.5V2.6c0-.2 0-.4-.2-.5-.1-.1-.3-.2-.5-.1-.1 0-.2 0-.3.1-.1 0-.2.1-.3.1-.1.1-.2.1-.3.2-.1.1-.2.1-.2.2v2.9h-.5V1.6h.6zM176.3 2.7l-.3-.6c-.2-.1-.4-.2-.6-.2-.3 0-.6.1-.8.4-.4.7-.4 1.6 0 2.3.2.3.5.4.8.4h.3c.1 0 .2-.1.3-.1.1-.1.2-.1.2-.2.1-.1.2-.2.2-.3l.4.2c-.1.1-.2.3-.3.4l-.3.3c-.1.1-.2.1-.4.2-.2 0-.3.1-.5.1s-.4 0-.7-.1c-.2-.1-.4-.2-.5-.4l-.3-.6c-.1-.5-.1-1.1 0-1.7l.3-.6c.1-.2.3-.3.5-.4.2-.1.4-.1.7-.1.2 0 .3 0 .5.1.1 0 .3.1.4.2l.3.3c.1.1.2.3.2.4h-.4zM178.4.1v5.3h-.5V.1h.5zM182 5.4v-.5c-.1.2-.3.3-.5.4-.2.1-.4.2-.6.2-.1 0-.3 0-.4-.1-.1 0-.3-.1-.4-.2-.1-.1-.2-.2-.2-.3-.1-.2-.1-.3-.1-.5V1.6h.5v2.8c0 .2 0 .4.2.5.1.1.3.2.5.1.1 0 .2 0 .3-.1.1 0 .2-.1.3-.1.1-.1.2-.1.3-.2.1-.1.2-.1.2-.2V1.6h.5v3.8h-.6zM186.6.1V5.4h-.5V5c-.1.1-.2.2-.4.3-.2.1-.4.1-.6.1-.2 0-.4 0-.5-.1-.2-.1-.4-.2-.5-.3-.2-.2-.3-.4-.4-.6-.1-.3-.2-.6-.2-1 0-.3 0-.6.2-.9.1-.2.2-.4.4-.6.1-.1.3-.3.5-.3.2-.1.3-.1.5-.1s.4 0 .5.1c.2.1.3.2.5.3V.1h.5zm-.5 2.4c-.1-.2-.3-.3-.5-.4-.1-.1-.3-.1-.5-.1-.1 0-.3 0-.4.1-.1.1-.3.1-.3.3-.1.1-.2.3-.2.5-.1.1-.2.4-.2.6 0 .4.1.8.3 1.1.2.3.5.4.8.4.2 0 .3 0 .5-.1s.3-.2.5-.4v-2zM188.5 0v.6h-.5V0h.5zm-.6 1.6h.5v3.8h-.5V1.6zM190.3 1.6v.5c.1-.2.3-.3.5-.4.2-.1.4-.2.6-.2.1 0 .3 0 .4.1.1 0 .3.1.4.2.1.1.2.2.2.3.1.2.1.3.1.5v2.8h-.5V2.6c0-.2 0-.4-.2-.5-.1-.1-.3-.2-.5-.1-.1 0-.2 0-.3.1-.1 0-.2.1-.3.1-.1.1-.2.1-.3.2-.1.1-.2.1-.2.2v2.9h-.5V1.6h.6zM196.8 1.9h-.3c-.1 0-.2 0-.3.1.1.1.1.2.2.3.1.1.1.3.1.5s0 .4-.1.5c-.1.3-.4.6-.7.7-.2.1-.4.1-.5.1h-.4c-.1 0-.2 0-.3-.1-.2 0-.3.2-.3.4 0 .1 0 .2.1.2.1.1.1.1.2.1.4 0 .8 0 1.1.1.3 0 .5.1.7.2.2.1.3.2.4.3.1.1.1.3.1.5 0 .1 0 .3-.1.4l-.3.3c-.2.1-.3.2-.5.2-.3.1-.5.1-.8.1-.4 0-.8-.1-1.2-.2-.3-.1-.4-.4-.4-.7 0-.2.1-.3.2-.5.1-.1.3-.2.5-.3-.1 0-.3-.1-.3-.2-.1-.1-.1-.2-.1-.3 0-.1 0-.3.1-.4.1-.1.2-.2.4-.3-.2-.1-.3-.3-.4-.5-.1-.2-.1-.4-.1-.6 0-.2 0-.4.1-.5.1-.2.2-.3.3-.4.1-.1.3-.2.5-.3.2-.1.4-.1.6-.1.2 0 .4 0 .5.1.1 0 .3.1.4.2.1-.1.3-.2.4-.2.1-.1.3-.1.4-.1l-.2.4zm-.5 3.9c0-.2-.1-.4-.3-.4-.3-.1-.7-.2-1-.1-.2 0-.3 0-.5.1-.1 0-.2.1-.3.2l-.2.2c0 .1 0 .1-.1.2v.2c0 .1.1.1.2.2s.2.1.4.1h1c.1 0 .3-.1.4-.1.1 0 .2-.1.2-.2.1-.2.2-.3.2-.4zm-.3-2.9c0-.2-.1-.5-.2-.7-.2-.2-.5-.3-.7-.2-.5 0-.9.3-.9.8v.1c0 .2.1.5.3.6.2.2.5.3.7.3.1 0 .3 0 .4-.1.1 0 .2-.1.3-.2.1-.1.1-.2.2-.3-.2-.1-.1-.2-.1-.3zM200 .1V2c.1-.1.3-.2.5-.3.2-.1.3-.1.5-.1s.4 0 .5.1c.2.1.4.2.5.3.2.2.3.4.4.6.1.3.2.6.2.9 0 .3 0 .7-.2 1-.1.2-.2.4-.4.6-.1.1-.3.3-.5.3-.2.1-.3.1-.5.1s-.4 0-.6-.1c-.2-.1-.3-.2-.5-.3l-.1.4h-.4v-.4-5h.6zm0 4.4c.1.2.3.3.5.4.4.2 1 .1 1.3-.3.2-.3.3-.7.3-1.1 0-.2 0-.5-.1-.7 0-.2-.1-.3-.2-.5l-.3-.3c-.1-.1-.3-.1-.4-.1-.2 0-.3.1-.5.1-.2.1-.3.2-.5.4l-.1 2.1zM205.8 5.4v-.5c-.1.2-.3.3-.5.4-.2.1-.4.2-.6.2-.1 0-.3 0-.4-.1-.1 0-.3-.1-.4-.2-.1-.1-.2-.2-.2-.3-.1-.2-.1-.3-.1-.5V1.6h.5v2.8c0 .2 0 .4.2.5.1.1.3.2.5.1.1 0 .2 0 .3-.1.1 0 .2-.1.3-.1.1-.1.2-.1.3-.2.1-.1.2-.1.2-.2V1.6h.5v3.8h-.6zM207.8 1.6V.3h.5v1.3h.9V2h-.9v2.7c0 .1 0 .2.1.2.1.1.2.1.3.1h.4v.4H208.5c-.2 0-.4 0-.6-.1-.1-.1-.2-.3-.2-.5V2h-.6v-.4h.7zM212.6 1.6v.5c.1-.2.3-.3.5-.4.2-.1.4-.2.6-.2.1 0 .3 0 .4.1.1 0 .3.1.4.2.1.1.2.2.2.3.1.2.1.3.1.5v2.8h-.5V2.6c0-.2 0-.4-.2-.5-.1-.1-.3-.2-.5-.1-.1 0-.2 0-.3.1-.1 0-.2.1-.3.1-.1.1-.2.1-.3.2-.1.1-.2.1-.2.2v2.9h-.5V1.6h.6zM218.9 3.5c0 .3 0 .5-.1.8l-.3.6c-.1.2-.3.3-.5.4-.4.2-.9.2-1.4 0-.2-.1-.4-.2-.5-.4l-.3-.6c-.1-.5-.1-1 0-1.6l.3-.6c.1-.2.3-.3.5-.4.4-.2.9-.2 1.4 0 .2.1.4.2.5.4l.3.6c.1.3.1.5.1.8zm-.5 0c0-.4-.1-.8-.3-1.1-.3-.4-.9-.5-1.3-.2-.1.1-.2.1-.2.2-.4.7-.4 1.6 0 2.3.3.4.9.5 1.3.2.1-.1.2-.1.2-.2.2-.4.3-.8.3-1.2zM220 1.6V.3h.5v1.3h.9V2h-.9v2.7c0 .1 0 .2.1.2.1.1.3.1.4.1h.4v.4H220.8c-.2 0-.4 0-.6-.1-.1-.1-.2-.3-.2-.5V2h-.6v-.4h.6zM224.9.1v5.3h-.5V.1h.5zM226.8 0v.6h-.5V0h.5zm-.6 1.6h.5v3.8h-.5V1.6zM228.1 5.4V1.6h.5v.5c.1-.2.3-.3.5-.4.2-.1.4-.1.6-.1.2 0 .4.1.6.2.2.1.3.3.4.4.2-.2.4-.3.6-.4.2-.1.4-.2.6-.2h.4c.1 0 .2.1.3.2.1.1.2.2.2.4.1.2.1.4.1.6v2.7h-.5V2.7c0-.2 0-.4-.2-.5-.1-.1-.3-.2-.4-.2-.1 0-.2 0-.3.1-.1 0-.2.1-.3.1-.1.1-.2.1-.2.2-.1.1-.2.1-.2.2v2.9h-.5V2.7c0-.2 0-.4-.2-.5-.1-.1-.3-.2-.4-.2-.1 0-.2 0-.3.1-.1 0-.2.1-.3.1-.1.1-.2.1-.2.2-.1.1-.2.1-.2.2v2.9l-.6-.1zM234.8 0v.6h-.5V0h.5zm-.5 1.6h.5v3.8h-.5V1.6zM236.3 1.6V.3h.5v1.3h.9V2h-.9v2.7c0 .1 0 .2.1.2.1.1.2.1.4.1h.4v.4H237.1c-.2 0-.4 0-.6-.1-.1-.1-.2-.3-.2-.5V2h-.6v-.4h.6zM241.4 4.6c-.1.1-.1.2-.2.3l-.3.3c-.1.1-.3.2-.4.2-.2.1-.4.1-.6.1-.2 0-.4 0-.6-.1-.2-.1-.4-.2-.5-.4-.2-.2-.3-.4-.4-.6-.1-.3-.1-.6-.1-.9 0-.3 0-.6.1-.8l.3-.6c.1-.2.3-.3.5-.4.2-.1.4-.1.6-.1.2 0 .4 0 .6.1.2.1.3.2.5.3.1.2.2.3.3.5.1.3.1.5.1.8v.4h-2.5c0 .2 0 .4.1.6.1.2.1.3.2.4.1.1.2.2.4.3.1.1.3.1.4.1.2 0 .4-.1.6-.2.2-.1.3-.3.4-.5l.5.2zm-.7-1.5c0-.3-.1-.6-.2-.9-.2-.2-.4-.3-.7-.3-.3 0-.6.1-.7.3-.2.2-.3.5-.3.9h1.9zM245.2.1V5.4h-.5l-.1-.4c-.1.1-.2.2-.4.3-.2.1-.4.1-.6.1-.2 0-.4 0-.5-.1-.2-.1-.4-.2-.5-.3-.2-.2-.3-.4-.4-.6-.1-.3-.2-.6-.2-1 0-.3 0-.6.2-.9.1-.2.2-.4.4-.6.1-.1.3-.3.5-.3.2-.1.3-.1.5-.1s.4 0 .5.1c.2.1.3.2.5.3V.1h.6zm-.6 2.4c-.1-.2-.3-.3-.5-.4-.1-.1-.3-.1-.5-.1-.1 0-.3 0-.4.1-.1.1-.3.1-.3.3-.1.1-.2.3-.2.5-.1.2-.1.5-.1.7 0 .4.1.8.3 1.1.2.3.5.4.8.4.2 0 .3 0 .5-.1s.3-.2.5-.4l-.1-2.1zM248.5 1.6V.3h.5v1.3h.9V2h-.9v2.7c0 .1 0 .2.1.2.1.1.2.1.3.1h.4v.4H249.2c-.2 0-.4 0-.6-.1-.1-.1-.2-.3-.2-.5V2h-.6v-.4h.7zM253.6 3.5c0 .3 0 .5-.1.8l-.3.6c-.1.2-.3.3-.5.4-.4.2-.9.2-1.4 0-.2-.1-.4-.2-.5-.4l-.3-.6c-.1-.5-.1-1 0-1.6l.3-.6c.1-.2.3-.3.5-.4.4-.2.9-.2 1.4 0 .2.1.4.2.5.4l.3.6c0 .3.1.5.1.8zm-.6 0c0-.4-.1-.8-.3-1.1-.3-.4-.9-.5-1.3-.2-.1.1-.2.1-.2.2-.4.7-.4 1.6 0 2.3.3.4.9.5 1.3.2.1-.1.2-.1.2-.2.3-.4.4-.8.3-1.2zM256.9.1V2c.1-.1.3-.2.5-.3.2-.1.3-.1.5-.1s.4 0 .5.1c.2.1.4.2.5.3.2.2.3.4.4.6.1.3.2.6.2.9 0 .3 0 .7-.2 1-.1.2-.2.4-.4.6-.1.1-.3.3-.5.3-.2.1-.3.1-.5.1s-.4 0-.6-.1c-.2-.1-.3-.2-.5-.3l-.1.4h-.4v-.4-5h.6zm0 4.4c.1.2.3.3.5.4.4.2 1 .1 1.3-.3.2-.3.3-.7.3-1.1 0-.2 0-.5-.1-.7 0-.2-.1-.3-.2-.5l-.3-.3c-.1-.1-.3-.1-.4-.1-.2 0-.3.1-.5.1-.2.1-.3.2-.5.4l-.1 2.1zM262.7 5.4v-.5c-.1.2-.3.3-.5.4-.2.1-.4.2-.6.2-.1 0-.3 0-.4-.1-.1 0-.3-.1-.4-.2-.1-.1-.2-.2-.2-.3-.1-.2-.1-.3-.1-.5V1.6h.5v2.8c0 .2 0 .4.2.5.1.1.3.2.5.1.1 0 .2 0 .3-.1.1 0 .2-.1.3-.1.1-.1.2-.1.3-.2.1-.1.2-.1.2-.2V1.6h.5v3.8h-.6zM264.5 4.4c.1.2.3.3.5.4.2.1.4.2.6.2.2 0 .5-.1.6-.2.1-.1.2-.3.2-.4 0-.1-.1-.3-.2-.4-.1-.1-.3-.2-.4-.2-.2-.1-.3-.1-.5-.2-.2 0-.4-.1-.5-.2-.2-.1-.3-.2-.4-.3-.1-.2-.2-.4-.1-.6 0-.3.1-.6.4-.8.3-.2.6-.3.9-.3.1 0 .3 0 .4.1.1 0 .3.1.4.1.1.1.2.1.3.2.1.1.2.2.2.3l-.4.3c-.1-.2-.3-.3-.4-.4-.2-.1-.4-.1-.5-.1-.2 0-.4 0-.5.2-.1.1-.2.3-.2.4 0 .1.1.3.2.3.1.1.3.2.4.2.2.1.3.1.5.2s.4.1.5.2c.2.1.3.2.4.4.1.2.2.4.2.6 0 .2 0 .3-.1.5-.1.1-.2.3-.3.3-.1.1-.3.2-.4.2-.2 0-.3.1-.5.1-.3 0-.6-.1-.9-.2-.3-.1-.5-.3-.7-.5l.3-.4zM268.5 0v.6h-.5V0h.5zm-.5 1.6h.5v3.8h-.5V1.6zM270.3 1.6v.5c.1-.2.3-.3.5-.4.2-.1.4-.2.6-.2.1 0 .3 0 .4.1.1 0 .3.1.4.2.1.1.2.2.2.3.1.2.1.3.1.5v2.8h-.5V2.6c0-.2 0-.4-.2-.5-.1-.1-.3-.2-.5-.1-.1 0-.2 0-.3.1-.1 0-.2.1-.3.1-.1.1-.2.1-.3.2-.1.1-.2.1-.2.2v2.9h-.5V1.6h.6zM276.7 4.6c-.1.1-.1.2-.2.3l-.3.3c-.1.1-.3.2-.4.2-.2.1-.4.1-.6.1-.2 0-.4 0-.6-.1-.2-.1-.4-.2-.5-.4-.2-.2-.3-.4-.4-.6-.1-.3-.1-.6-.1-.9 0-.3 0-.6.1-.8l.3-.6c.1-.2.3-.3.5-.4.2-.1.4-.1.6-.1.2 0 .4 0 .6.1.2.1.3.2.5.3.1.2.2.3.3.5.1.3.1.5.1.8v.4h-2.5c0 .2 0 .4.1.6.1.2.1.3.2.4.1.1.2.2.4.3.1.1.3.1.4.1.2 0 .4-.1.6-.2.2-.1.3-.3.4-.5l.5.2zm-.7-1.5c0-.3-.1-.6-.2-.9-.2-.2-.4-.3-.7-.3-.3 0-.6.1-.7.3-.2.2-.3.5-.3.9h1.9zM277.7 4.4c.1.2.3.3.5.4.2.1.4.2.6.2.2 0 .5-.1.6-.2.1-.1.2-.3.2-.4 0-.1-.1-.3-.2-.4-.1-.1-.3-.2-.4-.2-.2-.1-.3-.1-.5-.2-.2 0-.4-.1-.5-.2-.2-.1-.3-.2-.4-.3-.1-.2-.2-.4-.1-.6 0-.3.1-.6.4-.8.3-.2.6-.3.9-.3.1 0 .3 0 .4.1.1 0 .3.1.4.1.1.1.2.1.3.2.1.1.2.2.2.3l-.4.3c-.1-.2-.3-.3-.4-.4-.2-.1-.4-.1-.5-.1-.2 0-.4 0-.5.2-.1.1-.2.3-.2.4 0 .1.1.3.2.3.1.1.3.2.4.2.2.1.3.1.5.2s.4.1.5.2c.2.1.3.2.4.4.1.2.2.4.2.6 0 .2 0 .3-.1.5-.1.1-.2.3-.3.3-.1.1-.3.2-.4.2-.2 0-.3.1-.5.1-.3 0-.6-.1-.9-.2-.3-.1-.5-.3-.7-.5l.3-.4zM281.2 4.4c.1.2.3.3.5.4.2.1.4.2.6.2.2 0 .5-.1.6-.2.1-.1.2-.3.2-.4 0-.1-.1-.3-.2-.4-.1-.1-.3-.2-.4-.2-.2-.1-.3-.1-.5-.2-.2 0-.4-.1-.5-.2-.2-.1-.3-.2-.4-.3-.1-.2-.2-.4-.1-.6 0-.3.1-.6.4-.8.3-.2.6-.3.9-.3.1 0 .3 0 .4.1.1 0 .3.1.4.1.1.1.2.1.3.2.1.1.2.2.2.3l-.4.3c-.1-.2-.3-.3-.4-.4-.2-.1-.4-.1-.5-.1-.2 0-.4 0-.5.2-.1.1-.2.3-.2.4 0 .1.1.3.2.3.1.1.3.2.4.2.2.1.3.1.5.2s.4.1.5.2c.2.1.3.2.4.4.1.2.2.4.2.6 0 .2 0 .3-.1.5-.1.1-.2.3-.3.3-.1.1-.3.2-.4.2-.2 0-.3.1-.5.1-.3 0-.6-.1-.9-.2-.3-.1-.5-.3-.7-.5l.3-.4zM4.8 11.3V10h.5v1.3h.9v.5h-.8v2.7c0 .1 0 .2.1.2.1.1.2.1.3.1h.4v.4H5.6c-.2 0-.4 0-.6-.1-.1-.1-.2-.3-.2-.5v-2.8h-.6v-.5h.6zM9.4 15.1v-.5c-.1.2-.3.3-.5.4-.2.1-.4.2-.6.2-.1 0-.3 0-.4-.1-.1 0-.3-.1-.4-.2-.1-.1-.2-.2-.2-.3-.1-.2-.1-.3-.1-.5v-2.8h.5V14c0 .2 0 .4.2.5.1.1.3.2.5.1.1 0 .2 0 .3-.1.1 0 .2-.1.3-.1.1-.1.2-.1.3-.2.1-.1.2-.1.2-.2v-2.9h.5v3.8h-.6zM11.1 11.3h.5v.7c.1-.1.1-.2.2-.3l.3-.3c.1-.1.2-.1.3-.2.1 0 .3-.1.4-.1v.5c-.3 0-.6.1-.8.3-.2.3-.4.6-.5.9v2.1H11v-3.6zM14.2 11.3v.5c.1-.2.3-.3.5-.4.2-.1.4-.2.6-.2.1 0 .3 0 .4.1.1 0 .3.1.4.2.1.1.2.2.2.3.1.2.1.3.1.5v2.8H16v-2.8c0-.2 0-.4-.2-.5-.1-.1-.3-.2-.5-.1-.1 0-.2 0-.3.1-.1 0-.2.1-.3.1-.1.1-.2.1-.3.2-.1.1-.2.1-.2.2v2.9h-.5v-3.8l.5-.1zM20.6 13.2c0 .3 0 .5-.1.8l-.3.6c-.1.2-.3.3-.5.4-.4.2-.9.2-1.4 0-.2-.1-.4-.2-.5-.4l-.3-.6c-.1-.5-.1-1 0-1.6l.3-.6c.1-.2.3-.3.5-.4.4-.2.9-.2 1.4 0 .2.1.4.2.5.4l.3.6c.1.3.1.5.1.8zm-.5 0c0-.4-.1-.8-.3-1.1-.3-.4-.9-.5-1.3-.2-.1.1-.2.1-.2.2-.4.7-.4 1.6 0 2.3.3.4.9.5 1.3.2.1-.1.2-.1.2-.2.2-.4.3-.8.3-1.2zM22.9 15.1h-.7L21 11.3h.5l1 3.2 1-3.2h.5l-1.1 3.8zM27.6 14.3c-.1.1-.1.2-.2.3l-.3.3c-.1.1-.3.2-.4.2-.2.1-.4.1-.6.1-.2 0-.4 0-.6-.1-.2-.1-.4-.2-.5-.4-.2-.2-.3-.4-.4-.6-.1-.3-.1-.6-.1-.9 0-.3 0-.6.1-.8l.3-.6c.1-.2.3-.3.5-.4.2-.1.4-.1.6-.1.2 0 .4 0 .6.1.2.1.3.2.5.3.1.2.2.3.3.5.1.3.1.5.1.8v.4H25c0 .2 0 .4.1.6.1.2.1.3.2.4.1.1.2.2.4.3.1.1.3.1.4.1.2 0 .4-.1.6-.2.2-.1.3-.3.4-.5l.5.2zm-.6-1.5c0-.3-.1-.6-.2-.9-.2-.2-.4-.3-.7-.3-.3 0-.6.1-.7.3-.2.2-.3.5-.3.9H27zM28.5 11.3h.5v.7c.1-.1.1-.2.2-.3l.3-.3c.1-.1.2-.1.3-.2.1 0 .3-.1.4-.1v.5c-.3 0-.6.1-.8.3-.2.3-.4.6-.5.9v2.1h-.5l.1-3.6zM31.5 12c.1-.2.3-.4.5-.6.3-.2.6-.3.9-.2.2 0 .3 0 .5.1.2 0 .3.1.4.2.1.1.2.2.3.4.1.2.1.3.1.5v2.4c0 .1 0 .2.1.3h-.5l-.1-.5c-.2.2-.3.3-.5.4-.2.1-.5.2-.8.2-.1 0-.3 0-.4-.1-.3-.1-.5-.3-.6-.5-.1-.1-.1-.3-.1-.5 0-.4.2-.8.5-1 .2-.1.5-.3.7-.3.4-.1.7-.2 1.1-.3v-.2c0-.2-.1-.4-.2-.5-.2-.1-.4-.2-.6-.2-.1 0-.3 0-.4.1-.1 0-.2.1-.3.1l-.2.2c0 .1-.1.1-.1.2l-.3-.2zm2.3 1c-1.2.2-1.8.6-1.8 1.1 0 .1 0 .2.1.2 0 .1.1.1.1.2.1.1.1.1.2.1h.5c.1 0 .2-.1.3-.1.1-.1.2-.1.3-.2.1-.1.2-.2.3-.2V13zM36 11.3v.5c.1-.2.3-.3.5-.4.2-.1.4-.2.6-.2.1 0 .3 0 .4.1.1 0 .3.1.4.2.1.1.2.2.2.3.1.2.1.3.1.5v2.8h-.5v-2.8c0-.2 0-.4-.2-.5-.1-.1-.3-.2-.5-.1-.1 0-.2 0-.3.1-.1 0-.2.1-.3.1-.1.1-.2.1-.3.2-.1.1-.2.1-.2.2v2.9h-.5v-3.8l.6-.1zM42.3 9.8V15.1h-.5l-.1-.4c-.1.1-.2.2-.4.3-.2.1-.4.1-.6.1-.2 0-.4 0-.5-.1-.2-.1-.4-.2-.5-.3-.2-.2-.3-.4-.4-.6-.1-.3-.2-.6-.2-1 0-.3 0-.6.2-.9.1-.2.2-.4.4-.6.1-.1.3-.3.5-.3.2-.1.3-.1.5-.1s.4 0 .5.1c.2.1.3.2.5.3V9.8h.6zm-.5 2.4c-.1-.2-.3-.3-.5-.4-.1-.1-.3-.1-.5-.1-.1 0-.3 0-.4.1-.1.1-.3.1-.3.3-.1.1-.2.3-.2.5-.1.2-.1.5-.1.7 0 .4.1.8.3 1.1.2.3.5.4.8.4.2 0 .3 0 .5-.1s.3-.2.5-.4l-.1-2.1zM44.1 12c.1-.2.3-.4.5-.6.3-.2.6-.3.9-.2.2 0 .3 0 .5.1.2 0 .3.1.4.2.1.1.2.2.3.4.1.2.1.3.1.5v2.4c0 .1 0 .2.1.3h-.5l-.1-.5c-.2.2-.3.3-.5.4-.2.1-.5.2-.8.2-.1 0-.3 0-.4-.1-.3-.1-.5-.3-.6-.5v-.5c0-.4.2-.8.5-1 .2-.1.5-.3.7-.3.4-.1.7-.2 1.1-.3v-.2c0-.2-.1-.4-.2-.5-.2-.1-.4-.2-.6-.2-.1 0-.3 0-.4.1-.1 0-.2.1-.3.1l-.2.2c0 .1-.1.1-.1.2l-.4-.2zm2.3 1c-1.2.2-1.8.6-1.8 1.1 0 .1 0 .2.1.2 0 .1.1.1.1.2.1.1.1.1.2.1h.5c.1 0 .2-.1.3-.1.1-.1.2-.1.3-.2.1-.1.2-.2.3-.2V13zM48.1 14.1c.1.2.3.3.5.4.2.1.4.2.6.2.2 0 .5-.1.6-.2.1-.1.2-.3.2-.4 0-.1-.1-.3-.2-.4-.1-.1-.3-.2-.4-.2-.2-.1-.3-.1-.5-.2-.2 0-.4-.1-.5-.2-.2-.1-.3-.2-.4-.3-.1-.2-.2-.4-.1-.6 0-.3.1-.6.4-.8.3-.2.6-.3.9-.3.1 0 .3 0 .4.1.1 0 .3.1.4.1.1.1.2.1.3.2.1.1.2.2.2.3l-.5.4c-.1-.2-.3-.3-.4-.4-.2-.1-.4-.1-.5-.1-.2 0-.4 0-.5.2-.1.1-.2.3-.2.4 0 .1.1.3.2.3.1.1.3.2.4.2.2.1.3.1.5.2s.4.1.5.2c.2.1.3.2.4.4.1.2.2.4.2.6 0 .2 0 .3-.1.5-.1.1-.2.3-.3.3-.1.1-.3.2-.4.2-.2 0-.3.1-.5.1-.3 0-.6-.1-.9-.2-.3-.1-.5-.3-.7-.5l.4-.5zM51.5 14.1c.1.2.3.3.5.4.2.1.4.2.6.2.2 0 .5-.1.6-.2.1-.1.2-.3.2-.4 0-.1-.1-.3-.2-.4-.1-.1-.3-.2-.4-.2-.2-.1-.3-.1-.5-.2-.2 0-.4-.1-.5-.2-.2-.1-.3-.2-.4-.3-.1-.2-.2-.4-.1-.6 0-.3.1-.6.4-.8.3-.2.6-.3.9-.3.1 0 .3 0 .4.1.1 0 .3.1.4.1.1.1.2.1.3.2.1.1.2.2.2.3l-.4.3c-.1-.2-.3-.3-.4-.4-.2-.1-.4-.1-.5-.1-.2 0-.4 0-.5.2-.1.1-.2.3-.2.4 0 .1.1.3.2.3.1.1.3.2.4.2.2.1.3.1.5.2s.4.1.5.2c.2.1.3.2.4.4.1.2.2.4.2.6 0 .2 0 .3-.1.5-.1.1-.2.3-.3.3-.1.1-.3.2-.4.2-.2 0-.3.1-.5.1-.3 0-.6-.1-.9-.2-.3-.1-.5-.3-.7-.5l.3-.4zM57.8 14.3c-.1.1-.1.2-.2.3l-.3.3c-.1.1-.3.2-.4.2-.2.1-.4.1-.6.1-.2 0-.4 0-.6-.1-.2-.1-.4-.2-.5-.4-.2-.2-.3-.4-.4-.6-.1-.3-.1-.6-.1-.9 0-.3 0-.6.1-.8l.3-.6c.1-.2.3-.3.5-.4.2-.1.4-.1.6-.1.2 0 .4 0 .6.1.2.1.3.2.5.3.1.2.2.3.3.5.1.3.1.5.1.8v.4h-2.5c0 .2 0 .4.1.6.1.2.1.3.2.4.1.1.2.2.4.3.1.1.3.1.4.1.2 0 .4-.1.6-.2.2-.1.3-.3.4-.5l.5.2zm-.7-1.5c0-.3-.1-.6-.2-.9-.2-.2-.4-.3-.7-.3-.3 0-.6.1-.7.3-.2.2-.3.5-.3.9h1.9zM58.8 11.3V10h.5v1.3h.9v.5h-.9v2.7c0 .1 0 .2.1.2.1.1.2.1.3.1h.4v.4H59.5c-.2 0-.4 0-.6-.1-.1-.1-.2-.3-.2-.5v-2.8h-.6v-.5h.7zM64.1 15.1v-.5c-.1.2-.3.3-.5.4-.2.1-.4.2-.6.2-.1 0-.3 0-.4-.1-.1 0-.3-.1-.4-.2-.1-.1-.2-.2-.2-.3-.1-.2-.1-.3-.1-.5v-2.8h.5V14c0 .2 0 .4.2.5.1.1.3.2.5.1.1 0 .2 0 .3-.1.1 0 .2-.1.3-.1.1-.1.2-.1.3-.2.1-.1.2-.1.2-.2v-2.9h.5v3.8h-.6zM65.9 14.1c.1.2.3.3.5.4.2.1.4.2.6.2.2 0 .5-.1.6-.2.1-.1.2-.3.2-.4 0-.1-.1-.3-.2-.4-.1-.1-.3-.2-.4-.2-.2-.1-.3-.1-.5-.2-.2 0-.4-.1-.5-.2-.2-.1-.3-.2-.4-.3-.1-.2-.2-.4-.1-.6 0-.3.1-.6.4-.8.3-.2.6-.3.9-.3.1 0 .3 0 .4.1.1 0 .3.1.4.1.1.1.2.1.3.2.1.1.2.2.2.3l-.4.3c-.1-.2-.3-.3-.4-.4-.2-.1-.4-.1-.5-.1-.2 0-.4 0-.5.2-.1.1-.2.3-.2.4 0 .1.1.3.2.3.1.1.3.2.4.2.2.1.3.1.5.2s.4.1.5.2c.2.1.3.2.4.4.1.2.2.4.2.6 0 .2 0 .3-.1.5-.1.1-.2.3-.3.3-.1.1-.3.2-.4.2-.2 0-.3.1-.5.1-.3 0-.6-.1-.9-.2-.3-.1-.5-.3-.7-.5l.3-.4zM72.2 14.3c-.1.1-.1.2-.2.3l-.3.3c-.1.1-.3.2-.4.2-.2.1-.4.1-.6.1-.2 0-.4 0-.6-.1-.2-.1-.4-.2-.5-.4-.2-.2-.3-.4-.4-.6-.1-.3-.1-.6-.1-.9 0-.3 0-.6.1-.8l.3-.6c.1-.2.3-.3.5-.4.2-.1.4-.1.6-.1.2 0 .4 0 .6.1.2.1.3.2.5.3.1.2.2.3.3.5.1.3.1.5.1.8v.4h-2.5c0 .2 0 .4.1.6.1.2.1.3.2.4.1.1.2.2.4.3.1.1.3.1.4.1.2 0 .4-.1.6-.2.2-.1.3-.3.4-.5l.5.2zm-.7-1.5c0-.3-.1-.6-.2-.9-.2-.2-.4-.3-.7-.3-.3 0-.6.1-.7.3-.2.2-.3.5-.3.9h1.9zM73.9 14.3v.8h-.7v-.8h.7zM76.2 9.8h2c.2 0 .4 0 .6.1.2.1.3.2.5.3.1.1.2.3.3.4.1.2.1.3.1.5 0 .6-.3 1.1-.9 1.2.1 0 .3.1.4.2l.3.3c.1.1.2.3.2.4.1.2.1.3.1.5s0 .4-.1.6c-.1.2-.2.3-.3.5l-.6.3c-.3.1-.6.1-.9.1h-1.7V9.8zm.6 2.3h1c.2 0 .4 0 .6-.1.1 0 .3-.1.4-.2.1-.1.2-.2.2-.3 0-.1.1-.2.1-.3 0-.6-.3-.9-1-.9h-1.3v1.8zm0 2.5h1.1c.3 0 .7-.1 1-.2.2-.2.3-.4.3-.7 0-.3-.1-.6-.4-.8-.3-.2-.7-.3-1-.3h-1v2zM83.8 14.3c-.1.1-.1.2-.2.3l-.3.3c-.1.1-.3.2-.4.2-.2.1-.4.1-.6.1-.2 0-.4 0-.6-.1-.2-.1-.4-.2-.5-.4-.2-.2-.3-.4-.4-.6-.1-.3-.1-.6-.1-.9 0-.3 0-.6.1-.8l.3-.6c.1-.2.3-.3.5-.4.2-.1.4-.1.6-.1.2 0 .4 0 .6.1.2.1.3.2.5.3.1.2.2.3.3.5.1.3.1.5.1.8v.4h-2.5c0 .2 0 .4.1.6.1.2.1.3.2.4.1.1.2.2.4.3.1.1.3.1.4.1.2 0 .4-.1.6-.2.2-.1.3-.3.4-.5l.5.2zm-.6-1.5c0-.3-.1-.6-.2-.9-.2-.2-.4-.3-.7-.3-.3 0-.6.1-.7.3-.2.2-.3.5-.3.9h1.9zM84.9 15.1v-3.4h-.6v-.5h.6v-.4c0-.2 0-.4.1-.6 0-.1.1-.2.2-.3.1-.1.2-.1.3-.2.1 0 .3-.1.4 0h.4v.5h-.4c-.1 0-.3 0-.4.1-.1.1-.1.3-.1.4v.6h.8v.5h-.8v3.4h-.5zM90 13.2c0 .3 0 .5-.1.8l-.3.6c-.1.2-.3.3-.5.4-.4.2-.9.2-1.4 0-.2-.1-.4-.2-.5-.4l-.3-.6c-.1-.5-.1-1 0-1.6l.3-.6c.1-.2.3-.3.5-.4.4-.2.9-.2 1.4 0 .2.1.4.2.5.4l.3.6c0 .3.1.5.1.8zm-.6 0c0-.4-.1-.8-.3-1.1-.3-.4-.9-.5-1.3-.2-.1.1-.2.1-.2.2-.4.7-.4 1.6 0 2.3.3.4.9.5 1.3.2.1-.1.2-.1.2-.2.2-.4.3-.8.3-1.2zM90.8 11.3h.5v.7c.1-.1.1-.2.2-.3l.3-.3c.1-.1.2-.1.3-.2.1 0 .3-.1.4-.1v.5c-.3 0-.6.1-.8.3-.2.3-.4.6-.5.9v2.1h-.5l.1-3.6zM96.2 14.3c-.1.1-.1.2-.2.3l-.3.3c-.1.1-.3.2-.4.2-.2.1-.4.1-.6.1-.2 0-.4 0-.6-.1-.2-.1-.4-.2-.5-.4-.2-.2-.3-.4-.4-.6-.1-.3-.1-.6-.1-.9 0-.3 0-.6.1-.8l.3-.6c.1-.2.3-.3.5-.4.2-.1.4-.1.6-.1.2 0 .4 0 .6.1.2.1.3.2.5.3.1.2.2.3.3.5.1.3.1.5.1.8v.4h-2.5c0 .2 0 .4.1.6.1.2.1.3.2.4.1.1.2.2.4.3.1.1.3.1.4.1.2 0 .4-.1.6-.2.2-.1.3-.3.4-.5l.5.2zm-.6-1.5c0-.3-.1-.6-.2-.9-.2-.2-.4-.3-.7-.3-.3 0-.6.1-.7.3-.2.2-.3.5-.3.9h1.9zM97.9 16.5v-5.2h.5v.4l.2-.2c.1-.1.2-.1.2-.2.1 0 .2-.1.3-.1h.3c.2 0 .4 0 .5.1.2.1.4.2.5.3.2.2.3.4.4.6.1.3.2.6.2 1 0 .3 0 .6-.2.9-.1.2-.2.4-.4.6-.1.1-.3.3-.5.3-.2.1-.3.1-.5.1s-.4 0-.5-.1c-.2-.1-.3-.2-.5-.3v1.8h-.5zm.5-2.3c.1.2.3.3.5.4.1.1.3.1.5.1.1 0 .3 0 .4-.1.1-.1.3-.1.3-.3.1-.1.2-.3.2-.5.1-.2.1-.5.1-.7 0-.4-.1-.8-.3-1.1-.2-.3-.5-.4-.8-.4-.2 0-.3 0-.5.1s-.3.2-.5.4l.1 2.1zM101.9 11.3h.5v.7c.1-.1.1-.2.2-.3l.3-.3c.1-.1.2-.1.3-.2.1 0 .3-.1.4-.1v.5c-.3 0-.6.1-.8.3-.2.3-.4.6-.5.9v2.1h-.5v-3.6zM107.3 13.2c0 .3 0 .5-.1.8l-.3.6c-.1.2-.3.3-.5.4-.4.2-.9.2-1.4 0-.2-.1-.4-.2-.5-.4l-.3-.6c-.1-.5-.1-1 0-1.6l.3-.6c.1-.2.3-.3.5-.4.4-.2.9-.2 1.4 0 .2.1.4.2.5.4l.3.6c.1.3.1.5.1.8zm-.5 0c0-.4-.1-.8-.3-1.1-.3-.4-.9-.5-1.3-.2-.1.1-.2.1-.2.2-.4.7-.4 1.6 0 2.3.3.4.9.5 1.3.2.1-.1.2-.1.2-.2.2-.4.3-.8.3-1.2zM110.5 12.4l-.3-.6c-.2-.1-.4-.2-.6-.2-.3 0-.6.1-.8.4-.4.7-.4 1.6 0 2.3.2.3.5.4.8.4h.3c.1 0 .2-.1.3-.1.1-.1.2-.1.2-.2.1-.1.2-.2.2-.3l.4.2c-.1.1-.2.3-.3.4l-.3.3c-.1.1-.2.1-.4.2-.2 0-.3.1-.5.1s-.4 0-.7-.1c-.2-.1-.4-.2-.5-.4l-.3-.6c-.1-.5-.1-1.1 0-1.7l.3-.6c.1-.2.3-.3.5-.4.2-.1.4-.1.7-.1.2 0 .3 0 .5.1.1 0 .3.1.4.2l.3.3c.1.1.2.3.2.4h-.4zM114.8 14.3c-.1.1-.1.2-.2.3l-.3.3c-.1.1-.3.2-.4.2-.2.1-.4.1-.6.1-.2 0-.4 0-.6-.1-.2-.1-.4-.2-.5-.4-.2-.2-.3-.4-.4-.6-.1-.3-.1-.6-.1-.9 0-.3 0-.6.1-.8l.3-.6c.1-.2.3-.3.5-.4.2-.1.4-.1.6-.1.2 0 .4 0 .6.1.2.1.3.2.5.3.1.2.2.3.3.5.1.3.1.5.1.8v.4h-2.5c0 .2 0 .4.1.6.1.2.1.3.2.4.1.1.2.2.4.3.1.1.3.1.4.1.2 0 .4-.1.6-.2.2-.1.3-.3.4-.5l.5.2zm-.6-1.5c0-.3-.1-.6-.2-.9-.2-.2-.4-.3-.7-.3-.3 0-.6.1-.7.3-.2.2-.3.5-.3.9h1.9zM118.6 14.3c-.1.1-.1.2-.2.3l-.3.3c-.1.1-.3.2-.4.2-.2.1-.4.1-.6.1-.2 0-.4 0-.6-.1-.2-.1-.4-.2-.5-.4-.2-.2-.3-.4-.4-.6-.1-.3-.1-.6-.1-.9 0-.3 0-.6.1-.8l.3-.6c.1-.2.3-.3.5-.4.2-.1.4-.1.6-.1.2 0 .4 0 .6.1.2.1.3.2.5.3.1.2.2.3.3.5.1.3.1.5.1.8v.4H116c0 .2 0 .4.1.6.1.2.1.3.2.4.1.1.2.2.4.3.1.1.3.1.4.1.2 0 .4-.1.6-.2.2-.1.3-.3.4-.5l.5.2zm-.6-1.5c0-.3-.1-.6-.2-.9-.2-.2-.4-.3-.7-.3-.3 0-.6.1-.7.3-.2.2-.3.5-.3.9h1.9zM122.4 9.8V15.1h-.5l-.1-.4c-.1.1-.2.2-.4.3-.2.1-.4.1-.6.1-.2 0-.4 0-.5-.1-.2-.1-.4-.2-.5-.3-.2-.2-.3-.4-.4-.6-.1-.3-.2-.6-.2-1 0-.3 0-.6.2-.9.1-.2.2-.4.4-.6.1-.1.3-.3.5-.3.2-.1.3-.1.5-.1s.4 0 .5.1c.2.1.3.2.5.3V9.8h.6zm-.5 2.4c-.1-.2-.3-.3-.5-.4-.1-.1-.3-.1-.5-.1-.1 0-.3 0-.4.1-.1.1-.3.1-.3.3-.1.1-.2.3-.2.5-.1.2-.1.5-.1.7 0 .4.1.8.3 1.1.2.3.5.4.8.4.2 0 .3 0 .5-.1s.3-.2.5-.4l-.1-2.1zM124.2 9.7v.6h-.5v-.6h.5zm-.5 1.6h.5v3.8h-.5v-3.8zM126.1 11.3v.5c.1-.2.3-.3.5-.4.2-.1.4-.2.6-.2.1 0 .3 0 .4.1.1 0 .3.1.4.2.1.1.2.2.2.3.1.2.1.3.1.5v2.8h-.5v-2.8c0-.2 0-.4-.2-.5-.1-.1-.3-.2-.5-.1-.1 0-.2 0-.3.1-.1 0-.2.1-.3.1-.1.1-.2.1-.3.2-.1.1-.2.1-.2.2v2.9h-.5v-3.8l.6-.1zM132.5 11.7h-.3c-.1 0-.2 0-.3.1.1.1.1.2.2.3.1.1.1.3.1.5s0 .4-.1.5c-.1.3-.4.6-.7.7-.2.1-.4.1-.5.1h-.4c-.1 0-.2 0-.3-.1-.2 0-.3.2-.3.4 0 .1 0 .2.1.2.1.1.1.1.2.1.4 0 .8 0 1.1.1.3 0 .5.1.7.2.2.1.3.2.4.3.1.1.1.3.1.5 0 .1 0 .3-.1.4l-.3.3c-.2.1-.3.2-.5.2-.3.1-.5.1-.8.1-.4 0-.8-.1-1.2-.2-.3-.1-.4-.4-.4-.7 0-.2.1-.3.2-.5.1-.1.3-.2.5-.3-.1 0-.3-.1-.3-.2-.1-.1-.1-.2-.1-.3 0-.1 0-.3.1-.4.1-.1.2-.2.4-.3-.2-.1-.3-.3-.4-.5-.1-.2-.1-.4-.1-.6 0-.2 0-.4.1-.5.1-.2.2-.3.3-.4.1-.1.3-.2.5-.3.2-.1.4-.1.6-.1.2 0 .4 0 .5.1.1 0 .3.1.4.2.1-.1.3-.2.4-.2.1-.1.3-.1.4-.1l-.2.4zm-.4 3.8c0-.2-.1-.4-.3-.4-.3-.1-.7-.2-1-.1-.2 0-.3 0-.5.1-.1 0-.2.1-.3.2l-.2.2c0 .1 0 .1-.1.2v.2c0 .1.1.1.2.2s.2.1.4.1h1c.1 0 .3-.1.4-.1.1 0 .2-.1.2-.2.1-.2.2-.3.2-.4zm-.4-2.9c0-.2-.1-.5-.2-.7-.2-.2-.5-.3-.7-.2-.5 0-.9.3-.9.8v.1c0 .2.1.5.3.6.2.2.5.3.7.3.1 0 .3 0 .4-.1.1 0 .2-.1.3-.2.1-.1.1-.2.2-.3-.1-.1-.1-.2-.1-.3zM133.5 11.3h.5l.8 2.9.8-2.9h.5l.8 3 .7-3h.5l-1 3.8h-.5l-.8-3-.8 3h-.5l-1-3.8zM139.6 9.7v.6h-.5v-.6h.5zm-.5 1.6h.5v3.8h-.5v-3.8zM141.1 11.3V10h.5v1.3h.9v.5h-.9v2.7c0 .1 0 .2.1.2.1.1.2.1.3.1h.4v.4H141.8c-.2 0-.4 0-.6-.1-.1-.1-.2-.3-.2-.5v-2.8h-.6v-.5h.7zM144 9.8v2c.1-.2.3-.3.5-.4.2-.1.4-.2.6-.2.1 0 .3 0 .4.1.1 0 .3.1.4.2.1.1.2.2.2.3.1.2.1.3.1.5v2.8h-.5v-2.8c0-.2 0-.4-.2-.5-.1-.1-.3-.2-.5-.1-.1 0-.2 0-.3.1-.1 0-.2.1-.3.1-.1.1-.2.1-.3.2-.1.1-.2.1-.2.2v2.9h-.5V9.8h.6zM150.8 11.3l-1.3 4.2c-.1.2-.1.4-.2.5l-.3.3c-.1.1-.2.1-.4.2h-.8V16H148.4c.1 0 .2-.1.3-.1l.3-.3c.1-.2.2-.3.2-.5l-1.3-3.9h.6l1 2.9.9-2.9.4.1zM154.3 13.2c0 .3 0 .5-.1.8l-.3.6c-.1.2-.3.3-.5.4-.4.2-.9.2-1.4 0-.2-.1-.4-.2-.5-.4l-.3-.6c-.1-.5-.1-1 0-1.6l.3-.6c.1-.2.3-.3.5-.4.4-.2.9-.2 1.4 0 .2.1.4.2.5.4l.3.6c.1.3.1.5.1.8zm-.5 0c0-.4-.1-.8-.3-1.1-.3-.4-.9-.5-1.3-.2-.1.1-.2.1-.2.2-.4.7-.4 1.6 0 2.3.3.4.9.5 1.3.2.1-.1.2-.1.2-.2.2-.4.3-.8.3-1.2zM157.5 15.1v-.5c-.1.2-.3.3-.5.4-.2.1-.4.2-.6.2-.1 0-.3 0-.4-.1-.1 0-.3-.1-.4-.2-.1-.1-.2-.2-.2-.3-.1-.2-.1-.3-.1-.5v-2.8h.5V14c0 .2 0 .4.2.5.1.1.3.2.5.1.1 0 .2 0 .3-.1.1 0 .2-.1.3-.1.1-.1.2-.1.3-.2.1-.1.2-.1.2-.2v-2.9h.5v3.8h-.6zM159.2 11.3h.5v.7c.1-.1.1-.2.2-.3l.3-.3c.1-.1.2-.1.3-.2.1 0 .3-.1.4-.1v.5c-.3 0-.6.1-.8.3-.2.3-.4.6-.5.9v2.1h-.5l.1-3.6zM162.5 16.5v-5.2h.5v.4l.2-.2c.1-.1.2-.1.2-.2.1 0 .2-.1.3-.1h.3c.2 0 .4 0 .5.1.2.1.4.2.5.3.2.2.3.4.4.6.1.3.2.6.2 1 0 .3 0 .6-.2.9-.1.2-.2.4-.4.6-.1.1-.3.3-.5.3-.2.1-.3.1-.5.1s-.4 0-.5-.1c-.2-.1-.3-.2-.5-.3v1.8h-.5zm.5-2.3c.1.2.3.3.5.4.1.1.3.1.5.1.1 0 .3 0 .4-.1.1-.1.3-.1.3-.3.1-.1.2-.3.2-.5.1-.2.1-.5.1-.7 0-.4-.1-.8-.3-1.1-.2-.3-.5-.4-.8-.4-.2 0-.3 0-.5.1s-.3.2-.5.4v2.1zM168.9 15.1v-.5c-.1.2-.3.3-.5.4-.2.1-.4.2-.6.2-.1 0-.3 0-.4-.1-.1 0-.3-.1-.4-.2-.1-.1-.2-.2-.2-.3-.1-.2-.1-.3-.1-.5v-2.8h.5V14c0 .2 0 .4.2.5.1.1.3.2.5.1.1 0 .2 0 .3-.1.1 0 .2-.1.3-.1.1-.1.2-.1.3-.2.1-.1.2-.1.2-.2v-2.9h.5v3.8h-.6zM170.6 11.3h.5v.7c.1-.1.1-.2.2-.3l.3-.3c.1-.1.2-.1.3-.2.1 0 .3-.1.4-.1v.5c-.3 0-.6.1-.8.3-.2.3-.4.6-.5.9v2.1h-.5l.1-3.6zM175.3 12.4l-.3-.6c-.2-.1-.4-.2-.6-.2-.3 0-.6.1-.8.4-.4.7-.4 1.6 0 2.3.2.3.5.4.8.4h.3c.1 0 .2-.1.3-.1.1-.1.2-.1.2-.2.1-.1.2-.2.2-.3l.4.2c-.1.1-.2.3-.3.4l-.3.3c-.1.1-.2.1-.4.2-.2 0-.3.1-.5.1s-.4 0-.7-.1c-.2-.1-.4-.2-.5-.4l-.3-.6c-.1-.5-.1-1.1 0-1.7l.3-.6c.1-.2.3-.3.5-.4.2-.1.4-.1.7-.1.2 0 .3 0 .5.1.1 0 .3.1.4.2l.3.3c.1.1.2.3.2.4h-.4zM177.4 9.8v2c.1-.2.3-.3.5-.4.2-.1.4-.2.6-.2.1 0 .3 0 .4.1.1 0 .3.1.4.2.1.1.2.2.2.3.1.2.1.3.1.5v2.8h-.5v-2.8c0-.2 0-.4-.2-.5-.1-.1-.3-.2-.5-.1-.1 0-.2 0-.3.1-.1 0-.2.1-.3.1-.1.1-.2.1-.3.2-.1.1-.2.1-.2.2v2.9h-.5V9.8h.6zM180.7 12c.1-.2.3-.4.5-.6.3-.2.6-.3.9-.2.2 0 .3 0 .5.1.2 0 .3.1.4.2.1.1.2.2.3.4.1.2.1.3.1.5v2.4c0 .1 0 .2.1.3h-.5l-.1-.5c-.2.2-.3.3-.5.4-.2.1-.5.2-.8.2-.1 0-.3 0-.4-.1-.3-.1-.5-.3-.6-.5-.1-.1-.1-.3-.1-.5 0-.4.2-.8.5-1 .2-.1.5-.3.7-.3.4-.1.7-.2 1.1-.3v-.2c0-.2-.1-.4-.2-.5-.2-.1-.4-.2-.6-.2-.1 0-.3 0-.4.1-.1 0-.2.1-.3.1l-.2.2c0 .1-.1.1-.1.2l-.3-.2zm2.2 1c-1.2.2-1.8.6-1.8 1.1 0 .1 0 .2.1.2 0 .1.1.1.1.2.1.1.1.1.2.1h.5c.1 0 .2-.1.3-.1.1-.1.2-.1.3-.2.1-.1.2-.2.3-.2V13zM184.6 14.1c.1.2.3.3.5.4.2.1.4.2.6.2.2 0 .5-.1.6-.2.1-.1.2-.3.2-.4 0-.1-.1-.3-.2-.4-.1-.1-.3-.2-.4-.2-.2-.1-.3-.1-.5-.2-.2 0-.4-.1-.5-.2-.2-.1-.3-.2-.4-.3-.1-.2-.2-.4-.1-.6 0-.3.1-.6.4-.8.3-.2.6-.3.9-.3.1 0 .3 0 .4.1.1 0 .3.1.4.1.1.1.2.1.3.2.1.1.2.2.2.3l-.4.3c-.1-.2-.3-.3-.4-.4-.2-.1-.4-.1-.5-.1-.2 0-.4 0-.5.2-.1.1-.2.3-.2.4 0 .1.1.3.2.3.1.1.3.2.4.2.2.1.3.1.5.2s.4.1.5.2c.2.1.3.2.4.4.1.2.2.4.2.6 0 .2 0 .3-.1.5-.1.1-.2.3-.3.3-.1.1-.3.2-.4.2-.2 0-.3.1-.5.1-.3 0-.6-.1-.9-.2-.3-.1-.5-.3-.7-.5l.3-.4zM190.8 14.3c-.1.1-.1.2-.2.3l-.3.3c-.1.1-.3.2-.4.2-.2.1-.4.1-.6.1-.2 0-.4 0-.6-.1-.2-.1-.4-.2-.5-.4-.2-.2-.3-.4-.4-.6-.1-.3-.1-.6-.1-.9 0-.3 0-.6.1-.8l.3-.6c.1-.2.3-.3.5-.4.2-.1.4-.1.6-.1.2 0 .4 0 .6.1.2.1.3.2.5.3.1.2.2.3.3.5.1.3.1.5.1.8v.4h-2.5c0 .2 0 .4.1.6.1.2.1.3.2.4.1.1.2.2.4.3.1.1.3.1.4.1.2 0 .4-.1.6-.2.2-.1.3-.3.4-.5l.5.2zm-.6-1.5c0-.3-.1-.6-.2-.9-.2-.2-.4-.3-.7-.3-.3 0-.6.1-.7.3-.2.2-.3.5-.3.9h1.9zM192.6 15.1l-.5 1.1h-.3l.3-1.1h-.3v-.8h.7v.8zM197.2 11.3l-1.3 4.2c-.1.2-.1.4-.2.5l-.3.3c-.1.1-.2.1-.4.2h-.8V16H194.8c.1 0 .2-.1.3-.1l.3-.3c.1-.2.2-.3.2-.5l-1.3-3.9h.6l1 2.9.9-2.9.4.1zM200.8 13.2c0 .3 0 .5-.1.8l-.3.6c-.1.2-.3.3-.5.4-.4.2-.9.2-1.4 0-.2-.1-.4-.2-.5-.4l-.3-.6c-.1-.5-.1-1 0-1.6l.3-.6c.1-.2.3-.3.5-.4.4-.2.9-.2 1.4 0 .2.1.4.2.5.4l.3.6c.1.3.1.5.1.8zm-.5 0c0-.4-.1-.8-.3-1.1-.3-.4-.9-.5-1.3-.2-.1.1-.2.1-.2.2-.4.7-.4 1.6 0 2.3.3.4.9.5 1.3.2.1-.1.2-.1.2-.2.2-.4.3-.8.3-1.2zM204 15.1v-.5c-.1.2-.3.3-.5.4-.2.1-.4.2-.6.2-.1 0-.3 0-.4-.1-.1 0-.3-.1-.4-.2-.1-.1-.2-.2-.2-.3-.1-.2-.1-.3-.1-.5v-2.8h.5V14c0 .2 0 .4.2.5.1.1.3.2.5.1.1 0 .2 0 .3-.1.1 0 .2-.1.3-.1.1-.1.2-.1.3-.2.1-.1.2-.1.2-.2v-2.9h.5v3.8h-.6zM206.5 14.1c.1.2.3.3.5.4.2.1.4.2.6.2.2 0 .5-.1.6-.2.1-.1.2-.3.2-.4 0-.1-.1-.3-.2-.4-.1-.1-.3-.2-.4-.2-.2-.1-.3-.1-.5-.2-.2 0-.4-.1-.5-.2-.2-.1-.3-.2-.4-.3-.1-.2-.2-.4-.1-.6 0-.3.1-.6.4-.8.3-.2.6-.3.9-.3.1 0 .3 0 .4.1.1 0 .3.1.4.1.1.1.2.1.3.2.1.1.2.2.2.3l-.4.3c-.1-.2-.3-.3-.4-.4-.2-.1-.4-.1-.5-.1-.2 0-.4 0-.5.2-.1.1-.2.3-.2.4 0 .1.1.3.2.3.1.1.3.2.4.2.2.1.3.1.5.2s.4.1.5.2c.2.1.3.2.4.4.1.2.2.4.2.6 0 .2 0 .3-.1.5-.1.1-.2.3-.3.3-.1.1-.3.2-.4.2-.2 0-.3.1-.5.1-.3 0-.6-.1-.9-.2-.3-.1-.5-.3-.7-.5l.3-.4zM210.4 9.8v2c.1-.2.3-.3.5-.4.2-.1.4-.2.6-.2.1 0 .3 0 .4.1.1 0 .3.1.4.2.1.1.2.2.2.3.1.2.1.3.1.5v2.8h-.5v-2.8c0-.2 0-.4-.2-.5-.1-.1-.3-.2-.5-.1-.1 0-.2 0-.3.1-.1 0-.2.1-.3.1-.1.1-.2.1-.3.2-.1.1-.2.1-.2.2v2.9h-.5V9.8h.6zM216.7 13.2c0 .3 0 .5-.1.8l-.3.6c-.1.2-.3.3-.5.4-.4.2-.9.2-1.4 0-.2-.1-.4-.2-.5-.4l-.3-.6c-.1-.5-.1-1 0-1.6l.3-.6c.1-.2.3-.3.5-.4.4-.2.9-.2 1.4 0 .2.1.4.2.5.4l.3.6c.1.3.1.5.1.8zm-.5 0c0-.4-.1-.8-.3-1.1-.3-.4-.9-.5-1.3-.2-.1.1-.2.1-.2.2-.4.7-.4 1.6 0 2.3.3.4.9.5 1.3.2.1-.1.2-.1.2-.2.2-.4.3-.8.3-1.2zM219.9 15.1v-.5c-.1.2-.3.3-.5.4-.2.1-.4.2-.6.2-.1 0-.3 0-.4-.1-.1 0-.3-.1-.4-.2-.1-.1-.2-.2-.2-.3-.1-.2-.1-.3-.1-.5v-2.8h.5V14c0 .2 0 .4.2.5.1.1.3.2.5.1.1 0 .2 0 .3-.1.1 0 .2-.1.3-.1.1-.1.2-.1.3-.2.1-.1.2-.1.2-.2v-2.9h.5v3.8h-.6zM222.3 9.8v5.3h-.5V9.8h.5zM226.5 9.8V15.1h-.5l-.1-.4c-.1.1-.2.2-.4.3-.2.1-.4.1-.6.1-.2 0-.4 0-.5-.1-.2-.1-.4-.2-.5-.3-.2-.2-.3-.4-.4-.6-.1-.3-.2-.6-.2-1 0-.3 0-.6.2-.9.1-.2.2-.4.4-.6.1-.1.3-.3.5-.3.2-.1.3-.1.5-.1s.4 0 .5.1c.2.1.3.2.5.3V9.8h.6zm-.5 2.4c-.1-.2-.3-.3-.5-.4-.1-.1-.3-.1-.5-.1-.1 0-.3 0-.4.1-.1.1-.3.1-.3.3-.1.1-.2.3-.2.5-.1.2-.1.5-.1.7 0 .4.1.8.3 1.1.2.3.5.4.8.4.2 0 .3 0 .5-.1s.3-.2.5-.4l-.1-2.1zM228.5 14.1c.1.2.3.3.5.4.2.1.4.2.6.2.2 0 .5-.1.6-.2.1-.1.2-.3.2-.4 0-.1-.1-.3-.2-.4-.1-.1-.3-.2-.4-.2-.2-.1-.3-.1-.5-.2-.2 0-.4-.1-.5-.2-.2-.1-.3-.2-.4-.3-.1-.2-.2-.4-.1-.6 0-.3.1-.6.4-.8.3-.2.6-.3.9-.3.1 0 .3 0 .4.1.1 0 .3.1.4.1.1.1.2.1.3.2.1.1.2.2.2.3l-.4.3c-.1-.2-.3-.3-.4-.4-.2-.1-.4-.1-.5-.1-.2 0-.4 0-.5.2-.1.1-.2.3-.2.4 0 .1.1.3.2.3.1.1.3.2.4.2.2.1.3.1.5.2s.4.1.5.2c.2.1.3.2.4.4.1.2.2.4.2.6 0 .2 0 .3-.1.5-.1.1-.2.3-.3.3-.1.1-.3.2-.4.2-.2 0-.3.1-.5.1-.3 0-.6-.1-.9-.2-.3-.1-.5-.3-.7-.5l.3-.4zM234.7 14.3c-.1.1-.1.2-.2.3l-.3.3c-.1.1-.3.2-.4.2-.2.1-.4.1-.6.1-.2 0-.4 0-.6-.1-.2-.1-.4-.2-.5-.4-.2-.2-.3-.4-.4-.6-.1-.3-.1-.6-.1-.9 0-.3 0-.6.1-.8l.3-.6c.1-.2.3-.3.5-.4.2-.1.4-.1.6-.1.2 0 .4 0 .6.1.2.1.3.2.5.3.1.2.2.3.3.5.1.3.1.5.1.8v.4h-2.5c0 .2 0 .4.1.6.1.2.1.3.2.4.1.1.2.2.4.3.1.1.3.1.4.1.2 0 .4-.1.6-.2.2-.1.3-.3.4-.5l.5.2zm-.7-1.5c0-.3-.1-.6-.2-.9-.2-.2-.4-.3-.7-.3-.3 0-.6.1-.7.3-.2.2-.3.5-.3.9h1.9zM238.5 14.3c-.1.1-.1.2-.2.3l-.3.3c-.1.1-.3.2-.4.2-.2.1-.4.1-.6.1-.2 0-.4 0-.6-.1-.2-.1-.4-.2-.5-.4-.2-.2-.3-.4-.4-.6-.1-.3-.1-.6-.1-.9 0-.3 0-.6.1-.8l.3-.6c.1-.2.3-.3.5-.4.2-.1.4-.1.6-.1.2 0 .4 0 .6.1.2.1.3.2.5.3.1.2.2.3.3.5.1.3.1.5.1.8v.4h-2.5c0 .2 0 .4.1.6.1.2.1.3.2.4.1.1.2.2.4.3.1.1.3.1.4.1.2 0 .4-.1.6-.2.2-.1.3-.3.4-.5l.5.2zm-.7-1.5c0-.3-.1-.6-.2-.9-.2-.2-.4-.3-.7-.3-.3 0-.6.1-.7.3-.2.2-.3.5-.3.9h1.9zM239.4 9.8h.5v3.4l1.5-1.9h.6l-1.1 1.4 1.3 2.4h-.6l-1-2-.7.8V15h-.5V9.8zM243.7 14.1c.1.2.3.3.5.4.2.1.4.2.6.2.2 0 .5-.1.6-.2.1-.1.2-.3.2-.4 0-.1-.1-.3-.2-.4-.1-.1-.3-.2-.4-.2-.2-.1-.3-.1-.5-.2-.2 0-.4-.1-.5-.2-.2-.1-.3-.2-.4-.3-.1-.2-.2-.4-.1-.6 0-.3.1-.6.4-.8.3-.2.6-.3.9-.3.1 0 .3 0 .4.1.1 0 .3.1.4.1.1.1.2.1.3.2.1.1.2.2.2.3l-.4.3c-.1-.2-.3-.3-.4-.4-.2-.1-.4-.1-.5-.1-.2 0-.4 0-.5.2-.1.1-.2.3-.2.4 0 .1.1.3.2.3.1.1.3.2.4.2.2.1.3.1.5.2s.4.1.5.2c.2.1.3.2.4.4.1.2.2.4.2.6 0 .2 0 .3-.1.5-.1.1-.2.3-.3.3-.1.1-.3.2-.4.2-.2 0-.3.1-.5.1-.3 0-.6-.1-.9-.2-.3-.1-.5-.3-.7-.5l.3-.4zM247.1 16.5v-5.2h.5v.4l.2-.2c.1-.1.2-.1.2-.2.1 0 .2-.1.3-.1h.3c.2 0 .4 0 .5.1.2.1.4.2.5.3.2.2.3.4.4.6.1.3.2.6.2 1 0 .3 0 .6-.2.9-.1.2-.2.4-.4.6-.1.1-.3.3-.5.3-.2.1-.3.1-.5.1s-.4 0-.5-.1c-.2-.1-.3-.2-.5-.3v1.8h-.5zm.5-2.3c.1.2.3.3.5.4.1.1.3.1.5.1.1 0 .3 0 .4-.1.1-.1.3-.1.3-.3.1-.1.2-.3.2-.5.1-.2.1-.5.1-.7 0-.4-.1-.8-.3-1.1-.2-.3-.5-.4-.8-.4-.2 0-.3 0-.5.1s-.3.2-.5.4l.1 2.1zM254.1 14.3c-.1.1-.1.2-.2.3l-.3.3c-.1.1-.3.2-.4.2-.2.1-.4.1-.6.1-.2 0-.4 0-.6-.1-.2-.1-.4-.2-.5-.4-.2-.2-.3-.4-.4-.6-.1-.3-.1-.6-.1-.9 0-.3 0-.6.1-.8l.3-.6c.1-.2.3-.3.5-.4.2-.1.4-.1.6-.1.2 0 .4 0 .6.1.2.1.3.2.5.3.1.2.2.3.3.5.1.3.1.5.1.8v.4h-2.5c0 .2 0 .4.1.6.1.2.1.3.2.4.1.1.2.2.4.3.1.1.3.1.4.1.2 0 .4-.1.6-.2.2-.1.3-.3.4-.5l.5.2zm-.7-1.5c0-.3-.1-.6-.2-.9-.2-.2-.4-.3-.7-.3-.3 0-.6.1-.7.3-.2.2-.3.5-.3.9h1.9zM257.2 12.4l-.3-.6c-.2-.1-.4-.2-.6-.2-.3 0-.6.1-.8.4-.4.7-.4 1.6 0 2.3.2.3.5.4.8.4h.3c.1 0 .2-.1.3-.1.1-.1.2-.1.2-.2.1-.1.2-.2.2-.3l.4.2c-.1.1-.2.3-.3.4l-.3.3c-.1.1-.2.1-.4.2-.2 0-.3.1-.5.1s-.4 0-.7-.1c-.2-.1-.4-.2-.5-.4l-.3-.6c-.1-.5-.1-1.1 0-1.7l.3-.6c.1-.2.3-.3.5-.4.2-.1.4-.1.7-.1.2 0 .3 0 .5.1.1 0 .3.1.4.2l.3.3c.1.1.2.3.2.4h-.4zM259.3 9.7v.6h-.5v-.6h.5zm-.5 1.6h.5v3.8h-.5v-3.8zM260.4 12c.1-.2.3-.4.5-.6.3-.2.6-.3.9-.2.2 0 .3 0 .5.1.2 0 .3.1.4.2.1.1.2.2.3.4.1.2.1.3.1.5v2.4c0 .1 0 .2.1.3h-.5l-.1-.5c-.2.2-.3.3-.5.4-.2.1-.5.2-.8.2-.1 0-.3 0-.4-.1-.3-.1-.5-.3-.6-.5-.1-.1-.1-.3-.1-.5 0-.4.2-.8.5-1 .2-.1.5-.3.7-.3.4-.1.7-.2 1.1-.3v-.2c0-.2-.1-.4-.2-.5-.2-.1-.4-.2-.6-.2-.1 0-.3 0-.4.1-.1 0-.2.1-.3.1l-.2.2c0 .1-.1.1-.1.2l-.3-.2zm2.3 1c-1.2.2-1.8.6-1.8 1.1 0 .1 0 .2.1.2 0 .1.1.1.1.2.1.1.1.1.2.1h.5c.1 0 .2-.1.3-.1.1-.1.2-.1.3-.2.1-.1.2-.2.3-.2V13zM264.9 9.8v5.3h-.5V9.8h.5zM266.8 9.7v.6h-.5v-.6h.5zm-.5 1.6h.5v3.8h-.5v-3.8zM268.2 14.1c.1.2.3.3.5.4.2.1.4.2.6.2.2 0 .5-.1.6-.2.1-.1.2-.3.2-.4 0-.1-.1-.3-.2-.4-.1-.1-.3-.2-.4-.2-.2-.1-.3-.1-.5-.2-.2 0-.4-.1-.5-.2-.2-.1-.3-.2-.4-.3-.1-.2-.2-.4-.1-.6 0-.3.1-.6.4-.8.3-.2.6-.3.9-.3.1 0 .3 0 .4.1.1 0 .3.1.4.1.1.1.2.1.3.2.1.1.2.2.2.3l-.4.3c-.1-.2-.3-.3-.4-.4-.2-.1-.4-.1-.5-.1-.2 0-.4 0-.5.2-.1.1-.2.3-.2.4 0 .1.1.3.2.3.1.1.3.2.4.2.2.1.3.1.5.2s.4.1.5.2c.2.1.3.2.4.4.1.2.2.4.2.6 0 .2 0 .3-.1.5-.1.1-.2.3-.3.3-.1.1-.3.2-.4.2-.2 0-.3.1-.5.1-.3 0-.6-.1-.9-.2-.3-.1-.5-.3-.7-.5l.3-.4zM271.7 11.3V10h.5v1.3h.9v.5h-.9v2.7c0 .1 0 .2.1.2.1.1.2.1.3.1h.4v.4H272.4c-.2 0-.4 0-.6-.1-.1-.1-.2-.3-.2-.5v-2.8h-.6v-.5h.7zM274.9 11.3V10h.5v1.3h.9v.5h-.9v2.7c0 .1 0 .2.1.2.1.1.2.1.3.1h.4v.4H275.6c-.2 0-.4 0-.6-.1-.1-.1-.2-.3-.2-.5v-2.8h-.6v-.5h.7zM277.1 12c.1-.2.3-.4.5-.6.3-.2.6-.3.9-.2.2 0 .3 0 .5.1.2 0 .3.1.4.2.1.1.2.2.3.4.1.2.1.3.1.5v2.4c0 .1 0 .2.1.3h-.5l-.1-.5c-.2.2-.3.3-.5.4-.2.1-.5.2-.8.2-.1 0-.3 0-.4-.1-.3-.1-.5-.3-.6-.5-.1-.1-.1-.3-.1-.5 0-.4.2-.8.5-1 .2-.1.5-.3.7-.3.4-.1.7-.2 1.1-.3v-.2c0-.2-.1-.4-.2-.5-.2-.1-.4-.2-.6-.2-.1 0-.3 0-.4.1-.1 0-.2.1-.3.1l-.2.2c0 .1-.1.1-.1.2l-.3-.2zm2.3 1c-1.2.2-1.8.6-1.8 1.1 0 .1 0 .2.1.2 0 .1.1.1.1.2.1.1.1.1.2.1h.5c.1 0 .2-.1.3-.1.1-.1.2-.1.3-.2.1-.1.2-.2.3-.2V13zM282.2 12.6l.8-1.4h.6l-1.1 1.8 1.2 2h-.6l-1-1.6-.9 1.6h-.6l1.2-2-1.1-1.8h.6l.9 1.4zM4.5 21.7c.1-.2.3-.4.5-.6.3-.2.6-.3.9-.2.2 0 .3 0 .5.1.2 0 .3.1.4.2.1.1.2.2.3.4.1.2.1.3.1.5v2.4c0 .1 0 .2.1.3h-.5l-.1-.5c-.2.2-.3.3-.5.4-.2.1-.5.2-.8.2-.1 0-.3 0-.4-.1-.3-.1-.5-.3-.6-.5-.1-.1-.1-.3-.1-.5 0-.4.2-.8.5-1 .2-.1.5-.3.7-.3.4-.1.7-.2 1.1-.3V22c0-.2-.1-.4-.2-.5-.2-.1-.4-.2-.6-.2-.1 0-.3 0-.4.1-.1 0-.2.1-.3.1l-.2.2c.1.1.1.2 0 .3l-.4-.3zm2.2 1.1c-1.2.2-1.8.6-1.8 1.1 0 .1 0 .2.1.2 0 .1.1.1.1.2.1.1.1.1.2.1h.5c.1 0 .2-.1.3-.1.1-.1.2-.1.3-.2.1-.1.2-.2.3-.2v-1.1zM8.9 21v.5c.1-.2.3-.3.5-.4.2-.1.4-.2.6-.2.1 0 .3 0 .4.1.1 0 .3.1.4.2.1.1.2.2.2.3.1.2.1.3.1.5v2.8h-.5V22c0-.2 0-.4-.2-.5-.1-.1-.3-.2-.5-.1-.1 0-.2 0-.3.1-.1 0-.2.1-.3.1-.1.1-.2.1-.3.2.1 0 0 .1-.1.2v2.9h-.5V21h.5zM15.3 19.5V24.8h-.5l-.1-.4c-.1.1-.2.2-.4.3-.2.1-.4.1-.6.1-.2 0-.4 0-.5-.1-.2-.1-.4-.2-.5-.3-.2-.2-.3-.4-.4-.6-.1-.3-.2-.6-.2-1 0-.3 0-.6.2-.9.1-.2.2-.4.4-.6.1-.1.3-.3.5-.3.2-.1.3-.1.5-.1s.4 0 .5.1c.2.1.3.2.5.3v-1.9h.6zm-.5 2.4c-.1-.2-.3-.3-.5-.4-.1-.1-.3-.1-.5-.1-.1 0-.3 0-.4.1-.1.1-.3.1-.3.3-.1.1-.2.3-.2.5-.1.2-.1.5-.1.7 0 .4.1.8.3 1.1.2.3.5.4.8.4.2 0 .3 0 .5-.1s.3-.2.5-.4l-.1-2.1zM17.5 21.7c.1-.2.3-.4.5-.6.3-.2.6-.3.9-.2.2 0 .3 0 .5.1.2 0 .3.1.4.2.1.1.2.2.3.4.1.2.1.3.1.5v2.4c0 .1 0 .2.1.3h-.5l-.1-.5c-.2.2-.3.3-.5.4-.2.1-.5.2-.8.2-.1 0-.3 0-.4-.1-.3-.1-.5-.3-.6-.5-.1-.1-.1-.3-.1-.5 0-.4.2-.8.5-1 .2-.1.5-.3.7-.3.4-.1.7-.2 1.1-.3V22c0-.2-.1-.4-.2-.5-.2-.1-.4-.2-.6-.2-.1 0-.3 0-.4.1-.1 0-.2.1-.3.1l-.2.2c0 .1-.1.1-.1.2l-.3-.2zm2.3 1.1c-1.2.2-1.8.6-1.8 1.1 0 .1 0 .2.1.2 0 .1.1.1.1.2.1.1.1.1.2.1h.5c.1 0 .2-.1.3-.1.1-.1.2-.1.3-.2.1-.1.2-.2.3-.2v-1.1zM23.6 22.1l-.3-.6c-.2-.1-.4-.2-.6-.2-.3 0-.6.1-.8.4-.4.7-.4 1.6 0 2.3.2.3.5.4.8.4h.3c.1 0 .2-.1.3-.1.1-.1.2-.1.2-.2.1-.1.2-.2.2-.3l.4.2c-.1.1-.2.3-.3.4l-.3.3c-.1.1-.2.1-.4.2-.2 0-.3.1-.5.1s-.4 0-.7-.1c-.2-.1-.4-.2-.5-.4l-.3-.6c-.1-.5-.1-1.1 0-1.7l.3-.6c.1-.2.3-.3.5-.4.2-.1.4-.1.7-.1.2 0 .3 0 .5.1.1 0 .3.1.4.2l.3.3c.1.1.2.3.2.4h-.4zM27.4 22.1l-.3-.6c-.2-.1-.4-.2-.6-.2-.3 0-.6.1-.8.4-.4.7-.4 1.6 0 2.3.2.3.5.4.8.4h.3c.1 0 .2-.1.3-.1.1-.1.2-.1.2-.2.1-.1.2-.2.2-.3l.4.2c-.1.1-.2.3-.3.4l-.3.3c-.1.1-.2.1-.4.2-.2 0-.3.1-.5.1s-.4 0-.7-.1c-.2-.1-.4-.2-.5-.4l-.3-.6c-.1-.5-.1-1.1 0-1.7l.3-.6c.1-.2.3-.3.5-.4.2-.1.4-.1.7-.1.2 0 .3 0 .5.1.1 0 .3.1.4.2l.3.3c.1.1.2.3.2.4h-.4zM31.7 22.9c0 .3 0 .5-.1.8l-.3.6c-.1.2-.3.3-.5.4-.4.2-.9.2-1.4 0-.2-.1-.4-.2-.5-.4l-.3-.6c-.1-.5-.1-1 0-1.6l.3-.6c.1-.2.3-.3.5-.4.4-.2.9-.2 1.4 0 .2.1.4.2.5.4l.3.6c.1.3.1.5.1.8zm-.5 0c0-.4-.1-.8-.3-1.1-.3-.4-.9-.5-1.3-.2-.1.1-.2.1-.2.2-.4.7-.4 1.6 0 2.3.3.4.9.5 1.3.2.1-.1.2-.1.2-.2.2-.4.3-.8.3-1.2zM34.9 24.8v-.5c-.1.2-.3.3-.5.4-.2.1-.4.2-.6.2-.1 0-.3 0-.4-.1-.1 0-.3-.1-.4-.2-.1-.1-.2-.2-.2-.3-.1-.2-.1-.3-.1-.5V21h.5v2.8c0 .2 0 .4.2.5.1.1.3.2.5.1.1 0 .2 0 .3-.1.1 0 .2-.1.3-.1.1-.1.2-.1.3-.2.1-.1.2-.1.2-.2V21h.5v3.8h-.6zM37.3 21v.5c.1-.2.3-.3.5-.4.2-.1.4-.2.6-.2.1 0 .3 0 .4.1.1 0 .3.1.4.2.1.1.2.2.2.3.1.2.1.3.1.5v2.8H39V22c0-.2 0-.4-.2-.5-.1-.1-.3-.2-.5-.1-.1 0-.2 0-.3.1-.1 0-.2.1-.3.1-.1.1-.2.1-.3.2-.1.1-.2.1-.2.2v2.9h-.5V21h.6zM40.9 21v-1.3h.5V21h.9v.5h-.9v2.7c0 .1 0 .2.1.2.1.1.2.1.3.1h.4v.4H41.6c-.2 0-.4 0-.6-.1-.1-.1-.2-.3-.2-.5v-2.8h-.6V21h.7zM43.8 19.4v.6h-.5v-.6h.5zm-.5 1.6h.5v3.8h-.5V21zM45.7 21v.5c.1-.2.3-.3.5-.4.2-.1.4-.2.6-.2.1 0 .3 0 .4.1.1 0 .3.1.4.2.1.1.2.2.2.3.1.2.1.3.1.5v2.8h-.5V22c0-.2 0-.4-.2-.5-.1-.1-.3-.2-.5-.1-.1 0-.2 0-.3.1-.1 0-.2.1-.3.1-.1.1-.2.1-.3.2-.1.1-.2.1-.2.2v2.9h-.5V21h.6zM52.2 21.4h-.3c-.1 0-.2 0-.3.1.1.1.1.2.2.3.1.1.1.3.1.5s0 .4-.1.5c-.1.3-.4.6-.7.7-.2.1-.4.1-.5.1h-.4c-.1 0-.2 0-.3-.1-.2 0-.3.2-.3.4 0 .1 0 .2.1.2.1.1.1.1.2.1.4 0 .8 0 1.1.1.3 0 .5.1.7.2.2.1.3.2.4.3.1.1.1.3.1.5 0 .1 0 .3-.1.4l-.3.3c-.2.1-.3.2-.5.2-.3.1-.5.1-.8.1-.4 0-.8-.1-1.2-.2-.3-.1-.4-.4-.4-.7 0-.2.1-.3.2-.5.1-.1.3-.2.5-.3-.1 0-.3-.1-.3-.2-.1-.1-.1-.2-.1-.3 0-.1 0-.3.1-.4.1-.1.2-.2.4-.3-.2-.1-.3-.3-.4-.5-.1-.2-.1-.4-.1-.6 0-.2 0-.4.1-.5.1-.2.2-.3.3-.4.1-.1.3-.2.5-.3.2-.1.4-.1.6-.1.2 0 .4 0 .5.1.1 0 .3.1.4.2.1-.1.3-.2.4-.2.1-.1.3-.1.4-.1l-.2.4zm-.5 3.8c0-.2-.1-.4-.3-.4-.3-.1-.7-.2-1-.1-.2 0-.3 0-.5.1-.1 0-.2.1-.3.2l-.2.2c0 .1 0 .1-.1.2v.2c0 .1.1.1.2.2s.2.1.4.1h1c.1 0 .3-.1.4-.1.1 0 .2-.1.2-.2.1-.2.2-.3.2-.4zm-.4-2.9c0-.2-.1-.5-.2-.7-.2-.2-.5-.3-.7-.2-.5 0-.9.3-.9.8v.1c0 .2.1.5.3.6.2.2.5.3.7.3.1 0 .3 0 .4-.1.1 0 .2-.1.3-.2.1-.1.1-.2.2-.3-.1-.1-.1-.2-.1-.3zM53.9 21.7c.1-.2.3-.4.5-.6.3-.2.6-.3.9-.2.2 0 .3 0 .5.1.2 0 .3.1.4.2.1.1.2.2.3.4.1.2.1.3.1.5v2.4c0 .1 0 .2.1.3h-.5l-.1-.5c-.2.2-.3.3-.5.4-.2.1-.5.2-.8.2-.1 0-.3 0-.4-.1-.3-.1-.5-.3-.6-.5-.1-.1-.1-.3-.1-.5 0-.4.2-.8.5-1 .2-.1.5-.3.7-.3.4-.1.7-.2 1.1-.3V22c0-.2-.1-.4-.2-.5-.2-.1-.4-.2-.6-.2-.1 0-.3 0-.4.1-.1 0-.2.1-.3.1l-.2.2c0 .1-.1.1-.1.2l-.3-.2zm2.2 1.1c-1.2.2-1.8.6-1.8 1.1 0 .1 0 .2.1.2 0 .1.1.1.1.2.1.1.1.1.2.1h.5c.1 0 .2-.1.3-.1.1-.1.2-.1.3-.2.1-.1.2-.2.3-.2v-1.1zM60.6 19.5V24.8h-.5l-.1-.4c-.1.1-.2.2-.4.3-.2.1-.4.1-.6.1-.2 0-.4 0-.5-.1-.2-.1-.4-.2-.5-.3-.2-.2-.3-.4-.4-.6-.1-.3-.2-.6-.2-1 0-.3 0-.6.2-.9.1-.2.2-.4.4-.6.1-.1.3-.3.5-.3.2-.1.3-.1.5-.1s.4 0 .5.1c.2.1.3.2.5.3v-1.9h.6zm-.5 2.4c-.1-.2-.3-.3-.5-.4-.1-.1-.3-.1-.5-.1-.1 0-.3 0-.4.1-.1.1-.3.1-.3.3-.1.1-.2.3-.2.5-.1.2-.1.5-.1.7 0 .4.1.8.3 1.1.2.3.5.4.8.4.2 0 .3 0 .5-.1s.3-.2.5-.4l-.1-2.1zM63.3 24.8h-.7L61.5 21h.5l1 3.2 1-3.2h.5l-1.2 3.8zM65.9 19.4v.6h-.5v-.6h.5zm-.5 1.6h.5v3.8h-.5V21zM69.4 22.1l-.3-.6c-.2-.1-.4-.2-.6-.2-.3 0-.6.1-.8.4-.4.7-.4 1.6 0 2.3.2.3.5.4.8.4h.3c.1 0 .2-.1.3-.1.1-.1.2-.1.2-.2.1-.1.2-.2.2-.3l.4.2c-.1.1-.2.3-.3.4l-.3.3c-.1.1-.2.1-.4.2-.2 0-.3.1-.5.1s-.4 0-.7-.1c-.2-.1-.4-.2-.5-.4l-.3-.6c-.1-.5-.1-1.1 0-1.7l.3-.6c.1-.2.3-.3.5-.4.2-.1.4-.1.7-.1.2 0 .3 0 .5.1.1 0 .3.1.4.2l.3.3c.1.1.2.3.2.4h-.4zM73.8 24c-.1.1-.1.2-.2.3l-.3.3c-.1.1-.3.2-.4.2-.2.1-.4.1-.6.1-.2 0-.4 0-.6-.1-.2-.1-.4-.2-.5-.4-.2-.2-.3-.4-.4-.6-.1-.3-.1-.6-.1-.9 0-.3 0-.6.1-.8l.3-.6c.1-.2.3-.3.5-.4.2-.1.4-.1.6-.1.2 0 .4 0 .6.1.2.1.3.2.5.3.1.2.2.3.3.5.1.3.1.5.1.8v.3h-2.5c0 .2 0 .4.1.6.1.2.1.3.2.4.1.1.2.2.4.3.1.1.3.1.4.1.2 0 .4-.1.6-.2.2-.1.3-.3.4-.5l.5.3zm-.7-1.4c0-.3-.1-.6-.2-.9-.2-.2-.4-.3-.7-.3-.3 0-.6.1-.7.3-.2.2-.3.5-.3.9h1.9zM76 21v-1.3h.5V21h.9v.5h-.9v2.7c0 .1 0 .2.1.2.1.1.2.1.3.1h.4v.4H76.7c-.2 0-.4 0-.6-.1-.1-.1-.2-.3-.2-.5v-2.8h-.6V21h.7zM81.1 22.9c0 .3 0 .5-.1.8l-.3.6c-.1.2-.3.3-.5.4-.4.2-.9.2-1.4 0-.2-.1-.4-.2-.5-.4l-.3-.6c-.1-.5-.1-1 0-1.6l.3-.6c.1-.2.3-.3.5-.4.4-.2.9-.2 1.4 0 .2.1.4.2.5.4l.3.6c0 .3.1.5.1.8zm-.6 0c0-.4-.1-.8-.3-1.1-.3-.4-.9-.5-1.3-.2-.1.1-.2.1-.2.2-.4.7-.4 1.6 0 2.3.3.4.9.5 1.3.2.1-.1.2-.1.2-.2.3-.4.4-.8.3-1.2zM82.9 21.7c.1-.2.3-.4.5-.6.3-.2.6-.3.9-.2.2 0 .3 0 .5.1.2 0 .3.1.4.2.1.1.2.2.3.4.1.2.1.3.1.5v2.4c0 .1 0 .2.1.3h-.5l-.1-.5c-.2.2-.3.3-.5.4-.2.1-.5.2-.8.2-.1 0-.3 0-.4-.1-.3-.1-.5-.3-.6-.5-.1-.1-.1-.3-.1-.5 0-.4.2-.8.5-1 .2-.1.5-.3.7-.3.4-.1.7-.2 1.1-.3V22c0-.2-.1-.4-.2-.5-.2-.1-.4-.2-.6-.2-.1 0-.3 0-.4.1-.1 0-.2.1-.3.1l-.2.2c0 .1-.1.1-.1.2l-.3-.2zm2.3 1.1c-1.2.2-1.8.6-1.8 1.1 0 .1 0 .2.1.2 0 .1.1.1.1.2.1.1.1.1.2.1h.5c.1 0 .2-.1.3-.1.1-.1.2-.1.3-.2.1-.1.2-.2.3-.2v-1.1zM86.9 23.9c.1.2.3.3.5.4.2.1.4.2.6.2.2 0 .5-.1.6-.2.1-.1.2-.3.2-.4 0-.1-.1-.3-.2-.4-.1-.1-.3-.2-.4-.2-.2-.1-.3-.1-.5-.2-.2 0-.4-.1-.5-.2-.2-.1-.3-.2-.4-.3-.1-.2-.2-.4-.1-.6 0-.3.1-.6.4-.8.3-.2.6-.3.9-.3.1 0 .3 0 .4.1.1 0 .3.1.4.1.1.1.2.1.3.2.1.1.2.2.2.3l-.4.3c-.1-.2-.3-.3-.4-.4-.2-.1-.4-.1-.5-.1-.2 0-.4 0-.5.2-.1.1-.2.3-.2.4 0 .1.1.3.2.3.1.1.3.2.4.2.2.1.3.1.5.2s.4.1.5.2c.2.1.3.2.4.4.1.2.2.4.2.6 0 .2 0 .3-.1.5-.1.1-.2.3-.3.3-.1.1-.3.2-.4.2-.2 0-.3.1-.5.1-.3 0-.6-.1-.9-.2-.3-.1-.5-.3-.7-.5l.3-.4zM92.4 22.1l-.3-.6c-.2-.1-.4-.2-.6-.2-.3 0-.6.1-.8.4-.4.7-.4 1.6 0 2.3.2.3.5.4.8.4h.3c.1 0 .2-.1.3-.1.1-.1.2-.1.2-.2.1-.1.2-.2.2-.3l.4.2c-.1.1-.2.3-.3.4l-.3.3c-.1.1-.2.1-.4.2-.2 0-.3.1-.5.1s-.4 0-.7-.1c-.2-.1-.4-.2-.5-.4l-.3-.6c-.1-.5-.1-1.1 0-1.7l.3-.6c.1-.2.3-.3.5-.4.2-.1.4-.1.7-.1.2 0 .3 0 .5.1.1 0 .3.1.4.2l.3.3c.1.1.2.3.2.4h-.4zM96.8 24c-.1.1-.1.2-.2.3l-.3.3c-.1.1-.3.2-.4.2-.2.1-.4.1-.6.1-.2 0-.4 0-.6-.1-.2-.1-.4-.2-.5-.4-.2-.2-.3-.4-.4-.6-.1-.3-.1-.6-.1-.9 0-.3 0-.6.1-.8l.3-.6c.1-.2.3-.3.5-.4.2-.1.4-.1.6-.1.2 0 .4 0 .6.1.2.1.3.2.5.3.1.2.2.3.3.5.1.3.1.5.1.8v.3h-2.5c0 .2 0 .4.1.6.1.2.1.3.2.4.1.1.2.2.4.3.1.1.3.1.4.1.2 0 .4-.1.6-.2.2-.1.3-.3.4-.5l.5.3zm-.6-1.4c0-.3-.1-.6-.2-.9-.2-.2-.4-.3-.7-.3-.3 0-.6.1-.7.3-.2.2-.3.5-.3.9h1.9zM97.7 21h.5v.8c.1-.1.1-.2.2-.3l.3-.3c.1-.1.2-.1.3-.2.1 0 .3-.1.4-.1v.5c-.3 0-.6.1-.8.3-.2.3-.4.6-.5.9v2.1h-.5l.1-3.7zM100.6 21v-1.3h.5V21h.9v.5h-.9v2.7c0 .1 0 .2.1.2.1.1.2.1.3.1h.4v.4H101.3c-.2 0-.4 0-.6-.1-.1-.1-.2-.3-.2-.5v-2.8h-.5V21h.6zM102.8 21.7c.1-.2.3-.4.5-.6.3-.2.6-.3.9-.2.2 0 .3 0 .5.1.2 0 .3.1.4.2.1.1.2.2.3.4.1.2.1.3.1.5v2.4c0 .1 0 .2.1.3h-.5l-.1-.5c-.2.2-.3.3-.5.4-.2.1-.5.2-.8.2-.1 0-.3 0-.4-.1-.3-.1-.5-.3-.6-.5-.1-.1-.1-.3-.1-.5 0-.4.2-.8.5-1 .2-.1.5-.3.7-.3.4-.1.7-.2 1.1-.3V22c0-.2-.1-.4-.2-.5-.2-.1-.4-.2-.6-.2-.1 0-.3 0-.4.1-.1 0-.2.1-.3.1l-.2.2c0 .1-.1.1-.1.2l-.3-.2zm2.2 1.1c-1.2.2-1.8.6-1.8 1.1 0 .1 0 .2.1.2 0 .1.1.1.1.2.1.1.1.1.2.1h.5c.1 0 .2-.1.3-.1.1-.1.2-.1.3-.2.1-.1.2-.2.3-.2v-1.1zM107.3 19.4v.6h-.5v-.6h.5zm-.5 1.6h.5v3.8h-.5V21zM109.2 21v.5c.1-.2.3-.3.5-.4.2-.1.4-.2.6-.2.1 0 .3 0 .4.1.1 0 .3.1.4.2.1.1.2.2.2.3.1.2.1.3.1.5v2.8h-.5V22c0-.2 0-.4-.2-.5-.1-.1-.3-.2-.5-.1-.1 0-.2 0-.3.1-.1 0-.2.1-.3.1-.1.1-.2.1-.3.2-.1.1-.2.1-.2.2v2.9h-.5V21h.6zM116.4 21l-1.3 4.2c-.1.2-.1.4-.2.5l-.3.3c-.1.1-.2.1-.4.2h-.8v-.4H114c.1 0 .2-.1.3-.1l.3-.3c.1-.2.2-.3.2-.5l-1.3-3.9h.6l1 2.9.9-2.9h.4zM119.9 22.9c0 .3 0 .5-.1.8l-.3.6c-.1.2-.3.3-.5.4-.4.2-.9.2-1.4 0-.2-.1-.4-.2-.5-.4l-.3-.6c-.1-.5-.1-1 0-1.6l.3-.6c.1-.2.3-.3.5-.4.4-.2.9-.2 1.4 0 .2.1.4.2.5.4l.3.6c.1.3.1.5.1.8zm-.5 0c0-.4-.1-.8-.3-1.1-.3-.4-.9-.5-1.3-.2-.1.1-.2.1-.2.2-.4.7-.4 1.6 0 2.3.3.4.9.5 1.3.2.1-.1.2-.1.2-.2.2-.4.3-.8.3-1.2zM123.2 24.8v-.5c-.1.2-.3.3-.5.4-.2.1-.4.2-.6.2-.1 0-.3 0-.4-.1-.1 0-.3-.1-.4-.2-.1-.1-.2-.2-.2-.3-.1-.2-.1-.3-.1-.5V21h.5v2.8c0 .2 0 .4.2.5.1.1.3.2.5.1.1 0 .2 0 .3-.1.1 0 .2-.1.3-.1.1-.1.2-.1.3-.2.1-.1.2-.1.2-.2V21h.5v3.8h-.6zM124.9 21h.5v.8c.1-.1.1-.2.2-.3l.3-.3c.1-.1.2-.1.3-.2.1 0 .3-.1.4-.1v.5c-.3 0-.6.1-.8.3-.2.3-.4.6-.5.9v2.1h-.5V21zM129.1 19.5v1.9c.1-.1.3-.2.5-.3.2-.1.3-.1.5-.1s.4 0 .5.1c.2.1.4.2.5.3.2.2.3.4.4.6.1.3.2.6.2.9 0 .3 0 .7-.2 1-.1.2-.2.4-.4.6-.1.1-.3.3-.5.3-.2.1-.3.1-.5.1s-.4 0-.6-.1c-.2-.1-.3-.2-.5-.3l-.1.4h-.4v-.4-4.9h.6zm0 4.4c.1.2.3.3.5.4.4.2 1 .1 1.3-.3.2-.3.3-.7.3-1.1 0-.2 0-.5-.1-.7 0-.2-.1-.3-.2-.5l-.3-.3c-.1-.1-.3-.1-.4-.1-.2 0-.3.1-.5.1-.2.1-.3.2-.5.4l-.1 2.1zM135 24.8v-.5c-.1.2-.3.3-.5.4-.2.1-.4.2-.6.2-.1 0-.3 0-.4-.1-.1 0-.3-.1-.4-.2-.1-.1-.2-.2-.2-.3-.1-.2-.1-.3-.1-.5V21h.5v2.8c0 .2 0 .4.2.5.1.1.3.2.5.1.1 0 .2 0 .3-.1.1 0 .2-.1.3-.1.1-.1.2-.1.3-.2.1-.1.2-.1.2-.2V21h.5v3.8h-.6zM136.8 23.9c.1.2.3.3.5.4.2.1.4.2.6.2.2 0 .5-.1.6-.2.1-.1.2-.3.2-.4 0-.1-.1-.3-.2-.4-.1-.1-.3-.2-.4-.2-.2-.1-.3-.1-.5-.2-.2 0-.4-.1-.5-.2-.2-.1-.3-.2-.4-.3-.1-.2-.2-.4-.1-.6 0-.3.1-.6.4-.8.3-.2.6-.3.9-.3.1 0 .3 0 .4.1.1 0 .3.1.4.1.1.1.2.1.3.2.1.1.2.2.2.3l-.4.3c-.1-.2-.3-.3-.4-.4-.2-.1-.4-.1-.5-.1-.2 0-.4 0-.5.2-.1.1-.2.3-.2.4 0 .1.1.3.2.3.1.1.3.2.4.2.2.1.3.1.5.2s.4.1.5.2c.2.1.3.2.4.4.1.2.2.4.2.6 0 .2 0 .3-.1.5-.1.1-.2.3-.3.3-.1.1-.3.2-.4.2-.2 0-.3.1-.5.1-.3 0-.6-.1-.9-.2-.3-.1-.5-.3-.7-.5l.3-.4zM140.7 19.4v.6h-.5v-.6h.5zm-.5 1.6h.5v3.8h-.5V21zM142.6 21v.5c.1-.2.3-.3.5-.4.2-.1.4-.2.6-.2.1 0 .3 0 .4.1.1 0 .3.1.4.2.1.1.2.2.2.3.1.2.1.3.1.5v2.8h-.5V22c0-.2 0-.4-.2-.5-.1-.1-.3-.2-.5-.1-.1 0-.2 0-.3.1-.1 0-.2.1-.3.1-.1.1-.2.1-.3.2-.1.1-.2.1-.2.2v2.9h-.5V21h.6zM148.9 24c-.1.1-.1.2-.2.3l-.3.3c-.1.1-.3.2-.4.2-.2.1-.4.1-.6.1-.2 0-.4 0-.6-.1-.2-.1-.4-.2-.5-.4-.2-.2-.3-.4-.4-.6-.1-.3-.1-.6-.1-.9 0-.3 0-.6.1-.8l.3-.6c.1-.2.3-.3.5-.4.2-.1.4-.1.6-.1.2 0 .4 0 .6.1.2.1.3.2.5.3.1.2.2.3.3.5.1.3.1.5.1.8v.3h-2.5c0 .2 0 .4.1.6.1.2.1.3.2.4.1.1.2.2.4.3.1.1.3.1.4.1.2 0 .4-.1.6-.2.2-.1.3-.3.4-.5l.5.3zm-.6-1.4c0-.3-.1-.6-.2-.9-.2-.2-.4-.3-.7-.3-.3 0-.6.1-.7.3-.2.2-.3.5-.3.9h1.9zM150 23.9c.1.2.3.3.5.4.2.1.4.2.6.2.2 0 .5-.1.6-.2.1-.1.2-.3.2-.4 0-.1-.1-.3-.2-.4-.1-.1-.3-.2-.4-.2-.2-.1-.3-.1-.5-.2-.2 0-.4-.1-.5-.2-.2-.1-.3-.2-.4-.3-.1-.2-.2-.4-.1-.6 0-.3.1-.6.4-.8.3-.2.6-.3.9-.3.1 0 .3 0 .4.1.1 0 .3.1.4.1.1.1.2.1.3.2.1.1.2.2.2.3l-.4.3c-.1-.2-.3-.3-.4-.4-.2-.1-.4-.1-.5-.1-.2 0-.4 0-.5.2-.1.1-.2.3-.2.4 0 .1.1.3.2.3.1.1.3.2.4.2.2.1.3.1.5.2s.4.1.5.2c.2.1.3.2.4.4.1.2.2.4.2.6 0 .2 0 .3-.1.5-.1.1-.2.3-.3.3-.1.1-.3.2-.4.2-.2 0-.3.1-.5.1-.3 0-.6-.1-.9-.2-.3-.1-.5-.3-.7-.5l.3-.4zM153.4 23.9c.1.2.3.3.5.4.2.1.4.2.6.2.2 0 .5-.1.6-.2.1-.1.2-.3.2-.4 0-.1-.1-.3-.2-.4-.1-.1-.3-.2-.4-.2-.2-.1-.3-.1-.5-.2-.2 0-.4-.1-.5-.2-.2-.1-.3-.2-.4-.3-.1-.2-.2-.4-.1-.6 0-.3.1-.6.4-.8.3-.2.6-.3.9-.3.1 0 .3 0 .4.1.1 0 .3.1.4.1.1.1.2.1.3.2.1.1.2.2.2.3l-.4.3c-.1-.2-.3-.3-.4-.4-.2-.1-.4-.1-.5-.1-.2 0-.4 0-.5.2-.1.1-.2.3-.2.4 0 .1.1.3.2.3.1.1.3.2.4.2.2.1.3.1.5.2s.4.1.5.2c.2.1.3.2.4.4.1.2.2.4.2.6 0 .2 0 .3-.1.5-.1.1-.2.3-.3.3-.1.1-.3.2-.4.2-.2 0-.3.1-.5.1-.3 0-.6-.1-.9-.2-.3-.1-.5-.3-.7-.5l.3-.4zM157.4 20.3l-.5 1h-.3l.3-1h-.3v-.8h.7v.8zM162.7 24c-.1.1-.1.2-.2.3l-.3.3c-.1.1-.3.2-.4.2-.2.1-.4.1-.6.1-.2 0-.4 0-.6-.1-.2-.1-.4-.2-.5-.4-.2-.2-.3-.4-.4-.6-.1-.3-.1-.6-.1-.9 0-.3 0-.6.1-.8l.3-.6c.1-.2.3-.3.5-.4.2-.1.4-.1.6-.1.2 0 .4 0 .6.1.2.1.3.2.5.3.1.2.2.3.3.5.1.3.1.5.1.8v.3h-2.5c0 .2 0 .4.1.6.1.2.1.3.2.4.1.1.2.2.4.3.1.1.3.1.4.1.2 0 .4-.1.6-.2.2-.1.3-.3.4-.5l.5.3zm-.7-1.4c0-.3-.1-.6-.2-.9-.2-.2-.4-.3-.7-.3-.3 0-.6.1-.7.3-.2.2-.3.5-.3.9h1.9zM164.2 19.5v5.3h-.5v-5.3h.5zM166.1 19.4v.6h-.5v-.6h.5zm-.6 1.6h.5v3.8h-.5V21zM170.4 21.4h-.3c-.1 0-.2 0-.3.1.1.1.1.2.2.3.1.1.1.3.1.5s0 .4-.1.5c-.1.3-.4.6-.7.7-.2.1-.4.1-.5.1h-.4c-.1 0-.2 0-.3-.1-.2 0-.3.2-.3.4 0 .1 0 .2.1.2.1.1.1.1.2.1.4 0 .8 0 1.1.1.3 0 .5.1.7.2.2.1.3.2.4.3.1.1.1.3.1.5 0 .1 0 .3-.1.4l-.3.3c-.2.1-.3.2-.5.2-.3.1-.5.1-.8.1-.4 0-.8-.1-1.2-.2-.3-.1-.4-.4-.4-.7 0-.2.1-.3.2-.5.1-.1.3-.2.5-.3-.1 0-.3-.1-.3-.2-.1-.1-.1-.2-.1-.3 0-.1 0-.3.1-.4.1-.1.2-.2.4-.3-.2-.1-.3-.3-.4-.5-.1-.2-.1-.4-.1-.6 0-.2 0-.4.1-.5.1-.2.2-.3.3-.4.1-.1.3-.2.5-.3.2-.1.4-.1.6-.1.2 0 .4 0 .5.1.1 0 .3.1.4.2.1-.1.3-.2.4-.2.1-.1.3-.1.4-.1l-.2.4zm-.5 3.8c0-.2-.1-.4-.3-.4-.3-.1-.7-.2-1-.1-.2 0-.3 0-.5.1-.1 0-.2.1-.3.2l-.2.2c0 .1 0 .1-.1.2v.2c0 .1.1.1.2.2s.2.1.4.1h1c.1 0 .3-.1.4-.1.1 0 .2-.1.2-.2.1-.2.2-.3.2-.4zm-.4-2.9c0-.2-.1-.5-.2-.7-.2-.2-.5-.3-.7-.2-.5 0-.9.3-.9.8v.1c0 .2.1.5.3.6.2.2.5.3.7.3.1 0 .3 0 .4-.1.1 0 .2-.1.3-.2.1-.1.1-.2.2-.3-.1-.1-.1-.2-.1-.3zM171.8 19.4v.6h-.5v-.6h.5zm-.5 1.6h.5v3.8h-.5V21zM173.6 19.5v1.9c.1-.1.3-.2.5-.3.2-.1.3-.1.5-.1s.4 0 .5.1c.2.1.4.2.5.3.2.2.3.4.4.6.1.3.2.6.2.9 0 .3 0 .7-.2 1-.1.2-.2.4-.4.6-.1.1-.3.3-.5.3-.2.1-.3.1-.5.1s-.4 0-.6-.1c-.2-.1-.3-.2-.5-.3l-.1.4h-.4v-.4-4.9h.6zm0 4.4c.1.2.3.3.5.4.4.2 1 .1 1.3-.3.2-.3.3-.7.3-1.1 0-.2 0-.5-.1-.7 0-.2-.1-.3-.2-.5l-.3-.3c-.1-.1-.3-.1-.4-.1-.2 0-.3.1-.5.1-.2.1-.3.2-.5.4l-.1 2.1zM177.8 19.4v.6h-.5v-.6h.5zm-.5 1.6h.5v3.8h-.5V21zM179.7 19.5v5.3h-.5v-5.3h.5zM181.6 19.4v.6h-.5v-.6h.5zm-.5 1.6h.5v3.8h-.5V21zM183.1 21v-1.3h.5V21h.9v.5h-.9v2.7c0 .1 0 .2.1.2.1.1.2.1.3.1h.4v.4H183.8c-.2 0-.4 0-.6-.1-.1-.1-.2-.3-.2-.5v-2.8h-.6V21h.7zM188.2 21l-1.3 4.2c-.1.2-.1.4-.2.5l-.3.3c-.1.1-.2.1-.4.2h-.8v-.4H185.8c.1 0 .2-.1.3-.1l.3-.3c.1-.2.2-.3.2-.5l-1.3-3.9h.6l1 2.9.9-2.9h.4zM190.3 24.8v-3.4h-.6V21h.6v-.4c0-.2 0-.4.1-.6 0-.1.1-.2.2-.3.1-.1.2-.1.3-.2.1 0 .3-.1.4 0h.4v.5h-.4c-.1 0-.3 0-.4.1-.1.1-.1.3-.1.4v.5h.8v.5h-.8v3.4h-.5zM195.3 22.9c0 .3 0 .5-.1.8l-.3.6c-.1.2-.3.3-.5.4-.4.2-.9.2-1.4 0-.2-.1-.4-.2-.5-.4l-.3-.6c-.1-.5-.1-1 0-1.6l.3-.6c.1-.2.3-.3.5-.4.4-.2.9-.2 1.4 0 .2.1.4.2.5.4l.3.6c.1.3.1.5.1.8zm-.5 0c0-.4-.1-.8-.3-1.1-.3-.4-.9-.5-1.3-.2-.1.1-.2.1-.2.2-.4.7-.4 1.6 0 2.3.3.4.9.5 1.3.2.1-.1.2-.1.2-.2.2-.4.3-.8.3-1.2zM196.2 21h.5v.8c.1-.1.1-.2.2-.3l.3-.3c.1-.1.2-.1.3-.2.1 0 .3-.1.4-.1v.5c-.3 0-.6.1-.8.3-.2.3-.4.6-.5.9v2.1h-.5l.1-3.7zM200.1 21v-1.3h.5V21h.9v.5h-.9v2.7c0 .1 0 .2.1.2.1.1.2.1.3.1h.4v.4H200.8c-.2 0-.4 0-.6-.1-.1-.1-.2-.3-.2-.5v-2.8h-.6V21h.7zM202.9 19.5v2c.1-.2.3-.3.5-.4.2-.1.4-.2.6-.2.1 0 .3 0 .4.1.1 0 .3.1.4.2.1.1.2.2.2.3.1.2.1.3.1.5v2.8h-.5V22c0-.2 0-.4-.2-.5-.1-.1-.3-.2-.5-.1-.1 0-.2 0-.3.1-.1 0-.2.1-.3.1-.1.1-.2.1-.3.2-.1.1-.2.1-.2.2v2.9h-.5v-5.3h.6zM209.3 24c-.1.1-.1.2-.2.3l-.3.3c-.1.1-.3.2-.4.2-.2.1-.4.1-.6.1-.2 0-.4 0-.6-.1-.2-.1-.4-.2-.5-.4-.2-.2-.3-.4-.4-.6-.1-.3-.1-.6-.1-.9 0-.3 0-.6.1-.8l.3-.6c.1-.2.3-.3.5-.4.2-.1.4-.1.6-.1.2 0 .4 0 .6.1.2.1.3.2.5.3.1.2.2.3.3.5.1.3.1.5.1.8v.3h-2.5c0 .2 0 .4.1.6.1.2.1.3.2.4.1.1.2.2.4.3.1.1.3.1.4.1.2 0 .4-.1.6-.2.2-.1.3-.3.4-.5l.5.3zm-.7-1.4c0-.3-.1-.6-.2-.9-.2-.2-.4-.3-.7-.3-.3 0-.6.1-.7.3-.2.2-.3.5-.3.9h1.9zM212.2 19.5v5.3h-.6v-5.3h.6zM214.2 21v.5c.1-.2.3-.3.5-.4.2-.1.4-.2.6-.2.1 0 .3 0 .4.1.1 0 .3.1.4.2.1.1.2.2.2.3.1.2.1.3.1.5v2.8h-.5V22c0-.2 0-.4-.2-.5-.1-.1-.3-.2-.5-.1-.1 0-.2 0-.3.1-.1 0-.2.1-.3.1-.1.1-.2.1-.3.2-.1.1-.2.1-.2.2v2.9h-.5V21h.6zM217.7 23.9c.1.2.3.3.5.4.2.1.4.2.6.2.2 0 .5-.1.6-.2.1-.1.2-.3.2-.4 0-.1-.1-.3-.2-.4-.1-.1-.3-.2-.4-.2-.2-.1-.3-.1-.5-.2-.2 0-.4-.1-.5-.2-.2-.1-.3-.2-.4-.3-.1-.2-.2-.4-.1-.6 0-.3.1-.6.4-.8.3-.2.6-.3.9-.3.1 0 .3 0 .4.1.1 0 .3.1.4.1.1.1.2.1.3.2.1.1.2.2.2.3l-.4.3c-.1-.2-.3-.3-.4-.4-.2-.1-.4-.1-.5-.1-.2 0-.4 0-.5.2-.1.1-.2.3-.2.4 0 .1.1.3.2.3.1.1.3.2.4.2.2.1.3.1.5.2s.4.1.5.2c.2.1.3.2.4.4.1.2.2.4.2.6 0 .2 0 .3-.1.5-.1.1-.2.3-.3.3-.1.1-.3.2-.4.2-.2 0-.3.1-.5.1-.3 0-.6-.1-.9-.2-.3-.1-.5-.3-.7-.5l.3-.4zM221.3 21v-1.3h.5V21h.9v.5h-.9v2.7c0 .1 0 .2.1.2.1.1.2.1.3.1h.4v.4H222c-.2 0-.4 0-.6-.1-.1-.1-.2-.3-.2-.5v-2.8h-.6V21h.7zM223.5 21.7c.1-.2.3-.4.5-.6.3-.2.6-.3.9-.2.2 0 .3 0 .5.1.2 0 .3.1.4.2.1.1.2.2.3.4.1.2.1.3.1.5v2.4c0 .1 0 .2.1.3h-.5l-.1-.5c-.2.2-.3.3-.5.4-.2.1-.5.2-.8.2-.1 0-.3 0-.4-.1-.3-.1-.5-.3-.6-.5-.1-.1-.1-.3-.1-.5 0-.4.2-.8.5-1 .2-.1.5-.3.7-.3.4-.1.7-.2 1.1-.3V22c0-.2-.1-.4-.2-.5-.2-.1-.4-.2-.6-.2-.1 0-.3 0-.4.1-.1 0-.2.1-.3.1l-.2.2c0 .1-.1.1-.1.2l-.3-.2zm2.2 1.1c-1.2.2-1.8.6-1.8 1.1 0 .1 0 .2.1.2 0 .1.1.1.1.2.1.1.1.1.2.1h.5c.1 0 .2-.1.3-.1.1-.1.2-.1.3-.2.1-.1.2-.2.3-.2v-1.1zM228 21v.5c.1-.2.3-.3.5-.4.2-.1.4-.2.6-.2.1 0 .3 0 .4.1.1 0 .3.1.4.2.1.1.2.2.2.3.1.2.1.3.1.5v2.8h-.5V22c0-.2 0-.4-.2-.5-.1-.1-.3-.2-.5-.1-.1 0-.2 0-.3.1-.1 0-.2.1-.3.1-.1.1-.2.1-.3.2-.1.1-.2.1-.2.2v2.9h-.5V21h.6zM231.6 21v-1.3h.5V21h.9v.5h-.9v2.7c0 .1 0 .2.1.2.1.1.2.1.3.1h.4v.4H232.3c-.2 0-.4 0-.6-.1-.1-.1-.2-.3-.2-.5v-2.8h-.5V21h.6zM234.7 24.8l1.6-5.3h.9l1.6 5.3h-.6l-.5-1.7h-1.9l-.5 1.7h-.6zm1.2-2.1h1.6l-.8-2.7h-.1l-.7 2.7zM239.8 23.9c.1.2.3.3.5.4.2.1.4.2.6.2.2 0 .5-.1.6-.2.1-.1.2-.3.2-.4 0-.1-.1-.3-.2-.4-.1-.1-.3-.2-.4-.2-.2-.1-.3-.1-.5-.2-.2 0-.4-.1-.5-.2-.2-.1-.3-.2-.4-.3-.1-.2-.2-.4-.1-.6 0-.3.1-.6.4-.8.3-.2.6-.3.9-.3.1 0 .3 0 .4.1.1 0 .3.1.4.1.1.1.2.1.3.2.1.1.2.2.2.3l-.4.3c-.1-.2-.3-.3-.4-.4-.2-.1-.4-.1-.5-.1-.2 0-.4 0-.5.2-.1.1-.2.3-.2.4 0 .1.1.3.2.3.1.1.3.2.4.2.2.1.3.1.5.2s.4.1.5.2c.2.1.3.2.4.4.1.2.2.4.2.6 0 .2 0 .3-.1.5-.1.1-.2.3-.3.3-.1.1-.3.2-.4.2-.2 0-.3.1-.5.1-.3 0-.6-.1-.9-.2-.3-.1-.5-.3-.7-.5l.3-.4zM243.3 23.9c.1.2.3.3.5.4.2.1.4.2.6.2.2 0 .5-.1.6-.2.1-.1.2-.3.2-.4 0-.1-.1-.3-.2-.4-.1-.1-.3-.2-.4-.2-.2-.1-.3-.1-.5-.2-.2 0-.4-.1-.5-.2-.2-.1-.3-.2-.4-.3-.1-.2-.2-.4-.1-.6 0-.3.1-.6.4-.8.3-.2.6-.3.9-.3.1 0 .3 0 .4.1.1 0 .3.1.4.1.1.1.2.1.3.2.1.1.2.2.2.3l-.4.3c-.1-.2-.3-.3-.4-.4-.2-.1-.4-.1-.5-.1-.2 0-.4 0-.5.2-.1.1-.2.3-.2.4 0 .1.1.3.2.3.1.1.3.2.4.2.2.1.3.1.5.2s.4.1.5.2c.2.1.3.2.4.4.1.2.2.4.2.6 0 .2 0 .3-.1.5-.1.1-.2.3-.3.3-.1.1-.3.2-.4.2-.2 0-.3.1-.5.1-.3 0-.6-.1-.9-.2-.3-.1-.5-.3-.7-.5l.3-.4zM249.5 24c-.1.1-.1.2-.2.3l-.3.3c-.1.1-.3.2-.4.2-.2.1-.4.1-.6.1-.2 0-.4 0-.6-.1-.2-.1-.4-.2-.5-.4-.2-.2-.3-.4-.4-.6-.1-.3-.1-.6-.1-.9 0-.3 0-.6.1-.8l.3-.6c.1-.2.3-.3.5-.4.2-.1.4-.1.6-.1.2 0 .4 0 .6.1.2.1.3.2.5.3.1.2.2.3.3.5.1.3.1.5.1.8v.3h-2.5c0 .2 0 .4.1.6.1.2.1.3.2.4.1.1.2.2.4.3.1.1.3.1.4.1.2 0 .4-.1.6-.2.2-.1.3-.3.4-.5l.5.3zm-.7-1.4c0-.3-.1-.6-.2-.9-.2-.2-.4-.3-.7-.3-.3 0-.6.1-.7.3-.2.2-.3.5-.3.9h1.9zM250.5 21v-1.3h.5V21h.9v.5h-.9v2.7c0 .1 0 .2.1.2.1.1.2.1.3.1h.4v.4H251.2c-.2 0-.4 0-.6-.1-.1-.1-.2-.3-.2-.5v-2.8h-.6V21h.7zM253.6 19.5h.6l1 4.2 1-4.2h.5l1.1 4.2 1-4.2h.6l-1.3 5.3h-.5l-1.1-4.3-1 4.3h-.5l-1.4-5.3zM260 21h.5v.8c.1-.1.1-.2.2-.3l.3-.3c.1-.1.2-.1.3-.2.1 0 .3-.1.4-.1v.5c-.3 0-.6.1-.8.3-.2.3-.4.6-.5.9v2.1h-.4V21zM263.2 19.4v.6h-.5v-.6h.5zm-.5 1.6h.5v3.8h-.5V21zM264.7 21v-1.3h.5V21h.9v.5h-.9v2.7c0 .1 0 .2.1.2.1.1.2.1.3.1h.4v.4H265.4c-.2 0-.4 0-.6-.1-.1-.1-.2-.3-.2-.5v-2.8h-.6V21h.7zM269.9 24c-.1.1-.1.2-.2.3l-.3.3c-.1.1-.3.2-.4.2-.2.1-.4.1-.6.1-.2 0-.4 0-.6-.1-.2-.1-.4-.2-.5-.4-.2-.2-.3-.4-.4-.6-.1-.3-.1-.6-.1-.9 0-.3 0-.6.1-.8l.3-.6c.1-.2.3-.3.5-.4.2-.1.4-.1.6-.1.2 0 .4 0 .6.1.2.1.3.2.5.3.1.2.2.3.3.5.1.3.1.5.1.8v.3h-2.5c0 .2 0 .4.1.6.1.2.1.3.2.4.1.1.2.2.4.3.1.1.3.1.4.1.2 0 .4-.1.6-.2.2-.1.3-.3.4-.5l.5.3zm-.7-1.4c0-.3-.1-.6-.2-.9-.2-.2-.4-.3-.7-.3-.3 0-.6.1-.7.3-.2.2-.3.5-.3.9h1.9zM270.6 23.1v-.5h1.9v.5h-1.9zM276.5 22.9c0 .3 0 .5-.1.8l-.3.6c-.1.2-.3.3-.5.4-.4.2-.9.2-1.4 0-.2-.1-.4-.2-.5-.4l-.3-.6c-.1-.5-.1-1 0-1.6l.3-.6c.1-.2.3-.3.5-.4.4-.2.9-.2 1.4 0 .2.1.4.2.5.4l.3.6c.1.3.1.5.1.8zm-.5 0c0-.4-.1-.8-.3-1.1-.3-.4-.9-.5-1.3-.2-.1.1-.2.1-.2.2-.4.7-.4 1.6 0 2.3.3.4.9.5 1.3.2.1-.1.2-.1.2-.2.2-.4.3-.8.3-1.2zM277.6 24.8v-3.4h-.6V21h.6v-.4c0-.2 0-.4.1-.6 0-.1.1-.2.2-.3.1-.1.2-.1.3-.2.1 0 .3-.1.4 0h.4v.5h-.4c-.1 0-.3 0-.4.1-.1.1-.1.3-.1.4v.5h.8v.5h-.8v3.4h-.5zM280.3 24.8v-3.4h-.6V21h.6v-.4c0-.2 0-.4.1-.6 0-.1.1-.2.2-.3.1-.1.2-.1.3-.2.1 0 .3-.1.4 0h.4v.5h-.4c-.1 0-.3 0-.4.1-.1.1-.1.3-.1.4v.5h.8v.5h-.8v3.4h-.5zM283.1 24v.8h-.7V24h.7z"/></svg>