<svg xmlns="http://www.w3.org/2000/svg" width="289.6" height="26.2" overflow="visible"><path d="M.2 3.3L1.8 0h.4l1.6 3.3h-.3L2.1.6.7 3.3H.2zM8.3.1v.5H5.7v1.8h1.8v.5H5.7v2h2.7v.5H5.1V.1h3.2zm1.7 0v5.3h-.5V.1h.5zm1.9-.1v.6h-.5V0h.5zm-.5 1.6h.5v3.8h-.5V1.6zm4.8.3h-.3c-.1 0-.2 0-.3.1.1.1.1.2.2.3.1.1.1.3.1.5s0 .4-.1.5c-.1.2-.2.3-.3.4-.2.2-.3.3-.5.4-.2.1-.4.1-.5.1h-.4c-.1 0-.2 0-.3-.1-.2.1-.3.2-.3.4 0 .1 0 .2.1.2s.1.1.2.1c.5 0 .8 0 1.1.1.3 0 .6.1.7.2.3-.1.4.1.5.2s.1.3.1.5c0 .1 0 .3-.1.4l-.3.3c-.1.1-.3.2-.5.2-.2.1-.5.1-.8.1-.5 0-1-.1-1.2-.2-.3-.2-.4-.4-.4-.7 0-.2.1-.3.2-.5.1-.1.3-.2.5-.3-.1 0-.3-.1-.4-.2-.2-.1-.2-.2-.2-.3 0-.2 0-.3.1-.4.1-.1.2-.2.4-.3-.2-.1-.3-.3-.4-.5S13 3 13 2.8c0-.2 0-.4.1-.5.1-.2.2-.3.3-.4.1-.1.3-.2.5-.3.2-.1.4-.1.6-.1.2 0 .4 0 .5.1s.3.1.4.2c.1-.1.2-.2.4-.2.1-.1.3-.1.4-.1v.4zm-.5 3.9c0-.2-.1-.3-.3-.4s-.5-.1-1-.1c-.2 0-.4 0-.5.1-.1 0-.2.1-.3.2l-.2.2c0 .1-.1.1-.1.2v.2c0 .1.1.1.2.2.1 0 .2.1.4.1h1c.1 0 .3-.1.4-.1.1 0 .2-.1.2-.2.2-.2.2-.3.2-.4zm-.3-2.9c0-.3-.1-.5-.2-.7-.2-.2-.5-.3-.8-.3-.3 0-.5.1-.7.3-.2.2-.2.4-.2.6 0 .3.1.5.3.6s.4.3.7.3c.2 0 .3 0 .4-.1.1 0 .2-.1.3-.2.1-.1.1-.2.2-.3v-.2zM17.6 0v.6h-.5V0h.5zm-.5 1.6h.5v3.8h-.5V1.6zM19.4.1V2c.1-.1.3-.2.5-.3s.3-.1.5-.1.3 0 .5.1.3.2.5.3c.1.2.3.4.4.6s.2.5.2.9-.1.7-.2 1c-.1.3-.2.5-.4.6-.2.2-.3.3-.5.3-.2.1-.4.1-.5.1-.2 0-.4 0-.6-.1-.2-.1-.3-.2-.5-.3l-.1.4h-.4v-.4-5h.6zm0 4.4c.2.2.4.3.5.4.2.1.3.1.5.1.3 0 .6-.1.8-.4.2-.3.3-.6.3-1.1 0-.3 0-.5-.1-.7-.1-.2-.1-.4-.2-.5-.1-.1-.2-.2-.4-.3-.1-.1-.3-.1-.4-.1-.2 0-.3 0-.5.1s-.3.2-.5.4v2.1zM23.6 0v.6h-.5V0h.5zm-.5 1.6h.5v3.8h-.5V1.6zM25.5.1v5.3H25V.1h.5zm1.9-.1v.6h-.5V0h.5zm-.5 1.6h.5v3.8h-.5V1.6zm2 0V.3h.5v1.3h.9V2h-.9v2.7c0 .1 0 .2.1.2s.2.1.4.1h.5v.4H29.8c-.3 0-.5 0-.6-.1-.1-.1-.2-.3-.2-.5V2h-.6v-.4h.5zm5.1 0l-1.3 4.2c-.1.2-.2.4-.2.5s-.2.2-.3.3c-.1.1-.2.1-.4.2H31v-.5H31.6c.1 0 .2-.1.3-.1s.2-.2.3-.3.1-.3.2-.5l-1.3-3.9h.6l1 2.9.9-2.9h.4zm5.2 1.1l-.3-.6c-.1-.1-.3-.2-.6-.2s-.6.1-.8.4c-.2.3-.3.6-.3 1.1 0 .5.1.9.3 1.1.3.4.5.5.8.5h.3c.1 0 .2-.1.3-.1s.2-.1.2-.2.1-.2.2-.3l.4.2c-.1.2-.2.3-.3.4l-.3.3c-.1.1-.1.1-.3.1-.1 0-.3.1-.5.1s-.5 0-.7-.1-.4-.2-.5-.4l-.3-.6c-.1-.2-.1-.5-.1-.8 0-.3 0-.6.1-.8l.4-.8c.1-.2.3-.3.5-.4s.4-.1.7-.1c.2 0 .4 0 .5.1.1.1.3.1.4.2l.3.3c.1.1.2.3.2.4l-.6.2zm1.5-1.1h.5v.8c.1-.1.1-.2.2-.3l.3-.3c.1-.1.2-.1.3-.2s.3-.1.4-.1V2c-.3 0-.6.1-.8.3s-.3.5-.5.9v2.1h-.5V1.6zM43.9 0v.6h-.5V0h.5zm-.5 1.6h.5v3.8h-.5V1.6zm2 0V.3h.5v1.3h.9V2h-.9v2.7c0 .1 0 .2.1.2s.2.1.4.1h.5v.4H46.3c-.3 0-.5 0-.6-.1-.1-.1-.2-.3-.2-.5V2h-.6v-.4h.5zm5.1 3c-.1.1-.1.2-.2.3l-.3.3c-.1.1-.3.2-.4.2s-.4.1-.6.1c-.2 0-.4 0-.6-.1-.2-.1-.4-.2-.5-.4-.2-.2-.3-.4-.4-.6-.1-.2-.1-.5-.1-.9 0-.3 0-.6.1-.8.1-.2.2-.5.3-.6.1-.2.3-.3.5-.4.2-.1.4-.1.6-.1.2 0 .4 0 .6.1s.3.2.5.3c.1.1.2.3.3.5.1.2.1.5.1.8v.4h-2.5c0 .2 0 .4.1.6.1.2.1.3.2.4s.2.2.4.3h.4c.2 0 .4-.1.6-.2s.3-.3.4-.5l.5.3zm-.6-1.5c0-.4-.1-.6-.2-.9-.2-.2-.4-.3-.7-.3-.3 0-.6.1-.7.3-.2.2-.3.5-.3.9h1.9zm1.5-1.5h.5v.8c.1-.2.1-.3.2-.4l.3-.3c.1-.1.2-.1.3-.2s.3-.1.4-.1V2c-.3 0-.6.1-.8.3s-.3.6-.4 1v2.1h-.5V1.6zM54.6 0v.6H54V0h.6zM54 1.6h.5v3.8H54V1.6zm1.7.7c.1-.2.3-.4.5-.6.2-.2.5-.2.9-.2.2 0 .3 0 .5.1.2 0 .3.1.4.2.1.1.2.2.3.4s.1.3.1.5v2.4c0 .1 0 .2.1.3H58l-.1-.5c-.1.1-.3.3-.5.4-.2.1-.5.2-.8.2-.1 0-.3 0-.4-.1-.1 0-.2-.1-.3-.2-.1-.1-.2-.2-.2-.3-.1-.1-.1-.3-.1-.5s0-.4.1-.6c.1-.2.2-.3.4-.4s.4-.2.7-.3c.3-.1.7-.2 1.1-.3v-.2c0-.3-.1-.4-.2-.5-.1-.1-.3-.2-.6-.2-.1 0-.3 0-.4.1-.1 0-.2.1-.3.1l-.2.2c-.1.1-.1.1-.1.2l-.4-.2zm2.2 1c-1.2.2-1.8.6-1.8 1.1 0 .1 0 .2.1.2 0 .1.1.1.1.2.1.1.1.1.2.1h.5c.1 0 .2-.1.3-.1.1-.1.2-.1.3-.2s.2-.2.3-.2V3.3zm3.9-1c.1-.2.3-.4.5-.6.2-.2.5-.2.9-.2.2 0 .3 0 .5.1.2 0 .3.1.4.2.1.1.2.2.3.4s.1.3.1.5v2.4c0 .1 0 .2.1.3h-.5l-.1-.5c-.1.1-.3.3-.5.4-.2.1-.5.2-.8.2-.1 0-.3 0-.4-.1-.1 0-.2-.1-.3-.2-.1-.1-.2-.2-.2-.3-.1-.1-.1-.3-.1-.5s0-.4.1-.6c.1-.2.2-.3.4-.4s.4-.2.7-.3c.3-.1.7-.2 1.1-.3v-.2c0-.3-.1-.4-.2-.5-.1-.1-.3-.2-.6-.2-.1 0-.3 0-.4.1-.1 0-.2.1-.3.1l-.2.2c-.1.1-.1.1-.1.2l-.4-.2zm2.2 1c-1.2.2-1.8.6-1.8 1.1 0 .1 0 .2.1.2 0 .1.1.1.1.2.1.1.1.1.2.1h.5c.1 0 .2-.1.3-.1.1-.1.2-.1.3-.2s.2-.2.3-.2V3.3zm1.7 3.5V1.6h.5V2c0-.1.1-.1.2-.2s.2-.1.2-.2c.1 0 .2-.1.3-.1h.3c.2 0 .3 0 .5.1s.4.2.5.3.3.4.4.6.2.6.2 1-.1.7-.2.9-.2.5-.4.6c-.1.2-.3.3-.5.3-.2.1-.4.1-.5.1-.2 0-.4 0-.5-.1s-.3-.1-.5-.3v1.8h-.5zm.5-2.3c.1.2.3.3.5.4.1.1.3.1.5.1s.3 0 .4-.1c.1-.1.2-.1.3-.3.1-.1.2-.3.2-.5.1-.2.1-.4.1-.7 0-.5-.1-.9-.3-1.1s-.5-.4-.8-.4c-.2 0-.3 0-.5.1-.1.1-.3.2-.5.4v2.1zm3.6 2.3V1.6h.5V2c0-.1.1-.1.2-.2s.2-.1.2-.2c.1 0 .2-.1.3-.1h.3c.2 0 .3 0 .5.1s.4.2.5.3.3.4.4.6.2.6.2 1-.1.7-.2.9-.2.5-.4.6c-.1.2-.3.3-.5.3-.2.1-.4.1-.5.1-.2 0-.4 0-.5-.1s-.3-.1-.5-.3v1.8h-.5zm.5-2.3c.1.2.3.3.5.4.1.1.3.1.5.1s.3 0 .4-.1c.1-.1.2-.1.3-.3.1-.1.2-.3.2-.5.1-.2.1-.4.1-.7 0-.5-.1-.9-.3-1.1s-.5-.4-.8-.4c-.2 0-.3 0-.5.1-.1.1-.3.2-.5.4v2.1zM74.5.1v5.3H74V.1h.5zm3.9 1.5L77 5.7c-.1.2-.2.4-.2.5s-.2.2-.3.3c-.1.1-.2.1-.4.2h-.8v-.4H75.9c.1 0 .2-.1.3-.1s.2-.2.3-.3.1-.3.2-.5l-1.3-3.9h.6l1 2.9.9-2.9h.5zM82 .1V2c.1-.1.3-.2.5-.3s.3-.1.5-.1.3 0 .5.1.3.2.5.3c.1.2.3.4.4.6s.2.6.2.9c0 .4-.1.7-.2 1-.1.3-.2.5-.4.6-.2.2-.3.3-.5.3-.2.1-.4.1-.5.1-.2 0-.4 0-.6-.1-.1-.2-.3-.3-.4-.4l-.1.4h-.4V5 .1h.5zm0 4.4c.2.2.4.3.5.4.2.1.3.1.5.1.3 0 .6-.1.8-.4.2-.2.3-.6.3-1.1 0-.3 0-.5-.1-.7-.1-.2-.1-.4-.2-.5l-.3-.3c-.2 0-.3-.1-.5-.1s-.3 0-.5.1-.3.2-.5.4v2.1zm3.4-2.2c.1-.2.3-.4.5-.6.2-.2.5-.2.9-.2.2 0 .3 0 .5.1.2 0 .3.1.4.2.2 0 .3.2.4.3s.1.3.1.5V5c0 .1 0 .2.1.3h-.5l-.1-.5c-.1.1-.3.3-.5.4-.2.1-.5.2-.8.2-.1 0-.3 0-.4-.1-.1 0-.2-.1-.3-.2-.1-.1-.2-.2-.2-.3-.1-.1-.1-.3-.1-.5s0-.4.1-.6c.1-.2.2-.3.4-.4s.4-.2.7-.3c.3-.1.7-.2 1.1-.3v-.1c0-.3-.1-.4-.2-.5-.1-.1-.3-.2-.6-.2-.1 0-.3 0-.4.1-.1 0-.2.1-.3.1l-.2.2c-.1.1-.1.1-.1.2l-.5-.2zm2.3 1c-1.2.2-1.8.6-1.8 1.1 0 .1 0 .2.1.2 0 .1.1.1.1.2.1.1.1.1.2.1h.5c.1 0 .2-.1.3-.1.1-.1.2-.1.3-.2s.2-.2.3-.2V3.3zm1.7 1.1c.1.2.3.3.5.4s.3.2.6.2.5-.1.6-.2c.1-.1.2-.3.2-.4s0-.3-.2-.4-.3-.2-.4-.2c-.2-.1-.3-.1-.5-.2s-.4-.1-.5-.2c-.2-.1-.3-.2-.4-.3-.1-.1-.2-.3-.1-.6 0-.3.1-.6.4-.8.2-.2.5-.3.9-.3.1 0 .2 0 .4.1s.3.1.4.1c.1.1.2.1.3.2s.2.2.2.3l-.4.3c-.1-.2-.3-.3-.4-.4-.2-.1-.3-.1-.5-.1s-.4.1-.5.2c-.1.1-.2.2-.2.4 0 .1.1.2.2.3-.1.1 0 .2.2.2.2.1.3.1.5.2s.4.1.5.2.3.2.4.4c.1.1.2.3.2.6 0 .2 0 .3-.1.5-.1.1-.2.3-.3.3-.1.1-.3.2-.4.2-.2 0-.3.1-.5.1-.3 0-.6-.1-.9-.2s-.5-.3-.6-.6l.4-.3zm6.2.2c-.1.1-.1.2-.2.3l-.3.3c-.1.1-.3.2-.4.2s-.3.1-.6.1c-.2 0-.4 0-.6-.1-.2-.1-.4-.2-.5-.4-.2-.2-.3-.4-.4-.6-.1-.2-.1-.5-.1-.9 0-.3 0-.6.1-.8.1-.2.2-.5.3-.6.1-.2.3-.3.5-.4.2-.1.4-.1.6-.1.2 0 .4 0 .6.1s.3.2.5.3c.1.1.2.3.3.5.1.2.1.5.1.8v.4H93c0 .2 0 .4.1.6.1.2.1.3.2.4s.2.2.4.3h.4c.2 0 .4-.1.6-.2s.3-.3.4-.5l.5.3zM95 3.1c0-.4-.1-.6-.2-.9-.2-.2-.4-.3-.7-.3-.3 0-.6.1-.7.3-.2.2-.3.5-.3.9H95zm4.4-3V5.4h-.5V5c-.1.1-.2.2-.4.3-.2.1-.4.1-.6.1-.2 0-.3 0-.5-.1-.3 0-.4-.1-.6-.3-.2-.2-.3-.4-.4-.6-.1-.3-.2-.6-.2-1s.1-.7.2-.9.2-.5.4-.6.3-.3.5-.3c.2-.1.4-.1.5-.1.2 0 .4 0 .5.1s.3.2.5.3V.1h.6zm-.5 2.4c-.1-.2-.3-.3-.5-.4-.2-.1-.3-.1-.5-.1s-.3 0-.4.1c-.1.1-.2.1-.3.3-.1.1-.2.3-.2.5-.1.2-.1.4-.1.7 0 .5.1.9.3 1.1.1.2.4.3.7.3.2 0 .3 0 .5-.1.1-.1.3-.2.5-.4v-2zm6.9 1c0 .3 0 .5-.1.8-.1.2-.2.5-.3.6-.1.2-.3.3-.5.4s-.4.2-.7.2c-.3 0-.5-.1-.7-.2s-.4-.2-.5-.4l-.3-.6c-.1-.2-.1-.5-.1-.8 0-.3 0-.5.1-.8.1-.2.2-.5.3-.6.1-.2.3-.3.5-.4.2-.1.4-.2.7-.2.3 0 .5.1.7.2.2.1.4.2.5.4l.3.6c.1.2.1.5.1.8zm-.5 0c0-.5-.1-.9-.3-1.1s-.4-.4-.8-.4c-.3 0-.6.1-.8.4s-.3.6-.3 1.1c0 .5.1.9.3 1.1.2.3.4.4.8.4.3 0 .6-.1.8-.4.2-.2.3-.6.3-1.1zm2-1.9v.5c.2-.2.3-.3.5-.4s.4-.2.6-.2c.1 0 .3 0 .4.1.1 0 .2.1.4.2.1.1.2.2.2.3s.1.3.1.5v2.8h-.5V2.6c0-.3-.1-.4-.2-.5-.1-.1-.3-.1-.5-.1-.1 0-.2 0-.3.1-.1 0-.2.1-.3.1-.1.1-.2.1-.3.2s-.2.1-.2.2v2.9h-.5V1.6h.6zm6.5 0v.5c.2-.2.3-.3.5-.4s.4-.2.6-.2c.1 0 .3 0 .4.1.1 0 .2.1.4.2.1.1.2.2.2.3s.1.3.1.5v2.8h-.5V2.6c0-.3-.1-.4-.2-.5-.1-.1-.3-.1-.5-.1-.1 0-.2 0-.3.1-.1 0-.2.1-.3.1-.1.1-.2.1-.3.2s-.2.1-.2.2v2.9h-.5V1.6h.6zm5.7 3.8v-.5c-.2.2-.3.3-.5.4-.2.1-.4.2-.6.2-.1 0-.3 0-.4-.1-.1 0-.3-.1-.4-.2-.1-.1-.2-.2-.2-.3-.1-.1-.1-.3-.1-.5V1.6h.5v2.8c0 .3.1.4.2.5.1.1.3.1.5.1.1 0 .2 0 .3-.1.1 0 .2-.1.3-.1.1-.1.2-.1.3-.2.1-.1.2-.1.2-.2V1.6h.5v3.8h-.6zm1.8 0V1.6h.5v.5c.2-.2.3-.3.5-.4.2-.1.4-.1.6-.1.3 0 .5.1.6.2.2.1.3.3.4.4.2-.2.4-.3.6-.4.2-.1.4-.2.6-.2h.4c.1 0 .2.1.3.2s.2.2.2.4.1.3.1.6v2.7h-.5V2.7c0-.3-.1-.4-.2-.5-.1-.1-.3-.2-.4-.2-.1 0-.2 0-.3.1-.1 0-.2.1-.3.1s-.2.1-.2.2-.2.1-.2.2v2.9h-.5V2.7c0-.3-.1-.4-.2-.5-.1-.1-.3-.2-.4-.2-.1 0-.2 0-.3.1-.1 0-.2.1-.3.1s-.2.1-.2.2c-.1.1-.2.1-.2.2v2.9h-.6zm9-.8c-.1.1-.1.2-.2.3l-.3.3c-.1.1-.3.2-.4.2s-.3.1-.6.1c-.2 0-.4 0-.6-.1-.2-.1-.4-.2-.5-.4-.2-.2-.3-.4-.4-.6-.1-.2-.1-.5-.1-.9 0-.3 0-.6.1-.8.1-.2.2-.5.3-.6.1-.2.3-.3.5-.4.2-.1.4-.1.6-.1.2 0 .4 0 .6.1s.3.2.5.3c.1.1.2.3.3.5.1.2.1.5.1.8v.4h-2.5c0 .2 0 .4.1.6.1.2.1.3.2.4s.2.2.4.3c.1.1.3.1.4.1.2 0 .4-.1.6-.2s.3-.3.4-.5l.5.2zm-.7-1.5c0-.4-.1-.6-.2-.9-.2-.2-.4-.3-.7-.3-.3 0-.6.1-.7.3-.2.2-.3.5-.3.9h1.9zm1.5-1.5h.5v.8c.1-.1.1-.2.2-.3l.3-.3c.1-.1.2-.1.3-.2s.3-.1.4-.1V2c-.3 0-.6.1-.8.3s-.3.5-.5.9v2.1h-.5V1.6zm5.4 1.9c0 .3 0 .5-.1.8-.1.2-.2.5-.3.6-.1.2-.3.3-.5.4s-.4.2-.7.2c-.3 0-.5-.1-.7-.2s-.4-.2-.5-.4l-.3-.6c-.1-.2-.1-.5-.1-.8 0-.3 0-.5.1-.8.1-.2.2-.5.3-.6.1-.2.3-.3.5-.4.2-.1.4-.2.7-.2.3 0 .5.1.7.2.2.1.4.2.5.4l.3.6c.1.2.1.5.1.8zm-.5 0c0-.5-.1-.9-.3-1.1s-.4-.4-.8-.4c-.3 0-.6.1-.8.4s-.3.6-.3 1.1c0 .5.1.9.3 1.1.2.3.4.4.8.4.3 0 .6-.1.8-.4.2-.2.3-.6.3-1.1zm3.7 1.9v-.5c-.2.2-.3.3-.5.4-.2.1-.4.2-.6.2-.1 0-.3 0-.4-.1-.1 0-.3-.1-.4-.2-.1-.1-.2-.2-.2-.3-.1-.1-.1-.3-.1-.5V1.6h.5v2.8c0 .3.1.4.2.5.1.1.3.1.5.1.1 0 .2 0 .3-.1.1 0 .2-.1.3-.1.1-.1.2-.1.3-.2.1-.1.2-.1.2-.2V1.6h.5v3.8h-.6zm1.8-1c.1.2.3.3.5.4s.4.2.6.2c.3 0 .5-.1.6-.2.1-.1.2-.3.2-.4s-.1-.3-.2-.4-.3-.2-.4-.2c-.2-.1-.3-.1-.5-.2s-.4-.1-.5-.2c-.2-.1-.3-.2-.4-.3-.1-.1-.2-.3-.1-.6 0-.3.1-.6.4-.8.2-.2.5-.3.9-.3.1 0 .2 0 .4.1s.3.1.4.1c.1.1.2.1.3.2s.2.2.2.3l-.4.3c-.1-.2-.3-.3-.4-.4-.2-.1-.3-.1-.5-.1s-.4.1-.5.2c-.1.1-.2.2-.2.4 0 .1.1.2.2.3.1.1.2.1.4.2s.3.1.5.2.4.1.5.2.3.2.4.4c.1.1.2.3.2.6 0 .2 0 .3-.1.5-.1.1-.2.3-.3.3-.1.1-.3.2-.4.2-.2 0-.3.1-.5.1-.3 0-.6-.1-.9-.2s-.5-.3-.7-.5l.3-.4zm5.9 1V2h-.6v-.4h.6v-.5c0-.2 0-.4.1-.6 0-.1.1-.3.2-.3s.2-.1.3-.2.3 0 .4 0h.4v.5h-.4c-.2 0-.3 0-.4.1v1h.8V2h-.8v3.4h-.6zm2.1-3.1c.1-.2.3-.4.5-.6.2-.2.5-.2.9-.2.2 0 .3 0 .5.1.2 0 .3.1.4.2s.2.2.3.4c.1.1.1.3.1.5v2.4c0 .1 0 .2.1.3h-.5l-.1-.5c-.1.1-.3.3-.5.4-.2.1-.5.2-.8.2-.1 0-.3 0-.4-.1-.1 0-.2-.1-.3-.2-.1-.1-.2-.2-.2-.3-.1-.1-.1-.3-.1-.5s0-.4.1-.6c.1-.2.2-.3.4-.4s.4-.2.7-.3c.3-.1.7-.2 1.1-.3v-.2c0-.3-.1-.4-.2-.5-.1-.1-.3-.2-.6-.2-.1 0-.3 0-.4.1-.1 0-.2.1-.3.1l-.2.2v.2l-.5-.2zm2.2 1c-1.2.2-1.8.6-1.8 1.1 0 .1 0 .2.1.2 0 .1.1.1.1.2.1.1.1.1.2.1h.5c.1 0 .2-.1.3-.1.1-.1.2-.1.3-.2s.2-.2.3-.2V3.3zm3.9-.6l-.3-.6c-.2-.1-.3-.2-.6-.2s-.6.1-.8.4c-.2.3-.3.6-.3 1.1 0 .5.1.9.3 1.1.2.3.4.4.8.4h.3c.1 0 .2-.1.3-.1.1-.1.2-.1.2-.2.1-.1.1-.2.2-.3l.4.2c-.1.2-.2.3-.3.4l-.3.3c-.1.1-.2.1-.4.2s-.3.1-.5.1-.5 0-.7-.1c-.2-.1-.4-.2-.5-.4l-.3-.6c-.1-.2-.1-.5-.1-.8 0-.3 0-.6.1-.8.1-.2.2-.5.3-.6.1-.2.3-.3.5-.4.2-.1.4-.1.7-.1.2 0 .4 0 .5.1.1.1.3.1.4.2l.3.3c.1.1.2.3.2.4h-.4zm1.7-1.1V.3h.5v1.3h.9V2h-.9v2.7c0 .1 0 .2.1.2s.2.1.3.1h.4v.4H158c-.3 0-.5 0-.6-.1-.1-.1-.2-.3-.2-.5V2h-.6v-.4h.7zm5.1 1.9c0 .3 0 .5-.1.8s-.2.5-.3.6c-.1.2-.3.3-.5.4s-.4.2-.7.2c-.3 0-.5-.1-.7-.2s-.4-.2-.5-.4l-.3-.6c-.1-.2-.1-.5-.1-.8 0-.3 0-.5.1-.8s.2-.5.3-.6c.1-.2.3-.3.5-.4.2-.1.4-.2.7-.2.3 0 .5.1.7.2.2.1.4.2.5.4l.3.6c.1.2.1.5.1.8zm-.5 0c0-.5-.1-.9-.3-1.1s-.4-.4-.8-.4c-.3 0-.6.1-.8.4s-.3.6-.3 1.1c0 .5.1.9.3 1.1.2.3.4.4.8.4.3 0 .6-.1.8-.4.2-.2.3-.6.3-1.1zm1.4-1.9h.5v.8c.1-.1.1-.2.2-.3l.3-.3c.1-.1.2-.1.3-.2.1 0 .3-.1.4-.1V2c-.3 0-.6.1-.8.3-.2.2-.3.5-.5.9v2.1h-.5V1.6zm2.7 2.8c.1.2.3.3.5.4s.4.2.6.2c.3 0 .5-.1.6-.2s.2-.3.2-.4-.1-.3-.2-.4c-.1-.1-.3-.2-.4-.2-.2-.1-.3-.1-.5-.2s-.4-.1-.5-.2c-.2-.1-.3-.2-.4-.3-.1-.1-.2-.3-.1-.6 0-.3.1-.6.4-.8.2-.2.5-.3.9-.3.1 0 .2 0 .4.1s.3.1.4.1c.1.1.2.1.3.2.1.1.2.2.2.3l-.4.3c-.1-.2-.3-.3-.4-.4-.2-.1-.3-.1-.5-.1s-.4.1-.5.2c-.1.1-.2.2-.2.4 0 .1.1.2.2.3.1.1.2.1.4.2s.3.1.5.2.4.1.5.2c.2.1.3.2.4.4.1.1.2.3.2.6 0 .2 0 .3-.1.5-.1.1-.2.3-.3.3-.1.1-.3.2-.4.2-.2 0-.3.1-.5.1-.3 0-.6-.1-.9-.2s-.5-.3-.7-.5l.3-.4zm6.3-4.4v.6h-.5V0h.5zm-.5 1.6h.5v3.8h-.5V1.6zm2.4 0v.5c.2-.2.3-.3.5-.4s.4-.2.6-.2c.1 0 .3 0 .4.1.1 0 .2.1.4.2.1.1.2.2.2.3s.1.3.1.5v2.8h-.5V2.6c0-.3-.1-.4-.2-.5-.1-.1-.3-.1-.5-.1-.1 0-.2 0-.3.1-.1 0-.2.1-.3.1-.1.1-.2.1-.3.2s-.2.1-.2.2v2.9h-.5V1.6h.6zm5.7 1.1l-.3-.6c-.2-.1-.3-.2-.6-.2s-.6.1-.8.4c-.2.3-.3.6-.3 1.1 0 .5.1.9.3 1.1.2.3.4.4.8.4h.3c.1 0 .2-.1.3-.1.1-.1.2-.1.2-.2.1-.1.1-.2.2-.3l.4.2c-.1.2-.2.3-.3.4l-.3.3c-.1.1-.2.1-.4.2s-.3.1-.5.1-.5 0-.7-.1c-.2-.1-.4-.2-.5-.4l-.3-.6c-.1-.2-.1-.5-.1-.8 0-.3 0-.6.1-.8.1-.2.2-.5.3-.6.1-.2.3-.3.5-.4.2-.1.4-.1.7-.1.2 0 .4 0 .5.1.1.1.3.1.4.2l.3.3c.1.1.2.3.2.4h-.4zM182 .1v5.3h-.5V.1h.5zm3.5 5.3v-.5c-.2.2-.3.3-.5.4-.2.1-.4.2-.6.2-.1 0-.3 0-.4-.1s-.3-.1-.4-.2c-.1-.1-.2-.2-.2-.3-.1-.1-.1-.3-.1-.5V1.6h.5v2.8c0 .3.1.4.2.5.1.1.3.1.5.1.1 0 .2 0 .3-.1.1 0 .2-.1.3-.1s.2-.1.3-.2c.1-.1.2-.1.2-.2V1.6h.5v3.8h-.6zm4.7-5.3V5.4h-.5V5c-.1.1-.2.2-.4.3-.2.1-.4.1-.6.1-.2 0-.3 0-.5-.1s-.4-.2-.5-.3c-.2-.2-.3-.4-.4-.6-.1-.3-.2-.6-.2-1s0-.7.2-.9.2-.5.4-.6c.1-.2.3-.3.5-.3.2-.1.4-.1.5-.1.2 0 .4 0 .5.1s.3.2.5.3V.1h.5zm-.5 2.4c-.1-.2-.3-.3-.5-.4-.2-.1-.3-.1-.5-.1s-.3 0-.4.1c-.1.1-.2.1-.3.3-.1.1-.2.3-.2.5-.1.2-.1.4-.1.7 0 .5.1.9.3 1.1.2.3.5.4.8.4.2 0 .3 0 .5-.1.1-.1.3-.2.5-.4V2.5zM192 0v.6h-.5V0h.5zm-.5 1.6h.5v3.8h-.5V1.6zm2.4 0v.5c.2-.2.3-.3.5-.4s.4-.2.6-.2c.1 0 .3 0 .4.1.1 0 .2.1.4.2.1.1.2.2.2.3s.1.3.1.5v2.8h-.5V2.6c0-.3-.1-.4-.2-.5-.1-.1-.3-.1-.5-.1-.1 0-.2 0-.3.1-.1 0-.2.1-.3.1-.1.1-.2.1-.3.2s-.2.1-.2.2v2.9h-.5V1.6h.6zm6.4.3h-.3c-.1 0-.2 0-.3.1.1.1.1.2.2.3s.1.3.1.5 0 .4-.1.5-.2.3-.3.4c-.1.1-.3.2-.4.3-.2.1-.4.1-.5.1h-.4c-.1 0-.2 0-.3-.1-.2.1-.3.2-.3.4 0 .1 0 .2.1.2s.1.1.2.1c.5 0 .8 0 1.1.1.3 0 .6.1.7.2.2.1.3.2.4.3.1.1.1.3.1.5 0 .1 0 .3-.1.4l-.3.3c-.1.1-.3.2-.5.2s-.5.1-.8.1c-.5 0-1-.1-1.2-.2-.3-.2-.4-.4-.4-.7 0-.2.1-.3.2-.5.1-.1.3-.2.5-.3-.1 0-.3-.1-.4-.2-.1-.1-.1-.2-.1-.3 0-.2 0-.3.1-.4.1-.1.2-.2.4-.3-.2-.1-.3-.3-.4-.5-.1-.2-.1-.4-.1-.6 0-.2 0-.4.1-.5.1-.2.2-.3.3-.4.1-.1.3-.2.5-.3.2-.1.4-.1.6-.1.2 0 .4 0 .5.1.2 0 .3.1.4.2.1-.1.2-.2.4-.2.1-.1.3-.1.4-.1v.4zm-.4 3.9c0-.2-.1-.3-.3-.4-.2-.1-.5-.1-1-.1-.2 0-.4 0-.5.1-.1 0-.2.1-.3.2l-.2.2c0 .1-.1.1-.1.2v.2c0 .1.1.1.2.2.1 0 .2.1.4.1h1c.1 0 .3-.1.4-.1s.2-.1.2-.2c.1-.2.2-.3.2-.4zm-.4-2.9c0-.3-.1-.5-.2-.7-.2-.2-.4-.2-.7-.2-.3 0-.5.1-.7.3-.2.2-.2.4-.2.6 0 .3.1.5.3.6s.4.3.7.3c.2 0 .3 0 .4-.1.1 0 .2-.1.3-.2.1-.1.1-.2.2-.3-.1-.1-.1-.2-.1-.3zM204 .1V2c.1-.1.3-.2.5-.3s.3-.1.5-.1.3 0 .5.1.3.2.5.3c.1.2.3.4.4.6s.2.6.2.9c0 .4-.1.7-.2 1-.1.3-.2.5-.4.6-.2.2-.3.3-.5.3-.2.1-.4.1-.5.1-.2 0-.4 0-.6-.1-.2-.1-.3-.2-.5-.3l-.1.4h-.4v-.4-5h.6zm0 4.4c.2.2.4.3.5.4.2.1.3.1.5.1.3 0 .6-.1.8-.4.2-.3.3-.6.3-1.1 0-.3 0-.5-.1-.7-.1-.2-.1-.4-.2-.5l-.3-.3c-.1-.1-.3-.1-.4-.1-.2 0-.3 0-.5.1s-.3.2-.5.4v2.1zm5.9.9v-.5c-.2.2-.3.3-.5.4-.2.1-.4.2-.6.2-.1 0-.3 0-.4-.1s-.3-.1-.4-.2c-.1-.1-.2-.2-.2-.3-.1-.1-.1-.3-.1-.5V1.6h.5v2.8c0 .3.1.4.2.5.1.1.3.1.5.1.1 0 .2 0 .3-.1.1 0 .2-.1.3-.1s.2-.1.3-.2c.1-.1.2-.1.2-.2V1.6h.5v3.8h-.6zm1.9-3.8V.3h.5v1.3h.9V2h-.9v2.7c0 .1 0 .2.1.2s.2.1.3.1h.4v.4H212.5c-.3 0-.5 0-.6-.1-.1-.1-.2-.3-.2-.5V2h-.6v-.4h.7zm5.3 0v.5c.2-.2.3-.3.5-.4s.4-.2.6-.2c.1 0 .3 0 .4.1.1 0 .2.1.4.2.1.1.2.2.2.3s.1.3.1.5v2.8h-.5V2.6c0-.3-.1-.4-.2-.5-.1-.1-.3-.1-.5-.1-.1 0-.2 0-.3.1-.1 0-.2.1-.3.1-.1.1-.2.1-.3.2s-.2.1-.2.2v2.9h-.5V1.6h.6zm6.3 1.9c0 .3 0 .5-.1.8s-.2.5-.3.6c-.1.2-.3.3-.5.4s-.4.2-.7.2c-.3 0-.5-.1-.7-.2s-.4-.2-.5-.4l-.3-.6c-.1-.2-.1-.5-.1-.8 0-.3 0-.5.1-.8s.2-.5.3-.6c.1-.2.3-.3.5-.4.2-.1.4-.2.7-.2.3 0 .5.1.7.2.2.1.4.2.5.4l.3.6c.1.2.1.5.1.8zm-.5 0c0-.5-.1-.9-.3-1.1s-.4-.4-.8-.4c-.3 0-.6.1-.8.4s-.3.6-.3 1.1c0 .5.1.9.3 1.1.2.3.4.4.8.4.3 0 .6-.1.8-.4.2-.2.3-.6.3-1.1zm1.6-1.9V.3h.5v1.3h.9V2h-.9v2.7c0 .1 0 .2.1.2s.2.1.3.1h.4v.4H225.2c-.3 0-.5 0-.6-.1-.1-.1-.2-.3-.2-.5V2h-.6v-.4h.7zm5.4-1.5v5.3h-.5V.1h.5zm1.9-.1v.6h-.5V0h.5zm-.6 1.6h.5v3.8h-.5V1.6zm1.8 3.8V1.6h.5v.5c.2-.2.3-.3.5-.4.2-.1.4-.1.6-.1.2 0 .5.1.6.2.2.1.3.3.4.4.2-.2.4-.3.6-.4.2-.1.4-.2.6-.2h.4c.1 0 .2.1.3.2s.2.2.2.4.1.3.1.6v2.7h-.5V2.7c0-.3-.1-.4-.2-.5s-.3-.2-.4-.2c-.1 0-.2 0-.3.1-.1 0-.2.1-.3.1s-.2.1-.2.2-.2.1-.2.2v2.9h-.5V2.7c0-.3-.1-.4-.2-.5s-.3-.2-.4-.2c-.1 0-.2 0-.3.1-.1 0-.2.1-.3.1s-.2.1-.2.2-.2.1-.2.2v2.9h-.6zm6.8-5.4v.6h-.5V0h.5zm-.6 1.6h.5v3.8h-.5V1.6zm2.1 0V.3h.5v1.3h.9V2h-.9v2.7c0 .1 0 .2.1.2s.2.1.3.1h.5v.4H242.1c-.3 0-.5 0-.6-.1-.1-.1-.2-.3-.2-.5V2h-.6v-.4h.6zm5.1 3c-.1.1-.1.2-.2.3l-.3.3c-.1.1-.3.2-.4.2s-.3.1-.6.1-.4 0-.6-.1c-.2-.1-.4-.2-.5-.4s-.3-.4-.4-.6c-.1-.2-.1-.5-.1-.9 0-.3 0-.6.1-.8.1-.2.2-.5.3-.6s.3-.3.5-.4c.2-.1.4-.1.6-.1.2 0 .4 0 .6.1s.3.2.5.3c.1.1.2.3.3.5s.1.5.1.8v.4h-2.5c0 .2 0 .4.1.6.1.2.1.3.2.4.1.1.2.2.4.3.1.1.3.1.4.1.2 0 .4-.1.6-.2.2-.1.3-.3.4-.5l.5.2zm-.7-1.5c0-.4-.1-.6-.2-.9-.2-.2-.4-.3-.7-.3-.3 0-.6.1-.7.3-.2.2-.3.5-.3.9h1.9zm4.5-3V5.4h-.5l-.1-.4c-.1.1-.2.2-.4.3-.2.1-.4.1-.6.1-.2 0-.3 0-.5-.1s-.4-.2-.5-.3c-.2-.2-.3-.4-.4-.6-.1-.3-.2-.6-.2-1s0-.7.2-.9.2-.5.4-.6c.1-.2.3-.3.5-.3.2-.1.4-.1.5-.1.2 0 .4 0 .5.1s.3.2.5.3V.1h.6zm-.6 2.4c-.1-.2-.3-.3-.5-.4-.2-.1-.3-.1-.5-.1s-.3 0-.4.1c-.1.1-.2.1-.3.3-.1.1-.2.3-.2.5-.1.2-.1.4-.1.7 0 .5.1.9.3 1.1.2.3.5.4.8.4.2 0 .3 0 .5-.1.1-.1.3-.2.5-.4V2.5zm4.4-.9V.3h.5v1.3h.9V2h-.9v2.7c0 .1 0 .2.1.2s.2.1.3.1h.5v.4H254.8c-.3 0-.5 0-.6-.1-.2-.1-.2-.2-.2-.5V2h-.6v-.4h.6zm5 1.9c0 .3 0 .5-.1.8s-.2.5-.3.6c-.1.2-.3.3-.5.4s-.4.2-.7.2c-.3 0-.5-.1-.7-.2s-.4-.2-.5-.4l-.3-.6c-.1-.2-.1-.5-.1-.8 0-.3 0-.5.1-.8s.2-.5.3-.6c.1-.2.3-.3.5-.4.2-.1.4-.2.7-.2.3 0 .5.1.7.2.2.1.4.2.5.4l.3.6c.1.2.1.5.1.8zm-.5 0c0-.5-.1-.9-.3-1.1s-.4-.4-.8-.4c-.3 0-.6.1-.8.4s-.3.6-.3 1.1c0 .5.1.9.3 1.1.2.3.4.4.8.4.3 0 .6-.1.8-.4.2-.2.3-.6.3-1.1zm4.4-3.4V2c.1-.1.3-.2.5-.3s.3-.1.5-.1.3 0 .5.1.3.2.5.3c.1.2.3.4.4.6s.2.6.2.9c0 .4-.1.7-.2 1-.1.3-.2.5-.4.6-.2.2-.3.3-.5.3-.2.1-.4.1-.5.1-.2 0-.4 0-.6-.1-.2-.1-.3-.2-.5-.3l-.1.4h-.4v-.4-5h.6zm0 4.4c.2.2.4.3.5.4.1.1.3.1.5.1.3 0 .6-.1.8-.4.2-.3.3-.6.3-1.1 0-.3 0-.5-.1-.7-.1-.2-.1-.4-.2-.5l-.3-.3c-.1-.1-.3-.1-.4-.1-.2 0-.3 0-.5.1s-.3.2-.5.4v2.1zm5.8.9v-.5c-.2.2-.3.3-.5.4-.2.1-.4.2-.6.2-.1 0-.3 0-.4-.1s-.3-.1-.4-.2c-.1-.1-.2-.2-.2-.3-.1-.1-.1-.3-.1-.5V1.6h.5v2.8c0 .3.1.4.2.5.1.1.3.1.5.1.1 0 .2 0 .3-.1.1 0 .2-.1.3-.1s.2-.1.3-.2c.1-.1.2-.1.2-.2V1.6h.5v3.8h-.6zm1.8-1c.1.2.3.3.5.4s.4.2.6.2c.3 0 .5-.1.6-.2.1-.1.2-.3.2-.4s-.1-.3-.2-.4c-.1-.1-.3-.2-.4-.2s-.3-.1-.5-.2-.4-.1-.5-.2c-.2-.1-.3-.2-.4-.3-.1-.1-.2-.3-.1-.6 0-.3.1-.6.4-.8.2-.2.5-.3.9-.3.1 0 .2 0 .4.1s.3.1.4.1c.1.1.2.1.3.2.1.1.2.2.2.3l-.4.3c-.1-.2-.3-.3-.4-.4-.2-.1-.3-.1-.5-.1s-.4.1-.5.2c-.1.1-.2.2-.2.4 0 .1.1.2.2.3.1.1.2.1.4.2s.3.1.5.2.4.1.5.2c.2.1.3.2.4.4.1.1.2.3.2.6 0 .2 0 .3-.1.5-.1.1-.2.3-.3.3-.1.1-.3.2-.4.2-.2 0-.3.1-.5.1-.3 0-.6-.1-.9-.2s-.5-.3-.7-.5l.3-.4zm3.9-4.4v.6h-.5V0h.5zm-.5 1.6h.5v3.8h-.5V1.6zm2.4 0v.5c.2-.2.3-.3.5-.4s.4-.2.6-.2c.1 0 .3 0 .4.1.1 0 .2.1.4.2.1.1.2.2.2.3s.1.3.1.5v2.8h-.5V2.6c0-.3-.1-.4-.2-.5-.1-.1-.3-.1-.5-.1-.1 0-.2 0-.3.1-.1 0-.2.1-.3.1-.1.1-.2.1-.3.2s-.2.1-.2.2v2.9h-.5V1.6h.6zm6.3 3c-.1.1-.1.2-.2.3l-.3.3c-.1.1-.3.2-.4.2s-.3.1-.6.1c-.2 0-.4 0-.6-.1-.2-.1-.4-.2-.5-.4-.2-.2-.3-.4-.4-.6-.1-.2-.1-.5-.1-.9 0-.3 0-.6.1-.8.1-.2.2-.5.3-.6.1-.2.3-.3.5-.4s.4-.1.6-.1c.2 0 .4 0 .6.1s.3.2.5.3c.1.1.2.3.3.5.1.2.1.5.1.8v.4H280c0 .2 0 .4.1.6.1.2.1.3.2.4.1.1.2.2.4.3h.5c.2 0 .4-.1.6-.2.2-.1.3-.3.4-.5l.4.3zm-.6-1.5c0-.4-.1-.6-.2-.9-.2-.2-.4-.3-.7-.3-.3 0-.6.1-.7.3-.2.2-.3.5-.3.9h1.9zm1.7 1.3c.1.2.3.3.5.4s.4.2.6.2c.3 0 .5-.1.6-.2.1-.1.2-.3.2-.4s-.1-.3-.2-.4c-.1-.1-.3-.2-.4-.2s-.3-.1-.5-.2-.4-.1-.5-.2c-.2-.1-.3-.2-.4-.3-.1-.1-.2-.3-.1-.6 0-.3.1-.6.4-.8.2-.2.5-.3.9-.3.1 0 .2 0 .4.1s.3.1.4.1c.1.1.2.1.3.2.1.1.2.2.2.3l-.4.3c-.1-.2-.3-.3-.4-.4-.2-.1-.3-.1-.5-.1s-.4.1-.5.2c-.1.1-.2.2-.2.4 0 .1.1.2.2.3.1.1.2.1.4.2s.3.1.5.2.4.1.5.2c.2.1.3.2.4.4.1.1.2.3.2.6 0 .2 0 .3-.1.5-.1.1-.2.3-.3.3-.1.1-.3.2-.4.2-.2 0-.3.1-.5.1-.3 0-.6-.1-.9-.2s-.5-.3-.7-.5l.3-.4zm3.4 0c.1.2.3.3.5.4s.4.2.6.2c.3 0 .5-.1.6-.2s.2-.3.2-.4 0-.3-.1-.4c-.1-.1-.3-.2-.4-.2-.2-.1-.3-.1-.5-.2s-.4-.1-.5-.2c-.2-.1-.3-.2-.4-.3-.1-.1-.2-.3-.1-.6 0-.3.1-.6.4-.8.2-.2.5-.3.9-.3.1 0 .2 0 .4.1s.3.1.4.1c.1.1.2.1.3.2.1.1.2.2.2.3l-.4.3c-.1-.2-.3-.3-.4-.4-.2-.1-.3-.1-.5-.1s-.4.1-.5.2c-.1.1-.2.2-.2.4 0 .1.1.2.2.3.1.1.2.1.4.2s.3.1.5.2.4.1.5.2c.2.1.3.2.4.4.1.1.2.3.2.6 0 .2 0 .3-.1.5-.1.1-.2.3-.3.3-.1.1-.3.2-.4.2-.2 0-.3.1-.5.1-.3 0-.6-.1-.9-.2s-.5-.3-.7-.5l.2-.4zM.6 11.3V10h.5v1.3H2v.5h-.8v2.7c0 .1 0 .2.1.2s.2.1.3.1h.5v.4H1.5c-.3 0-.5 0-.6-.1-.1-.1-.2-.3-.2-.5v-2.8H0v-.5h.6zm4.6 3.8v-.5c-.2.2-.3.3-.5.4-.2.1-.4.2-.6.2-.1 0-.3 0-.4-.1-.1 0-.3-.1-.4-.2-.1-.1-.2-.2-.2-.3-.1-.1-.1-.3-.1-.5v-2.8h.5V14c0 .3.1.4.2.5.1.1.3.1.5.1.1 0 .2 0 .3-.1.1 0 .2-.1.3-.1.1-.1.2-.1.3-.2.1-.1.2-.1.2-.2v-2.9h.5v3.8h-.6zm1.7-3.8h.5v.7c.1-.1.1-.2.2-.3l.3-.3c.1-.1.2-.1.3-.2s.3-.1.4-.1v.5c-.3 0-.6.1-.8.3s-.2.7-.4 1.1v2.1h-.5v-3.8zm3.1 0v.5c.2-.2.3-.3.5-.4s.4-.2.6-.2c.1 0 .3 0 .4.1.1 0 .2.1.4.2.1.1.2.2.2.3s.1.3.1.5v2.8h-.5v-2.8c0-.3-.1-.4-.2-.5-.1-.1-.3-.1-.5-.1-.1 0-.2 0-.3.1-.1 0-.2.1-.3.1-.1.1-.2.1-.3.2s-.2.1-.2.2v2.9h-.4v-3.8h.5zm6.4 1.9c0 .3 0 .5-.1.8-.1.2-.2.5-.3.6-.1.2-.3.3-.5.4s-.4.2-.7.2c-.3 0-.5-.1-.7-.2s-.4-.2-.5-.4l-.3-.6c-.1-.2-.1-.5-.1-.8 0-.3 0-.5.1-.8.1-.2.2-.5.3-.6.1-.2.3-.3.5-.4.2-.1.4-.2.7-.2.3 0 .5.1.7.2.2.1.4.2.5.4l.3.6c.1.3.1.5.1.8zm-.5 0c0-.5-.1-.9-.3-1.1s-.4-.4-.8-.4c-.3 0-.6.1-.8.4s-.3.6-.3 1.1c0 .5.1.9.3 1.1.2.3.4.4.8.4.3 0 .6-.1.8-.4.2-.2.3-.6.3-1.1zm2.8 1.9H18l-1.2-3.8h.5l1 3.2 1-3.2h.5l-1.1 3.8zm4.7-.8c-.1.1-.1.2-.2.3l-.3.3c-.1.1-.3.2-.4.2s-.3.1-.6.1c-.2 0-.4 0-.6-.1-.2-.1-.4-.2-.5-.4-.2-.2-.3-.4-.4-.6-.1-.2-.1-.5-.1-.9 0-.3 0-.6.1-.8.1-.2.2-.5.3-.6.1-.2.3-.3.5-.4.2-.1.4-.1.6-.1.2 0 .4 0 .6.1s.3.2.5.3c.1.1.2.3.3.5.1.2.1.5.1.8v.4h-2.5c0 .2 0 .4.1.6.1.2.1.3.2.4s.2.2.4.3c.1.1.3.1.4.1.2 0 .4-.1.6-.2s.3-.3.4-.5l.5.2zm-.6-1.5c0-.4-.1-.6-.2-.9-.2-.2-.4-.3-.7-.3-.3 0-.6.1-.7.3-.2.2-.3.5-.3.9h1.9zm1.5-1.5h.5v.7c.1-.1.1-.2.2-.3l.3-.3c.1-.1.2-.1.3-.2s.3-.1.4-.1v.5c-.3 0-.6.1-.8.3s-.3.5-.5.9v2.1h-.5v-3.6zm4.8.7c.1-.2.3-.4.5-.6.2-.2.5-.2.9-.2.2 0 .3 0 .5.1.2 0 .3.1.4.2.1.1.2.2.3.4s.1.3.1.5v2.4c0 .1 0 .2.1.3h-.5l-.1-.5c-.1.1-.3.3-.5.4-.2.1-.5.2-.8.2-.1 0-.3 0-.4-.1-.1 0-.2-.1-.3-.2-.1-.1-.2-.2-.2-.3-.1-.1-.1-.3-.1-.5s0-.4.1-.6c.1-.2.2-.3.4-.4s.4-.2.7-.3c.3-.1.7-.2 1.1-.3v-.2c0-.3-.1-.4-.2-.5-.1-.1-.3-.2-.6-.2-.1 0-.3 0-.4.1-.1 0-.2.1-.3.1l-.2.2c-.1.1-.1.1-.1.2l-.4-.2zm2.2 1c-1.2.2-1.8.6-1.8 1.1 0 .1 0 .2.1.2 0 .1.1.1.1.2.1.1.1.1.2.1h.5c.1 0 .2-.1.3-.1.1-.1.2-.1.3-.2s.2-.2.3-.2V13zm2.2-1.7v.5c.2-.2.3-.3.5-.4s.4-.2.6-.2c.1 0 .3 0 .4.1.1 0 .2.1.4.2.1.1.2.2.2.3s.1.3.1.5v2.8h-.5v-2.8c0-.3-.1-.4-.2-.5-.1-.1-.3-.1-.5-.1-.1 0-.2 0-.3.1-.1 0-.2.1-.3.1-.1.1-.2.1-.3.2s-.2.1-.2.2v2.9H33v-3.8h.5zm6.4-1.5V15.1h-.5l-.1-.4c-.1.1-.2.2-.4.3-.2.1-.4.1-.6.1-.2 0-.3 0-.5-.1s-.4-.2-.5-.3c-.2-.2-.3-.4-.4-.6-.1-.3-.2-.6-.2-1s.1-.7.2-.9.2-.5.4-.6.3-.3.5-.3c.2-.1.4-.1.5-.1.2 0 .4 0 .5.1s.3.2.5.3V9.8h.6zm-.6 2.4c-.1-.2-.3-.3-.5-.4-.2-.1-.3-.1-.5-.1s-.3 0-.4.1c-.1.1-.2.1-.3.3-.1.1-.2.3-.2.5-.1.2-.1.4-.1.7 0 .5.1.9.3 1.1.2.3.5.4.8.4.2 0 .3 0 .5-.1.1-.1.3-.2.5-.4v-2.1zm4.1-.2c.1-.2.3-.4.5-.6.2-.2.5-.2.9-.2.2 0 .3 0 .5.1.2 0 .3.1.4.2.1.1.2.2.3.4s.1.3.1.5v2.4c0 .1 0 .2.1.3h-.5l-.1-.5c-.1.1-.3.3-.5.4-.2.1-.5.2-.8.2-.1 0-.3 0-.4-.1-.1 0-.2-.1-.3-.2-.1-.1-.2-.2-.2-.3-.1-.1-.1-.3-.1-.5s0-.4.1-.6c.1-.2.2-.3.4-.4s.4-.2.7-.3c.3-.1.7-.2 1.1-.3v-.2c0-.3-.1-.4-.2-.5-.1-.1-.3-.2-.6-.2-.1 0-.3 0-.4.1-.1 0-.2.1-.3.1l-.2.2c-.1.1-.1.1-.1.2l-.4-.2zm2.2 1c-1.2.2-1.8.6-1.8 1.1 0 .1 0 .2.1.2 0 .1.1.1.1.2.1.1.1.1.2.1h.5c.1 0 .2-.1.3-.1.1-.1.2-.1.3-.2s.2-.2.3-.2V13zm1.7 1.1c.1.2.3.3.5.4s.4.2.6.2c.3 0 .5-.1.6-.2.1-.1.2-.3.2-.4s-.1-.3-.2-.4-.3-.2-.4-.2c-.2-.1-.3-.1-.5-.2s-.4-.1-.5-.2c-.2-.1-.3-.2-.4-.3-.2-.1-.2-.3-.2-.6s.1-.6.4-.8c.2-.2.5-.3.9-.3.1 0 .2 0 .4.1s.3.1.4.1c.1.1.2.1.3.2s.2.2.2.3l-.4.3c-.1-.2-.3-.3-.4-.4-.2-.1-.3-.1-.5-.1s-.4.1-.5.2c-.1.1-.2.2-.2.4 0 .1.1.2.2.3.1.1.2.1.4.2s.3.1.5.2.4.1.5.2.3.2.4.4c.1.1.2.3.2.6 0 .2 0 .3-.1.5-.1.1-.2.3-.3.3-.1.1-.3.2-.4.2-.2 0-.3.1-.5.1-.3 0-.6-.1-.9-.2s-.5-.3-.7-.5l.4-.4zm3.5 0c.1.2.3.3.5.4s.4.2.6.2c.3 0 .5-.1.6-.2.1-.1.2-.3.2-.4s-.1-.3-.2-.4-.3-.2-.4-.2c-.2-.1-.3-.1-.5-.2s-.4-.1-.5-.2c-.2-.1-.3-.2-.4-.3-.1-.1-.2-.3-.1-.6 0-.3.1-.6.4-.8.2-.2.5-.3.9-.3.1 0 .2 0 .4.1s.3.1.4.1c.1.1.2.1.3.2s.2.2.2.3l-.4.3c-.1-.2-.3-.3-.4-.4-.2-.1-.3-.1-.5-.1s-.4.1-.5.2c-.1.1-.2.2-.2.4 0 .1.1.2.2.3.1.1.2.1.4.2s.3.1.5.2.4.1.5.2.3.2.4.4c.1.1.2.3.2.6 0 .2 0 .3-.1.5-.1.1-.2.3-.3.3-.1.1-.3.2-.4.2-.2 0-.3.1-.5.1-.3 0-.6-.1-.9-.2s-.5-.3-.7-.5l.3-.4zm6.2.2c-.1.1-.1.2-.2.3l-.3.3c-.1.1-.3.2-.4.2s-.3.1-.6.1c-.2 0-.4 0-.6-.1-.2-.1-.4-.2-.5-.4-.2-.2-.3-.4-.4-.6-.1-.2-.1-.5-.1-.9 0-.3 0-.6.1-.8.1-.2.2-.5.3-.6.1-.2.3-.3.5-.4.2-.1.4-.1.6-.1.2 0 .4 0 .6.1s.3.2.5.3c.1.1.2.3.3.5.1.2.1.5.1.8v.4h-2.5c0 .2 0 .4.1.6.1.2.1.3.2.4s.2.2.4.3c.1.1.3.1.4.1.2 0 .4-.1.6-.2s.3-.3.4-.5l.5.2zm-.6-1.5c0-.4-.1-.6-.2-.9-.2-.2-.4-.3-.7-.3-.3 0-.6.1-.7.3-.2.2-.3.5-.3.9h1.9zm1.7-1.5V10h.5v1.3h.9v.5h-.9v2.7c0 .1 0 .2.1.2s.2.1.3.1h.5v.4H58.9c-.3 0-.5 0-.6-.1-.1-.1-.2-.3-.2-.5v-2.8h-.6v-.5h.6zm7 3.8v-.5c-.2.2-.3.3-.5.4-.2.1-.4.2-.6.2-.1 0-.3 0-.4-.1-.1 0-.3-.1-.4-.2-.1-.1-.2-.2-.2-.3-.1-.1-.1-.3-.1-.5v-2.8h.5V14c0 .3.1.4.2.5.1.1.3.1.5.1.1 0 .2 0 .3-.1.1 0 .2-.1.3-.1.1-.1.2-.1.3-.2.1-.1.2-.1.2-.2v-2.9h.5v3.8h-.6zm1.8-1c.1.2.3.3.5.4s.4.2.6.2c.3 0 .5-.1.6-.2.1-.1.2-.3.2-.4s-.1-.3-.2-.4-.3-.2-.4-.2c-.2-.1-.3-.1-.5-.2s-.4-.1-.5-.2c-.2-.1-.3-.2-.4-.3-.1-.1-.2-.3-.1-.6 0-.3.1-.6.4-.8.2-.2.5-.3.9-.3.1 0 .2 0 .4.1s.3.1.4.1c.1.1.2.1.3.2s.2.2.2.3l-.4.3c-.1-.2-.3-.3-.4-.4-.2-.1-.3-.1-.5-.1s-.4.1-.5.2c-.1.1-.2.2-.2.4 0 .1.1.2.2.3.1.1.2.1.4.2s.3.1.5.2.4.1.5.2.3.2.4.4c.1.1.2.3.2.6 0 .2 0 .3-.1.5-.1.1-.2.3-.3.3-.1.1-.3.2-.4.2-.2 0-.3.1-.5.1-.3 0-.6-.1-.9-.2s-.5-.3-.7-.5l.3-.4zm6.2.2c-.1.1-.1.2-.2.3l-.3.3c-.1.1-.3.2-.4.2s-.3.1-.6.1c-.2 0-.4 0-.6-.1-.2-.1-.4-.2-.5-.4-.2-.2-.3-.4-.4-.6-.1-.3-.1-.6-.1-.9 0-.3 0-.6.1-.8.1-.2.2-.5.3-.6.1-.2.3-.3.5-.4.2-.1.4-.1.6-.1.2 0 .4 0 .6.1s.3.2.5.3c.1.1.2.3.3.5.1.2.1.5.1.8v.4h-2.5c0 .2 0 .4.1.6.1.2.1.3.2.4s.2.2.4.3c.1.1.3.1.4.1.2 0 .4-.1.6-.2s.3-.3.4-.5l.5.2zm-.6-1.5c0-.4-.1-.6-.2-.9-.2-.2-.4-.3-.7-.3-.3 0-.6.1-.7.3-.2.2-.3.5-.3.9h1.9zm2.4 1.5v.8h-.7v-.8h.7zm4-4.5h2c.2 0 .4 0 .6.1s.3.2.5.3c.1.1.2.3.3.4.1.2.1.3.1.5 0 .3-.1.5-.2.7-.1.2-.4.4-.7.5.1 0 .3.1.4.2l.3.3c.1.1.2.2.2.4.1.1.1.3.1.5s0 .4-.1.6c-.1.2-.2.3-.3.5-.1.1-.3.2-.6.3-.2.1-.6.1-.9.1H79V9.8zm.6 2.3h1c.2 0 .4 0 .6-.1s.3-.1.4-.2.2-.2.2-.3c0-.1.1-.2.1-.3 0-.6-.3-.9-1-.9h-1.3v1.8zm0 2.5h1.1c.4 0 .8-.1 1-.2.2-.2.3-.4.3-.7 0-.3-.1-.6-.4-.8-.3-.2-.6-.3-1-.3h-1v2zm7-.3c-.1.1-.1.2-.2.3l-.3.3c-.1.1-.3.2-.4.2s-.3.1-.6.1c-.2 0-.4 0-.6-.1-.2-.1-.4-.2-.5-.4-.2-.2-.3-.4-.4-.6-.1-.2-.1-.5-.1-.9 0-.3 0-.6.1-.8.1-.2.2-.5.3-.6.1-.2.3-.3.5-.4.2-.1.4-.1.6-.1.2 0 .4 0 .6.1s.3.2.5.3c.1.1.2.3.3.5.1.2.1.5.1.8v.4h-2.5c0 .2 0 .4.1.6.1.2.1.3.2.4s.2.2.4.3c.1.1.3.1.4.1.2 0 .4-.1.6-.2s.3-.3.4-.5l.5.2zm-.7-1.5c0-.4-.1-.6-.2-.9-.2-.2-.4-.3-.7-.3-.3 0-.6.1-.7.3-.2.2-.3.5-.3.9h1.9zm1.8 2.3v-3.4H87v-.5h.6v-.4c0-.2 0-.4.1-.6 0-.1.1-.3.2-.3.1-.1.2-.1.3-.2h.8v.5h-.4c-.2 0-.3 0-.4.1-.1.1-.1.2-.1.4v.6h.9v.5h-.8v3.4h-.6zm5-1.9c0 .3 0 .5-.1.8-.1.2-.2.5-.3.6-.1.2-.3.3-.5.4s-.4.2-.7.2c-.3 0-.5-.1-.7-.2s-.4-.2-.5-.4l-.3-.6c-.1-.2-.1-.5-.1-.8 0-.3 0-.5.1-.8.1-.2.2-.5.3-.6.1-.2.3-.3.5-.4.2-.1.4-.2.7-.2.3 0 .5.1.7.2.2.1.4.2.5.4l.3.6c.1.3.1.5.1.8zm-.5 0c0-.5-.1-.9-.3-1.1s-.4-.4-.8-.4c-.3 0-.6.1-.8.4s-.2.6-.2 1.1c0 .5.1.9.3 1.1.2.3.4.4.8.4.3 0 .6-.1.8-.4.1-.2.2-.6.2-1.1zm1.4-1.9h.5v.7c.1-.1.1-.2.2-.3l.3-.3c.1-.1.2-.1.3-.2s.3-.1.4-.1v.5c-.3 0-.6.1-.8.3s-.2.7-.4 1.1v2.1h-.5v-3.8zm5.4 3c-.1.1-.1.2-.2.3l-.3.3c-.1.1-.2.1-.4.2s-.3.1-.6.1c-.2 0-.4 0-.6-.1-.2-.1-.4-.2-.5-.4-.2-.2-.3-.4-.4-.6-.1-.2-.1-.5-.1-.9 0-.3 0-.6.1-.8.1-.2.2-.5.3-.6.1-.2.3-.3.5-.4.2-.1.4-.1.6-.1.2 0 .4 0 .6.1s.3.2.5.3c.1.1.2.3.3.5.1.2.1.5.1.8v.4h-2.5c0 .2 0 .4.1.6.1.2.1.3.2.4s.2.2.4.3c.1.1.3.1.4.1.2 0 .4-.1.6-.2s.3-.3.4-.5l.5.2zm-.6-1.5c0-.4-.1-.6-.2-.9-.2-.2-.4-.3-.7-.3-.3 0-.6.1-.7.3-.2.2-.3.5-.3.9h1.9zm3.9 3.7v-5.2h.5v.4c0-.1.1-.1.2-.2s.2-.1.2-.2c.1 0 .2-.1.3-.1h.3c.2 0 .3 0 .5.1s.4.2.5.3.3.4.4.6.2.6.2 1-.1.7-.2.9-.2.5-.4.6c-.1.2-.3.3-.5.3-.2.1-.4.1-.5.1-.2 0-.4 0-.5-.1s-.3-.2-.5-.3v1.8h-.5zm.6-2.3c.1.2.3.3.5.4.2.1.3.1.5.1s.3 0 .4-.1c.1-.1.2-.1.3-.3.1-.1.2-.3.2-.5.1-.2.1-.4.1-.7 0-.5-.1-.9-.3-1.1s-.5-.4-.8-.4c-.2 0-.3 0-.5.1-.1.1-.3.2-.5.4v2.1zm3.5-2.9h.5v.7c.1-.1.1-.2.2-.3l.3-.3c.1-.1.2-.1.3-.2s.3-.1.4-.1v.5c-.3 0-.6.1-.8.3s-.3.5-.5.9v2.1h-.5v-3.6zm5.4 1.9c0 .3 0 .5-.1.8-.1.2-.2.5-.3.6-.1.2-.3.3-.5.4s-.4.2-.7.2c-.3 0-.5-.1-.7-.2s-.4-.2-.5-.4l-.3-.6c-.1-.2-.1-.5-.1-.8 0-.3 0-.5.1-.8.1-.2.2-.5.3-.6.1-.2.3-.3.5-.4.2-.1.4-.2.7-.2.3 0 .5.1.7.2.2.1.4.2.5.4l.3.6c0 .3.1.5.1.8zm-.6 0c0-.5-.1-.9-.3-1.1s-.4-.4-.8-.4c-.3 0-.6.1-.8.4s-.3.6-.3 1.1c0 .5.1.9.3 1.1.2.3.4.4.8.4.3 0 .6-.1.8-.4.2-.2.3-.6.3-1.1zm3.7-.8l-.3-.6c-.1-.1-.3-.2-.6-.2s-.6.1-.8.4c-.2.3-.3.6-.3 1.1 0 .5.1.9.3 1.1.2.3.4.4.8.4h.3c.1 0 .2-.1.3-.1s.2-.1.2-.2.1-.2.2-.3l.4.2c-.1.2-.2.3-.3.4l-.3.3c-.1.1-.2.1-.4.2-.1 0-.3.1-.5.1s-.5 0-.7-.1-.4-.2-.5-.4l-.3-.6c-.1-.2-.1-.5-.1-.8 0-.3 0-.6.1-.8.1-.2.2-.5.3-.6.1-.2.3-.3.5-.4s.4-.1.7-.1c.2 0 .4 0 .5.1.1.1.3.1.4.2l.3.3c.1.1.2.3.2.4h-.4zm4.4 1.9c-.1.1-.1.2-.2.3l-.3.3c-.1.1-.3.2-.4.2s-.3.1-.6.1c-.2 0-.4 0-.6-.1-.2-.1-.4-.2-.5-.4-.2-.2-.3-.4-.4-.6-.1-.2-.1-.5-.1-.9 0-.3 0-.6.1-.8.1-.2.2-.5.3-.6.1-.2.3-.3.5-.4.2-.1.4-.1.6-.1.2 0 .4 0 .6.1s.3.2.5.3c.1.1.2.3.3.5.1.2.1.5.1.8v.4h-2.5c0 .2 0 .4.1.6.1.2.1.3.2.4s.2.2.4.3c.1.1.3.1.4.1.2 0 .4-.1.6-.2s.3-.3.4-.5l.5.2zm-.6-1.5c0-.4-.1-.6-.2-.9-.2-.2-.4-.3-.7-.3-.3 0-.6.1-.7.3-.2.2-.3.5-.3.9h1.9zm4.4 1.5c-.1.1-.1.2-.2.3l-.3.3c-.1.1-.3.2-.4.2s-.3.1-.6.1c-.2 0-.4 0-.6-.1-.2-.1-.4-.2-.5-.4-.2-.2-.3-.4-.4-.6-.1-.2-.1-.5-.1-.9 0-.3 0-.6.1-.8.1-.2.2-.5.3-.6.1-.2.3-.3.5-.4.2-.1.4-.1.6-.1.2 0 .4 0 .6.1s.3.2.5.3c.1.1.2.3.3.5.1.2.1.5.1.8v.4h-2.5c0 .2 0 .4.1.6.1.2.1.3.2.4s.2.2.4.3c.1.1.3.1.4.1.2 0 .4-.1.6-.2s.3-.3.4-.5l.5.2zm-.6-1.5c0-.4-.1-.6-.2-.9-.2-.2-.4-.3-.7-.3-.3 0-.6.1-.7.3-.2.2-.3.5-.3.9h1.9zm4.4-3V15.1h-.5l-.1-.4c-.1.1-.2.2-.4.3-.2.1-.4.1-.6.1-.2 0-.3 0-.5-.1s-.4-.2-.5-.3c-.2-.2-.3-.4-.4-.6-.1-.3-.2-.6-.2-1s.1-.7.2-.9.2-.5.4-.6.3-.3.5-.3c.2-.1.4-.1.5-.1.2 0 .4 0 .5.1s.3.2.5.3V9.8h.6zm-.6 2.4c-.1-.2-.3-.3-.5-.4-.2-.1-.3-.1-.5-.1s-.3 0-.4.1c-.1.1-.2.1-.3.3-.1.1-.2.3-.2.5-.1.2-.1.4-.1.7 0 .5.1.9.3 1.1.2.3.5.4.8.4.2 0 .3 0 .5-.1.1-.1.3-.2.5-.4v-2.1zm2.4-2.5v.6h-.5v-.6h.5zm-.5 1.6h.5v3.8h-.5v-3.8zm2.4 0v.5c.2-.2.3-.3.5-.4s.4-.2.6-.2c.1 0 .3 0 .4.1.1 0 .2.1.4.2.1.1.2.2.2.3s.1.3.1.5v2.8h-.5v-2.8c0-.3-.1-.4-.2-.5-.1-.1-.3-.1-.5-.1-.1 0-.2 0-.3.1-.1 0-.2.1-.3.1-.1.1-.2.1-.3.2s-.2.1-.2.2v2.9h-.5v-3.8h.6zm6.4.4h-.3c-.1 0-.2 0-.3.1.1.1.1.2.2.3.1.1.1.3.1.5s0 .4-.1.5c-.1.2-.2.3-.3.4-.1.1-.3.2-.4.3-.2.1-.4.1-.5.1h-.4c-.1 0-.2 0-.3-.1-.2.1-.3.2-.3.4 0 .1 0 .2.1.2s.1.1.2.1c.5 0 .8 0 1.1.1.3 0 .6.1.7.2.2.1.3.2.4.3s.1.3.1.5c0 .1 0 .3-.1.4l-.3.3c-.1.1-.3.2-.5.2-.2.1-.5.1-.8.1-.5 0-1-.1-1.2-.2-.3-.2-.4-.4-.4-.7 0-.2.1-.3.2-.5.1-.1.3-.2.5-.3-.1 0-.3-.1-.4-.2-.1-.1-.1-.2-.1-.3 0-.2 0-.3.1-.4.1-.1.2-.2.4-.3-.2-.1-.3-.3-.4-.5s-.1-.4-.1-.6c0-.2 0-.4.1-.5.1-.2.2-.3.3-.4.1-.1.3-.2.5-.3.2-.1.4-.1.6-.1.2 0 .4 0 .5.1s.3.1.4.2c.1-.1.2-.2.4-.2.1-.1.3-.1.4-.1v.4zm-.5 3.8c0-.2-.1-.3-.3-.4s-.5-.1-1-.1c-.2 0-.4 0-.5.1-.1 0-.2.1-.3.2l-.2.2c0 .1-.1.1-.1.2v.2c0 .1.1.1.2.2.1 0 .2.1.4.1h1c.1 0 .3-.1.4-.1.1 0 .2-.1.2-.2.2-.2.2-.3.2-.4zm-.3-2.9c0-.3-.1-.5-.2-.7-.2-.2-.4-.2-.7-.2-.3 0-.5.1-.7.3-.2.2-.2.4-.2.6 0 .3.1.5.3.6s.4.3.7.3c.2 0 .3 0 .4-.1.1 0 .2-.1.3-.2.1-.1.1-.2.2-.3-.1-.1-.1-.2-.1-.3zm3.5-1.3h.5l.8 2.9.8-2.9h.5l.8 3 .7-3h.5l-1 3.8h-.5l-.8-3-.8 3h-.5l-1-3.8zm6.1-1.6v.6h-.5v-.6h.5zm-.5 1.6h.5v3.8h-.5v-3.8zm2 0V10h.5v1.3h.9v.5h-.9v2.7c0 .1 0 .2.1.2s.2.1.3.1h.4v.4H147.9c-.3 0-.5 0-.6-.1-.1-.1-.2-.3-.2-.5v-2.8h-.6v-.5h.7zm2.9-1.5v2c.2-.2.3-.3.5-.4s.4-.2.6-.2c.1 0 .3 0 .4.1.1 0 .2.1.4.2.1.1.2.2.2.3s.1.3.1.5v2.8h-.5v-2.8c0-.3-.1-.4-.2-.5-.1-.1-.3-.1-.5-.1-.1 0-.2 0-.3.1-.1 0-.2.1-.3.1-.1.1-.2.1-.3.2s-.2.1-.2.2v2.9h-.5V9.8h.6zm8.4 1.5l-1.3 4.2c-.1.2-.2.4-.2.5s-.2.2-.3.3-.2.1-.4.2H155.7h-.2V16H156.1c.1 0 .2-.1.3-.1l.3-.3c.1-.1.1-.3.2-.5l-1.3-3.9h.6l1 2.9.9-2.9h.4zm3.6 1.9c0 .3 0 .5-.1.8s-.2.5-.3.6c-.1.2-.3.3-.5.4s-.4.2-.7.2c-.3 0-.5-.1-.7-.2s-.4-.2-.5-.4l-.3-.6c-.1-.2-.1-.5-.1-.8 0-.3 0-.5.1-.8s.2-.5.3-.6c.1-.2.3-.3.5-.4.2-.1.4-.2.7-.2.3 0 .5.1.7.2.2.1.4.2.5.4l.3.6c.1.2.1.5.1.8zm-.5 0c0-.5-.1-.9-.3-1.1s-.4-.4-.8-.4c-.3 0-.6.1-.8.4s-.3.6-.3 1.1c0 .5.1.9.3 1.1.2.3.4.4.8.4.3 0 .6-.1.8-.4.2-.2.3-.6.3-1.1zm3.7 1.9v-.5c-.2.2-.3.3-.5.4s-.4.2-.6.2c-.1 0-.3 0-.4-.1-.1 0-.2-.1-.4-.2-.1-.1-.2-.2-.2-.3-.1-.1-.1-.3-.1-.5v-2.8h.5V14c0 .3.1.4.2.5.1.1.3.1.5.1.1 0 .2 0 .3-.1.1 0 .2-.1.3-.1.1-.1.2-.1.3-.2.1-.1.2-.1.2-.2v-2.9h.5v3.8h-.6zm1.7-3.8h.5v.7c.1-.1.1-.2.2-.3l.3-.3c.1-.1.2-.1.3-.2.1 0 .3-.1.4-.1v.5c-.3 0-.6.1-.8.3-.2.2-.3.5-.5.9v2.1h-.4v-3.6zm5 5.2v-5.2h.5v.4c0-.1.1-.1.2-.2s.2-.1.2-.2c.1 0 .2-.1.3-.1h.3c.2 0 .3 0 .5.1s.4.2.5.3.3.4.4.6.2.6.2 1 0 .7-.2.9-.2.5-.4.6c-.1.2-.3.3-.5.3-.2.1-.4.1-.5.1-.2 0-.4 0-.5-.1s-.3-.2-.5-.3v1.8h-.5zm.5-2.3c.1.2.3.3.5.4.2.1.3.1.5.1s.3 0 .4-.1.2-.1.3-.3c.1-.1.2-.3.2-.5.1-.2.1-.4.1-.7 0-.5-.1-.9-.3-1.1-.2-.3-.5-.4-.8-.4-.2 0-.3 0-.5.1-.1.1-.3.2-.5.4v2.1zm5.9.9v-.5c-.2.2-.3.3-.5.4-.2.1-.4.2-.6.2-.1 0-.3 0-.4-.1s-.3-.1-.4-.2c-.1-.1-.2-.2-.2-.3-.1-.1-.1-.3-.1-.5v-2.8h.5V14c0 .3.1.4.2.5.1.1.3.1.5.1.1 0 .2 0 .3-.1.1 0 .2-.1.3-.1s.2-.1.3-.2c.1-.1.2-.1.2-.2v-2.9h.5v3.8h-.6zm1.7-3.8h.5v.7c.1-.1.1-.2.2-.3l.3-.3c.1-.1.2-.1.3-.2.1 0 .3-.1.4-.1v.5c-.3 0-.6.1-.8.3-.2.2-.3.5-.5.9v2.1h-.5v-3.6zm4.7 1.1l-.3-.6c-.1-.2-.3-.2-.6-.2s-.6.1-.8.4c-.2.3-.3.6-.3 1.1 0 .5.1.9.3 1.1.2.3.4.4.8.4h.3c.1 0 .2-.1.3-.1.1-.1.2-.1.2-.2.1-.1.1-.2.2-.3l.4.2c-.1.2-.2.3-.3.4l-.3.3c-.1.1-.2.1-.4.2-.1 0-.3.1-.5.1s-.5 0-.7-.1c-.2-.1-.4-.2-.5-.4l-.3-.6c-.1-.2-.1-.5-.1-.8 0-.3 0-.6.1-.8.1-.2.2-.5.3-.6s.3-.3.5-.4c.2-.1.4-.1.7-.1.2 0 .4 0 .5.1.1.1.3.1.4.2l.3.3c.1.1.2.3.2.4h-.4zm2-2.6v2c.2-.2.3-.3.5-.4s.4-.2.6-.2c.1 0 .3 0 .4.1.1 0 .2.1.4.2.1.1.2.2.2.3s.1.3.1.5v2.8h-.5v-2.8c0-.3-.1-.4-.2-.5-.1-.1-.3-.1-.5-.1-.1 0-.2 0-.3.1-.1 0-.2.1-.3.1-.1.1-.2.1-.3.2s-.2.1-.2.2v2.9h-.5V9.8h.6zm3.4 2.2c.1-.2.3-.4.5-.6.2-.2.5-.2.9-.2.2 0 .3 0 .5.1.2 0 .3.1.4.2.1.1.2.2.3.4.1.1.1.3.1.5v2.4c0 .1 0 .2.1.3h-.5l-.1-.5c-.1.1-.3.3-.5.4-.2.1-.5.2-.8.2-.1 0-.3 0-.4-.1-.1 0-.2-.1-.3-.2-.1-.1-.2-.2-.2-.3-.1-.1-.1-.3-.1-.5s0-.4.1-.6c.1-.2.2-.3.4-.4s.4-.2.7-.3c.3-.1.7-.2 1.1-.3v-.2c0-.3-.1-.4-.2-.5s-.3-.2-.6-.2c-.1 0-.3 0-.4.1-.1 0-.2.1-.3.1l-.2.2c-.1.1-.1.1-.1.2l-.4-.2zm2.2 1c-1.2.2-1.8.6-1.8 1.1 0 .1 0 .2.1.2 0 .1.1.1.1.2s.1.1.2.1h.5c.1 0 .2-.1.3-.1.1-.1.2-.1.3-.2s.2-.2.3-.2V13zm1.7 1.1c.1.2.3.3.5.4s.4.2.6.2c.3 0 .5-.1.6-.2s.2-.3.2-.4-.1-.3-.2-.4c-.1-.1-.3-.2-.4-.2-.2-.1-.3-.1-.5-.2s-.4-.1-.5-.2c-.2-.1-.3-.2-.4-.3-.1-.1-.2-.3-.1-.6 0-.3.1-.6.4-.8.2-.2.5-.3.9-.3.1 0 .2 0 .4.1s.3.1.4.1c.1.1.2.1.3.2.1.1.2.2.2.3l-.4.3c-.1-.2-.3-.3-.4-.4-.2-.1-.3-.1-.5-.1s-.4.1-.5.2c-.1.1-.2.2-.2.4 0 .1.1.2.2.3.1.1.2.1.4.2s.3.1.5.2.4.1.5.2c.2.1.3.2.4.4.1.1.2.3.2.6 0 .2 0 .3-.1.5-.1.1-.2.3-.3.3-.1.1-.3.2-.4.2-.2 0-.3.1-.5.1-.3 0-.6-.1-.9-.2s-.5-.3-.7-.5l.3-.4zm6.2.2c-.1.1-.1.2-.2.3l-.3.3c-.1.1-.3.2-.4.2s-.3.1-.6.1-.4 0-.6-.1c-.2-.1-.4-.2-.5-.4s-.3-.4-.4-.6c-.1-.2-.1-.5-.1-.9 0-.3 0-.6.1-.8.1-.2.2-.5.3-.6s.3-.3.5-.4c.2-.1.4-.1.6-.1.2 0 .4 0 .6.1s.3.2.5.3c.1.1.2.3.3.5s.1.5.1.8v.4h-2.5c0 .2 0 .4.1.6.1.2.1.3.2.4.1.1.2.2.4.3.1.1.3.1.4.1.2 0 .4-.1.6-.2.2-.1.3-.3.4-.5l.5.2zm-.6-1.5c0-.4-.1-.6-.2-.9-.2-.2-.4-.3-.7-.3-.3 0-.6.1-.7.3-.2.2-.3.5-.3.9h1.9zm2.4 2.3l-.5 1.1h-.3l.3-1.1h-.3v-.8h.7v.8zm6.3-3.8l-1.3 4.2c-.1.2-.2.4-.2.5s-.2.2-.3.3-.2.1-.4.2H205.6h-.2V16H206c.1 0 .2-.1.3-.1l.3-.3c.1-.1.1-.3.2-.5l-1.3-3.9h.6l1 2.9.9-2.9h.4zm3.6 1.9c0 .3 0 .5-.1.8-.1.2-.2.5-.3.6-.1.2-.3.3-.5.4s-.4.2-.7.2-.5-.1-.7-.2-.4-.2-.5-.4l-.3-.6c-.1-.2-.1-.5-.1-.8 0-.3 0-.5.1-.8.1-.2.2-.5.3-.6.1-.2.3-.3.5-.4.2-.1.4-.2.7-.2s.5.1.7.2c.2.1.4.2.5.4l.3.6c.1.3.1.5.1.8zm-.5 0c0-.5-.1-.9-.3-1.1s-.4-.4-.8-.4-.6.1-.8.4-.3.6-.3 1.1c0 .5.1.9.3 1.1.2.3.4.4.8.4s.6-.1.8-.4c.2-.2.3-.6.3-1.1zm3.7 1.9v-.5c-.2.2-.3.3-.5.4s-.4.2-.6.2c-.1 0-.3 0-.4-.1-.1 0-.2-.1-.4-.2-.1-.1-.2-.2-.2-.3-.1-.1-.1-.3-.1-.5v-2.8h.5V14c0 .3.1.4.2.5.1.1.3.1.5.1.1 0 .2 0 .3-.1.1 0 .2-.1.3-.1.1-.1.2-.1.3-.2.1-.1.2-.1.2-.2v-2.9h.5v3.8h-.6zm4.2-1c.1.2.3.3.5.4s.4.2.6.2c.3 0 .5-.1.6-.2.1-.1.2-.3.2-.4s-.1-.3-.2-.4c-.1-.1-.3-.2-.4-.2s-.3-.1-.5-.2-.4-.1-.5-.2c-.2-.1-.3-.2-.4-.3-.1-.1-.2-.3-.1-.6 0-.3.1-.6.4-.8.2-.2.5-.3.9-.3.1 0 .2 0 .4.1s.3.1.4.1c.1.1.2.1.3.2.1.1.2.2.2.3l-.4.3c-.1-.2-.3-.3-.4-.4-.2-.1-.3-.1-.5-.1s-.4.1-.5.2c-.1.1-.2.2-.2.4 0 .1.1.2.2.3.1.1.2.1.4.2s.3.1.5.2.4.1.5.2c.2.1.3.2.4.4.1.1.2.3.2.6 0 .2 0 .3-.1.5-.1.1-.2.3-.3.3-.1.1-.3.2-.4.2-.2 0-.3.1-.5.1-.3 0-.6-.1-.9-.2s-.5-.3-.7-.5l.3-.4zm3.9-4.3v2c.2-.2.3-.3.5-.4s.4-.2.6-.2c.1 0 .3 0 .4.1.1 0 .2.1.4.2.1.1.2.2.2.3s.1.3.1.5v2.8h-.5v-2.8c0-.3-.1-.4-.2-.5-.1-.1-.3-.1-.5-.1-.1 0-.2 0-.3.1-.1 0-.2.1-.3.1-.1.1-.2.1-.3.2s-.2.1-.2.2v2.9h-.5V9.8h.6zm6.3 3.4c0 .3 0 .5-.1.8-.1.2-.2.5-.3.6-.1.2-.3.3-.5.4s-.4.2-.7.2-.5-.1-.7-.2-.4-.2-.5-.4l-.3-.6c-.1-.2-.1-.5-.1-.8 0-.3 0-.5.1-.8.1-.2.2-.5.3-.6.1-.2.3-.3.5-.4.2-.1.4-.2.7-.2s.5.1.7.2c.2.1.4.2.5.4l.3.6c.1.3.1.5.1.8zm-.5 0c0-.5-.1-.9-.3-1.1s-.4-.4-.8-.4-.6.1-.8.4-.3.6-.3 1.1c0 .5.1.9.3 1.1.2.3.4.4.8.4s.6-.1.8-.4c.2-.2.3-.6.3-1.1zm3.7 1.9v-.5c-.2.2-.3.3-.5.4-.2.1-.4.2-.6.2-.1 0-.3 0-.4-.1s-.3-.1-.4-.2c-.1-.1-.2-.2-.2-.3-.1-.1-.1-.3-.1-.5v-2.8h.5V14c0 .3.1.4.2.5.1.1.3.1.5.1.1 0 .2 0 .3-.1.1 0 .2-.1.3-.1s.2-.1.3-.2c.1-.1.2-.1.2-.2v-2.9h.5v3.8h-.6zm2.4-5.3v5.3h-.5V9.8h.5zm4.2 0V15.1h-.5l-.1-.4c-.1.1-.2.2-.4.3-.2.1-.4.1-.6.1-.2 0-.3 0-.5-.1s-.4-.2-.5-.3c-.2-.2-.3-.4-.4-.6-.1-.3-.2-.6-.2-1s0-.7.2-.9.2-.5.4-.6c.1-.2.3-.3.5-.3.2-.1.4-.1.5-.1.2 0 .4 0 .5.1s.3.2.5.3V9.8h.6zm-.5 2.4c-.1-.2-.3-.3-.5-.4-.2-.1-.3-.1-.5-.1s-.3 0-.4.1c-.1.1-.2.1-.3.3-.1.1-.2.3-.2.5-.1.2-.1.4-.1.7 0 .5.1.9.3 1.1.2.3.5.4.8.4.2 0 .3 0 .5-.1.1-.1.3-.2.5-.4v-2.1zm4.2 1.9c.1.2.3.3.5.4s.4.2.6.2c.3 0 .5-.1.6-.2.1-.1.2-.3.2-.4s-.1-.3-.2-.4c-.1-.1-.3-.2-.4-.2s-.3-.1-.5-.2-.4-.1-.5-.2c-.2-.1-.3-.2-.4-.3-.1-.1-.2-.3-.1-.6 0-.3.1-.6.4-.8.2-.2.5-.3.9-.3.1 0 .2 0 .4.1s.3.1.4.1c.1.1.2.1.3.2.1.1.2.2.2.3l-.4.3c-.1-.2-.3-.3-.4-.4-.2-.1-.3-.1-.5-.1s-.4.1-.5.2c-.1.1-.2.2-.2.4 0 .1.1.2.2.3.1.1.2.1.4.2s.3.1.5.2.4.1.5.2c.2.1.3.2.4.4.1.1.2.3.2.6 0 .2 0 .3-.1.5-.1.1-.2.3-.3.3-.1.1-.3.2-.4.2-.2 0-.3.1-.5.1-.3 0-.6-.1-.9-.2s-.5-.3-.7-.5l.3-.4zm6.2.2c-.1.1-.1.2-.2.3l-.3.3c-.1.1-.3.2-.4.2s-.3.1-.6.1-.4 0-.6-.1c-.2-.1-.4-.2-.5-.4s-.3-.4-.4-.6c-.1-.2-.1-.5-.1-.9 0-.3 0-.6.1-.8.1-.2.2-.5.3-.6s.3-.3.5-.4c.2-.1.4-.1.6-.1.2 0 .4 0 .6.1s.3.2.5.3c.1.1.2.3.3.5s.1.5.1.8v.4h-2.5c0 .2 0 .4.1.6.1.2.1.3.2.4.1.1.2.2.4.3.1.1.3.1.4.1.2 0 .4-.1.6-.2.2-.1.3-.3.4-.5l.5.2zm-.6-1.5c0-.4-.1-.6-.2-.9-.2-.2-.4-.3-.7-.3-.3 0-.6.1-.7.3-.2.2-.3.5-.3.9h1.9zm4.4 1.5c-.1.1-.1.2-.2.3l-.3.3c-.1.1-.3.2-.4.2s-.3.1-.6.1-.4 0-.6-.1c-.2-.1-.4-.2-.5-.4s-.3-.4-.4-.6c-.1-.2-.1-.5-.1-.9 0-.3 0-.6.1-.8.1-.2.2-.5.3-.6s.3-.3.5-.4c.2-.1.4-.1.6-.1.2 0 .4 0 .6.1s.3.2.5.3c.1.1.2.3.3.5s.1.5.1.8v.4h-2.5c0 .2 0 .4.1.6.1.2.1.3.2.4.1.1.2.2.4.3.1.1.3.1.4.1.2 0 .4-.1.6-.2.2-.1.3-.3.4-.5l.5.2zm-.7-1.5c0-.4-.1-.6-.2-.9-.2-.2-.4-.3-.7-.3-.3 0-.6.1-.7.3-.2.2-.3.5-.3.9h1.9zm1.6-3h.5v3.4l1.5-1.9h.6l-1.1 1.4 1.3 2.4h-.6l-1-2-.7.8V15h-.5V9.8zm6.1 4.3c.1.2.3.3.5.4s.4.2.6.2c.3 0 .5-.1.6-.2s.2-.3.2-.4-.1-.3-.2-.4c-.1-.1-.3-.2-.4-.2-.2-.1-.3-.1-.5-.2s-.4-.1-.5-.2c-.2-.1-.3-.2-.4-.3-.1-.1-.2-.3-.1-.6 0-.3.1-.6.4-.8.2-.2.5-.3.9-.3.1 0 .2 0 .4.1s.3.1.4.1c.1.1.2.1.3.2.1.1.2.2.2.3l-.4.3c-.1-.2-.3-.3-.4-.4-.2-.1-.3-.1-.5-.1s-.4.1-.5.2c-.1.1-.2.2-.2.4 0 .1.1.2.2.3.1.1.2.1.4.2s.3.1.5.2.4.1.5.2c.2.1.3.2.4.4.1.1.2.3.2.6 0 .2 0 .3-.1.5-.1.1-.2.3-.3.3-.1.1-.3.2-.4.2-.2 0-.3.1-.5.1-.3 0-.6-.1-.9-.2s-.5-.3-.7-.5l.3-.4zm3.3 2.4v-5.2h.5v.4c0-.1.1-.1.2-.2s.2-.1.2-.2c.1 0 .2-.1.3-.1h.3c.2 0 .3 0 .5.1s.4.2.5.3.3.4.4.6.2.6.2 1-.1.7-.2.9-.2.5-.4.6c-.2.2-.3.3-.5.3-.2.1-.4.1-.5.1-.2 0-.4 0-.5-.1s-.3-.2-.5-.3v1.8h-.5zm.5-2.3c.1.2.3.3.5.4.2.1.3.1.5.1s.3 0 .4-.1c.1-.1.2-.1.3-.3.1-.1.2-.3.2-.5.1-.2.1-.4.1-.7 0-.5-.1-.9-.3-1.1-.2-.3-.5-.4-.8-.4-.2 0-.3 0-.5.1-.1.1-.3.2-.5.4v2.1zm6.5.1c-.1.1-.1.2-.2.3l-.3.3c-.1.1-.3.2-.4.2s-.3.1-.6.1c-.2 0-.4 0-.6-.1-.2-.1-.4-.2-.5-.4-.2-.2-.3-.4-.4-.6-.1-.2-.1-.5-.1-.9 0-.3 0-.6.1-.8.1-.2.2-.5.3-.6.1-.2.3-.3.5-.4s.4-.1.6-.1c.2 0 .4 0 .6.1s.3.2.5.3c.1.1.2.3.3.5.1.2.1.5.1.8v.4h-2.5c0 .2 0 .4.1.6.1.2.1.3.2.4.1.1.2.2.4.3.1.1.3.1.4.1.2 0 .4-.1.6-.2.2-.1.3-.3.4-.5l.5.2zm-.7-1.5c0-.4-.1-.6-.2-.9-.2-.2-.4-.3-.7-.3-.3 0-.6.1-.7.3-.2.2-.3.5-.3.9h1.9zm3.8-.4l-.3-.6c-.1-.2-.3-.2-.6-.2s-.6.1-.8.4c-.2.3-.3.6-.3 1.1 0 .5.1.9.3 1.1.2.3.4.4.8.4h.3c.1 0 .2-.1.3-.1.1-.1.2-.1.2-.2.1-.1.1-.2.2-.3l.4.2c-.1.2-.2.3-.3.4l-.3.3c-.1.1-.2.1-.4.2-.1 0-.3.1-.5.1s-.5 0-.7-.1c-.2-.1-.4-.2-.5-.4l-.3-.6c-.1-.2-.1-.5-.1-.8 0-.3 0-.6.1-.8.1-.2.2-.5.3-.6s.3-.3.5-.4c.2-.1.4-.1.7-.1.2 0 .4 0 .5.1.1.1.3.1.4.2l.3.3c.1.1.2.3.2.4h-.4zm2.1-2.7v.6h-.5v-.6h.5zm-.5 1.6h.5v3.8h-.5v-3.8zm1.6.7c.1-.2.3-.4.5-.6.2-.2.5-.2.9-.2.2 0 .3 0 .5.1.2 0 .3.1.4.2.1.1.2.2.3.4.1.1.1.3.1.5v2.4c0 .1 0 .2.1.3h-.5l-.1-.5c-.1.1-.3.3-.5.4-.2.1-.5.2-.8.2-.1 0-.3 0-.4-.1-.1 0-.2-.1-.3-.2-.1-.1-.2-.2-.2-.3-.1-.1-.1-.3-.1-.5s0-.4.1-.6c.1-.2.2-.3.4-.4s.4-.2.7-.3c.3-.1.7-.2 1.1-.3v-.2c0-.3-.1-.4-.2-.5s-.3-.2-.6-.2c-.1 0-.3 0-.4.1-.1 0-.2.1-.3.1l-.2.2c-.1.1-.1.1-.1.2l-.4-.2zm2.3 1c-1.2.2-1.8.6-1.8 1.1 0 .1 0 .2.1.2 0 .1.1.1.1.2s.1.1.2.1h.5c.1 0 .2-.1.3-.1.1-.1.2-.1.3-.2s.2-.2.3-.2V13zm2.2-3.2v5.3h-.5V9.8h.5zm1.9-.1v.6h-.5v-.6h.5zm-.5 1.6h.5v3.8h-.5v-3.8zm1.9 2.8c.1.2.3.3.5.4s.4.2.6.2c.3 0 .5-.1.6-.2s.2-.3.2-.4-.1-.3-.2-.4c-.1-.1-.3-.2-.4-.2-.2-.1-.3-.1-.5-.2s-.4-.1-.5-.2c-.2-.1-.3-.2-.4-.3-.1-.1-.2-.3-.1-.6 0-.3.1-.6.4-.8.2-.2.5-.3.9-.3.1 0 .2 0 .4.1s.3.1.4.1c.1.1.2.1.3.2.1.1.2.2.2.3l-.4.3c-.1-.2-.3-.3-.4-.4-.2-.1-.3-.1-.5-.1s-.4.1-.5.2c-.1.1-.2.2-.2.4 0 .1.1.2.2.3.1.1.2.1.4.2s.3.1.5.2.4.1.5.2c.2.1.3.2.4.4.1.1.2.3.2.6 0 .2 0 .3-.1.5-.1.1-.2.3-.3.3-.1.1-.3.2-.4.2-.2 0-.3.1-.5.1-.3 0-.6-.1-.9-.2s-.5-.3-.7-.5l.3-.4zm3.6-2.8V10h.5v1.3h.9v.5h-.9v2.7c0 .1 0 .2.1.2s.2.1.3.1h.4v.4H288.8c-.3 0-.5 0-.6-.1-.1-.1-.2-.3-.2-.5v-2.8h-.6v-.5h.7zM.6 21v-1.3h.5V21H2v.5h-.8v2.7c0 .1 0 .2.1.2s.2.1.3.1h.5v.4H1.5c-.3 0-.5 0-.6-.1-.1-.1-.2-.3-.2-.5v-2.8H0V21h.6zm2.2.7c.1-.2.3-.4.5-.6.2-.2.5-.2.9-.2.2 0 .3 0 .5.1.2 0 .3.1.4.2.1.1.2.2.3.4s.1.3.1.5v2.4c0 .1 0 .2.1.3h-.5l-.1-.5c-.1.1-.3.3-.5.4-.2.1-.5.2-.8.2-.1 0-.3 0-.4-.1-.1 0-.2-.1-.3-.2-.1-.1-.2-.2-.2-.3-.1-.1-.1-.3-.1-.5s0-.4.1-.6c.1-.2.2-.3.4-.4s.4-.2.7-.3c.3-.1.7-.2 1.1-.3V22c0-.3-.1-.4-.2-.5-.1-.1-.3-.2-.6-.2-.1 0-.3 0-.4.1-.1 0-.2.1-.3.1l-.2.2c-.1.1-.1.1-.1.2l-.4-.2zm2.3 1.1c-1.2.2-1.8.6-1.8 1.1 0 .1 0 .2.1.2 0 .1.1.1.1.2.1.1.1.1.2.1h.5c.1 0 .2-.1.3-.1.1-.1.2-.1.3-.2s.2-.2.3-.2v-1.1zm2.8-.4l.8-1.4h.6l-1.1 1.8 1.2 2h-.6l-1-1.6-.9 1.6h-.6l1.2-2L6.4 21H7l.9 1.4zm3.2-.7c.1-.2.3-.4.5-.6.2-.2.5-.2.9-.2.2 0 .3 0 .5.1.2 0 .3.1.4.2.1.1.2.2.3.4s.1.3.1.5v2.4c0 .1 0 .2.1.3h-.5l-.1-.5c-.1.1-.3.3-.5.4-.2.1-.5.2-.8.2-.1 0-.3 0-.4-.1-.1 0-.2-.1-.3-.2-.1-.1-.2-.2-.2-.3-.1-.1-.1-.3-.1-.5s0-.4.1-.6c.1-.2.2-.3.4-.4s.4-.2.7-.3c.3-.1.7-.2 1.1-.3V22c0-.3-.1-.4-.2-.5-.1-.1-.3-.2-.6-.2-.1 0-.3 0-.4.1-.1 0-.2.1-.3.1l-.2.2c-.1.1-.1.1-.1.2l-.4-.2zm2.2 1.1c-1.2.2-1.8.6-1.8 1.1 0 .1 0 .2.1.2 0 .1.1.1.1.2.1.1.1.1.2.1h.5c.1 0 .2-.1.3-.1.1-.1.2-.1.3-.2s.2-.2.3-.2v-1.1zm2.2-1.8v.5c.2-.2.3-.3.5-.4s.4-.2.6-.2c.1 0 .3 0 .4.1.1 0 .2.1.4.2.1.1.2.2.2.3s.1.3.1.5v2.8h-.5V22c0-.3-.1-.4-.2-.5-.1-.1-.3-.1-.5-.1-.1 0-.2 0-.3.1-.1 0-.2.1-.3.1-.1.1-.2.1-.3.2s-.2.1-.2.2v2.9H15V21h.5zm6.4-1.5V24.8h-.5l-.1-.4c-.1.1-.2.2-.4.3-.2.1-.4.1-.6.1-.2 0-.3 0-.5-.1s-.4-.2-.5-.3c-.2-.2-.3-.4-.4-.6-.1-.3-.2-.6-.2-1s.1-.7.2-.9.2-.5.4-.6.3-.3.5-.3c.2-.1.4-.1.5-.1.2 0 .4 0 .5.1s.3.2.5.3v-1.9h.6zm-.6 2.4c-.1-.2-.3-.3-.5-.4-.2-.1-.3-.1-.5-.1s-.3 0-.4.1c-.1.1-.2.1-.3.3-.1.1-.2.3-.2.5-.1.2-.1.4-.1.7 0 .5.1.9.3 1.1.2.3.5.4.8.4.2 0 .3 0 .5-.1.1-.1.3-.2.5-.4v-2.1zm2.8-.2c.1-.2.3-.4.5-.6.2-.2.5-.2.9-.2.2 0 .3 0 .5.1.2 0 .3.1.4.2.1.1.2.2.3.4s.1.3.1.5v2.4c0 .1 0 .2.1.3h-.5l-.1-.5c-.1.1-.3.3-.5.4-.2.1-.5.2-.8.2-.1 0-.3 0-.4-.1-.1 0-.2-.1-.3-.2-.1-.1-.2-.2-.2-.3-.1-.1-.1-.3-.1-.5s0-.4.1-.6c.1-.2.2-.3.4-.4s.4-.2.7-.3c.3-.1.7-.2 1.1-.3V22c0-.3-.1-.4-.2-.5-.1-.1-.3-.2-.6-.2-.1 0-.3 0-.4.1-.1 0-.2.1-.3.1l-.2.2c-.1.1-.1.1-.1.2l-.4-.2zm2.2 1.1c-1.2.2-1.8.6-1.8 1.1 0 .1 0 .2.1.2 0 .1.1.1.1.2.1.1.1.1.2.1h.5c.1 0 .2-.1.3-.1.1-.1.2-.1.3-.2s.2-.2.3-.2v-1.1zm3.9-.7l-.3-.6c-.1-.1-.3-.2-.6-.2s-.6.1-.8.4c-.2.3-.3.6-.3 1.1 0 .5.1.9.3 1.1.2.3.4.4.8.4h.3c.1 0 .2-.1.3-.1s.2-.1.2-.2.1-.2.2-.3l.4.2c-.1.2-.2.3-.3.4l-.3.3c-.1.1-.2.1-.4.2-.1 0-.3.1-.5.1s-.5 0-.7-.1-.4-.2-.5-.4l-.3-.6c-.1-.2-.1-.5-.1-.8 0-.3 0-.6.1-.8.1-.2.2-.5.3-.6.1-.2.3-.3.5-.4s.4-.1.7-.1c.2 0 .4 0 .5.1.1.1.3.1.4.2l.3.3c.1.1.2.3.2.4h-.4zm3.7 0l-.3-.6c-.1-.1-.3-.2-.6-.2s-.6.1-.8.4c-.2.3-.2.7-.2 1.2s.1.9.3 1.1c.2.3.4.4.8.4h.3c.1 0 .2-.1.3-.1s.2-.1.2-.2.1-.2.2-.3l.4.2c-.1.2-.2.3-.3.4l-.3.3c-.1.1-.2.1-.4.2-.1 0-.3.1-.5.1s-.5 0-.7-.1-.4-.2-.5-.4l-.3-.6c-.1-.2-.1-.5-.1-.8 0-.3 0-.6.1-.8.1-.2.2-.5.3-.6.1-.2.3-.3.5-.4s.4-.1.7-.1c.2 0 .4 0 .5.1.1.1.3.1.4.2l.3.3c.1.1.2.3.2.4l-.5-.1zm4.4.8c0 .3 0 .5-.1.8-.1.2-.2.5-.3.6-.1.2-.3.3-.5.4s-.4.2-.7.2c-.3 0-.5-.1-.7-.2s-.4-.2-.5-.4l-.3-.6c-.1-.2-.1-.5-.1-.8 0-.3 0-.5.1-.8.1-.2.2-.5.3-.6.1-.2.3-.3.5-.4.2-.1.4-.2.7-.2.3 0 .5.1.7.2.2.1.4.2.5.4l.3.6c0 .3.1.5.1.8zm-.6 0c0-.5-.1-.9-.3-1.1s-.4-.4-.8-.4c-.3 0-.6.1-.8.4s-.3.6-.3 1.1c0 .5.1.9.3 1.1.2.3.4.4.8.4.3 0 .6-.1.8-.4.2-.2.3-.6.3-1.1zm3.8 1.9v-.5c-.2.2-.3.3-.5.4-.2.1-.4.2-.6.2-.1 0-.3 0-.4-.1-.1 0-.3-.1-.4-.2-.1-.1-.2-.2-.2-.3-.1-.1-.1-.3-.1-.5V21h.5v2.8c0 .3.1.4.2.5.1.1.3.1.5.1.1 0 .2 0 .3-.1.1 0 .2-.1.3-.1.1-.1.2-.1.3-.2.1-.1.2-.1.2-.2V21h.4v3.8h-.5zm2.3-3.8v.5c.2-.2.3-.3.5-.4s.4-.2.6-.2c.1 0 .3 0 .4.1.1 0 .2.1.4.2.1.1.2.2.2.3s.1.3.1.5v2.8h-.5V22c0-.3-.1-.4-.2-.5-.1-.1-.3-.1-.5-.1-.1 0-.2 0-.3.1-.1 0-.2.1-.3.1-.1.1-.2.1-.3.2s-.2.1-.2.2v2.9h-.5V21h.6zm3.7 0v-1.3h.5V21h.9v.5H48v2.7c0 .1 0 .2.1.2s.2.1.3.1h.5v.4H48.3c-.3 0-.5 0-.6-.1-.1-.1-.2-.3-.2-.5v-2.8h-.6V21h.6zm2.9-1.6v.6h-.5v-.6h.5zm-.6 1.6h.5v3.8h-.5V21zm2.4 0v.5c.2-.2.3-.3.5-.4s.4-.2.6-.2c.1 0 .3 0 .4.1.1 0 .2.1.4.2.1.1.2.2.2.3s.1.3.1.5v2.8h-.5V22c0-.3-.1-.4-.2-.5-.1-.1-.3-.1-.5-.1-.1 0-.2 0-.3.1-.1 0-.2.1-.3.1-.1.1-.2.1-.3.2s-.2.1-.2.2v2.9h-.5V21h.6zm6.5.4h-.3c-.1 0-.2 0-.3.1.1.1.1.2.2.3.1.1.1.3.1.5s0 .4-.1.5c-.1.2-.2.3-.3.4-.1.1-.3.2-.4.3-.2.1-.4.1-.5.1h-.4c-.1 0-.2 0-.3-.1-.2.1-.3.2-.3.4 0 .1 0 .2.1.2s.1.1.2.1c.5 0 .8 0 1.1.1.3 0 .6.1.7.2.2.1.3.2.4.3s.1.3.1.5c0 .1 0 .3-.1.4l-.3.3c-.1.1-.3.2-.5.2-.2.1-.5.1-.8.1-.5 0-1-.1-1.2-.2-.3-.2-.4-.4-.4-.7 0-.2.1-.3.2-.5.1-.1.3-.2.5-.3-.1 0-.3-.1-.4-.2-.1-.1-.1-.2-.1-.3 0-.2 0-.3.1-.4.1-.1.2-.2.4-.3-.2-.1-.3-.3-.4-.5s-.1-.4-.1-.6c0-.2 0-.4.1-.5.1-.2.2-.3.3-.4.1-.1.3-.2.5-.3.2-.1.4-.1.6-.1.2 0 .4 0 .5.1s.3.1.4.2c.1-.1.2-.2.4-.2.1-.1.3-.1.4-.1v.4zm-.5 3.8c0-.2-.1-.3-.3-.4s-.5-.1-1-.1c-.2 0-.4 0-.5.1-.1 0-.2.1-.3.2l-.2.2c0 .1-.1.1-.1.2v.2c0 .1.1.1.2.2.1 0 .2.1.4.1h1c.1 0 .3-.1.4-.1.1 0 .2-.1.2-.2.2-.2.2-.3.2-.4zm-.3-2.9c0-.3-.1-.5-.2-.7-.2-.2-.4-.2-.7-.2-.3 0-.5.1-.7.3-.3.1-.3.3-.3.6s.1.5.3.6.4.3.7.3c.2 0 .3 0 .4-.1.1 0 .2-.1.3-.2.1-.1.1-.2.2-.3-.1-.1 0-.2 0-.3zm2.5-.6c.1-.2.3-.4.5-.6.2-.2.5-.2.9-.2.2 0 .3 0 .5.1.2 0 .3.1.4.2.1.1.2.2.3.4s.1.3.1.5v2.4c0 .1 0 .2.1.3h-.5l-.1-.5c-.1.1-.3.3-.5.4-.2.1-.5.2-.8.2-.1 0-.3 0-.4-.1-.1 0-.2-.1-.3-.2-.1-.1-.2-.2-.2-.3-.1-.1-.1-.3-.1-.5s0-.4.1-.6c.1-.2.2-.3.4-.4s.4-.2.7-.3c.3-.1.7-.2 1.1-.3V22c0-.3-.1-.4-.2-.5-.1-.1-.3-.2-.6-.2-.1 0-.3 0-.4.1-.1 0-.2.1-.3.1l-.2.2c-.1.1-.1.1-.1.2l-.4-.2zm2.2 1.1c-1.2.2-1.8.6-1.8 1.1 0 .1 0 .2.1.2 0 .1.1.1.1.2.1.1.1.1.2.1h.5c.1 0 .2-.1.3-.1.1-.1.2-.1.3-.2s.2-.2.3-.2v-1.1zm4.5-3.3V24.8h-.5l-.1-.4c-.1.1-.2.2-.4.3-.2.1-.4.1-.6.1-.2 0-.3 0-.5-.1s-.4-.2-.5-.3c-.2-.2-.3-.4-.4-.6-.1-.3-.2-.6-.2-1s.1-.7.2-.9.2-.5.4-.6.3-.3.5-.3c.2-.1.4-.1.5-.1.2 0 .4 0 .5.1s.3.2.5.3v-1.9h.6zm-.5 2.4c-.1-.2-.3-.3-.5-.4-.2-.1-.3-.1-.5-.1s-.3 0-.4.1c-.1.1-.2.1-.3.3-.1.1-.2.3-.2.5-.1.2-.1.4-.1.7 0 .5.1.9.3 1.1.2.3.5.4.8.4.2 0 .3 0 .5-.1.1-.1.3-.2.5-.4v-2.1zm3.2 2.9h-.7L67.9 21h.5l1 3.2 1-3.2h.6l-1.2 3.8zm2.6-5.4v.6h-.5v-.6h.5zm-.6 1.6h.5v3.8h-.5V21zm4.1 1.1l-.3-.6c-.1-.1-.3-.2-.6-.2s-.6.1-.8.4c-.1.3-.2.7-.2 1.2s.1.9.3 1.1c.2.3.4.4.8.4h.3c.1 0 .2-.1.3-.1s.2-.1.2-.2.1-.2.2-.3l.4.2c-.1.2-.2.3-.3.4l-.3.3c-.1.1-.2.1-.4.2-.1 0-.3.1-.5.1s-.5 0-.7-.1-.4-.2-.5-.4l-.3-.6c-.1-.2-.1-.5-.1-.8 0-.3 0-.6.1-.8.1-.2.2-.5.3-.6.1-.2.3-.3.5-.4s.4-.1.7-.1c.2 0 .4 0 .5.1.1.1.3.1.4.2l.3.3c.1.1.2.3.2.4l-.5-.1zm4.4 1.9c-.1.1-.1.2-.2.3l-.3.3c-.1.1-.3.2-.4.2s-.3.1-.6.1c-.2 0-.4 0-.6-.1-.2-.1-.4-.2-.5-.4-.2-.2-.3-.4-.4-.6-.1-.2-.1-.5-.1-.9 0-.3 0-.6.1-.8.1-.2.2-.5.3-.6.1-.2.3-.3.5-.4.2-.1.4-.1.6-.1.2 0 .4 0 .6.1s.3.2.5.3c.1.1.2.3.3.5.1.2.1.5.1.8v.3h-2.5c0 .2 0 .4.1.6.1.2.1.3.2.4s.2.2.4.3c.1.1.3.1.4.1.2 0 .4-.1.6-.2s.3-.3.4-.5l.5.3zm-.7-1.4c0-.4-.1-.6-.2-.9-.2-.2-.4-.3-.7-.3-.3 0-.6.1-.7.3-.2.2-.3.5-.3.9h1.9zm2.8-1.6v-1.3h.6V21h.9v.5H83v2.7c0 .1 0 .2.1.2s.2.1.3.1h.5v.4H83.3c-.3 0-.5 0-.6-.1-.1-.1-.2-.3-.2-.5v-2.8h-.6V21h.5zm5.1 1.9c0 .3 0 .5-.1.8-.1.2-.2.5-.3.6-.1.2-.3.3-.5.4s-.4.2-.7.2c-.3 0-.5-.1-.7-.2s-.4-.2-.5-.4l-.3-.6c-.1-.2-.1-.5-.1-.8 0-.3 0-.5.1-.8.1-.2.2-.5.3-.6.1-.2.3-.3.5-.4.2-.1.4-.2.7-.2.3 0 .5.1.7.2.2.1.4.2.5.4l.3.6c.1.3.1.5.1.8zm-.5 0c0-.5-.1-.9-.3-1.1s-.4-.4-.8-.4c-.3 0-.6.1-.8.4s-.3.6-.3 1.1c0 .5.1.9.3 1.1.2.3.4.4.8.4.3 0 .6-.1.8-.4.2-.2.3-.6.3-1.1zm2.3-1.2c.1-.2.3-.4.5-.6.2-.2.5-.2.9-.2.2 0 .3 0 .5.1.2 0 .3.1.4.2.1.1.2.2.3.4s.1.3.1.5v2.4c0 .1 0 .2.1.3h-.5l-.1-.5c-.1.1-.3.3-.5.4-.2.1-.5.2-.8.2-.1 0-.3 0-.4-.1-.1 0-.2-.1-.3-.2-.1-.1-.2-.2-.2-.3-.1-.1-.1-.3-.1-.5s0-.4.1-.6c.1-.2.2-.3.4-.4s.4-.2.7-.3c.3-.1.7-.2 1.1-.3V22c0-.3-.1-.4-.2-.5-.1-.1-.3-.2-.6-.2-.1 0-.3 0-.4.1-.1 0-.2.1-.3.1l-.2.2c-.1.1-.1.1-.1.2l-.4-.2zm2.3 1.1c-1.2.2-1.8.6-1.8 1.1 0 .1 0 .2.1.2 0 .1.1.1.1.2.1.1.1.1.2.1h.5c.1 0 .2-.1.3-.1.1-.1.2-.1.3-.2s.2-.2.3-.2v-1.1zm1.7 1.1c.1.2.3.3.5.4s.4.2.6.2c.3 0 .5-.1.6-.2.1-.1.2-.3.2-.4s-.1-.3-.2-.4-.3-.2-.4-.2c-.2-.1-.3-.1-.5-.2s-.4-.1-.5-.2c-.2-.1-.3-.2-.4-.3-.2-.2-.2-.4-.2-.6 0-.3.1-.6.4-.8.2-.2.5-.3.9-.3.1 0 .2 0 .4.1s.3.1.4.1c.1.1.2.1.3.2s.2.2.2.3l-.4.3c-.1-.2-.3-.3-.4-.4-.2-.1-.3-.1-.5-.1s-.4.1-.5.2c-.1.1-.2.2-.2.4 0 .1.1.2.2.3.1.1.2.1.4.2s.3.1.5.2.4.1.5.2.3.2.4.4c.1.1.2.3.2.6 0 .2 0 .3-.1.5-.1.1-.2.3-.3.3-.1.1-.3.2-.4.2-.2 0-.3.1-.5.1-.3 0-.6-.1-.9-.2s-.5-.3-.7-.5l.4-.4zm5.5-1.8l-.3-.6c-.1-.1-.3-.2-.6-.2s-.6.1-.8.4c-.2.3-.3.6-.3 1.1 0 .5.1.9.3 1.1.2.3.4.4.8.4h.3c.1 0 .2-.1.3-.1s.2-.1.2-.2.1-.2.2-.3l.4.2c-.1.2-.2.3-.3.4l-.3.3c-.1.1-.2.1-.4.2-.1 0-.3.1-.5.1s-.5 0-.7-.1-.4-.2-.5-.4l-.3-.6c-.1-.2-.1-.5-.1-.8 0-.3 0-.6.1-.8.1-.2.2-.5.3-.6.1-.2.3-.3.5-.4s.4-.1.7-.1c.2 0 .4 0 .5.1.1.1.3.1.4.2l.3.3c.1.1.2.3.2.4h-.4zm4.4 1.9c-.1.1-.1.2-.2.3l-.3.3c-.1.1-.3.2-.4.2s-.3.1-.6.1c-.2 0-.4 0-.6-.1-.2-.1-.4-.2-.5-.4-.2-.2-.3-.4-.4-.6-.1-.2-.1-.5-.1-.9 0-.3 0-.6.1-.8.1-.2.2-.5.3-.6.1-.2.3-.3.5-.4.2-.1.4-.1.6-.1.2 0 .4 0 .6.1s.3.2.5.3c.1.1.2.3.3.5.1.2.1.5.1.8v.3h-2.5c0 .2 0 .4.1.6.1.2.1.3.2.4s.2.2.4.3c.1.1.3.1.4.1.2 0 .4-.1.6-.2s.3-.3.4-.5l.5.3zm-.6-1.4c0-.4-.1-.6-.2-.9-.2-.2-.4-.3-.7-.3-.3 0-.6.1-.7.3-.2.2-.3.5-.3.9h1.9zm1.5-1.6h.5v.8c.1-.1.1-.2.2-.3l.3-.3c.1-.1.2-.1.3-.2s.3-.1.4-.1v.5c-.3 0-.6.1-.8.3s-.3.5-.5.9v2.1h-.5V21zm2.9 0v-1.3h.5V21h.9v.5h-.9v2.7c0 .1 0 .2.1.2s.2.1.3.1h.5v.4H107.8c-.3 0-.5 0-.6-.1-.1-.1-.2-.3-.2-.5v-2.8h-.6V21h.6zm2.2.7c.1-.2.3-.4.5-.6.2-.2.5-.2.9-.2.2 0 .3 0 .5.1.2 0 .3.1.4.2.1.1.2.2.3.4s.1.3.1.5v2.4c0 .1 0 .2.1.3h-.5l-.1-.5c-.1.1-.3.3-.5.4-.2.1-.5.2-.8.2-.1 0-.3 0-.4-.1-.1 0-.2-.1-.3-.2-.1-.1-.2-.2-.2-.3-.1-.1-.1-.3-.1-.5s0-.4.1-.6c.1-.2.2-.3.4-.4s.4-.2.7-.3c.3-.1.7-.2 1.1-.3V22c0-.3-.1-.4-.2-.5-.1-.1-.3-.2-.6-.2-.1 0-.3 0-.4.1-.1 0-.2.1-.3.1l-.2.2c-.1.1-.1.1-.1.2l-.4-.2zm2.3 1.1c-1.2.2-1.8.6-1.8 1.1 0 .1 0 .2.1.2 0 .1.1.1.1.2.1.1.1.1.2.1h.5c.1 0 .2-.1.3-.1.1-.1.2-.1.3-.2s.2-.2.3-.2v-1.1zm2.2-3.4v.6h-.5v-.6h.5zm-.5 1.6h.5v3.8h-.5V21zm2.4 0v.5c.2-.2.3-.3.5-.4s.4-.2.6-.2c.1 0 .3 0 .4.1.1 0 .2.1.4.2.1.1.2.2.2.3s.1.3.1.5v2.8h-.5V22c0-.3-.1-.4-.2-.5-.1-.1-.3-.1-.5-.1-.1 0-.2 0-.3.1-.1 0-.2.1-.3.1-.1.1-.2.1-.3.2s-.2.1-.2.2v2.9h-.5V21h.6zm7.2 0l-1.3 4.2c-.1.2-.2.4-.2.5s-.2.2-.3.3c-.1.1-.2.1-.4.2h-.8v-.4H120.4c.1 0 .2-.1.3-.1s.2-.2.3-.3.1-.3.2-.5l-1.3-3.9h.6l1 2.9.9-2.9h.4zm3.5 1.9c0 .3 0 .5-.1.8-.1.2-.2.5-.3.6-.1.2-.3.3-.5.4s-.4.2-.7.2c-.3 0-.5-.1-.7-.2s-.4-.2-.5-.4l-.3-.6c-.1-.2-.1-.5-.1-.8 0-.3 0-.5.1-.8.1-.2.2-.5.3-.6.1-.2.3-.3.5-.4.2-.1.4-.2.7-.2.3 0 .5.1.7.2.2.1.4.2.5.4l.3.6c.1.3.1.5.1.8zm-.5 0c0-.5-.1-.9-.3-1.1s-.4-.4-.8-.4c-.3 0-.6.1-.8.4s-.3.6-.3 1.1c0 .5.1.9.3 1.1.2.3.4.4.8.4.3 0 .6-.1.8-.4.2-.2.3-.6.3-1.1zm3.7 1.9v-.5c-.2.2-.3.3-.5.4-.2.1-.4.2-.6.2-.1 0-.3 0-.4-.1-.1 0-.3-.1-.4-.2-.1-.1-.2-.2-.2-.3-.1-.1-.1-.3-.1-.5V21h.5v2.8c0 .3.1.4.2.5.1.1.3.1.5.1.1 0 .2 0 .3-.1.1 0 .2-.1.3-.1.1-.1.2-.1.3-.2.1-.1.2-.1.2-.2V21h.5v3.8h-.6zm1.7-3.8h.5v.8c.1-.1.1-.2.2-.3l.3-.3c.1-.1.2-.1.3-.2s.3-.1.4-.1v.5c-.3 0-.6.1-.8.3s-.3.5-.5.9v2.1h-.5V21zm4.3-1.5v1.9c.1-.1.3-.2.5-.3s.3-.1.5-.1.3 0 .5.1.3.2.5.3c.1.2.3.4.4.6s.2.6.2.9c0 .4-.1.7-.2 1-.1.3-.2.5-.4.6-.2.2-.3.3-.5.3-.2.1-.4.1-.5.1-.2 0-.4 0-.6-.1-.2-.1-.3-.2-.5-.3l-.1.4h-.4v-.4-4.9h.6zm0 4.4c.2.2.4.3.5.4.1.1.3.1.5.1.3 0 .6-.1.8-.4.2-.3.3-.6.3-1.1 0-.3 0-.5-.1-.7-.1-.2-.1-.4-.2-.5l-.3-.3c-.1-.1-.3-.1-.4-.1-.2 0-.3 0-.5.1s-.3.2-.5.4v2.1zm5.8.9v-.5c-.2.2-.3.3-.5.4-.2.1-.4.2-.6.2-.1 0-.3 0-.4-.1-.1 0-.3-.1-.4-.2-.1-.1-.2-.2-.2-.3-.1-.1-.1-.3-.1-.5V21h.5v2.8c0 .3.1.4.2.5.1.1.3.1.5.1.1 0 .2 0 .3-.1.1 0 .2-.1.3-.1.1-.1.2-.1.3-.2.1-.1.2-.1.2-.2V21h.5v3.8h-.6zm1.8-.9c.1.2.3.3.5.4s.4.2.6.2c.3 0 .5-.1.6-.2.1-.1.2-.3.2-.4s-.1-.3-.2-.4-.3-.2-.4-.2c-.2-.1-.3-.1-.5-.2s-.4-.1-.5-.2c-.2-.1-.3-.2-.4-.3-.1-.1-.2-.3-.1-.6 0-.3.1-.6.4-.8.2-.2.5-.3.9-.3.1 0 .2 0 .4.1s.3.1.4.1c.1.1.2.1.3.2s.2.2.2.3l-.4.3c-.1-.2-.3-.3-.4-.4-.2-.1-.3-.1-.5-.1s-.4.1-.5.2c-.1.1-.2.2-.2.4 0 .1.1.2.2.3.1.1.2.1.4.2s.3.1.5.2.4.1.5.2.3.2.4.4c.1.1.2.3.2.6 0 .2 0 .3-.1.5-.1.1-.2.3-.3.3-.1.1-.3.2-.4.2-.2 0-.3.1-.5.1-.3 0-.6-.1-.9-.2s-.5-.3-.7-.5l.3-.4zm3.9-4.5v.6h-.5v-.6h.5zm-.5 1.6h.5v3.8h-.5V21zm2.4 0v.5c.2-.2.3-.3.5-.4s.4-.2.6-.2c.1 0 .3 0 .4.1.1 0 .2.1.4.2.1.1.2.2.2.3s.1.3.1.5v2.8h-.5V22c0-.3-.1-.4-.2-.5-.1-.1-.3-.1-.5-.1-.1 0-.2 0-.3.1-.1 0-.2.1-.3.1-.1.1-.2.1-.3.2s-.2.1-.2.2v2.9h-.5V21h.6zm6.3 3c-.1.1-.1.2-.2.3l-.3.3c-.1.1-.3.2-.4.2s-.3.1-.6.1-.4 0-.6-.1c-.2-.1-.4-.2-.5-.4s-.3-.4-.4-.6c-.1-.2-.1-.5-.1-.9 0-.3 0-.6.1-.8.1-.2.2-.5.3-.6s.3-.3.5-.4c.2-.1.4-.1.6-.1.2 0 .4 0 .6.1s.3.2.5.3c.1.1.2.3.3.5s.1.5.1.8v.3h-2.5c0 .2 0 .4.1.6.1.2.1.3.2.4.1.1.2.2.4.3.1.1.3.1.4.1.2 0 .4-.1.6-.2.2-.1.3-.3.4-.5l.5.3zm-.6-1.4c0-.4-.1-.6-.2-.9-.2-.2-.4-.3-.7-.3-.3 0-.6.1-.7.3-.2.2-.3.5-.3.9h1.9zm1.7 1.3c.1.2.3.3.5.4s.4.2.6.2c.3 0 .5-.1.6-.2s.2-.3.2-.4-.1-.3-.2-.4c-.1-.1-.3-.2-.4-.2-.2-.1-.3-.1-.5-.2s-.4-.1-.5-.2c-.2-.1-.3-.2-.4-.3-.1-.1-.2-.3-.1-.6 0-.3.1-.6.4-.8.2-.2.5-.3.9-.3.1 0 .2 0 .4.1s.3.1.4.1c.1.1.2.1.3.2.1.1.2.2.2.3l-.4.3c-.1-.2-.3-.3-.4-.4-.2-.1-.3-.1-.5-.1s-.4.1-.5.2c-.1.1-.2.2-.2.4 0 .1.1.2.2.3.1.1.2.1.4.2s.3.1.5.2.4.1.5.2c.2.1.3.2.4.4.1.1.2.3.2.6 0 .2 0 .3-.1.5-.1.1-.2.3-.3.3-.1.1-.3.2-.4.2-.2 0-.3.1-.5.1-.3 0-.6-.1-.9-.2s-.5-.3-.7-.5l.3-.4zm3.4 0c.1.2.3.3.5.4s.4.2.6.2c.3 0 .5-.1.6-.2.1-.1.2-.3.2-.4s-.1-.3-.2-.4c-.1-.1-.3-.2-.4-.2s-.3-.1-.5-.2-.4-.1-.5-.2c-.2-.1-.3-.2-.4-.3-.1-.1-.2-.3-.1-.6 0-.3.1-.6.4-.8.2-.2.5-.3.9-.3.1 0 .2 0 .4.1s.3.1.4.1c.1.1.2.1.3.2.1.1.2.2.2.3l-.4.3c-.1-.2-.3-.3-.4-.4-.2-.1-.3-.1-.5-.1s-.4.1-.5.2c-.1.1-.2.2-.2.4 0 .1.1.2.2.3.1.1.2.1.4.2s.3.1.5.2.4.1.5.2c.2.1.3.2.4.4.1.1.2.3.2.6 0 .2 0 .3-.1.5-.1.1-.2.3-.3.3-.1.1-.3.2-.4.2-.2 0-.3.1-.5.1-.3 0-.6-.1-.9-.2s-.5-.3-.7-.5l.3-.4zm4.1-3.6l-.5 1h-.3l.3-1h-.3v-.8h.7v.8zM169 24c-.1.1-.1.2-.2.3l-.3.3c-.1.1-.3.2-.4.2s-.3.1-.6.1-.4 0-.6-.1c-.2-.1-.4-.2-.5-.4s-.3-.4-.4-.6c-.1-.2-.1-.5-.1-.9 0-.3 0-.6.1-.8.1-.2.2-.5.3-.6s.3-.3.5-.4c.2-.1.4-.1.6-.1.2 0 .4 0 .6.1s.3.2.5.3c.1.1.2.3.3.5s.1.5.1.8v.3h-2.5c0 .2 0 .4.1.6.1.2.1.3.2.4.1.1.2.2.4.3.1.1.3.1.4.1.2 0 .4-.1.6-.2.2-.1.3-.3.4-.5l.5.3zm-.7-1.4c0-.4-.1-.6-.2-.9-.2-.2-.4-.3-.7-.3-.3 0-.6.1-.7.3-.2.2-.3.5-.3.9h1.9zm2.2-3.1v5.3h-.5v-5.3h.5zm1.9-.1v.6h-.5v-.6h.5zm-.6 1.6h.5v3.8h-.5V21zm4.8.4h-.3c-.1 0-.2 0-.3.1.1.1.1.2.2.3.1.1.1.3.1.5s0 .4-.1.5c-.1.2-.2.3-.3.4-.1.1-.3.2-.4.3-.2.1-.4.1-.5.1h-.4c-.1 0-.2 0-.3-.1-.2.1-.3.2-.3.4 0 .1 0 .2.1.2s.1.1.2.1c.5 0 .8 0 1.1.1.3 0 .6.1.7.2.2.1.3.2.4.3.1.1.1.3.1.5 0 .1 0 .3-.1.4l-.3.3c-.1.1-.3.2-.5.2-.2.1-.5.1-.8.1-.5 0-1-.1-1.2-.2-.3-.2-.4-.4-.4-.7 0-.2.1-.3.2-.5s.3-.2.5-.3c-.1 0-.3-.1-.3-.2-.1-.1-.1-.2-.1-.3 0-.2 0-.3.1-.4.1-.1.2-.2.4-.3-.2-.1-.3-.3-.4-.5-.1-.2-.1-.4-.1-.6 0-.2 0-.4.1-.5.1-.2.2-.3.3-.4.1-.1.3-.2.5-.3.2-.1.4-.1.6-.1s.4 0 .5.1c.1 0 .3.1.4.2.1-.1.2-.2.4-.2.1-.1.3-.1.4-.1v.4zm-.4 3.8c0-.2-.1-.3-.3-.4-.2-.1-.5-.1-1-.1-.2 0-.4 0-.5.1-.1 0-.2.1-.3.2l-.2.2c-.1.1-.1.1-.1.2v.2c0 .1.1.1.2.2.1 0 .2.1.4.1h1c.1 0 .3-.1.4-.1.1 0 .2-.1.2-.2.1-.2.2-.3.2-.4zm-.4-2.9c0-.3-.1-.5-.2-.7-.2-.2-.4-.2-.7-.2-.3 0-.5.1-.7.3-.2.2-.2.4-.2.6 0 .3.1.5.3.6s.4.3.7.3c.2 0 .3 0 .4-.1s.2-.1.3-.2c.1-.1.1-.2.2-.3-.1-.1-.1-.2-.1-.3zm2.3-2.9v.6h-.5v-.6h.5zm-.6 1.6h.5v3.8h-.5V21zm2.4-1.5v1.9c.1-.1.3-.2.5-.3s.3-.1.5-.1.3 0 .5.1.3.2.5.3c.1.2.3.4.4.6s.2.6.2.9c0 .4-.1.7-.2 1-.1.3-.2.5-.4.6-.2.2-.3.3-.5.3-.2.1-.4.1-.5.1-.2 0-.4 0-.6-.1-.2-.1-.3-.2-.5-.3l-.1.4h-.4v-.4-4.9h.6zm0 4.4c.2.2.4.3.5.4.1.1.3.1.5.1.3 0 .6-.1.8-.4.2-.3.3-.6.3-1.1 0-.3 0-.5-.1-.7-.1-.2-.1-.4-.2-.5l-.3-.3c-.1-.1-.3-.1-.4-.1-.2 0-.3 0-.5.1s-.3.2-.5.4v2.1zm4.2-4.5v.6h-.5v-.6h.5zm-.5 1.6h.5v3.8h-.5V21zm2.4-1.5v5.3h-.5v-5.3h.5zm1.9-.1v.6h-.5v-.6h.5zm-.6 1.6h.5v3.8h-.5V21zm2.1 0v-1.3h.5V21h.9v.5h-.9v2.7c0 .1 0 .2.1.2s.2.1.3.1h.5v.4H190.2c-.3 0-.5 0-.6-.1-.1-.1-.2-.3-.2-.5v-2.8h-.6V21h.6zm5 0l-1.3 4.2c-.1.2-.2.4-.2.5s-.2.2-.3.3c-.1.1-.2.1-.4.2s-.2 0-.4 0h-.4v-.4H192c.1 0 .2-.1.3-.1l.3-.3c.1-.1.1-.3.2-.5l-1.3-3.9h.6l1 2.9.9-2.9h.4zm2.1 3.8v-3.4h-.6V21h.6v-.4c0-.2 0-.4.1-.6 0-.1.1-.3.2-.3s.2-.1.3-.2.3 0 .4 0h.4v.5h-.4c-.2 0-.3 0-.4.1-.1.1-.1.2-.1.4v.5h.8v.5h-.8v3.4h-.5zm5-1.9c0 .3 0 .5-.1.8s-.2.5-.3.6c-.1.2-.3.3-.5.4s-.4.2-.7.2c-.3 0-.5-.1-.7-.2s-.4-.2-.5-.4l-.3-.6c-.1-.2-.1-.5-.1-.8 0-.3 0-.5.1-.8s.2-.5.3-.6c.1-.2.3-.3.5-.4.2-.1.4-.2.7-.2.3 0 .5.1.7.2.2.1.4.2.5.4l.3.6c.1.2.1.5.1.8zm-.5 0c0-.5-.1-.9-.3-1.1s-.4-.4-.8-.4c-.3 0-.6.1-.8.4s-.3.6-.3 1.1c0 .5.1.9.3 1.1.2.3.4.4.8.4.3 0 .6-.1.8-.4.2-.2.3-.6.3-1.1zm1.4-1.9h.5v.8c.1-.1.1-.2.2-.3l.3-.3c.1-.1.2-.1.3-.2.1 0 .3-.1.4-.1v.5c-.3 0-.6.1-.8.3-.2.2-.3.5-.5.9v2.1h-.5V21zm3.9 0v-1.3h.5V21h.9v.5h-.9v2.7c0 .1 0 .2.1.2s.2.1.3.1h.4v.4H207c-.3 0-.5 0-.6-.1-.1-.1-.2-.3-.2-.5v-2.8h-.6V21h.7zm2.8-1.5v2c.2-.2.3-.3.5-.4s.4-.2.6-.2c.1 0 .3 0 .4.1.1 0 .2.1.4.2.1.1.2.2.2.3s.1.3.1.5v2.8h-.5V22c0-.3-.1-.4-.2-.5-.1-.1-.3-.1-.5-.1-.1 0-.2 0-.3.1-.1 0-.2.1-.3.1-.1.1-.2.1-.3.2s-.2.1-.2.2v2.9h-.5v-5.3h.6zm6.4 4.5c-.1.1-.1.2-.2.3l-.3.3c-.1.1-.3.2-.4.2s-.3.1-.6.1-.4 0-.6-.1c-.2-.1-.4-.2-.5-.4s-.3-.4-.4-.6c-.1-.2-.1-.5-.1-.9 0-.3 0-.6.1-.8.1-.2.2-.5.3-.6s.3-.3.5-.4c.2-.1.4-.1.6-.1.2 0 .4 0 .6.1s.3.2.5.3c.1.1.2.3.3.5s.1.5.1.8v.3h-2.5c0 .2 0 .4.1.6.1.2.1.3.2.4.1.1.2.2.4.3.1.1.3.1.4.1.2 0 .4-.1.6-.2.2-.1.3-.3.4-.5l.5.3zm-.7-1.4c0-.4-.1-.6-.2-.9-.2-.2-.4-.3-.7-.3-.3 0-.6.1-.7.3-.2.2-.3.5-.3.9h1.9zm3.6-3.1v5.3h-.6v-5.3h.6zm2 1.5v.5c.2-.2.3-.3.5-.4s.4-.2.6-.2c.1 0 .3 0 .4.1.1 0 .2.1.4.2.1.1.2.2.2.3s.1.3.1.5v2.8h-.5V22c0-.3-.1-.4-.2-.5-.1-.1-.3-.1-.5-.1-.1 0-.2 0-.3.1-.1 0-.2.1-.3.1-.1.1-.2.1-.3.2s-.2.1-.2.2v2.9h-.5V21h.6zm3.5 2.9c.1.2.3.3.5.4s.4.2.6.2c.3 0 .5-.1.6-.2s.2-.3.2-.4-.1-.3-.2-.4c-.1-.1-.3-.2-.4-.2-.2-.1-.3-.1-.5-.2s-.4-.1-.5-.2c-.2-.1-.3-.2-.4-.3-.1-.1-.2-.3-.1-.6 0-.3.1-.6.4-.8.2-.2.5-.3.9-.3.1 0 .2 0 .4.1s.3.1.4.1c.1.1.2.1.3.2.1.1.2.2.2.3l-.4.3c-.1-.2-.3-.3-.4-.4-.2-.1-.3-.1-.5-.1s-.4.1-.5.2c-.1.1-.2.2-.2.4 0 .1.1.2.2.3.1.1.2.1.4.2s.3.1.5.2.4.1.5.2c.2.1.3.2.4.4.1.1.2.3.2.6 0 .2 0 .3-.1.5-.1.1-.2.3-.3.3-.1.1-.3.2-.4.2-.2 0-.3.1-.5.1-.3 0-.6-.1-.9-.2s-.5-.3-.7-.5l.3-.4zm3.6-2.9v-1.3h.5V21h.9v.5h-.9v2.7c0 .1 0 .2.1.2s.2.1.3.1h.4v.4H228.2c-.3 0-.5 0-.6-.1-.1-.1-.2-.3-.2-.5v-2.8h-.6V21h.7zm2.2.7c.1-.2.3-.4.5-.6.2-.2.5-.2.9-.2.2 0 .3 0 .5.1.2 0 .3.1.4.2.1.1.2.2.3.4.1.1.1.3.1.5v2.4c0 .1 0 .2.1.3h-.5l-.1-.5c-.1.1-.3.3-.5.4-.2.1-.5.2-.8.2-.1 0-.3 0-.4-.1-.1 0-.2-.1-.3-.2-.1-.1-.2-.2-.2-.3-.1-.1-.1-.3-.1-.5s0-.4.1-.6c.1-.2.2-.3.4-.4s.4-.2.7-.3c.3-.1.7-.2 1.1-.3V22c0-.3-.1-.4-.2-.5s-.3-.2-.6-.2c-.1 0-.3 0-.4.1-.1 0-.2.1-.3.1l-.2.2c-.1.1-.1.1-.1.2l-.4-.2zm2.2 1.1c-1.2.2-1.8.6-1.8 1.1 0 .1 0 .2.1.2 0 .1.1.1.1.2s.1.1.2.1h.5c.1 0 .2-.1.3-.1.1-.1.2-.1.3-.2s.2-.2.3-.2v-1.1zm2.2-1.8v.5c.2-.2.3-.3.5-.4s.4-.2.6-.2c.1 0 .3 0 .4.1.1 0 .2.1.4.2.1.1.2.2.2.3s.1.3.1.5v2.8h-.5V22c0-.3-.1-.4-.2-.5-.1-.1-.3-.1-.5-.1-.1 0-.2 0-.3.1-.1 0-.2.1-.3.1-.1.1-.2.1-.3.2s-.2.1-.2.2v2.9h-.5V21h.6zm3.7 0v-1.3h.5V21h.9v.5h-.9v2.7c0 .1 0 .2.1.2s.2.1.3.1h.5v.4H238.6c-.3 0-.5 0-.6-.1-.1-.1-.2-.3-.2-.5v-2.8h-.6V21h.6zm3 3.8l1.6-5.3h.9l1.6 5.3h-.6l-.5-1.7h-1.9l-.5 1.7h-.6zm1.2-2.1h1.6l-.8-2.7h-.1l-.7 2.7zm3.9 1.2c.1.2.3.3.5.4s.4.2.6.2c.3 0 .5-.1.6-.2s.2-.3.2-.4-.1-.3-.2-.4c-.1-.1-.3-.2-.4-.2-.2-.1-.3-.1-.5-.2s-.4-.1-.5-.2c-.2-.1-.3-.2-.4-.3-.1-.1-.2-.3-.1-.6 0-.3.1-.6.4-.8.2-.2.5-.3.9-.3.1 0 .2 0 .4.1s.3.1.4.1c.1.1.2.1.3.2.1.1.2.2.2.3l-.4.3c-.1-.2-.3-.3-.4-.4-.2-.1-.3-.1-.5-.1s-.4.1-.5.2c-.1.1-.2.2-.2.4 0 .1.1.2.2.3.1.1.2.1.4.2s.3.1.5.2.4.1.5.2c.2.1.3.2.4.4.1.1.2.3.2.6 0 .2 0 .3-.1.5-.1.1-.2.3-.3.3-.1.1-.3.2-.4.2-.2 0-.3.1-.5.1-.3 0-.6-.1-.9-.2s-.5-.3-.7-.5l.3-.4zm3.5 0c.1.2.3.3.5.4s.4.2.6.2c.3 0 .5-.1.6-.2s.2-.3.2-.4-.1-.3-.2-.4c-.1-.1-.3-.2-.4-.2-.2-.1-.3-.1-.5-.2s-.4-.1-.5-.2c-.2-.1-.3-.2-.4-.3-.1-.1-.2-.3-.1-.6 0-.3.1-.6.4-.8.2-.2.5-.3.9-.3.1 0 .2 0 .4.1s.3.1.4.1c.1.1.2.1.3.2.1.1.2.2.2.3l-.4.3c-.1-.2-.3-.3-.4-.4-.2-.1-.3-.1-.5-.1s-.4.1-.5.2c-.1.1-.2.2-.2.4 0 .1.1.2.2.3.1.1.2.1.4.2s.3.1.5.2.4.1.5.2c.2.1.3.2.4.4.1.1.2.3.2.6 0 .2 0 .3-.1.5-.1.1-.2.3-.3.3-.1.1-.3.2-.4.2-.2 0-.3.1-.5.1-.3 0-.6-.1-.9-.2s-.5-.3-.7-.5l.3-.4zm6.2.1c-.1.1-.1.2-.2.3l-.3.3c-.1.1-.3.2-.4.2s-.3.1-.6.1-.4 0-.6-.1c-.2-.1-.4-.2-.5-.4s-.3-.4-.4-.6c-.1-.2-.1-.5-.1-.9 0-.3 0-.6.1-.8.1-.2.2-.5.3-.6s.3-.3.5-.4c.2-.1.4-.1.6-.1.2 0 .4 0 .6.1s.3.2.5.3c.1.1.2.3.3.5s.1.5.1.8v.3H253c0 .2 0 .4.1.6.1.2.1.3.2.4.1.1.2.2.4.3.1.1.3.1.4.1.2 0 .4-.1.6-.2.2-.1.3-.3.4-.5l.5.3zm-.6-1.4c0-.4-.1-.6-.2-.9-.2-.2-.4-.3-.7-.3-.3 0-.6.1-.7.3-.2.2-.3.5-.3.9h1.9zm1.7-1.6v-1.3h.5V21h.9v.5h-.9v2.7c0 .1 0 .2.1.2s.2.1.3.1h.5v.4H257.5c-.3 0-.5 0-.6-.1-.1-.1-.2-.3-.2-.5v-2.8h-.7V21h.7zm3-1.5h.6l1 4.2 1-4.2h.5l1.1 4.2 1-4.2h.6l-1.3 5.3h-.5l-1.1-4.3-1 4.3h-.6l-1.3-5.3zm6.4 1.5h.5v.8c.1-.1.1-.2.2-.3l.3-.3c.1-.1.2-.1.3-.2.1 0 .3-.1.4-.1v.5c-.3 0-.6.1-.8.3-.2.2-.3.5-.5.9v2.1h-.5V21zm3.2-1.6v.6h-.5v-.6h.5zm-.5 1.6h.5v3.8h-.5V21zm2 0v-1.3h.5V21h.9v.5h-.9v2.7c0 .1 0 .2.1.2s.2.1.3.1h.5v.4H271.6c-.3 0-.5 0-.6-.1-.1-.1-.2-.3-.2-.5v-2.8h-.6V21h.6zm5.1 3c-.1.1-.1.2-.2.3l-.3.3c-.1.1-.3.2-.4.2s-.3.1-.6.1c-.2 0-.4 0-.6-.1-.2-.1-.4-.2-.5-.4-.2-.2-.3-.4-.4-.6-.1-.2-.1-.5-.1-.9 0-.3 0-.6.1-.8.1-.2.2-.5.3-.6.1-.2.3-.3.5-.4s.4-.1.6-.1c.2 0 .4 0 .6.1s.3.2.5.3c.1.1.2.3.3.5.1.2.1.5.1.8v.3h-2.5c0 .2 0 .4.1.6.1.2.1.3.2.4.1.1.2.2.4.3.1.1.3.1.4.1.2 0 .4-.1.6-.2.2-.1.3-.3.4-.5l.5.3zm-.6-1.4c0-.4-.1-.6-.2-.9-.2-.2-.4-.3-.7-.3-.3 0-.6.1-.7.3-.2.2-.3.5-.3.9h1.9zm1.4.5v-.5h1.9v.5h-1.9zm5.9-.2c0 .3 0 .5-.1.8s-.2.5-.3.6c-.1.2-.3.3-.5.4s-.4.2-.7.2c-.3 0-.5-.1-.7-.2s-.4-.2-.5-.4l-.3-.6c-.1-.2-.1-.5-.1-.8 0-.3 0-.5.1-.8s.2-.5.3-.6c.1-.2.3-.3.5-.4.2-.1.4-.2.7-.2.3 0 .5.1.7.2.2.1.4.2.5.4l.3.6c.1.2.1.5.1.8zm-.6 0c0-.5-.1-.9-.3-1.1s-.4-.4-.8-.4c-.3 0-.6.1-.8.4s-.3.6-.3 1.1c0 .5.1.9.3 1.1.2.3.4.4.8.4.3 0 .6-.1.8-.4.2-.2.3-.6.3-1.1zm1.7 1.9v-3.4h-.7V21h.6v-.4c0-.2 0-.4.1-.6 0-.1.1-.3.2-.3s.2-.1.3-.2.3 0 .4 0h.4v.5h-.4c-.2 0-.3 0-.4.1-.1.1-.1.2-.1.4v.5h.8v.5h-.8v3.4h-.4zm2.6 0v-3.4h-.6V21h.6v-.4c0-.2 0-.4.1-.6 0-.1.1-.3.2-.3.1-.1.2-.1.3-.2h.8v.5h-.4c-.2 0-.3 0-.4.1-.1.1-.1.2-.1.4v.5h.8v.5h-.8v3.4h-.5zm2.9-.8v.8h-.7V24h.7z" fill="#fff"/></svg>