<svg xmlns="http://www.w3.org/2000/svg" viewBox="0 0 300 50"><path d="M48.2016,34.1988l-.05-.022h-.04l.07.065Zm.099,1.493h-.04v.065h.04Zm.158-.27-.019-.065-.02.021Zm.02-1.083-.059-.021h-.02v.065l.04.043Zm.08.347v.184h.019Zm.019.162v.022l.03.022Zm.05.216-.05.044h-.079l.04.065-.02.141.169.021.02-.065-.04-.141.059-.043.04-.086-.099-.044Zm.179-.378h-.04v.054l.04.021Zm0,.649v-.043l.039-.141-.059.054Zm.198.087v-.044l-.079-.021-.02.043.039.043Zm.347.378-.039.022-.02.043h.039Zm.02-.714-.04.043.04.098.04.022.069-.022-.049-.314Zm.248-.4-.039.054-.02.043.079-.022Zm.179-.411-.02.043-.099.043-.02.108h.079l.169-.194-.089-.076Zm-.02.551-.02.044.02.065.129.065.079-.022.02-.086-.169.064Zm.248-.162v-.043l-.02-.043-.119-.022v.043Zm.059.65.02-.044v-.043l-.099-.076h-.169l.05.076.119.022Zm.04-.953-.04.022-.019.021.059.26Zm.04.595v-.064l-.02-.044-.06-.022.06.152.119.13.03-.044Zm.149-.595h-.05l-.04.087.09-.022Zm0,.217-.02-.022-.05-.022-.099.022.06.086.109.044Zm.119.465.02.065v-.065Zm.059-.704v-.043l-.039.022v.043Zm.08.553v.043l.059-.022-.04-.043Zm-.1-.022-.019-.022h-.04l-.06.065.08.13h-.06l-.168.162-.02.065.129.108.039-.043.08.022.099.238.059-.022-.039-.021v-.13l.059-.065.02-.087h-.079l-.04-.043.02-.054-.02-.109-.059-.021Zm.219.216-.02-.022h-.04v.044l.04.021Zm0-.086h.089v-.043h-.089Zm.228-.217h-.04l-.039.065.079.195Zm0,.812-.04.022.02.021Zm.139-.509h-.08l-.178-.086.119.249.079.065v-.185Zm-.02.466.02-.044-.02-.022-.079.087Zm0-.888-.02.043.02.054h.04l.02-.054-.02-.043Zm.149.271-.07-.022.03.043Zm0,.53-.04.021.02.022Zm-.07.379v.043l.07.087h.039l.02-.043-.02-.066Zm.288-.552.04.022.099-.022v-.141h-.04Zm-.179-.379-.019.043v.087l-.04.086v.098l.04.043h.039l.159-.206.08-.021.148.021-.02-.086-.069-.043-.218-.043Zm.705.13-.06.021.04.044Zm.02.249v-.043l-.02-.044-.06-.032-.079.076Zm.129.173-.04.021.02.044Zm.019-.108.02-.043-.039-.163Zm.02.617-.039.021.019.022Zm.08-.974-.02-.044-.06-.043-.079.022-.04.065.08.021.019.087.08-.022Zm.139-.217-.06.022-.059.043.059.087.04-.022Zm.089.195-.049.022-.02.064.089-.064Zm.079,0-.02.043v.022l.04-.043Zm.586.887v.044l.04.043.039-.108-.039-.022Zm.168-1.039-.029.044-.139.065.059.173.109-.152.02-.086Zm.199-.021v.043l.079.087-.019-.195Zm.198.13v.043l.09.022Zm.229.335-.04-.021-.099.043.079.086.04-.021Zm.198.53-.02.044.05.021Zm.109-.865v-.022h-.059Zm.159.508.04.022h.039l.02-.087h-.04Zm.04-.422-.04.022-.079.13h.099l.119.119v-.141Zm.119-.086-.04-.087-.04-.022-.079.022.02.044.079.043Zm.089.021-.04.022.02.022Zm.337,0-.02-.021-.02-.043-.079-.022-.059.043v.043l.079.022Zm.07.314-.02-.043-.02-.022Zm0-.357v.043h.059v-.064Zm.099.292-.04-.032-.02.054.02.043Zm.178-.379-.039.022.02.022Zm31.831-.584h-.04l-.02.076h.06Zm.237,1.266-.019.022.039.087Zm.209-.357v-.043l-.02-.022Zm.02.736v-.087l-.079-.043-.07.022Zm.039-.682-.118.044-.05.043-.02.086.109.022.079-.043Zm.04.238h-.059l.019.065h.04Zm-1.385-.292-.059-.065-.079.065.059.076.02-.054Zm.189.52-.04.021v.044h.04Zm.06-.119h-.1l.04.043h.04Zm.059-.401-.04.022v.184Zm-.04-.195v.065l.06-.021Zm.328-.064v.108l.059.064v-.086Zm.158.237-.059.022.02.022Zm.189-.151-.05-.022-.099.087v.043h.06Zm.119.574v-.044l-.099-.043-.02-.087-.069-.021.019.065Zm.04-.444.02-.044-.04-.043h-.079l.059.206.079-.022.06-.119.06-.043.039.086.05.022.02-.043-.02-.044-.089-.043h-.08l-.04.087Zm.159-.368v.195h.168l.02-.022-.099-.152Zm.188-.292v.086l.059-.043-.019-.043Zm.218-.087-.019-.022-.04.044Zm.04.682-.04-.022h-.079l-.06.043-.02.022Zm.089-.087v.044l.06.064.02-.357Zm.298-.043h-.099l-.04-.021.02.064.079.022Zm.06.087-.02.043.049.065.04-.022-.02-.086Zm-.04.844v.043l.04.065.168-.021Zm.268-.888.059-.086-.039.022Zm.347.108-.04-.021h-.04l-.039.065.039.021Zm0,.228-.04.022.02.172Zm.218.043-.039-.021-.02.043.04.021Zm.02-.271h-.039l-.04.044.059.119Zm.149.185-.02-.044-.02-.032-.069.076.049.021Zm-.04.237.02-.021.02-.043-.02-.044-.04-.021Zm.298-1.287v-.044l-.04.022Zm-.079.649v.065l.119.043-.04-.086Zm.208.152v.043l.04.043.039-.065Zm.179-.239-.04-.054h-.04l-.04.076.06.022Zm-.04-.183.02.043.059.021-.02-.043Zm1.528.108.02-.022-.02-.043h-.05Zm0,.714.02-.043-.04-.022-.03.487Zm.099-.4-.04.021.04.152Zm-.079.129v.044l.059.054.02-.054-.04-.044Zm.813-.173-.03-.043h-.039Zm-.228.173h-.04l-.039.044.059.162.099.065.099-.022.05-.108-.089-.065-.04.087-.079.022v-.25Zm.139.423.02.043h.069l-.069-.065Zm.327-.812h-.059l.059.065Zm.119,1.255-.04.022-.019.043h.059Zm-45.149-.638-.02-.043v-.206l.04-.087v-.357l-.02-.043v-.217l.06-.129.139-.141.129-.043.238-.022.268.043.099-.021.059.064.129-.086.06.043h.218l.04-.021.039.086h.07l.059-.086h.725l.109.064.158-.043h.526l.04.022h.288l.159-.043.188.043.446-.043.04.021h.248l.04-.021h.337l.129.043h.407l.04-.022h.426l.04.022.08-.043h.565l.367.043.089-.043.1.021.367-.065.059.044h32.247l.02.021h-.909l.04-.021h1.319l.04-.022h.288l.04.043.019.108.04-.021v-.065l.04-.043h.546l.039.021h.288l.04-.021h.287l.1.043.188-.065.159.022.119-.022.526.065.049-.022h.298l.04-.021h.694l.06.108.039-.13.447.043.189-.043h.367l.198.043.139.065.129.227.04.336-.02.043v.217l-.02.021v.552l.02.044-.04.227-.089.151-.159.022-.159.119h-.268l-.039-.033h-.248l-.02.033h-.367l-.04-.033h-1.032l-.039.033h-.308l-.04-.033h-.327l-.04.033-.347-.033-.099-.064-.139.064-.347-.021-.04.021h-.447l-.039-.021h-.288l-.04.021h-.833l-.04.033h-.208l-.199-.054-.387.021-.039-.021h-.159l-.05.021h1.226l-.039-.021h-.209l-.198.076-31.81-.055-.06.055-.327-.076h-.725l-.039.021-.476.033-.04-.033-.367.033v-.141l-.04.022-.04.086-.039.033-.526-.054-.04.021h-.347l-.04.033-.714-.076-.08.076-.248.022-.079-.055h-.159l-.039.033h-.249l-.039-.054-.08-.022-.406.043-.119-.064-.06.043-.367.021-.02-.043-.069-.021-.218.064h-.606l-.049.033-.238-.054-.08-.065-.039.119-.387-.033-.149-.064-.119-.108-.06-.195Z" fill="red"/><path d="M206.38719,34.1988l-.05-.022h-.039l.069.065Zm.098,1.493h-.04v.065h.04Zm.159-.27-.02-.065-.02.021Zm.02-1.083-.06-.021h-.02v.065l.04.043Zm.079.347v.184h.019Zm.019.162v.022l.03.022Zm.05.216-.05.044h-.079l.04.065-.02.141.168.021.02-.065-.04-.141.06-.043.039-.086-.099-.044Zm.178-.378h-.04v.054l.04.021Zm0,.649v-.043l.04-.141-.06.054Zm.198.087v-.044l-.079-.021-.02.043.039.043Zm.346.378-.04.022-.019.043h.039Zm.02-.714-.04.043.04.098.04.022.069-.022-.05-.314Zm.247-.4-.039.054-.02.043.079-.022Zm.178-.411-.019.043-.099.043-.02.108h.079l.168-.194-.089-.076Zm-.019.551-.02.044.02.065.128.065.079-.022.02-.086-.168.064Zm.247-.162v-.043l-.02-.043-.118-.022v.043Zm.059.65.02-.044v-.043l-.099-.076h-.168l.05.076.118.022Zm.04-.953-.04.022-.02.021.06.26Zm.04.595v-.064l-.02-.044-.06-.022.06.152.118.13.03-.044Zm.148-.595h-.05l-.039.087.089-.022Zm0,.217-.02-.022-.049-.022-.099.022.059.086.109.044Zm.118.465.02.065v-.065Zm.06-.704v-.043l-.04.022v.043Zm.079.553v.043l.059-.022-.039-.043Zm-.099-.022-.02-.022h-.039l-.06.065.079.13h-.059l-.168.162-.02.065.129.108.039-.043.079.022.1.238.059-.022-.04-.021v-.13l.06-.065.019-.087h-.079l-.039-.043.02-.054-.02-.109-.06-.021Zm.218.216-.02-.022h-.04v.044l.04.021Zm0-.086h.089v-.043h-.089Zm.227-.217h-.039l-.04.065.079.195Zm0,.812-.039.022.02.021Zm.139-.509h-.079l-.178-.086.118.249.079.065v-.185Zm-.02.466.02-.044-.02-.022-.079.087Zm0-.888-.02.043.02.054h.04l.02-.054-.02-.043Zm.148.271-.069-.022.03.043Zm0,.53-.039.021.02.022Zm-.069.379v.043l.069.087h.04l.02-.043-.02-.066Zm.287-.552.04.022.099-.022v-.141h-.04Zm-.178-.379-.02.043v.087l-.039.086v.098l.039.043h.04l.158-.206.079-.021.149.021-.02-.086-.069-.043-.218-.043Zm.702.13-.059.021.04.044Zm.02.249v-.043l-.02-.044-.059-.032-.079.076Zm.129.173-.04.021.02.044Zm.02-.108.019-.043-.039-.163Zm.019.617-.039.021.02.022Zm.08-.974-.02-.044-.06-.043-.079.022-.039.065.079.021.02.087.079-.022Zm.138-.217-.059.022-.059.043.059.087.039-.022Zm.089.195-.049.022-.02.064.089-.064Zm.079,0-.02.043v.022l.04-.043Zm.584.887v.044l.04.043.039-.108-.039-.022Zm.168-1.039-.029.044-.139.065.06.173.108-.152.02-.086Zm.198-.021v.043l.079.087-.019-.195Zm.198.13v.043l.089.022Zm.228.335-.04-.021-.099.043.079.086.04-.021Zm.197.53-.019.044.049.021Zm.109-.865v-.022h-.059Zm.159.508.039.022h.04l.02-.087h-.04Zm.039-.422-.039.022-.079.13h.098l.119.119v-.141Zm.119-.086-.04-.087-.039-.022-.079.022.019.044.08.043Zm.089.021-.04.022.02.022Zm.336,0-.019-.021-.02-.043-.079-.022-.06.043v.043l.079.022Zm.07.314-.02-.043-.02-.022Zm0-.357v.043h.059v-.064Zm.098.292-.039-.032-.02.054.02.043Zm.179-.379-.04.022.02.022Zm39.267-.584h-.04l-.02.076h.06Zm.237,1.266-.02.022.04.087Zm.208-.357v-.043l-.02-.022Zm.02.736v-.087l-.079-.043-.07.022Zm.039-.682-.118.044-.05.043-.02.086.109.022.079-.043Zm.04.238h-.059l.019.065h.04Zm-1.381-.292-.059-.065-.079.065.059.076.02-.054Zm.188.52-.039.021v.044h.039Zm.06-.119h-.099l.039.043h.04Zm.059-.401-.04.022v.184Zm-.04-.195v.065l.06-.021Zm.327-.064v.108l.059.064v-.086Zm.158.237-.059.022.02.022Zm.188-.151-.049-.022-.099.087v.043h.059Zm.119.574v-.044l-.099-.043-.02-.087-.069-.021.02.065Zm.04-.444.019-.044-.039-.043h-.08l.06.206.079-.022.059-.119.06-.043.039.086.05.022.02-.043-.02-.044-.089-.043h-.079l-.04.087Zm.158-.368v.195h.168l.02-.022-.099-.152Zm.188-.292v.086l.059-.043-.02-.043Zm.217-.087-.019-.022-.04.044Zm.04.682-.04-.022h-.079l-.059.043-.02.022Zm.089-.087v.044l.059.064.02-.357Zm.297-.043h-.099l-.04-.021.02.064.079.022Zm.059.087-.02.043.05.065.04-.022-.02-.086Zm-.039.844v.043l.039.065.168-.021Zm.267-.888.059-.086-.039.022Zm.346.108-.04-.021h-.039l-.04.065.04.021Zm0,.228-.04.022.02.172Zm.218.043-.04-.021-.02.043.04.021Zm.019-.271h-.039l-.04.044.06.119Zm.149.185-.02-.044-.02-.032-.069.076.049.021Zm-.04.237.02-.021.02-.043-.02-.044-.04-.021Zm.297-1.287v-.044l-.04.022Zm-.079.649v.065l.119.043-.04-.086Zm.208.152v.043l.039.043.04-.065Zm.178-.239-.04-.054h-.039l-.04.076.059.022Zm-.04-.183.02.043.059.021-.019-.043Zm1.524.108.02-.022-.02-.043h-.049Zm0,.714.02-.043-.04-.022-.029.487Zm.099-.4-.04.021.04.152Zm-.079.129v.044l.059.054.02-.054-.04-.044Zm.811-.173-.03-.043h-.039Zm-.228.173h-.039l-.04.044.06.162.099.065.098-.022.05-.108-.089-.065-.04.087-.079.022v-.25Zm.139.423.02.043h.069l-.069-.065Zm.326-.812h-.059l.059.065Zm.119,1.255-.039.022-.02.043h.059Zm-52.549-.638-.02-.043v-.206l.04-.087v-.357l-.02-.043v-.217l.06-.129.138-.141.129-.043.237-.022.267.043.099-.021.06.064.128-.086.059.043h.218l.04-.021.039.086h.07l.059-.086h.722l.109.064.158-.043h.525l.039.022h.287l.159-.043.187.043.445-.043.04.021h.248l.039-.021h.337l.128.043h.406l.039-.022h.426l.039.022.08-.043h.563l.367.043.088-.043.1.021.366-.065.059.044h39.683l.019.021h-.905l.039-.021h1.316l.04-.022h.287l.039.043.02.108.04-.021v-.065l.039-.043h.544l.04.021h.287l.039-.021h.287l.099.043.188-.065.158.022.119-.022.524.065.05-.022h.297l.039-.021h.693l.059.108.04-.13.445.043.188-.043h.366l.198.043.139.065.128.227.04.336-.02.043v.217l-.02.021v.552l.02.044-.039.227-.089.151-.159.022-.158.119h-.267l-.04-.033h-.247l-.02.033h-.366l-.04-.033h-1.029l-.039.033h-.307l-.04-.033h-.326l-.04.033-.346-.033-.099-.064-.138.064-.346-.021-.04.021h-.445l-.04-.021h-.287l-.039.021h-.831l-.04.033h-.208l-.198-.054-.386.021-.039-.021h-.159l-.049.021h1.222l-.039-.021h-.208l-.198.076-39.247-.055-.059.055-.327-.076h-.722l-.04.021-.475.033-.039-.033-.366.033v-.141l-.04.022-.039.086-.04.033-.524-.054-.04.021h-.346l-.04.033-.712-.076-.08.076-.247.022-.079-.055h-.158l-.04.033h-.247l-.04-.054-.079-.022-.406.043-.118-.064-.059.043-.367.021-.019-.043-.07-.021-.217.064h-.604l-.049.033-.238-.054-.079-.065-.039.119-.386-.033-.149-.064-.118-.108-.06-.195Z" fill="red"/><path d="M103.69043,33.813a.16614.16614,0,0,1,.15137.22265l-1.98731,5.252a.16261.16261,0,0,1-.15918.11133H101.169a.171.171,0,0,1-.16016-.11133l-.543-1.44532a2.36575,2.36575,0,0,1-.10352-.32714V37.524c-.03222.11132-.06347.21484-.10351.31835L99.708,39.28765a.16005.16005,0,0,1-.15137.11133H99.0293a.16345.16345,0,0,1-.15918-.11133l-1.99512-5.252a.13527.13527,0,0,1-.00781-.05566.16751.16751,0,0,1,.167-.167H97.793a.16261.16261,0,0,1,.15918.11133l1.22949,3.248a2.53062,2.53062,0,0,1,.10352.31934l.00781.01562a2.93012,2.93012,0,0,1,.10351-.335l.40723-1.06933-.78223-2.06739a.13527.13527,0,0,1-.00781-.05566.16837.16837,0,0,1,.168-.167h.75781a.16005.16005,0,0,1,.15137.11133l.168.43066c.04.10449.07129.21582.10351.32715a2.45266,2.45266,0,0,1,.10352-.32715l.16016-.43066a.1626.1626,0,0,1,.15918-.11133h.75879a.16716.16716,0,0,1,.15917.22265l-.78222,2.06739.40722,1.06933c.04.11133.07227.22364.10352.335.03223-.11132.06445-.22363.10352-.335l1.2373-3.248a.16382.16382,0,0,1,.16016-.11133Z"/><path d="M107.67871,33.813a.16355.16355,0,0,1,.168.167v.78223a.16435.16435,0,0,1-.168.168h-.39062v3.35156h.39062a.16378.16378,0,0,1,.168.168V39.231a.16435.16435,0,0,1-.168.168h-1.89844a.16378.16378,0,0,1-.168-.168v-.78125a.16321.16321,0,0,1,.168-.168h.39063V34.93023h-.39063a.16378.16378,0,0,1-.168-.168V33.98a.163.163,0,0,1,.168-.167Z"/><path d="M113.34863,33.813a.163.163,0,0,1,.168.167v.78223a.16378.16378,0,0,1-.168.168h-1.22851V39.231a.16435.16435,0,0,1-.168.168h-.78125a.16435.16435,0,0,1-.168-.168V34.93023h-1.22852a.16377.16377,0,0,1-.168-.168V33.98a.163.163,0,0,1,.168-.167Z"/><path d="M119.01855,33.813a.163.163,0,0,1,.168.167v5.251a.16378.16378,0,0,1-.168.168h-.78125a.16435.16435,0,0,1-.168-.168V37.1646h-1.67579V39.231a.16435.16435,0,0,1-.168.168h-.78125a.16378.16378,0,0,1-.168-.168V33.98a.163.163,0,0,1,.168-.167h.78125a.16354.16354,0,0,1,.168.167v2.06738h1.67579V33.98a.16354.16354,0,0,1,.168-.167Z"/><path d="M126.51172,33.813a.16385.16385,0,0,1,.16016.11914l1.58007,5.251c0,.0166.00782.03222.00782.04785a.1692.1692,0,0,1-.168.168h-.76563a.173.173,0,0,1-.168-.12012l-.29492-.99707h-1.56445l-.30371.99707a.1685.1685,0,0,1-.15918.12012h-.7666a.1683.1683,0,0,1-.15918-.21582l1.57226-5.251a.16972.16972,0,0,1,.15918-.11914Zm-.51856,2.13867-.35937,1.21289h.89355l-.36621-1.21289c-.03222-.1123-.05664-.22363-.08008-.335A2.69037,2.69037,0,0,1,125.99316,35.95171Z"/><path d="M136.68652,33.813a.16274.16274,0,0,1,.167.167v5.251a.16355.16355,0,0,1-.167.168h-.8457a.17988.17988,0,0,1-.15234-.09571l-1.46-2.96094a2.35181,2.35181,0,0,1-.13575-.32714V39.231a.16435.16435,0,0,1-.168.168h-.78125a.16377.16377,0,0,1-.168-.168V33.98a.163.163,0,0,1,.168-.167h.84571a.17961.17961,0,0,1,.15136.0957l1.46,2.96094a2.2391,2.2391,0,0,1,.13574.32715V33.98a.16354.16354,0,0,1,.168-.167Z"/><path d="M141.68652,33.813a.16354.16354,0,0,1,.168.167v.78223a.16435.16435,0,0,1-.168.168h-1.95507v1.11718h1.39648a.16355.16355,0,0,1,.168.167v.78222a.16435.16435,0,0,1-.168.168h-1.39648v1.11719h1.95507a.16377.16377,0,0,1,.168.168V39.231a.16435.16435,0,0,1-.168.168h-2.90429a.16378.16378,0,0,1-.168-.168V33.98a.163.163,0,0,1,.168-.167Z"/><path d="M150.4375,33.813a.16614.16614,0,0,1,.15137.22265l-1.98731,5.252a.16261.16261,0,0,1-.15918.11133H147.916a.171.171,0,0,1-.16016-.11133l-.543-1.44532a2.36437,2.36437,0,0,1-.10351-.32714V37.524c-.03223.11132-.06348.21484-.10352.31835l-.55078,1.44532a.16005.16005,0,0,1-.15137.11133h-.52734a.16345.16345,0,0,1-.15918-.11133l-1.99512-5.252a.13527.13527,0,0,1-.00781-.05566.16773.16773,0,0,1,.168-.167H144.54a.16261.16261,0,0,1,.15918.11133l1.22949,3.248a2.53062,2.53062,0,0,1,.10352.31934l.00781.01562a2.93012,2.93012,0,0,1,.10351-.335l.40723-1.06933-.78223-2.06739a.13527.13527,0,0,1-.00781-.05566.16837.16837,0,0,1,.168-.167h.75781a.16005.16005,0,0,1,.15137.11133l.168.43066c.04.10449.07129.21582.10352.32715a2.45117,2.45117,0,0,1,.10351-.32715l.16016-.43066a.1626.1626,0,0,1,.15918-.11133h.75879a.16717.16717,0,0,1,.15918.22265l-.78223,2.06739.40723,1.06933c.04.11133.07226.22364.10351.335.03223-.11132.06445-.22363.10352-.335l1.2373-3.248a.16382.16382,0,0,1,.16016-.11133Z"/><path d="M158.42676,33.813a.15894.15894,0,0,1,.11914.04785l.35156.35059a.16263.16263,0,0,1,.04785.12011v2.59375a.15894.15894,0,0,1-.04785.11914l-.35156.35157a.159.159,0,0,1-.11914.04785h-.35156a.94751.94751,0,0,1,.17578.25488l.67871,1.46094a.23408.23408,0,0,1,.01562.07129.16855.16855,0,0,1-.168.168h-.76562a.17836.17836,0,0,1-.15137-.09571l-.8623-1.85937h-.56641V39.231a.16435.16435,0,0,1-.168.168h-.78222a.16355.16355,0,0,1-.167-.168V33.98a.16274.16274,0,0,1,.167-.167Zm-1.82715,1.11719a.163.163,0,0,0-.168.167v1.0459a.159.159,0,0,0,.04785.11914l.01563.0166a.16653.16653,0,0,0,.12011.04785h1.0293a.16657.16657,0,0,0,.12012-.04785l.01562-.0166a.15894.15894,0,0,0,.04785-.11914v-1.0293a.16267.16267,0,0,0-.04785-.12012l-.01562-.01562a.16267.16267,0,0,0-.12012-.04785Z"/><path d="M163.31543,33.813a.16384.16384,0,0,1,.16016.11914l1.58007,5.251c0,.0166.00782.03222.00782.04785a.1692.1692,0,0,1-.168.168h-.76563a.173.173,0,0,1-.168-.12012l-.29492-.99707h-1.56445l-.30371.99707a.1685.1685,0,0,1-.15918.12012H160.874a.16844.16844,0,0,1-.16015-.21582l1.57226-5.251a.16972.16972,0,0,1,.15918-.11914Zm-.51855,2.13867-.35938,1.21289h.89355l-.36621-1.21289c-.03222-.1123-.05664-.22363-.08007-.335A2.69386,2.69386,0,0,1,162.79688,35.95171Z"/><path d="M171.65137,33.813a.16274.16274,0,0,1,.167.167v5.251a.16355.16355,0,0,1-.167.168h-.78223a.16435.16435,0,0,1-.168-.168v-2.5293c-.03125.11133-.06347.22363-.10351.32715l-.85352,2.25879a.16381.16381,0,0,1-.16016.11133h-.52636a.16176.16176,0,0,1-.15918-.11133l-.85449-2.25879c-.04-.10352-.07129-.21582-.10352-.32715V39.231a.16435.16435,0,0,1-.168.168h-.78125a.16378.16378,0,0,1-.168-.168V33.98a.163.163,0,0,1,.168-.167h.83789a.161.161,0,0,1,.15137.11133l1.23633,3.25586c.04.10351.07226.21582.10449.32714.03125-.11132.06348-.22363.10351-.32714l1.23731-3.25586a.15916.15916,0,0,1,.15137-.11133Z"/><path d="M180.27832,33.813a.16274.16274,0,0,1,.167.167v.78223a.16355.16355,0,0,1-.167.168h-1.22949V39.231a.16435.16435,0,0,1-.168.168h-.78125a.16435.16435,0,0,1-.168-.168V34.93023h-1.22949a.16355.16355,0,0,1-.167-.168V33.98a.16274.16274,0,0,1,.167-.167Z"/><path d="M185.31836,33.813a.16267.16267,0,0,1,.12012.04785l.35058.35059a.16263.16263,0,0,1,.04785.12011v2.59375a.15894.15894,0,0,1-.04785.11914l-.35058.35157a.16271.16271,0,0,1-.12012.04785h-.35156a.94728.94728,0,0,1,.17578.25488l.67871,1.46094a.23408.23408,0,0,1,.01562.07129.16855.16855,0,0,1-.168.168h-.76563a.17836.17836,0,0,1-.15137-.09571l-.8623-1.85937h-.56641V39.231a.16435.16435,0,0,1-.168.168H182.374a.16378.16378,0,0,1-.168-.168V33.98a.163.163,0,0,1,.168-.167Zm-1.82715,1.11719a.16354.16354,0,0,0-.168.167v1.0459a.159.159,0,0,0,.04785.11914l.01563.0166a.16655.16655,0,0,0,.12012.04785h1.02929a.16657.16657,0,0,0,.12012-.04785l.01563-.0166a.159.159,0,0,0,.04785-.11914v-1.0293a.16271.16271,0,0,0-.04785-.12012l-.01563-.01562a.16267.16267,0,0,0-.12012-.04785Z"/><path d="M191.34082,33.813a.16274.16274,0,0,1,.167.167v4.90039a.15894.15894,0,0,1-.04785.11914l-.35058.35156a.16268.16268,0,0,1-.12012.04786h-2.87305a.16268.16268,0,0,1-.12012-.04786l-.35058-.35156a.15894.15894,0,0,1-.04785-.11914V33.98a.16274.16274,0,0,1,.167-.167h.78223a.16354.16354,0,0,1,.168.167v4.11816a.16266.16266,0,0,0,.04786.12012l.01562.01563a.16271.16271,0,0,0,.12012.04785H190.207a.16271.16271,0,0,0,.12012-.04785l.01562-.01563a.16265.16265,0,0,0,.04785-.12012V33.98a.16355.16355,0,0,1,.168-.167Z"/><path d="M196.37988,33.813a.15894.15894,0,0,1,.11914.04785l.35157.35059a.16267.16267,0,0,1,.04785.12011v.98926a.16378.16378,0,0,1-.168.168h-.78125a.16435.16435,0,0,1-.168-.168v-.207a.16271.16271,0,0,0-.04785-.12012l-.01563-.01562a.16263.16263,0,0,0-.12011-.04785h-1.0293a.16267.16267,0,0,0-.12012.04785l-.01562.01562a.16267.16267,0,0,0-.04785.12012v2.98437a.16265.16265,0,0,0,.04785.12012l.01562.01563a.16271.16271,0,0,0,.12012.04785h1.0293a.16267.16267,0,0,0,.12011-.04785l.01563-.01563a.16269.16269,0,0,0,.04785-.12012v-.207a.16378.16378,0,0,1,.168-.168h.78125a.16321.16321,0,0,1,.168.168v.98926a.159.159,0,0,1-.04785.11914l-.35157.35156a.159.159,0,0,1-.11914.04786h-2.59375a.16264.16264,0,0,1-.12011-.04786l-.35059-.35156a.15894.15894,0,0,1-.04785-.11914V34.33159a.16263.16263,0,0,1,.04785-.12011l.35059-.35059a.16263.16263,0,0,1,.12011-.04785Z"/><path d="M202.39355,33.813a.16285.16285,0,0,1,.168.167.18669.18669,0,0,1-.04.10449L200.415,36.606l2.10644,2.52148a.1866.1866,0,0,1,.04.10352.16364.16364,0,0,1-.168.168h-1.02148a.16645.16645,0,0,1-.127-.06348l-1.22168-1.45313a1.61537,1.61537,0,0,1-.24707-.40625V39.231a.16435.16435,0,0,1-.168.168h-.78125a.16378.16378,0,0,1-.168-.168V33.98a.163.163,0,0,1,.168-.167h.78125a.16355.16355,0,0,1,.168.167v1.75586a1.63861,1.63861,0,0,1,.24707-.40723l1.22168-1.45215a.16341.16341,0,0,1,.127-.06347Z"/></svg>