<svg xmlns="http://www.w3.org/2000/svg" viewBox="0 0 300 50"><defs><clipPath id="a"><path fill="none" d="M-32768-32717h65535v65535h-65535z"/></clipPath></defs><g clip-path="url(#a)" opacity=".8"><path d="M44.657 21.723L7.809 32.289a2.225 2.225 0 01-2.744-1.521L2.313 21.17l-.01-.036-.276-.96-.013-.047-.027-.095-.031-.106-.034-.12a2.202 2.202 0 01-.01-.701.622.622 0 01.026-.136 1.262 1.262 0 01.034-.151.274.274 0 01.03-.072 1.049 1.049 0 00.032-.112 1.215 1.215 0 01.07-.161l.042-.076a.509.509 0 01.059-.107l.017-.031a2.554 2.554 0 01.48-.56c.02-.02.032-.022.053-.041l.012-.003.18-.13.033-.021a2.115 2.115 0 01.513-.224l.912-.262a.411.411 0 01.122-.022c.035-.01.079-.036.115-.046l4.11-1.18a1.248 1.248 0 01.897-1.346l24.68-7.076a1.256 1.256 0 011.474.667l5.367-1.54a2.378 2.378 0 01.29-.057c.024-.007.051-.002.075-.01.036-.01.063-.004.099-.014a2.24 2.24 0 012.28 1.603l3.081 10.746a2.202 2.202 0 01.084.694c-.006.028.001.05-.004.078a.173.173 0 00-.003.078 2.26 2.26 0 01-.44 1.1c-.01.016-.03.035-.038.05a2.136 2.136 0 01-.543.477.137.137 0 01-.056.028.801.801 0 01-.075.048 1.156 1.156 0 01-.276.117l-.994.285z" fill="#fff"/></g><path d="M33.048 8.832a.07.07 0 00-.05.09l.101.355a.071.071 0 00.092.052l.557-.16.557 1.943a.07.07 0 00.091.05l.356-.101a.071.071 0 00.051-.091l-.558-1.943.557-.16a.07.07 0 00.051-.091l-.102-.356a.072.072 0 00-.09-.051zm-1.777.508a.072.072 0 00-.05.093l.682 2.38a.071.071 0 00.092.052l1.315-.377a.07.07 0 00.05-.092l-.1-.356a.071.071 0 00-.093-.05l-.889.254-.146-.51.628-.18a.07.07 0 00.051-.09l-.102-.356a.07.07 0 00-.09-.05l-.629.18-.15-.522.89-.254a.07.07 0 00.05-.092l-.102-.355a.071.071 0 00-.092-.052zm-1.848.53c-.024.008-.033.023-.053.042l-.11.197a.095.095 0 00-.006.067l.3 1.043c.005.023.021.032.04.052l.197.11a.096.096 0 00.066.006l.7-.2c.023-.008.038.001.066.006l.015.008a.093.093 0 01.04.053l.1.343c.006.024-.003.04-.008.067l-.008.015a.093.093 0 01-.053.04l-.343.1c-.024.006-.039-.003-.066-.008l-.015-.008a.094.094 0 01-.04-.053l-.028-.094a.071.071 0 00-.092-.05l-.355.101a.07.07 0 00-.05.091l.128.451c.007.023.022.032.041.052l.198.11a.1.1 0 00.066.007l1.043-.299c.023-.007.032-.022.052-.04l.11-.199a.103.103 0 00.007-.066l-.299-1.043c-.007-.024-.022-.032-.04-.052l-.199-.11a.09.09 0 00-.066-.007l-.699.2a.127.127 0 01-.066-.006l-.016-.009a.091.091 0 01-.04-.052l-.099-.344c-.007-.023.002-.039.007-.066l.008-.015a.099.099 0 01.053-.04l.343-.099a.127.127 0 01.066.006l.016.01a.09.09 0 01.04.051l.028.095a.07.07 0 00.091.051l.356-.102a.072.072 0 00.05-.092l-.129-.45c-.007-.024-.022-.032-.04-.052l-.202-.122a.1.1 0 00-.066-.007l-1.043.3zm-2.015.579c-.023.006-.032.021-.052.04l-.11.198a.1.1 0 00-.007.066l.3 1.042c.006.024.021.032.04.053l.198.11a.096.096 0 00.066.006l.7-.2c.023-.006.038.003.065.008l.016.007a.095.095 0 01.04.052l.1.344c.006.024-.003.04-.008.066l-.008.015a.094.094 0 01-.053.041l-.343.1a.14.14 0 01-.066-.008l-.016-.008a.088.088 0 01-.04-.053l-.028-.094a.07.07 0 00-.09-.052l-.356.102a.071.071 0 00-.05.092l.128.45c.007.024.022.032.041.053l.198.11a.09.09 0 00.066.006l1.042-.298c.024-.007.033-.022.053-.041l.11-.199a.095.095 0 00.006-.066l-.298-1.042c-.007-.024-.023-.033-.04-.053l-.199-.11a.097.097 0 00-.066-.006l-.699.2c-.024.007-.039-.002-.066-.007l-.016-.008a.093.093 0 01-.04-.053l-.099-.343c-.007-.024.002-.039.007-.066l.008-.015a.094.094 0 01.053-.04l.343-.1a.14.14 0 01.066.007l.016.008a.098.098 0 01.04.053l.027.095a.07.07 0 00.092.05l.355-.102a.07.07 0 00.051-.09l-.129-.45c-.007-.025-.022-.033-.04-.054l-.202-.12a.091.091 0 00-.066-.008l-1.043.3zm-1.305 1.258c.025.044.054.1.08.144l.321.497-.402.116.01-.593a.431.431 0 00-.009-.164zm-.424-.763a.078.078 0 00-.055.08l-.028 2.586a.079.079 0 00.1.074l.342-.098a.078.078 0 00.054-.08l.013-.492.711-.203.26.412a.078.078 0 00.088.04l.343-.1a.07.07 0 00.051-.09l-.007-.025-1.393-2.177a.077.077 0 00-.088-.039zm-3.863 1.107a.072.072 0 00-.05.092l.101.355a.071.071 0 00.092.052l.557-.16.557 1.942a.07.07 0 00.091.051l.356-.101a.07.07 0 00.05-.092l-.557-1.942.557-.16a.072.072 0 00.051-.092l-.102-.356a.072.072 0 00-.092-.05zm-.84.242a.07.07 0 00-.052.091l.418 1.457c-.037-.04-.066-.096-.1-.125l-1.047-1.148a.082.082 0 00-.085-.027l-.379.108a.071.071 0 00-.05.093l.682 2.38a.07.07 0 00.091.052l.356-.102a.072.072 0 00.051-.091l-.418-1.458a1.475 1.475 0 00.1.125l1.047 1.149a.085.085 0 00.085.027l.38-.11a.071.071 0 00.05-.09l-.683-2.382a.07.07 0 00-.092-.05zm-2.409 1.575c.025.044.054.1.08.144l.322.497-.403.115.01-.592c-.005-.063-.007-.114-.009-.164m-.436-.76a.08.08 0 00-.054.08l-.028 2.585a.078.078 0 00.098.074l.344-.098a.078.078 0 00.054-.08l.013-.49.711-.205.26.413a.08.08 0 00.088.04l.343-.1a.07.07 0 00.051-.09l-.007-.025-1.394-2.177a.077.077 0 00-.088-.039zm-2.358.676a.07.07 0 00-.05.091l.102.356a.071.071 0 00.091.051l.557-.16.557 1.943a.072.072 0 00.092.051l.355-.102a.072.072 0 00.051-.092l-.557-1.943.556-.159a.071.071 0 00.051-.092l-.102-.355a.07.07 0 00-.09-.05zm-1.694.486c-.024.007-.032.022-.052.041l-.11.198a.09.09 0 00-.007.066l.3 1.043c.006.023.021.032.04.052l.198.11a.095.095 0 00.066.007l.7-.2c.023-.007.038.002.065.007l.015.008a.094.094 0 01.041.052l.1.344a.14.14 0 01-.008.066l-.009.015a.089.089 0 01-.052.04l-.344.1a.141.141 0 01-.066-.007l-.015-.01a.093.093 0 01-.04-.052l-.028-.094a.07.07 0 00-.09-.05l-.357.1a.07.07 0 00-.05.092l.13.45c.005.024.021.032.04.053l.198.11a.09.09 0 00.066.007l1.042-.3c.024-.006.032-.021.053-.04l.11-.198a.095.095 0 00.006-.066l-.299-1.042c-.007-.024-.022-.032-.04-.053l-.199-.11a.095.095 0 00-.066-.006l-.699.2c-.023.007-.039-.002-.066-.007l-.015-.008a.099.099 0 01-.04-.053l-.099-.343a.119.119 0 01.007-.066l.008-.015a.092.092 0 01.052-.041l.344-.1a.14.14 0 01.066.008l.015.009a.089.089 0 01.041.052l.027.095a.07.07 0 00.092.05l.355-.101a.072.072 0 00.051-.092l-.129-.45c-.007-.024-.022-.032-.04-.053l-.199-.11a.09.09 0 00-.066-.006zm-1.173.336a.072.072 0 00-.05.092l.417 1.457c-.037-.04-.066-.096-.1-.125l-1.062-1.157a.083.083 0 00-.085-.026l-.379.108a.071.071 0 00-.05.092l.682 2.38a.07.07 0 00.091.052l.356-.102a.071.071 0 00.051-.091l-.415-1.447a1.475 1.475 0 00.1.125l1.048 1.15a.083.083 0 00.084.026l.38-.109a.07.07 0 00.05-.09l-.683-2.383a.07.07 0 00-.09-.05zm-2.772.795a.071.071 0 00-.05.092l.101.355a.071.071 0 00.091.051l.178-.05.435 1.515-.178.051a.07.07 0 00-.05.092l.101.355a.071.071 0 00.092.051l.865-.248a.072.072 0 00.051-.09l-.102-.357a.072.072 0 00-.092-.05l-.178.05-.434-1.516.177-.05a.071.071 0 00.051-.093l-.102-.355a.07.07 0 00-.09-.05zm31.442-3.169c-.025-.044-.056-.06-.08-.105-.013.004-.613-.747-.613-.747l-.06-.073-.042-.014-.249.072-.017.03-.005.027.004.012-.007.066c-.05.361-.086.73-.136 1.091l-.007.066-.002.04.007.022.031.017.027.005.272-.078.03-.034.014-.08c.014-.223.047-.463.064-.673l.013-.043.01-.015.011-.003.03.017.082.105c.1.125.212.247.3.375l.084.117.034.03.043.012.06-.017c.062-.005.138-.052.2-.058l.032-.022.01-.015-.008-.024-.019-.02zm-1.85-.418l-.045-.064-.06-.034-.079-.003-.228.052c-.336.084-.679.182-1.019.293-.457.195-.997.234-1.45.441l-.028-.005-.107.031-.06.056-.012.183a5.995 5.995 0 01.282.893c.054.19.097.383.151.572.093.371 1.065 3.76 1.386 4.834l.01.075.09.23.065.046.066.006.157-.032a5.299 5.299 0 01.735-.21l.16-.072.046-.103-.002-.05-.122-.427c-.219-.72-.379-1.456-.634-2.165l-.023-.173.025-.045c.008-.015.005-.027.03-.034.02-.018.046-.013.07-.02.166-.048.36-.09.51-.146.035-.01.37-.094.37-.094l.154-.044.052-.04.041-.038.022-.057-.002-.051-.095-.332c.007-.066-.047-.166-.044-.244a1.365 1.365 0 01-.112-.301l-.034-.03-.046-.024-.066-.007-.083.024c-.328.107-.687.197-1.022.28l-.048.014c-.023.006-.04.036-.07.02-.016-.009-.016-.009-.019-.02l-.016-.009-.023-.172c-.138-.435-.262-.912-.415-1.356l.01-.105.024-.045.154-.045.02-.018.261-.076c.208-.033.7-.2.895-.23a2.37 2.37 0 01.281-.093l.078-.087.003-.078.005-.027a3.91 3.91 0 00-.19-.843zm-5.94 4.73c.263 1.142.735 2.52 1.022 3.656l.092.23.064.045.066.007.157-.031c.044-.026.156-.083.214-.061a3.881 3.881 0 01.521-.15l.16-.071.046-.103v-.051l-.124-.427c-.219-.72-.382-1.467-.633-2.165l-.024-.172.067-.122.004.012c.007.023.193-.043.217-.05.306-.05.573-.19.883-.227l.053-.041.04-.037.022-.058-.002-.051a3.122 3.122 0 01-.139-.575.44.44 0 00-.087-.168c-.01-.035-.02-.161-.062-.174l-.046-.026-.066-.006-.083.024c-.076.047-.489.127-.592.169-.028-.005-.133-.013-.077.048.002.05-.018-.02-.033-.03a.505.505 0 01-.226.066l-.154.044c-.12.022-.089-.09-.128-.181-.079-.183-.108-.418-.186-.601-.05-.088-.052-.318-.124-.388l-.105-.367.008-.105.026-.046.154-.044c.313-.115.836-.214 1.15-.33a.86.86 0 00.168-.035c.021-.02.016-.081.053-.041l.074-.008.078-.087.003-.078.006-.027-.089-.308.017-.03-.07-.16-.103-.355-.044-.064-.06-.034-.079-.003-.229.053c-.79.239-1.712.465-2.484.725l-.107.03-.06.056-.012.183.047.076-.007.066.041.053.017.149.075.08c.003.013-.02.109.006.114.158.596.305 1.195.522 1.774l.064.225a.233.233 0 01.012.087c.045.063.058.11.085.116zm-1.333 2.42c.034.12.08.234.114.352.017.06.022.122.036.17l.037.22c-.028.123-.028.213-.133.294a.491.491 0 01-.149.107c-.012.003-.127.05-.127.05l-.137.013-.136-.025-.084-.027-.038-.04-.027-.006-.122-.157-.093-.192c-.33-1.289-.785-2.647-1.05-3.75l-.029-.146-.003-.102.006-.066.066-.172.154-.134a2.513 2.513 0 01.285-.082l.105.01.184.061.083.066.088.13.286.994c.222.822.474 1.608.684 2.433zm.181-3.975a1.794 1.794 0 00-.515-.635 1.723 1.723 0 00-.369-.214 2.03 2.03 0 00-.446-.078 1.142 1.142 0 00-.545.067c-.118.034-.24.056-.347.086-.083.024-.156.083-.239.107a2.042 2.042 0 00-.529.344c-.088.051-.174.243-.237.338a3.025 3.025 0 00-.167.355 1.476 1.476 0 00-.008.823c.316 1.192.738 2.661 1.154 4.067l.062.175a2.137 2.137 0 00.47.61.261.261 0 01.156.095 2.529 2.529 0 00.23.127l.353.116a2.361 2.361 0 001.086-.145.207.207 0 00.203-.096c.112.032.22-.127.342-.15a1.15 1.15 0 01.224-.205c-.026-.044.106-.12.123-.15l.183-.348a4.685 4.685 0 00.121-.47.68.68 0 01.012-.182l-.019-.29a5.769 5.769 0 00-.202-.75l-.617-2.105a12.426 12.426 0 00-.479-1.492zM29.35 18.11l-.044-.064-.11-.07-.102.003c-.387.124-.79.24-1.178.363a5.125 5.125 0 00-.61.15l-.129.088c-.09.09.012.266.04.36a1.256 1.256 0 00.13.412l.05.037.053.01.161-.02c.112-.058.7-.2.734-.21a4.576 4.576 0 01.688-.198.69.69 0 01.308-.089l.128-.088.026-.135a5.548 5.548 0 01-.118-.454.094.094 0 01-.027-.095zm-1.363 3.7c.014-.042-.05-.088-.06-.123a1.077 1.077 0 00-.03-.198l-.056-.099-.147-.022-.18.04a2.862 2.862 0 00-.436.137c-.29.058-.625.192-.924.265l-.114.007c-.01.004-.049-.037-.064-.045-.019-.021-.025-.044-.044-.065-.136-.474-.28-.932-.4-1.398-.025-.083-.06-.162-.088-.257l.02-.07.051-.04.166-.048a.624.624 0 01.324-.08c.181-.04.396-.14.565-.175l.056-.028.066-.083.015-.082a2.488 2.488 0 00-.21-.645c.025-.045-.014-.137-.04-.181l-.044-.064-.034-.03-.078-.002-.166.048a1.429 1.429 0 01-.445.102 2.334 2.334 0 01-.479.163l-.1-.036-.047-.076.005-.027-.024-.083c-.105-.367-.222-.821-.348-1.17l-.026-.133.02-.07.045-.064.123-.061c.163-.06.616-.087.716-.231.015.098.23-.002.224-.026.098-.015.26-.075.374-.081l.13-.038.052-.04.017-.031c.031-.163-.083-.335-.088-.487-.026-.044-.022-.212-.088-.22-.012-.085-.033-.246-.112-.3l-.073-.03-.02.018-.002.039-.027-.005-.034-.03c-.51.147-1.078.31-1.603.448a7.688 7.688 0 01-.904.246l-.283.133-.03.073-.002.039c.648 2.212 1.241 4.414 1.908 6.608l-.002.038.038.04.135.026.071-.02c.87-.236 1.75-.515 2.65-.734l.17-.075.052-.13.005-.027zM22.8 17.27l.005-.027-.028-.095-.015-.008-.03-.107.005-.027-.078-.272-.048-.077-.115-.044-.169.036-.088.051c-.275.027-.539.18-.813.207-.443.153-.86.26-1.276.38a1.61 1.61 0 01-.335.083c-.13.037-.266.101-.4.127l-.279.054-.02.02-.002.038-.07.02-.03.073.084.296-.017.031.12.414.1.266.082.015c.064-.044.11-.018.184-.027.07-.07.173-.024.256-.048a2.289 2.289 0 01.27-.09c.002-.077.102-.042.141-.04l.178-.05h.04l.12.198c.096.382.181.768.305 1.156.02.07.05.127.07.198.19.663.368 1.33.56 1.994l.267.936c.088.308.165.619.277.92l.052.139.011.036.055.06.097.024.13-.037.027.005.31-.088.02-.02.082-.023.015.009.174-.063.102-.004.151-.056.101-.093.015-.081-.052-.05.028-.033v-.051l-.02-.02-.054-.19c-.5-1.741-.936-3.31-1.448-5.047l-.037-.22.046-.065.032-.022.208-.034a2.032 2.032 0 01.364-.117c.017-.03.037-.05.067-.032l.185-.027.115-.046.053-.041.035-.1-.007-.113-.049-.127-.019-.02-.017-.06zm-2.634 6.243c-.469-1.725-.968-3.287-1.424-5.054l-.088-.308-.019-.02-.088-.308c-.003-.012-.057-.022-.057-.022a.117.117 0 00-.09 0c-.024.008-.039-.001-.063.006l-.154.044a.866.866 0 01-.249.07.276.276 0 00-.123.063 1.137 1.137 0 00-.35.074l-.089.05-.047.105-.003.077.166.58c.095.333.318 1.064.318 1.064s.583 2.077.652 2.365c.012-.004.027.005.022.032a.087.087 0 000 .039c.18.678.393 1.374.586 2.049l.13.45.06.073.075.043.142-.041a.492.492 0 00.278-.105 1.028 1.028 0 00.264-.063.929.929 0 00.184-.028l.202-.057.017-.031.015-.171a3.507 3.507 0 00-.209-.684c.047-.104-.06-.213-.058-.291zm-4.806-1.558l-.102.005-.059-.073-.044-.154a2.5 2.5 0 00-.07-.288c-.14-.178-.092-.5-.224-.692a3.74 3.74 0 01-.123-.516l-.04-.143.016-.03.141-.093c.047-.013.21-.073.255-.047l.053-.04a.18.18 0 00.113-.008l.148.022.1.035.156.187a2.613 2.613 0 01.17.412 3.8 3.8 0 01.18.628c-.016.082.05.217.022.302l-.043.166-.093.078-.017.03-.049.053-.22.076-.017-.008a.413.413 0 01-.253.098m3.08 2.913a1.11 1.11 0 01-.254-.389c-.375-.547-.746-1.17-1.109-1.72l-.12-.198-.033-.157-.018-.02.06-.017.21-.253.144-.298.017-.12c.04-.037.008-.195.01-.234a.582.582 0 00-.029-.325c.055-.118-.048-.345-.082-.464a.963.963 0 00-.075-.26c-.025-.044-.03-.197-.076-.222L17 19.895l-.075-.17-.18-.36-.159-.198-.225-.204-.076-.043-.133-.103-.215-.079-.113.007-.115-.044h-.359l-.153.005-.017.031-.023.007c-.076-.043-.22.037-.29.057a1.16 1.16 0 00-.282.094 3.489 3.489 0 00-.69.185 1.574 1.574 0 00-.407.104l-.273.078-.072.06-.015.17.091.32c.063.264 1.797 6.268 1.797 6.268l.087.078h.09l.154-.045a.832.832 0 00.181-.039c.034-.06.076-.137.106-.03.11-.019.278-.106.38-.109l.174-.063.03-.034.004-.027.028-.034.024-.096a63.717 63.717 0 01-.739-2.532l.017-.12.1-.055.051-.002.111.032.133.193c.39.735.861 1.395 1.263 2.126l.078.093.056.061.108.02.102-.004c.174-.063.418-.107.59-.18.033.027.105-.032.141-.042l.166-.048.052-.04.031-.073.01-.054-.019-.02-.007-.025zm-5.89-5.377c-.034-.029-.129-.002-.16.02a2.563 2.563 0 00-.3.074c-.007-.024-.308.088-.324.08l-.02.019c-.047.013-.228.052-.254.098l-.05.091.102.894a6.244 6.244 0 01.121.824c.065.405.143.857.193 1.253l-.06.017c.06-.017.066.007.083.066l-.003.168a.082.082 0 01.073.03c-.036.01-.049.052-.054.08l.03.196.045.154-.004.078-.025.046-.09-.09-.034-.119c-.18-.358-.378-.827-.573-1.194-.09-.269-.284-.586-.362-.858-.025-.044-.185-.422-.259-.413.098-.016-.172-.464-.17-.503l-.15-.303-.092-.05-.066-.007-.522.15-.028.033-.249.071-.06.056-.028.085.044.424c.115.98.283 1.97.354 2.976l.051.177-.012.093.02.071.015.01.017.059-.05.002-.104-.048-.074-.26c-.2-.43-.46-.933-.613-1.376-.23-.537-.573-1.195-.757-1.745l-.127-.13-.08-.015a1.937 1.937 0 00-.448.14 1.606 1.606 0 00-.52.15l-.059.067-.017.03.072.25.21.376a11.76 11.76 0 00.528 1.08c.24.572.517 1.133.782 1.699.168.362.347.72.512 1.07a.792.792 0 00.137.256.644.644 0 00.141.268l.048.166c.162.209.241.572.395.797a.221.221 0 00.102.176c-.029.034.012.086.042.103l.053.139.04.052.046.025.141-.001c.06-.017.21-.073.281-.094a.61.61 0 00.201-.058c.103-.043.283-.043.361-.13l.045-.063-.002-.14c-.012-.266-.076-.581-.088-.847a4.386 4.386 0 00-.082-.554c.028-.124-.07-.288-.026-.403l-.034-.209c-.03-.016-.029-.055-.012-.086-.038-.31-.077-.76-.13-1.077-.017-.06-.063-.264-.014-.317-.006-.024-.027-.095-.01-.125l.046.025.102.176c.018.11.127.22.15.341.067.058.072.21.145.24.044-.025.134-.025.061.034-.146-.06.171.464.188.523.233.498.457 1.01.71 1.49l.193.406.027.094.132.103.134-.025a3.013 3.013 0 00.56-.148l.213-.06.076-.048.044-.115-.039-.36c-.256-2.235-.507-4.317-.74-6.52l-.035-.118zm-8.843.061l3.024 10.545a.605.605 0 00.747.414L44.92 19.775a.606.606 0 00.414-.747L42.31 8.483a.605.605 0 00-.747-.414l-5.486 1.573.204.711 5.355-1.536 2.95 10.285-37.18 10.662-2.953-10.296 5.202-1.492-.204-.711-5.332 1.529a.608.608 0 00-.41.758zm39.101-11.43l3.13 10.912a1.021 1.021 0 01-.702 1.267L7.428 31.14a1.022 1.022 0 01-1.266-.701L3.033 19.528a1.02 1.02 0 01.702-1.265l5.545-1.59.064.225-5.545 1.59a.8.8 0 00-.549.99l3.13 10.913a.799.799 0 00.99.549l37.808-10.841a.8.8 0 00.55-.991L42.594 8.184a.8.8 0 00-.99-.55l-5.64 1.618-.066-.225 5.64-1.617a1.038 1.038 0 011.27.713" fill="#ed1c24"/></svg>