<svg xmlns="http://www.w3.org/2000/svg" viewBox="0 0 300 50"><path d="M20.14 20.742v-8.578h1.712l3.374 5.846h.023v-5.846h1.545v8.578h-1.58l-3.505-6.107h-.024v6.107zM27.673 17.653a4.48 4.48 0 01.184-1.33 2.912 2.912 0 01.529-1.01 2.318 2.318 0 01.843-.642 2.936 2.936 0 012.258 0 2.32 2.32 0 01.843.642 2.912 2.912 0 01.529 1.01 4.9 4.9 0 010 2.66 2.908 2.908 0 01-.529 1.011 2.32 2.32 0 01-.843.642 2.936 2.936 0 01-2.258 0 2.318 2.318 0 01-.843-.642 2.908 2.908 0 01-.53-1.01 4.469 4.469 0 01-.183-1.33zm3.897 0a3.045 3.045 0 00-.297-1.533 1.102 1.102 0 00-1.83 0 3.04 3.04 0 00-.297 1.533 3.033 3.033 0 00.297 1.533 1.102 1.102 0 001.83 0 3.039 3.039 0 00.297-1.533zM33.031 14.563h1.403l.843 3.85h.024l.89-3.85h1.367l.856 3.85h.023l.88-3.85h1.402l-1.593 6.18h-1.33l-.915-3.85h-.024l-.903 3.85h-1.33zM41.978 13.852h-.713v-1.688h1.64v1.688l-.76 1.78h-.773zM46.742 16.191a3.599 3.599 0 00-.516-.445 1.072 1.072 0 00-.636-.208.983.983 0 00-.63.166.543.543 0 00-.202.44.493.493 0 00.232.422 2.803 2.803 0 00.57.291q.34.13.743.267a3.024 3.024 0 01.742.37 2.045 2.045 0 01.57.593 1.682 1.682 0 01.232.92 1.843 1.843 0 01-.172.832 1.632 1.632 0 01-.475.576 1.963 1.963 0 01-.719.339 3.618 3.618 0 01-.903.107 2.747 2.747 0 01-1.337-.321 2.897 2.897 0 01-1.004-.927l.987-.736a3.062 3.062 0 00.611.624 1.324 1.324 0 00.826.267.987.987 0 00.636-.196.62.62 0 00.244-.505.504.504 0 00-.232-.427 2.555 2.555 0 00-.57-.298q-.34-.13-.743-.28a3.504 3.504 0 01-.743-.374 2.04 2.04 0 01-.57-.57 1.54 1.54 0 01-.232-.879 1.717 1.717 0 01.167-.766 1.617 1.617 0 01.451-.565 2.079 2.079 0 01.654-.345 2.532 2.532 0 01.772-.118 3.175 3.175 0 011.194.232 2.485 2.485 0 01.98.707zM55.332 20.742l-.095-.534a4.387 4.387 0 01-.897.48 2.83 2.83 0 01-1.028.173 1.828 1.828 0 01-.73-.136 1.477 1.477 0 01-.523-.369 1.612 1.612 0 01-.315-.523 1.754 1.754 0 01-.107-.611 1.849 1.849 0 01.867-1.634 6.288 6.288 0 012.674-.79v-.524a.64.64 0 00-.256-.545 1.054 1.054 0 00-.647-.19 1.354 1.354 0 00-.832.23 2.463 2.463 0 00-.523.53l-.95-.725a1.69 1.69 0 01.392-.458 2.835 2.835 0 01.564-.362 3.23 3.23 0 01.66-.237 2.543 2.543 0 01.689-.072 4.17 4.17 0 011.07.143 1.691 1.691 0 01.742.422 1.744 1.744 0 01.428.765 4.286 4.286 0 01.136 1.165v2.912a4.345 4.345 0 00.024.462 1.843 1.843 0 00.095.428zm-.154-2.958q-.369.07-.737.154a3.388 3.388 0 00-.665.22 1.387 1.387 0 00-.482.35.79.79 0 00-.184.535.699.699 0 00.202.535.714.714 0 00.511.19 1.122 1.122 0 00.369-.066 2.455 2.455 0 00.368-.16 2.746 2.746 0 00.338-.214q.16-.119.28-.214zM66.322 15.443q-.262 0-.523.018a.892.892 0 00-.427.125 1.952 1.952 0 01.237.469 1.863 1.863 0 01.095.624 2.091 2.091 0 01-.148.801 1.738 1.738 0 01-.44.63 2.017 2.017 0 01-.725.416 3.149 3.149 0 01-1.016.149 4.717 4.717 0 00-.82.06q-.332.06-.332.32c0 .167.1.277.303.333a3.903 3.903 0 00.754.113q.451.03.974.059a3.683 3.683 0 01.975.184 1.815 1.815 0 01.754.482 1.338 1.338 0 01.303.944 1.407 1.407 0 01-.172.659 1.775 1.775 0 01-.523.588 2.806 2.806 0 01-.89.422 4.496 4.496 0 01-1.278.161 4.59 4.59 0 01-2.002-.37 1.178 1.178 0 01-.755-1.104 1.155 1.155 0 01.102-.499 1.085 1.085 0 01.26-.356 1.107 1.107 0 01.357-.214 1.149 1.149 0 01.398-.071v-.024a1.832 1.832 0 00-.261-.142 1.867 1.867 0 01-.303-.179.941.941 0 01-.25-.268.754.754 0 01-.1-.409.797.797 0 01.113-.416 1.607 1.607 0 01.267-.339 1.75 1.75 0 01.315-.243 1.438 1.438 0 01.267-.13 3.41 3.41 0 01-.648-.69 1.61 1.61 0 01-.267-.95 2.109 2.109 0 01.154-.79 1.995 1.995 0 01.464-.69 2.326 2.326 0 01.76-.487 2.8 2.8 0 011.058-.184 2.455 2.455 0 01.814.149 2.14 2.14 0 01.707.397 1.311 1.311 0 01.564-.427 2.12 2.12 0 01.885-.119zm-3.256 5.18a1.41 1.41 0 00-.504.077 1.122 1.122 0 00-.321.185.584.584 0 00-.173.231.626.626 0 00-.047.22.549.549 0 00.356.523 3.405 3.405 0 001.284.166 2.002 2.002 0 00.6-.077 1.405 1.405 0 00.392-.184.72.72 0 00.214-.226.439.439 0 00.065-.202.405.405 0 00-.09-.232.808.808 0 00-.308-.231 2.439 2.439 0 00-.576-.179 4.708 4.708 0 00-.892-.07zm1.284-4.063a.987.987 0 00-.297-.725.976.976 0 00-.713-.297 1.048 1.048 0 00-.773.297 1.034 1.034 0 000 1.45 1.048 1.048 0 00.773.297.976.976 0 00.713-.297.99.99 0 00.297-.725zM66.786 20.742v-6.179h1.354v1.058h.024a2.303 2.303 0 01.671-.855 1.855 1.855 0 011.063-.32v1.556a.622.622 0 00-.119-.013h-.142a1.075 1.075 0 00-.523.137 2.287 2.287 0 00-.44.31 2.042 2.042 0 00-.302.332.53.53 0 00-.113.22v3.754zM71.562 17.89a2.123 2.123 0 00.392 1.373 1.155 1.155 0 00.89.41 1.388 1.388 0 00.809-.208 3.085 3.085 0 00.57-.528l1.07.665a2.546 2.546 0 01-1.064.962 3.595 3.595 0 01-1.527.297 2.545 2.545 0 01-1.087-.225 2.307 2.307 0 01-.82-.642 2.966 2.966 0 01-.523-1.01 4.9 4.9 0 010-2.662 2.912 2.912 0 01.53-1.01 2.318 2.318 0 01.843-.641 2.709 2.709 0 011.128-.226 2.4 2.4 0 011.076.232 2.345 2.345 0 01.79.624 2.742 2.742 0 01.487.909 3.482 3.482 0 01.167 1.075v.606zm2.376-.997a1.549 1.549 0 00-.339-.998 1.19 1.19 0 00-1.699 0 1.549 1.549 0 00-.338.998zM79.367 20.742l-.095-.534a4.387 4.387 0 01-.897.48 2.83 2.83 0 01-1.027.173 1.828 1.828 0 01-.731-.136 1.477 1.477 0 01-.523-.369 1.612 1.612 0 01-.315-.523 1.754 1.754 0 01-.107-.611 1.849 1.849 0 01.867-1.634 6.288 6.288 0 012.674-.79v-.524a.64.64 0 00-.256-.545 1.054 1.054 0 00-.647-.19 1.354 1.354 0 00-.832.23 2.462 2.462 0 00-.523.53l-.95-.725a1.69 1.69 0 01.392-.458 2.835 2.835 0 01.564-.362 3.23 3.23 0 01.66-.237 2.543 2.543 0 01.689-.072 4.17 4.17 0 011.07.143 1.691 1.691 0 01.742.422 1.744 1.744 0 01.428.765 4.286 4.286 0 01.136 1.165v2.912a4.345 4.345 0 00.024.462 1.843 1.843 0 00.095.428zm-.154-2.958q-.369.07-.736.154a3.388 3.388 0 00-.666.22 1.387 1.387 0 00-.481.35.79.79 0 00-.184.535.699.699 0 00.202.535.714.714 0 00.51.19 1.122 1.122 0 00.369-.066 2.455 2.455 0 00.368-.16 2.745 2.745 0 00.339-.214q.16-.119.279-.214zM81.97 14.563V12.52h1.473v2.043h1.212v1.189h-1.212v3.493a.383.383 0 00.13.339.725.725 0 00.405.089 1.415 1.415 0 00.338-.042c.115-.027.228-.053.339-.077v1.212q-.31.036-.582.065a5.468 5.468 0 01-.582.03 1.531 1.531 0 01-1.17-.38 1.48 1.48 0 01-.351-1.045v-3.684h-.856v-1.189zM89.098 14.563V12.52h1.473v2.043h1.212v1.189h-1.212v3.493a.383.383 0 00.131.339.725.725 0 00.404.089 1.415 1.415 0 00.339-.042 20.2 20.2 0 01.338-.077v1.212q-.309.036-.582.065a5.468 5.468 0 01-.582.03 1.531 1.531 0 01-1.17-.38 1.48 1.48 0 01-.35-1.045v-3.684h-.856v-1.189zM92.544 13.424v-1.38h1.473v1.38zm1.473 7.318h-1.473v-6.179h1.473zM95.169 20.742v-6.179h1.343v.666a3.644 3.644 0 01.82-.582 2.307 2.307 0 011.033-.202 1.864 1.864 0 01.903.226 1.392 1.392 0 01.618.677 4.546 4.546 0 01.404-.357 2.5 2.5 0 01.47-.285 2.88 2.88 0 01.564-.19 3.048 3.048 0 01.689-.07 1.695 1.695 0 01.505.082 1.292 1.292 0 01.493.291 1.577 1.577 0 01.374.57 2.412 2.412 0 01.149.91v4.443h-1.474V16.43a.868.868 0 00-.166-.576.781.781 0 00-.57-.221 1.217 1.217 0 00-.63.214 4.163 4.163 0 00-.606.452v4.443h-1.473V16.43a.868.868 0 00-.167-.576.78.78 0 00-.57-.221 1.217 1.217 0 00-.63.214 4.136 4.136 0 00-.605.452v4.443zM105.72 17.89a2.123 2.123 0 00.392 1.373 1.155 1.155 0 00.89.41 1.388 1.388 0 00.809-.208 3.086 3.086 0 00.57-.528l1.07.665a2.546 2.546 0 01-1.064.962 3.595 3.595 0 01-1.527.297 2.545 2.545 0 01-1.087-.225 2.307 2.307 0 01-.82-.642 2.966 2.966 0 01-.522-1.01 4.9 4.9 0 010-2.662 2.912 2.912 0 01.528-1.01 2.318 2.318 0 01.844-.641 2.709 2.709 0 011.129-.226 2.4 2.4 0 011.075.232 2.345 2.345 0 01.79.624 2.742 2.742 0 01.487.909 3.482 3.482 0 01.167 1.075v.606zm2.376-.997a1.549 1.549 0 00-.339-.998 1.19 1.19 0 00-1.698 0 1.549 1.549 0 00-.34.998zM114.06 14.563V12.52h1.473v2.043h1.212v1.189h-1.212v3.493a.383.383 0 00.131.339.725.725 0 00.404.089 1.415 1.415 0 00.339-.042c.114-.027.227-.053.338-.077v1.212q-.309.036-.582.065a5.468 5.468 0 01-.582.03 1.531 1.531 0 01-1.17-.38 1.48 1.48 0 01-.35-1.045v-3.684h-.856v-1.189zM116.936 17.653a4.48 4.48 0 01.184-1.33 2.912 2.912 0 01.528-1.01 2.318 2.318 0 01.844-.642 2.936 2.936 0 012.258 0 2.32 2.32 0 01.843.642 2.912 2.912 0 01.529 1.01 4.9 4.9 0 010 2.66 2.908 2.908 0 01-.53 1.011 2.32 2.32 0 01-.842.642 2.936 2.936 0 01-2.258 0 2.318 2.318 0 01-.844-.642 2.908 2.908 0 01-.528-1.01 4.469 4.469 0 01-.184-1.33zm3.897 0a3.045 3.045 0 00-.297-1.533 1.102 1.102 0 00-1.83 0 3.04 3.04 0 00-.297 1.533 3.033 3.033 0 00.297 1.533 1.102 1.102 0 001.83 0 3.039 3.039 0 00.297-1.533zM131.062 14.66a2.005 2.005 0 00-.564-.892 1.435 1.435 0 00-.993-.344 1.45 1.45 0 00-1.289.754 4.384 4.384 0 00-.469 2.275q-.036 3.03 1.806 3.03a2.062 2.062 0 00.505-.06 1.266 1.266 0 00.428-.201 1.859 1.859 0 00.38-.387 3.488 3.488 0 00.362-.623l1.521.403a3.235 3.235 0 01-1.194 1.682 3.432 3.432 0 01-2.002.564 3.05 3.05 0 01-2.549-1.146 5.19 5.19 0 01-.897-3.262 5.19 5.19 0 01.897-3.262 3.05 3.05 0 012.549-1.146 3.158 3.158 0 011.96.553 3.048 3.048 0 011.034 1.705zM133.521 20.742v-8.578h1.64v3.422h3.303v-3.422h1.64v8.578h-1.64V17.06h-3.303v3.683zM141.541 20.742v-8.578h5.68v1.378h-4.04v2.044h2.934v1.378h-2.934v2.4h4.17v1.378zM152.567 14.66a2.005 2.005 0 00-.565-.892 1.435 1.435 0 00-.992-.344 1.45 1.45 0 00-1.289.754 4.384 4.384 0 00-.469 2.275q-.036 3.03 1.806 3.03a2.062 2.062 0 00.505-.06 1.266 1.266 0 00.428-.201 1.859 1.859 0 00.38-.387 3.489 3.489 0 00.362-.623l1.52.403a3.235 3.235 0 01-1.193 1.682 3.432 3.432 0 01-2.002.564 3.05 3.05 0 01-2.549-1.146 5.19 5.19 0 01-.897-3.262 5.19 5.19 0 01.897-3.262 3.05 3.05 0 012.549-1.146 3.158 3.158 0 011.96.553 3.048 3.048 0 011.034 1.705zM154.979 20.742v-8.578h1.64v3.814l2.862-3.814h1.89l-2.436 3.22 2.828 5.358h-1.818l-2.127-4.075-1.2 1.497v2.578zM165.255 21.74a1.992 1.992 0 00.31.042c.095.004.197.006.309.006a1.408 1.408 0 00.611-.113.796.796 0 00.363-.374c.07-.15.128-.278.172-.381a.872.872 0 00.065-.344 1.101 1.101 0 00-.065-.356q-.066-.19-.125-.381l-1.651-5.275h1.485l1.021 3.802h.024l1.058-3.802h1.473l-1.949 6.19a9.402 9.402 0 01-.48 1.1 2.631 2.631 0 01-.505.688 1.524 1.524 0 01-.613.356 2.769 2.769 0 01-.79.102c-.182 0-.324-.005-.427-.013a2.845 2.845 0 01-.286-.035zM170.245 17.653a4.48 4.48 0 01.184-1.33 2.912 2.912 0 01.529-1.01 2.318 2.318 0 01.844-.642 2.936 2.936 0 012.257 0 2.32 2.32 0 01.843.642 2.912 2.912 0 01.53 1.01 4.9 4.9 0 010 2.66 2.908 2.908 0 01-.53 1.011 2.32 2.32 0 01-.843.642 2.936 2.936 0 01-2.257 0 2.318 2.318 0 01-.844-.642 2.908 2.908 0 01-.529-1.01 4.469 4.469 0 01-.184-1.33zm3.897 0a3.045 3.045 0 00-.297-1.533 1.102 1.102 0 00-1.83 0 3.04 3.04 0 00-.297 1.533 3.033 3.033 0 00.298 1.533 1.102 1.102 0 001.83 0 3.039 3.039 0 00.296-1.533zM181.39 14.563v6.18h-1.355v-.666a9.198 9.198 0 01-.885.534 2.136 2.136 0 01-1.015.25 1.667 1.667 0 01-1.379-.558 2.329 2.329 0 01-.451-1.509v-4.23h1.473v4.016a1.412 1.412 0 00.19.861.694.694 0 00.57.232 1.543 1.543 0 00.838-.22 2.485 2.485 0 00.54-.433v-4.456zM182.423 20.742v-6.179h1.354v1.058h.025a2.298 2.298 0 01.67-.855 1.857 1.857 0 011.064-.32v1.556a.618.618 0 00-.119-.013h-.143a1.076 1.076 0 00-.522.137 2.287 2.287 0 00-.44.31 2.037 2.037 0 00-.302.332.52.52 0 00-.114.22v3.754zM189.624 12.164h1.473v2.97h.024a1.343 1.343 0 01.285-.273 1.896 1.896 0 01.386-.22 2.716 2.716 0 01.422-.142 1.647 1.647 0 01.404-.054 2.116 2.116 0 011.057.261 2.452 2.452 0 01.778.69 3.113 3.113 0 01.476.974 3.96 3.96 0 01.16 1.116 5.544 5.544 0 01-.154 1.343 3.314 3.314 0 01-.463 1.07 2.144 2.144 0 01-1.854.962 1.918 1.918 0 01-.891-.202 3.359 3.359 0 01-.785-.582l-.166.665h-1.152zm1.473 6.962q.118.095.22.19a1.341 1.341 0 00.226.172 1.271 1.271 0 00.29.131 1.31 1.31 0 00.404.054 1.168 1.168 0 001.023-.517 2.645 2.645 0 00.356-1.503 2.645 2.645 0 00-.356-1.503 1.169 1.169 0 00-1.023-.517 1.25 1.25 0 00-.635.16 2.966 2.966 0 00-.505.363zM200.923 14.563v6.18h-1.355v-.666a9.215 9.215 0 01-.885.534 2.133 2.133 0 01-1.016.25 1.668 1.668 0 01-1.378-.558 2.331 2.331 0 01-.451-1.509v-4.23h1.473v4.016a1.412 1.412 0 00.19.861.695.695 0 00.57.232 1.549 1.549 0 00.838-.22 2.504 2.504 0 00.54-.433v-4.456zM205.021 16.191a3.582 3.582 0 00-.517-.445 1.067 1.067 0 00-.635-.208.986.986 0 00-.63.166.543.543 0 00-.202.44.493.493 0 00.232.422 2.79 2.79 0 00.57.291q.338.13.743.267a3.029 3.029 0 01.742.37 2.045 2.045 0 01.57.593 1.682 1.682 0 01.232.92 1.85 1.85 0 01-.172.832 1.632 1.632 0 01-.475.576 1.967 1.967 0 01-.72.339 3.62 3.62 0 01-.903.107 2.742 2.742 0 01-1.335-.321 2.884 2.884 0 01-1.004-.927l.985-.736a3.09 3.09 0 00.612.624 1.325 1.325 0 00.826.267.985.985 0 00.635-.196.618.618 0 00.244-.505.505.505 0 00-.231-.427 2.588 2.588 0 00-.57-.298q-.339-.13-.744-.28a3.5 3.5 0 01-.742-.374 2.046 2.046 0 01-.57-.57 1.544 1.544 0 01-.232-.879 1.71 1.71 0 01.166-.766 1.62 1.62 0 01.452-.565 2.09 2.09 0 01.653-.345 2.535 2.535 0 01.772-.118 3.178 3.178 0 011.195.232 2.493 2.493 0 01.98.707zM206.935 13.424v-1.38h1.472v1.38zm1.472 7.318h-1.472v-6.179h1.472zM209.56 20.742v-6.179h1.355v.666a9.084 9.084 0 01.885-.535 2.132 2.132 0 011.015-.249 1.67 1.67 0 011.38.559 2.331 2.331 0 01.45 1.509v4.23h-1.473v-4.016a1.42 1.42 0 00-.19-.862.697.697 0 00-.57-.232 1.544 1.544 0 00-.838.22 2.513 2.513 0 00-.54.434v4.455zM216.831 17.89a2.123 2.123 0 00.392 1.373 1.155 1.155 0 00.891.41 1.388 1.388 0 00.808-.208 3.07 3.07 0 00.57-.528l1.07.665a2.546 2.546 0 01-1.064.962 3.594 3.594 0 01-1.526.297 2.55 2.55 0 01-1.088-.225 2.31 2.31 0 01-.82-.642 2.966 2.966 0 01-.522-1.01 4.888 4.888 0 010-2.662 2.911 2.911 0 01.528-1.01 2.318 2.318 0 01.844-.641 2.71 2.71 0 011.129-.226 2.404 2.404 0 011.075.232 2.35 2.35 0 01.79.624 2.75 2.75 0 01.487.909 3.496 3.496 0 01.166 1.075v.606zm2.376-.997a1.546 1.546 0 00-.339-.998 1.19 1.19 0 00-1.699 0 1.546 1.546 0 00-.338.998zM224.482 16.191a3.581 3.581 0 00-.517-.445 1.067 1.067 0 00-.635-.208.986.986 0 00-.63.166.543.543 0 00-.202.44.493.493 0 00.231.422 2.79 2.79 0 00.57.291q.34.13.744.267a3.03 3.03 0 01.742.37 2.045 2.045 0 01.57.593 1.682 1.682 0 01.232.92 1.85 1.85 0 01-.172.832 1.632 1.632 0 01-.476.576 1.967 1.967 0 01-.718.339 3.62 3.62 0 01-.904.107 2.742 2.742 0 01-1.336-.321 2.884 2.884 0 01-1.003-.927l.985-.736a3.09 3.09 0 00.612.624 1.325 1.325 0 00.826.267.985.985 0 00.635-.196.618.618 0 00.244-.505.505.505 0 00-.231-.427 2.589 2.589 0 00-.57-.298q-.339-.13-.744-.28a3.5 3.5 0 01-.742-.374 2.046 2.046 0 01-.57-.57 1.544 1.544 0 01-.232-.879 1.71 1.71 0 01.166-.766 1.62 1.62 0 01.452-.565 2.09 2.09 0 01.653-.345 2.535 2.535 0 01.772-.118 3.178 3.178 0 011.195.232 2.493 2.493 0 01.98.707zM229.46 16.191a3.581 3.581 0 00-.517-.445 1.067 1.067 0 00-.634-.208.986.986 0 00-.63.166.543.543 0 00-.202.44.493.493 0 00.231.422 2.79 2.79 0 00.57.291q.339.13.743.267a3.029 3.029 0 01.743.37 2.045 2.045 0 01.57.593 1.682 1.682 0 01.231.92 1.85 1.85 0 01-.171.832 1.632 1.632 0 01-.476.576 1.967 1.967 0 01-.719.339 3.62 3.62 0 01-.903.107 2.742 2.742 0 01-1.336-.321 2.884 2.884 0 01-1.004-.927l.985-.736a3.09 3.09 0 00.613.624 1.325 1.325 0 00.826.267.985.985 0 00.635-.196.618.618 0 00.244-.505.505.505 0 00-.232-.427 2.588 2.588 0 00-.57-.298q-.338-.13-.743-.28a3.5 3.5 0 01-.742-.374 2.046 2.046 0 01-.57-.57 1.544 1.544 0 01-.232-.879 1.71 1.71 0 01.166-.766 1.62 1.62 0 01.451-.565 2.09 2.09 0 01.653-.345 2.535 2.535 0 01.773-.118 3.178 3.178 0 011.194.232 2.493 2.493 0 01.98.707zM231.849 13.852h-.713v-1.688h1.64v1.688l-.761 1.78h-.773zM238.515 17.89a2.123 2.123 0 00.391 1.373 1.155 1.155 0 00.892.41 1.388 1.388 0 00.807-.208 3.07 3.07 0 00.57-.528l1.07.665a2.546 2.546 0 01-1.063.962 3.594 3.594 0 01-1.527.297 2.55 2.55 0 01-1.088-.225 2.31 2.31 0 01-.819-.642 2.965 2.965 0 01-.522-1.01 4.888 4.888 0 010-2.662 2.911 2.911 0 01.528-1.01 2.318 2.318 0 01.844-.641 2.71 2.71 0 011.129-.226 2.404 2.404 0 011.075.232 2.35 2.35 0 01.79.624 2.75 2.75 0 01.487.909 3.496 3.496 0 01.166 1.075v.606zm2.376-.997a1.546 1.546 0 00-.34-.998 1.19 1.19 0 00-1.698 0 1.546 1.546 0 00-.338.998zM243.124 20.742v-8.578h1.473v8.578zM245.833 13.424v-1.38h1.473v1.38zm1.473 7.318h-1.473v-6.179h1.473zM253.59 15.443c-.173 0-.348.006-.522.018a.889.889 0 00-.427.125 1.952 1.952 0 01.237.469 1.862 1.862 0 01.096.624 2.083 2.083 0 01-.15.801 1.726 1.726 0 01-.44.63 2.015 2.015 0 01-.724.416 3.149 3.149 0 01-1.015.149 4.723 4.723 0 00-.82.06q-.333.06-.333.32c0 .167.1.277.303.333a3.897 3.897 0 00.755.113q.451.03.973.059a3.68 3.68 0 01.975.184 1.807 1.807 0 01.754.482 1.339 1.339 0 01.304.944 1.396 1.396 0 01-.173.659 1.763 1.763 0 01-.523.588 2.804 2.804 0 01-.891.422 4.494 4.494 0 01-1.277.161 4.588 4.588 0 01-2.002-.37 1.177 1.177 0 01-.754-1.104 1.155 1.155 0 01.1-.499 1.1 1.1 0 01.262-.356 1.112 1.112 0 01.356-.214 1.152 1.152 0 01.399-.071v-.024a1.867 1.867 0 00-.262-.142 1.822 1.822 0 01-.303-.179.936.936 0 01-.25-.268.754.754 0 01-.1-.409.801.801 0 01.112-.416 1.625 1.625 0 01.268-.339 1.72 1.72 0 01.315-.243 1.419 1.419 0 01.267-.13 3.449 3.449 0 01-.648-.69 1.614 1.614 0 01-.267-.95 2.1 2.1 0 01.155-.79 1.987 1.987 0 01.463-.69 2.321 2.321 0 01.76-.487 2.8 2.8 0 011.058-.184 2.456 2.456 0 01.814.149 2.14 2.14 0 01.707.397 1.309 1.309 0 01.564-.427 2.12 2.12 0 01.885-.119zm-3.254 5.18a1.407 1.407 0 00-.505.077 1.125 1.125 0 00-.321.185.578.578 0 00-.172.231.617.617 0 00-.048.22.55.55 0 00.356.523 3.401 3.401 0 001.284.166 1.997 1.997 0 00.6-.077 1.416 1.416 0 00.392-.184.719.719 0 00.214-.226.447.447 0 00.065-.202.407.407 0 00-.09-.232.798.798 0 00-.308-.231 2.446 2.446 0 00-.576-.179 4.698 4.698 0 00-.891-.07zm1.283-4.063a.986.986 0 00-.298-.725.974.974 0 00-.713-.297 1.045 1.045 0 00-.771.297 1.032 1.032 0 000 1.45 1.045 1.045 0 00.771.297.974.974 0 00.713-.297.988.988 0 00.298-.725zM254.186 13.424v-1.38h1.472v1.38zm1.472 7.318h-1.472v-6.179h1.472zM256.812 12.164h1.472v2.97h.025a1.343 1.343 0 01.285-.273 1.896 1.896 0 01.385-.22 2.716 2.716 0 01.422-.142 1.647 1.647 0 01.405-.054 2.116 2.116 0 011.056.261 2.452 2.452 0 01.779.69 3.113 3.113 0 01.475.974 3.96 3.96 0 01.16 1.116 5.544 5.544 0 01-.154 1.343 3.314 3.314 0 01-.463 1.07 2.144 2.144 0 01-1.853.962 1.918 1.918 0 01-.892-.202 3.359 3.359 0 01-.784-.582l-.166.665h-1.152zm1.472 6.962q.119.095.22.19a1.341 1.341 0 00.226.172 1.271 1.271 0 00.291.131 1.31 1.31 0 00.404.054 1.168 1.168 0 001.022-.517 2.645 2.645 0 00.357-1.503 2.645 2.645 0 00-.357-1.503 1.169 1.169 0 00-1.022-.517 1.25 1.25 0 00-.636.16 2.966 2.966 0 00-.505.363zM263.132 13.424v-1.38h1.472v1.38zm1.472 7.318h-1.472v-6.179h1.472zM265.84 20.742v-8.578h1.473v8.578zM268.55 13.424v-1.38h1.472v1.38zm1.472 7.318h-1.472v-6.179h1.472zM271.46 14.563V12.52h1.474v2.043h1.212v1.189h-1.212v3.493a.384.384 0 00.13.339.728.728 0 00.404.089 1.412 1.412 0 00.339-.042c.114-.027.227-.053.339-.077v1.212q-.31.036-.583.065a5.447 5.447 0 01-.582.03 1.531 1.531 0 01-1.17-.38 1.483 1.483 0 01-.351-1.045v-3.684h-.855v-1.189zM274.407 21.74a1.986 1.986 0 00.309.042c.095.004.198.006.308.006a1.407 1.407 0 00.613-.113.793.793 0 00.362-.374c.071-.15.129-.278.172-.381a.863.863 0 00.065-.344 1.089 1.089 0 00-.065-.356 14.118 14.118 0 01-.124-.381l-1.652-5.275h1.485l1.022 3.802h.024l1.057-3.802h1.473l-1.948 6.19a9.232 9.232 0 01-.482 1.1 2.61 2.61 0 01-.505.688 1.517 1.517 0 01-.61.356 2.771 2.771 0 01-.79.102c-.183 0-.326-.005-.429-.013a2.81 2.81 0 01-.285-.035zM29.788 30.01V35h-1.473v-4.99h-.856V28.82h.844v-.76a2.97 2.97 0 01.1-.837 1.195 1.195 0 01.316-.54 1.251 1.251 0 01.547-.292 3.088 3.088 0 01.784-.09h.974v1.19h-.404a1.03 1.03 0 00-.648.154.634.634 0 00-.184.51v.665h1.248v1.189zM31.178 31.911a4.48 4.48 0 01.184-1.33 2.912 2.912 0 01.53-1.01 2.319 2.319 0 01.843-.642 2.936 2.936 0 012.257 0 2.32 2.32 0 01.843.641 2.912 2.912 0 01.53 1.01 4.9 4.9 0 010 2.661 2.908 2.908 0 01-.53 1.01 2.32 2.32 0 01-.843.643 2.936 2.936 0 01-2.257 0 2.318 2.318 0 01-.844-.642 2.908 2.908 0 01-.529-1.01 4.469 4.469 0 01-.184-1.33zm3.897 0a3.045 3.045 0 00-.297-1.533 1.102 1.102 0 00-1.83 0 3.04 3.04 0 00-.297 1.533 3.033 3.033 0 00.298 1.532 1.102 1.102 0 001.83 0 3.039 3.039 0 00.296-1.532zM37.214 35v-6.179h1.354v1.058h.024a2.303 2.303 0 01.671-.856 1.855 1.855 0 011.064-.32v1.557a.62.62 0 00-.12-.013h-.142a1.075 1.075 0 00-.523.137 2.288 2.288 0 00-.439.31 2.042 2.042 0 00-.303.331.53.53 0 00-.113.22V35zM44.675 28.821v-2.043h1.473v2.043h1.212v1.189h-1.212v3.493a.383.383 0 00.131.339.725.725 0 00.404.089 1.415 1.415 0 00.339-.042 20.3 20.3 0 01.338-.077v1.211q-.309.037-.582.066a5.47 5.47 0 01-.582.03 1.531 1.531 0 01-1.17-.38 1.48 1.48 0 01-.35-1.046V30.01h-.856V28.82zM48.001 35v-8.578h1.474v3.065a5.286 5.286 0 01.79-.535 1.997 1.997 0 01.992-.249 1.668 1.668 0 011.378.559 2.331 2.331 0 01.452 1.509V35h-1.474v-4.016a1.416 1.416 0 00-.19-.861.696.696 0 00-.57-.232 1.544 1.544 0 00-.837.22 2.485 2.485 0 00-.54.434V35zM55.273 32.148a2.123 2.123 0 00.392 1.373 1.155 1.155 0 00.891.41 1.388 1.388 0 00.808-.208 3.087 3.087 0 00.57-.529l1.07.665a2.546 2.546 0 01-1.064.963 3.595 3.595 0 01-1.526.297 2.545 2.545 0 01-1.087-.225 2.307 2.307 0 01-.82-.642 2.966 2.966 0 01-.523-1.01 4.9 4.9 0 010-2.662 2.912 2.912 0 01.529-1.01 2.318 2.318 0 01.843-.641 2.709 2.709 0 011.129-.226 2.4 2.4 0 011.075.232 2.346 2.346 0 01.79.624 2.742 2.742 0 01.487.909 3.482 3.482 0 01.167 1.075v.605zm2.376-.998a1.549 1.549 0 00-.338-.998 1.19 1.19 0 00-1.7 0 1.549 1.549 0 00-.338.998zM68.425 29.701q-.261 0-.522.018a.892.892 0 00-.428.125 1.953 1.953 0 01.237.468 1.863 1.863 0 01.096.624 2.092 2.092 0 01-.149.802 1.738 1.738 0 01-.44.63 2.017 2.017 0 01-.724.416 3.149 3.149 0 01-1.016.149 4.717 4.717 0 00-.82.06q-.332.06-.332.32c0 .166.1.277.302.332a3.903 3.903 0 00.755.114q.451.029.974.058a3.683 3.683 0 01.975.185 1.815 1.815 0 01.754.481 1.338 1.338 0 01.303.945 1.407 1.407 0 01-.172.659 1.775 1.775 0 01-.523.588 2.806 2.806 0 01-.891.422 4.496 4.496 0 01-1.278.16 4.59 4.59 0 01-2.002-.368 1.178 1.178 0 01-.754-1.105 1.155 1.155 0 01.101-.499 1.085 1.085 0 01.261-.356 1.107 1.107 0 01.357-.214 1.149 1.149 0 01.398-.071v-.024a1.832 1.832 0 00-.262-.142 1.865 1.865 0 01-.303-.18.941.941 0 01-.25-.267.754.754 0 01-.1-.409.797.797 0 01.113-.416 1.607 1.607 0 01.267-.339 1.75 1.75 0 01.315-.243 1.438 1.438 0 01.268-.13 3.41 3.41 0 01-.648-.69 1.61 1.61 0 01-.268-.95 2.109 2.109 0 01.155-.79 1.995 1.995 0 01.463-.69 2.326 2.326 0 01.76-.487 2.8 2.8 0 011.058-.184 2.455 2.455 0 01.814.149 2.14 2.14 0 01.707.397 1.311 1.311 0 01.564-.428 2.12 2.12 0 01.885-.118zm-3.255 5.18a1.41 1.41 0 00-.505.077 1.122 1.122 0 00-.32.185.584.584 0 00-.173.231.626.626 0 00-.047.22.549.549 0 00.356.523 3.405 3.405 0 001.283.166 2.002 2.002 0 00.6-.077 1.405 1.405 0 00.392-.185.719.719 0 00.214-.225.439.439 0 00.065-.202.405.405 0 00-.089-.232.808.808 0 00-.309-.231 2.439 2.439 0 00-.576-.179 4.708 4.708 0 00-.891-.071zm1.283-4.064a.987.987 0 00-.297-.724.976.976 0 00-.713-.297 1.048 1.048 0 00-.772.297 1.034 1.034 0 000 1.45 1.048 1.048 0 00.772.297.976.976 0 00.713-.297.99.99 0 00.297-.726zM68.46 31.911a4.48 4.48 0 01.185-1.33 2.912 2.912 0 01.529-1.01 2.318 2.318 0 01.844-.642 2.936 2.936 0 012.257 0 2.32 2.32 0 01.843.641 2.912 2.912 0 01.529 1.01 4.9 4.9 0 010 2.661 2.908 2.908 0 01-.529 1.01 2.32 2.32 0 01-.843.643 2.936 2.936 0 01-2.257 0 2.318 2.318 0 01-.844-.642 2.908 2.908 0 01-.529-1.01 4.469 4.469 0 01-.184-1.33zm3.898 0a3.045 3.045 0 00-.297-1.533 1.102 1.102 0 00-1.83 0 3.04 3.04 0 00-.297 1.533 3.033 3.033 0 00.297 1.532 1.102 1.102 0 001.83 0 3.039 3.039 0 00.297-1.532zM73.795 28.821h1.474l1.021 4.183h.024l1.046-4.183h1.473L77.063 35h-1.544zM80.27 32.148a2.123 2.123 0 00.393 1.373 1.155 1.155 0 00.89.41 1.388 1.388 0 00.809-.208 3.087 3.087 0 00.57-.529l1.07.665a2.546 2.546 0 01-1.064.963 3.595 3.595 0 01-1.527.297 2.545 2.545 0 01-1.087-.225 2.307 2.307 0 01-.82-.642 2.966 2.966 0 01-.523-1.01 4.9 4.9 0 010-2.662 2.912 2.912 0 01.53-1.01 2.319 2.319 0 01.843-.641 2.709 2.709 0 011.128-.226 2.4 2.4 0 011.076.232 2.346 2.346 0 01.79.624 2.742 2.742 0 01.487.909A3.482 3.482 0 0184 31.543v.605zm2.377-.998a1.549 1.549 0 00-.339-.998 1.19 1.19 0 00-1.699 0 1.549 1.549 0 00-.338.998zM84.762 35v-6.179h1.355v1.058h.023a2.303 2.303 0 01.672-.856 1.855 1.855 0 011.063-.32v1.557a.62.62 0 00-.12-.013h-.142a1.075 1.075 0 00-.522.137 2.288 2.288 0 00-.44.31 2.042 2.042 0 00-.303.331.53.53 0 00-.113.22V35zM88.41 35v-6.179h1.354v.666a9.273 9.273 0 01.885-.535 2.134 2.134 0 011.016-.249 1.668 1.668 0 011.378.559 2.331 2.331 0 01.452 1.509V35H92.02v-4.016a1.416 1.416 0 00-.19-.861.696.696 0 00-.57-.232 1.544 1.544 0 00-.838.22 2.485 2.485 0 00-.54.434V35zM94.576 35v-6.179h1.342v.666a3.644 3.644 0 01.82-.582 2.307 2.307 0 011.034-.202 1.864 1.864 0 01.903.226 1.392 1.392 0 01.617.676 4.545 4.545 0 01.405-.356 2.5 2.5 0 01.469-.285 2.878 2.878 0 01.564-.19 3.048 3.048 0 01.69-.07 1.696 1.696 0 01.504.082 1.292 1.292 0 01.494.291 1.577 1.577 0 01.374.57 2.412 2.412 0 01.148.91V35h-1.473v-4.313a.868.868 0 00-.166-.576.781.781 0 00-.57-.22 1.217 1.217 0 00-.63.213 4.163 4.163 0 00-.606.453V35H98.02v-4.313a.868.868 0 00-.166-.576.78.78 0 00-.57-.22 1.217 1.217 0 00-.63.213 4.136 4.136 0 00-.606.453V35zM105.126 32.148a2.123 2.123 0 00.392 1.373 1.155 1.155 0 00.891.41 1.388 1.388 0 00.808-.208 3.087 3.087 0 00.57-.529l1.07.665a2.546 2.546 0 01-1.064.963 3.595 3.595 0 01-1.526.297 2.545 2.545 0 01-1.087-.225 2.307 2.307 0 01-.82-.642 2.966 2.966 0 01-.523-1.01 4.9 4.9 0 010-2.662 2.912 2.912 0 01.529-1.01 2.318 2.318 0 01.843-.641 2.709 2.709 0 011.129-.226 2.4 2.4 0 011.075.232 2.346 2.346 0 01.79.624 2.742 2.742 0 01.487.909 3.482 3.482 0 01.167 1.075v.605zm2.376-.998a1.549 1.549 0 00-.338-.998 1.19 1.19 0 00-1.7 0 1.549 1.549 0 00-.338.998zM109.665 35v-6.179h1.354v.666a9.273 9.273 0 01.885-.535 2.134 2.134 0 011.016-.249 1.668 1.668 0 011.378.559 2.331 2.331 0 01.452 1.509V35h-1.474v-4.016a1.416 1.416 0 00-.19-.861.696.696 0 00-.57-.232 1.544 1.544 0 00-.837.22 2.485 2.485 0 00-.54.434V35zM116.08 28.821v-2.043h1.474v2.043h1.212v1.189h-1.212v3.493a.383.383 0 00.13.339.725.725 0 00.404.089 1.415 1.415 0 00.34-.042c.114-.028.227-.053.338-.077v1.211q-.31.037-.582.066a5.47 5.47 0 01-.582.03 1.531 1.531 0 01-1.17-.38 1.48 1.48 0 01-.351-1.046V30.01h-.856V28.82zM123.363 35v-8.578h1.64V35zM126.512 35v-8.578h1.71l3.375 5.846h.024v-5.846h1.544V35h-1.58l-3.505-6.107h-.024V35zM138.57 28.703a1.874 1.874 0 00-.57-.807 1.476 1.476 0 00-.962-.31 1.576 1.576 0 00-.879.226.804.804 0 00-.345.725.735.735 0 00.327.611 3.897 3.897 0 00.82.452q.493.208 1.063.421a5.656 5.656 0 011.064.53 2.902 2.902 0 01.82.778 1.948 1.948 0 01.326 1.152 2.436 2.436 0 01-.784 1.985 3.38 3.38 0 01-2.221.653 3.757 3.757 0 01-1.95-.547 3.143 3.143 0 01-.754-.641 2.845 2.845 0 01-.504-.844l1.354-.594a3.058 3.058 0 00.719.975 1.685 1.685 0 001.146.368 2.547 2.547 0 00.57-.06 1.306 1.306 0 00.458-.196.964.964 0 00.31-.356 1.144 1.144 0 00.112-.529.879.879 0 00-.327-.695 3.524 3.524 0 00-.82-.505q-.493-.225-1.063-.44a6.2 6.2 0 01-1.063-.516 2.946 2.946 0 01-.82-.737 1.775 1.775 0 01-.327-1.099 2.254 2.254 0 01.226-1.021 2.215 2.215 0 01.606-.755 2.752 2.752 0 01.879-.464 3.62 3.62 0 012.899.339 2.932 2.932 0 011.188 1.437zM146.78 26.41v1.378h-2.245V35h-1.639v-7.212h-2.246V26.41zM148.575 26.41h2.044l2.435 8.59h-1.628l-.475-1.854h-2.709l-.51 1.854h-1.628zm.024 5.382h1.996l-.963-3.73h-.024zM153.743 35v-8.578h1.711l3.374 5.846h.024v-5.846h1.544V35h-1.58l-3.505-6.107h-.023V35zM167.264 26.41v1.378h-2.246V35h-1.64v-7.212h-2.245V26.41zM173.288 26.41h2.043l2.436 8.59h-1.628l-.475-1.854h-2.71l-.51 1.854h-1.628zm.023 5.382h1.996l-.962-3.73h-.024zM182.508 28.703a1.89 1.89 0 00-.57-.807 1.478 1.478 0 00-.963-.31 1.57 1.57 0 00-.88.226.803.803 0 00-.345.725.735.735 0 00.327.611 3.905 3.905 0 00.82.452c.33.138.683.279 1.064.421a5.677 5.677 0 011.062.53 2.916 2.916 0 01.82.778 1.955 1.955 0 01.327 1.152 2.44 2.44 0 01-.783 1.985 3.382 3.382 0 01-2.223.653 3.757 3.757 0 01-1.948-.547 3.143 3.143 0 01-.755-.641 2.845 2.845 0 01-.504-.844l1.354-.594a3.064 3.064 0 00.718.975 1.686 1.686 0 001.147.368 2.537 2.537 0 00.57-.06 1.292 1.292 0 00.457-.196.972.972 0 00.31-.356 1.156 1.156 0 00.112-.529.875.875 0 00-.326-.695 3.467 3.467 0 00-.82-.505q-.493-.225-1.063-.44a6.181 6.181 0 01-1.063-.516 2.946 2.946 0 01-.82-.737 1.775 1.775 0 01-.327-1.099 2.254 2.254 0 01.226-1.021 2.215 2.215 0 01.606-.755 2.752 2.752 0 01.879-.464 3.621 3.621 0 012.9.339 2.931 2.931 0 011.187 1.437zM189.363 28.703a1.882 1.882 0 00-.57-.807 1.478 1.478 0 00-.963-.31 1.574 1.574 0 00-.879.226.805.805 0 00-.345.725.736.736 0 00.328.611 3.88 3.88 0 00.819.452q.494.208 1.063.421a5.686 5.686 0 011.064.53 2.9 2.9 0 01.82.778 1.949 1.949 0 01.326 1.152 2.437 2.437 0 01-.784 1.985 3.379 3.379 0 01-2.221.653 3.757 3.757 0 01-1.949-.547 3.146 3.146 0 01-.755-.641 2.855 2.855 0 01-.504-.844l1.354-.594a3.065 3.065 0 00.719.975 1.685 1.685 0 001.146.368 2.544 2.544 0 00.57-.06 1.3 1.3 0 00.458-.196.96.96 0 00.31-.356 1.144 1.144 0 00.111-.529.878.878 0 00-.326-.695 3.507 3.507 0 00-.82-.505q-.492-.225-1.064-.44a6.19 6.19 0 01-1.062-.516 2.941 2.941 0 01-.82-.737 1.775 1.775 0 01-.327-1.099 2.242 2.242 0 01.226-1.021 2.208 2.208 0 01.606-.755 2.76 2.76 0 01.878-.464 3.621 3.621 0 012.9.339 2.933 2.933 0 011.188 1.437zM192.06 35v-8.578h5.678V27.8H193.7v2.044h2.935v1.378h-2.935v2.4h4.17V35zM204.416 26.41v1.378h-2.245V35h-1.64v-7.212h-2.246V26.41zM208.05 26.422h1.534l1.081 5.786h.023l1.224-5.786h1.688l1.128 5.786h.024l1.177-5.786h1.532L215.679 35h-1.663l-1.248-6.107h-.024L211.51 35h-1.664zM218.186 35v-8.578h3.421a3.549 3.549 0 011.247.196 2.13 2.13 0 011.337 1.349 3.015 3.015 0 01.16.997 2.372 2.372 0 01-.385 1.39 2.04 2.04 0 01-1.183.82l1.89 3.826h-1.819l-1.615-3.493h-1.414V35zm1.64-4.824h1.211a2.1 2.1 0 001.318-.303 1.337 1.337 0 000-1.817 1.553 1.553 0 00-1.033-.303h-1.497zM225.635 35v-8.578h1.64V35zM234.237 26.41v1.378h-2.245V35h-1.64v-7.212h-2.246V26.41zM234.985 35v-8.578h5.68V27.8h-4.04v2.044h2.935v1.378h-2.935v2.4h4.17V35zM241.151 32.553V31.27h2.911v1.283zM252.071 30.71a5.12 5.12 0 01-.915 3.263 3.717 3.717 0 01-5.37 0 5.114 5.114 0 01-.915-3.262 5.114 5.114 0 01.915-3.262 3.717 3.717 0 015.37 0 5.12 5.12 0 01.915 3.262zm-1.64 0a4.343 4.343 0 00-.475-2.274 1.84 1.84 0 00-2.97 0 4.334 4.334 0 00-.475 2.275 4.178 4.178 0 00.457 2.275 1.655 1.655 0 001.503.754 1.628 1.628 0 001.485-.754 4.343 4.343 0 00.476-2.275zM252.997 35v-8.578h5.465V27.8h-3.825v2.044h2.863v1.378h-2.863V35zM259.164 35v-8.578h5.465V27.8h-3.825v2.044h2.863v1.378h-2.863V35z" fill="#fff"/><path d="M264.2 28.64l1.246-2.597h.694l1.246 2.598h-.762l-.831-1.823-.838 1.823zM268.455 35v-1.688h1.64V35z" fill="#fff"/></svg>