<svg xmlns="http://www.w3.org/2000/svg" viewBox="0 0 680 75"><defs><clipPath id="a"><path fill="none" d="M-32768-32692h65535v65535h-65535z"/></clipPath></defs><g clip-path="url(#a)" opacity=".8"><path d="M384.901 29.903L317.008 49.37a4.1 4.1 0 01-5.056-2.803l-5.07-17.682-.019-.066-.507-1.768-.025-.088-.05-.174-.057-.197-.062-.218a4.071 4.071 0 01-.017-1.295 1.105 1.105 0 01.046-.25 2.525 2.525 0 01.063-.277.469.469 0 01.056-.134c.025-.078.05-.156.06-.206a2.433 2.433 0 01.126-.296l.078-.141a1.098 1.098 0 01.11-.197l.03-.056a4.69 4.69 0 01.885-1.033c.038-.034.06-.041.097-.075l.022-.006c.118-.082.215-.156.333-.238l.06-.04a3.921 3.921 0 01.944-.413l1.681-.482a.772.772 0 01.225-.041c.065-.02.146-.065.212-.084l7.575-2.172a2.299 2.299 0 011.651-2.482l45.473-13.04a2.316 2.316 0 012.715 1.23l9.89-2.835a4.596 4.596 0 01.536-.107c.043-.012.093-.003.137-.015.065-.02.115-.01.181-.03a4.125 4.125 0 014.201 2.955l5.678 19.8a4.036 4.036 0 01.154 1.279c-.009.05.003.093-.006.143a.323.323 0 00-.006.144 4.148 4.148 0 01-.812 2.028c-.016.028-.053.063-.069.09a3.905 3.905 0 01-1 .878.238.238 0 01-.103.053 1.391 1.391 0 01-.14.088 2.113 2.113 0 01-.506.216l-1.834.525z" fill="#fff"/></g><path d="M363.513 6.149a.132.132 0 00-.093.169l.188.655a.13.13 0 00.168.093l1.026-.294 1.027 3.58a.13.13 0 00.168.094l.655-.188a.13.13 0 00.094-.169l-1.027-3.58 1.026-.294a.132.132 0 00.094-.169l-.188-.654a.13.13 0 00-.169-.094zm-3.274.939a.133.133 0 00-.094.169l1.26 4.388a.13.13 0 00.167.093l2.423-.695a.13.13 0 00.094-.168l-.188-.655a.131.131 0 00-.169-.093l-1.637.469-.269-.939 1.157-.331a.131.131 0 00.093-.169l-.187-.655a.131.131 0 00-.169-.093l-1.157.332-.275-.961 1.637-.47a.13.13 0 00.093-.168l-.187-.655a.131.131 0 00-.169-.093zm-3.406.977c-.043.012-.059.041-.096.075l-.203.365a.175.175 0 00-.012.122l.551 1.921c.012.044.04.059.075.096l.365.203a.175.175 0 00.122.012l1.288-.369c.043-.013.071.003.121.012l.028.016a.17.17 0 01.075.097l.182.633a.237.237 0 01-.013.121l-.015.028a.173.173 0 01-.097.075l-.633.182a.24.24 0 01-.122-.013l-.028-.015a.177.177 0 01-.075-.097l-.05-.174a.13.13 0 00-.168-.094l-.655.188a.132.132 0 00-.094.169l.238.829c.013.044.041.059.075.097l.365.202a.175.175 0 00.122.013l1.921-.551c.044-.013.06-.041.097-.075l.202-.365a.175.175 0 00.013-.122l-.55-1.921c-.014-.044-.042-.059-.076-.097l-.365-.202a.174.174 0 00-.122-.013l-1.288.37a.24.24 0 01-.122-.013l-.028-.015a.177.177 0 01-.075-.097l-.18-.633c-.014-.044.002-.072.011-.122l.016-.028a.175.175 0 01.096-.075l.633-.181c.044-.013.072.003.122.012l.028.016a.17.17 0 01.075.096l.05.175a.131.131 0 00.17.093l.654-.187a.131.131 0 00.093-.169l-.238-.829c-.012-.044-.04-.06-.075-.097l-.37-.224a.175.175 0 00-.123-.013l-1.92.551zm-3.71 1.064c-.045.013-.06.041-.098.075l-.202.365a.17.17 0 00-.012.122l.551 1.921c.012.044.04.059.075.097l.365.202a.167.167 0 00.121.012l1.288-.369a.25.25 0 01.122.012l.028.016a.173.173 0 01.075.097l.182.633a.236.236 0 01-.013.121l-.015.029a.172.172 0 01-.097.074l-.633.182c-.044.013-.072-.003-.122-.012l-.028-.016a.174.174 0 01-.075-.097l-.05-.174a.131.131 0 00-.168-.094l-.655.188a.132.132 0 00-.094.169l.238.829c.013.044.041.06.075.097l.365.202a.174.174 0 00.122.013l1.921-.551c.044-.013.06-.041.097-.075l.202-.365a.17.17 0 00.012-.122l-.55-1.921c-.013-.044-.04-.059-.075-.097l-.366-.202a.167.167 0 00-.12-.012l-1.289.369a.24.24 0 01-.122-.013l-.028-.015a.177.177 0 01-.075-.097l-.18-.633a.235.235 0 01.011-.121l.015-.029a.177.177 0 01.097-.075l.633-.181c.044-.013.072.003.122.012l.028.016a.174.174 0 01.075.097l.05.174a.132.132 0 00.17.094l.653-.188a.13.13 0 00.094-.169l-.238-.829c-.013-.044-.04-.06-.075-.097l-.37-.224a.175.175 0 00-.123-.013l-1.92.551zm-2.407 2.32c.047.081.1.184.147.265l.594.917-.743.213.018-1.092a.794.794 0 00-.016-.303m-.78-1.406a.144.144 0 00-.1.147l-.052 4.763a.145.145 0 00.181.137l.633-.181a.144.144 0 00.1-.147l.023-.905 1.31-.375.478.761a.144.144 0 00.163.071l.633-.181a.131.131 0 00.093-.169l-.012-.044-2.568-4.012a.146.146 0 00-.163-.072zm-7.118 2.041a.13.13 0 00-.093.168l.188.655a.13.13 0 00.168.094l1.026-.295 1.027 3.581a.13.13 0 00.168.093l.655-.188a.132.132 0 00.094-.168l-1.027-3.58 1.026-.295a.13.13 0 00.093-.168l-.187-.655a.132.132 0 00-.169-.094zm-1.55.444a.131.131 0 00-.093.169l.77 2.685c-.069-.075-.122-.178-.185-.231l-1.929-2.116a.155.155 0 00-.156-.05l-.699.2a.132.132 0 00-.093.169l1.258 4.388a.13.13 0 00.168.093l.655-.187a.132.132 0 00.094-.169l-.77-2.685c.068.075.122.178.184.231l1.93 2.116a.155.155 0 00.156.05l.698-.201a.13.13 0 00.094-.168l-1.258-4.388a.132.132 0 00-.169-.094zm-4.436 2.902c.047.081.1.184.147.265l.593.917-.742.213.018-1.092c-.01-.115-.013-.209-.016-.303m-.803-1.399a.143.143 0 00-.1.146l-.05 4.764a.145.145 0 00.18.137l.633-.182a.143.143 0 00.1-.146l.023-.905 1.31-.376.478.761a.146.146 0 00.163.072l.633-.182a.13.13 0 00.093-.168l-.012-.044-2.568-4.012a.144.144 0 00-.163-.072zm-4.344 1.245a.13.13 0 00-.094.169l.188.655a.131.131 0 00.17.093l1.025-.294 1.026 3.58a.132.132 0 00.17.094l.654-.188a.131.131 0 00.093-.169l-1.027-3.58 1.026-.294a.13.13 0 00.094-.169l-.188-.655a.13.13 0 00-.168-.093zm-3.122.895c-.044.013-.059.041-.097.075l-.202.366a.172.172 0 00-.013.121l.551 1.921c.013.044.041.06.075.097l.365.202a.175.175 0 00.122.013l1.288-.37a.24.24 0 01.122.013l.028.015a.177.177 0 01.075.097l.181.633c.013.044-.003.072-.012.122l-.016.028a.175.175 0 01-.096.075l-.633.181c-.044.013-.072-.003-.122-.012l-.028-.016a.17.17 0 01-.075-.096l-.05-.175a.131.131 0 00-.169-.093l-.655.187a.131.131 0 00-.093.169l.238.83c.012.043.041.059.075.096l.365.203a.18.18 0 00.122.012l1.921-.551c.043-.012.06-.041.096-.075l.203-.365a.175.175 0 00.012-.122l-.55-1.921c-.013-.043-.04-.059-.076-.096l-.365-.203a.173.173 0 00-.12-.012l-1.289.369c-.044.013-.072-.003-.122-.012l-.028-.016a.17.17 0 01-.075-.096l-.182-.634a.237.237 0 01.013-.121l.015-.028a.173.173 0 01.097-.075l.633-.182a.24.24 0 01.122.013l.028.015a.177.177 0 01.075.097l.05.174a.13.13 0 00.168.094l.655-.188a.132.132 0 00.094-.169l-.238-.829c-.013-.044-.04-.059-.075-.097l-.365-.202a.17.17 0 00-.122-.012zm-2.16.62a.13.13 0 00-.095.169l.77 2.685c-.069-.075-.122-.178-.184-.231l-1.958-2.132a.153.153 0 00-.156-.049l-.699.2a.13.13 0 00-.093.168l1.258 4.388a.132.132 0 00.17.094l.654-.188a.131.131 0 00.093-.169l-.764-2.663c.07.075.122.178.185.231l1.93 2.116a.155.155 0 00.155.05l.7-.201a.13.13 0 00.092-.168l-1.258-4.388a.13.13 0 00-.168-.093zm-5.11 1.465a.13.13 0 00-.093.168l.188.655a.13.13 0 00.168.094l.328-.094.801 2.794-.328.094a.131.131 0 00-.093.169l.188.655a.13.13 0 00.168.093l1.594-.457a.131.131 0 00.093-.169l-.187-.654a.13.13 0 00-.169-.094l-.327.094-.802-2.794.328-.094a.131.131 0 00.093-.169l-.188-.655a.13.13 0 00-.168-.093zm57.933-5.839c-.047-.081-.103-.112-.15-.193-.022.006-1.127-1.378-1.127-1.378l-.11-.134-.078-.025-.458.132-.03.056-.01.05.006.022-.013.121c-.093.665-.158 1.345-.25 2.009l-.013.122-.003.072.013.044.056.031.05.009.502-.144.053-.062.028-.15c.024-.409.086-.852.117-1.239l.025-.078.016-.028.021-.006.057.031.15.193c.184.231.39.455.552.692l.156.215.063.053.078.025.11-.031c.114-.009.255-.097.37-.106l.06-.041.015-.028-.013-.044-.034-.037zm-3.41-.77l-.082-.119-.112-.062-.143-.006-.42.097c-.619.153-1.252.335-1.879.538-.842.36-1.837.433-2.672.814l-.05-.009-.197.056-.112.103-.022.337a10.749 10.749 0 01.52 1.647c.1.349.178.704.278 1.054.173.683 1.963 6.926 2.554 8.907l.016.137.17.424.118.084.121.012.29-.059a9.734 9.734 0 011.354-.388l.293-.132.087-.19-.003-.094-.225-.785c-.404-1.326-.699-2.683-1.168-3.989l-.044-.318.047-.085c.015-.028.01-.05.053-.062.037-.034.087-.025.131-.038.306-.087.661-.166.94-.269.064-.019.682-.172.682-.172l.283-.081.097-.075.075-.069.04-.106-.003-.094-.175-.611c.012-.122-.088-.306-.082-.449a2.58 2.58 0 01-.206-.555l-.063-.053-.084-.047-.122-.012-.152.044c-.605.197-1.267.363-1.884.516l-.087.025c-.044.013-.075.069-.13.038-.029-.016-.029-.016-.036-.038l-.028-.015-.044-.318c-.253-.802-.482-1.681-.763-2.498l.015-.194.047-.084.284-.081.037-.035.48-.138c.384-.062 1.288-.369 1.65-.425a4.367 4.367 0 01.518-.172l.143-.16.006-.143.01-.05a7.405 7.405 0 00-.35-1.553zm-10.945 8.714c.486 2.105 1.356 4.643 1.885 6.736l.17.424.117.084.122.012.29-.059c.081-.047.287-.153.393-.113a7.297 7.297 0 01.96-.275l.294-.132.087-.19-.003-.093-.226-.786c-.403-1.326-.704-2.704-1.167-3.989l-.044-.318.124-.225.007.022c.012.044.355-.078.4-.091.563-.091 1.056-.35 1.627-.42l.096-.074.075-.069.041-.106-.003-.094a5.658 5.658 0 01-.257-1.06.818.818 0 00-.16-.309c-.018-.065-.037-.296-.115-.321l-.085-.047-.12-.012-.154.044c-.14.087-.9.234-1.092.313-.05-.01-.243-.025-.14.087.003.094-.034-.037-.062-.053a.924.924 0 01-.415.119l-.284.081c-.225.041-.165-.165-.237-.333-.144-.337-.198-.77-.34-1.107-.095-.162-.099-.587-.23-.714l-.194-.677.015-.194.047-.084.284-.081c.577-.213 1.541-.395 2.118-.607a1.536 1.536 0 00.311-.066c.038-.035.028-.15.097-.075l.137-.016.144-.159.006-.144.01-.05-.164-.567.031-.056-.13-.293-.189-.655-.08-.119-.113-.062-.144-.006-.42.097c-1.457.441-3.157.858-4.579 1.336l-.196.057-.113.103-.02.337.086.14-.012.122.075.096.031.275.138.149c.006.022-.037.2.013.209.291 1.098.56 2.202.96 3.269l.12.414a.437.437 0 01.021.159c.081.119.107.206.156.216zm-2.453 4.46c.062.218.147.43.21.648.03.109.04.225.065.312l.07.406c-.054.227-.054.393-.247.543a.909.909 0 01-.274.196c-.022.007-.234.091-.234.091l-.253.025-.249-.046-.156-.05-.069-.075-.05-.009-.225-.29-.172-.352c-.61-2.377-1.446-4.878-1.934-6.911l-.054-.268-.006-.188.012-.121.122-.319.283-.246a4.542 4.542 0 01.524-.151l.194.016.34.115.153.121.162.237.526 1.834c.41 1.513.873 2.963 1.262 4.482zm.333-7.325a3.293 3.293 0 00-.95-1.169 3.238 3.238 0 00-.68-.396 3.754 3.754 0 00-.82-.142 2.1 2.1 0 00-1.005.122c-.219.063-.443.104-.64.16-.152.044-.286.153-.439.197a3.717 3.717 0 00-.976.634c-.162.094-.32.446-.436.621a5.305 5.305 0 00-.308.656 2.723 2.723 0 00-.014 1.516 289.771 289.771 0 002.125 7.494l.116.321a3.89 3.89 0 00.865 1.122.49.49 0 01.287.178 4.724 4.724 0 00.421.233l.652.215a4.393 4.393 0 002.003-.267.387.387 0 00.374-.178c.206.059.405-.235.63-.275a2.048 2.048 0 01.411-.378c-.047-.081.197-.222.228-.278l.336-.64a8.672 8.672 0 00.224-.867 1.316 1.316 0 01.021-.337l-.034-.534a10.663 10.663 0 00-.373-1.381l-1.136-3.88a23.023 23.023 0 00-.882-2.747zm-6.053 5.752l-.08-.119-.204-.131-.187.007c-.714.228-1.457.441-2.17.669a9.917 9.917 0 00-1.127.276l-.237.162c-.165.166.023.49.073.665a2.323 2.323 0 00.241.758l.09.068.1.019.296-.038c.206-.106 1.288-.369 1.354-.388a8.551 8.551 0 011.266-.363 1.303 1.303 0 01.568-.163l.237-.162.046-.25c-.019-.065-.225-.786-.216-.836a.173.173 0 01-.05-.174zm-2.51 6.815c.024-.078-.095-.162-.113-.228a2.055 2.055 0 00-.057-.361l-.1-.184-.27-.041-.335.072a5.405 5.405 0 00-.802.254c-.536.106-1.15.353-1.702.488l-.209.013c-.022.006-.09-.069-.119-.084-.034-.038-.047-.081-.08-.119-.252-.873-.518-1.718-.74-2.576-.044-.153-.109-.299-.159-.474l.034-.128.096-.075.306-.087a1.129 1.129 0 01.596-.148c.333-.072.73-.256 1.041-.322l.103-.053.122-.153.028-.15a4.62 4.62 0 00-.388-1.188c.046-.084-.025-.252-.072-.334l-.082-.118-.062-.053-.143-.006-.306.088a2.662 2.662 0 01-.82.188 4.318 4.318 0 01-.883.3l-.184-.066-.087-.14.01-.05-.045-.153c-.194-.676-.41-1.512-.64-2.154l-.049-.247.035-.128.084-.118.227-.113c.3-.109 1.136-.16 1.32-.425.028.18.424-.004.411-.048.181-.028.481-.137.69-.15l.24-.069.096-.075.031-.056c.056-.3-.153-.618-.163-.898-.047-.081-.04-.39-.162-.403-.022-.159-.06-.455-.207-.555l-.134-.056-.037.035-.003.071-.05-.009-.063-.053c-.938.269-1.986.57-2.953.823a14.517 14.517 0 01-1.665.454l-.52.244-.057.134-.003.072c1.192 4.076 2.285 8.134 3.515 12.175l-.003.072.068.075.25.046.131-.037c1.6-.435 3.224-.949 4.881-1.353l.314-.137.097-.24.01-.05zm-9.558-8.364l.01-.05-.05-.174-.029-.016-.056-.196.01-.05-.144-.502-.088-.141-.212-.08-.312.065-.162.094c-.506.051-.992.332-1.497.382-.817.282-1.588.479-2.352.698a2.995 2.995 0 01-.617.153c-.24.069-.49.188-.736.235l-.515.1-.037.035-.003.072-.13.037-.057.134.156.546-.03.056.218.764.188.49.15.028c.118-.081.202-.035.34-.05.127-.132.318-.044.471-.088a3.775 3.775 0 01.495-.166c.007-.144.191-.078.262-.075l.328-.094.072.003.221.362c.18.705.336 1.416.564 2.13.038.131.091.234.128.365.351 1.222.68 2.451 1.03 3.673l.495 1.725c.162.568.303 1.141.51 1.696l.097.256.018.066.103.112.178.043.24-.068.05.009.568-.163.037-.034.153-.044.028.015.321-.115.188-.007.277-.103.187-.172.028-.149-.097-.091.053-.062-.003-.094-.034-.037-.1-.349c-.92-3.21-1.725-6.097-2.667-9.3l-.069-.406.084-.118.06-.041.383-.063a3.71 3.71 0 01.67-.216c.031-.056.07-.09.125-.059l.34-.05.212-.085.097-.075.065-.184-.013-.209-.09-.234-.035-.037-.03-.109zm-4.852 11.503c-.864-3.177-1.784-6.056-2.623-9.312l-.163-.567-.034-.038-.163-.567c-.006-.022-.106-.041-.106-.041a.218.218 0 00-.165 0c-.044.013-.072-.003-.116.01l-.283.081a1.666 1.666 0 01-.459.132.488.488 0 00-.228.112 2.096 2.096 0 00-.645.138l-.162.094-.087.19-.007.144.307 1.069c.175.612.585 1.959.585 1.959s1.074 3.826 1.202 4.357c.022-.007.05.009.041.059a.184.184 0 00-.003.072c.335 1.25.726 2.532 1.083 3.776l.238.83.11.134.14.078.262-.075a.903.903 0 00.511-.194 1.881 1.881 0 00.487-.116 1.812 1.812 0 00.34-.05l.371-.107.031-.056.027-.315a6.339 6.339 0 00-.384-1.26c.087-.19-.113-.393-.107-.537m-8.856-2.87l-.187.006-.109-.134-.082-.284a4.222 4.222 0 00-.128-.53c-.259-.327-.169-.92-.413-1.275a7.004 7.004 0 01-.226-.952l-.075-.262.031-.056.26-.169c.087-.025.386-.134.47-.087l.097-.075a.335.335 0 00.21-.013l.27.04.184.066.288.343a4.689 4.689 0 01.312.76 7.039 7.039 0 01.332 1.157c-.028.15.091.4.041.556l-.077.305-.172.144-.03.056-.09.097-.41.141-.028-.016a.764.764 0 01-.468.182zm5.673 5.366a2.029 2.029 0 01-.465-.717c-.69-1.007-1.375-2.157-2.043-3.171l-.222-.361-.06-.29-.034-.038.11-.031.386-.465.267-.549.031-.222c.075-.069.016-.359.02-.431a1.064 1.064 0 00-.055-.598c.103-.219-.088-.637-.15-.855a1.807 1.807 0 00-.138-.48c-.047-.081-.057-.362-.14-.409l-.158-.546-.137-.314-.33-.662-.295-.364-.415-.377-.14-.078-.244-.19-.396-.146-.209.012-.213-.081-.66.001-.282.01-.03.056-.045.012c-.14-.078-.405.069-.536.107a2.13 2.13 0 00-.518.172 6.404 6.404 0 00-1.272.341 2.955 2.955 0 00-.749.191l-.502.144-.134.109-.027.316.17.589c.114.487 3.31 11.548 3.31 11.548l.16.144.164-.001.284-.081a1.609 1.609 0 00.334-.072c.062-.112.14-.253.196-.056.203-.035.512-.194.7-.201l.32-.115.053-.063.01-.05.053-.062.043-.178a115.094 115.094 0 01-1.36-4.665l.03-.222.184-.1.093-.003.206.059.244.355c.72 1.353 1.587 2.569 2.327 3.916l.144.172.103.112.2.037.187-.006c.321-.116.77-.198 1.085-.335.063.053.197-.057.262-.075l.306-.088.097-.075.056-.134.018-.1-.034-.037-.013-.044zm-10.849-9.907c-.063-.053-.237-.002-.297.038a4.849 4.849 0 00-.552.135c-.012-.044-.567.163-.595.147l-.038.034c-.087.025-.42.097-.467.182l-.094.168.19 1.647a11.583 11.583 0 01.222 1.519c.12.746.263 1.578.355 2.308l-.11.032c.11-.032.122.012.153.121l-.006.309a.152.152 0 01.135.056c-.066.019-.09.097-.1.147l.056.361.082.284-.006.144-.047.084-.166-.165-.062-.218c-.33-.661-.697-1.525-1.057-2.202-.165-.496-.522-1.079-.666-1.581-.046-.081-.34-.776-.478-.76.181-.029-.315-.855-.312-.927l-.279-.558-.168-.093-.122-.013-.96.276-.053.062-.459.132-.112.103-.05.156.082.78c.211 1.806.521 3.63.651 5.483l.094.328-.022.171.038.131.028.016.031.109-.093.003-.19-.087-.138-.48c-.369-.792-.847-1.718-1.129-2.535-.425-.989-1.056-2.202-1.394-3.215l-.234-.24-.15-.028a3.605 3.605 0 00-.824.259 2.956 2.956 0 00-.96.276l-.106.125-.03.056.13.458.388.693a21.576 21.576 0 00.972 1.989c.444 1.054.953 2.089 1.441 3.13.31.668.641 1.329.944 1.974a1.431 1.431 0 00.253.471 1.182 1.182 0 00.26.493l.087.305c.3.387.444 1.054.728 1.469a.41.41 0 00.188.324c-.053.063.022.159.078.19l.097.256.075.097.084.046.26-.003c.108-.031.386-.135.517-.172a1.12 1.12 0 00.371-.106c.19-.079.521-.079.664-.238l.084-.119-.003-.259c-.023-.489-.142-1.07-.164-1.559a7.806 7.806 0 00-.15-1.02c.052-.228-.129-.53-.048-.743l-.063-.383a.112.112 0 01-.022-.159c-.069-.571-.142-1.401-.239-1.987-.03-.109-.116-.487-.025-.584-.013-.043-.05-.174-.019-.23l.084.046.187.325c.035.202.235.405.276.629.124.106.134.387.268.443.081-.047.247-.047.113.062-.269-.112.315.855.347.964.428.917.841 1.862 1.306 2.744l.357.748.05.175.243.19.247-.047a5.625 5.625 0 001.032-.272l.393-.113.14-.088.081-.212-.072-.664c-.472-4.117-.934-7.954-1.366-12.012l-.062-.218zm-16.293.113l5.571 19.429a1.115 1.115 0 001.376.763l68.985-19.781a1.115 1.115 0 00.763-1.377l-5.572-19.429a1.115 1.115 0 00-1.376-.763l-10.108 2.899.376 1.309 9.867-2.829 5.434 18.949-68.504 19.643-5.44-18.971 9.584-2.748-.376-1.309-9.824 2.816a1.12 1.12 0 00-.756 1.399m72.043-21.06l5.765 20.106a1.88 1.88 0 01-1.292 2.331l-69.66 19.975a1.88 1.88 0 01-2.333-1.292l-5.765-20.106a1.88 1.88 0 011.293-2.331l10.216-2.93.12.415-10.218 2.929a1.475 1.475 0 00-1.012 1.826l5.766 20.106a1.473 1.473 0 001.826 1.012l69.66-19.975a1.474 1.474 0 001.013-1.826l-5.772-20.127a1.473 1.473 0 00-1.826-1.012l-10.39 2.979-.12-.415 10.391-2.979a1.915 1.915 0 012.338 1.314" fill="#ed1c24"/></svg>