<svg xmlns="http://www.w3.org/2000/svg" viewBox="0 0 680 75"><path d="M53.103 23.67v-11.9h2.374l4.68 8.11h.033v-8.11h2.143v11.9h-2.192l-4.863-8.47h-.033v8.47zM63.52 19.386a6.207 6.207 0 01.255-1.847 4.03 4.03 0 01.734-1.4 3.228 3.228 0 011.17-.891 4.08 4.08 0 013.132 0 3.22 3.22 0 011.17.89 4.03 4.03 0 01.733 1.401 6.789 6.789 0 010 3.692 4.026 4.026 0 01-.734 1.402 3.217 3.217 0 01-1.17.89 4.068 4.068 0 01-3.131 0 3.225 3.225 0 01-1.17-.89 4.026 4.026 0 01-.734-1.402 6.205 6.205 0 01-.255-1.845zm5.406 0a4.225 4.225 0 00-.412-2.127 1.53 1.53 0 00-2.538 0 4.225 4.225 0 00-.413 2.127 4.218 4.218 0 00.413 2.126 1.53 1.53 0 002.538 0 4.218 4.218 0 00.412-2.126zM70.92 15.1h1.945l1.171 5.34h.033l1.236-5.34H77.2l1.188 5.34h.032l1.22-5.34h1.945l-2.209 8.57H77.53l-1.27-5.34h-.031l-1.253 5.34h-1.847zM83.299 14.111h-.99v-2.34h2.276v2.34l-1.056 2.472h-1.071zM89.875 17.358a4.914 4.914 0 00-.717-.618 1.487 1.487 0 00-.882-.289 1.356 1.356 0 00-.873.232.747.747 0 00-.28.609.68.68 0 00.321.585 3.772 3.772 0 00.791.404q.47.182 1.03.371a4.175 4.175 0 011.03.511 2.822 2.822 0 01.792.824 2.334 2.334 0 01.321 1.278 2.557 2.557 0 01-.239 1.153 2.27 2.27 0 01-.66.8 2.747 2.747 0 01-.996.47 5.032 5.032 0 01-1.253.148 3.804 3.804 0 01-1.854-.445 4.033 4.033 0 01-1.393-1.285l1.368-1.023a4.218 4.218 0 00.848.865 1.836 1.836 0 001.146.371 1.359 1.359 0 00.882-.272.856.856 0 00.338-.7.7.7 0 00-.322-.593 3.514 3.514 0 00-.79-.412q-.47-.182-1.03-.388a4.92 4.92 0 01-1.031-.52 2.85 2.85 0 01-.791-.79 2.145 2.145 0 01-.321-1.22 2.39 2.39 0 01.23-1.064 2.26 2.26 0 01.627-.782 2.863 2.863 0 01.906-.478 3.486 3.486 0 011.071-.164 4.386 4.386 0 011.657.32 3.447 3.447 0 011.36.981zM101.775 23.67l-.131-.741a6.107 6.107 0 01-1.245.668 3.941 3.941 0 01-1.425.239 2.533 2.533 0 01-1.014-.19 2.056 2.056 0 01-.726-.511 2.208 2.208 0 01-.436-.725 2.429 2.429 0 01-.149-.848 2.564 2.564 0 011.204-2.267 8.715 8.715 0 013.709-1.097v-.724a.89.89 0 00-.355-.76 1.472 1.472 0 00-.898-.263 1.885 1.885 0 00-1.155.321 3.395 3.395 0 00-.724.735L97.11 16.5a2.353 2.353 0 01.544-.635 3.953 3.953 0 01.784-.503 4.443 4.443 0 01.915-.329 3.496 3.496 0 01.956-.098 5.757 5.757 0 011.483.197 2.362 2.362 0 011.03.585 2.417 2.417 0 01.593 1.063 5.896 5.896 0 01.19 1.616v4.038a6.257 6.257 0 00.033.642 2.642 2.642 0 00.131.594zm-.213-4.104q-.512.1-1.023.215a4.692 4.692 0 00-.923.305 1.926 1.926 0 00-.668.486 1.097 1.097 0 00-.255.741.967.967 0 00.28.743.992.992 0 00.709.263 1.569 1.569 0 00.511-.09 3.578 3.578 0 00.511-.223 3.7 3.7 0 00.47-.297q.222-.164.387-.296zM117.022 16.32q-.363 0-.725.025a1.236 1.236 0 00-.594.173 2.661 2.661 0 01.33.651 2.579 2.579 0 01.132.865 2.9 2.9 0 01-.206 1.112 2.417 2.417 0 01-.61.873 2.786 2.786 0 01-1.005.578 4.346 4.346 0 01-1.41.206 6.533 6.533 0 00-1.137.083q-.462.082-.461.444c0 .231.14.385.42.462a5.335 5.335 0 001.047.156q.625.041 1.351.083a5.05 5.05 0 011.352.255 2.513 2.513 0 011.047.668 1.857 1.857 0 01.42 1.31 1.942 1.942 0 01-.24.915 2.464 2.464 0 01-.724.816 3.934 3.934 0 01-1.237.585 6.263 6.263 0 01-1.772.223 6.394 6.394 0 01-2.777-.511 1.636 1.636 0 01-1.046-1.533 1.602 1.602 0 01.14-.693 1.505 1.505 0 01.857-.79 1.59 1.59 0 01.552-.1v-.032a2.688 2.688 0 00-.363-.199 2.518 2.518 0 01-.42-.247 1.31 1.31 0 01-.346-.37 1.045 1.045 0 01-.14-.57 1.114 1.114 0 01.156-.576 2.236 2.236 0 01.371-.47 2.457 2.457 0 01.437-.338 1.956 1.956 0 01.371-.18 4.737 4.737 0 01-.898-.957 2.238 2.238 0 01-.372-1.319 2.933 2.933 0 01.214-1.096 2.783 2.783 0 01.644-.956 3.222 3.222 0 011.055-.676 3.872 3.872 0 011.466-.254 3.406 3.406 0 011.13.205 2.981 2.981 0 01.98.552 1.81 1.81 0 01.783-.593 2.926 2.926 0 011.228-.164zm-4.516 7.186a1.932 1.932 0 00-.7.107 1.53 1.53 0 00-.446.256.808.808 0 00-.239.321.87.87 0 00-.065.305.76.76 0 00.494.726 4.717 4.717 0 001.78.23 2.79 2.79 0 00.832-.107 1.936 1.936 0 00.544-.255.996.996 0 00.297-.314.61.61 0 00.09-.28.562.562 0 00-.123-.321 1.114 1.114 0 00-.429-.321 3.357 3.357 0 00-.799-.249 6.506 6.506 0 00-1.236-.098zm1.78-5.637a1.371 1.371 0 00-.412-1.006 1.351 1.351 0 00-.99-.412 1.45 1.45 0 00-1.07.412 1.432 1.432 0 000 2.011 1.446 1.446 0 001.07.412 1.348 1.348 0 00.99-.412 1.368 1.368 0 00.412-1.005zM117.647 23.67V15.1h1.88v1.466h.033a3.208 3.208 0 01.931-1.186 2.566 2.566 0 011.475-.444v2.159a.78.78 0 00-.164-.017h-.198a1.496 1.496 0 00-.726.19 3.165 3.165 0 00-.61.428 2.856 2.856 0 00-.42.461.725.725 0 00-.157.305v5.209zM124.241 19.715a2.942 2.942 0 00.544 1.904 1.604 1.604 0 001.237.568 1.926 1.926 0 001.12-.288 4.296 4.296 0 00.792-.733l1.483.923a3.525 3.525 0 01-1.476 1.335 4.976 4.976 0 01-2.118.412 3.505 3.505 0 01-1.508-.314 3.206 3.206 0 01-1.137-.89 4.13 4.13 0 01-.725-1.4 6.789 6.789 0 010-3.693 4.03 4.03 0 01.734-1.4 3.228 3.228 0 011.17-.89 3.773 3.773 0 011.566-.313 3.321 3.321 0 011.491.32 3.245 3.245 0 011.096.866 3.792 3.792 0 01.676 1.26 4.825 4.825 0 01.231 1.492v.84zm3.297-1.385a2.15 2.15 0 00-.47-1.384 1.65 1.65 0 00-2.357 0 2.144 2.144 0 00-.47 1.384zM135.054 23.67l-.132-.741a6.107 6.107 0 01-1.244.668 3.941 3.941 0 01-1.426.239 2.533 2.533 0 01-1.014-.19 2.056 2.056 0 01-.725-.511 2.208 2.208 0 01-.437-.725 2.429 2.429 0 01-.148-.848 2.564 2.564 0 011.203-2.267 8.715 8.715 0 013.709-1.097v-.724a.89.89 0 00-.355-.76 1.472 1.472 0 00-.898-.263 1.885 1.885 0 00-1.154.321 3.395 3.395 0 00-.725.735l-1.32-1.006a2.353 2.353 0 01.545-.635 3.953 3.953 0 01.783-.503 4.443 4.443 0 01.915-.329 3.496 3.496 0 01.956-.098 5.757 5.757 0 011.483.197 2.362 2.362 0 011.03.585 2.417 2.417 0 01.593 1.063 5.896 5.896 0 01.19 1.616v4.038a6.257 6.257 0 00.033.642 2.642 2.642 0 00.132.594zm-.214-4.104q-.511.1-1.023.215a4.692 4.692 0 00-.922.305 1.926 1.926 0 00-.668.486 1.097 1.097 0 00-.255.741.967.967 0 00.28.743.992.992 0 00.708.263 1.569 1.569 0 00.512-.09 3.578 3.578 0 00.51-.223 3.7 3.7 0 00.47-.297q.223-.164.388-.296zM138.647 15.1v-2.835h2.044V15.1h1.681v1.648h-1.68v4.846a.529.529 0 00.18.47 1.004 1.004 0 00.56.123 2.013 2.013 0 00.47-.057c.16-.038.317-.074.47-.108v1.682c-.285.033-.555.063-.808.09a7.515 7.515 0 01-.807.042 2.125 2.125 0 01-1.623-.527 2.058 2.058 0 01-.487-1.452v-5.109h-1.186V15.1zM148.52 15.1v-2.835h2.043V15.1h1.681v1.648h-1.68v4.846a.529.529 0 00.18.47 1.004 1.004 0 00.56.123 2.013 2.013 0 00.47-.057c.16-.038.317-.074.47-.108v1.682c-.285.033-.555.063-.807.09a7.515 7.515 0 01-.808.042 2.125 2.125 0 01-1.623-.527 2.058 2.058 0 01-.486-1.452v-5.109h-1.187V15.1zM153.267 13.518v-1.913h2.044v1.913zm2.044 10.153h-2.044V15.1h2.044zM156.876 23.67V15.1h1.862v.922a5.095 5.095 0 011.138-.807 3.206 3.206 0 011.434-.28 2.592 2.592 0 011.253.313 1.94 1.94 0 01.857.94 6.017 6.017 0 01.56-.495 3.302 3.302 0 01.65-.395 3.901 3.901 0 01.784-.264 4.236 4.236 0 01.956-.098 2.35 2.35 0 01.7.115 1.788 1.788 0 01.685.403 2.195 2.195 0 01.52.791 3.363 3.363 0 01.205 1.262v6.164h-2.043v-5.983a1.201 1.201 0 00-.232-.8 1.077 1.077 0 00-.79-.305 1.693 1.693 0 00-.874.297 5.74 5.74 0 00-.84.627v6.164h-2.045v-5.983a1.207 1.207 0 00-.23-.8 1.082 1.082 0 00-.792-.305 1.693 1.693 0 00-.873.297 5.74 5.74 0 00-.841.627v6.164zM171.496 19.715a2.942 2.942 0 00.544 1.904 1.604 1.604 0 001.236.568 1.926 1.926 0 001.121-.288 4.296 4.296 0 00.791-.733l1.484.923a3.525 3.525 0 01-1.476 1.335 4.976 4.976 0 01-2.118.412 3.505 3.505 0 01-1.508-.314 3.206 3.206 0 01-1.137-.89 4.13 4.13 0 01-.725-1.4 6.789 6.789 0 010-3.693 4.03 4.03 0 01.733-1.4 3.228 3.228 0 011.17-.89 3.773 3.773 0 011.567-.313 3.321 3.321 0 011.49.32 3.245 3.245 0 011.097.866 3.792 3.792 0 01.675 1.26 4.824 4.824 0 01.232 1.492v.84zm3.297-1.385a2.15 2.15 0 00-.47-1.384 1.65 1.65 0 00-2.357 0 2.144 2.144 0 00-.47 1.384zM183.067 15.1v-2.835h2.044V15.1h1.681v1.648h-1.68v4.846a.529.529 0 00.18.47 1.004 1.004 0 00.56.123 2.013 2.013 0 00.47-.057c.16-.038.317-.074.47-.108v1.682c-.285.033-.555.063-.808.09a7.516 7.516 0 01-.807.042 2.125 2.125 0 01-1.623-.527 2.058 2.058 0 01-.487-1.452v-5.109h-1.186V15.1zM187.022 19.386a6.207 6.207 0 01.256-1.847 4.03 4.03 0 01.734-1.4 3.228 3.228 0 011.17-.891 4.08 4.08 0 013.131 0 3.22 3.22 0 011.17.89 4.03 4.03 0 01.734 1.401 6.789 6.789 0 010 3.692 4.026 4.026 0 01-.734 1.402 3.217 3.217 0 01-1.17.89 4.068 4.068 0 01-3.131 0 3.225 3.225 0 01-1.17-.89 4.026 4.026 0 01-.734-1.402 6.205 6.205 0 01-.256-1.845zm5.407 0a4.225 4.225 0 00-.412-2.127 1.53 1.53 0 00-2.538 0 4.225 4.225 0 00-.413 2.127 4.218 4.218 0 00.413 2.126 1.53 1.53 0 002.538 0 4.218 4.218 0 00.412-2.126zM206.621 15.231a2.782 2.782 0 00-.783-1.236 2.115 2.115 0 00-3.165.57 6.086 6.086 0 00-.65 3.156q-.05 4.202 2.504 4.203a2.823 2.823 0 00.7-.082 1.746 1.746 0 00.594-.28 2.55 2.55 0 00.528-.537 4.89 4.89 0 00.503-.865l2.109.56a4.48 4.48 0 01-1.656 2.333 4.753 4.753 0 01-2.778.783 4.225 4.225 0 01-3.535-1.59 7.196 7.196 0 01-1.245-4.525 7.196 7.196 0 011.245-4.525 4.225 4.225 0 013.535-1.59 4.384 4.384 0 012.72.766 4.23 4.23 0 011.434 2.365zM210 23.67v-11.9h2.274v4.748h4.582V11.77h2.275v11.9h-2.275v-5.11h-4.582v5.11zM221.092 23.67v-11.9h7.879v1.913h-5.605v2.835h4.071v1.912h-4.07v3.329h5.784v1.912zM236.355 15.231a2.783 2.783 0 00-.783-1.236 2.115 2.115 0 00-3.165.57 6.086 6.086 0 00-.65 3.156q-.05 4.202 2.505 4.203a2.823 2.823 0 00.7-.082 1.746 1.746 0 00.594-.28 2.55 2.55 0 00.527-.537 4.89 4.89 0 00.503-.865l2.11.56a4.48 4.48 0 01-1.657 2.333 4.753 4.753 0 01-2.777.783 4.225 4.225 0 01-3.535-1.59 7.196 7.196 0 01-1.246-4.525 7.196 7.196 0 011.246-4.525 4.225 4.225 0 013.535-1.59 4.384 4.384 0 012.72.766 4.23 4.23 0 011.433 2.365zM239.685 23.67v-11.9h2.274v5.292l3.972-5.291h2.62l-3.378 4.466 3.923 7.434h-2.522l-2.95-5.653-1.665 2.076v3.577zM253.941 25.056a2.572 2.572 0 00.43.057c.13.005.274.008.427.008a1.956 1.956 0 00.85-.156 1.096 1.096 0 00.501-.52c.1-.209.18-.384.24-.527a1.21 1.21 0 00.09-.478 1.524 1.524 0 00-.09-.495q-.091-.263-.173-.527l-2.291-7.318h2.06l1.417 5.274h.034l1.466-5.274h2.044l-2.703 8.588a12.815 12.815 0 01-.668 1.524 3.635 3.635 0 01-.7.956 2.109 2.109 0 01-.849.494 3.84 3.84 0 01-1.096.14 8.33 8.33 0 01-.593-.016 3.635 3.635 0 01-.396-.05zM260.831 19.386a6.207 6.207 0 01.256-1.847 4.03 4.03 0 01.733-1.4 3.228 3.228 0 011.17-.891 4.08 4.08 0 013.132 0 3.22 3.22 0 011.17.89 4.03 4.03 0 01.733 1.401 6.789 6.789 0 010 3.692 4.026 4.026 0 01-.733 1.402 3.217 3.217 0 01-1.17.89 4.068 4.068 0 01-3.132 0 3.225 3.225 0 01-1.17-.89 4.026 4.026 0 01-.733-1.402 6.205 6.205 0 01-.256-1.845zm5.406 0a4.225 4.225 0 00-.412-2.127 1.53 1.53 0 00-2.538 0 4.225 4.225 0 00-.412 2.127 4.218 4.218 0 00.412 2.126 1.53 1.53 0 002.538 0 4.218 4.218 0 00.412-2.126zM276.259 15.1v8.57h-1.88v-.922a12.78 12.78 0 01-1.227.741 2.953 2.953 0 01-1.41.347 2.31 2.31 0 01-1.911-.774 3.234 3.234 0 01-.627-2.094V15.1h2.044v5.57a1.964 1.964 0 00.264 1.196.965.965 0 00.79.321 2.143 2.143 0 001.163-.304 3.476 3.476 0 00.75-.602V15.1zM277.66 23.67V15.1h1.878v1.466h.033a3.208 3.208 0 01.932-1.186 2.566 2.566 0 011.475-.444v2.159a.78.78 0 00-.165-.017h-.198a1.496 1.496 0 00-.725.19 3.165 3.165 0 00-.61.428 2.856 2.856 0 00-.42.461.725.725 0 00-.157.305v5.209zM39.816 31.55h2.044v4.12h.034a1.867 1.867 0 01.395-.379 2.72 2.72 0 01.535-.305 3.941 3.941 0 01.586-.198 2.334 2.334 0 01.56-.073 2.93 2.93 0 011.468.362 3.389 3.389 0 011.079.956 4.302 4.302 0 01.659 1.352 5.465 5.465 0 01.222 1.549 7.684 7.684 0 01-.213 1.863 4.593 4.593 0 01-.643 1.483 3.108 3.108 0 01-1.072.98 3.054 3.054 0 01-1.5.355 2.662 2.662 0 01-1.236-.28 4.609 4.609 0 01-1.087-.808l-.232.923h-1.599zm2.044 9.659c.11.088.212.176.305.264a1.976 1.976 0 00.314.238 1.798 1.798 0 00.404.182 1.828 1.828 0 00.56.074 1.62 1.62 0 001.417-.717 3.662 3.662 0 00.495-2.085 3.66 3.66 0 00-.495-2.085 1.619 1.619 0 00-1.418-.718 1.74 1.74 0 00-.881.223 4.18 4.18 0 00-.7.503zM55.459 34.879v8.571H53.58v-.923a12.778 12.778 0 01-1.227.742 2.952 2.952 0 01-1.41.346 2.31 2.31 0 01-1.912-.774 3.234 3.234 0 01-.627-2.094V34.88h2.044v5.571a1.964 1.964 0 00.264 1.196.965.965 0 00.79.32 2.143 2.143 0 001.163-.304 3.476 3.476 0 00.75-.601v-6.182zM61.112 37.138a4.913 4.913 0 00-.716-.618 1.487 1.487 0 00-.882-.29 1.357 1.357 0 00-.873.232.747.747 0 00-.28.61.68.68 0 00.32.584 3.773 3.773 0 00.792.405q.47.181 1.03.37a4.175 4.175 0 011.03.511 2.822 2.822 0 01.791.825 2.334 2.334 0 01.322 1.277 2.557 2.557 0 01-.24 1.153 2.27 2.27 0 01-.659.8 2.747 2.747 0 01-.997.47 5.032 5.032 0 01-1.253.148 3.804 3.804 0 01-1.853-.445 4.033 4.033 0 01-1.394-1.285l1.368-1.023a4.218 4.218 0 00.849.866 1.836 1.836 0 001.145.37 1.359 1.359 0 00.882-.272.856.856 0 00.338-.7.7.7 0 00-.321-.593 3.515 3.515 0 00-.791-.412q-.469-.182-1.03-.388a4.922 4.922 0 01-1.03-.52 2.85 2.85 0 01-.792-.79 2.146 2.146 0 01-.321-1.22 2.39 2.39 0 01.23-1.063 2.26 2.26 0 01.627-.783 2.863 2.863 0 01.907-.478 3.486 3.486 0 011.07-.164 4.386 4.386 0 011.657.321 3.447 3.447 0 011.36.98zM63.733 33.297v-1.912h2.044v1.912zm2.044 10.153h-2.044V34.88h2.044zM67.342 43.45V34.88h1.879v.923a12.68 12.68 0 011.228-.741 2.956 2.956 0 011.41-.346 2.312 2.312 0 011.912.774 3.236 3.236 0 01.626 2.093v5.868h-2.044V37.88a1.966 1.966 0 00-.264-1.195.965.965 0 00-.791-.322 2.143 2.143 0 00-1.162.306 3.447 3.447 0 00-.75.602v6.18zM77.396 39.494a2.942 2.942 0 00.544 1.904 1.604 1.604 0 001.237.569 1.926 1.926 0 001.12-.288 4.296 4.296 0 00.792-.734l1.483.923a3.525 3.525 0 01-1.475 1.335 4.975 4.975 0 01-2.118.412 3.505 3.505 0 01-1.508-.313 3.206 3.206 0 01-1.138-.89 4.13 4.13 0 01-.725-1.401 6.789 6.789 0 010-3.693 4.03 4.03 0 01.734-1.4 3.228 3.228 0 011.17-.89 3.773 3.773 0 011.566-.313 3.322 3.322 0 011.491.321 3.245 3.245 0 011.096.865 3.792 3.792 0 01.676 1.261 4.824 4.824 0 01.231 1.491v.841zm3.297-1.385a2.15 2.15 0 00-.47-1.383 1.65 1.65 0 00-2.357 0 2.144 2.144 0 00-.47 1.383zM87.979 37.138a4.914 4.914 0 00-.717-.618 1.487 1.487 0 00-.882-.29 1.357 1.357 0 00-.873.232.747.747 0 00-.28.61.68.68 0 00.32.584 3.773 3.773 0 00.792.405q.47.181 1.03.37a4.175 4.175 0 011.03.511 2.822 2.822 0 01.791.825 2.334 2.334 0 01.322 1.277 2.557 2.557 0 01-.24 1.153 2.27 2.27 0 01-.659.8 2.747 2.747 0 01-.997.47 5.032 5.032 0 01-1.253.148 3.804 3.804 0 01-1.853-.445 4.033 4.033 0 01-1.394-1.285l1.368-1.023a4.217 4.217 0 00.849.866 1.836 1.836 0 001.146.37 1.359 1.359 0 00.881-.272.856.856 0 00.338-.7.7.7 0 00-.321-.593 3.515 3.515 0 00-.791-.412q-.469-.182-1.03-.388a4.922 4.922 0 01-1.03-.52 2.85 2.85 0 01-.792-.79 2.146 2.146 0 01-.32-1.22 2.39 2.39 0 01.23-1.063 2.26 2.26 0 01.627-.783 2.863 2.863 0 01.906-.478 3.486 3.486 0 011.071-.164 4.386 4.386 0 011.656.321 3.447 3.447 0 011.36.98zM94.868 37.138a4.913 4.913 0 00-.717-.618 1.487 1.487 0 00-.881-.29 1.357 1.357 0 00-.874.232.747.747 0 00-.28.61.68.68 0 00.321.584 3.773 3.773 0 00.792.405q.47.181 1.03.37a4.175 4.175 0 011.03.511 2.822 2.822 0 01.791.825 2.334 2.334 0 01.321 1.277 2.557 2.557 0 01-.239 1.153 2.27 2.27 0 01-.66.8 2.747 2.747 0 01-.996.47 5.032 5.032 0 01-1.253.148 3.804 3.804 0 01-1.854-.445 4.033 4.033 0 01-1.393-1.285l1.368-1.023a4.218 4.218 0 00.849.866 1.836 1.836 0 001.145.37 1.359 1.359 0 00.882-.272.856.856 0 00.338-.7.7.7 0 00-.321-.593 3.515 3.515 0 00-.791-.412q-.47-.182-1.03-.388a4.922 4.922 0 01-1.031-.52 2.85 2.85 0 01-.791-.79 2.146 2.146 0 01-.321-1.22 2.39 2.39 0 01.23-1.063 2.26 2.26 0 01.627-.783 2.863 2.863 0 01.906-.478 3.486 3.486 0 011.072-.164 4.386 4.386 0 011.656.321 3.447 3.447 0 011.36.98zM98.147 33.89h-.989v-2.34h2.276v2.34l-1.056 2.472h-1.071zM107.395 39.494a2.942 2.942 0 00.543 1.904 1.604 1.604 0 001.237.569 1.926 1.926 0 001.12-.288 4.296 4.296 0 00.792-.734l1.483.923a3.525 3.525 0 01-1.475 1.335 4.975 4.975 0 01-2.118.412 3.505 3.505 0 01-1.508-.313 3.206 3.206 0 01-1.138-.89 4.13 4.13 0 01-.725-1.401 6.789 6.789 0 010-3.693 4.03 4.03 0 01.734-1.4 3.228 3.228 0 011.17-.89 3.773 3.773 0 011.566-.313 3.322 3.322 0 011.491.321 3.245 3.245 0 011.096.865 3.792 3.792 0 01.676 1.261 4.825 4.825 0 01.231 1.491v.841zm3.296-1.385a2.15 2.15 0 00-.47-1.383 1.65 1.65 0 00-2.357 0 2.144 2.144 0 00-.47 1.383zM113.758 43.45v-11.9h2.044v11.9zM117.482 33.297v-1.912h2.044v1.912zm2.044 10.153h-2.044V34.88h2.044zM128.213 36.099q-.363 0-.726.025a1.236 1.236 0 00-.593.173 2.662 2.662 0 01.33.651 2.579 2.579 0 01.131.865 2.9 2.9 0 01-.206 1.113 2.417 2.417 0 01-.61.873 2.786 2.786 0 01-1.005.577 4.347 4.347 0 01-1.409.206 6.534 6.534 0 00-1.138.083q-.461.082-.46.444c0 .232.139.385.42.462a5.335 5.335 0 001.046.156q.626.041 1.352.083a5.05 5.05 0 011.351.255 2.513 2.513 0 011.047.668 1.857 1.857 0 01.42 1.31 1.942 1.942 0 01-.24.915 2.464 2.464 0 01-.724.816 3.934 3.934 0 01-1.236.585 6.264 6.264 0 01-1.773.223 6.394 6.394 0 01-2.777-.51 1.636 1.636 0 01-1.046-1.534 1.602 1.602 0 01.14-.692 1.505 1.505 0 01.857-.791 1.59 1.59 0 01.552-.099v-.033a2.688 2.688 0 00-.362-.198 2.518 2.518 0 01-.421-.247 1.31 1.31 0 01-.346-.372 1.045 1.045 0 01-.14-.568 1.114 1.114 0 01.157-.577 2.236 2.236 0 01.37-.47 2.457 2.457 0 01.437-.338 1.955 1.955 0 01.371-.18 4.738 4.738 0 01-.898-.956 2.238 2.238 0 01-.371-1.32 2.933 2.933 0 01.214-1.095 2.783 2.783 0 01.643-.956 3.221 3.221 0 011.055-.676 3.872 3.872 0 011.467-.255 3.406 3.406 0 011.129.205 2.981 2.981 0 01.98.553 1.81 1.81 0 01.783-.594 2.926 2.926 0 011.229-.164zm-4.517 7.186a1.932 1.932 0 00-.7.108 1.53 1.53 0 00-.445.255.808.808 0 00-.24.322.87.87 0 00-.065.304.76.76 0 00.494.726 4.717 4.717 0 001.78.23 2.79 2.79 0 00.833-.107 1.936 1.936 0 00.543-.255.996.996 0 00.297-.313.61.61 0 00.091-.28.562.562 0 00-.124-.322 1.114 1.114 0 00-.429-.321 3.357 3.357 0 00-.798-.248 6.506 6.506 0 00-1.237-.099zm1.78-5.637a1.371 1.371 0 00-.412-1.005 1.351 1.351 0 00-.989-.413 1.45 1.45 0 00-1.071.413 1.432 1.432 0 000 2.01 1.446 1.446 0 001.071.412 1.348 1.348 0 00.99-.412 1.368 1.368 0 00.412-1.005zM129.004 33.297v-1.912h2.044v1.912zm2.044 10.153h-2.044V34.88h2.044zM132.613 31.55h2.044v4.12h.033a1.867 1.867 0 01.396-.379 2.72 2.72 0 01.535-.305 3.942 3.942 0 01.586-.198 2.334 2.334 0 01.56-.073 2.93 2.93 0 011.467.362 3.39 3.39 0 011.08.956 4.302 4.302 0 01.659 1.352 5.465 5.465 0 01.222 1.549 7.684 7.684 0 01-.214 1.863 4.593 4.593 0 01-.642 1.483 3.108 3.108 0 01-1.072.98 3.054 3.054 0 01-1.5.355 2.662 2.662 0 01-1.236-.28 4.609 4.609 0 01-1.088-.808l-.231.923h-1.599zm2.044 9.659c.11.088.212.176.305.264a1.976 1.976 0 00.313.238 1.798 1.798 0 00.405.182 1.828 1.828 0 00.56.074 1.62 1.62 0 001.417-.717 3.662 3.662 0 00.494-2.085 3.66 3.66 0 00-.494-2.085 1.619 1.619 0 00-1.418-.718 1.74 1.74 0 00-.882.223 4.18 4.18 0 00-.7.503zM141.35 33.297v-1.912h2.044v1.912zm2.044 10.153h-2.044V34.88h2.044zM145.074 43.45v-11.9h2.044v11.9zM148.8 33.297v-1.912h2.044v1.912zm2.044 10.153H148.8V34.88h2.044zM152.821 34.879v-2.835h2.044v2.835h1.68v1.648h-1.68v4.846a.529.529 0 00.18.47 1.003 1.003 0 00.561.124 2.013 2.013 0 00.47-.058c.16-.038.317-.074.47-.107v1.681c-.285.034-.555.063-.808.091a7.518 7.518 0 01-.807.041 2.125 2.125 0 01-1.623-.527 2.058 2.058 0 01-.487-1.451v-5.11h-1.186V34.88zM156.876 44.835a2.573 2.573 0 00.429.058c.132.005.274.007.427.007a1.956 1.956 0 00.85-.156 1.096 1.096 0 00.502-.52c.1-.208.179-.384.24-.527a1.21 1.21 0 00.09-.477 1.524 1.524 0 00-.09-.495q-.092-.264-.174-.528l-2.29-7.318h2.06l1.417 5.274h.033l1.467-5.274h2.044l-2.703 8.588a12.816 12.816 0 01-.668 1.524 3.635 3.635 0 01-.7.956 2.109 2.109 0 01-.849.494 3.84 3.84 0 01-1.097.141c-.252 0-.45-.006-.592-.017a3.633 3.633 0 01-.396-.05zM171.842 36.527v6.923h-2.044v-6.923h-1.187V34.88h1.17v-1.055a4.147 4.147 0 01.14-1.162 1.66 1.66 0 01.437-.75 1.729 1.729 0 01.758-.403 4.206 4.206 0 011.088-.124h1.352v1.648h-.56a1.428 1.428 0 00-.9.214.881.881 0 00-.254.71v.922h1.73v1.648zM173.753 39.165a6.207 6.207 0 01.256-1.847 4.03 4.03 0 01.733-1.4 3.228 3.228 0 011.17-.89 4.08 4.08 0 013.132 0 3.22 3.22 0 011.17.89 4.03 4.03 0 01.733 1.4 6.789 6.789 0 010 3.693 4.026 4.026 0 01-.733 1.401 3.217 3.217 0 01-1.17.89 4.068 4.068 0 01-3.132 0 3.225 3.225 0 01-1.17-.89 4.026 4.026 0 01-.733-1.401 6.205 6.205 0 01-.256-1.846zm5.406 0a4.225 4.225 0 00-.412-2.127 1.53 1.53 0 00-2.538 0 4.225 4.225 0 00-.412 2.127 4.218 4.218 0 00.412 2.126 1.53 1.53 0 002.538 0 4.218 4.218 0 00.412-2.126zM182.094 43.45V34.88h1.879v1.467h.033a3.208 3.208 0 01.931-1.187 2.566 2.566 0 011.475-.444v2.159a.78.78 0 00-.164-.017h-.198a1.496 1.496 0 00-.726.19 3.165 3.165 0 00-.61.429 2.856 2.856 0 00-.42.46.725.725 0 00-.156.305v5.21zM192.412 34.879v-2.835h2.044v2.835h1.68v1.648h-1.68v4.846a.529.529 0 00.18.47 1.003 1.003 0 00.561.124 2.013 2.013 0 00.47-.058c.16-.038.316-.074.47-.107v1.681c-.285.034-.555.063-.808.091a7.518 7.518 0 01-.808.041 2.125 2.125 0 01-1.623-.527 2.058 2.058 0 01-.486-1.451v-5.11h-1.186V34.88zM196.993 43.45v-11.9h2.044v4.252a7.307 7.307 0 011.097-.741 2.766 2.766 0 011.376-.346 2.312 2.312 0 011.912.774 3.236 3.236 0 01.626 2.093v5.868h-2.044V37.88a1.966 1.966 0 00-.264-1.195.965.965 0 00-.79-.322 2.143 2.143 0 00-1.163.306 3.447 3.447 0 00-.75.602v6.18zM207.048 39.494a2.942 2.942 0 00.544 1.904 1.604 1.604 0 001.236.569 1.926 1.926 0 001.121-.288 4.296 4.296 0 00.791-.734l1.484.923a3.525 3.525 0 01-1.476 1.335 4.975 4.975 0 01-2.118.412 3.505 3.505 0 01-1.508-.313 3.206 3.206 0 01-1.138-.89 4.13 4.13 0 01-.724-1.401 6.789 6.789 0 010-3.693 4.03 4.03 0 01.733-1.4 3.228 3.228 0 011.17-.89 3.773 3.773 0 011.566-.313 3.322 3.322 0 011.492.321 3.245 3.245 0 011.095.865 3.792 3.792 0 01.676 1.261 4.825 4.825 0 01.232 1.491v.841zm3.297-1.385a2.15 2.15 0 00-.47-1.383 1.65 1.65 0 00-2.357 0 2.144 2.144 0 00-.47 1.383zM225.278 36.099q-.363 0-.725.025a1.236 1.236 0 00-.594.173 2.662 2.662 0 01.33.651 2.579 2.579 0 01.132.865 2.9 2.9 0 01-.206 1.113 2.417 2.417 0 01-.61.873 2.786 2.786 0 01-1.005.577 4.347 4.347 0 01-1.41.206 6.534 6.534 0 00-1.137.083q-.462.082-.461.444c0 .232.14.385.42.462a5.335 5.335 0 001.047.156q.625.041 1.351.083a5.05 5.05 0 011.352.255 2.513 2.513 0 011.047.668 1.857 1.857 0 01.42 1.31 1.942 1.942 0 01-.24.915 2.464 2.464 0 01-.724.816 3.934 3.934 0 01-1.237.585 6.264 6.264 0 01-1.772.223 6.394 6.394 0 01-2.777-.51 1.636 1.636 0 01-1.046-1.534 1.602 1.602 0 01.14-.692 1.505 1.505 0 01.857-.791 1.59 1.59 0 01.551-.099v-.033a2.688 2.688 0 00-.362-.198 2.518 2.518 0 01-.42-.247 1.31 1.31 0 01-.346-.372 1.045 1.045 0 01-.141-.568 1.114 1.114 0 01.157-.577 2.236 2.236 0 01.371-.47 2.457 2.457 0 01.437-.338 1.955 1.955 0 01.37-.18 4.738 4.738 0 01-.898-.956 2.238 2.238 0 01-.37-1.32 2.933 2.933 0 01.213-1.095 2.783 2.783 0 01.644-.956 3.221 3.221 0 011.054-.676 3.872 3.872 0 011.467-.255 3.406 3.406 0 011.13.205 2.981 2.981 0 01.98.553 1.81 1.81 0 01.783-.594 2.926 2.926 0 011.228-.164zm-4.516 7.186a1.932 1.932 0 00-.7.108 1.53 1.53 0 00-.446.255.808.808 0 00-.24.322.87.87 0 00-.064.304.76.76 0 00.494.726 4.717 4.717 0 001.78.23 2.79 2.79 0 00.832-.107 1.936 1.936 0 00.544-.255.996.996 0 00.297-.313.61.61 0 00.09-.28.562.562 0 00-.123-.322 1.114 1.114 0 00-.43-.321 3.357 3.357 0 00-.798-.248 6.506 6.506 0 00-1.236-.099zm1.78-5.637a1.371 1.371 0 00-.412-1.005 1.351 1.351 0 00-.99-.413 1.45 1.45 0 00-1.07.413 1.432 1.432 0 000 2.01 1.446 1.446 0 001.07.412 1.348 1.348 0 00.99-.412 1.368 1.368 0 00.412-1.005zM225.31 39.165a6.207 6.207 0 01.256-1.847 4.03 4.03 0 01.734-1.4 3.228 3.228 0 011.17-.89 4.08 4.08 0 013.132 0 3.22 3.22 0 011.17.89 4.03 4.03 0 01.733 1.4 6.789 6.789 0 010 3.693 4.026 4.026 0 01-.734 1.401 3.217 3.217 0 01-1.17.89 4.068 4.068 0 01-3.131 0 3.225 3.225 0 01-1.17-.89 4.026 4.026 0 01-.734-1.401 6.205 6.205 0 01-.255-1.846zm5.407 0a4.225 4.225 0 00-.412-2.127 1.53 1.53 0 00-2.538 0 4.225 4.225 0 00-.413 2.127 4.218 4.218 0 00.413 2.126 1.53 1.53 0 002.538 0 4.218 4.218 0 00.412-2.126zM232.679 34.879h2.044l1.417 5.802h.033l1.45-5.802h2.044l-2.456 8.571h-2.143zM241.628 39.494a2.942 2.942 0 00.544 1.904 1.604 1.604 0 001.236.569 1.926 1.926 0 001.121-.288 4.296 4.296 0 00.791-.734l1.484.923a3.525 3.525 0 01-1.476 1.335 4.975 4.975 0 01-2.118.412 3.505 3.505 0 01-1.508-.313 3.206 3.206 0 01-1.138-.89 4.13 4.13 0 01-.724-1.401 6.789 6.789 0 010-3.693 4.03 4.03 0 01.733-1.4 3.228 3.228 0 011.17-.89 3.773 3.773 0 011.567-.313 3.322 3.322 0 011.49.321 3.245 3.245 0 011.096.865 3.792 3.792 0 01.676 1.261 4.825 4.825 0 01.232 1.491v.841zm3.297-1.385a2.15 2.15 0 00-.47-1.383 1.65 1.65 0 00-2.357 0 2.144 2.144 0 00-.47 1.383zM247.825 43.45V34.88h1.88v1.467h.032a3.208 3.208 0 01.932-1.187 2.566 2.566 0 011.475-.444v2.159a.78.78 0 00-.165-.017h-.198a1.496 1.496 0 00-.725.19 3.165 3.165 0 00-.61.429 2.857 2.857 0 00-.42.46.725.725 0 00-.157.305v5.21zM252.853 43.45V34.88h1.878v.923a12.678 12.678 0 011.229-.741 2.956 2.956 0 011.41-.346 2.312 2.312 0 011.911.774 3.236 3.236 0 01.626 2.093v5.868h-2.044V37.88a1.966 1.966 0 00-.263-1.195.965.965 0 00-.791-.322 2.143 2.143 0 00-1.163.306 3.447 3.447 0 00-.75.602v6.18zM261.374 43.45V34.88h1.862v.923a5.095 5.095 0 011.138-.808 3.206 3.206 0 011.434-.28 2.592 2.592 0 011.253.313 1.94 1.94 0 01.857.94 6.014 6.014 0 01.56-.494 3.302 3.302 0 01.65-.396 3.901 3.901 0 01.784-.264 4.236 4.236 0 01.956-.098 2.35 2.35 0 01.7.115 1.788 1.788 0 01.685.403 2.195 2.195 0 01.52.791 3.363 3.363 0 01.205 1.262v6.164h-2.043v-5.983a1.201 1.201 0 00-.232-.799 1.077 1.077 0 00-.79-.306 1.693 1.693 0 00-.874.297 5.742 5.742 0 00-.84.627v6.164h-2.045v-5.983a1.207 1.207 0 00-.23-.799 1.082 1.082 0 00-.792-.306 1.693 1.693 0 00-.873.297 5.741 5.741 0 00-.841.627v6.164zM275.979 39.494a2.942 2.942 0 00.543 1.904 1.604 1.604 0 001.237.569 1.926 1.926 0 001.12-.288 4.296 4.296 0 00.792-.734l1.483.923a3.525 3.525 0 01-1.475 1.335 4.975 4.975 0 01-2.118.412 3.505 3.505 0 01-1.508-.313 3.206 3.206 0 01-1.138-.89 4.13 4.13 0 01-.725-1.401 6.789 6.789 0 010-3.693 4.03 4.03 0 01.734-1.4 3.228 3.228 0 011.17-.89 3.773 3.773 0 011.566-.313 3.322 3.322 0 011.491.321 3.245 3.245 0 011.096.865 3.792 3.792 0 01.676 1.261 4.824 4.824 0 01.231 1.491v.841zm3.296-1.385a2.15 2.15 0 00-.47-1.383 1.65 1.65 0 00-2.357 0 2.144 2.144 0 00-.47 1.383zM282.241 43.45V34.88h1.88v.923a12.678 12.678 0 011.228-.741 2.956 2.956 0 011.409-.346 2.312 2.312 0 011.912.774 3.236 3.236 0 01.626 2.093v5.868h-2.044V37.88a1.966 1.966 0 00-.264-1.195.965.965 0 00-.79-.322 2.143 2.143 0 00-1.163.306 3.447 3.447 0 00-.75.602v6.18zM291.126 34.879v-2.835h2.044v2.835h1.68v1.648h-1.68v4.846a.529.529 0 00.18.47 1.003 1.003 0 00.561.124 2.013 2.013 0 00.47-.058c.16-.038.316-.074.47-.107v1.681c-.286.034-.555.063-.808.091a7.518 7.518 0 01-.808.041 2.125 2.125 0 01-1.623-.527 2.058 2.058 0 01-.486-1.451v-5.11h-1.186V34.88zM65.444 63.23v-11.9h2.275v11.9zM69.78 63.23v-11.9h2.373l4.681 8.108h.033V51.33h2.143v11.9h-2.193l-4.862-8.471h-.033v8.471zM86.476 54.494a2.606 2.606 0 00-.791-1.12 2.046 2.046 0 00-1.335-.43 2.181 2.181 0 00-1.22.314 1.112 1.112 0 00-.479 1.005 1.02 1.02 0 00.453.848 5.451 5.451 0 001.138.627q.684.289 1.476.585a7.895 7.895 0 011.474.734 4.032 4.032 0 011.138 1.08 2.706 2.706 0 01.453 1.598 3.375 3.375 0 01-1.088 2.752 4.687 4.687 0 01-3.082.908 5.218 5.218 0 01-2.703-.76 4.372 4.372 0 01-1.047-.889 3.949 3.949 0 01-.7-1.17l1.879-.824a4.231 4.231 0 00.997 1.352 2.332 2.332 0 001.59.51 3.59 3.59 0 00.792-.082 1.802 1.802 0 00.635-.272 1.337 1.337 0 00.427-.494 1.588 1.588 0 00.158-.734 1.22 1.22 0 00-.454-.965 4.884 4.884 0 00-1.137-.7q-.684-.313-1.476-.61a8.487 8.487 0 01-1.474-.717 4.082 4.082 0 01-1.138-1.021 2.466 2.466 0 01-.453-1.525 3.124 3.124 0 01.313-1.418 3.058 3.058 0 01.841-1.047 3.8 3.8 0 011.22-.642 5.017 5.017 0 014.021.47 4.072 4.072 0 011.649 1.994zM97.833 51.313v1.912h-3.115v10.004h-2.275V53.225h-3.115v-1.913zM100.288 51.313h2.835l3.379 11.916h-2.258l-.659-2.57h-3.758l-.709 2.57H96.86zm.033 7.466h2.769l-1.335-5.175h-.032zM107.441 63.23v-11.9h2.374l4.681 8.108h.033V51.33h2.143v11.9h-2.193l-4.862-8.471h-.033v8.471zM126.166 51.313v1.912h-3.115v10.004h-2.275V53.225h-3.115v-1.913zM134.522 51.313h2.835l3.38 11.916h-2.258l-.66-2.57h-3.757l-.71 2.57h-2.258zm.034 7.466h2.768l-1.335-5.175h-.032zM147.28 54.494a2.606 2.606 0 00-.79-1.12 2.046 2.046 0 00-1.336-.43 2.181 2.181 0 00-1.22.314 1.112 1.112 0 00-.478 1.005 1.02 1.02 0 00.453.848 5.45 5.45 0 001.138.627q.684.289 1.475.585a7.895 7.895 0 011.475.734 4.032 4.032 0 011.138 1.08 2.706 2.706 0 01.453 1.598 3.375 3.375 0 01-1.088 2.752 4.687 4.687 0 01-3.082.908 5.218 5.218 0 01-2.703-.76 4.372 4.372 0 01-1.047-.889 3.949 3.949 0 01-.7-1.17l1.879-.824a4.23 4.23 0 00.997 1.352 2.332 2.332 0 001.59.51 3.59 3.59 0 00.792-.082 1.802 1.802 0 00.634-.272 1.337 1.337 0 00.428-.494 1.588 1.588 0 00.157-.734 1.22 1.22 0 00-.453-.965 4.884 4.884 0 00-1.137-.7q-.685-.313-1.476-.61a8.487 8.487 0 01-1.475-.717 4.082 4.082 0 01-1.137-1.021 2.466 2.466 0 01-.454-1.525 3.124 3.124 0 01.314-1.418 3.058 3.058 0 01.84-1.047 3.8 3.8 0 011.22-.642 5.017 5.017 0 014.022.47 4.072 4.072 0 011.648 1.994zM156.773 54.494a2.606 2.606 0 00-.79-1.12 2.046 2.046 0 00-1.336-.43 2.181 2.181 0 00-1.22.314 1.112 1.112 0 00-.478 1.005 1.02 1.02 0 00.453.848 5.451 5.451 0 001.138.627q.684.289 1.476.585a7.895 7.895 0 011.474.734 4.032 4.032 0 011.138 1.08 2.706 2.706 0 01.453 1.598 3.375 3.375 0 01-1.088 2.752 4.687 4.687 0 01-3.082.908 5.218 5.218 0 01-2.703-.76 4.372 4.372 0 01-1.047-.889 3.949 3.949 0 01-.7-1.17l1.879-.824a4.231 4.231 0 00.997 1.352 2.332 2.332 0 001.59.51 3.59 3.59 0 00.792-.082 1.802 1.802 0 00.635-.272 1.337 1.337 0 00.427-.494 1.588 1.588 0 00.157-.734 1.22 1.22 0 00-.453-.964 4.884 4.884 0 00-1.137-.7q-.684-.314-1.476-.611a8.487 8.487 0 01-1.475-.717 4.082 4.082 0 01-1.137-1.021 2.466 2.466 0 01-.453-1.525 3.124 3.124 0 01.313-1.418 3.058 3.058 0 01.84-1.047 3.8 3.8 0 011.22-.642 5.017 5.017 0 014.022.47 4.072 4.072 0 011.649 1.994zM160.482 63.23v-11.9h7.88v1.911h-5.605v2.835h4.071v1.912h-4.071v3.33h5.785v1.912zM177.592 51.313v1.912h-3.115v10.004h-2.275V53.225h-3.115v-1.913zM182.635 51.33h2.126l1.5 8.026h.033l1.697-8.027h2.341l1.565 8.027h.034l1.631-8.027h2.126l-2.472 11.9h-2.308l-1.73-8.471h-.033l-1.714 8.471h-2.308zM196.662 63.23v-11.9h4.746a4.954 4.954 0 011.732.27 3.087 3.087 0 011.177.75 3.05 3.05 0 01.676 1.122 4.201 4.201 0 01.223 1.384 3.293 3.293 0 01-.535 1.93 2.832 2.832 0 01-1.641 1.136l2.621 5.307h-2.521l-2.243-4.845h-1.96v4.845zm2.275-6.693h1.68a2.92 2.92 0 001.83-.42 1.855 1.855 0 000-2.521 2.158 2.158 0 00-1.434-.421h-2.076zM206.963 63.23v-11.9h2.274v11.9zM218.88 51.313v1.912h-3.115v10.004h-2.275V53.225h-3.115v-1.913zM219.886 63.23v-11.9h7.879v1.911h-5.605v2.835h4.071v1.912h-4.07v3.33h5.784v1.912zM228.407 59.834v-1.78h4.038v1.78zM243.521 57.28a7.1 7.1 0 01-1.269 4.524 5.157 5.157 0 01-7.45 0 7.094 7.094 0 01-1.27-4.525 7.094 7.094 0 011.27-4.524 5.157 5.157 0 017.45 0 7.1 7.1 0 011.27 4.524zm-2.275 0a6.019 6.019 0 00-.66-3.157 2.55 2.55 0 00-4.12 0 6.019 6.019 0 00-.658 3.156 5.786 5.786 0 00.633 3.157 2.295 2.295 0 002.085 1.046 2.259 2.259 0 002.061-1.046 6.019 6.019 0 00.66-3.157zM244.774 63.23v-11.9h7.582v1.911h-5.307v2.835h3.971v1.912h-3.971v5.242zM253.313 63.23v-11.9h7.582v1.911h-5.308v2.835h3.972v1.912h-3.972v5.242z" fill="#fff"/><path d="M260.438 54.406l1.73-3.603h.96l1.73 3.603h-1.056l-1.154-2.527-1.163 2.527zM266.21 63.23v-2.341h2.274v2.34z" fill="#fff"/></svg>