<svg xmlns="http://www.w3.org/2000/svg" viewBox="0 0 680 75"><rect x="602.05499" y="50.089" width="69.83398" height="16.996" fill="red"/><path d="M608.584,62.3322V54.841h3.59082V55.9611h-2.30371v1.92969h1.72266v1.1211h-1.72266V62.3322Z" fill="#fff"/><path d="M613.36719,62.3322V54.841h1.28711V62.3322Z" fill="#fff"/><path d="M615.99219,62.3322V54.841h1.19238l1.56738,4.28515h.02051V54.841h1.16211V62.3322h-1.12012l-1.63965-4.67969h-.0205V62.3322Z" fill="#fff"/><path d="M621.18945,54.841h1.90821c1.32812,0,2.03418.72558,2.03418,2.26172v2.96777c0,1.53516-.70606,2.26172-2.03418,2.26172h-1.90821Zm1.28614,6.43261h.44629c.68457,0,.92382-.25878.92382-1.04785V56.94743c0-.78906-.23925-1.04883-.92382-1.04883h-.44629Z" fill="#fff"/><path d="M628.48242,56.65642a1.97187,1.97187,0,0,1,3.94238,0v3.86035a1.9719,1.9719,0,0,1-3.94238,0Zm1.28613,3.8291c0,.55957.166.83008.68457.83008.51954,0,.68555-.27051.68555-.83008V56.68767c0-.56055-.166-.83008-.68555-.83008-.51855,0-.68457.26953-.68457.83008Z" fill="#fff"/><path d="M633.66016,54.841h1.28613v5.65429c0,.54981.21777.82032.68457.82032s.68555-.27051.68555-.82032V54.841h1.28613v5.60254a1.9713,1.9713,0,1,1-3.94238,0Z" fill="#fff"/><path d="M639.81055,55.9611h-1.24414V54.841h3.77636V55.9611h-1.24511v6.3711h-1.28711Z" fill="#fff"/><path d="M650.37305,54.841V62.3322h-1.12012V56.48064h-.02148l-1.16211,5.85156h-.62207l-1.16211-5.85156h-.02051V62.3322h-1.1211V54.841H646.835l.91309,4.37793h.0205l.91309-4.37793Z" fill="#fff"/><path d="M651.57617,56.65642a1.97187,1.97187,0,0,1,3.94238,0v3.86035a1.9719,1.9719,0,0,1-3.94238,0Zm1.28613,3.8291c0,.55957.166.83008.68458.83008.51953,0,.68554-.27051.68554-.83008V56.68767c0-.56055-.166-.83008-.68554-.83008-.51856,0-.68458.26953-.68458.83008Z" fill="#fff"/><path d="M658.0498,62.3322h-1.28613V54.841h1.80469c1.44238,0,2.17969.6123,2.17969,2.21,0,1.20312-.46778,1.6914-.90332,1.88867l1.08984,3.39258H659.627l-.91308-3.10254a6.26322,6.26322,0,0,1-.66407.03125Zm0-4.12988h.45606c.69531,0,.95508-.25879.95508-1.15137s-.25977-1.15235-.95508-1.15235h-.45606Z" fill="#fff"/><path d="M662.0332,62.3322V54.841h3.44434V55.9611h-2.1582v1.92969h1.66015v1.1211h-1.66015V61.2111h2.30371v1.1211Z" fill="#fff"/></svg>