<svg xmlns="http://www.w3.org/2000/svg" width="283" height="43.8" overflow="visible"><style>.st0{fill:#fff}</style><path class="st0" d="M0 4.4L2.2.1h.6L5 4.4h-.7L2.4.8.6 4.4H0zM10.5.1v.7H7v2.3h2.4v.7H7v2.7h3.6v.7H6.3v-7h4.2zM12.6.1v7h-.7v-7h.7zM15 0v.8h-.7V0h.7zm-.7 2.1h.7v5h-.7v-5zM20.6 2.6h-.4c-.1 0-.2.1-.3.1 0 .1.1.3.1.4.1.2.1.4.1.6 0 .2 0 .5-.1.7-.2.4-.5.8-1 .9-.2.1-.5.1-.7.1h-.5c-.1 0-.3-.1-.4-.1-.2 0-.4.2-.4.5 0 .1 0 .2.1.3.1.1.2.1.3.1.5 0 1 0 1.5.1.3 0 .7.1 1 .3.2.1.4.2.5.4.1.2.2.4.2.6 0 .2 0 .4-.1.5-.1.2-.3.3-.4.4-.2.1-.5.2-.7.3-.3.1-.7.1-1 .1-.6 0-1.1-.1-1.6-.3-.4-.2-.6-.5-.6-.9 0-.2.1-.4.2-.6.1-.1.3-.3.6-.4-.2 0-.3-.2-.5-.3-.1-.1-.2-.3-.2-.4 0-.2.1-.4.2-.5.2-.1.3-.3.5-.4-.2-.2-.4-.4-.5-.6-.1-.2-.2-.5-.2-.8 0-.2 0-.5.1-.7.1-.2.2-.4.4-.6.2-.2.4-.3.6-.4h.8c.2 0 .5 0 .7.1.2.1.4.1.5.3.2-.2.4-.3.6-.4.2-.1.4-.1.6-.2v.8zm-.7 5c0-.3-.2-.5-.4-.6-.4-.2-.9-.2-1.3-.2-.2 0-.5 0-.7.1-.2 0-.3.1-.4.2-.1.1-.2.2-.2.3 0 .1-.1.2-.1.3 0 .1 0 .2.1.3.1.1.1.2.2.2.2.1.3.1.5.1H19c.2 0 .3-.1.5-.1.1-.1.2-.1.3-.2.1-.2.1-.3.1-.4zm-.4-3.8c0-.3-.1-.6-.3-.9-.3-.2-.6-.4-1-.3-.6-.1-1.2.4-1.2 1v.2c0 .3.1.6.4.8.3.2.6.3.9.3.2 0 .4 0 .5-.1.1-.1.3-.1.4-.2.1-.1.2-.2.2-.4s.1-.3.1-.4zM22.3 0v.8h-.7V0h.7zm-.7 2.1h.7v5h-.7v-5zM24.6.1v2.4c.2-.2.4-.3.6-.4.3-.1.5-.1.8-.1.2 0 .5 0 .7.1.2.1.5.2.7.4.2.2.4.5.5.8 0 .4.1.8.1 1.3 0 .4-.1.9-.2 1.3-.1.3-.3.6-.5.8-.2.2-.4.3-.7.4-.2.1-.5.1-.7.1-.3 0-.6-.1-.8-.2-.2-.1-.5-.3-.7-.5l-.1.5h-.5v-.6V.1h.8zm0 5.8c.2.2.4.4.6.5.2.1.4.2.6.2.4 0 .8-.2 1-.5.3-.4.4-1 .4-1.5 0-.3 0-.6-.1-1 0-.2-.1-.4-.2-.6-.1-.2-.3-.3-.5-.3-.2-.1-.4-.1-.6-.1-.2 0-.5.1-.6.2-.2.1-.4.3-.6.5v2.6zM30 0v.8h-.7V0h.7zm-.7 2.1h.7v5h-.7v-5zM32.4.1v7h-.7v-7h.7zM34.8 0v.8h-.7V0h.7zm-.7 2.1h.7v5h-.7v-5zM36.6 2.1V.4h.7v1.7h1.2v.6h-1.2v3.6c0 .1 0 .2.1.3.1.1.3.1.4.1h.6v.6c-.1 0-.2 0-.3.1h-.5c-.3 0-.6 0-.8-.2-.2-.2-.3-.4-.3-.7V2.7h-.8v-.6h.9zM43.2 2.1l-1.8 5.5c-.1.2-.2.5-.3.7-.1.2-.3.3-.4.4-.1.1-.3.2-.5.2s-.3.1-.5.1h-.5v-.7h.7c.1 0 .3-.1.4-.2.1-.1.3-.2.3-.4.1-.2.2-.4.2-.7L39 1.9h.7l1.4 3.8 1.2-3.8h.9zM49.2 3.6c-.1-.3-.2-.5-.4-.7-.2-.2-.5-.3-.8-.3-.4 0-.8.2-1 .5-.3.4-.4 1-.4 1.5s.1 1 .4 1.5c.2.3.6.5 1 .5h.4c.1 0 .2-.1.4-.2l.3-.3c.1-.1.2-.3.3-.5l.6.3c-.1.2-.2.4-.4.6-.1.2-.3.3-.4.4-.2.1-.4.2-.6.2-.2.1-.4.1-.7.1-.3 0-.6-.1-.9-.2-.3-.1-.5-.3-.6-.5-.2-.2-.3-.5-.4-.8-.2-.7-.2-1.5 0-2.2.1-.3.2-.6.4-.8.2-.2.4-.4.6-.5.4-.2.7-.2 1-.2.2 0 .5 0 .7.1.2.1.4.2.5.3l.4.4c.1.2.2.4.3.5l-.7.3zM51 2.1h.7v1c.1-.2.2-.3.3-.5l.3-.3c.1-.1.3-.2.4-.2.2-.1.4-.1.6-.1v.7c-.4 0-.8.1-1 .4-.3.4-.5.8-.6 1.2v2.8H51v-5zM55.1 0v.8h-.7V0h.7zm-.7 2.1h.7v5h-.7v-5zM56.9 2.1V.4h.7v1.7h1.2v.6h-1.2v3.6c0 .1 0 .2.1.3.1.1.3.1.4.1h.6v.6c-.1 0-.2 0-.3.1h-.5c-.3 0-.6 0-.8-.2-.2-.2-.3-.4-.3-.7V2.7H56v-.6h.9zM63.6 6c-.1.1-.2.3-.3.4-.3.3-.6.6-.9.7-.2.1-.5.1-.7.1-.3 0-.6-.1-.8-.2-.3-.1-.5-.3-.7-.5-.2-.2-.4-.5-.5-.8-.1-.4-.2-.8-.2-1.2 0-.4 0-.7.1-1.1.1-.3.2-.6.4-.8.2-.2.4-.4.6-.5.3-.1.6-.1.9-.1.3 0 .5 0 .7.1.2.1.4.2.6.4.2.2.3.4.4.7.1.3.2.7.2 1v.5h-3.3c0 .3 0 .5.1.8l.3.6c.1.2.3.3.5.4.2.1.4.1.6.1.3 0 .6-.1.8-.2.3-.2.5-.4.6-.7l.6.3zm-.9-1.9c0-.4-.1-.8-.3-1.1-.2-.3-.5-.4-.9-.4s-.7.1-1 .4c-.2.3-.4.7-.4 1.1h2.6zM64.6 2.1h.7v1c.1-.2.2-.3.3-.5l.3-.3c.1-.1.3-.2.4-.2.2-.1.4-.1.6-.1v.7c-.4 0-.8.1-1 .4-.3.4-.5.8-.6 1.2v2.8h-.7v-5zM68.7 0v.8H68V0h.7zM68 2.1h.7v5H68v-5zM70.1 3c.2-.3.4-.6.7-.8.3-.2.7-.3 1.2-.2.2 0 .4 0 .6.1.2.1.4.1.6.3.2.1.3.3.4.5.1.2.2.5.2.7V6.7c0 .1 0 .3.1.4h-.7l-.2-.7c-.2.2-.4.4-.7.5-.3.2-.6.3-1 .3-.2 0-.4 0-.6-.1-.2-.1-.5-.4-.7-.7 0-.2-.1-.4-.1-.6 0-.5.2-1 .7-1.3.3-.2.6-.3 1-.4.4-.2.9-.3 1.4-.4v-.2c0-.3-.1-.5-.3-.7-.2-.1-.5-.2-.7-.2-.2 0-.3 0-.5.1-.1 0-.3.1-.4.2-.1 0-.2.1-.3.2-.1.1-.1.2-.2.3l-.5-.4zM73 4.4c-1.6.3-2.4.8-2.4 1.4 0 .1 0 .2.1.3 0 .1.1.2.2.2.1.1.2.1.3.2.1 0 .2.1.3.1.1 0 .3 0 .4-.1.1 0 .3-.1.4-.2.1-.1.3-.2.4-.3.1 0 .2-.1.3-.3V4.4zM77.1 3c.2-.3.4-.6.7-.8.3-.2.8-.3 1.2-.2.2 0 .4 0 .6.1.2.1.4.1.6.3.2.1.3.3.4.5.1.2.2.5.2.7V6.7c0 .1 0 .3.1.4h-.7l-.2-.7c-.2.2-.4.4-.7.5-.3.2-.6.3-1 .3-.2 0-.4 0-.6-.1-.3-.1-.6-.4-.8-.7.1-.2 0-.4 0-.6 0-.5.2-1 .7-1.3.3-.2.6-.3 1-.4.5-.1.9-.3 1.4-.3v-.3c0-.3-.1-.5-.3-.7-.2-.1-.5-.2-.7-.2-.2 0-.3 0-.5.1-.1 0-.3.1-.4.2-.1 0-.2.1-.3.2-.1.1-.1.2-.2.3l-.5-.4zM80 4.4c-1.6.3-2.4.8-2.4 1.4 0 .1 0 .2.1.3 0 .1.1.2.2.2.1.1.2.1.3.2.1 0 .2.1.3.1.1 0 .3 0 .4-.1.1 0 .3-.1.4-.2.1-.1.3-.2.4-.3.1 0 .2-.1.3-.3V4.4zM82.1 8.9V2.1h.7v.6c.1-.1.2-.2.2-.3.1-.1.2-.2.3-.2.2-.1.4-.2.5-.2h.4c.2 0 .5 0 .7.1.3.1.5.2.7.4.1.2.3.5.4.8.1.4.2.8.2 1.3 0 .4-.1.8-.2 1.2-.1.3-.3.6-.5.8-.2.2-.4.3-.7.4-.2.1-.4.1-.7.1-.2 0-.5-.1-.7-.2-.2-.1-.4-.2-.6-.4v2.3l-.7.1zm.7-3c.2.2.4.4.6.5.2.1.4.2.6.2.2 0 .4 0 .6-.1.2-.1.3-.2.5-.3l.3-.6c.1-.3.1-.6.1-1 0-.5-.1-1-.4-1.5-.2-.3-.6-.5-1-.5-.2 0-.4.1-.6.2-.3.1-.5.2-.7.4v2.7zM87.4 8.9V2.1h.7v.6c.1-.1.2-.2.2-.3.1-.1.2-.2.3-.2.2-.1.4-.2.5-.2h.4c.2 0 .5 0 .7.1.3.1.5.2.7.4.1.2.3.5.4.8.1.4.2.8.2 1.3 0 .4-.1.8-.2 1.2-.1.3-.3.6-.5.8-.2.2-.4.3-.7.4-.2.1-.4.1-.7.1-.2 0-.5-.1-.7-.2-.2-.1-.4-.2-.6-.4v2.3l-.7.1zm.7-3c.2.2.4.4.6.5.2.1.4.2.6.2.2 0 .4 0 .6-.1.2-.1.3-.2.5-.3l.3-.6c.1-.3.1-.6.1-1 0-.5-.1-1-.4-1.5-.2-.3-.6-.5-1-.5-.2 0-.4.1-.6.2-.2.1-.5.3-.6.5l-.1 2.6zM93.5.1v7h-.7v-7h.7zM98.6 2.1l-1.8 5.5c-.1.2-.2.5-.3.7-.1.2-.3.3-.4.4-.1.1-.3.2-.5.2s-.3.1-.5.1h-.5v-.7h.7c.1 0 .3-.1.4-.2.1 0 .3-.2.3-.3.1-.2.2-.4.2-.7L94.4 2h.7l1.4 3.8L97.7 2l.9.1zM102.4.1v2.4c.2-.2.4-.3.6-.4.2-.1.5-.2.7-.2.2 0 .5 0 .7.1.2.1.5.2.7.4.2.2.4.5.5.8.1.4.2.8.2 1.2 0 .4-.1.9-.2 1.3-.1.3-.3.6-.5.8-.2.2-.4.3-.7.4-.2.1-.5.1-.7.1-.3 0-.6-.1-.8-.2-.2-.1-.5-.3-.7-.5l-.1.5h-.5v-.6V.1h.8zm0 5.8c.2.2.4.4.6.5.2.1.4.2.6.2.4 0 .8-.2 1-.5.3-.4.4-1 .4-1.5 0-.3 0-.6-.1-1l-.3-.6c-.1-.2-.3-.3-.5-.3-.2-.1-.4-.1-.6-.1-.2 0-.5.1-.6.2-.2.1-.4.3-.6.5l.1 2.6zM106.8 3c.2-.3.4-.6.7-.8.4-.2.8-.3 1.2-.3.2 0 .4 0 .6.1.2.1.4.1.6.3.2.1.3.3.4.5.1.2.2.5.2.7v3.2c0 .1 0 .3.1.4h-.7l-.1-.7c-.2.2-.4.4-.7.5-.3.2-.6.3-1 .3-.2 0-.4 0-.6-.1-.3-.1-.6-.4-.8-.7-.1-.2-.1-.4-.1-.6 0-.5.2-1 .7-1.3.3-.2.6-.3 1-.4.5-.1.9-.3 1.4-.3v-.3c0-.3-.1-.5-.3-.7-.2-.1-.5-.2-.7-.2-.2 0-.3 0-.5.1-.1 0-.3.1-.4.2l-.3.3c-.1.1-.1.2-.2.3l-.5-.5zm3 1.4c-1.6.3-2.4.8-2.4 1.4 0 .1 0 .2.1.3 0 .1.1.2.2.2.1.1.2.1.3.2.1 0 .2.1.3.1.1 0 .3 0 .4-.1.1 0 .3-.1.4-.2.1-.1.3-.2.4-.3l.3-.3V4.4zM111.9 5.8l.6.6c.3.1.5.2.8.2.3 0 .6-.1.8-.3.2-.1.3-.4.3-.6 0-.2-.1-.4-.2-.5l-.6-.3c-.2-.1-.5-.2-.7-.2-.2-.1-.5-.2-.7-.3-.2-.1-.4-.2-.5-.4-.2-.2-.2-.5-.2-.7 0-.4.2-.8.5-1 .3-.2.8-.4 1.2-.3.2 0 .3 0 .5.1.2 0 .3.1.5.2.1.1.3.2.4.3.1.1.2.2.3.4l-.5.4c-.2-.2-.4-.4-.6-.5-.2-.1-.5-.2-.7-.2-.2 0-.5.1-.7.2-.2.1-.2.3-.2.5s.1.3.2.4c.2.1.3.2.5.3.2.1.5.1.7.2.2.1.5.2.7.3.2.1.4.3.5.5.2.2.2.5.2.8 0 .2 0 .4-.1.6-.1.2-.2.3-.4.5l-.6.3c-.2.1-.4.1-.7.1-.4 0-.8-.1-1.1-.2-.4-.2-.7-.4-.9-.7l.7-.7zM120 6c-.1.1-.2.3-.3.4-.2.3-.6.5-.9.6-.2.1-.5.1-.7.1-.3 0-.6-.1-.8-.2-.3-.1-.5-.3-.7-.5-.2-.2-.4-.5-.5-.8-.1-.4-.2-.8-.2-1.2 0-.4 0-.7.1-1.1.1-.3.2-.6.4-.8.2-.2.4-.4.6-.5.3-.1.6-.2.8-.2.3 0 .5 0 .7.1.2.1.4.2.6.4.2.2.3.4.4.7.1.3.2.7.2 1v.5h-3.3c0 .3 0 .5.1.8l.3.6c.1.2.3.3.5.4.2.1.4.1.6.1.3 0 .6-.1.8-.2l.6-.6.7.4zm-.8-1.9c0-.4-.1-.8-.3-1.1-.2-.3-.5-.4-.9-.4s-.7.1-1 .4c-.2.3-.4.7-.4 1.1h2.6zM124.9.1v7.1h-.6l-.1-.5c-.1.2-.3.3-.5.4-.3.1-.5.2-.8.2-.2 0-.5 0-.7-.1-.3-.1-.5-.2-.7-.4-.2-.2-.4-.5-.5-.8-.1-.4-.2-.8-.2-1.3 0-.4.1-.8.2-1.2.1-.3.3-.6.5-.8.2-.2.4-.3.7-.4.2-.1.4-.1.7-.1.2 0 .5.1.7.2.2.1.4.2.6.4V.1h.7zm-.7 3.2c-.2-.2-.4-.4-.6-.5-.2-.1-.4-.2-.6-.2-.2 0-.4 0-.6.1-.2.1-.3.2-.5.3l-.3.6c-.1.3-.1.6-.1 1 0 .5.1 1 .4 1.5.2.3.6.5 1 .5.2 0 .4-.1.6-.2.2-.1.5-.3.6-.5l.1-2.6zM132.4 4.6c0 .3 0 .7-.1 1-.1.3-.2.6-.4.8l-.6.6c-.6.3-1.2.3-1.8 0-.3-.1-.5-.3-.6-.6-.2-.3-.3-.5-.4-.8-.2-.7-.2-1.4 0-2 .1-.3.2-.6.4-.8l.6-.6c.6-.3 1.2-.3 1.8 0 .3.1.5.3.6.6.2.3.3.5.4.8 0 .3.1.6.1 1zm-.7 0c0-.5-.1-1-.4-1.5-.4-.6-1.1-.7-1.7-.3l-.3.3c-.3.4-.4 1-.4 1.5s.1 1 .4 1.5c.4.6 1.1.7 1.7.3l.3-.3c.3-.5.4-1 .4-1.5zM134.2 2.1v.7c.2-.2.4-.4.7-.6.2-.1.5-.2.8-.2.2 0 .4 0 .5.1.2.1.3.1.5.3.1.1.3.3.3.5.1.2.1.5.1.7v3.7h-.7V3.4c.1-.4-.2-.8-.6-.9h-.2c-.1 0-.3 0-.4.1-.1 0-.3.1-.4.2-.1.1-.2.2-.4.2l-.3.3v3.8h-.7v-5h.8zM141.8 2.1v.7c.2-.2.4-.4.7-.6.2-.2.5-.2.8-.2.2 0 .4 0 .5.1.2.1.3.1.5.3.1.1.3.3.3.5.1.2.1.5.1.7v3.7h-.7V3.4c.1-.4-.2-.8-.6-.9h-.2c-.1 0-.3 0-.4.1-.1 0-.3.1-.4.2-.1.1-.2.2-.4.2l-.3.3v3.8h-.7v-5h.8zM149.2 7.1v-.7c-.2.2-.4.4-.7.6-.2.1-.5.2-.8.2-.2 0-.4 0-.5-.1-.2 0-.3-.1-.5-.3-.1-.1-.3-.3-.3-.5-.1-.2-.1-.5-.1-.7V2.1h.7v3.6c0 .3.1.5.2.7.2.1.4.2.6.2.1 0 .3 0 .4-.1.1 0 .3-.1.4-.2.1-.1.2-.2.4-.2l.3-.3V2.1h.7v5h-.8zM151.4 7.1v-5h.7v.7c.2-.2.4-.4.7-.5.2-.1.5-.2.8-.2.3 0 .6.1.8.2.2.1.4.3.5.6.2-.2.5-.4.7-.6.3-.1.6-.2.9-.2.2 0 .3 0 .5.1.2 0 .3.1.4.2.1.1.3.3.3.5.1.2.1.5.1.8v3.6h-.7V3.5c0-.3-.1-.5-.2-.7-.2-.1-.4-.2-.6-.2-.1 0-.3 0-.4.1-.1 0-.2.1-.4.2l-.3.3-.3.3v3.8h-.7V3.5c0-.3-.1-.5-.2-.7-.2-.1-.4-.2-.6-.2-.1 0-.3 0-.4.1-.1 0-.2.1-.4.2l-.3.3-.3.3v3.8l-.6-.2zM163.2 6c-.1.1-.2.3-.3.4-.2.3-.6.5-.9.6-.2.1-.5.1-.7.1-.3 0-.6-.1-.8-.2-.3-.1-.5-.3-.7-.5-.2-.2-.4-.5-.5-.8-.1-.4-.2-.8-.2-1.2 0-.4 0-.7.1-1.1.1-.3.2-.6.4-.8.2-.2.4-.4.6-.5.3-.1.6-.2.8-.2.3 0 .5 0 .7.1.2.1.4.2.6.4.2.2.3.4.4.7.1.3.2.7.2 1v.5h-3.3c0 .3 0 .5.1.8l.3.6c.1.2.3.3.5.4.2.1.4.1.6.1.3 0 .6-.1.8-.2l.6-.6.7.4zm-.9-1.9c0-.4-.1-.8-.3-1.1-.2-.3-.5-.4-.9-.4s-.7.1-1 .4c-.2.3-.4.7-.4 1.1h2.6zM164.2 2.1h.7v1c.1-.2.2-.3.3-.5l.3-.3c.1-.1.3-.2.4-.2.2-.1.4-.1.6-.1v.7c-.4 0-.8.1-1 .4-.3.4-.5.8-.6 1.2v2.8h-.7v-5zM171.2 4.6c0 .3 0 .7-.1 1-.1.3-.2.6-.4.8l-.6.6c-.6.3-1.2.3-1.8 0-.3-.1-.5-.3-.6-.6-.2-.3-.3-.5-.4-.8-.2-.7-.2-1.4 0-2 .1-.3.2-.6.4-.8l.6-.6c.6-.3 1.2-.3 1.8 0 .3.1.5.3.6.6.2.3.3.5.4.8.1.3.1.6.1 1zm-.7 0c0-.5-.1-1-.4-1.5-.4-.6-1.1-.7-1.7-.3l-.3.3c-.3.4-.4 1-.4 1.5s.1 1 .4 1.5c.4.6 1.1.7 1.7.3l.3-.3c.3-.5.4-1 .4-1.5zM175.3 7.1v-.7c-.2.2-.4.4-.7.6-.2.1-.5.2-.8.2-.2 0-.4 0-.5-.1-.2 0-.3-.1-.5-.3-.1-.1-.3-.3-.3-.5-.1-.2-.1-.5-.1-.7V2.1h.7v3.6c0 .3.1.5.2.7.2.1.4.2.6.2.1 0 .3 0 .4-.1.1 0 .3-.1.4-.2.1-.1.2-.2.4-.2l.3-.3V2.1h.7v5h-.8zM177.6 5.8l.6.6c.3.1.5.2.8.2.3 0 .6-.1.8-.3.2-.1.3-.4.3-.6 0-.2-.1-.4-.2-.5l-.6-.3c-.2-.1-.5-.2-.7-.2-.2-.1-.5-.2-.7-.3-.2-.1-.4-.2-.5-.4-.2-.2-.2-.5-.2-.7 0-.4.2-.8.5-1 .3-.2.8-.4 1.2-.3.2 0 .3 0 .5.1.2 0 .3.1.5.2.1.1.3.2.4.3.1.1.2.2.3.4l-.5.4c-.2-.2-.4-.4-.6-.5-.2-.1-.5-.2-.7-.2-.2 0-.5.1-.7.2-.2.1-.2.3-.2.5s.1.3.2.4c.2.1.3.2.5.3.2.1.5.1.7.2.2.1.5.2.7.3.2.1.4.3.5.5.2.2.2.5.2.8 0 .2 0 .4-.1.6-.1.2-.2.3-.4.5l-.6.3c-.2.1-.4.1-.7.1-.4 0-.8-.1-1.1-.2-.4-.2-.7-.4-.9-.7l.7-.7zM184.4 7.1V2.7h-.9v-.6h.9v-.6c0-.2 0-.5.1-.7 0-.2.1-.3.2-.5.1-.1.2-.2.4-.2s.4-.1.5-.1h.6v.6h-.5c-.2 0-.4 0-.5.1-.1.2-.2.4-.1.6V2h1.1v.6h-1.1V7l-.7.1zM187 3c.2-.3.4-.6.7-.8.4-.2.8-.3 1.2-.3.2 0 .4 0 .6.1.2.1.4.1.6.3.2.1.3.3.4.5.1.2.2.5.2.7v3.2c0 .1 0 .3.1.4h-.7l-.1-.7c-.2.2-.4.4-.7.5-.3.2-.6.3-1 .3-.2 0-.4 0-.6-.1-.3-.1-.6-.4-.8-.7-.1-.2-.1-.4-.1-.6 0-.5.2-1 .7-1.3.3-.2.6-.3 1-.4.5-.1.9-.3 1.4-.3v-.3c0-.3-.1-.5-.3-.7-.2-.1-.5-.2-.7-.2-.2 0-.3 0-.5.1-.1 0-.3.1-.4.2l-.3.3c-.1.1-.1.2-.2.3L187 3zm3 1.4c-1.6.3-2.4.8-2.4 1.4 0 .1 0 .2.1.3 0 .1.1.2.2.2.1.1.2.1.3.2.1 0 .2.1.3.1.1 0 .3 0 .4-.1.1 0 .3-.1.4-.2.1-.1.3-.2.4-.3l.3-.3V4.4zM194.9 3.6c-.1-.3-.2-.5-.4-.7-.2-.2-.5-.3-.8-.3-.4 0-.8.2-1 .5-.3.4-.4 1-.4 1.5s.1 1 .4 1.5c.2.3.6.5 1 .5h.4c.1 0 .2-.1.4-.2l.3-.3c.1-.1.2-.3.3-.5l.6.3c-.1.2-.2.4-.4.6-.1.2-.3.3-.4.4-.2.1-.3.2-.5.2-.2.1-.4.1-.7.1-.3 0-.6-.1-.9-.2-.3-.1-.5-.3-.6-.5-.2-.2-.3-.5-.4-.8-.2-.7-.2-1.5 0-2.2.1-.3.2-.6.4-.8.2-.2.4-.4.6-.5.3-.1.6-.2.9-.2.2 0 .5 0 .7.1.2.1.4.2.5.3l.4.4c.1.2.2.4.3.5l-.7.3zM197.1 2.1V.4h.7v1.7h1.2v.6h-1.2v3.6c0 .1 0 .2.1.3.1.1.3.1.4.1h.6v.6c-.1 0-.2 0-.3.1h-.5c-.3 0-.6 0-.8-.2-.2-.2-.3-.4-.3-.7V2.7h-.8v-.6h.9zM203.7 4.6c0 .3 0 .7-.1 1-.1.3-.2.6-.4.8l-.6.6c-.6.3-1.2.3-1.8 0-.3-.1-.5-.3-.6-.6-.2-.3-.3-.5-.4-.8-.2-.7-.2-1.4 0-2 .1-.3.2-.6.4-.8l.6-.6c.6-.3 1.2-.3 1.8 0 .3.1.5.3.6.6.2.3.3.5.4.8.1.3.1.6.1 1zm-.7 0c0-.5-.1-1-.4-1.5-.4-.6-1.1-.7-1.7-.3l-.3.3c-.3.4-.4 1-.4 1.5s.1 1 .4 1.5c.4.6 1.1.7 1.7.3l.3-.3c.3-.5.4-1 .4-1.5zM204.8 2.1h.7v1c.1-.2.2-.3.3-.5l.3-.3c.1-.1.3-.2.4-.2.2-.1.4-.1.6-.1v.7c-.4 0-.8.1-1 .4-.3.4-.5.8-.6 1.2v2.8h-.7v-5zM208.2 5.8l.6.6c.3.1.5.2.8.2.3 0 .6-.1.8-.3.2-.1.3-.4.3-.6 0-.2-.1-.4-.2-.5-.1-.1-.3-.2-.5-.2-.2-.1-.5-.2-.7-.2-.2-.1-.5-.2-.7-.3-.2-.1-.4-.2-.5-.4-.2-.2-.2-.5-.2-.7 0-.4.2-.8.5-1 .3-.2.8-.4 1.2-.3.2 0 .3 0 .5.1.2 0 .3.1.5.2.1.1.3.2.4.3.1.1.2.2.3.4l-.5.4c-.2-.2-.4-.4-.6-.5-.2-.1-.5-.2-.7-.2-.2 0-.5.1-.7.2-.2.1-.2.3-.2.5s.1.3.2.4c.2.1.3.2.5.3.2.1.5.1.7.2.2.1.5.2.7.3.2.1.4.3.5.5.2.2.2.5.2.8 0 .2 0 .4-.1.6-.1.2-.2.3-.4.5l-.6.3c-.2.1-.4.1-.7.1-.4 0-.8-.1-1.1-.2-.4-.2-.7-.4-.9-.7l.6-.8zM215.6 0v.8h-.7V0h.7zm-.7 2.1h.7v5h-.7v-5zM217.9 2.1v.7c.2-.2.4-.4.7-.6.2-.1.5-.2.8-.2.2 0 .4 0 .5.1.2.1.3.1.5.3.1.1.3.3.3.5.1.2.1.5.1.7v3.7h-.7V3.4c.1-.4-.2-.8-.6-.9h-.2c-.1 0-.3 0-.4.1-.1 0-.3.1-.4.2-.1.1-.2.2-.4.2l-.3.3v3.8h-.7v-5h.8zM225.3 3.6c-.1-.3-.2-.5-.4-.7-.2-.2-.5-.3-.8-.3-.4 0-.8.2-1 .5-.3.4-.4 1-.4 1.5s.1 1 .4 1.5c.2.3.6.5 1 .5h.4c.1 0 .2-.1.4-.2l.3-.3c.1-.1.2-.3.3-.5l.6.3c-.1.2-.2.4-.4.6-.1.2-.3.3-.4.4-.2.1-.3.2-.5.2-.2.1-.4.1-.7.1-.3 0-.6-.1-.9-.2-.3-.1-.5-.3-.6-.5-.2-.2-.3-.5-.4-.8-.2-.7-.2-1.5 0-2.2.1-.3.2-.6.4-.8.2-.2.4-.4.6-.5.3-.1.6-.2.9-.2.2 0 .5 0 .7.1.2.1.4.2.5.3l.4.4c.1.2.2.4.3.5l-.7.3zM228 .1v7h-.7v-7h.7zM232.5 7.1v-.7c-.2.2-.4.4-.7.6-.2.1-.5.2-.8.2-.2 0-.4 0-.5-.1-.2 0-.3-.1-.5-.3-.1-.1-.3-.3-.3-.5-.1-.2-.1-.5-.1-.7V2.1h.7v3.6c0 .3.1.5.2.7.2.1.4.2.6.2.1 0 .3 0 .4-.1.1 0 .3-.1.4-.2.1-.1.2-.2.4-.2l.3-.3V2.1h.7v5h-.8zM238.5.1v7.1h-.6l-.1-.5c-.1.2-.3.3-.5.4-.3.1-.5.2-.8.2-.2 0-.5 0-.7-.1-.3-.1-.5-.2-.7-.4-.2-.2-.4-.5-.5-.8-.1-.4-.2-.8-.2-1.3 0-.4.1-.8.2-1.2.1-.3.3-.6.5-.8.2-.2.4-.3.7-.4.2-.3.4-.3.7-.3.2 0 .5.1.7.2.2.1.4.2.6.4V.1h.7zm-.7 3.2c-.2-.2-.4-.4-.6-.5-.2-.1-.4-.2-.6-.2-.2 0-.4 0-.6.1-.2.1-.3.2-.5.3l-.3.6c-.1.3-.1.6-.1 1 0 .5.1 1 .4 1.5.2.3.6.5 1 .5.2 0 .4-.1.6-.2.2-.1.5-.3.6-.5l.1-2.6zM240.8 0v.8h-.7V0h.7zm-.7 2.1h.7v5h-.7v-5zM243.1 2.1v.7c.2-.2.4-.4.7-.6.2-.1.5-.2.8-.2.2 0 .4 0 .5.1.2.1.3.1.5.3.1.1.3.3.3.5.1.2.1.5.1.7v3.7h-.7V3.4c.1-.4-.2-.8-.6-.9h-.2c-.1 0-.3 0-.4.1-.1 0-.3.1-.4.2-.1.1-.2.2-.4.2l-.3.3v3.8h-.7v-5h.8zM251.6 2.6h-.4c-.1 0-.2.1-.3.1.1.1.2.3.2.4.1.2.1.4.1.6 0 .2 0 .5-.1.7-.2.4-.5.8-1 .9-.2.1-.5.1-.7.1h-.5c-.1 0-.3-.1-.4-.1-.2 0-.4.2-.4.5 0 .1 0 .2.1.3.1.1.2.1.3.1.5 0 1 0 1.5.1.3 0 .7.1 1 .3.2.1.4.2.5.4.1.2.2.4.2.6 0 .2 0 .4-.1.5-.1.2-.3.3-.4.4-.2.1-.5.2-.7.3-.3.1-.7.1-1 .1-.6 0-1.1-.1-1.6-.3-.4-.2-.6-.5-.6-.9 0-.2.1-.4.2-.6.2-.2.4-.3.6-.4-.2 0-.3-.2-.5-.3-.1-.1-.2-.3-.2-.4 0-.2.1-.4.2-.5.2-.1.3-.3.5-.4-.2-.2-.4-.4-.5-.6-.1-.2-.2-.5-.2-.8 0-.2 0-.5.1-.7.1-.2.2-.4.4-.6.2-.2.4-.3.6-.4h.7c.2 0 .5 0 .7.1.2.1.4.1.5.3.2-.1.3-.2.5-.3.2-.1.4-.1.6-.2l.1.7zm-.7 5c0-.3-.2-.5-.4-.6-.4-.2-.9-.2-1.3-.2-.2 0-.5 0-.7.1-.2 0-.3.1-.4.2-.1.1-.2.2-.2.3 0 .1-.1.2-.1.3 0 .1 0 .2.1.3.1.1.1.2.2.2.2.1.3.1.5.1h1.4c.2 0 .3-.1.5-.1.1-.1.2-.1.3-.2.1-.2.1-.3.1-.4zm-.4-3.8c0-.3-.1-.6-.3-.9-.3-.2-.6-.4-1-.3-.6-.1-1.2.4-1.2 1v.2c0 .3.1.6.4.8.3.2.6.3.9.3.2 0 .4 0 .5-.1.1-.1.3-.1.4-.2.1-.1.2-.2.2-.4.1-.2.1-.3.1-.4zM255.5.1v2.4c.2-.2.4-.3.6-.4.2-.1.5-.2.7-.2.2 0 .5 0 .7.1.2.1.5.2.7.4.2.2.4.5.5.8.1.4.2.8.2 1.2 0 .4-.1.9-.2 1.3-.1.3-.3.6-.5.8-.2.2-.4.3-.7.4-.2.1-.5.1-.7.1-.3 0-.6-.1-.8-.2-.2-.1-.5-.3-.7-.5l-.1.5h-.5v-.6V.1h.8zm0 5.8c.2.2.4.4.6.5.2.1.4.2.6.2.4 0 .8-.2 1-.5.3-.4.4-1 .4-1.5 0-.3 0-.6-.1-1l-.3-.6c-.1-.2-.3-.3-.5-.3-.2-.1-.4-.1-.6-.1-.2 0-.5.1-.6.2-.2.1-.4.3-.6.5l.1 2.6zM263 7.1v-.7c-.2.2-.4.4-.7.6-.2.1-.5.2-.8.2-.2 0-.4 0-.5-.1-.2 0-.3-.1-.5-.3-.1-.1-.3-.3-.3-.5-.1-.2-.1-.5-.1-.7V2.1h.7v3.6c0 .3.1.5.2.7.2.1.4.2.6.2.1 0 .3 0 .4-.1.1 0 .3-.1.4-.2.1-.1.2-.2.4-.2l.3-.3V2.1h.7v5h-.8zM265.5 2.1V.4h.7v1.7h1.2v.6h-1.2v3.6c0 .1 0 .2.1.3.1.1.3.1.4.1h.6v.6c-.1 0-.2 0-.3.1h-.5c-.3 0-.6 0-.8-.2-.2-.2-.3-.4-.3-.7V2.7h-.8v-.6h.9zM271.5 2.1v.7c.2-.2.4-.4.7-.6.3-.2.5-.2.8-.2.2 0 .4 0 .5.1.2.1.3.1.5.3.1.1.3.3.3.5.1.2.1.5.1.7v3.7h-.7V3.4c.1-.4-.2-.8-.6-.9h-.2c-.1 0-.3 0-.4.1-.1 0-.3.1-.4.2-.1.1-.2.2-.4.2l-.3.3v3.8h-.7v-5h.8zM279.8 4.6c0 .3 0 .7-.1 1-.1.3-.2.6-.4.8l-.6.6c-.6.3-1.2.3-1.8 0-.3-.1-.5-.3-.6-.6-.2-.3-.3-.5-.4-.8-.2-.7-.2-1.4 0-2 .1-.3.2-.6.4-.8l.6-.6c.6-.3 1.2-.3 1.8 0 .3.1.5.3.6.6.2.3.3.5.4.8 0 .3.1.6.1 1zm-.7 0c0-.5-.1-1-.4-1.5-.4-.6-1.1-.7-1.7-.3l-.3.3c-.3.4-.4 1-.4 1.5s.1 1 .4 1.5c.4.6 1.1.7 1.7.3l.3-.3c.3-.5.4-1 .4-1.5zM281.1 2.1V.4h.7v1.7h1.2v.6h-1.2v3.6c0 .1 0 .2.1.3.1.1.3.1.4.1h.6v.6c-.1 0-.2 0-.3.1h-.5c-.3 0-.6 0-.8-.2-.2-.2-.3-.4-.3-.7V2.7h-.8v-.6h.9zM6.9 11.7v7h-.7v-7h.7zM9.3 11.6v.8h-.7v-.8h.7zm-.7 2.1h.7v5h-.7v-5zM10.9 18.7v-5h.7v.7c.2-.2.4-.4.7-.5.2-.1.5-.2.8-.2.3 0 .6.1.8.2.2.1.4.3.5.6.2-.2.5-.4.7-.6.3-.1.6-.2.9-.2.2 0 .3 0 .5.1.2 0 .3.1.4.2.1.1.3.3.3.5.1.2.1.5.1.8v3.6h-.7v-3.6c0-.3-.1-.5-.2-.7-.2-.1-.4-.2-.6-.2-.1 0-.3 0-.4.1-.1 0-.2.1-.4.2l-.3.3-.3.3v3.8h-.7v-3.6c0-.3-.1-.5-.2-.7-.2-.1-.4-.2-.6-.2-.1 0-.3 0-.4.1-.1 0-.2.1-.4.2l-.3.3-.3.3v3.8h-.6zM19.6 11.6v.8h-.7v-.8h.7zm-.7 2.1h.7v5h-.7v-5zM21.5 13.7V12h.7v1.7h1.2v.6h-1.2v3.6c0 .1 0 .2.1.3.1.1.3.1.4.1h.6v.6c-.1 0-.2 0-.3.1h-.5c-.3 0-.6 0-.8-.2-.2-.2-.3-.4-.3-.7v-3.7h-.8v-.6h.9zM28.1 17.6c-.1.1-.2.3-.3.4-.2.3-.6.5-.9.6-.2.1-.5.1-.7.1-.3 0-.6-.1-.8-.2-.3-.1-.5-.3-.7-.5-.2-.2-.4-.5-.5-.8-.2-.2-.2-.6-.2-1s0-.7.1-1.1c.1-.3.2-.6.4-.8.2-.2.4-.4.6-.5.3-.1.6-.2.8-.2.3 0 .5 0 .7.1.2.1.4.2.6.4.2.2.3.4.4.7.1.3.2.7.2 1v.5h-3.3c0 .3 0 .5.1.8l.3.6c.1.2.3.3.5.4.2.1.4.1.6.1.3 0 .6-.1.8-.2l.6-.6.7.2zm-.9-1.9c0-.4-.1-.8-.3-1.1-.2-.3-.5-.4-.9-.4s-.7.1-1 .4c-.2.3-.4.7-.4 1.1h2.6zM33 11.7v7.1h-.6l-.1-.5c-.1.2-.3.3-.5.4-.3.1-.5.2-.8.2-.2 0-.5 0-.7-.1-.3-.1-.5-.2-.7-.4-.2-.2-.4-.5-.5-.8-.1-.4-.2-.8-.2-1.3 0-.4.1-.8.2-1.2.1-.3.3-.6.5-.8.2-.2.4-.3.7-.4.2-.1.4-.1.7-.1.2 0 .5.1.7.2.2.1.4.2.6.4V12h.7zm-.7 3.2c-.2-.2-.4-.4-.6-.5-.2-.1-.4-.2-.6-.2-.2 0-.4 0-.6.1-.2.1-.3.2-.5.3l-.3.6c-.1.3-.1.6-.1 1 0 .5.1 1 .4 1.5.2.3.6.5 1 .5.2 0 .4-.1.6-.2.2-.1.5-.3.6-.5l.1-2.6zM37.7 13.7V12h.7v1.7h1.2v.6h-1.2v3.6c0 .1 0 .2.1.3.1.1.3.1.4.1h.6v.6c-.1 0-.2 0-.3.1h-.5c-.3 0-.6 0-.8-.2-.2-.2-.3-.4-.3-.7v-3.7h-.8v-.6h.9zM44.3 16.2c0 .3 0 .7-.1 1-.1.3-.2.6-.4.8l-.6.6c-.6.3-1.2.3-1.8 0-.3-.1-.5-.3-.6-.6-.2-.3-.3-.5-.4-.8-.2-.7-.2-1.4 0-2 .1-.3.2-.6.4-.8l.6-.6c.6-.3 1.2-.3 1.8 0 .3.1.5.3.6.6.2.3.3.5.4.8.1.3.1.6.1 1zm-.7 0c0-.5-.1-1-.4-1.5-.4-.6-1.1-.7-1.7-.3l-.3.3c-.3.4-.4 1-.4 1.5s.1 1 .4 1.5c.4.6 1.1.7 1.7.3l.3-.3c.3-.5.5-1 .4-1.5zM49.2 11.7v2.4c.2-.2.4-.3.6-.4.2-.1.5-.2.7-.2.2 0 .5 0 .7.1.2.1.5.2.7.4.2.2.4.5.5.8.1.4.2.8.2 1.2 0 .4-.1.9-.2 1.3-.1.3-.3.6-.5.8-.2.2-.4.3-.7.4-.2.1-.5.1-.7.1-.3 0-.6-.1-.8-.2-.2-.1-.5-.3-.7-.5l-.1.5h-.5v-.6-6.5h.8zm0 5.8c.2.2.4.4.6.5.2.1.4.2.6.2.4 0 .8-.2 1-.5.3-.4.4-1 .4-1.5 0-.3 0-.6-.1-1l-.3-.6c-.1-.2-.3-.3-.5-.3-.2-.1-.4-.1-.6-.1-.2 0-.5.1-.6.2-.2.1-.4.3-.6.5l.1 2.6zM56.7 18.7V18c-.2.2-.4.4-.7.6-.2.1-.5.2-.8.2-.2 0-.4 0-.5-.1-.2 0-.3-.1-.5-.3-.1-.1-.3-.3-.3-.5-.1-.2-.1-.5-.1-.7v-3.7h.7v3.6c0 .3.1.5.2.7.2.1.4.2.6.2.1 0 .3 0 .4-.1.1 0 .3-.1.4-.2.1-.1.2-.2.4-.2l.3-.3v-3.8h.7v5h-.8zM59 17.4l.6.6c.3.1.5.2.8.2.3 0 .6-.1.8-.3.2-.1.3-.4.3-.6 0-.2-.1-.4-.2-.5l-.6-.3c-.2-.1-.5-.2-.7-.2-.2-.1-.5-.2-.7-.3-.2-.1-.4-.2-.5-.4-.2-.2-.2-.5-.2-.7 0-.4.2-.8.5-1 .3-.2.8-.4 1.2-.3.2 0 .3 0 .5.1.2 0 .3.1.5.2.1.1.3.2.4.3.1.1.2.2.3.4l-.5.4c-.2-.2-.4-.4-.6-.5-.2-.1-.5-.2-.7-.2-.2 0-.5.1-.7.2-.2.1-.2.3-.2.5s.1.3.2.4c.2.1.3.2.5.3.2.1.5.1.7.2.2.1.5.2.7.3.2.1.4.3.5.5.2.2.2.5.2.8 0 .2 0 .4-.1.6-.1.2-.2.3-.4.5l-.6.3c-.2.1-.4.1-.7.1-.4 0-.8-.1-1.1-.2-.4-.2-.7-.4-.9-.7l.7-.7zM64.1 11.6v.8h-.7v-.8h.7zm-.7 2.1h.7v5h-.7v-5zM66.4 13.7v.7c.2-.2.4-.4.7-.6.2-.1.5-.2.8-.2.2 0 .4 0 .5.1.2.1.3.1.5.3.1.1.3.3.3.5.1.2.1.5.1.7v3.7h-.7v-3.6c.1-.4-.2-.8-.6-.9h-.2c-.1 0-.3 0-.4.1-.1 0-.3.1-.4.2-.1.1-.2.2-.4.2l-.3.3V19h-.7v-5h.8zM74.7 17.6c-.1.1-.2.3-.3.4-.2.3-.6.5-.9.6-.2.1-.5.1-.7.1-.3 0-.6-.1-.8-.2-.3-.1-.5-.3-.7-.5-.2-.2-.4-.5-.5-.8-.1-.4-.2-.8-.2-1.2 0-.4 0-.7.1-1.1.1-.3.2-.6.4-.8.2-.2.4-.4.6-.5.3-.1.6-.2.8-.2.3 0 .5 0 .7.1.2.1.4.2.6.4.2.2.3.4.4.7.1.3.2.7.2 1v.5h-3.3c0 .3 0 .5.1.8l.3.6c.1.2.3.3.5.4.2.1.4.1.6.1.3 0 .6-.1.8-.2l.6-.6.7.4zm-.9-1.9c0-.4-.1-.8-.3-1.1-.2-.3-.5-.4-.9-.4s-.7.1-1 .4c-.2.3-.4.7-.4 1.1h2.6zM75.9 17.4l.6.6c.3.1.5.2.8.2.3 0 .6-.1.8-.3.2-.1.3-.4.3-.6 0-.2-.1-.4-.2-.5l-.6-.3c-.2-.1-.5-.2-.7-.2-.2-.1-.5-.2-.7-.3-.2-.1-.4-.2-.5-.4-.2-.2-.2-.5-.2-.7 0-.4.2-.8.5-1 .3-.2.8-.4 1.2-.3.2 0 .3 0 .5.1.2 0 .3.1.5.2.1.1.3.2.4.3.1.1.2.2.3.4l-.5.4c-.2-.2-.4-.4-.6-.5-.2-.1-.5-.2-.7-.2-.2 0-.5.1-.7.2-.2.1-.2.3-.2.5s.1.3.2.4c.2.1.3.2.5.3.2.1.5.1.7.2.2.1.5.2.7.3.2.1.4.3.5.5.2.2.2.5.2.8 0 .2 0 .4-.1.6-.1.2-.2.3-.4.5l-.6.3c-.2.1-.4.1-.7.1-.4 0-.8-.1-1.1-.2-.4-.2-.7-.4-.9-.7l.7-.7zM80.4 17.4l.6.6c.3.1.5.2.8.2.3 0 .6-.1.8-.3.2-.1.3-.4.3-.6 0-.2-.1-.4-.2-.5l-.6-.3c-.2-.1-.5-.2-.7-.2-.2-.1-.5-.2-.7-.3-.2-.1-.4-.2-.5-.4-.2-.2-.2-.4-.2-.7 0-.4.2-.8.5-1 .3-.2.8-.4 1.2-.3.2 0 .3 0 .5.1.2 0 .3.1.5.2.1.1.3.2.4.3.1.1.2.2.3.4l-.5.4c-.2-.2-.4-.4-.6-.5-.2-.1-.5-.2-.7-.2-.2 0-.5.1-.7.2-.2.1-.2.3-.2.5s.1.3.2.4c.2.1.3.2.5.3.2.1.5.1.7.2.2.1.5.2.7.3.2.1.4.3.5.5.2.2.2.5.2.8 0 .2 0 .4-.1.6-.1.2-.2.3-.4.5l-.6.3c-.2.1-.4.1-.7.1-.4 0-.8-.1-1.1-.2-.4-.2-.7-.4-.9-.7l.7-.7zM87.8 13.7V12h.7v1.7h1.2v.6h-1.2v3.6c0 .1 0 .2.1.3.1.1.3.1.4.1h.6v.6c-.1 0-.2 0-.3.1h-.5c-.3 0-.6 0-.8-.2-.2-.2-.3-.4-.3-.7v-3.7H87v-.6h.8zM93.7 18.7V18c-.2.2-.4.4-.7.6-.2.1-.5.2-.8.2-.2 0-.4 0-.5-.1-.2 0-.3-.1-.5-.3-.1-.1-.3-.3-.3-.5-.1-.2-.1-.5-.1-.7v-3.7h.7v3.6c0 .3.1.5.2.7.2.1.4.2.6.2.1 0 .3 0 .4-.1.1 0 .3-.1.4-.2.1-.1.2-.2.4-.2l.3-.3v-3.8h.7v5h-.8zM95.9 13.7h.7v1c.1-.2.2-.3.3-.5l.3-.3c.1-.1.3-.2.4-.2.2-.1.4-.1.6-.1v.7c-.4 0-.8.1-1 .4-.3.4-.5.8-.6 1.2v2.8h-.7v-5zM99.9 13.7v.7c.2-.2.4-.4.7-.6.2-.1.5-.2.8-.2.2 0 .4 0 .5.1.2.1.3.1.5.3.1.1.3.3.3.5.1.2.1.5.1.7v3.7h-.7v-3.6c.1-.4-.2-.8-.6-.9h-.2c-.1 0-.3 0-.4.1-.1 0-.3.1-.4.2-.1.1-.2.2-.4.2l-.3.3V19h-.7v-5h.8zM108.2 16.2c0 .3 0 .7-.1 1-.1.3-.2.6-.4.8l-.6.6c-.6.3-1.2.3-1.8 0-.3-.1-.5-.3-.6-.6-.2-.3-.3-.5-.4-.8-.2-.7-.2-1.4 0-2 .1-.3.2-.6.4-.8l.6-.6c.6-.3 1.2-.3 1.8 0 .3.1.5.3.6.6.2.3.3.5.4.8 0 .3.1.6.1 1zm-.7 0c0-.5-.1-1-.4-1.5-.4-.6-1.1-.7-1.7-.3l-.3.3c-.3.4-.4 1-.4 1.5s.1 1 .4 1.5c.4.6 1.1.7 1.7.3l.3-.3c.3-.5.4-1 .4-1.5zM111.1 18.7h-.9l-1.5-5h.7l1.3 4.2 1.3-4.2h.7l-1.6 5zM117.2 17.6c-.1.1-.2.3-.3.4-.2.3-.6.5-.9.6-.2.1-.5.1-.7.1-.3 0-.6-.1-.8-.2-.3-.1-.5-.3-.7-.5-.2-.2-.4-.5-.5-.8-.1-.4-.2-.8-.2-1.2 0-.4 0-.7.1-1.1.1-.3.2-.6.4-.8.2-.2.4-.4.6-.5.3-.1.6-.2.8-.2.3 0 .5 0 .7.1.2.1.4.2.6.4.2.2.3.4.4.7.1.3.2.7.2 1v.5h-3.3c0 .3 0 .5.1.8l.3.6c.1.2.3.3.5.4.2.1.4.1.6.1.3 0 .6-.1.8-.2l.6-.6.7.4zm-.8-1.9c0-.4-.1-.8-.3-1.1-.2-.3-.5-.4-.9-.4s-.7.1-1 .4c-.2.3-.4.7-.4 1.1h2.6zM118.2 13.7h.7v1c.1-.2.2-.3.3-.5l.3-.3c.1-.1.3-.2.4-.2.2-.1.4-.1.6-.1v.7c-.4 0-.8.1-1 .4-.3.4-.5.8-.6 1.2v2.8h-.7v-5zM124.2 14.6c.2-.3.4-.6.7-.8.4-.2.8-.3 1.2-.3.2 0 .4 0 .6.1.2.1.4.1.6.3.2.1.3.3.4.5.1.2.2.5.2.7v3.2c0 .1 0 .3.1.4h-.7l-.1-.7c-.2.2-.4.4-.7.5-.3.2-.6.3-1 .3-.2 0-.4 0-.6-.1-.3-.1-.6-.4-.8-.7-.1-.2-.1-.4-.1-.6 0-.5.2-1 .7-1.3.3-.2.6-.3 1-.4.5-.1.9-.3 1.4-.3v-.3c0-.3-.1-.5-.3-.7-.2-.1-.5-.2-.7-.2-.2 0-.3 0-.5.1-.1 0-.3.1-.4.2l-.3.3c-.1.1-.1.2-.2.3l-.5-.5zm3 1.4c-1.6.3-2.4.8-2.4 1.4 0 .1 0 .2.1.3 0 .1.1.2.2.2.1.1.2.1.3.2.1 0 .2.1.3.1.1 0 .3 0 .4-.1.1 0 .3-.1.4-.2.1-.1.3-.2.4-.3l.3-.3V16zM130 13.7v.7c.2-.2.4-.4.7-.6.2-.1.5-.2.8-.2.2 0 .4 0 .5.1.2.1.3.1.5.3.1.1.3.3.3.5.1.2.1.5.1.7v3.7h-.7v-3.6c.1-.4-.2-.8-.6-.9h-.2c-.1 0-.3 0-.4.1-.1 0-.3.1-.4.2-.1.1-.2.2-.4.2l-.3.3V19h-.7v-5h.8zM138.3 11.7v7.1h-.6l-.1-.5c-.1.2-.3.3-.5.4-.3.1-.5.2-.8.2-.2 0-.5 0-.7-.1-.3-.1-.5-.2-.7-.4-.2-.2-.4-.5-.5-.8-.1-.4-.2-.8-.2-1.3 0-.4.1-.8.2-1.2.1-.3.3-.6.5-.8.2-.2.4-.3.7-.4.2-.1.4-.1.7-.1.2 0 .5.1.7.2.2.1.4.2.6.4V12h.7zm-.7 3.2c-.2-.2-.4-.4-.6-.5-.2-.1-.4-.2-.6-.2-.2 0-.4 0-.6.1-.2.1-.3.2-.5.3l-.3.6c-.1.3-.1.6-.1 1 0 .5.1 1 .4 1.5.2.3.6.5 1 .5.2 0 .4-.1.6-.2.2-.1.5-.3.6-.5l.1-2.6zM142.6 14.6c.2-.3.4-.6.7-.8.4-.2.8-.3 1.2-.3.2 0 .4 0 .6.1.2.1.4.1.6.3.2.1.3.3.4.5.1.2.2.5.2.7v3.2c0 .1 0 .3.1.4h-.7l-.1-.7c-.2.2-.4.4-.7.5-.3.2-.6.3-1 .3-.2 0-.4 0-.6-.1-.3-.1-.6-.4-.8-.7-.1-.2-.1-.4-.1-.6 0-.5.2-1 .7-1.3.3-.2.6-.3 1-.4.5-.1.9-.3 1.4-.3v-.3c0-.3-.1-.5-.3-.7-.2-.1-.5-.2-.7-.2-.2 0-.3 0-.5.1-.1 0-.3.1-.4.2l-.3.3c-.1.1-.1.2-.2.3l-.5-.5zm2.9 1.4c-1.6.3-2.4.8-2.4 1.4 0 .1 0 .2.1.3 0 .1.1.2.2.2.1.1.2.1.3.2.1 0 .2.1.3.1.1 0 .3 0 .4-.1.1 0 .3-.1.4-.2.1-.1.3-.2.4-.3l.3-.3V16zM147.7 17.4l.6.6c.3.1.5.2.8.2.3 0 .6-.1.8-.3.2-.1.3-.4.3-.6 0-.2-.1-.4-.2-.5l-.6-.3c-.2-.1-.5-.2-.7-.2-.2-.1-.5-.2-.7-.3-.2-.1-.4-.2-.5-.4-.2-.2-.2-.5-.2-.7 0-.4.2-.8.5-1 .3-.2.8-.4 1.2-.3.2 0 .3 0 .5.1.2 0 .3.1.5.2.1.1.3.2.4.3.1.1.2.2.3.4l-.5.4c-.2-.2-.4-.4-.6-.5-.2-.1-.5-.2-.7-.2-.2 0-.5.1-.7.2-.2.1-.2.3-.2.5s.1.3.2.4c.2.1.3.2.5.3.2.1.5.1.7.2.2.1.5.2.7.3.2.1.4.3.5.5.2.2.2.5.2.8 0 .2 0 .4-.1.6-.1.2-.2.3-.4.5l-.6.3c-.2.1-.4.1-.7.1-.4 0-.8-.1-1.1-.2-.4-.2-.7-.4-.9-.7l.7-.7zM152.1 17.4l.6.6c.3.1.5.2.8.2.3 0 .6-.1.8-.3.2-.1.3-.4.3-.6 0-.2-.1-.4-.2-.5l-.6-.3c-.2-.1-.5-.2-.7-.2-.2-.1-.5-.2-.7-.3-.2-.1-.4-.2-.5-.4-.2-.2-.2-.5-.2-.7 0-.4.2-.8.5-1 .3-.2.8-.4 1.2-.3.2 0 .3 0 .5.1.2 0 .3.1.5.2.1.1.3.2.4.3.1.1.2.2.3.4l-.5.4c-.2-.2-.4-.4-.6-.5-.2-.1-.5-.2-.7-.2-.2 0-.5.1-.7.2-.2.1-.2.3-.2.5s.1.3.2.4c.2.1.3.2.5.3.2.1.5.1.7.2.2.1.5.2.7.3.2.1.4.3.5.5.2.2.2.5.2.8 0 .2 0 .4-.1.6-.1.2-.2.3-.4.5l-.6.3c-.2.1-.4.1-.7.1-.4 0-.8-.1-1.1-.2-.4-.2-.7-.4-.9-.7l.7-.7zM160.2 17.6c-.1.1-.2.3-.3.4-.2.3-.6.5-.9.6-.2.1-.5.1-.7.1-.3 0-.6-.1-.8-.2-.3-.1-.5-.3-.7-.5-.2-.2-.4-.5-.5-.8-.1-.4-.2-.8-.2-1.2 0-.4 0-.7.1-1.1.1-.3.2-.6.4-.8.2-.2.4-.4.6-.5.3-.1.6-.2.8-.2.3 0 .5 0 .7.1.2.1.4.2.6.4.2.2.3.4.4.7.1.3.2.7.2 1v.5h-3.3c0 .3 0 .5.1.8l.3.6c.1.2.3.3.5.4.2.1.4.1.6.1.3 0 .6-.1.8-.2l.6-.6.7.4zm-.8-1.9c0-.4-.1-.8-.3-1.1-.2-.3-.5-.4-.9-.4s-.7.1-1 .4c-.2.3-.4.7-.4 1.1h2.6zM161.5 13.7V12h.7v1.7h1.2v.6h-1.2v3.6c0 .1 0 .2.1.3.1.1.3.1.4.1h.6v.6c-.1 0-.2 0-.3.1h-.5c-.3 0-.6 0-.8-.2-.2-.2-.3-.4-.3-.7v-3.7h-.8v-.6h.9zM170.5 18.7V18c-.2.2-.4.4-.7.6-.2.1-.5.2-.8.2-.2 0-.4 0-.5-.1-.2 0-.3-.1-.5-.3-.1-.1-.3-.3-.3-.5-.1-.2-.1-.5-.1-.7v-3.7h.7v3.6c0 .3.1.5.2.7.2.1.4.2.6.2.1 0 .3 0 .4-.1.1 0 .3-.1.4-.2.1-.1.2-.2.4-.2l.3-.3v-3.8h.7v5h-.8zM172.8 17.4l.6.6c.3.1.5.2.8.2.3 0 .6-.1.8-.3.2-.1.3-.4.3-.6 0-.2-.1-.4-.2-.5l-.6-.3c-.2-.1-.5-.2-.7-.2-.2-.1-.5-.2-.7-.3-.2-.1-.4-.2-.5-.4-.2-.2-.2-.5-.2-.7 0-.4.2-.8.5-1 .3-.2.8-.4 1.2-.3.2 0 .3 0 .5.1.2 0 .3.1.5.2.1.1.3.2.4.3.1.1.2.2.3.4l-.5.4c-.2-.2-.4-.4-.6-.5-.2-.1-.5-.2-.7-.2-.2 0-.5.1-.7.2-.2.1-.2.3-.2.5s.1.3.2.4c.2.1.3.2.5.3.2.1.5.1.7.2.2.1.5.2.7.3.2.1.4.3.5.5.2.2.2.5.2.8 0 .2 0 .4-.1.6-.1.2-.2.3-.4.5l-.6.3c-.2.1-.4.1-.7.1-.4 0-.8-.1-1.1-.2-.4-.2-.7-.4-.9-.7l.7-.7zM180.9 17.6c-.1.1-.2.3-.3.4-.2.3-.6.5-.9.6-.2.1-.5.1-.7.1-.3 0-.6-.1-.8-.2-.3-.1-.5-.3-.7-.5-.2-.2-.4-.5-.5-.8-.1-.4-.2-.8-.2-1.2 0-.4 0-.7.1-1.1.1-.3.2-.6.4-.8.2-.2.4-.4.6-.5.3-.1.6-.2.8-.2.3 0 .5 0 .7.1.2.1.4.2.6.4.2.2.3.4.4.7.1.3.2.7.2 1v.5h-3.3c0 .3 0 .5.1.8l.3.6c.1.2.3.3.5.4.2.1.4.1.6.1.3 0 .6-.1.8-.2l.6-.6.7.4zm-.9-1.9c0-.4-.1-.8-.3-1.1-.2-.3-.5-.4-.9-.4s-.7.1-1 .4c-.2.3-.4.7-.4 1.1h2.6zM183.1 17.6v1.1h-.9v-1.1h.9zM188.1 11.7h2.6c.3 0 .6 0 .8.1.2.1.4.2.6.4.2.2.3.3.4.5.1.2.1.4.1.7 0 .3-.1.7-.3 1-.2.3-.5.5-.9.6.2.1.4.1.5.2.2.1.3.2.4.4.1.2.2.3.3.5.1.2.1.4.1.6 0 .3 0 .5-.1.7-.1.2-.2.4-.4.6-.2.2-.5.3-.8.4-.4.1-.8.2-1.2.1H188l.1-6.8zm.7 3h1.4c.3 0 .5 0 .7-.1.2-.1.4-.1.5-.3.1-.1.2-.2.3-.4.1-.1.1-.3.1-.4 0-.8-.4-1.2-1.3-1.2h-1.7v2.4zm0 3.3h1.5c.4 0 .9-.1 1.3-.3.3-.2.5-.6.4-1 0-.4-.2-.8-.5-1-.4-.3-.9-.4-1.3-.4h-1.3l-.1 2.7zM198 17.6c-.1.1-.2.3-.3.4-.2.3-.6.5-.9.6-.2.1-.5.1-.7.1-.3 0-.6-.1-.8-.2-.3-.1-.5-.3-.7-.5-.2-.2-.4-.5-.5-.8-.1-.4-.2-.8-.2-1.2 0-.4 0-.7.1-1.1.1-.3.2-.6.4-.8.2-.2.4-.4.6-.5.3-.1.6-.2.8-.2.3 0 .5 0 .7.1.2.1.4.2.6.4.2.2.3.4.4.7.1.3.2.7.2 1v.5h-3.3c0 .3 0 .5.1.8l.3.6c.1.2.3.3.5.4.2.1.4.1.6.1.3 0 .6-.1.8-.2l.6-.6.7.4zm-.9-1.9c0-.4-.1-.8-.3-1.1-.2-.3-.5-.4-.9-.4s-.7.1-1 .4c-.2.3-.4.7-.4 1.1h2.6zM199.3 18.7v-4.4h-.9v-.6h.9v-.6c0-.2 0-.5.1-.7 0-.2.1-.3.2-.5.1-.1.2-.2.4-.2s.4-.1.5-.1h.6v.6h-.5c-.2 0-.4 0-.5.1-.1.2-.2.4-.1.6v.7h1.1v.6H200v4.4h-.7zM205.8 16.2c0 .3 0 .7-.1 1-.1.3-.2.6-.4.8l-.6.6c-.6.3-1.2.3-1.8 0-.3-.1-.5-.3-.6-.6-.2-.3-.3-.5-.4-.8-.2-.7-.2-1.4 0-2 .1-.3.2-.6.4-.8l.6-.6c.6-.3 1.2-.3 1.8 0 .3.1.5.3.6.6.2.3.3.5.4.8.1.3.1.6.1 1zm-.7 0c0-.5-.1-1-.4-1.5-.4-.6-1.1-.7-1.7-.3l-.3.3c-.3.4-.4 1-.4 1.5s.1 1 .4 1.5c.4.6 1.1.7 1.7.3l.3-.3c.3-.5.5-1 .4-1.5zM206.9 13.7h.7v1c.1-.2.2-.3.3-.5l.3-.3c.1-.1.3-.2.4-.2.2-.1.4-.1.6-.1v.7c-.4 0-.8.1-1 .4-.3.4-.5.8-.6 1.2v2.8h-.7v-5zM213.9 17.6c-.1.1-.2.3-.3.4-.2.3-.6.5-.9.6-.2.1-.5.1-.7.1-.3 0-.6-.1-.8-.2-.3-.1-.5-.3-.7-.5-.2-.2-.4-.5-.5-.8-.1-.4-.2-.8-.2-1.2 0-.4 0-.7.1-1.1.1-.3.2-.6.4-.8.2-.2.4-.4.6-.5.3-.1.6-.2.8-.2.3 0 .5 0 .7.1.2.1.4.2.6.4.2.2.3.4.4.7.1.3.2.7.2 1v.5h-3.3c0 .3 0 .5.1.8l.3.6c.1.2.3.3.5.4.2.1.4.1.6.1.3 0 .6-.1.8-.2l.6-.6.7.4zm-.8-1.9c0-.4-.1-.8-.3-1.1-.2-.3-.5-.4-.9-.4s-.7.1-1 .4c-.2.3-.4.7-.4 1.1h2.6zM218 20.6v-6.9h.7v.6c.1-.1.2-.2.2-.3.1-.1.2-.2.3-.2.1-.1.2-.1.4-.1.1 0 .2-.1.4-.1s.5 0 .7.1c.3.1.5.2.7.4.2.2.4.5.5.8.1.4.2.8.2 1.3 0 .4-.1.8-.2 1.2-.1.3-.3.6-.5.8-.2.2-.4.3-.7.4-.2.1-.4.1-.7.1-.2 0-.5-.1-.7-.2-.2-.1-.4-.2-.6-.4v2.3l-.7.2zm.7-3.1c.2.2.4.4.6.5.2.1.4.2.6.2.2 0 .4 0 .6-.1.2-.1.3-.2.5-.3l.3-.6c.1-.3.1-.6.1-1 0-.5-.1-1-.4-1.5-.2-.3-.6-.5-1-.5-.2 0-.4.1-.6.2-.2.1-.5.3-.6.5l-.1 2.6zM223.2 13.7h.7v1c.1-.2.2-.3.3-.5l.3-.3c.1-.1.3-.2.4-.2.2-.1.4-.1.6-.1v.7c-.4 0-.8.1-1 .4-.3.4-.5.8-.6 1.2v2.8h-.7v-5zM230.2 16.2c0 .3 0 .7-.1 1-.1.3-.2.6-.4.8l-.6.6c-.6.3-1.2.3-1.8 0-.3-.1-.5-.3-.6-.6-.2-.3-.3-.5-.4-.8-.2-.7-.2-1.4 0-2 .1-.3.2-.6.4-.8l.6-.6c.6-.3 1.2-.3 1.8 0 .3.1.5.3.6.6.2.3.3.5.4.8.1.3.1.6.1 1zm-.7 0c0-.5-.1-1-.4-1.5-.4-.6-1.1-.7-1.7-.3l-.3.3c-.3.4-.4 1-.4 1.5s.1 1 .4 1.5c.4.6 1.1.7 1.7.3l.3-.3c.3-.5.5-1 .4-1.5zM234.3 15.2c-.1-.3-.2-.5-.4-.7-.2-.2-.5-.3-.8-.3-.4 0-.8.2-1 .5-.3.4-.4 1-.4 1.5s.1 1 .4 1.5c.2.3.6.5 1 .5h.4c.1 0 .2-.1.4-.2l.3-.3c.1-.1.2-.3.3-.5l.6.3c-.1.2-.2.4-.4.6-.1.2-.3.3-.4.4-.2.1-.3.2-.5.2-.2.1-.4.1-.7.1-.3 0-.6-.1-.9-.2-.3-.1-.5-.3-.6-.5-.2-.2-.3-.5-.4-.8-.2-.7-.2-1.5 0-2.2.1-.3.2-.6.4-.8.2-.2.4-.4.6-.5.3-.1.6-.2.9-.2.2 0 .5 0 .7.1.2.1.4.2.5.3l.4.4c.1.2.2.4.3.5l-.7.3zM240 17.6c-.1.1-.2.3-.3.4-.2.3-.6.5-.9.6-.2.1-.5.1-.7.1-.3 0-.6-.1-.8-.2-.3-.1-.5-.3-.7-.5-.2-.2-.4-.5-.5-.8-.1-.4-.2-.8-.2-1.2 0-.4 0-.7.1-1.1.1-.3.2-.6.4-.8.2-.2.4-.4.6-.5.3-.1.6-.2.8-.2.3 0 .5 0 .7.1.2.1.4.2.6.4.2.2.3.4.4.7.1.3.2.7.2 1v.5h-3.3c0 .3 0 .5.1.8l.3.6c.1.2.3.3.5.4.2.1.4.1.6.1.3 0 .6-.1.8-.2l.6-.6.7.4zm-.9-1.9c0-.4-.1-.8-.3-1.1-.2-.3-.5-.4-.9-.4s-.7.1-1 .4c-.2.3-.4.7-.4 1.1h2.6zM244.9 17.6c-.1.1-.2.3-.3.4-.2.3-.6.5-.9.6-.2.1-.5.1-.7.1-.3 0-.6-.1-.8-.2-.3-.1-.5-.3-.7-.5-.2-.2-.4-.5-.5-.8-.1-.4-.2-.8-.2-1.2 0-.4 0-.7.1-1.1.1-.3.2-.6.4-.8.2-.2.4-.4.6-.5.3-.1.6-.2.8-.2.3 0 .5 0 .7.1.2.1.4.2.6.4.2.2.3.4.4.7.1.3.2.7.2 1v.5h-3.3c0 .3 0 .5.1.8l.3.6c.1.2.3.3.5.4.2.1.4.1.6.1.3 0 .6-.1.8-.2l.6-.6.7.4zm-.9-1.9c0-.4-.1-.8-.3-1.1-.2-.3-.5-.4-.9-.4s-.7.1-1 .4c-.2.3-.4.7-.4 1.1h2.6zM249.7 11.7v7.1h-.6l-.1-.5c-.1.2-.3.3-.5.4-.3.1-.5.2-.8.2-.2 0-.5 0-.7-.1-.3-.1-.5-.2-.7-.4-.2-.2-.4-.5-.5-.8-.1-.4-.2-.8-.2-1.3 0-.4.1-.8.2-1.2.1-.3.3-.6.5-.8.2-.2.4-.3.7-.4.2-.1.4-.1.7-.1.2 0 .5.1.7.2.2.1.4.2.6.4V12h.7zm-.7 3.2c-.2-.2-.4-.4-.6-.5-.2-.1-.4-.2-.6-.2-.2 0-.4 0-.6.1-.2.1-.3.2-.5.3l-.3.6c-.1.3-.1.6-.1 1 0 .5.1 1 .4 1.5.2.3.6.5 1 .5.2 0 .4-.1.6-.2.2-.1.5-.3.6-.5l.1-2.6zM252 11.6v.8h-.7v-.8h.7zm-.7 2.1h.7v5h-.7v-5zM254.3 13.7v.7c.2-.2.4-.4.7-.6.2-.1.5-.2.8-.2.2 0 .4 0 .5.1.2.1.3.1.5.3.1.1.3.3.3.5.1.2.1.5.1.7v3.7h-.7v-3.6c.1-.4-.2-.8-.6-.9h-.2c-.1 0-.3 0-.4.1-.1 0-.3.1-.4.2-.1.1-.2.2-.4.2l-.3.3V19h-.7v-5h.8zM262.7 14.2h-.4c-.1 0-.2.1-.3.1.1.1.2.3.2.4.1.2.1.4.1.6 0 .2 0 .5-.1.7-.2.4-.5.8-1 .9-.2.1-.5.1-.7.1h-.5c-.1 0-.3-.1-.4-.1-.2 0-.4.2-.4.5 0 .1 0 .2.1.3.1.1.2.1.3.1.5 0 1 0 1.5.1.3 0 .7.1 1 .3.2.1.4.2.5.4.1.2.2.4.2.6 0 .2 0 .4-.1.5-.1.2-.3.3-.4.4-.2.1-.5.2-.7.3-.3.1-.7.1-1 .1-.6 0-1.1-.1-1.6-.3-.4-.2-.6-.5-.6-.9 0-.2.1-.4.2-.6.2-.2.4-.3.6-.4-.2 0-.3-.2-.5-.3-.1-.1-.2-.3-.2-.4 0-.2.1-.4.2-.5.2-.1.3-.3.5-.4-.2-.2-.4-.4-.5-.6-.1-.2-.2-.5-.2-.8 0-.2 0-.5.1-.7.1-.2.2-.4.4-.6.2-.2.4-.3.6-.4.2-.1.5-.1.8-.1.2 0 .5 0 .7.1.2.1.4.1.5.3.2-.1.3-.2.5-.3.2-.1.4-.1.6-.2v.8zm-.6 5c0-.3-.2-.5-.4-.6-.4-.2-.9-.2-1.3-.2-.2 0-.5 0-.7.1-.2 0-.3.1-.4.2-.1.1-.2.2-.2.3 0 .1-.1.2-.1.3 0 .1 0 .2.1.3.1.1.1.2.2.2.2.1.3.1.5.1h1.4c.2 0 .3-.1.5-.1.1-.1.2-.1.3-.2.1-.1.1-.3.1-.4zm-.4-3.8c0-.3-.1-.6-.3-.9-.3-.2-.6-.4-1-.3-.6-.1-1.2.4-1.2 1v.2c0 .3.1.6.4.8.3.2.6.3.9.3.2 0 .4 0 .5-.1.1-.1.3-.1.4-.2.1-.1.2-.2.2-.4 0-.1.1-.3.1-.4zM266 13.7h.7l1 3.9 1-3.9h.7l1 3.9 1-3.9h.7l-1.3 5h-.7l-1-3.9-1 3.9h-.7l-1.4-5zM273.9 11.6v.8h-.7v-.8h.7zm-.7 2.1h.7v5h-.7v-5zM275.8 13.7V12h.7v1.7h1.2v.6h-1.2v3.6c0 .1 0 .2.1.3.1.1.3.1.4.1h.6v.6c-.1 0-.2 0-.3.1h-.5c-.3 0-.6 0-.8-.2-.2-.2-.3-.4-.3-.7v-3.7h-.7v-.6h.8zM279.4 11.7v2.6c.2-.2.4-.4.7-.6.2-.1.5-.2.8-.2.2 0 .4 0 .5.1.2.1.3.1.5.3.1.1.3.3.3.5.1.2.1.5.1.7v3.7h-.7v-3.6c.1-.4-.2-.8-.6-.9h-.2c-.1 0-.3 0-.4.1-.1 0-.3.1-.4.2-.1.1-.2.2-.4.2l-.3.3v3.8h-.7v-7h.8zM9.4 25.3l-1.8 5.5c-.1.2-.2.5-.3.7-.1.2-.3.3-.4.4-.1.1-.3.2-.5.2s-.3.1-.5.1h-.5v-.6h.7c.1 0 .3-.1.4-.2.1-.1.3-.2.3-.4.2-.2.2-.4.3-.6l-1.8-5.1H6l1.4 3.8 1.2-3.8h.8zM13.9 27.8c0 .3 0 .7-.1 1-.1.3-.2.6-.4.8l-.6.6c-.6.3-1.2.3-1.8 0-.3-.1-.5-.3-.6-.6-.2-.3-.3-.5-.4-.8-.2-.7-.2-1.4 0-2 .1-.3.2-.6.4-.8l.6-.6c.6-.3 1.2-.3 1.8 0 .3.1.5.3.6.6.2.3.3.5.4.8.1.3.1.7.1 1zm-.7 0c0-.5-.1-1-.4-1.5-.4-.6-1.1-.7-1.7-.3l-.3.3c-.5.9-.5 2.1 0 3 .4.6 1.1.7 1.7.3l.3-.3c.3-.5.5-1 .4-1.5zM18.1 30.3v-.7c-.2.2-.4.4-.7.6-.2.1-.5.2-.8.2-.2 0-.4 0-.5-.1-.2 0-.3-.1-.5-.3-.1-.1-.3-.3-.3-.5-.1-.2-.1-.5-.1-.7v-3.7h.7v3.6c0 .3.1.5.2.7.2.1.4.2.6.2.1 0 .3 0 .4-.1.1 0 .3-.1.4-.2.1-.1.2-.2.4-.2l.3-.3V25h.7v5h-.8zM20.2 25.3h.7v1c.1-.2.2-.3.3-.5l.3-.3c.1-.1.3-.2.4-.2.2-.1.4-.1.6-.1v.7c-.4 0-.8.1-1 .4-.3.4-.5.8-.6 1.2v2.8h-.7v-5zM25.9 32.2v-6.9h.7v.6c.1-.1.2-.2.2-.3.1-.1.2-.2.3-.2.1-.1.2-.1.4-.1.1 0 .2-.1.4-.1s.5 0 .7.1c.3.1.5.2.7.4.2.2.4.5.5.8.1.4.2.8.2 1.3 0 .4-.1.8-.2 1.2-.1.3-.3.6-.5.8-.2.2-.4.3-.7.4-.2.1-.4.1-.7.1-.2 0-.5-.1-.7-.2-.2-.1-.4-.2-.6-.4V32l-.7.2zm.7-3.1c.2.2.4.4.6.5.2.1.4.2.6.2.2 0 .4 0 .6-.1.2-.1.3-.2.5-.3l.3-.6c.1-.3.1-.6.1-1 0-.5-.1-1-.4-1.5-.2-.3-.6-.5-1-.5-.2 0-.4.1-.6.2-.2.1-.5.3-.6.5l-.1 2.6zM34.1 30.3v-.7c-.2.2-.4.4-.7.6-.2.1-.5.2-.8.2-.2 0-.4 0-.5-.1-.2 0-.3-.1-.5-.3-.1-.1-.3-.3-.3-.5-.1-.2-.1-.5-.1-.7v-3.7h.7v3.6c0 .3.1.5.2.7.2.1.4.2.6.2.1 0 .3 0 .4-.1.1 0 .3-.1.4-.2.1-.1.2-.2.4-.2l.3-.3V25h.7v5h-.8zM36.3 25.3h.7v1c.1-.2.2-.3.3-.5l.3-.3c.1-.1.3-.2.4-.2.2-.1.4-.1.6-.1v.7c-.4 0-.8.1-1 .4-.3.4-.5.8-.6 1.2v2.8h-.7v-5zM42.4 26.8c-.1-.3-.2-.5-.4-.7-.2-.2-.5-.3-.8-.3-.4 0-.8.2-1 .5-.5.9-.5 2 0 3 .2.3.6.5 1 .5h.4c.1 0 .2-.1.4-.2l.3-.3c.1-.1.2-.3.3-.5l.6.3c-.1.2-.2.4-.4.6-.1.2-.3.3-.4.4-.2.1-.3.2-.5.2-.2.1-.4.1-.7.1-.3 0-.6-.1-.9-.2-.3-.1-.5-.3-.6-.5-.2-.2-.3-.5-.4-.8-.2-.7-.2-1.5 0-2.2.1-.3.2-.6.4-.8.2-.2.4-.4.6-.5.3-.1.6-.2.9-.2.2 0 .5 0 .7.1.2.1.4.2.5.3l.4.4c.1.2.2.4.3.5l-.7.3zM45 23.3V26c.2-.2.4-.4.7-.6.2-.1.5-.2.8-.2.2 0 .4 0 .5.1.2.1.3.1.5.3.1.1.3.3.3.5.1.2.1.5.1.7v3.7h-.7v-3.6c.1-.4-.2-.8-.6-.9h-.2c-.1 0-.3 0-.4.1-.1 0-.3.1-.4.2-.1.1-.2.2-.4.2l-.3.3v3.8h-.7v-7h.8zM49.2 26.2c.2-.3.4-.6.7-.8.4-.2.8-.3 1.2-.3.2 0 .4 0 .6.1.2.1.4.1.6.3.2.1.3.3.4.5.1.2.2.5.2.7v3.2c0 .1 0 .3.1.4h-.7l-.1-.7c-.2.2-.4.4-.7.5-.3.2-.6.3-1 .3-.2 0-.4 0-.6-.1-.3-.1-.6-.4-.8-.7-.1-.2-.1-.4-.1-.6 0-.5.2-1 .7-1.3.3-.2.6-.3 1-.4.5-.1.9-.3 1.4-.3v-.3c0-.3-.1-.5-.3-.7-.2-.1-.5-.2-.7-.2-.2 0-.3 0-.5.1-.1 0-.3.1-.4.2l-.3.3c-.1.1-.1.2-.2.3l-.5-.5zm3 1.4c-1.6.3-2.4.8-2.4 1.4 0 .1 0 .2.1.3 0 .1.1.2.2.2.1.1.2.1.3.2.1 0 .2.1.3.1.1 0 .3 0 .4-.1.1 0 .3-.1.4-.2.1-.1.3-.2.4-.3l.3-.3v-1.3zM54.3 29l.6.6c.3.1.5.2.8.2.3 0 .6-.1.8-.3.2-.1.3-.4.3-.6 0-.2-.1-.4-.2-.5l-.6-.3c-.2-.1-.5-.2-.7-.2-.2-.1-.5-.2-.7-.3-.2-.1-.4-.2-.5-.4-.2-.2-.2-.5-.2-.7 0-.4.2-.8.5-1 .3-.2.8-.4 1.2-.3.2 0 .3 0 .5.1.2 0 .3.1.5.2.1.1.3.2.4.3.1.1.2.2.3.4l-.5.4c-.2-.2-.4-.4-.6-.5-.2-.1-.5-.2-.7-.2-.2 0-.5.1-.7.2-.2.1-.2.3-.2.5s.1.3.2.4c.2.1.3.2.5.3.2.1.5.1.7.2.2.1.5.2.7.3.2.1.4.3.5.5.2.2.2.5.2.8 0 .2 0 .4-.1.6-.1.2-.2.3-.4.5l-.6.3c-.2.1-.4.1-.7.1-.4 0-.8-.1-1.1-.2-.4-.2-.7-.4-.9-.7l.7-.7zM62.4 29.2c-.1.1-.2.3-.3.4-.2.3-.6.5-.9.6-.2.1-.5.1-.7.1-.3 0-.6-.1-.8-.2-.3-.1-.5-.3-.7-.5-.2-.2-.4-.5-.5-.8-.1-.4-.2-.8-.2-1.2 0-.4 0-.7.1-1.1.1-.3.2-.6.4-.8.2-.2.4-.4.6-.5.3-.1.6-.2.8-.2.3 0 .5 0 .7.1.2.1.4.2.6.4.2.2.3.4.4.7.1.3.2.7.2 1v.5H59c0 .3 0 .5.1.8l.3.6c.1.2.3.3.5.4.2.1.4.1.6.1.3 0 .6-.1.8-.2l.6-.6.5.4zm-.8-1.9c0-.4-.1-.8-.3-1.1-.2-.3-.5-.4-.9-.4s-.7.1-1 .4c-.2.3-.4.7-.4 1.1h2.6zM64.6 30.3l-.6 1.4h-.4l.5-1.4h-.4v-1.1h.9v1.1zM72.1 25.3l-1.8 5.5c-.1.2-.2.5-.3.7-.1.2-.3.3-.4.4-.1.1-.3.2-.5.2s-.3.1-.5.1h-.5v-.6h.7c.1 0 .3-.1.4-.2.1-.1.3-.2.3-.4.1-.2.2-.4.2-.7l-1.7-5h.7l1.4 3.8 1.2-3.8h.8zM76.6 27.8c0 .3 0 .7-.1 1-.1.3-.2.6-.4.8l-.6.6c-.6.3-1.2.3-1.8 0-.3-.1-.5-.3-.6-.6-.2-.3-.3-.5-.4-.8-.2-.7-.2-1.4 0-2 .1-.3.2-.6.4-.8l.6-.6c.6-.3 1.2-.3 1.8 0 .3.1.5.3.6.6.2.3.3.5.4.8.1.3.1.7.1 1zm-.7 0c0-.5-.1-1-.4-1.5-.4-.6-1.1-.7-1.7-.3l-.3.3c-.5.9-.5 2.1 0 3 .4.6 1.1.7 1.7.3l.3-.3c.3-.5.5-1 .4-1.5zM80.8 30.3v-.7c-.2.2-.4.4-.7.6-.2.1-.5.2-.8.2-.2 0-.4 0-.5-.1-.2 0-.3-.1-.5-.3-.1-.1-.3-.3-.3-.5-.1-.2-.1-.5-.1-.7v-3.7h.7v3.6c0 .3.1.5.2.7.2.1.4.2.6.2.1 0 .3 0 .4-.1.1 0 .3-.1.4-.2.1-.1.2-.2.4-.2l.3-.3V25h.7v5h-.8zM85.4 29l.6.6c.3.1.5.2.8.2.3 0 .6-.1.8-.3.2-.1.3-.4.3-.6 0-.2-.1-.4-.2-.5l-.6-.3c-.2-.1-.5-.2-.7-.2-.2-.1-.5-.2-.7-.3-.2-.1-.4-.2-.5-.4-.2-.1-.2-.4-.2-.7 0-.4.2-.8.5-1 .3-.2.8-.4 1.2-.3.2 0 .3 0 .5.1.2 0 .3.1.5.2.1.1.3.2.4.3.1.1.2.2.3.4l-.5.4c-.2-.2-.4-.4-.6-.5-.2-.1-.5-.2-.7-.2-.2 0-.5.1-.7.2-.2.1-.2.3-.2.5s.1.3.2.4c.2.1.3.2.5.3.2.1.5.1.7.2.2.1.5.2.7.3.2.1.4.3.5.5.2.2.2.5.2.8 0 .2 0 .4-.1.6-.1.2-.2.3-.4.5l-.6.3c-.2.1-.4.1-.7.1-.4 0-.8-.1-1.1-.2-.4-.2-.7-.4-.9-.7l.7-.7zM90.4 23.3V26c.2-.2.4-.4.7-.6.2-.1.5-.2.8-.2.2 0 .4 0 .5.1.2.1.3.1.5.3.1.1.3.3.3.5.1.2.1.5.1.7v3.7h-.7v-3.6c.1-.4-.2-.8-.6-.9h-.2c-.1 0-.3 0-.4.1-.1 0-.3.1-.4.2-.1.1-.2.2-.4.2l-.3.3v3.8h-.7v-7h.8zM98.6 27.8c0 .3 0 .7-.1 1-.1.3-.2.6-.4.8l-.6.6c-.6.3-1.2.3-1.8 0-.3-.1-.5-.3-.6-.6-.2-.3-.3-.5-.4-.8-.2-.7-.2-1.4 0-2 .1-.3.2-.6.4-.8l.6-.6c.6-.3 1.2-.3 1.8 0 .3.1.5.3.6.6.2.3.3.5.4.8.1.3.2.7.1 1zm-.6 0c0-.5-.1-1-.4-1.5-.4-.6-1.1-.7-1.7-.3l-.3.3c-.5.9-.5 2.1 0 3 .4.6 1.1.7 1.7.3l.3-.3c.3-.5.4-1 .4-1.5zM102.8 30.3v-.7c-.2.2-.4.4-.7.6-.2.1-.5.2-.8.2-.2 0-.4 0-.5-.1-.2 0-.3-.1-.5-.3-.1-.1-.3-.3-.3-.5-.1-.2-.1-.5-.1-.7v-3.7h.7v3.6c0 .3.1.5.2.7.2.1.4.2.6.2.1 0 .3 0 .4-.1.1 0 .3-.1.4-.2.1-.1.2-.2.4-.2l.3-.3V25h.7v5h-.8zM105.8 23.3v7h-.7v-7h.7zM111.2 23.3v7.1h-.6l-.1-.5c-.1.2-.3.3-.5.4-.3.1-.5.2-.8.2-.2 0-.5 0-.7-.1-.3-.1-.5-.2-.7-.4-.2-.2-.4-.5-.5-.8-.1-.4-.2-.8-.2-1.3 0-.4.1-.8.2-1.2.1-.3.3-.6.5-.8.2-.2.4-.3.7-.4.2-.1.4-.1.7-.1.2 0 .5.1.7.2.2.1.4.2.6.4v-2.4h.7zm-.7 3.2c-.2-.2-.4-.4-.6-.5-.2-.1-.4-.2-.6-.2-.2 0-.4 0-.6.1-.2.1-.3.2-.5.3l-.3.6c-.1.3-.1.6-.1 1 0 .5.1 1 .4 1.5.2.3.6.5 1 .5.2 0 .4-.1.6-.2.2-.1.5-.3.6-.5l.1-2.6zM115.1 29l.6.6c.3.1.5.2.8.2.3 0 .6-.1.8-.3.2-.1.3-.4.3-.6 0-.2-.1-.4-.2-.5l-.6-.3c-.2-.1-.5-.2-.7-.2-.2-.1-.5-.2-.7-.3-.2-.1-.4-.2-.5-.4-.2-.2-.2-.5-.2-.7 0-.4.2-.8.5-1 .3-.2.8-.4 1.2-.3.2 0 .3 0 .5.1.2 0 .3.1.5.2.1.1.3.2.4.3.1.1.2.2.3.4l-.5.4c-.2-.2-.4-.4-.6-.5-.2-.1-.5-.2-.7-.2-.2 0-.5.1-.7.2-.2.1-.2.3-.2.5s.1.3.2.4c.2.1.3.2.5.3.2.1.5.1.7.2.2.1.5.2.7.3.2.1.4.3.5.5.2.2.2.5.2.8 0 .2 0 .4-.1.6-.1.2-.2.3-.4.5l-.6.3c-.2.1-.4.1-.7.1-.4 0-.8-.1-1.1-.2-.4-.2-.7-.4-.9-.7l.7-.7zM123.2 29.2c-.1.1-.2.3-.3.4-.2.3-.6.5-.9.6-.2.1-.5.1-.7.1-.3 0-.6-.1-.8-.2-.3-.1-.5-.3-.7-.5-.2-.2-.4-.5-.5-.8-.1-.4-.2-.8-.2-1.2 0-.4 0-.7.1-1.1.1-.3.2-.6.4-.8.2-.2.4-.4.6-.5.3-.1.6-.2.8-.2.3 0 .5 0 .7.1.2.1.4.2.6.4.2.2.3.4.4.7.1.3.2.7.2 1v.5h-3.3c0 .3 0 .5.1.8l.3.6c.1.2.3.3.5.4.2.1.4.1.6.1.3 0 .6-.1.8-.2l.6-.6.7.4zm-.9-1.9c0-.4-.1-.8-.3-1.1-.2-.3-.5-.4-.9-.4s-.7.1-1 .4c-.2.3-.4.7-.4 1.1h2.6zM128.1 29.2c-.1.1-.2.3-.3.4-.2.3-.6.5-.9.6-.2.1-.5.1-.7.1-.3 0-.6-.1-.8-.2-.3-.1-.5-.3-.7-.5-.2-.2-.4-.5-.5-.8-.1-.4-.2-.8-.2-1.2 0-.4 0-.7.1-1.1.1-.3.2-.6.4-.8.2-.2.4-.4.6-.5.3-.1.6-.2.8-.2.3 0 .5 0 .7.1.2.1.4.2.6.4.2.2.3.4.4.7.1.3.2.7.2 1v.5h-3.3c0 .3 0 .5.1.8l.3.6c.1.2.3.3.5.4.2.1.4.1.6.1.3 0 .6-.1.8-.2l.6-.6.7.4zm-.9-1.9c0-.4-.1-.8-.3-1.1-.2-.3-.5-.4-.9-.4s-.7.1-1 .4c-.2.3-.4.7-.4 1.1h2.6zM129.1 23.3h.7v4.5l2-2.5h.8l-1.5 1.9 1.7 3.2h-.8l-1.3-2.6-.9 1.1v1.5h-.7v-7.1zM136.2 29l.6.6c.3.1.5.2.8.2.3 0 .6-.1.8-.3.2-.1.3-.4.3-.6 0-.2-.1-.4-.2-.5l-.6-.3c-.2-.1-.5-.2-.7-.2-.2-.1-.5-.2-.7-.3-.2-.1-.4-.2-.5-.4-.2-.2-.2-.5-.2-.7 0-.4.2-.8.5-1 .3-.2.8-.4 1.2-.3.2 0 .3 0 .5.1.2 0 .3.1.5.2.1.1.3.2.4.3.1.1.2.2.3.4l-.5.4c-.2-.2-.4-.4-.6-.5-.2-.1-.5-.2-.7-.2-.2 0-.5.1-.7.2-.2.1-.2.3-.2.5s.1.3.2.4c.2.1.3.2.5.3.2.1.5.1.7.2.2.1.5.2.7.3.2.1.4.3.5.5.2.2.2.5.2.8 0 .2 0 .4-.1.6-.1.2-.2.3-.4.5l-.6.3c-.2.1-.4.1-.7.1-.4 0-.8-.1-1.1-.2-.4-.2-.7-.4-.9-.7l.7-.7zM140.5 32.2v-6.9h.7v.6c.1-.1.2-.2.2-.3.1-.1.2-.2.3-.2.1-.1.2-.1.4-.1.1 0 .2-.1.4-.1s.5 0 .7.1c.3.1.5.2.7.4.2.2.4.5.5.8.1.4.2.8.2 1.3 0 .4-.1.8-.2 1.2-.1.3-.3.6-.5.8-.2.2-.4.3-.7.4-.2.1-.4.1-.7.1-.2 0-.5-.1-.7-.2-.2-.1-.4-.2-.6-.4V32l-.7.2zm.7-3.1c.2.2.4.4.6.5.2.1.4.2.6.2.2 0 .4 0 .6-.1.2-.1.3-.2.5-.3l.3-.6c.1-.3.1-.6.1-1 0-.5-.1-1-.4-1.5-.2-.3-.6-.5-1-.5-.2 0-.4.1-.6.2-.2.1-.5.3-.6.5l-.1 2.6zM149.6 29.2c-.1.1-.2.3-.3.4-.2.3-.6.5-.9.6-.2.1-.5.1-.7.1-.3 0-.6-.1-.8-.2-.3-.1-.5-.3-.7-.5-.2-.2-.4-.5-.5-.8-.1-.4-.2-.8-.2-1.2 0-.4 0-.7.1-1.1.1-.3.2-.6.4-.8.2-.2.4-.4.6-.5.3-.1.6-.2.8-.2.3 0 .5 0 .7.1.2.1.4.2.6.4.2.2.3.4.4.7.1.3.2.7.2 1v.5H146c0 .3 0 .5.1.8l.3.6c.1.2.3.3.5.4.2.1.4.1.6.1.3 0 .6-.1.8-.2l.6-.6.7.4zm-.9-1.9c0-.4-.1-.8-.3-1.1-.2-.3-.5-.4-.9-.4s-.7.1-1 .4c-.2.3-.4.7-.4 1.1h2.6zM153.6 26.8c-.1-.3-.2-.5-.4-.7-.2-.2-.5-.3-.8-.3-.4 0-.8.2-1 .5-.5.9-.5 2 0 3 .2.3.6.5 1 .5h.4c.1 0 .2-.1.4-.2l.3-.3c.1-.1.2-.3.3-.5l.6.3c-.1.2-.2.4-.4.6-.1.2-.3.3-.4.4-.2.1-.3.2-.5.2-.2.1-.4.1-.7.1-.3 0-.6-.1-.9-.2-.3-.1-.5-.3-.6-.5-.2-.2-.3-.5-.4-.8-.2-.7-.2-1.5 0-2.2.1-.3.2-.6.4-.8.2-.2.4-.4.6-.5.3-.1.6-.2.9-.2.2 0 .5 0 .7.1.2.1.4.2.5.3l.4.4c.1.2.2.4.3.5l-.7.3zM156.2 23.2v.8h-.7v-.8h.7zm-.7 2.1h.7v5h-.7v-5zM157.6 26.2c.2-.3.4-.6.7-.8.4-.2.8-.3 1.2-.3.2 0 .4 0 .6.1.2.1.4.1.6.3.2.1.3.3.4.5.1.2.2.5.2.7v3.2c0 .1 0 .3.1.4h-.7l-.1-.7c-.2.2-.4.4-.7.5-.3.2-.6.3-1 .3-.2 0-.4 0-.6-.1-.3-.1-.6-.4-.8-.7-.1-.2-.1-.4-.1-.6 0-.5.2-1 .7-1.3.3-.2.6-.3 1-.4.5-.1.9-.3 1.4-.3v-.3c0-.3-.1-.5-.3-.7-.2-.1-.5-.2-.7-.2-.2 0-.3 0-.5.1-.1 0-.3.1-.4.2l-.3.3c-.1.1-.1.2-.2.3l-.5-.5zm3 1.4c-1.6.3-2.4.8-2.4 1.4 0 .1 0 .2.1.3 0 .1.1.2.2.2.1.1.2.1.3.2.1 0 .2.1.3.1.1 0 .3 0 .4-.1.1 0 .3-.1.4-.2.1-.1.3-.2.4-.3l.3-.3v-1.3zM163.4 23.3v7h-.7v-7h.7zM165.8 23.2v.8h-.7v-.8h.7zm-.7 2.1h.7v5h-.7v-5zM167.5 29l.6.6c.3.1.5.2.8.2.3 0 .6-.1.8-.3.2-.1.3-.4.3-.6 0-.2-.1-.4-.2-.5l-.6-.3c-.2-.1-.5-.2-.7-.2-.2-.1-.5-.2-.7-.3-.2-.1-.4-.2-.5-.4-.2-.2-.2-.5-.2-.7 0-.4.2-.8.5-1 .3-.2.8-.4 1.2-.3.2 0 .3 0 .5.1.2 0 .3.1.5.2.1.1.3.2.4.3.1.1.2.2.3.4l-.5.4c-.2-.2-.4-.4-.6-.5-.2-.1-.5-.2-.7-.2-.2 0-.5.1-.7.2-.2.1-.2.3-.2.5s.1.3.2.4c.2.1.3.2.5.3.2.1.5.1.7.2.2.1.5.2.7.3.2.1.4.3.5.5.2.2.2.5.2.8 0 .2 0 .4-.1.6-.1.2-.2.3-.4.5l-.6.3c-.2.1-.4.1-.7.1-.4 0-.8-.1-1.1-.2-.4-.2-.7-.4-.9-.7l.7-.7zM172.1 25.3v-1.7h.7v1.7h1.2v.6h-1.2v3.6c0 .1 0 .2.1.3.1.1.3.1.4.1h.6v.6c-.1 0-.2 0-.3.1h-.5c-.3 0-.6 0-.8-.2-.2-.2-.3-.4-.3-.7V26h-.8v-.6h.9zM177.6 25.3v-1.7h.7v1.7h1.2v.6h-1.2v3.6c0 .1 0 .2.1.3.1.1.3.1.4.1h.6v.6c-.1 0-.2 0-.3.1h-.5c-.3 0-.6 0-.8-.2-.2-.2-.3-.4-.3-.7V26h-.8v-.6h.9zM180.4 26.2c.2-.3.4-.6.7-.8.4-.2.8-.3 1.2-.3.2 0 .4 0 .6.1.2.1.4.1.6.3.2.1.3.3.4.5.1.2.2.5.2.7v3.2c0 .1 0 .3.1.4h-.7l-.1-.7c-.2.2-.4.4-.7.5-.3.2-.6.3-1 .3-.2 0-.4 0-.6-.1-.3-.1-.6-.4-.8-.7-.1-.2-.1-.4-.1-.6 0-.5.2-1 .7-1.3.3-.2.6-.3 1-.4.5-.1.9-.3 1.4-.3v-.3c0-.3-.1-.5-.3-.7-.2-.1-.5-.2-.7-.2-.2 0-.3 0-.5.1-.1 0-.3.1-.4.2l-.3.3c-.1.1-.1.2-.2.3l-.5-.5zm2.9 1.4c-1.6.3-2.4.8-2.4 1.4 0 .1 0 .2.1.3 0 .1.1.2.2.2.1.1.2.1.3.2.1 0 .2.1.3.1.1 0 .3 0 .4-.1.1 0 .3-.1.4-.2.1-.1.3-.2.4-.3l.3-.3v-1.3zM186.9 27.1l1.1-1.8h.8l-1.4 2.4 1.6 2.6h-.8l-1.3-2.1-1.2 2.1h-.8l1.6-2.6-1.5-2.4h.8l1.1 1.8zM191.9 26.2c.2-.3.4-.6.7-.8.4-.2.8-.3 1.2-.3.2 0 .4 0 .6.1.2.1.4.1.6.3.2.1.3.3.4.5.1.2.2.5.2.7v3.2c0 .1 0 .3.1.4h-.7l-.1-.7c-.2.2-.4.4-.7.5-.3.2-.6.3-1 .3-.2 0-.4 0-.6-.1-.3-.1-.6-.4-.8-.7-.1-.2-.1-.4-.1-.6 0-.5.2-1 .7-1.3.3-.2.6-.3 1-.4.5-.1.9-.3 1.4-.3v-.3c0-.3-.1-.5-.3-.7-.2-.1-.5-.2-.7-.2-.2 0-.3 0-.5.1-.1 0-.3.1-.4.2l-.3.3c-.1.1-.1.2-.2.3l-.5-.5zm3 1.4c-1.6.3-2.4.8-2.4 1.4 0 .1 0 .2.1.3 0 .1.1.2.2.2.1.1.2.1.3.2.1 0 .2.1.3.1.1 0 .3 0 .4-.1.1 0 .3-.1.4-.2.1-.1.3-.2.4-.3l.3-.3v-1.3zM197.7 25.3v.7c.2-.2.4-.4.7-.6.2-.1.5-.2.8-.2.2 0 .4 0 .5.1.2.1.3.1.5.3.1.1.3.3.3.5.1.2.1.5.1.7v3.7h-.7v-3.6c.1-.4-.2-.8-.6-.9h-.2c-.1 0-.3 0-.4.1-.1 0-.3.1-.4.2-.1.1-.2.2-.4.2l-.3.3v3.8h-.6v-5h.7zM205.9 23.3v7.1h-.6l-.1-.5c-.1.2-.3.3-.5.4-.3.1-.5.2-.8.2-.2 0-.5 0-.7-.1-.3-.1-.5-.2-.7-.4-.2-.2-.4-.5-.5-.8-.1-.4-.2-.8-.2-1.3 0-.4.1-.8.2-1.2.1-.3.3-.6.5-.8.2-.2.4-.3.7-.4.2-.1.4-.1.7-.1.2 0 .5.1.7.2.2.1.4.2.6.4v-2.4h.7zm-.7 3.2c-.2-.2-.4-.4-.6-.5-.2-.1-.4-.2-.6-.2-.2 0-.4 0-.6.1-.2.1-.3.2-.5.3l-.3.6c-.1.3-.1.6-.1 1 0 .5.1 1 .4 1.5.2.3.6.5 1 .5.2 0 .4-.1.6-.2.2-.1.5-.3.6-.5l.1-2.6zM209.6 26.2c.2-.3.4-.6.7-.8.4-.2.8-.3 1.2-.3.2 0 .4 0 .6.1.2.1.4.1.6.3.2.1.3.3.4.5.1.2.2.5.2.7v3.2c0 .1 0 .3.1.4h-.7l-.1-.7c-.2.2-.4.4-.7.5-.3.2-.6.3-1 .3-.2 0-.4 0-.6-.1-.3-.1-.6-.4-.8-.7-.1-.2-.1-.4-.1-.6 0-.5.2-1 .7-1.3.3-.2.6-.3 1-.4.5-.1.9-.3 1.4-.3v-.3c0-.3-.1-.5-.3-.7-.2-.1-.5-.2-.7-.2-.2 0-.3 0-.5.1-.1 0-.3.1-.4.2l-.3.3c-.1.1-.1.2-.2.3l-.5-.5zm3 1.4c-1.6.3-2.4.8-2.4 1.4 0 .1 0 .2.1.3 0 .1.1.2.2.2.1.1.2.1.3.2.1 0 .2.1.3.1.1 0 .3 0 .4-.1.1 0 .3-.1.4-.2.1-.1.3-.2.4-.3l.3-.3v-1.3zM217.6 26.8c-.1-.3-.2-.5-.4-.7-.2-.2-.5-.3-.8-.3-.4 0-.8.2-1 .5-.5.9-.5 2 0 3 .2.3.6.5 1 .5h.4c.1 0 .2-.1.4-.2l.3-.3c.1-.1.2-.3.3-.5l.6.3c-.1.2-.2.4-.4.6-.1.2-.3.3-.4.4-.2.1-.3.2-.5.2-.2.1-.4.1-.7.1-.3 0-.6-.1-.9-.2-.3-.1-.5-.3-.6-.5-.2-.2-.3-.5-.4-.8-.2-.7-.2-1.5 0-2.2.1-.3.2-.6.4-.8.2-.2.4-.4.6-.5.3-.1.6-.2.9-.2.2 0 .5 0 .7.1.2.1.4.2.5.3l.4.4c.1.2.2.4.3.5l-.7.3zM222.4 26.8c-.1-.3-.2-.5-.4-.7-.2-.2-.5-.3-.8-.3-.4 0-.8.2-1 .5-.5.9-.5 2 0 3 .2.3.6.5 1 .5h.4c.1 0 .2-.1.4-.2l.3-.3c.1-.1.2-.3.3-.5l.6.3c-.1.2-.2.4-.4.6-.1.2-.3.3-.4.4-.2.1-.3.2-.5.2-.2.1-.4.1-.7.1-.3 0-.6-.1-.9-.2-.3-.1-.5-.3-.6-.5-.2-.2-.3-.5-.4-.8-.2-.7-.2-1.5 0-2.2.1-.3.2-.6.4-.8.2-.2.4-.4.6-.5.3-.1.6-.2.9-.2.2 0 .5 0 .7.1.2.1.4.2.5.3l.4.4c.1.2.2.4.3.5l-.7.3zM228 27.8c0 .3 0 .7-.1 1-.1.3-.2.6-.4.8l-.6.6c-.6.3-1.2.3-1.8 0-.3-.1-.5-.3-.6-.6-.2-.3-.3-.5-.4-.8-.2-.7-.2-1.4 0-2 .1-.3.2-.6.4-.8l.6-.6c.6-.3 1.2-.3 1.8 0 .3.1.5.3.6.6.2.3.3.5.4.8.1.3.1.7.1 1zm-.7 0c0-.5-.1-1-.4-1.5-.4-.6-1.1-.7-1.7-.3l-.3.3c-.5.9-.5 2.1 0 3 .4.6 1.1.7 1.7.3l.3-.3c.3-.5.5-1 .4-1.5zM232.1 30.3v-.7c-.2.2-.4.4-.7.6-.2.1-.5.2-.8.2-.2 0-.4 0-.5-.1-.2 0-.3-.1-.5-.3-.1-.1-.3-.3-.3-.5-.1-.2-.1-.5-.1-.7v-3.7h.7v3.6c0 .3.1.5.2.7.2.1.4.2.6.2.1 0 .3 0 .4-.1.1 0 .3-.1.4-.2.1-.1.2-.2.4-.2l.3-.3V25h.7v5h-.8zM235.1 25.3v.7c.2-.2.4-.4.7-.6.2-.1.5-.2.8-.2.2 0 .4 0 .5.1.2.1.3.1.5.3.1.1.3.3.3.5.1.2.1.5.1.7v3.7h-.7v-3.6c.1-.4-.2-.8-.6-.9h-.2c-.1 0-.3 0-.4.1-.1 0-.3.1-.4.2-.1.1-.2.2-.4.2l-.3.3v3.8h-.7v-5h.8zM239.8 25.3v-1.7h.7v1.7h1.2v.6h-1.2v3.6c0 .1 0 .2.1.3.1.1.3.1.4.1h.6v.6c-.1 0-.2 0-.3.1h-.5c-.3 0-.6 0-.8-.2-.2-.2-.3-.4-.3-.7V26h-.7v-.6h.8zM243.5 23.2v.8h-.7v-.8h.7zm-.7 2.1h.7v5h-.7v-5zM245.8 25.3v.7c.2-.2.4-.4.7-.6.2-.1.5-.2.8-.2.2 0 .4 0 .5.1.2.1.3.1.5.3.1.1.3.3.3.5.1.2.1.5.1.7v3.7h-.7v-3.6c.1-.4-.2-.8-.6-.9h-.2c-.1 0-.3 0-.4.1-.1 0-.3.1-.4.2-.1.1-.2.2-.4.2l-.3.3v3.8h-.7v-5h.8zM254.2 25.8h-.4c-.1 0-.2.1-.3.1.1.1.2.3.2.4.1.2.1.4.1.6 0 .2 0 .5-.1.7-.2.4-.5.8-1 .9-.2.1-.5.1-.7.1h-.5c-.1 0-.3-.1-.4-.1-.2 0-.4.2-.4.5 0 .1 0 .2.1.3.1.1.2.1.3.1.5 0 1 0 1.5.1.3 0 .7.1 1 .3.2.1.4.2.5.4.1.2.2.4.2.6 0 .2 0 .4-.1.5-.1.2-.3.3-.4.4-.2.1-.5.2-.7.3-.3.1-.7.1-1 .1-.6 0-1.1-.1-1.6-.3-.4-.2-.6-.5-.6-.9 0-.2.1-.4.2-.6.2-.2.4-.3.6-.4-.2 0-.3-.2-.5-.3-.1-.1-.2-.3-.2-.4 0-.2.1-.4.2-.5.2-.1.3-.3.5-.4-.2-.2-.4-.4-.5-.6-.1-.2-.2-.5-.2-.8 0-.2 0-.5.1-.7.1-.2.2-.4.4-.6.2-.2.4-.3.6-.4.2-.1.5-.1.8-.1.2 0 .5 0 .7.1.2.1.4.1.5.3.2-.1.3-.2.5-.3.2-.1.4-.1.6-.2v.8zm-.6 5c0-.3-.2-.5-.4-.6-.4-.2-.9-.2-1.3-.2-.2 0-.5 0-.7.1-.2 0-.3.1-.4.2-.1.1-.2.2-.2.3 0 .1-.1.2-.1.3 0 .1 0 .2.1.3.1.1.1.2.2.2.2.1.3.1.5.1h1.4c.2 0 .3-.1.5-.1.1-.1.2-.1.3-.2.1-.1.1-.2.1-.4zm-.4-3.8c0-.3-.1-.6-.3-.9-.3-.2-.6-.4-1-.3-.6-.1-1.2.4-1.2 1v.2c0 .3.1.6.4.8.3.2.6.3.9.3.2 0 .4 0 .5-.1.1-.1.3-.1.4-.2.1-.1.2-.2.2-.4 0-.1.1-.3.1-.4zM257.3 26.2c.2-.3.4-.6.7-.8.4-.2.8-.3 1.2-.3.2 0 .4 0 .6.1.2.1.4.1.6.3.2.1.3.3.4.5.1.2.2.5.2.7v3.2c0 .1 0 .3.1.4h-.7l-.1-.7c-.2.2-.4.4-.7.5-.3.2-.6.3-1 .3-.2 0-.4 0-.6-.1-.3-.1-.6-.4-.8-.7-.1-.2-.1-.4-.1-.6 0-.5.2-1 .7-1.3.3-.2.6-.3 1-.4.5-.1.9-.3 1.4-.3v-.3c0-.3-.1-.5-.3-.7-.2-.1-.5-.2-.7-.2-.2 0-.3 0-.5.1-.1 0-.3.1-.4.2l-.3.3c-.1.1-.1.2-.2.3l-.5-.5zm2.9 1.4c-1.6.3-2.4.8-2.4 1.4 0 .1 0 .2.1.3 0 .1.1.2.2.2.1.1.2.1.3.2.1 0 .2.1.3.1.1 0 .3 0 .4-.1.1 0 .3-.1.4-.2.1-.1.3-.2.4-.3l.3-.3v-1.3zM266.1 23.3v7.1h-.6l-.1-.5c-.1.2-.3.3-.5.4-.3.1-.5.2-.8.2-.2 0-.5 0-.7-.1-.3-.1-.5-.2-.7-.4-.2-.2-.4-.5-.5-.8-.1-.4-.2-.8-.2-1.3 0-.4.1-.8.2-1.2.1-.3.3-.6.5-.8.2-.2.4-.3.7-.4.2-.1.4-.1.7-.1.2 0 .5.1.7.2.2.1.4.2.6.4v-2.4h.7zm-.7 3.2c-.2-.2-.4-.4-.6-.5-.2-.1-.4-.2-.6-.2-.2 0-.4 0-.6.1-.2.1-.3.2-.5.3l-.3.6c-.1.3-.1.6-.1 1 0 .5.1 1 .4 1.5.2.3.6.5 1 .5.2 0 .4-.1.6-.2.2-.1.5-.3.6-.5l.1-2.6zM269.5 30.3h-.9l-1.5-5h.7l1.3 4.2 1.3-4.2h.7l-1.6 5zM272.8 23.2v.8h-.7v-.8h.7zm-.7 2.1h.7v5h-.7v-5zM277.3 26.8c-.1-.3-.2-.5-.4-.7-.2-.2-.5-.3-.8-.3-.4 0-.8.2-1 .5-.5.9-.5 2 0 3 .2.3.6.5 1 .5h.4c.1 0 .2-.1.4-.2l.3-.3c.1-.1.2-.3.3-.5l.6.3c-.1.2-.2.4-.4.6-.1.2-.3.3-.4.4-.2.1-.3.2-.5.2-.2.1-.4.1-.7.1-.3 0-.6-.1-.9-.2-.3-.1-.5-.3-.6-.5-.2-.2-.3-.5-.4-.8-.2-.7-.2-1.5 0-2.2.1-.3.2-.6.4-.8.2-.2.4-.4.6-.5.3-.1.6-.2.9-.2.2 0 .5 0 .7.1.2.1.4.2.5.3l.4.4c.1.2.2.4.3.5l-.7.3zM283 29.2c-.1.1-.2.3-.3.4-.2.3-.6.5-.9.6-.2.1-.5.1-.7.1-.3 0-.6-.1-.8-.2-.3-.1-.5-.3-.7-.5-.2-.2-.4-.5-.5-.8-.1-.4-.2-.8-.2-1.2 0-.4 0-.7.1-1.1.1-.3.2-.6.4-.8.2-.2.4-.4.6-.5.3-.1.6-.2.8-.2.3 0 .5 0 .7.1.2.1.4.2.6.4.2.2.3.4.4.7.1.3.2.7.2 1v.5h-3.3c0 .3 0 .5.1.8l.3.6c.1.2.3.3.5.4.2.1.4.1.6.1.3 0 .6-.1.8-.2l.6-.6.7.4zm-.9-1.9c0-.4-.1-.8-.3-1.1-.2-.3-.5-.4-.9-.4s-.7.1-1 .4c-.2.3-.4.7-.4 1.1h2.6zM6.2 36.9v-1.7h.7v1.7h1.2v.6H6.9v3.6c0 .1 0 .2.1.3.1.1.3.1.4.1H8v.6c0-.1-.1-.1-.2-.1h-.5c-.3 0-.6 0-.8-.2-.2-.2-.3-.4-.3-.7v-3.7h-.8v-.6h.8zM12.8 39.4c0 .3 0 .7-.1 1-.1.3-.2.6-.4.8l-.6.6c-.6.3-1.2.3-1.8 0-.3-.1-.5-.3-.6-.6-.3-.2-.4-.5-.5-.8-.2-.7-.2-1.4 0-2 .1-.3.2-.6.4-.8l.6-.6c.6-.3 1.2-.3 1.8 0 .3.1.5.3.6.6.2.3.3.5.4.8.2.3.2.7.2 1zm-.7 0c0-.5-.1-1-.4-1.5-.4-.6-1.1-.7-1.7-.3l-.3.3c-.5.9-.5 2.1 0 3 .4.6 1.1.7 1.7.3l.3-.3c.3-.4.4-1 .4-1.5zM16.3 37.9c.2-.3.4-.6.7-.8.4-.2.8-.3 1.2-.3.2 0 .4 0 .6.1.2.1.4.1.6.3.2.1.3.3.4.5.1.2.2.5.2.7v3.2c0 .1 0 .3.1.4h-.7l-.1-.7c-.2.2-.4.4-.7.5-.3.2-.6.3-1 .3-.2 0-.4 0-.6-.1-.3-.1-.6-.4-.8-.7-.1-.2-.1-.4-.1-.6 0-.5.2-1 .7-1.3.3-.2.6-.3 1-.4.5-.1.9-.3 1.4-.3v-.3c0-.3-.1-.5-.3-.7-.2-.1-.5-.2-.7-.2-.2 0-.3 0-.5.1-.1 0-.3.1-.4.2l-.3.3c-.1.1-.1.2-.2.3l-.5-.5zm2.9 1.3c-1.6.3-2.4.8-2.4 1.4 0 .1 0 .2.1.3 0 .1.1.2.2.2.1.1.2.1.3.2.1 0 .2.1.3.1.1 0 .3 0 .4-.1.1 0 .3-.1.4-.2.1-.1.3-.2.4-.3l.3-.3v-1.3zM21.4 40.7l.6.6c.3.1.5.2.8.2.3 0 .6-.1.8-.3.2-.1.3-.4.3-.6 0-.2-.1-.4-.2-.5l-.6-.3c-.2-.1-.5-.2-.7-.2-.2-.1-.5-.2-.7-.3-.2-.1-.4-.2-.5-.4-.2-.2-.2-.5-.2-.7 0-.4.2-.8.5-1 .3-.2.8-.4 1.2-.3.2 0 .3 0 .5.1.2 0 .3.1.5.2.1.1.3.2.4.3.1.1.2.2.3.4l-.5.4c-.2-.2-.4-.4-.6-.5-.2-.1-.5-.2-.7-.2-.2 0-.5.1-.7.2-.2.1-.2.3-.2.5s.1.3.2.4c.2.1.3.2.5.3.2.1.5.1.7.2.2.1.5.2.7.3.2.1.4.3.5.5.2.2.2.5.2.8 0 .2 0 .4-.1.6-.1.2-.2.3-.4.5l-.6.3c-.1-.2-.4-.2-.6-.2-.4 0-.8-.1-1.1-.2-.4-.2-.7-.4-.9-.7l.6-.4zM28.6 38.4c-.1-.3-.2-.5-.4-.7-.2-.2-.5-.3-.8-.3-.4 0-.8.2-1 .5-.5.9-.5 2 0 3 .2.3.6.5 1 .5h.4c.1 0 .2-.1.4-.2l.3-.3c.1-.1.2-.3.3-.5l.6.3c-.1.2-.2.4-.4.6-.1.2-.3.3-.4.4-.2.1-.3.2-.5.2-.3.1-.5.1-.7.1-.3 0-.6-.1-.9-.2-.3-.1-.5-.3-.6-.5-.2-.2-.3-.5-.4-.8-.2-.7-.2-1.5 0-2.2.1-.3.2-.6.4-.8.2-.2.4-.4.6-.5.3-.1.6-.2.9-.2.2 0 .5 0 .7.1.2.1.4.2.5.3l.4.4c.1.2.2.4.3.5l-.7.3zM34.2 40.9c-.1.1-.2.3-.3.4-.2.3-.6.5-.9.6-.2.1-.4.1-.7.1-.3 0-.6-.1-.8-.2-.3-.1-.5-.3-.7-.5-.2-.2-.4-.5-.5-.8-.1-.4-.2-.8-.2-1.2 0-.4 0-.7.1-1.1.1-.3.2-.6.4-.8.2-.2.4-.4.6-.5.3-.1.6-.2.8-.2.3 0 .5 0 .7.1.2.1.4.2.6.4.2.2.3.4.4.7.1.3.2.7.2 1v.5h-3.3c0 .3 0 .5.1.8l.3.6c.1.2.3.3.5.4.2.1.4.1.6.1.3 0 .6-.1.8-.2l.6-.6.7.4zm-.8-2c0-.4-.1-.8-.3-1.1-.2-.3-.5-.4-.9-.4s-.7.1-1 .4c-.2.3-.4.7-.4 1.1h2.6zM35.3 36.9h.7v1c.1-.2.2-.3.3-.5l.3-.3c.1-.1.3-.2.4-.2.2-.1.4-.1.6-.1v.7c-.4 0-.8.1-1 .4-.3.4-.5.8-.6 1.2v2.8h-.7v-5zM39 36.9v-1.7h.7v1.7h1.2v.6h-1.2v3.6c0 .1 0 .2.1.3.1.1.3.1.4.1h.6v.6c-.1 0-.2 0-.3.1H40c-.3 0-.6 0-.8-.2-.2-.2-.3-.4-.3-.7v-3.7h-.8V37h.9zM41.8 37.9c.2-.3.4-.6.7-.8.4-.2.8-.3 1.2-.3.2 0 .4 0 .6.1.2.1.4.1.6.3.2.1.3.3.4.5.1.2.2.5.2.7v3.2c0 .1 0 .3.1.4h-.7l-.1-.7c-.2.2-.4.4-.7.5-.3.2-.6.3-1 .3-.2 0-.4 0-.6-.1-.3-.1-.6-.4-.8-.7-.1-.2-.1-.4-.1-.6 0-.5.2-1 .7-1.3.3-.2.6-.3 1-.4.5-.1.9-.3 1.4-.3v-.3c0-.3-.1-.5-.3-.7-.2-.1-.5-.2-.7-.2-.2 0-.3 0-.5.1-.1 0-.3.1-.4.2l-.3.3c-.1.1-.1.2-.2.3l-.5-.5zm3 1.3c-1.6.3-2.4.8-2.4 1.4 0 .1 0 .2.1.3 0 .1.1.2.2.2.1.1.2.1.3.2.1 0 .2.1.3.1.1 0 .3 0 .4-.1.1 0 .3-.1.4-.2.1-.1.3-.2.4-.3l.3-.3v-1.3zM47.7 34.8v.8H47v-.8h.7zm-.7 2.1h.7v5H47v-5zM50 36.9v.7c.2-.2.4-.4.7-.6.2-.1.5-.2.8-.2.2 0 .4 0 .5.1.2.1.3.1.5.3.1.1.3.3.3.5.1.2.1.5.1.7v3.7h-.7v-3.6c.1-.4-.2-.8-.6-.9h-.2c-.1 0-.3 0-.4.1-.1 0-.3.1-.4.2-.1.1-.2.2-.4.2-.1-.1-.2 0-.2.1V42h-.7v-5h.7zM60.5 36.9l-1.8 5.5c-.1.2-.2.5-.3.7-.1.2-.3.3-.4.4-.1.1-.3.2-.5.2s-.3.1-.5.1h-.5v-.6h.7c.1 0 .3-.1.4-.2.1-.1.3-.2.3-.4.1-.2.2-.4.2-.7l-1.8-5.1h.7l1.4 3.8 1.2-3.8.9.1zM65 39.4c0 .3 0 .7-.1 1-.1.3-.2.6-.4.8l-.6.6c-.6.3-1.2.3-1.8 0-.3-.1-.5-.3-.6-.6-.2-.3-.3-.5-.4-.8-.2-.7-.2-1.4 0-2 .1-.3.2-.6.4-.8l.6-.6c.6-.3 1.2-.3 1.8 0 .3.1.5.3.6.6.2.3.3.5.4.8.1.3.1.7.1 1zm-.7 0c0-.5-.1-1-.4-1.5-.4-.6-1.1-.7-1.7-.3l-.3.3c-.5.9-.5 2.1 0 3 .4.6 1.1.7 1.7.3l.3-.3c.4-.4.5-1 .4-1.5zM69.2 41.9v-.7c-.2.2-.4.4-.7.6-.3.2-.6.2-.8.2-.2 0-.4 0-.5-.1-.2 0-.3-.1-.5-.3-.1-.1-.3-.3-.3-.5-.1-.2-.1-.5-.1-.7v-3.7h.7v3.6c0 .3.1.5.2.7.2.1.4.2.6.2.1 0 .3 0 .4-.1.1 0 .3-.1.4-.2.1-.1.2-.2.4-.2l.3-.3v-3.8h.7v5h-.8zM71.3 36.9h.7v1c.1-.2.2-.3.3-.5l.3-.3c.1-.1.3-.2.4-.2.2-.1.4-.1.6-.1v.7c-.4 0-.8.1-1 .4-.3.4-.5.8-.6 1.2v2.8h-.7v-5zM78 34.9v2.4c.2-.2.4-.3.6-.4.2-.1.5-.2.7-.2.2 0 .5 0 .7.1.2.1.5.2.7.4.2.2.4.5.5.8.1.4.2.8.2 1.2 0 .4-.1.9-.2 1.3-.1.3-.3.6-.5.8-.2.2-.4.3-.7.4-.2.3-.5.3-.7.3-.3 0-.6-.1-.8-.2-.2-.1-.5-.3-.7-.5l-.1.5h-.5v-.6-6.5h.8zm0 5.8c.2.2.4.4.6.5.2.1.4.2.6.2.4 0 .8-.2 1-.5.3-.4.4-1 .4-1.5 0-.3 0-.6-.1-1l-.3-.6c-.1-.2-.3-.3-.5-.3-.2-.1-.4-.1-.6-.1-.2 0-.5.1-.6.2-.2.1-.4.3-.6.5l.1 2.6zM85.5 41.9v-.7c-.2.2-.4.4-.7.6-.2.2-.5.2-.8.2-.2 0-.4 0-.5-.1-.2 0-.3-.1-.5-.3-.1-.1-.3-.3-.3-.5-.1-.2-.1-.5-.1-.7v-3.7h.7v3.6c0 .3.1.5.2.7.2.1.4.2.6.2.1 0 .3 0 .4-.1.1 0 .3-.1.4-.2.1-.1.2-.2.4-.2l.3-.3v-3.8h.7v5h-.8zM87.8 40.7l.6.6c.3.1.5.2.8.2.3 0 .6-.1.8-.3.2-.1.3-.4.3-.6 0-.2-.1-.4-.2-.5l-.6-.3c-.2-.1-.5-.2-.7-.2-.2-.1-.5-.2-.7-.3-.2-.1-.4-.2-.5-.4-.2-.2-.2-.5-.2-.7 0-.4.2-.8.5-1 .3-.2.8-.4 1.2-.3.2 0 .3 0 .5.1.2 0 .3.1.5.2.1.1.3.2.4.3.1.1.2.2.3.4l-.5.4c-.2-.2-.4-.4-.6-.5-.2-.1-.5-.2-.7-.2-.2 0-.5.1-.7.2-.2.1-.2.3-.2.5s.1.3.2.4c.2.1.3.2.5.3.2.1.5.1.7.2.2.1.5.2.7.3.2.1.4.3.5.5.2.2.2.5.2.8 0 .2 0 .4-.1.6-.1.2-.2.3-.4.5l-.6.3c-.1-.2-.3-.2-.5-.2-.4 0-.8-.1-1.1-.2-.4-.2-.7-.4-.9-.7l.5-.4zM92.9 34.8v.8h-.7v-.8h.7zm-.7 2.1h.7v5h-.7v-5zM95.2 36.9v.7c.2-.2.4-.4.7-.6.2-.1.5-.2.8-.2.2 0 .4 0 .5.1.2.1.3.1.5.3.1.1.3.3.3.5.1.2.1.5.1.7v3.7h-.7v-3.6c.1-.4-.2-.8-.6-.9h-.2c-.1 0-.3 0-.4.1-.1 0-.3.1-.4.2-.1.1-.2.2-.4.2l-.3.3v3.8h-.7v-5h.8zM103.4 40.9c-.1.1-.2.3-.3.4-.2.3-.6.5-.9.6-.2.1-.5.1-.7.1-.3 0-.6-.1-.8-.2-.3-.1-.5-.3-.7-.5-.2-.2-.4-.5-.5-.8-.1-.4-.2-.8-.2-1.2 0-.4 0-.7.1-1.1.1-.3.2-.6.4-.8.2-.2.4-.4.6-.5.3-.1.6-.2.8-.2.3 0 .5 0 .7.1.2.1.4.2.6.4.2.2.3.4.4.7.1.3.2.7.2 1v.5H100c0 .3 0 .5.1.8l.3.6c.1.2.3.3.5.4.2.1.4.1.6.1.3 0 .6-.1.8-.2l.6-.6.5.4zm-.8-2c0-.4-.1-.8-.3-1.1-.2-.3-.5-.4-.9-.4s-.7.1-1 .4c-.2.3-.4.7-.4 1.1h2.6zM104.7 40.7l.6.6c.3.1.5.2.8.2.3 0 .6-.1.8-.3.2-.1.3-.4.3-.6 0-.2-.1-.4-.2-.5l-.6-.3c-.2-.1-.5-.2-.7-.2-.2-.1-.5-.2-.7-.3-.2-.1-.4-.2-.5-.4-.2-.2-.2-.5-.2-.7 0-.4.2-.8.5-1 .3-.2.8-.4 1.2-.3.2 0 .3 0 .5.1.2 0 .3.1.5.2.1.1.3.2.4.3.1.1.2.2.3.4l-.5.4c-.2-.2-.4-.4-.6-.5-.2-.1-.5-.2-.7-.2-.2 0-.5.1-.7.2-.2.1-.2.3-.2.5s.1.3.2.4c.2.1.3.2.5.3.2.1.5.1.7.2.2.1.5.2.7.3.2.1.4.3.5.5.2.2.2.5.2.8 0 .2 0 .4-.1.6-.1.2-.2.3-.4.5l-.6.3c-.2.1-.4.1-.7.1-.4 0-.8-.1-1.1-.2-.4-.2-.7-.4-.9-.7l.7-.7zM109.2 40.7l.6.6c.3.1.5.2.8.2.3 0 .6-.1.8-.3.2-.1.3-.4.3-.6 0-.2-.1-.4-.2-.5l-.6-.3c-.2-.1-.5-.2-.7-.2-.2-.1-.5-.2-.7-.3-.2-.1-.4-.2-.5-.4-.2-.2-.2-.5-.2-.7 0-.4.2-.8.5-1 .3-.2.8-.4 1.2-.3.2 0 .3 0 .5.1.2 0 .3.1.5.2.1.1.3.2.4.3.1.1.2.2.3.4l-.5.4c-.2-.2-.4-.4-.6-.5-.2-.1-.5-.2-.7-.2-.2 0-.5.1-.7.2-.2.1-.2.3-.2.5s.1.3.2.4c.2.1.3.2.5.3.2.1.5.1.7.2.2.1.5.2.7.3.2.1.4.3.5.5.2.2.2.5.2.8 0 .2 0 .4-.1.6-.1.2-.2.3-.4.5l-.6.3c-.2.1-.4.1-.7.1-.4 0-.8-.1-1.1-.2-.4-.2-.7-.4-.9-.7l.7-.7zM114.3 36l-.6 1.4h-.4l.5-1.4h-.4v-1.1h.9V36zM122.2 40.9c-.1.1-.2.3-.3.4-.2.3-.6.5-.9.6-.2.1-.5.1-.7.1-.3 0-.6-.1-.8-.2-.3-.1-.5-.3-.7-.5-.2-.2-.4-.5-.5-.8-.1-.4-.2-.8-.2-1.2 0-.4 0-.7.1-1.1.1-.3.2-.6.4-.8.2-.2.4-.4.6-.5.3-.1.6-.2.8-.2.3 0 .5 0 .7.1.2.1.4.2.6.4.2.2.3.4.4.7.1.3.2.7.2 1v.5h-3.3c0 .3 0 .5.1.8l.3.6c.1.2.3.3.5.4.2.1.4.1.6.1.3 0 .6-.1.8-.2l.6-.6.7.4zm-.8-2c0-.4-.1-.8-.3-1.1-.2-.3-.5-.4-.9-.4s-.7.1-1 .4c-.2.3-.4.7-.4 1.1h2.6zM124.1 34.9v7h-.7v-7h.7zM126.5 34.8v.8h-.7v-.8h.7zm-.7 2.1h.7v5h-.7v-5zM132 37.4h-.4c-.1 0-.2.1-.3.1.1.1.2.3.2.4.1.2.1.4.1.6 0 .2 0 .5-.1.7-.2.4-.5.8-1 .9-.2.1-.5.1-.7.1h-.5c-.1 0-.3-.1-.4-.1-.2 0-.4.2-.4.5 0 .1 0 .2.1.3.1.1.2.1.3.1.5 0 1 0 1.5.1.3 0 .7.1 1 .3.2.1.4.2.5.4.1.2.2.4.2.6 0 .2 0 .4-.1.5-.1.2-.3.3-.4.4-.2.1-.5.2-.7.3-.3.1-.7.1-1 .1-.6 0-1.1-.1-1.6-.3-.4-.2-.6-.5-.6-.9 0-.2.1-.4.2-.6.2-.2.4-.3.6-.4-.2 0-.3-.2-.5-.3-.1-.1-.2-.3-.2-.4 0-.2.1-.4.2-.5.2-.1.3-.3.5-.4-.2-.2-.4-.4-.5-.6-.1-.2-.2-.5-.2-.8 0-.2 0-.5.1-.7.1-.2.2-.4.4-.6.2-.2.4-.3.6-.4.2-.1.5-.1.8-.1.2 0 .5 0 .7.1.2.1.4.1.5.3.2-.1.3-.2.5-.3.2-.1.4-.1.6-.2v.8zm-.6 5.1c0-.3-.2-.5-.4-.6-.4-.2-.9-.2-1.3-.2-.2 0-.5 0-.7.1-.2 0-.3.1-.4.2-.1.1-.2.2-.2.3 0 .1-.1.2-.1.3 0 .1 0 .2.1.3.1.1.1.2.2.2.2.1.3.1.5.1h1.4c.2 0 .3-.1.5-.1.1-.1.2-.1.3-.2 0-.2.1-.3.1-.4zm-.4-3.9c0-.3-.1-.6-.3-.9-.3-.2-.6-.4-1-.3-.6-.1-1.2.4-1.2 1v.2c0 .3.1.6.4.8.3.2.6.3.9.3.2 0 .4 0 .5-.1.1-.1.3-.1.4-.2.1-.1.2-.2.2-.4 0-.1.1-.3.1-.4zM133.8 34.8v.8h-.7v-.8h.7zm-.7 2.1h.7v5h-.7v-5zM136.1 34.9v2.4c.2-.2.4-.3.6-.4.2-.1.5-.2.7-.2.2 0 .5 0 .7.1.2.1.5.2.7.4.2.2.4.5.5.8.1.4.2.8.2 1.2 0 .4-.1.9-.2 1.3-.1.3-.3.6-.5.8-.2.2-.4.3-.7.4-.2.1-.5.1-.7.1-.3 0-.6-.1-.8-.2-.2-.1-.5-.3-.7-.5l-.1.5h-.5V41v-6.5h.8zm0 5.8c.2.2.4.4.6.5.2.1.4.2.6.2.4 0 .8-.2 1-.5.3-.4.4-1 .4-1.5 0-.3 0-.6-.1-1l-.3-.6c-.1-.2-.3-.3-.5-.3-.2-.1-.4-.1-.6-.1-.2 0-.5.1-.6.2-.2.1-.4.3-.6.5l.1 2.6zM141.5 34.8v.8h-.7v-.8h.7zm-.7 2.1h.7v5h-.7v-5zM143.9 34.9v7h-.7v-7h.7zM146.2 34.8v.8h-.7v-.8h.7zm-.6 2.1h.7v5h-.7v-5zM148.1 36.9v-1.7h.7v1.7h1.2v.6h-1.2v3.6c0 .1 0 .2.1.3.1.1.3.1.4.1h.6v.6c-.1 0-.2 0-.3.1h-.5c-.3 0-.6 0-.8-.2-.2-.2-.3-.4-.3-.7v-3.7h-.8V37h.9zM154.7 36.9l-1.8 5.5c-.1.2-.2.5-.3.7-.1.2-.3.3-.4.4-.1.1-.3.2-.5.2s-.3.1-.5.1h-.5v-.6h.7c.1 0 .3-.1.4-.2.1-.1.3-.2.3-.4.1-.2.2-.4.2-.7l-1.8-5.1h.7l1.4 3.8 1.2-3.8.9.1zM158.5 41.9v-4.4h-.9v-.6h.9v-.6c0-.2 0-.5.1-.7 0-.2.1-.3.2-.5.1-.1.2-.2.4-.2s.4-.1.5-.1h.6v.6h-.5c-.2 0-.4 0-.5.1-.1.2-.2.4-.1.6v.7h1.1v.6h-1.1v4.4l-.7.1zM165 39.4c0 .3 0 .7-.1 1-.1.3-.2.6-.4.8l-.6.6c-.6.3-1.2.3-1.8 0-.3-.1-.5-.3-.6-.6-.2-.3-.3-.5-.4-.8-.2-.7-.2-1.4 0-2 .1-.3.2-.6.4-.8l.6-.6c.6-.3 1.2-.3 1.8 0 .3.1.5.3.6.6.2.3.3.5.4.8.1.3.1.7.1 1zm-.7 0c0-.5-.1-1-.4-1.5-.4-.6-1.1-.7-1.7-.3l-.3.3c-.5.9-.5 2.1 0 3 .4.6 1.1.7 1.7.3l.3-.3c.3-.4.5-1 .4-1.5zM166.1 36.9h.7v1c.1-.2.2-.3.3-.5l.3-.3c.1-.1.3-.2.4-.2.2-.1.4-.1.6-.1v.7c-.4 0-.8.1-1 .4-.3.4-.5.8-.6 1.2v2.8h-.7v-5zM172.2 36.9v-1.7h.7v1.7h1.2v.6h-1.2v3.6c0 .1 0 .2.1.3.1.1.3.1.4.1h.6v.6c-.1 0-.2 0-.3.1h-.5c-.3 0-.6 0-.8-.2-.2-.2-.3-.4-.3-.7v-3.7h-.8V37h.9zM175.8 34.9v2.6c.2-.2.4-.4.7-.6.2-.1.5-.2.8-.2.2 0 .4 0 .5.1.2.1.3.1.5.3.1.1.3.3.3.5.1.2.1.5.1.7V42h-.7v-3.6c.1-.4-.2-.8-.6-.9h-.2c-.1 0-.3 0-.4.1-.1 0-.3.1-.4.2-.1.1-.2.2-.4.2l-.3.3v3.8h-.7v-7h.8zM184.1 40.9c-.1.1-.2.3-.3.4-.2.3-.6.5-.9.6-.2.1-.5.1-.7.1-.3 0-.6-.1-.8-.2-.3-.1-.5-.3-.7-.5-.2-.2-.4-.5-.5-.8-.1-.4-.2-.8-.2-1.2 0-.4 0-.7.1-1.1.1-.3.2-.6.4-.8.2-.2.4-.4.6-.5.3-.1.6-.2.8-.2.3 0 .5 0 .7.1.2.1.4.2.6.4.2.2.3.4.4.7.1.3.2.7.2 1v.5h-3.3c0 .3 0 .5.1.8l.3.6c.1.2.3.3.5.4.2.1.4.1.6.1.3 0 .6-.1.8-.2l.6-.6.7.4zm-.8-2c0-.4-.1-.8-.3-1.1-.2-.3-.5-.4-.9-.4s-.7.1-1 .4c-.2.3-.4.7-.4 1.1h2.6zM189 34.9v7h-.8v-7h.8zM191.5 36.9v.7c.2-.2.4-.4.7-.6.2-.1.5-.2.8-.2.2 0 .4 0 .5.1.2.1.3.1.5.3.1.1.3.3.3.5.1.2.1.5.1.7v3.7h-.7v-3.6c.1-.4-.2-.8-.6-.9h-.2c-.1 0-.3 0-.4.1-.1 0-.3.1-.4.2-.1.1-.2.2-.4.2l-.3.3v3.8h-.7v-5h.8zM196 40.7l.6.6c.3.1.5.2.8.2.3 0 .6-.1.8-.3.2-.1.3-.4.3-.6 0-.2-.1-.4-.2-.5l-.6-.3c-.2-.1-.5-.2-.7-.2-.2-.1-.5-.2-.7-.3-.2-.1-.4-.2-.5-.4-.2-.2-.2-.5-.2-.7 0-.4.2-.8.5-1 .3-.2.8-.4 1.2-.3.2 0 .3 0 .5.1.2 0 .3.1.5.2.1.1.3.2.4.3.1.1.2.2.3.4l-.5.4c-.2-.2-.4-.4-.6-.5-.2-.1-.5-.2-.7-.2-.2 0-.5.1-.7.2-.2.1-.2.3-.2.5s.1.3.2.4c.2.1.3.2.5.3.2.1.5.1.7.2.2.1.5.2.7.3.2.1.4.3.5.5.2.2.2.5.2.8 0 .2 0 .4-.1.6-.1.2-.2.3-.4.5l-.6.3c-.2.1-.4.1-.7.1-.4 0-.8-.1-1.1-.2-.4-.2-.7-.4-.9-.7l.7-.7zM200.6 36.9v-1.7h.7v1.7h1.2v.6h-1.2v3.6c0 .1 0 .2.1.3.1.1.3.1.4.1h.6v.6c-.1 0-.2 0-.3.1h-.5c-.3 0-.6 0-.8-.2-.2-.2-.3-.4-.3-.7v-3.7h-.8V37h.9zM203.4 37.9c.2-.3.4-.6.7-.8.4-.2.8-.3 1.2-.3.2 0 .4 0 .6.1.2.1.4.1.6.3.2.1.3.3.4.5.1.2.2.5.2.7v3.2c0 .1 0 .3.1.4h-.7l-.1-.7c-.2.2-.4.4-.7.5-.3.2-.6.3-1 .3-.2 0-.4 0-.6-.1-.3-.1-.6-.4-.8-.7-.1-.2-.1-.4-.1-.6 0-.5.2-1 .7-1.3.3-.2.6-.3 1-.4.5-.1.9-.3 1.4-.3v-.3c0-.3-.1-.5-.3-.7-.2-.1-.5-.2-.7-.2-.2 0-.3 0-.5.1-.1 0-.3.1-.4.2l-.3.3c-.1.1-.1.2-.2.3l-.5-.5zm3 1.3c-1.6.3-2.4.8-2.4 1.4 0 .1 0 .2.1.3 0 .1.1.2.2.2.1.1.2.1.3.2.1 0 .2.1.3.1.1 0 .3 0 .4-.1.1 0 .3-.1.4-.2.1-.1.3-.2.4-.3l.3-.3v-1.3zM209.2 36.9v.7c.2-.2.4-.4.7-.6.2-.1.5-.2.8-.2.2 0 .4 0 .5.1.2.1.3.1.5.3.1.1.3.3.3.5.1.2.1.5.1.7v3.7h-.7v-3.6c.1-.4-.2-.8-.6-.9h-.2c-.1 0-.3 0-.4.1-.1 0-.3.1-.4.2-.1.1-.2.2-.4.2l-.3.3v3.8h-.7v-5h.8zM213.9 36.9v-1.7h.7v1.7h1.2v.6h-1.2v3.6c0 .1 0 .2.1.3.1.1.3.1.4.1h.6v.6c-.1 0-.2 0-.3.1h-.5c-.3 0-.6 0-.8-.2-.2-.2-.3-.4-.3-.7v-3.7h-.8V37h.9zM218.9 41.9l2.1-7h1.2l2.1 7h-.8l-.7-2.2h-2.5l-.7 2.2h-.7zm1.7-2.8h2.1l-1-3.6h-.1l-1 3.6zM225.5 40.7l.6.6c.3.1.5.2.8.2.3 0 .6-.1.8-.3.2-.1.3-.4.3-.6 0-.2-.1-.4-.2-.5l-.6-.3c-.2-.1-.5-.2-.7-.2-.2-.1-.5-.2-.7-.3-.2-.1-.4-.2-.5-.4-.2-.2-.2-.5-.2-.7 0-.4.2-.8.5-1 .3-.2.8-.4 1.2-.3.2 0 .3 0 .5.1.2 0 .3.1.5.2.1.1.3.2.4.3.1.1.2.2.3.4l-.5.4c-.2-.2-.4-.4-.6-.5-.2-.1-.5-.2-.7-.2-.2 0-.5.1-.7.2-.2.1-.2.3-.2.5s.1.3.2.4c.2.1.3.2.5.3.2.1.5.1.7.2.2.1.5.2.7.3.2.1.4.3.5.5.2.2.2.5.2.8 0 .2 0 .4-.1.6-.1.2-.2.3-.4.5l-.6.3c-.2.1-.4.1-.7.1-.4 0-.8-.1-1.1-.2-.4-.2-.7-.4-.9-.7l.7-.7zM230 40.7l.6.6c.3.1.5.2.8.2.3 0 .6-.1.8-.3.2-.1.3-.4.3-.6 0-.2-.1-.4-.2-.5l-.6-.3c-.2-.1-.5-.2-.7-.2-.2-.1-.5-.2-.7-.3-.2-.1-.4-.2-.5-.4-.2-.2-.2-.5-.2-.7 0-.4.2-.8.5-1 .3-.2.8-.4 1.2-.3.2 0 .3 0 .5.1.2 0 .3.1.5.2.1.1.3.2.4.3.1.1.2.2.3.4l-.5.4c-.2-.2-.4-.4-.6-.5-.2-.1-.5-.2-.7-.2-.2 0-.5.1-.7.2-.2.1-.2.3-.2.5s.1.3.2.4c.2.1.3.2.5.3.2.1.5.1.7.2.2.1.5.2.7.3.2.1.4.3.5.5.2.2.2.5.2.8 0 .2 0 .4-.1.6-.1.2-.2.3-.4.5l-.6.3c-.2.1-.4.1-.7.1-.4 0-.8-.1-1.1-.2-.4-.2-.7-.4-.9-.7l.7-.7zM238.1 40.9c-.1.1-.2.3-.3.4-.2.3-.6.5-.9.6-.2.1-.5.1-.7.1-.3 0-.6-.1-.8-.2-.3-.1-.5-.3-.7-.5-.2-.2-.4-.5-.5-.8-.1-.4-.2-.8-.2-1.2 0-.4 0-.7.1-1.1.1-.3.2-.6.4-.8.2-.2.4-.4.6-.5.3-.1.6-.2.8-.2.3 0 .5 0 .7.1.2.1.4.2.6.4.2.2.3.4.4.7.1.3.2.7.2 1v.5h-3.3c0 .3 0 .5.1.8l.3.6c.1.2.3.3.5.4.2.1.4.1.6.1.3 0 .6-.1.8-.2l.6-.6.7.4zm-.9-2c0-.4-.1-.8-.3-1.1-.2-.3-.5-.4-.9-.4s-.7.1-1 .4c-.2.3-.4.7-.4 1.1h2.6zM239.4 36.9v-1.7h.7v1.7h1.2v.6h-1.2v3.6c0 .1 0 .2.1.3.1.1.3.1.4.1h.6v.6c-.1 0-.2 0-.3.1h-.5c-.3 0-.6 0-.8-.2-.2-.2-.3-.4-.3-.7v-3.7h-.8V37h.9zM244.4 34.9h.7l1.3 5.6 1.4-5.6h.7l1.4 5.6 1.3-5.6h.7l-1.7 7h-.7l-1.4-5.7-1.4 5.7h-.7l-1.6-7zM252.8 36.9h.7v1c.1-.2.2-.3.3-.5l.3-.3c.1-.1.3-.2.4-.2.2-.1.4-.1.6-.1v.7c-.4 0-.8.1-1 .4-.3.4-.5.8-.6 1.2v2.8h-.7v-5zM256.9 34.8v.8h-.7v-.8h.7zm-.7 2.1h.7v5h-.7v-5zM258.7 36.9v-1.7h.7v1.7h1.2v.6h-1.2v3.6c0 .1 0 .2.1.3.1.1.3.1.4.1h.6v.6c-.1 0-.2 0-.3.1h-.5c-.3 0-.6 0-.8-.2-.2-.2-.3-.4-.3-.7v-3.7h-.8V37h.9zM265.4 40.9c-.1.1-.2.3-.3.4-.2.3-.6.5-.9.6-.2.1-.5.1-.7.1-.3 0-.6-.1-.8-.2-.3-.1-.5-.3-.7-.5-.2-.2-.4-.5-.5-.8-.1-.4-.2-.8-.2-1.2 0-.4 0-.7.1-1.1.1-.3.2-.6.4-.8.2-.2.4-.4.6-.5.3-.1.6-.2.8-.2.3 0 .5 0 .7.1.2.1.4.2.6.4.2.2.3.4.4.7.1.3.2.7.2 1v.5h-3.3c0 .3 0 .5.1.8l.3.6c.1.2.3.3.5.4.2.1.4.1.6.1.3 0 .6-.1.8-.2l.6-.6.7.4zm-.9-2c0-.4-.1-.8-.3-1.1-.2-.3-.5-.4-.9-.4s-.7.1-1 .4c-.2.3-.4.7-.4 1.1h2.6zM266.3 39.7v-.6h2.4v.6h-2.4zM273.9 39.4c0 .3 0 .7-.1 1-.1.3-.2.6-.4.8l-.6.6c-.6.3-1.2.3-1.8 0-.3-.1-.5-.3-.6-.6-.2-.3-.3-.5-.4-.8-.2-.7-.2-1.4 0-2 .1-.3.2-.6.4-.8l.6-.6c.6-.3 1.2-.3 1.8 0 .3.1.5.3.6.6.2.3.3.5.4.8 0 .3.1.7.1 1zm-.7 0c0-.5-.1-1-.4-1.5-.4-.6-1.1-.7-1.7-.3l-.3.3c-.5.9-.5 2.1 0 3 .4.6 1.1.7 1.7.3l.3-.3c.3-.4.4-1 .4-1.5zM275.3 41.9v-4.4h-.9v-.6h.9v-.6c0-.2 0-.5.1-.7 0-.2.1-.3.2-.5.1-.1.2-.2.4-.2s.4-.1.5-.1h.6v.6h-.5c-.2 0-.4 0-.5.1-.1.2-.2.4-.1.6v.7h1.1v.6H276v4.4l-.7.1zM278.6 41.9v-4.4h-.9v-.6h.9v-.6c0-.2 0-.5.1-.7 0-.2.1-.3.2-.5.1-.1.2-.2.4-.2s.4-.1.5-.1h.6v.6h-.5c-.2 0-.4 0-.5.1-.1.2-.2.4-.1.6v.7h1.1v.6h-1.1v4.4l-.7.1zM282.2 40.9V42h-.9v-1.1h.9z"/></svg>