<svg xmlns="http://www.w3.org/2000/svg" width="281.3" height="7.9"><style>.st0{fill:red}.st1{fill:#fff}</style><path class="st0" d="M.9 1.4H.8h.1zM1 3.3zm.2-.3zm0-1.4v.1-.1zm.1.4v.2V2zm0 .2zm.1.3l-.2.1V2.9h.2v-.4h.1v-.1h-.1v.1zm.2-.5zm0 .9v-.2.2zm.2.1h-.1.1zm.5.5zm0-1v.2h.1v-.4l-.1.2zm.3-.5l-.1.1.1-.1zm.2-.5l-.1.1v.1h.1l.2-.3h-.2v.1zm0 .7v.1l.2.1h.1v-.1l-.3.1v-.2zm.3-.2v-.1H3V2h.1zm0 .8v-.1L3 2.6h-.2l.1.1.2.1zm.1-1.2V2v-.4zm0 .8v-.1h-.1l.1.1.1.2v-.1l-.1-.1zm.2-.8l-.1.1.1-.1zm0 .3h-.2l.1.1h.1v-.1zm.2.6zm0-.9zm.1.7zm-.1 0h-.1l.1.2h-.1l-.2.2v.1l.2.1v-.1h.1l.1.3h.1V3l.1-.1v-.1h-.2V2.5h-.1v-.2zm.3.2zm0-.1H4h-.1zm.2-.3v.3-.3zm0 1.1zm.2-.7L4 2.4l.1.3.1.1.1-.3zm0 .6zm0-1.1v.1V2zm.2.3zm0 .7zm-.1.5l.1.2v-.2h-.1zm.3-.7h.2v-.2l-.2.2zm-.2-.5v.5l.2-.3H5v-.1l-.1-.1h-.4zm.9.2zm0 .3v-.1h-.2l.2.1zm.1.2zm.1-.1v-.3.3zm0 .8zm.1-1.3l-.1-.1h-.1v.1h.1v.1h.1v-.1zm.1-.3l-.1.1.1.1v-.2zm.1.3v.1-.1zm.1 0zm.7 1.1v.1-.1zm.2-1.3l-.2.1.1.2.1-.2v-.1zm.3 0l.1.2-.1-.2zm.2.1l.1.1-.1-.1zm.3.5h-.2l.1.1.1-.1zm.2.7zm.2-1.2zm.2.7l.1-.1-.1.1zm0-.6l-.1.2h.1l.1.2v-.2l-.1-.2zm.1-.1v-.1h-.1v.1h.1zm.2.1zm.4 0l-.2-.1h-.1v.1H9zm0 .4zm0-.5zm.2.4zm.2-.5zm45.8-.8zm.3 1.7v.1-.1zm.2-.5zm0 1v-.1l-.1-.1h-.1l.2.2zm.1-.9l-.1.1-.1.1V3h.1l.1-.1v-.2zm0 .3zm-1.6-.4H54h.2zm.2.7zm.1-.2h-.1.1zm0-.5v.3-.3zm0-.2zm.4-.1v.1l.1.1v-.1l-.1-.1zm.2.3zm.2-.2l-.2.1v.1h.1l.1-.2zm.1.7l-.1-.1v-.1h-.1V3l.2.1zm.1-.5v-.1h-.1l.1.3h.1l.1-.2.1-.1v.1h.1v-.2l-.1-.1h-.1l-.2.3zm.2-.5v.3h.2l-.1-.2-.1-.1zm.2-.4v.1-.1zm.3-.1zm0 .9H56h.2zm.1-.1l.1.1V2l-.1.4zm.4-.1h-.1v.1l.1-.1zm.1.1v.1-.1zm-.1 1.1v.1h.2l-.2-.1zm.3-1.1l.1-.1-.1.1zm.4.1l-.1.1.1-.1zm0 .3v.3-.3zm.3.1zm0-.4v.2-.2zm.2.2h-.1.1zm0 .4V3v.1zm.3-1.7zm-.1.8l.1.1-.1-.1zm.3.2v.1-.1zm.2-.3h-.1.1zm-.1-.2zm1.9.1zm0 .9l-.1.6.1-.6zm.1-.5v.2-.2zm-.1.2l.1.1-.1-.1zm1-.2zm-.3.2v.3l.1.1h.1l.1-.1-.1-.1v.1h-.1l-.1-.3zm.2.5l.1.1-.1-.1zm.4-1zm.1 1.6zM0 2.9V1.6l.1-.2.2-.2.2-.1h.3l.2.2h.1l.1.1.2-.1.1.1h.3v.1h.1l.1-.3h.9l.1.1.2-.1H4.1l.2-.1.2.1.5-.1h.7l.2.1h1l.1-.1h.7l.4.1.1-.1h.1l.7.1.1.1h46.3-1.1 2v.2V1.2H58l.1.1.2-.1H58.6l.6.1h1.3l.1.1v-.2l.5.1.2-.1h.4l.2.1.2.1.2.3V3.6l-.1.2H62l-.2.2h-3.4l-.1-.1-.2.1H55.7l-.7-.2H54.2h1.5-.2l-.2.1h-46l-.4-.1H7v-.1.1H4.8l-.1.1h-1v-.1h-.1l-.5.1-.1-.1h-.5v-.1h-.1l-.3.2H1.3L1 3.8l-.1-.1v.2H.4l-.2-.1-.1-.2-.1-.2v-.5zM220.3 1.4h-.1.1zm.1 1.9zm.2-.3zm.1-1.4v.1-.1zm.1.4v.2V2zm0 .2zm0 .3l-.2.1V2.9h.2v-.4h.1v-.1l-.1-.1v.2zm.3-.5zm0 .9v-.2h-.1l.1.2zm.2.1h-.1.1zm.4.5zm0-1v.2h.1l-.1-.4v.2zm.3-.5v.1V2zm.2-.5l-.1.1v.1h.1l.2-.3h-.2v.1zm0 .7v.1l.2.1h.1v-.1l-.2.1-.1-.2zm.3-.2v-.1h-.1V2h.1zm.1.8v-.1l-.1-.1h-.2l.1.1.2.1zm0-1.2V2v-.4zm.1.8v-.1h-.1l.1.1.1.2v-.1l-.1-.1zm.2-.8l-.1.1.1-.1zm0 .3h-.2l.1.1.1.1v-.2zm.1.6zm.1-.9zm.1.7zm-.1 0l-.1.1.1.2h-.1l-.2.2v.1l.2.1v-.1h.1l.1.3h.1V3l.1-.1v-.1h-.1V2.5h-.1l-.1-.2zm.2.2zm0-.1h.1-.1zm.3-.3v.3-.3zm0 1.1zm.2-.7l-.3-.1.1.3.1.1.1-.3zm-.1.6zm0-1.1v.1V2zm.2.3zm0 .7zm-.1.5l.1.2v-.2h-.1zm.4-.7h.2v-.2l-.2.2zm-.2-.5v.5l.2-.3H224.5v-.1l-.1-.1-.3-.1-.1.1zm.8.2zm0 .3v-.1h-.1l-.1.1h.2zm.2.2zm0-.1v-.3.3zm0 .8zm.1-1.3l-.1-.1h-.1v.1h.1v.1h.1v-.1zm.2-.3l-.1.1.1.1v-.2zm.1.3l-.1.1.1-.1zm.1 0zm.7 1.1v.1-.1zm.2-1.3l-.2.1.1.2.1-.2v-.1zm.2 0l.1.2-.1-.2zm.3.1l.1.1-.1-.1zm.2.5h-.2l.1.1.1-.1zm.3.7zm.1-1.2zm.2.7l.1-.1-.1.1zm.1-.6l-.1.2h.1l.1.2v-.2l-.1-.2zm.1-.1v-.1h-.1v.1h.1zm.1.1zm.4 0l-.1-.1-.1.1v.1h.1l.1-.1zm.1.4zm0-.5zm.1.4zm.2-.5zm45.2-.8zm.3 1.7v.1-.1zm.3-.5zm0 1v-.1l-.1-.1h-.1l.2.2zm0-.9l-.1.1-.1.1V3h.1l.1-.1v-.2zm.1.3zm-1.7-.4h-.2.2zm.2.7zm.1-.2h-.1.1zm.1-.5v.3-.3zm-.1-.2zm.4-.1v.1l.1.1v-.1l-.1-.1zm.2.3zm.2-.2l-.1.1v.1h.1v-.2zm.2.7l-.1-.1v-.1h-.1V3l.2.1zm0-.5v-.1h-.1l.1.3h.1l.1-.2.1-.1v.1h.1v-.2l-.1-.1h-.1l-.2.3zm.2-.5v.3h.2l-.1-.2-.1-.1zm.2-.4v.1-.1zm.3-.1zm.1.9h-.1l-.1.1.2-.1zm.1-.1l.1.1V2l-.1.4zm.3-.1h-.1v.1l.1-.1zm.1.1v.1-.1zm-.1 1.1v.1h.2l-.2-.1zm.4-1.1l.1-.1-.1.1zm.4.1l-.1.1.1-.1zm0 .3v.3-.3zm.2.1zm.1-.4v.2-.2zm.1.2h-.1.1zm0 .4V3v.1zm.4-1.7zm-.1.8l.1.1-.1-.1zm.2.2v.1-.1zm.2-.3h-.1.1zm0-.2zm1.8.1zm0 .9l-.1.6.1-.6zm.1-.5v.2-.2zm-.1.2l.1.1-.1-.1zm1-.2zm-.3.2v.3l.1.1h.1l.1-.1-.1-.1v.1h-.1l-.1-.3zm.2.5l.1.1-.1-.1zm.4-1zm.1 1.6zm-61.1-.8V1.6l.1-.2.2-.2.2-.1h.3l.3.1h.1l.1.1.2-.1.1.1h.3v.1h.1l.1-.1h.9l.1.1.2-.1H223.7l.2-.1.2.1.5-.1h.7l.2.1h1l.1-.1h.7l.4.1.1-.1h.1l.4-.1.1.1h45.7-1.1H274.9v.2-.2h1.3l.1.1.2-.1H276.8l.6.1h1.3l.1.1v-.2l.5.1.2-.1h.4l.2.1.2.1.2.3V3.6l-.1.2h-.2l-.2.2h-2.2.2-.8l-.1-.1-.2.1H274l-.2-.1H273h1.5-.5l-45.2-.1-.1.1-.4-.1h-1.9v-.1.1l-.6-.1h-.4l-.9-.1-.1.1h-.3l-.1-.1h-.5v-.1h-.1l-.5.1-.1-.1-.1.1h-.4v-.1h-.1l-.3.1H221.1l-.3-.1-.1-.1v.2h-.5l-.2-.1-.1-.1-.1-.3v-.2z"/><path class="st1" d="M78.1 0c.2 0 .3.2.2.3l-2.8 7.4c0 .1-.1.2-.2.2h-.7c-.1 0-.2-.1-.2-.2l-.8-2c-.1-.1-.1-.3-.1-.5 0 .2-.1.3-.1.5l-.8 2c0 .1-.1.2-.2.2h-.7c-.1 0-.2-.1-.2-.2L68.7.3V.2c0-.1.1-.2.2-.2H70c-.1 0 0 .1 0 .2l1.7 4.6c.1.1.1.3.1.5 0-.2.1-.3.1-.5l.6-1.5L71.4.4V.3c0-.1.1-.2.2-.2h1.1c.2-.1.3 0 .3.1l.2.6c.1.1.1.3.1.5 0-.2.1-.3.1-.5l.2-.6c.2-.1.3-.2.4-.2h1.1c.2 0 .3.2.2.3l-1.1 2.9.6 1.5c.1.2.1.3.1.5 0-.2.1-.3.1-.5L76.7.1c.1 0 .2-.1.3-.1h1.1zM83.6 0c.1 0 .2.1.2.2v1.1c0 .1-.1.2-.2.2H83v4.7h.6c.1 0 .2.1.2.2v1.1c0 .1-.1.2-.2.2h-2.7c-.1 0-.2-.1-.2-.2v-.9c0-.1.1-.2.2-.2h.6V1.6h-.6c-.1 0-.2-.1-.2-.2V.2c0-.1.1-.2.2-.2h2.7zM91.4 0c.1 0 .2.1.2.2v1.1c0 .1-.1.2-.2.2h-1.7v6.1c0 .1-.1.2-.2.2h-1.1c-.1 0-.2-.1-.2-.2v-6h-1.7c-.1 0-.2-.1-.2-.2V.2c0-.1.1-.2.2-.2h4.9zM99.2 0c.1 0 .2.1.2.2v7.4c0 .1-.1.2-.2.2h-1.1c-.1 0-.2-.1-.2-.2V4.7h-2.4v2.9c0 .1-.1.2-.2.2h-1.1c-.1 0-.2-.1-.2-.2V.2c-.1-.1 0-.2.1-.2h1.1c.1 0 .2.1.2.2v2.9h2.4V.2c.1-.1.2-.2.3-.2h1.1zM109.3 0c.1 0 .2.1.2.2l2.2 7.4v.1c0 .1-.1.2-.2.2h-1.1c-.1 0-.2-.1-.2-.2l-.4-1.4h-2.2l-.4 1.4c0 .1-.1.2-.2.2h-1.1c-.2 0-.3-.2-.2-.3l2.2-7.4c0-.1.1-.2.2-.2h1.2zm-.7 3l-.5 1.7h1.3l-.6-1.7c0-.2-.1-.3-.1-.5 0 .2 0 .4-.1.5zM123.2 0c.1 0 .2.1.2.2v7.4c0 .1-.1.2-.2.2H122c-.1 0-.2-.1-.2-.1l-2.1-4.2c-.1-.1-.1-.3-.2-.5v4.5c0 .1-.1.2-.2.2h-1.1c-.1 0-.2-.1-.2-.2V.2c0-.1.1-.2.2-.2h1.2c.1 0 .2.1.2.1l2.1 4.2c.1.1.1.3.2.5V.2c0-.1.1-.2.2-.2h1.1zM130.1 0c.1 0 .2.1.2.2v1.1c0 .1-.1.2-.2.2h-2.8v1.6h2c.1 0 .2.1.2.2v1.1c0 .1-.1.2-.2.2h-2v1.6h2.8c.1 0 .2.1.2.2v1.1c0 .1-.1.2-.2.2H126c-.1 0-.2-.1-.2-.2V.2c0-.1.1-.2.2-.2h4.1zM142.3 0c.2 0 .3.2.2.3l-2.8 7.4c0 .1-.1.2-.2.2h-.7c-.1 0-.2-.1-.2-.2l-.8-2c-.1-.1-.1-.3-.1-.5 0 .2-.1.3-.1.5l-.8 2c0 .1-.1.2-.2.2h-.7c-.1 0-.2-.1-.2-.2L132.9.3V.2c0-.1.1-.2.2-.2h1.1c.1 0 .2.1.2.2l1.7 4.6c.1.1.1.3.1.5 0-.2.1-.3.1-.5l.6-1.5-1.1-2.9V.3c0-.1.1-.2.2-.2h1.1c.1 0 .2.1.2.2l.2.6c.1.1.1.3.1.5 0-.2.1-.3.1-.5l.2-.6c0-.1.1-.2.2-.2h1.1c.2 0 .3.2.2.3l-1.1 2.9.6 1.5c.1.2.1.3.1.5 0-.2.1-.3.1-.5l1.7-4.6c0-.1.1-.2.2-.2h1.3zM153.1 0c.1 0 .1 0 .2.1l.5.5s.1.1.1.2v3.7c0 .1 0 .1-.1.2l-.5.5s-.1.1-.2.1h-.5c.1.1.2.2.2.4l1 2.1v.1c0 .1-.1.2-.2.2h-1.1c-.1 0-.2-.1-.2-.1l-1.2-2.6h-.8v2.5c0 .1-.1.2-.2.2H149c-.1 0-.2-.1-.2-.2V.2c0-.1.1-.2.2-.2h4.1zm-2.6 1.6c-.1 0-.2.1-.2.2v1.5c0 .1 0 .1.1.2 0 0 .1.1.2.1h1.5c.1 0 .1 0 .2-.1 0 0 .1-.1.1-.2V1.8c0-.1 0-.1-.1-.2 0 0-.1-.1-.2-.1h-1.6zM159.8 0c.1 0 .2.1.2.2l2.2 7.4v.1c0 .1-.1.2-.2.2h-1c-.1 0-.2-.1-.2-.2l-.4-1.4h-2.2l-.4 1.4c0 .1-.1.2-.2.2h-1.1c-.2 0-.3-.2-.2-.3l2.2-7.4c0-.1.1-.2.2-.2h1.1zm-.7 3l-.5 1.7h1.3l-.6-1.7c0-.2-.1-.3-.1-.5 0 .2-.1.4-.1.5zM171.4 0c.1 0 .2.1.2.2v7.4c0 .1-.1.2-.2.2h-1.1c-.1 0-.2-.1-.2-.2V4.1c0 .2-.1.3-.1.5l-1.2 3.2c0 .1-.1.2-.2.2h-.7c-.1 0-.2-.1-.2-.2l-1.2-3.2c-.1-.1-.1-.3-.1-.5v3.6c0 .1-.1.2-.2.2h-1.1c-.1 0-.2-.1-.2-.2V.2c0-.1.1-.2.2-.2h1.2c.1 0 .2.1.2.2l1.7 4.6c.1.1.1.3.1.5 0-.2.1-.3.1-.5l1.7-4.6c0-.1.1-.2.2-.2h1.1zM183.1 0c.1 0 .2.1.2.2v1.1c0 .1-.1.2-.2.2h-1.7v6.1c0 .1-.1.2-.2.2H180c-.1 0-.2-.1-.2-.2v-6h-1.7c-.1 0-.2-.1-.2-.2V.2c0-.1.1-.2.2-.2h5zM190.1 0c.1 0 .1 0 .2.1l.5.5s.1.1.1.2v3.7c0 .1 0 .1-.1.2l-.5.5s-.1.1-.2.1h-.5c.1.1.2.2.2.4l1 2.1v.1c0 .1-.1.2-.2.2h-1.1c-.1 0-.2-.1-.2-.1L188 5.1h-.8v2.5c0 .1-.1.2-.2.2h-1.1c-.1 0-.2-.1-.2-.2V.2c0-.1.1-.2.2-.2h4.2zm-2.6 1.6c-.1 0-.2.1-.2.2v1.5c0 .1 0 .1.1.2 0 0 .1.1.2.1h1.5c.1 0 .1 0 .2-.1 0 0 .1-.1.1-.2V1.8c0-.1 0-.1-.1-.2 0 0-.1-.1-.2-.1h-1.6zM198.4 0c.1 0 .2.1.2.2v6.9c0 .1 0 .1-.1.2l-.5.5s-.1.1-.2.1h-4.1c-.1 0-.1 0-.2-.1l-.5-.5s-.1-.1-.1-.2V.2c0-.1.1-.2.2-.2h1.1c.1 0 .2.1.2.2V6c0 .1 0 .1.1.2 0 0 .1.1.2.1h1.8c.1 0 .1 0 .2-.1 0 0 .1-.1.1-.2V.2c0-.1.1-.2.2-.2h1.4zM205.3 0c.1 0 .1 0 .2.1l.5.5s.1.1.1.2v1.4c0 .1-.1.2-.2.2h-1.1c-.1 0-.2-.1-.2-.2v-.4c0-.1 0-.1-.1-.2 0 0-.1-.1-.2-.1h-1.5c-.1 0-.1 0-.2.1 0 0-.1.1-.1.2V6c0 .1 0 .1.1.2 0 0 .1.1.2.1h1.5c.1 0 .1 0 .2-.1 0 0 .1-.1.1-.2v-.2c0-.1.1-.2.2-.2h1.1c.1 0 .2.1.2.2v1.4c0 .1 0 .1-.1.2l-.5.5s-.1.1-.2.1h-3.7c-.1 0-.1 0-.2-.1l-.4-.6s-.1-.1-.1-.2V.7c0-.1 0-.1.1-.2l.5-.5s.1-.1.2-.1h3.6zM213.6 0c.1 0 .2.1.2.2 0 0 0 .1-.1.1l-3 3.6 3 3.6.1.1c0 .1-.1.2-.2.2h-1.4c-.1 0-.1 0-.2-.1l-1.7-2.1c-.1-.2-.3-.4-.3-.6v2.5c0 .1-.1.2-.2.2h-1.1c-.1 0-.2-.1-.2-.2V.2c0-.1.1-.2.2-.2h1.1c.1 0 .2.1.2.2v2.5l.3-.6L212 0c0-.1.1-.1.2-.1h1.4z"/></svg>